<?xml version="1.0" encoding="UTF-8"?>
<svg width="116px" height="227px" viewBox="0 0 116 227" version="1.1" xmlns="http://www.w3.org/2000/svg" xmlns:xlink="http://www.w3.org/1999/xlink">
    <!-- Generator: Sketch 43.2 (39069) - http://www.bohemiancoding.com/sketch -->
    <title>doge</title>
    <desc>Created with Sketch.</desc>
    <defs></defs>
    <g id="Page-1" stroke="none" stroke-width="1" fill="none" fill-rule="evenodd">
        <g id="doge">
            <polygon id="Path-3" fill="#FFFFFF" points="78.4705882 201.398496 78.4705882 202.76391 78.4705882 204.129323 81.8823529 204.81203 85.2941176 206.518797 90.4117647 209.932331 97.2352941 209.932331 104.058824 209.932331 112.588235 206.518797 114.294118 205.494737 114.294118 204.129323 107.470588 205.494737 102.352941 205.494737 95.5294118 205.494737 88.7058824 204.129323 83.5882353 202.76391"></polygon>
            <polygon id="Fill-2" fill="#A87033" points="8.20216667 41.5136187 12.5961061 32.0917938 19.4796515 30.1786342 29.2930758 26.6455603 32.5155909 26.6455603 37.934197 28.8537315 37.934197 35.7723735 33.3943788 40.4828444 27.3887424 44.7525642 21.5307424 47.107358 14.2069242 47.8440039 13.0355 47.8440039 9.81298485 53.585249 8.20216667 50.0521751"></polygon>
            <polygon id="Fill-3" fill="#A87033" points="31.1969697 28.1175272 33.540697 25.909356 37.0558485 27.0134416 37.0558485 30.1781926"></polygon>
            <polyline id="Fill-4" fill="#A87033" points="81.1428788 32.3868054 93.5917879 45.0466926 96.3749091 45.9299611 100.036818 48.1381323 103.844606 48.1381323 108.091788 46.2249728 109.556727 43.7217899 109.556727 40.2629105 106.041576 36.3615136 99.4506667 31.3560311 93.0065152 27.6763346 88.1731818 26.3514319 85.243303 26.9396887 81.1428788 31.2094086"></polyline>
            <polygon id="Fill-5" fill="#A87033" points="67.5207879 32.6809339 39.3995758 54.1735058 32.9554242 69.3365759 31.7831212 78.7584008 34.1268485 88.3268482 37.9346364 95.8346304 44.9649394 102.753272 47.601303 103.784047 58.5861515 70.0723385 52.8740303 65.5093735 55.5103939 61.0930311 59.172303 60.9455253 74.5510909 37.2447821"></polygon>
            <polygon id="Fill-6" fill="#A87033" points="59.1744121 56.9708171 73.3817758 36.3615136 91.1034121 50.6404319 96.2302606 56.2350545 100.330685 67.1284047 91.6895636 64.6261051 88.3211697 59.1789883 83.4878364 59.3264942 81.1432303 61.0930311 78.654503 67.1284047 73.3817758 68.2324903 66.4973515 70.5139728 65.4726848 62.8595681 62.3942909 60.3563852 59.1744121 59.7681284"></polygon>
            <polygon id="Fill-7" fill="#A87033" points="56.8306848 69.7777685 63.4215939 70.5135311 65.9112 70.5135311 72.0627152 65.6555545 79.0930182 68.0845428 83.4869576 68.8945 86.5627152 70.5135311 82.1687758 70.5135311 76.6034121 71.9859397 73.380897 74.783251 83.4869576 79.346216 86.5627152 76.4022821 87.5882606 71.6918113 88.1744121 69.9252743 90.5172606 70.5135311 91.5428061 65.6555545 91.1034121 63.5948891 98.5731091 63.5948891 100.330685 76.6964105 98.7198667 81.2602588 96.522897 87.1490097 92.1289576 93.0368774 87.7350182 99.3672626 84.951897 100.398037 75.5778667 103.783605 66.0579576 103.783605 53.7549273 104.666874 47.6016545 103.783605 43.941503 101.72294"></polygon>
            <polygon id="Fill-8" fill="#A87033" points="3.07575758 152.805447 4.39393939 157.442607 7.03030303 160.975681 9.11742424 163.294261 15.5984848 163.294261 20.5416667 160.31323 22.9583333 156.44893 17.905303 157.22179 11.3143939 156.559339 5.49242424 154.240759"></polygon>
            <polygon id="Fill-9" fill="#A87033" points="102.92803 149.603599 107.541667 146.732977 109.299242 145.076848 108.75 149.603599 107.212121 153.467899 104.465909 156.890564"></polygon>
            <g id="Group-40" transform="translate(0.878788, 0.883268)">
                <path d="M65.0328515,69.6307043 C62.9430939,70.6614786 59.7574879,78.8317121 59.7574879,78.8317121 L58.2951848,84.3521401 L60.4165788,85.6770428 L61.6644576,86.7811284 L66.1287,89.4309339 L67.4468818,90.9766537 L70.3029424,92.0807393 L77.0037,92.0807393 L82.8256697,87.1123541 L87.4393061,84.9041829 L90.1855182,80.3774319 L90.1855182,75.2986381 L89.0870333,71.32393 L87.0992152,69.6307043 L86.5605182,73.2008755 L83.7044576,78.5004864 L80.7385485,77.3964008 L76.5643061,70.4406615 L79.4203667,69.6307043 L85.1324879,68.3428988 L75.9052152,66.9075875 L68.6552152,68.8949416 C68.6552152,68.8949416 67.1226091,68.59993 65.0328515,69.6307043" id="Fill-10" fill="#FFEDE1"></path>
                <polygon id="Fill-12" fill="#FFE4D2" points="45.4038939 47.2553054 40.863197 49.7576051 36.1766212 56.8237529 32.9541061 64.7731693 30.9047727 75.2248852 31.4900455 83.2476128 32.5147121 88.179784 35.8839848 93.4793949 41.7419848 99.0731342 46.8688333 103.783605 64.1510758 103.783605 77.4796515 102.90122 86.7069242 99.3681459 91.2493788 92.1536089 95.934197 85.824107 99.0099545 78.1697023 99.4519848 68.1587374 95.2021667 57.8545272 92.4190455 53.4381848 91.5402576 50.3467451 82.0203485 43.2805973 72.6094091 36.3619553 70.4124394 33.8958696 67.1169848 31.798107 64.2609242 34.0062782 59.3177424 38.0913949 51.298803 42.9493716"></polygon>
                <polygon id="Fill-14" fill="#66391B" points="7.32337879 47.2553054 7.32337879 49.7576051 7.76277273 52.5549163 7.32337879 54.4680759 11.1311667 49.7576051 12.5961061 46.9602938 17.4294394 46.9602938 22.1898333 45.6053599 29.5857121 42.249823 34.7125606 38.4226206 37.0554091 31.798107 37.0554091 27.9700214 35.0043182 25.7618502 30.9047727 25.0260875 26.3640758 26.4984961 20.7978333 28.4116556 15.5251061 29.2949241 11.7173182 31.2089669 9.08095455 35.4778035 7.32337879 40.6307918 6.29783333 44.6055"></polygon>
                <polygon id="Fill-16" fill="#66391B" points="79.6761818 30.9139553 82.6060606 28.2641498 84.8030303 26.2034844 87.7320303 25.4677218 91.9792121 26.350107 101.060606 31.7972237 106.62597 36.361072 109.262333 41.513177 106.479212 45.6353911 100.767091 47.5485506 95.4961212 45.0471342 87.7320303 39.7466401 83.1913333 35.4778035"></polygon>
                <path d="M69.4233636,68.3062432 C69.4233636,68.3062432 71.1818182,64.6256634 68.6913333,60.7984611 C66.2008485,56.9712588 63.4186061,55.4988502 63.4186061,55.4988502 C63.4186061,55.4988502 56.9735758,53.8789358 53.6051818,54.4680759 C50.2367879,55.057216 46.7216364,60.3568268 46.7216364,60.3568268 C46.7216364,60.3568268 44.2311515,63.4270681 45.8419697,67.4220914 C46.3797879,70.4384533 48.7718485,72.4284572 48.7718485,72.4284572 L53.7519394,69.6311459 L62.1004242,69.6311459 L64.5900303,70.6619202 L69.4233636,68.3062432 Z" id="Fill-18" fill="#66391B"></path>
                <polygon id="Fill-20" fill="#FFFFFF" points="55.9570818 67.790856 52.2890212 62.7120623 53.6063242 60.9455253 57.6628091 58.7373541 62.3212636 59.8414397 64.7818697 63.3833463 65.3240818 68.0849844 64.2985364 69.925716 56.9808697 68.6087626"></polygon>
                <polygon id="Fill-22" fill="#FFFFFF" points="78.8737606 62.7116206 81.2877909 59.5097724 84.1438515 58.7369125 87.2196091 58.5160953 90.6635788 64.772286 90.1855182 67.3487802 89.0870333 69.5569514 80.848397 66.9071459"></polygon>
                <polygon id="Fill-24" fill="#FFFFFF" points="77.8825758 71.4343385 83.375 78.0588521 85.852303 74.7465953 87.0017576 69.925716 82.4417273 68.9497043 77.1136364 70.2198444"></polygon>
                <polygon id="Fill-26" fill="#FFE4D2" points="5.20066667 153.616288 2.34460606 152.733019 3.77263636 156.266093 5.20066667 160.019984 12.138697 162.410992 18.3824848 160.682436 22.0795455 157.572447 22.4837879 155.529447 14.355 156.045276 7.8370303 154.720374"></polygon>
                <polygon id="Fill-28" fill="#FFE4D2" points="102.049242 148.720331 103.587121 156.007296 106.992424 151.922179 108.420455 146.291342 108.969697 144.19358 104.465909 147.285019"></polygon>
                <polygon id="Fill-30" fill="#F8D237" points="8.34848485 53.6585603 10.5454545 49.6838521 12.5956667 46.9607354 20.6515152 46.1507782 27.6818182 43.0593385 36.1770606 37.7597276 37.7878788 31.7976654 36.030303 26.2772374 32.7348485 25.0256459 27.6818182 25.7622918 23.0681818 27.1605058 26.1439394 23.1857977 33.2471818 14.57393 39.5454545 6.4036965 43.0623636 2.64980545 45.2997576 1.54571984 47.0151515 0.552042802 49.2121212 1.54571984 54.7045455 4.96838521 66.642 31.7976654 61.5151515 36.3615136 51.0795455 43.2801556 45.2997576 46.5924125 39.875 51.1191634 35.4907273 58.516537 32.9545455 64.7727276 31.1969697 74.6361868 31.4166667 81.9231518 32.844697 87.9956226 34.4924242 92.0807393 40.5340909 98.8156615 44.8181818 102.900778 26.4734848 103.784047 19.2234848 99.69893 9.4469697 94.6201362 3.84469697 88.3268482 0.549242424 79.4941634 1.53787879 69.557393 4.06439394 62.7120623"></polygon>
                <polygon id="Fill-32" fill="#F8D237" points="55.3636364 5.52042802 73.672303 25.0256459 88.9772727 41.0719844 101.5 54.4685175 103.037879 63.3833463 104.026515 68.9497043 104.026515 75.4090467 101.390152 81.7023346 96.8863636 90.0933852 89.1969697 99.8093385 86.8558788 98.4844358 96.4469697 85.4562257 98.9734848 76.1819066 97.2159091 58.7373541 91.1742424 49.9046693 66.642 30.8039883 55.3636364 11.813716"></polygon>
                <polygon id="Fill-34" fill="#F8D237" points="25.7045455 100.913424 24.9066061 102.900778 20.2121212 105.550584 14.5 107.758755 13.4015152 112.563735 12.4137576 116.039397 8.89772727 127.080253 0 150.376459 1.75757576 152.733019 11.5340909 155.896887 19.9142121 155.896887 24.8257576 154.019942 22.4108485 155.896887 19.2234848 162.410992 17.905303 170.25 19.8825758 171.685311 29.5492424 175.107977 36.1401515 178.089008 40.8636364 179.524319 40.8636364 180.297179 48.1136364 180.95963 63.0530303 181.511673 71.4015152 180.517996 83.375 177.978599 96.2272727 173.893482 106.55303 168.925097 104.356061 159.429961 102.049242 149.161965 105.784091 146.622568 110.17803 141.985409 100.731061 121.007782 96.6666667 108.752432 96.5568182 105.660992 88.3181818 101.686284 88.6477273 97.932393 87.2618788 97.932393 83.7045455 99.8093385 73.672303 102.900778 65.1788182 103.715152 55.0894545 103.784047 43.3901515 101.907101 28.3409091 99.0364786"></polygon>
                <polygon id="Fill-36" fill="#F8D237" points="25.3385303 171.649097 23.8735909 178.273611 24.6065 186.664661 25.9246818 194.466572 23.8735909 196.637646 19.4436212 202.378891 16.3678636 209.997082 16.3678636 213.088521 17.576197 217.284047 19.8830152 219.271401 27.3527121 220.817121 35.8110455 219.160992 43.0610455 214.192607 44.7087727 210.328307 46.0269545 203.26216 47.4549848 199.729086 47.4549848 192.221304 48.0042273 188.025778 50.3110455 180.95963 29.3299848 170.470817"></polygon>
                <polygon id="Fill-38" fill="#F8D237" points="77.0037879 179.303502 78.3219697 184.82393 77.6628788 190.123541 77.0037879 198.183366 77.6628788 199.839494 81.8371212 201.71644 89.1969697 204.587062 97.655303 206.022374 106.662879 204.145428 113.253788 202.378891 113.253788 196.968872 109.299242 192.662938 104.685606 190.233949 98.5340909 186.36965 98.2045455 184.05107 101.280303 170.470817"></polygon>
            </g>
            <polygon id="Path-2" fill="#FFFFFF" points="20.4705882 218.466165 20.4705882 221.879699 23.8823529 223.586466 29 225.293233 32.4117647 225.293233 39.2352941 223.586466 44.3529412 218.466165 46.0588235 213.345865 46.0588235 211.639098 42.6470588 216.759398 39.2352941 220.172932 34.1176471 221.879699 29 221.879699 23.8823529 220.172932"></polygon>
            <g id="Group-53" fill="#000000">
                <path d="M21.2668424,220.923201 C22.1904485,221.891263 23.2116,222.967968 24.4304788,223.467014 C24.8953576,223.656917 25.3048727,223.312442 25.9068424,223.467014 C26.4833273,223.61452 27.0580545,224.394446 27.5941152,224.526937 C34.7228424,226.287291 42.7646303,220.788944 44.8886606,215.199621 C41.2645394,221.48496 29.1680242,224.654127 21.2668424,220.923201 L21.2668424,220.923201 Z M78.4232061,203.116509 C79.7396303,205.102096 82.2415394,204.5898 84.3286606,205.447454 C86.3753576,206.290092 88.0248424,207.638843 90.0232061,208.416119 C96.0727818,210.77003 104.982812,209.120968 110.270479,207.14333 C111.484085,206.691096 113.475418,206.401384 113.012297,205.447454 C107.503176,206.719361 102.797267,208.085777 95.7177515,207.568182 C88.4273273,207.034688 83.8637818,203.377956 78.4232061,202.268571 L78.4232061,203.116509 Z M26.7504788,188.913551 C27.0932061,191.134088 27.9816606,193.207119 27.5941152,195.0611 C26.8304485,198.713415 21.8196,201.602586 19.7904788,205.447454 C18.6032364,207.698022 17.4458727,210.973182 17.892297,214.351684 C18.4766909,218.775092 24.2775697,220.903769 28.8595697,221.135186 C34.7052667,221.431081 42.6662061,217.458139 44.2559333,213.503746 C44.9194182,211.852917 44.364903,209.472509 44.8886606,207.356197 C45.3412364,205.528715 47.095297,203.976812 47.4195697,202.69254 C48.1190848,199.926143 47.2543576,197.278987 47.2086606,194.637131 C47.1339636,190.325898 49.2527212,187.109034 49.9504788,182.977987 C47.0258727,182.879944 44.8939333,181.983427 41.7250242,182.130049 C40.7680242,182.032007 40.9771758,180.760983 40.0377515,180.645275 C34.8810242,179.610968 30.8271758,177.467275 25.9068424,176.194485 C25.6976909,181.022431 26.1748727,185.187042 26.7504788,188.913551 L26.7504788,188.913551 Z M78.845903,181.282112 C80.5533879,186.697431 79.0682364,194.634481 79.0559333,200.572695 C83.2600545,201.391485 85.8744485,203.875236 89.812297,205.024368 C97.6862364,207.320867 106.774661,206.04896 113.645024,203.116509 C114.332236,192.43426 101.310358,193.770645 98.0377515,186.369738 C99.2091758,182.671493 99.9772364,178.568711 100.990479,174.710594 C93.1754182,176.465649 87.4597818,180.331715 78.845903,181.282112 L78.845903,181.282112 Z M11.7759333,162.839466 C15.4396,163.305832 17.2648424,161.856388 19.1577515,160.507637 C20.1129939,159.826637 22.0111758,158.999014 21.4777515,157.750956 C15.7480545,158.645707 8.20805455,157.720925 4.39411515,154.784057 C5.78347879,158.364828 7.46635758,162.290956 11.7759333,162.839466 L11.7759333,162.839466 Z M103.521388,150.544368 C104.133024,152.120119 104.451145,153.990882 104.997752,155.631995 C106.870448,153.83896 108.151721,150.323551 108.161388,147.364602 C106.989964,148.80168 105.092661,149.508295 103.521388,150.544368 L103.521388,150.544368 Z M86.8595697,99.244135 C90.6251758,93.1504658 98.1572667,87.1919366 99.3032061,78.2576759 C100.000964,72.8185086 98.362903,66.9324074 96.9832061,61.9348743 C94.9382667,58.6906292 92.2166606,56.1256175 91.4995697,51.547637 C83.5219333,45.8576214 75.9151455,39.7957498 68.5104788,33.5289599 L67.8777515,33.5289599 C63.765903,37.3331973 58.7374788,41.0756058 53.3250242,44.3401661 C48.6621758,47.152493 42.6952061,50.5610261 39.6159333,55.1513724 C36.8090848,59.3354152 34.2298424,66.39803 33.2886606,71.8981428 C31.0486303,84.9925981 35.4689333,93.4083802 42.5686606,99.244135 C44.2770242,100.648532 46.5662667,103.013925 48.6850242,103.483824 C52.779297,104.391824 57.9808424,103.679026 62.3941152,103.483824 C65.220297,103.3584 67.8610545,103.710824 70.4086606,103.059855 C68.7240242,102.402703 65.6526606,102.070594 65.7686606,100.304057 C67.308297,99.7131506 68.5948424,101.310983 70.4086606,101.363979 C73.5424182,101.455839 75.3474485,98.730956 78.0013879,98.8201661 C78.7896606,98.1285669 78.8089939,96.6649911 79.8995697,96.2763529 C80.8890848,96.1579949 80.7528727,97.9669288 81.5868424,97.3362751 C82.7257515,96.4618393 81.3724182,94.2572012 82.852297,93.9445241 C85.1538424,95.421349 82.3698424,99.0383335 81.1650242,100.304057 C80.2528424,100.302291 80.3319333,99.3041973 79.6886606,99.0321506 C77.5303576,101.173193 74.1742667,102.110341 70.8304788,103.059855 C77.2544182,102.874368 82.4796909,101.484104 86.8595697,99.244135 L86.8595697,99.244135 Z M17.2595697,47.0959638 C19.9785394,47.0526837 24.9296303,45.4769327 28.4377515,43.7042128 C31.778903,42.0154035 34.8581758,39.4733568 36.2413879,36.9207109 C37.9479939,33.7709755 38.0103879,29.2663062 35.3977515,27.5933957 C31.2533879,26.7348588 26.9218424,28.9218315 22.1104788,30.3491934 C19.2860545,31.1874152 15.5468121,31.1141039 14.0959333,32.4690377 C9.49108485,36.7661389 6.69390303,45.7277809 9.87775152,52.6075591 C10.6642667,51.0662556 11.3883879,49.4613568 12.4086606,48.155886 C12.3330848,46.6993763 9.77405455,46.1243685 11.1432061,44.5521506 C13.0624788,45.5025475 14.6363879,47.1374774 17.2595697,47.0959638 L17.2595697,47.0959638 Z M89.6013879,40.3124619 C88.2911152,39.0900183 88.1276606,36.5020416 87.7032061,34.3768977 C87.4940545,33.3302245 86.4263273,31.5504385 87.9141152,31.4091156 C89.5012061,31.80217 89.1690242,33.7524268 89.3913576,34.8008665 C89.6488424,36.0259599 89.8861152,37.509851 90.4450242,38.6165864 C92.1217515,41.9332595 97.5957212,46.8283335 101.412297,47.5199327 C104.4406,48.0684424 108.741388,46.2798237 109.005024,43.280244 C109.302933,39.8929093 103.756024,35.6823685 100.990479,33.5289599 C96.4014485,29.9561389 92.0672667,27.4185086 86.6486606,27.3814113 C85.0457515,28.9500961 83.7328424,30.8102595 81.7977515,32.0450689 C84.1335697,34.9262907 86.9984182,38.4054852 89.6013879,40.3124619 L89.6013879,40.3124619 Z M44.2559333,102.635886 C36.1174788,97.6666175 28.8332061,87.2405163 31.6013879,71.6861584 C32.7543576,65.2065008 36.1596606,56.3685163 39.8268424,52.3955747 C47.7306606,43.83317 59.6364788,40.6171895 67.0341152,31.8330844 C63.1191152,27.4741545 58.9413576,22.0703179 55.8559333,16.7821895 C54.9086,15.158742 53.0323879,12.9647031 53.9577515,11.0586097 C55.3664485,11.0400611 55.6450242,12.8065981 56.0668424,13.602423 C59.8790242,20.7939949 64.9461152,26.6800961 69.7759333,32.6810222 C74.9186,36.3015397 79.6192364,41.010244 85.172297,44.9761195 C90.4951152,48.7785903 96.4049636,52.7965786 99.9368121,58.1191545 C102.148721,61.4543763 102.541539,68.5284735 102.045024,73.3820339 C101.198752,81.6520767 96.4163879,89.4681195 92.132297,95.0044463 C90.6269333,96.9502868 88.8596909,99.6636875 87.2813879,100.728026 C80.2994182,105.434081 62.4204788,106.047952 49.5286606,105.179699 C44.6610545,104.851123 41.2847515,103.836248 37.7177515,102.635886 C39.3171455,128.515653 43.2954182,152.005295 42.5686606,180.222189 C66.665903,184.545789 90.8070848,178.491867 106.474115,169.198116 C102.4106,149.39347 96.1659333,130.05254 89.812297,113.023123 C89.5012061,112.188435 88.1478727,110.401582 89.6013879,109.631372 C91.2895394,110.174582 91.4907818,112.328874 91.9213879,113.659077 C92.4600848,115.323154 93.1552061,116.7408 93.8195697,118.322734 C97.7916909,127.78254 100.219782,138.190092 103.09957,148.424524 C106.449509,147.48031 108.345933,145.076937 110.270479,142.700061 C105.41957,132.243929 100.282176,122.072209 96.3504788,110.691295 C96.8672061,109.991746 97.2828727,108.604131 96.772297,107.511528 C94.2106303,105.775905 90.7464485,104.9474 87.9141152,103.483824 C87.7330848,102.100625 88.3491152,101.517668 88.3359333,100.304057 C88.7559939,99.7369988 89.7024485,99.6990183 90.2341152,99.244135 C95.5718727,92.6620183 102.180358,84.9493179 103.732297,74.2299716 C104.568024,68.4569288 103.416812,61.8765786 102.045024,56.6352634 C98.5149333,52.0290183 94.3890242,47.8803062 90.2341152,43.7042128 C86.1336909,39.5837654 82.3311758,35.2089366 78.212297,30.9851467 C68.642297,21.1711506 60.1365091,9.15693268 47.8413879,2.36724786 C41.4095394,5.33856304 38.6773879,11.8235202 34.3432061,16.9941739 C32.0662667,19.7111078 29.492297,22.1418626 27.3832061,24.6256136 C26.6054788,25.541563 25.5008424,26.6209171 25.6959333,27.1694268 C28.8349636,26.8187693 32.3808727,24.6953918 35.8195697,25.8975202 C40.1449636,27.4096759 39.7846606,34.7752518 37.2959333,38.6165864 C33.1814485,44.9672868 22.1500242,48.8775163 14.0959333,48.7918393 C11.8682061,51.0044268 11.5869939,55.1734541 8.61229697,56.6352634 C6.81078182,63.2032479 3.27893333,68.6273996 2.49593333,75.7138626 C1.72172121,82.7217148 4.38181212,90.1076058 8.19047879,93.0965864 C9.67387273,94.2607342 11.8400848,94.9567498 13.6741152,96.0643685 C17.370297,98.2963879 20.9162061,99.9083529 24.4304788,102.211917 C25.9472667,103.206477 28.5581455,103.960789 28.6486606,106.239621 C27.0747515,106.49047 26.5404485,105.682279 25.0632061,105.815653 C21.9681152,106.094765 19.3809636,108.98747 16.4159333,109.631372 C14.9597818,111.9844 15.4264182,114.747263 14.9395697,117.262812 C14.4052667,120.022143 12.8621152,123.01289 11.7759333,125.742189 C8.34953939,134.350524 5.38275152,142.84845 2.07411515,151.180322 C6.62272121,155.816598 17.7587212,157.97354 24.6413879,154.784057 C25.6528727,149.049878 25.9103576,142.779555 26.7504788,136.341411 C27.5686303,130.070205 29.2462364,123.219575 28.4377515,117.262812 C28.1328121,115.018427 26.331297,112.624769 26.9613879,110.47931 C28.9571152,110.098621 28.2180545,112.466664 29.2813879,113.023123 C29.1355091,111.745917 29.3666303,110.84675 30.7577515,111.115263 C31.7455091,113.493905 30.4106303,116.268252 30.1250242,118.534719 C29.9598121,119.846372 30.1918121,121.248119 30.1250242,122.562423 C29.5432667,133.95747 27.0369636,145.530937 26.1177515,156.479933 C25.6133273,156.820874 25.1247212,157.176832 24.2195697,157.115886 C24.2846,159.158003 21.9435091,159.716228 21.2668424,161.567559 C20.1982364,164.490295 20.9126909,168.075481 19.7904788,171.318843 C26.8761455,173.807011 32.6401152,177.623614 40.8813879,178.9494 C40.7873576,165.520186 40.7891152,152.962758 39.4050242,140.793084 C38.013903,128.560699 37.2098121,116.649824 36.2413879,104.331761 C36.1447212,103.096069 35.4364182,101.62896 36.2413879,100.516042 C39.1536909,100.980641 41.6758121,101.837411 44.2559333,102.635886 L44.2559333,102.635886 Z M95.9286606,46.6719949 C97.7029333,49.7705008 101.703176,52.2357031 103.521388,55.5753412 C104.747297,57.8285591 104.954691,61.2468082 105.209539,64.2667031 C105.692873,70.0370961 105.648933,75.0699599 104.154115,79.7415669 C101.224236,88.8984113 94.9312364,96.6340767 89.812297,102.211917 C92.4258121,103.895427 96.0068727,104.606458 98.4595697,106.451606 C99.5431152,117.894349 104.49157,126.181174 109.005024,135.917442 C110.628145,139.418719 113.863842,143.44024 110.05957,146.092695 C109.993661,151.466501 108.0366,154.941279 105.630479,157.963824 C106.634933,161.901435 107.836236,165.639427 108.161388,170.258921 C106.263206,171.17752 104.760479,172.49359 102.677752,173.226703 C102.08457,178.283415 100.455297,182.192761 99.9368121,186.793707 C101.675933,190.013221 106.791358,190.552898 110.05957,193.15324 C111.467388,194.273225 115.153024,197.881376 115.543206,199.936742 C115.823539,201.409151 115.680297,204.498824 114.910479,206.084291 C113.3726,209.253458 104.106661,210.800061 99.3032061,211.171917 C97.7943273,211.288509 96.0666303,211.258477 94.8741152,211.171917 C89.6479636,210.795645 86.3779939,207.886158 83.2741152,206.720244 C80.9611455,205.851991 78.1762667,206.013629 76.9468424,204.176431 L76.9468424,195.485069 C78.6965091,192.432493 77.9477818,187.489723 77.7904788,183.401956 C77.2922061,182.891427 76.0592667,182.793384 76.7359333,181.706081 C69.0755394,182.98947 60.5811758,184.288758 52.0595697,182.977987 C50.7765394,185.890123 49.5198727,188.473684 49.1068424,191.881333 C48.6894182,195.325197 49.7360545,199.162999 49.1068424,202.69254 C48.8713273,204.01126 47.8387515,205.016419 47.6304788,206.295392 C47.3457515,208.042497 47.9415697,209.849664 47.8413879,211.595003 C47.3158727,220.734182 33.9134788,230.587925 22.9541152,224.526937 C19.8027818,222.783365 18.4520848,219.624796 16.4159333,216.046676 C15.2858121,205.342345 22.1377212,200.903921 26.1177515,194.637131 C25.5052364,188.51873 23.3768121,181.972828 24.6413879,175.345664 C22.7994485,173.735466 19.3607515,173.729283 18.1032061,171.530828 C18.2569939,168.36431 19.0830545,165.873493 19.3686606,162.839466 C15.717297,165.325867 9.03675152,165.029088 6.08138788,161.779544 C3.91078182,159.393835 3.36241818,156.307695 1.86320606,153.724135 C-1.27055152,151.742081 1.43875152,147.294824 3.12866061,143.124913 C5.30893333,137.744042 7.12450909,132.853384 9.24502424,127.226081 C10.2986909,124.432302 11.7038727,121.810761 12.4086606,119.382656 C13.3858727,116.01652 13.0282061,110.57382 15.1504788,108.359466 C15.9079939,107.56894 17.3096606,107.443516 18.5250242,106.875575 C20.4319939,105.984357 22.3864182,104.2558 24.0086606,104.331761 C18.699903,100.533707 15.1452061,98.9553062 9.66684242,96.0643685 C3.97053939,93.0586058 -0.158884848,84.0457342 0.808660606,75.2898938 C1.21817576,71.5819327 2.83690303,67.5312634 4.18320606,63.8427342 C5.52775152,60.1595047 7.6895697,55.9851778 7.76866061,52.6075591 C7.83632727,49.7342868 6.5585697,47.0253023 6.71411515,44.3401661 C7.02608485,38.9610611 10.5131152,32.374528 14.0959333,30.3491934 C15.9976303,29.2733724 20.009297,29.3722984 21.8995697,28.229349 C23.7951152,27.0828665 25.5808121,24.1698471 27.3832061,22.0818004 C29.2295394,19.9425241 31.2085697,17.8792089 32.8668424,15.9342518 C36.4892061,11.6866136 39.1422667,6.18915058 43.2013879,3.00320117 C44.4721152,2.00599105 47.0865091,0.721718677 48.4741152,0.883356809 C49.4847212,1.00083152 50.2439939,2.11198327 51.4268424,2.79121673 C52.5235697,3.42098716 53.7310242,3.6188393 54.3795697,4.06312335 C56.7364788,5.6786214 59.1065697,8.17827121 61.3395697,10.4226564 C67.6747515,16.7901389 74.6751758,24.0241078 80.3213879,30.9851467 C83.1792061,29.7203062 83.8224788,25.9416837 87.2813879,25.4735514 C90.8334485,24.99217 94.8565394,27.4706214 98.2486606,29.5012556 C101.744479,31.5946019 104.756964,33.9723607 106.685024,36.0727732 C108.2396,37.7651156 110.824994,40.7125825 110.692297,43.280244 C110.3856,49.1866603 100.225055,51.3912984 95.9286606,46.6719949 L95.9286606,46.6719949 Z" id="Fill-41"></path>
                <path d="M69.3538515,91.6127837 C74.2495788,94.0665035 80.5619121,91.2073634 82.8520333,87.7970638 C78.0424273,88.7562934 74.3418515,90.8310911 69.3538515,91.6127837 L69.3538515,91.6127837 Z M79.0556697,71.6862467 C83.7352152,70.7579315 85.6430636,74.2918887 84.1183667,78.2577642 C85.6694273,76.8339354 87.4120636,73.8741027 86.6492758,71.4742623 C84.1016697,70.9195696 81.3044879,70.6351572 79.0556697,71.6862467 L79.0556697,71.6862467 Z M83.0638212,65.9626669 C85.1562152,65.8849393 85.8724273,62.8871261 83.9074576,61.7229782 C79.5882152,61.1585696 80.3764879,66.061593 83.0638212,65.9626669 L83.0638212,65.9626669 Z M56.6993061,66.1746514 C59.3497303,66.1720016 59.3620333,61.5268926 56.488397,61.9349626 C53.497003,62.3589315 54.2430939,66.1773012 56.6993061,66.1746514 L56.6993061,66.1746514 Z M62.1829424,69.7783868 C63.4923364,69.6635619 64.1452758,70.2085385 65.3465788,70.2023556 C65.5838515,65.5122 64.3131242,61.2080327 61.128397,60.663056 C63.0916091,62.0754023 62.8279727,67.0384879 62.1829424,69.7783868 L62.1829424,69.7783868 Z M88.3365485,69.1424335 C89.2548818,68.9799121 89.4912758,70.206772 90.2347303,69.5664023 C91.6689121,66.3053751 89.8928818,61.0949743 87.0702152,60.0271027 C88.3110636,62.2926864 88.9024879,65.6835541 88.3365485,69.1424335 L88.3365485,69.1424335 Z M88.7574879,71.2622778 C88.1678212,75.8349588 86.0016091,81.6203673 80.9538515,81.6495152 C76.2057606,81.6760132 72.4348818,77.711021 70.8310939,73.5941066 C73.6994576,71.2490288 77.9677303,70.3092311 82.008397,69.1424335 C75.5598515,67.5825813 69.9769121,70.8736397 65.3465788,71.8982311 C61.6284273,71.0043634 56.136003,70.9858148 52.6920333,72.1102156 C50.2516394,69.1053362 51.9283667,63.5999237 54.168397,61.0870249 C59.3497303,55.2751183 68.2026394,60.3539121 67.0338515,69.7783868 C70.7572758,69.1389004 73.2099727,67.2230911 77.5793061,67.2345735 C79.2718515,63.4930482 81.4556394,57.6246125 86.2265788,57.9072584 C90.791003,58.1775385 93.1549424,64.9583907 92.1320333,70.4143401 C91.8833364,71.0123128 91.1513061,71.1244879 90.6556697,71.4742623 C92.2638515,77.6650911 92.2401242,87.7105035 85.1720333,87.7970638 C82.4978818,93.1417214 69.7932455,97.4317564 65.768397,90.340877 C64.1004576,89.0831027 59.7038818,87.9136553 59.2302152,85.2532506 C58.8628818,83.1846358 59.5087909,79.0933362 61.5502152,78.4697486 C62.0282758,80.4429704 60.1916091,83.0804101 60.9174879,85.2532506 C61.3990636,86.6929782 66.4986697,89.4019626 68.5102152,89.7049237 C73.1616394,90.4044724 77.7910939,86.6647136 82.008397,86.1011883 C83.8556091,85.8538732 85.7660939,86.3750016 87.0702152,85.8892039 C91.2690636,84.3258187 90.4359727,75.5222817 88.7574879,71.4742623 L88.7574879,71.2622778 Z" id="Fill-43"></path>
                <path d="M51.2160212,118.322646 C48.8415364,120.276436 45.3272636,118.577911 44.6778394,116.62677 C42.1346273,108.985615 55.6117182,110.692089 51.2160212,118.322646" id="Fill-45"></path>
                <path d="M53.9579273,134.009229 C54.9254727,136.933731 53.0176242,139.892681 50.7942909,139.732809 C48.9479576,139.600319 47.8573818,136.589256 48.2633818,134.646066 C48.8521697,131.82049 52.2548364,131.831089 53.9579273,134.009229" id="Fill-47"></path>
                <path d="M52.4813879,153.299725 C53.6765394,152.960549 54.7407515,153.115121 55.4341152,153.723693 C56.9693576,155.074211 56.6222364,159.779382 54.8013879,160.296094 C51.1526606,161.330402 47.9187212,154.595479 52.4813879,153.299725" id="Fill-49"></path>
                <path d="M53.3250242,172.378854 C58.8271152,170.925877 58.3130242,179.255099 54.5904788,179.37434 C51.4294788,179.475033 49.5963273,173.362815 53.3250242,172.378854" id="Fill-51"></path>
            </g>
        </g>
    </g>
</svg>