<?xml version="1.0" encoding="UTF-8"?>
<svg width="204px" height="178px" viewBox="0 0 204 178" version="1.1" xmlns="http://www.w3.org/2000/svg" xmlns:xlink="http://www.w3.org/1999/xlink" style="background: #FFFFFF;">
    <!-- Generator: Sketch 49.3 (51167) - http://www.bohemiancoding.com/sketch -->
    <title>Weatherdog Outline</title>
    <desc>Created with Sketch.</desc>
    <defs>
        <linearGradient x1="-16.3706043%" y1="100%" x2="117.014019%" y2="100%" id="linearGradient-1">
            <stop stop-color="#0578B7" offset="0%"></stop>
            <stop stop-color="#0A5296" offset="100%"></stop>
        </linearGradient>
    </defs>
    <g id="Weatherdog-Outline" stroke="none" stroke-width="1" fill="none" fill-rule="evenodd">
        <g id="Group-Copy-2" transform="translate(34.000000, 18.000000)" fill="#4C4E4F">
            <path d="M6.295,6.92 L3.76,6.92 L3.76,17 L2.65,17 L2.65,6.92 L0.115,6.92 L0.115,5.915 L6.295,5.915 L6.295,6.92 Z M15.565,13.265 L8.14,13.265 C8.23,14.885 9.655,16.175 11.335,16.175 C12.58,16.175 13.735,15.425 14.2,14.3 L15.355,14.3 C14.83,15.86 13.225,17.195 11.365,17.195 C8.935,17.195 7.03,15.29 7.03,12.86 C7.03,10.475 8.905,8.6 11.29,8.6 C13.72,8.6 15.565,10.355 15.565,13.265 Z M14.455,12.26 C14.08,10.625 12.865,9.62 11.275,9.62 C9.715,9.62 8.47,10.685 8.17,12.26 L14.455,12.26 Z M25.165,17 L23.86,17 L20.725,12.26 L17.575,17 L16.27,17 L20.035,11.33 L16.48,5.915 L17.785,5.915 L20.725,10.355 L23.65,5.915 L24.94,5.915 L21.385,11.33 L25.165,17 Z M41.905,11.885 C41.74,14.675 39.385,17.195 36.13,17.195 C32.74,17.195 30.1,14.675 30.1,11.435 C30.1,8.225 32.68,5.72 35.98,5.72 C38.395,5.72 40.495,6.98 41.23,8.87 L39.985,8.87 C39.22,7.52 37.78,6.74 36.07,6.74 C33.34,6.74 31.225,8.795 31.225,11.465 C31.225,14.105 33.37,16.175 36.085,16.175 C38.275,16.175 40.165,14.645 40.57,12.89 L34.375,12.89 L34.375,11.885 L41.905,11.885 Z M50.425,8.795 L45.685,19.88 L44.5,19.88 L45.835,16.73 L42.655,8.795 L43.87,8.795 L46.465,15.335 L49.24,8.795 L50.425,8.795 Z M54.94,9.695 C53.395,9.845 52.615,10.685 52.615,12.215 L52.615,17 L51.505,17 L51.505,8.795 L52.615,8.795 L52.615,9.965 C53.05,9.065 53.755,8.66 54.94,8.6 L54.94,9.695 Z M64.24,13.265 L56.815,13.265 C56.905,14.885 58.33,16.175 60.01,16.175 C61.255,16.175 62.41,15.425 62.875,14.3 L64.03,14.3 C63.505,15.86 61.9,17.195 60.04,17.195 C57.61,17.195 55.705,15.29 55.705,12.86 C55.705,10.475 57.58,8.6 59.965,8.6 C62.395,8.6 64.24,10.355 64.24,13.265 Z M63.13,12.26 C62.755,10.625 61.54,9.62 59.95,9.62 C58.39,9.62 57.145,10.685 56.845,12.26 L63.13,12.26 Z M79.915,17 L78.7,17 L77.095,13.265 L71.935,13.265 L70.315,17 L69.145,17 L73.9,5.915 L75.145,5.915 L79.915,17 Z M76.66,12.26 L74.53,7.175 L72.355,12.26 L76.66,12.26 Z M89.41,17 L88.3,17 L88.3,15.515 C87.475,16.7 86.545,17.195 85.18,17.195 C82.645,17.195 80.71,15.335 80.71,12.905 C80.71,10.46 82.6,8.6 85.075,8.6 C86.365,8.6 87.49,9.125 88.3,10.1 L88.3,5.915 L89.41,5.915 L89.41,17 Z M88.345,12.875 C88.345,11.075 86.86,9.62 85.045,9.62 C83.26,9.62 81.835,11.06 81.835,12.86 C81.835,14.735 83.275,16.175 85.15,16.175 C86.905,16.175 88.345,14.675 88.345,12.875 Z M98.545,8.795 L95.095,17 L93.925,17 L90.475,8.795 L91.6,8.795 L94.48,15.695 L97.42,8.795 L98.545,8.795 Z M107.83,13.265 L100.405,13.265 C100.495,14.885 101.92,16.175 103.6,16.175 C104.845,16.175 106,15.425 106.465,14.3 L107.62,14.3 C107.095,15.86 105.49,17.195 103.63,17.195 C101.2,17.195 99.295,15.29 99.295,12.86 C99.295,10.475 101.17,8.6 103.555,8.6 C105.985,8.6 107.83,10.355 107.83,13.265 Z M106.72,12.26 C106.345,10.625 105.13,9.62 103.54,9.62 C101.98,9.62 100.735,10.685 100.435,12.26 L106.72,12.26 Z M116.62,17 L115.51,17 L115.51,12.695 C115.51,10.46 114.49,9.62 112.975,9.62 C111.49,9.62 110.47,10.475 110.47,12.485 L110.47,17 L109.36,17 L109.36,8.795 L110.47,8.795 L110.47,9.86 C111.16,9.02 112.03,8.6 113.11,8.6 C115.165,8.6 116.62,9.815 116.62,12.695 L116.62,17 Z M122.47,9.8 L120.625,9.8 L120.625,17 L119.515,17 L119.515,9.8 L117.745,9.8 L117.745,8.795 L119.515,8.795 L119.515,5.915 L120.625,5.915 L120.625,8.795 L122.47,8.795 L122.47,9.8 Z M131.845,12.92 C131.845,15.38 130.075,17.195 127.675,17.195 C125.125,17.195 123.28,15.365 123.28,12.845 C123.28,10.445 125.155,8.6 127.585,8.6 C130.045,8.6 131.845,10.415 131.845,12.92 Z M130.72,12.935 C130.72,11.03 129.385,9.62 127.585,9.62 C125.77,9.62 124.405,11.015 124.405,12.875 C124.405,14.795 125.755,16.175 127.645,16.175 C129.43,16.175 130.72,14.81 130.72,12.935 Z M136.855,9.695 C135.31,9.845 134.53,10.685 134.53,12.215 L134.53,17 L133.42,17 L133.42,8.795 L134.53,8.795 L134.53,9.965 C134.965,9.065 135.67,8.66 136.855,8.6 L136.855,9.695 Z" id="TeX-Gyre-Adventor"></path>
            <path d="M7.42,36 L6.772,36 L5.916,34.008 L3.164,34.008 L2.3,36 L1.676,36 L4.212,30.088 L4.876,30.088 L7.42,36 Z M5.684,33.472 L4.548,30.76 L3.388,33.472 L5.684,33.472 Z M11.86,34.304 C11.86,35.472 11.22,36 9.58,36 L8.116,36 L8.116,30.088 L9.5,30.088 C10.94,30.088 11.524,30.608 11.524,31.624 C11.524,32.208 11.324,32.592 10.868,32.848 C11.556,33.128 11.86,33.584 11.86,34.304 Z M11.26,34.336 C11.26,33.232 10.46,33.168 9.412,33.168 L8.708,33.168 L8.708,35.464 L9.516,35.464 C10.724,35.464 11.26,35.192 11.26,34.336 Z M10.924,31.632 C10.924,30.912 10.612,30.624 9.42,30.624 L8.708,30.624 L8.708,32.632 L9.428,32.632 C10.54,32.632 10.924,32.376 10.924,31.632 Z M18.26,34.448 C17.668,35.544 16.756,36.104 15.556,36.104 C13.788,36.104 12.452,34.792 12.452,33.064 C12.452,31.296 13.756,29.984 15.516,29.984 C16.74,29.984 17.78,30.608 18.236,31.624 L17.572,31.624 C17.068,30.832 16.372,30.528 15.54,30.528 C14.132,30.528 13.052,31.616 13.052,33.04 C13.052,34.424 14.18,35.56 15.548,35.56 C16.412,35.56 16.98,35.232 17.604,34.448 L18.26,34.448 Z M24.204,33.064 C24.204,34.768 23.116,36 20.804,36 L19.212,36 L19.212,30.088 L20.604,30.088 C21.676,30.088 22.3,30.216 22.86,30.552 C23.74,31.072 24.204,31.952 24.204,33.064 Z M23.604,33.04 C23.604,32.16 23.212,31.416 22.532,31.008 C22.084,30.736 21.524,30.624 20.628,30.624 L19.804,30.624 L19.804,35.464 L20.628,35.464 C21.676,35.464 22.284,35.312 22.756,34.936 C23.3,34.496 23.604,33.816 23.604,33.04 Z M28.396,36 L25.164,36 L25.164,30.088 L28.396,30.088 L28.396,30.624 L25.756,30.624 L25.756,32.744 L28.308,32.744 L28.308,33.28 L25.756,33.28 L25.756,35.464 L28.396,35.464 L28.396,36 Z M32.452,30.624 L30.044,30.624 L30.044,32.76 L32.364,32.76 L32.364,33.296 L30.044,33.296 L30.044,36 L29.452,36 L29.452,30.088 L32.452,30.088 L32.452,30.624 Z M39.372,33.272 C39.284,34.76 38.028,36.104 36.292,36.104 C34.484,36.104 33.076,34.76 33.076,33.032 C33.076,31.32 34.452,29.984 36.212,29.984 C37.5,29.984 38.62,30.656 39.012,31.664 L38.348,31.664 C37.94,30.944 37.172,30.528 36.26,30.528 C34.804,30.528 33.676,31.624 33.676,33.048 C33.676,34.456 34.82,35.56 36.268,35.56 C37.436,35.56 38.444,34.744 38.66,33.808 L35.356,33.808 L35.356,33.272 L39.372,33.272 Z M44.556,36 L43.964,36 L43.964,33.224 L40.9,33.224 L40.9,36 L40.308,36 L40.308,30.088 L40.9,30.088 L40.9,32.688 L43.964,32.688 L43.964,30.088 L44.556,30.088 L44.556,36 Z M46.364,36 L45.772,36 L45.772,30.088 L46.364,30.088 L46.364,36 Z M50.22,34.152 C50.22,35.464 49.652,36.112 48.644,36.112 C47.7,36.112 47.108,35.544 47.06,34.6 L47.644,34.6 C47.684,35.2 48.068,35.568 48.652,35.568 C49.292,35.568 49.628,35.088 49.628,34.152 L49.628,30.088 L50.22,30.088 L50.22,34.152 Z M55.508,36 L54.764,36 L52.796,33.44 L52.028,34.384 L52.028,36 L51.436,36 L51.436,30.088 L52.028,30.088 L52.028,33.488 L54.764,30.088 L55.508,30.088 L53.172,32.968 L55.508,36 Z M59.204,36 L56.164,36 L56.164,30.088 L56.756,30.088 L56.756,35.464 L59.204,35.464 L59.204,36 Z M65.996,36 L65.404,36 L65.404,30.736 L63.18,36 L62.668,36 L60.452,30.736 L60.452,36 L59.86,36 L59.86,30.088 L60.78,30.088 L62.932,35.12 L65.076,30.088 L65.996,30.088 L65.996,36 Z M71.916,36 L71.324,36 L67.804,30.8 L67.804,36 L67.212,36 L67.212,30.088 L68.012,30.088 L71.324,34.992 L71.324,30.088 L71.916,30.088 L71.916,36 Z M79.124,33.048 C79.124,34.72 77.716,36.104 76.004,36.104 C74.268,36.104 72.876,34.728 72.876,33.008 C72.876,31.368 74.308,29.984 76.004,29.984 C77.716,29.984 79.124,31.36 79.124,33.048 Z M78.524,33.056 C78.524,31.672 77.38,30.528 76.004,30.528 C74.636,30.528 73.476,31.672 73.476,33.024 C73.476,34.424 74.612,35.56 76.004,35.56 C77.38,35.56 78.524,34.424 78.524,33.056 Z M83.996,31.88 C83.996,33 83.42,33.608 81.812,33.608 L80.676,33.608 L80.676,36 L80.084,36 L80.084,30.088 L81.716,30.088 C83.34,30.088 83.996,30.64 83.996,31.88 Z M83.396,31.88 C83.396,30.68 82.644,30.624 81.516,30.624 L80.676,30.624 L80.676,33.072 L81.772,33.072 C82.948,33.072 83.396,32.736 83.396,31.88 Z M90.924,33.032 C90.924,33.936 90.58,34.712 89.94,35.256 C90.244,35.472 90.428,35.56 90.676,35.56 C90.7,35.56 90.78,35.56 90.828,35.552 L90.828,36.104 C90.276,36.096 89.94,35.968 89.532,35.592 C89.036,35.928 88.404,36.104 87.756,36.104 C85.98,36.104 84.564,34.744 84.564,33.048 C84.564,31.296 85.94,29.984 87.764,29.984 C89.572,29.984 90.924,31.28 90.924,33.032 Z M89.052,35.2 C88.196,34.424 87.436,34.104 86.428,34.104 C86.06,34.104 85.82,34.144 85.5,34.272 C85.876,34.976 86.78,35.56 87.756,35.56 C88.252,35.56 88.652,35.448 89.052,35.2 Z M90.324,33.032 C90.324,31.616 89.204,30.528 87.748,30.528 C86.284,30.528 85.164,31.64 85.164,33.096 C85.164,33.312 85.188,33.48 85.252,33.768 C85.708,33.616 86.06,33.56 86.516,33.56 C87.7,33.56 88.532,34 89.516,34.864 C90.06,34.344 90.324,33.728 90.324,33.032 Z M95.796,31.992 C95.796,33.04 95.188,33.672 94.052,33.792 L95.708,36 L94.972,36 L92.98,33.32 C94.636,33.32 95.196,33.032 95.196,31.968 C95.196,30.984 94.588,30.624 93.212,30.624 L92.38,30.624 L92.38,36 L91.788,36 L91.788,30.088 L93.252,30.088 C95.108,30.088 95.796,30.76 95.796,31.992 Z M99.844,34.352 C99.844,35.36 99.084,36.104 98.06,36.104 C96.996,36.104 96.268,35.408 96.212,34.344 L96.844,34.344 C96.932,35.136 97.412,35.56 98.076,35.56 C98.748,35.56 99.244,35.064 99.244,34.384 C99.244,33.736 98.94,33.456 97.924,33.144 C97.236,32.936 97.052,32.848 96.82,32.624 C96.556,32.376 96.404,31.984 96.404,31.576 C96.404,30.656 97.092,29.984 98.044,29.984 C99.012,29.984 99.7,30.624 99.7,31.584 L99.084,31.584 C99.084,30.944 98.628,30.528 98.028,30.528 C97.436,30.528 97.004,30.968 97.004,31.56 C97.004,31.832 97.116,32.104 97.284,32.248 C97.436,32.384 97.62,32.456 98.156,32.616 C98.764,32.8 99.012,32.912 99.252,33.088 C99.628,33.368 99.844,33.832 99.844,34.352 Z M103.372,30.624 L102.02,30.624 L102.02,36 L101.428,36 L101.428,30.624 L100.076,30.624 L100.076,30.088 L103.372,30.088 L103.372,30.624 Z M108.06,33.776 C108.06,35.384 107.244,36.104 106.044,36.104 C104.852,36.104 104.036,35.384 104.036,33.776 L104.036,30.088 L104.628,30.088 L104.628,33.776 C104.628,34.984 105.124,35.56 106.052,35.56 C106.964,35.56 107.468,34.984 107.468,33.776 L107.468,30.088 L108.06,30.088 L108.06,33.776 Z M114.204,30.088 L111.756,36 L111.18,36 L108.748,30.088 L109.396,30.088 L111.476,35.264 L113.564,30.088 L114.204,30.088 Z M121.884,30.088 L120.188,36 L119.428,36 L118.116,31.152 L116.82,36 L116.052,36 L114.364,30.088 L114.972,30.088 L116.428,35.232 L117.844,30.088 L118.404,30.088 L119.82,35.232 L121.276,30.088 L121.884,30.088 Z M126.772,36 L126.076,36 L124.404,33.472 L122.724,36 L122.028,36 L124.036,32.976 L122.14,30.088 L122.836,30.088 L124.404,32.456 L125.964,30.088 L126.652,30.088 L124.756,32.976 L126.772,36 Z M131.556,30.088 L129.492,34.024 L129.492,36 L128.9,36 L128.9,34.024 L126.852,30.088 L127.508,30.088 L129.188,33.4 L130.908,30.088 L131.556,30.088 Z M135.364,36 L131.708,36 L131.708,35.464 L134.612,30.624 L131.796,30.624 L131.796,30.088 L135.276,30.088 L135.276,30.624 L132.38,35.464 L135.364,35.464 L135.364,36 Z M17.148,47 L16.556,47 L16.556,46.232 C16.092,46.856 15.612,47.104 14.868,47.104 C13.524,47.104 12.524,46.128 12.524,44.824 C12.524,43.512 13.516,42.52 14.828,42.52 C15.588,42.52 16.124,42.792 16.556,43.4 L16.556,42.624 L17.148,42.624 L17.148,47 Z M16.556,44.792 C16.556,43.816 15.804,43.064 14.844,43.064 C13.892,43.064 13.124,43.832 13.124,44.784 C13.124,45.784 13.884,46.56 14.876,46.56 C15.82,46.56 16.556,45.784 16.556,44.792 Z M22.772,44.808 C22.772,46.12 21.78,47.104 20.46,47.104 C19.74,47.104 19.116,46.792 18.748,46.248 L18.748,47 L18.156,47 L18.156,41.088 L18.748,41.088 L18.748,43.376 C19.124,42.824 19.732,42.52 20.468,42.52 C21.764,42.52 22.772,43.52 22.772,44.808 Z M22.172,44.792 C22.172,43.808 21.436,43.064 20.452,43.064 C19.476,43.064 18.708,43.824 18.708,44.792 C18.708,45.76 19.484,46.56 20.444,46.56 C21.428,46.56 22.172,45.8 22.172,44.792 Z M27.972,45.712 C27.444,46.712 26.732,47.104 25.828,47.104 C24.484,47.104 23.444,46.104 23.444,44.8 C23.444,43.528 24.476,42.52 25.788,42.52 C26.772,42.52 27.612,43.072 27.964,43.952 L27.3,43.952 C26.964,43.376 26.428,43.064 25.78,43.064 C24.804,43.064 24.044,43.832 24.044,44.816 C24.044,45.784 24.82,46.56 25.804,46.56 C26.42,46.56 26.844,46.32 27.3,45.712 L27.972,45.712 Z M33.26,47 L32.668,47 L32.668,46.208 C32.228,46.84 31.732,47.104 31.004,47.104 C29.652,47.104 28.62,46.112 28.62,44.816 C28.62,43.512 29.628,42.52 30.948,42.52 C31.636,42.52 32.236,42.8 32.668,43.32 L32.668,41.088 L33.26,41.088 L33.26,47 Z M32.692,44.8 C32.692,43.84 31.9,43.064 30.932,43.064 C29.98,43.064 29.22,43.832 29.22,44.792 C29.22,45.792 29.988,46.56 30.988,46.56 C31.924,46.56 32.692,45.76 32.692,44.8 Z M38.652,45.008 L34.692,45.008 C34.74,45.872 35.5,46.56 36.396,46.56 C37.06,46.56 37.676,46.16 37.924,45.56 L38.54,45.56 C38.26,46.392 37.404,47.104 36.412,47.104 C35.116,47.104 34.1,46.088 34.1,44.792 C34.1,43.52 35.1,42.52 36.372,42.52 C37.668,42.52 38.652,43.456 38.652,45.008 Z M38.06,44.472 C37.86,43.6 37.212,43.064 36.364,43.064 C35.532,43.064 34.868,43.632 34.708,44.472 L38.06,44.472 Z M41.452,43.16 L40.364,43.16 L40.364,47 L39.772,47 L39.772,43.16 L39.092,43.16 L39.092,42.624 L39.772,42.624 C39.756,41.608 40.324,41.088 41.452,41.088 L41.452,41.624 C40.644,41.624 40.356,41.896 40.364,42.624 L41.452,42.624 L41.452,43.16 Z M46.356,46.216 C46.356,47.072 46.244,47.536 45.948,47.936 C45.572,48.432 44.932,48.72 44.172,48.72 C43.068,48.72 42.292,48.16 41.972,47.136 L42.548,47.136 C42.996,47.928 43.42,48.176 44.156,48.176 C45.212,48.176 45.764,47.56 45.764,46.408 L45.764,46.112 C45.42,46.784 44.876,47.104 44.092,47.104 C42.812,47.104 41.812,46.112 41.812,44.832 C41.812,43.512 42.772,42.52 44.052,42.52 C44.788,42.52 45.324,42.8 45.764,43.4 L45.764,42.624 L46.356,42.624 L46.356,46.216 Z M45.764,44.76 C45.764,43.808 45.028,43.064 44.084,43.064 C43.116,43.064 42.412,43.784 42.412,44.784 C42.412,45.8 43.132,46.56 44.092,46.56 C45.044,46.56 45.764,45.784 45.764,44.76 Z M51.236,47 L50.644,47 L50.644,44.648 C50.644,43.56 50.092,43.064 49.292,43.064 C48.532,43.064 47.956,43.528 47.956,44.6 L47.956,47 L47.364,47 L47.364,41.088 L47.956,41.088 L47.956,43.192 C48.252,42.76 48.748,42.52 49.348,42.52 C50.484,42.52 51.236,43.184 51.236,44.648 L51.236,47 Z M52.836,47 L52.244,47 L52.244,42.624 L52.836,42.624 L52.836,47 Z M52.836,42.144 L52.244,42.144 L52.244,41.136 L52.836,41.136 L52.836,42.144 Z M54.46,46.696 C54.46,47.96 53.972,48.496 52.98,48.536 L52.98,47.968 C53.644,47.928 53.868,47.608 53.868,46.696 L53.868,42.624 L54.46,42.624 L54.46,46.696 Z M54.46,42.144 L53.868,42.144 L53.868,41.136 L54.46,41.136 L54.46,42.144 Z M58.94,47 L58.204,47 L56.748,45.248 L56.06,46.096 L56.06,47 L55.468,47 L55.468,41.088 L56.06,41.088 L56.06,45.28 L58.1,42.624 L58.828,42.624 L57.124,44.824 L58.94,47 Z M60.076,47 L59.484,47 L59.484,41.088 L60.076,41.088 L60.076,47 Z M67.58,47 L66.988,47 L66.988,44.464 C66.988,43.48 66.548,43.056 65.828,43.056 C65.132,43.056 64.628,43.472 64.628,44.464 L64.628,47 L64.036,47 L64.036,44.448 C64.036,43.472 63.524,43.064 62.852,43.064 C62.116,43.064 61.676,43.576 61.676,44.448 L61.676,47 L61.084,47 L61.084,42.624 L61.676,42.624 L61.676,43.128 C62.012,42.688 62.356,42.52 62.908,42.52 C63.564,42.52 63.996,42.776 64.34,43.36 C64.708,42.776 65.18,42.512 65.86,42.512 C66.86,42.512 67.58,43.128 67.58,44.4 L67.58,47 Z M72.46,47 L71.868,47 L71.868,44.704 C71.868,43.512 71.324,43.064 70.516,43.064 C69.724,43.064 69.18,43.52 69.18,44.592 L69.18,47 L68.588,47 L68.588,42.624 L69.18,42.624 L69.18,43.192 C69.548,42.744 70.012,42.52 70.588,42.52 C71.684,42.52 72.46,43.168 72.46,44.704 L72.46,47 Z M77.868,44.824 C77.868,46.136 76.924,47.104 75.644,47.104 C74.284,47.104 73.3,46.128 73.3,44.784 C73.3,43.504 74.3,42.52 75.596,42.52 C76.908,42.52 77.868,43.488 77.868,44.824 Z M77.268,44.832 C77.268,43.816 76.556,43.064 75.596,43.064 C74.628,43.064 73.9,43.808 73.9,44.8 C73.9,45.824 74.62,46.56 75.628,46.56 C76.58,46.56 77.268,45.832 77.268,44.832 Z M83.324,44.824 C83.324,46.104 82.308,47.104 81.004,47.104 C80.276,47.104 79.684,46.808 79.3,46.248 L79.3,48.536 L78.708,48.536 L78.708,42.624 L79.3,42.624 L79.3,43.376 C79.668,42.824 80.276,42.52 81.02,42.52 C82.324,42.52 83.324,43.52 83.324,44.824 Z M82.724,44.824 C82.724,43.816 81.98,43.064 80.996,43.064 C80.028,43.064 79.26,43.824 79.26,44.792 C79.26,45.8 80.004,46.56 81.004,46.56 C81.98,46.56 82.724,45.808 82.724,44.824 Z M88.612,48.536 L88.02,48.536 L88.02,46.248 C87.636,46.808 87.044,47.104 86.316,47.104 C85.012,47.104 83.996,46.104 83.996,44.816 C83.996,43.52 84.996,42.52 86.3,42.52 C87.044,42.52 87.652,42.816 88.02,43.376 L88.02,42.624 L88.612,42.624 L88.612,48.536 Z M88.06,44.84 C88.06,43.824 87.316,43.064 86.324,43.064 C85.34,43.064 84.596,43.816 84.596,44.824 C84.596,45.808 85.34,46.56 86.324,46.56 C87.292,46.56 88.06,45.8 88.06,44.84 Z M91.452,43.104 C90.628,43.184 90.212,43.632 90.212,44.448 L90.212,47 L89.62,47 L89.62,42.624 L90.212,42.624 L90.212,43.248 C90.444,42.768 90.82,42.552 91.452,42.52 L91.452,43.104 Z M94.412,45.744 C94.412,46.544 93.86,47.104 93.076,47.104 C92.236,47.104 91.668,46.56 91.668,45.712 L92.252,45.712 C92.252,46.248 92.588,46.56 93.076,46.56 C93.5,46.56 93.812,46.24 93.812,45.8 C93.812,45.36 93.596,45.216 92.964,44.96 C92.348,44.712 92.332,44.704 92.156,44.536 C91.94,44.336 91.828,44.064 91.828,43.752 C91.828,43.04 92.356,42.52 93.068,42.52 C93.772,42.52 94.3,43 94.3,43.704 L93.7,43.704 C93.7,43.288 93.444,43.064 93.06,43.064 C92.708,43.064 92.428,43.344 92.428,43.696 C92.428,43.952 92.556,44.136 92.828,44.272 C92.956,44.336 92.988,44.352 93.652,44.624 C94.164,44.84 94.412,45.208 94.412,45.744 Z M97.244,43.16 L96.26,43.16 L96.26,47 L95.668,47 L95.668,43.16 L94.724,43.16 L94.724,42.624 L95.668,42.624 L95.668,41.088 L96.26,41.088 L96.26,42.624 L97.244,42.624 L97.244,43.16 Z M101.7,47 L101.108,47 L101.108,46.32 C100.812,46.864 100.38,47.104 99.7,47.104 C98.588,47.104 97.844,46.512 97.844,44.984 L97.844,42.624 L98.436,42.624 L98.436,44.984 C98.436,46.096 98.9,46.56 99.748,46.56 C100.548,46.56 101.108,46.064 101.108,44.872 L101.108,42.624 L101.7,42.624 L101.7,47 Z M106.572,42.624 L104.732,47 L104.108,47 L102.268,42.624 L102.868,42.624 L104.404,46.304 L105.972,42.624 L106.572,42.624 Z M113.228,42.624 L111.532,47 L110.9,47 L109.948,44.096 L109.004,47 L108.364,47 L106.692,42.624 L107.284,42.624 L108.676,46.288 L109.708,43.16 L110.196,43.16 L111.228,46.288 L112.652,42.624 L113.228,42.624 Z M117.06,47 L116.38,47 L115.204,45.248 L114.02,47 L113.348,47 L114.868,44.768 L113.348,42.624 L114.02,42.624 L115.204,44.312 L116.38,42.624 L117.06,42.624 L115.532,44.768 L117.06,47 Z M121.34,42.624 L118.812,48.536 L118.18,48.536 L118.892,46.856 L117.196,42.624 L117.844,42.624 L119.228,46.112 L120.708,42.624 L121.34,42.624 Z M124.732,47 L121.492,47 L121.492,46.464 L123.908,43.16 L121.572,43.16 L121.572,42.624 L124.58,42.624 L124.58,43.128 L122.188,46.464 L124.732,46.464 L124.732,47 Z M50.54,55.848 C50.54,57.448 49.812,58.104 48.604,58.104 C47.364,58.104 46.58,57.416 46.58,55.848 L46.58,54.168 C46.58,52.688 47.348,51.984 48.556,51.984 C49.716,51.984 50.54,52.656 50.54,54.168 L50.54,55.848 Z M49.956,55.752 L49.956,54.304 C49.956,53.248 49.644,52.52 48.564,52.52 C47.684,52.52 47.164,52.984 47.164,54.304 L47.164,55.752 C47.164,57.136 47.724,57.568 48.58,57.568 C49.516,57.568 49.956,57.064 49.956,55.752 Z M53.604,58 L53.02,58 L53.02,52.624 L52.012,52.624 L52.012,52.088 L53.604,52.088 L53.604,58 Z M59.252,53.784 C59.252,54.416 58.996,54.856 58.164,55.648 L56.268,57.464 L59.22,57.464 L59.22,58 L55.468,58 L55.468,57.464 L57.54,55.464 C58.18,54.856 58.66,54.408 58.66,53.752 C58.66,53.04 58.124,52.52 57.38,52.52 C56.604,52.52 56.1,53.032 56.1,54 L55.516,54 C55.516,52.744 56.252,51.984 57.388,51.984 C58.468,51.984 59.252,52.744 59.252,53.784 Z M63.668,56.208 C63.668,57.272 62.852,58.104 61.812,58.104 C60.74,58.104 59.9,57.36 59.9,56.152 L60.484,56.152 C60.484,57.144 61.1,57.568 61.796,57.568 C62.516,57.568 63.076,56.992 63.076,56.24 C63.076,55.624 62.668,55.08 62.076,54.944 C61.916,54.912 61.78,54.904 61.388,54.896 L61.388,54.368 L61.524,54.376 C61.596,54.384 61.652,54.384 61.676,54.384 C62.292,54.384 62.684,54.016 62.684,53.456 C62.684,52.904 62.316,52.52 61.788,52.52 C61.212,52.52 60.876,52.904 60.876,53.56 L60.292,53.56 C60.292,52.592 60.9,51.984 61.788,51.984 C62.66,51.984 63.276,52.6 63.276,53.48 C63.276,53.968 63.084,54.328 62.668,54.616 C63.332,54.952 63.668,55.496 63.668,56.208 Z M68.284,56.92 L67.74,56.92 L67.74,58 L67.156,58 L67.156,56.92 L64.164,56.92 L64.164,56.384 L67.044,52.088 L67.74,52.088 L67.74,56.384 L68.284,56.384 L68.284,56.92 Z M67.156,56.384 L67.156,52.904 L64.844,56.384 L67.156,56.384 Z M72.724,56.032 C72.724,57.192 71.852,58.104 70.74,58.104 C69.668,58.104 68.884,57.376 68.708,56.144 L69.284,56.144 C69.388,56.984 69.972,57.568 70.716,57.568 C71.508,57.568 72.132,56.896 72.132,56.032 C72.132,55.168 71.516,54.512 70.716,54.512 C70.252,54.512 69.852,54.728 69.492,55.176 L69.036,55 L69.564,52.088 L72.228,52.088 L72.228,52.624 L70.036,52.624 L69.748,54.256 C70.108,54.056 70.412,53.976 70.764,53.976 C71.868,53.976 72.724,54.88 72.724,56.032 Z M77.164,56.008 C77.164,57.216 76.324,58.104 75.172,58.104 C74.004,58.104 73.132,57.224 73.132,56.048 C73.132,55.472 73.268,55.104 73.836,54.264 L75.3,52.088 L75.98,52.088 L74.588,54.144 C74.852,54.024 75.036,53.976 75.284,53.976 C76.332,53.976 77.164,54.872 77.164,56.008 Z M76.572,56.032 C76.572,55.152 75.98,54.512 75.156,54.512 C74.348,54.512 73.724,55.168 73.724,56.016 C73.724,56.912 74.34,57.568 75.172,57.568 C75.98,57.568 76.572,56.92 76.572,56.032 Z M81.284,52.624 L78.868,58 L78.244,58 L80.676,52.624 L77.876,52.624 L77.876,52.088 L81.284,52.088 L81.284,52.624 Z M85.892,56.256 C85.892,57.328 85.116,58.104 84.036,58.104 C82.948,58.104 82.132,57.32 82.132,56.28 C82.132,55.568 82.484,55.008 83.132,54.696 C82.652,54.408 82.444,54.04 82.444,53.512 C82.444,52.64 83.124,51.984 84.02,51.984 C84.924,51.984 85.58,52.624 85.58,53.512 C85.58,54.096 85.356,54.472 84.876,54.696 C85.532,54.984 85.892,55.528 85.892,56.256 Z M85.3,56.272 C85.3,55.528 84.764,55 84.02,55 C83.26,55 82.724,55.528 82.724,56.272 C82.724,57.032 83.26,57.568 84.028,57.568 C84.772,57.568 85.3,57.024 85.3,56.272 Z M84.988,53.48 C84.988,52.92 84.58,52.52 84.012,52.52 C83.444,52.52 83.036,52.912 83.036,53.464 C83.036,54.032 83.46,54.448 84.044,54.448 C84.58,54.448 84.988,54.032 84.988,53.48 Z M90.46,54.04 C90.46,54.624 90.316,54.992 89.756,55.824 L88.292,58 L87.612,58 L89.004,55.944 C88.74,56.064 88.556,56.112 88.308,56.112 C87.26,56.112 86.428,55.216 86.428,54.08 C86.428,52.872 87.268,51.984 88.42,51.984 C89.588,51.984 90.46,52.864 90.46,54.04 Z M89.868,54.072 C89.868,53.176 89.252,52.52 88.42,52.52 C87.612,52.52 87.02,53.16 87.02,54.056 C87.02,54.936 87.612,55.576 88.436,55.576 C89.244,55.576 89.868,54.92 89.868,54.072 Z" id="ABCDEFGHIJKLMNOPQRST"></path>
        </g>
        <rect id="Rectangle-path" fill="#024381" fill-rule="nonzero" x="31" y="100" width="48" height="46"></rect>
        <rect id="Rectangle-path" fill="url(#linearGradient-1)" fill-rule="nonzero" x="78" y="100" width="48" height="46"></rect>
        <rect id="Rectangle-path" fill="#F89820" fill-rule="nonzero" x="126" y="100" width="48" height="46"></rect>
    </g>
</svg>