<?xml version="1.0" encoding="UTF-8"?>
<svg width="1440px" height="1024px" viewBox="0 0 1440 1024" version="1.1" xmlns="http://www.w3.org/2000/svg" xmlns:xlink="http://www.w3.org/1999/xlink">
    <!-- Generator: Sketch 43.2 (39069) - http://www.bohemiancoding.com/sketch -->
    <title>Desktop HD Copy</title>
    <desc>Created with Sketch.</desc>
    <defs>
        <linearGradient x1="50%" y1="28.5534593%" x2="50%" y2="80.2363869%" id="linearGradient-1">
            <stop stop-color="#556A8B" offset="0%"></stop>
            <stop stop-color="#23163F" offset="100%"></stop>
        </linearGradient>
        <linearGradient x1="50%" y1="0%" x2="50%" y2="100%" id="linearGradient-2">
            <stop stop-color="#FFFFFF" stop-opacity="0.1" offset="0%"></stop>
            <stop stop-color="#D1D1D1" stop-opacity="0.5" offset="100%"></stop>
        </linearGradient>
        <linearGradient x1="50%" y1="0%" x2="46.586567%" y2="30.3945265%" id="linearGradient-3">
            <stop stop-color="#96DC6E" offset="0%"></stop>
            <stop stop-color="#81C15C" offset="100%"></stop>
        </linearGradient>
        <linearGradient x1="50%" y1="35.9148435%" x2="50%" y2="100%" id="linearGradient-4">
            <stop stop-color="#FFDED3" offset="0%"></stop>
            <stop stop-color="#F39E82" offset="100%"></stop>
        </linearGradient>
        <linearGradient x1="50%" y1="0%" x2="50%" y2="100%" id="linearGradient-5">
            <stop stop-color="#603232" offset="0%"></stop>
            <stop stop-color="#000000" offset="100%"></stop>
        </linearGradient>
        <linearGradient x1="50%" y1="0%" x2="50%" y2="100%" id="linearGradient-6">
            <stop stop-color="#FFFFFF" stop-opacity="0.25" offset="0%"></stop>
            <stop stop-color="#AAB0BA" offset="100%"></stop>
        </linearGradient>
        <linearGradient x1="50%" y1="0%" x2="50%" y2="100%" id="linearGradient-7">
            <stop stop-color="#FFFFFF" stop-opacity="0.25" offset="0%"></stop>
            <stop stop-color="#AAB0BA" stop-opacity="0.75" offset="100%"></stop>
        </linearGradient>
    </defs>
    <g id="Page-1" stroke="none" stroke-width="1" fill="none" fill-rule="evenodd">
        <g id="Desktop-HD-Copy">
            <g id="buildings" transform="translate(-41.000000, 151.000000)" fill="url(#linearGradient-1)">
                <path d="M1292.01616,177.032787 L1292,177.032787 L1292,217 L1311,217 L1311,177.032787 L1310.98384,177.032787 C1310.69458,173.668234 1306.55911,171 1301.5,171 C1296.44089,171 1292.30542,173.668234 1292.01616,177.032787 Z M1259.01616,177.032787 L1259,177.032787 L1259,217 L1278,217 L1278,177.032787 L1277.98384,177.032787 C1277.69458,173.668234 1273.55911,171 1268.5,171 C1263.44089,171 1259.30542,173.668234 1259.01616,177.032787 Z M1308.02042,255 L1308,255 L1308,308 L1332,308 L1332,255 L1331.97958,255 C1331.61421,250.53831 1326.39046,247 1320,247 C1313.60954,247 1308.38579,250.53831 1308.02042,255 Z M1273.02042,255 L1273,255 L1273,308 L1297,308 L1297,255 L1296.97958,255 C1296.61421,250.53831 1291.39046,247 1285,247 C1278.60954,247 1273.38579,250.53831 1273.02042,255 Z M1238.02042,255 L1238,255 L1238,308 L1262,308 L1262,255 L1261.97958,255 C1261.61421,250.53831 1256.39046,247 1250,247 C1243.60954,247 1238.38579,250.53831 1238.02042,255 Z M498,689.672015 L498,384 L849,384 L849,445 L849.829482,445 C858.916103,411.245661 888.882267,386.051159 925.025174,384.119293 L930,323 L934.979693,384.179091 C970.672248,386.519626 1000.16824,411.558982 1009.17052,445 L1022,445 L1022,496 L1034,496 L1034,709.576254 C1049.50007,712.851703 1064.11185,716.465834 1078,720.37873 L1078,349 L1183,349 L1183,629 L1209,629 L1209,308 L1224,308 L1224,217 L1245,217 L1245,165 L1325,165 L1325,217 L1346,217 L1346,308 L1361,308 L1361,853.26903 C1375.79115,860.257273 1391.37664,867.21299 1408,874.077131 C1494.15422,909.652049 1452.85714,943.704225 1361.00002,969.373642 L1361,975 L1339.53134,975 C1241.40695,999.158396 1099.27544,1014.57713 988,1014.57713 C952.843278,1014.57713 918.695453,1013.13212 886.058306,1010.40997 C802.152314,1062.96033 664.68908,1097.21663 509.343828,1097.21663 C253.82588,1097.21663 -128.620808,987.520514 42.7333296,892.568504 C68.1332327,878.493724 89.7970583,865.727747 109.231659,853.945953 L215.545313,452.724845 L215.545313,217.033166 L248.077158,217.033166 L279.439055,0 L310.800953,217.033166 L343.570678,217.033166 L343.570678,455.06472 L386,615.190241 L386,409 L486,409 L486,692.813456 C489.943363,691.773907 493.942925,690.726854 498,689.672013 Z" id="Combined-Shape"></path>
            </g>
            <path d="M516.798317,263.476721 C493.366963,273.342672 476,309.26984 476,352.079778 C476,402.495728 500.086328,443.36593 529.798319,443.36593 C559.51031,443.36593 583.596639,402.495728 583.596639,352.079778 C583.596639,344.808401 583.095603,337.735591 582.148919,330.955328 C590.051795,317.915455 595.008403,299.160587 595.008403,278.317307 C595.008403,238.929846 577.308601,207 555.47479,207 C536.461955,207 520.583894,231.212044 516.798317,263.476721 Z" id="smoke" fill="url(#linearGradient-2)" fill-rule="nonzero"></path>
            <g id="house" transform="translate(270.000000, 424.000000)" fill-rule="nonzero">
                <ellipse id="Oval-2" fill="url(#linearGradient-3)" cx="433.239496" cy="667.529989" rx="433.239496" ry="212.729337"></ellipse>
                <ellipse id="Oval-16" fill="#66AC66" cx="433.647059" cy="507.371695" rx="268.176471" ry="19.9688458"></ellipse>
                <rect id="Rectangle" fill="url(#linearGradient-4)" x="193.184874" y="169.531426" width="478.478992" height="334.987577"></rect>
                <rect id="Rectangle-5" fill="url(#linearGradient-5)" x="216.008403" y="6.52043946" width="90.4789916" height="146.709888"></rect>
                <polygon id="Triangle" fill="#A02952" points="432.42437 0 708.344538 184.202415 156.504202 184.202415"></polygon>
                <rect id="Rectangle-2" fill="#D16E6E" x="232.310924" y="302.38538" width="132.865546" height="107.587251"></rect>
                <rect id="Rectangle-2" fill="#DDF2F0" x="238.831933" y="309.720874" width="119.823529" height="92.9162623"></rect>
                <rect id="Rectangle-6" fill="#A8ABB1" x="238.831933" y="343.953181" width="8.1512605" height="58.6839551"></rect>
                <g id="door" transform="translate(519.235294, 320.316588)">
                    <rect id="Rectangle-3" fill="#E06161" x="0" y="0" width="110.857143" height="184.202415"></rect>
                    <rect id="Rectangle-4" fill="#EC7272" x="17.264637" y="10.2696921" width="32.7119438" height="74.6504523"></rect>
                    <rect id="Rectangle-4-Copy-2" fill="#EC7272" x="17.264637" y="100.431927" width="32.7119438" height="74.6504523"></rect>
                    <rect id="Rectangle-4-Copy" fill="#EC7272" x="63.6065574" y="10.2696921" width="32.7119438" height="74.6504523"></rect>
                    <rect id="Rectangle-4-Copy-3" fill="#EC7272" x="63.6065574" y="100.431927" width="32.7119438" height="74.6504523"></rect>
                </g>
                <path d="M321.159664,386.336038 C333.314569,386.336038 343.168067,376.848312 343.168067,365.14461 C343.168067,353.440907 335.016807,343.953181 321.159664,343.953181 C307.302521,343.953181 300.781513,348.028456 299.151261,365.14461 C297.521008,382.260763 309.004759,386.336038 321.159664,386.336038 Z" id="Oval-3" fill="#F2DFB5"></path>
                <path d="M322.058791,387.053208 C332.187879,387.053208 367.108632,383.723874 367.108632,377.646951 C367.108632,371.570029 332.187879,365.046724 322.058791,365.046724 C311.929704,365.046724 304.470791,369.132452 304.470791,375.209375 C304.470791,381.286298 311.929704,387.053208 322.058791,387.053208 Z" id="Oval-5" fill="#3C1A0C" transform="translate(335.789712, 376.049966) rotate(75.000000) translate(-335.789712, -376.049966) "></path>
                <ellipse id="Oval-4" fill="#000000" cx="304.857143" cy="365.959665" rx="1.6302521" ry="4.89032959"></ellipse>
                <ellipse id="Oval-6" fill="#580B0B" transform="translate(314.852784, 399.233804) rotate(-36.000000) translate(-314.852784, -399.233804) " cx="314.852784" cy="399.233804" rx="15.894958" ry="5.70538452"></ellipse>
                <polygon id="Rectangle-7" fill="#3C1A0C" points="309.747899 351.288676 338.277311 351.288676 344.798319 403.452191 309.747899 403.452191"></polygon>
                <rect id="Rectangle-8" fill="#D16E6E" x="295.07563" y="402.637136" width="57.0588235" height="7.33549439"></rect>
                <path d="M321.567227,364.329555 C331.696315,364.329555 343.983193,363.5145 341.537815,355.771478 C339.092437,348.028456 331.696315,340.692962 321.567227,340.692962 C315.267352,340.692962 308.840569,343.715045 305.357846,346.854471 C303.240964,348.762688 303.226891,348.843511 301.596639,351.696203 C297.814417,358.314513 311.438139,364.329555 321.567227,364.329555 Z" id="Oval-5" fill="#3C1A0C"></path>
                <ellipse id="Oval" fill="#FFEF85" cx="528.201681" cy="411.602741" rx="4.8907563" ry="4.89032959"></ellipse>
            </g>
            <path d="M891.306979,329.724357 C810.552273,326.851617 750,314.918258 750,300.633351 C750,284.203154 830.105287,270.883846 928.920168,270.883846 C955.685993,270.883846 981.079103,271.861079 1003.87935,273.612669 C1012.65918,253.979368 1036.36491,239.911759 1064.23109,239.911759 C1099.57035,239.911759 1128.21849,262.536336 1128.21849,290.445165 C1128.21849,295.256519 1127.36706,299.910823 1125.7767,304.319234 C1165.62122,309.450383 1191.79832,318.11417 1191.79832,327.937692 C1191.79832,343.692676 1124.46608,356.464614 1041.40756,356.464614 C961.512506,356.464614 896.168609,344.647042 891.306979,329.724357 Z" id="cloud2" fill="url(#linearGradient-6)" fill-rule="nonzero"></path>
            <path d="M1163.80323,682.316915 C1174.7909,680.896943 1187.4522,679.72132 1201.33372,678.85272 C1208.54125,669.972582 1239.20779,663.301099 1275.94538,663.301099 C1317.17237,663.301099 1350.75386,671.702744 1352.11666,682.199029 C1379.70133,685.700107 1396.9916,690.726368 1396.9916,696.310823 C1396.9916,706.88917 1334.95106,715.464614 1258.42017,715.464614 C1181.88928,715.464614 1119.84874,706.88917 1119.84874,696.310823 C1119.84874,695.593232 1120.13423,694.884856 1120.69037,694.18775 C1114.59165,694.774386 1108.15751,695.088241 1101.5084,695.088241 C1062.56769,695.088241 1031,684.323321 1031,671.04412 C1031,657.76492 1062.56769,647 1101.5084,647 C1140.44912,647 1172.01681,657.76492 1172.01681,671.04412 C1172.01681,675.117719 1169.04613,678.95471 1163.80324,682.316915 L1163.80323,682.316915 Z" id="cloud1" fill="url(#linearGradient-7)" fill-rule="nonzero"></path>
            <ellipse id="sahdow" fill="#652C40" fill-rule="nonzero" cx="768.672269" cy="487.26022" rx="14.6722689" ry="3.26021973"></ellipse>
            <path d="M773.705882,486.978615 C776.857154,486.978615 779.411765,471.652289 779.411765,452.746308 C779.411765,433.840326 778.487406,434.000044 775.336134,434.000044 C772.184863,434.000044 768,433.840326 768,452.746308 C768,471.652289 770.554611,486.978615 773.705882,486.978615 Z" id="Oval-17" fill="#000000" fill-rule="nonzero"></path>
            <path d="M763.263783,487.933303 C770.691781,487.933303 779.178314,488.954663 781.213476,477.144098 C783.248638,465.333534 772.637733,462.666601 772.637733,447.180557 C772.637733,431.694513 755.534353,454.737819 753.499191,466.548384 C751.464028,478.358949 755.835786,487.933303 763.263783,487.933303 Z" id="Oval-18" fill="#000000" fill-rule="nonzero"></path>
            <ellipse id="Oval-15" fill="#080808" fill-rule="nonzero" cx="773.819328" cy="427.558077" rx="11.8193277" ry="8.55807679"></ellipse>
            <polygon id="Triangle-2" fill="#000000" fill-rule="nonzero" points="767.483193 414 771.966387 423.780659 763 423.780659"></polygon>
            <polygon id="Triangle-2-Copy" fill="#000000" fill-rule="nonzero" points="779.483193 414 783.966387 423.780659 775 423.780659"></polygon>
            <path d="M770.336134,484.748321 C770.336134,484.748321 777.095015,486.050115 782.563025,484.748321 C785.008403,484.748321 785.823529,483.933266 786.638655,482.303157 C788.429457,479.233478 787.453782,480.673047 788.268908,476.597772 C789.084034,474.152607 790.380588,473.707716 790.714286,474.152607 C791.603278,475.337826 791.146695,476.21015 790.714286,478.227882 C789.924006,481.915534 790.434277,481.345895 788.268908,484.748321 C787.581336,485.828697 786.843485,486.526242 785.008403,487.193486 C782.360291,488.156352 782.339955,487.57466 779.302521,488.008541 C776.634073,488.389715 776.408653,488.195992 773.596639,488.008541 C770.295208,487.788465 767.07563,487.193486 767.07563,487.193486 L763,486.378431 L770.336134,484.748321 Z" id="Path-2" fill="#000000" fill-rule="nonzero"></path>
            <g id="Rectangle-9" transform="translate(768.000000, 435.000000)">
                <g id="path-10-link" fill="#D8D8D8">
                    <polygon id="path-10" points="0.83115958 0 10.2867766 0 10.5966387 1.63010986 0.521297563 1.63010986"></polygon>
                </g>
                <polygon id="Shape" stroke="#FF6DA5" points="1.16855655 0.407527466 9.94938782 0.407527466 10.1043107 1.2225824 1.01362555 1.2225824"></polygon>
            </g>
            <path d="M105.033232,564.827129 C101.766742,567.084246 100,569.49537 100,572 C100,584.702549 145.443098,595 201.5,595 C257.556902,595 303,584.702549 303,572 C303,565.771854 292.075445,560.121895 274.331668,555.980396 C289.914854,552.409043 299,548.116915 299,543.5 C299,531.073593 233.185858,521 152,521 C70.8141418,521 5,531.073593 5,543.5 C5,553.412547 46.879218,561.827938 105.033232,564.827129 Z" id="Combined-Shape" fill="url(#linearGradient-7)"></path>
        </g>
    </g>
</svg>