<?xml version="1.0" encoding="utf-8"?>
<!-- Generator: Adobe Illustrator 15.0.0, SVG Export Plug-In . SVG Version: 6.00 Build 0)  -->
<!DOCTYPE svg PUBLIC "-//W3C//DTD SVG 1.1//EN" "http://www.w3.org/Graphics/SVG/1.1/DTD/svg11.dtd">
<svg version="1.1" id="Layer_1" xmlns="http://www.w3.org/2000/svg" xmlns:xlink="http://www.w3.org/1999/xlink" x="0px" y="0px"
	 width="120px" height="108px" viewBox="0 0 120 108" enable-background="new 0 0 120 108" xml:space="preserve">
<g id="Layer_0_xA0_Image_1_">
</g>
<g id="ABCDEFGHIJKLMNOPQRSTUVWXYZ_abcdefghijklmnopqrstuvwxyz_012345678_1_">
	<g enable-background="new    ">
		<path fill="#4C4E4F" d="M9.024,45.762H7.23l-0.42,1.098H6.306l1.542-3.96h0.57l1.536,3.96h-0.51L9.024,45.762z M8.85,45.312
			l-0.534-1.404L8.13,43.355H8.118L7.944,43.89l-0.54,1.422H8.85z"/>
		<path fill="#4C4E4F" d="M10.758,42.899h1.41c0.456,0,0.795,0.095,1.017,0.285c0.222,0.189,0.333,0.459,0.333,0.807
			c0,0.208-0.059,0.393-0.177,0.552c-0.118,0.16-0.281,0.261-0.489,0.301v0.006c0.232,0.044,0.418,0.149,0.558,0.317
			c0.14,0.168,0.21,0.362,0.21,0.582c0,0.341-0.128,0.61-0.384,0.811s-0.614,0.3-1.074,0.3h-1.404V42.899z M12.174,44.64
			c0.284,0,0.495-0.054,0.633-0.159c0.138-0.106,0.207-0.27,0.207-0.489c0-0.428-0.28-0.642-0.84-0.642h-0.936v1.29H12.174z
			 M12.276,46.409c0.28,0,0.49-0.057,0.63-0.171s0.21-0.276,0.21-0.489c0-0.212-0.07-0.375-0.21-0.488
			c-0.14-0.114-0.35-0.171-0.63-0.171h-1.038v1.319H12.276z"/>
		<path fill="#4C4E4F" d="M17.256,46.635c-0.284,0.189-0.612,0.284-0.984,0.284s-0.696-0.083-0.972-0.249
			c-0.276-0.165-0.489-0.401-0.639-0.708c-0.15-0.306-0.225-0.666-0.225-1.083c0-0.411,0.075-0.771,0.225-1.079
			c0.15-0.309,0.363-0.545,0.639-0.712c0.276-0.165,0.596-0.248,0.96-0.248c0.38,0,0.699,0.077,0.957,0.233s0.451,0.386,0.579,0.69
			l-0.474,0.222c-0.088-0.231-0.216-0.406-0.384-0.522c-0.168-0.115-0.382-0.174-0.642-0.174c-0.272,0-0.51,0.063-0.714,0.189
			c-0.204,0.126-0.362,0.309-0.474,0.549c-0.112,0.24-0.168,0.524-0.168,0.852c0,0.496,0.119,0.886,0.357,1.167
			c0.238,0.282,0.563,0.424,0.975,0.424c0.268,0,0.5-0.068,0.696-0.204s0.336-0.336,0.42-0.601l0.48,0.181
			C17.744,46.182,17.54,46.444,17.256,46.635z"/>
		<path fill="#4C4E4F" d="M21.534,43.415c0.352,0.345,0.528,0.832,0.528,1.464c0,0.633-0.176,1.12-0.528,1.465
			c-0.352,0.344-0.84,0.516-1.464,0.516h-1.278v-3.96h1.278C20.693,42.899,21.182,43.071,21.534,43.415z M21.177,46.004
			c0.254-0.27,0.381-0.645,0.381-1.125c0-0.479-0.127-0.854-0.381-1.125c-0.254-0.27-0.607-0.404-1.059-0.404h-0.846v3.06h0.846
			C20.569,46.409,20.922,46.274,21.177,46.004z"/>
		<path fill="#4C4E4F" d="M25.986,46.409v0.45h-2.868v-3.96h2.778v0.45h-2.298v1.277h1.788v0.45h-1.788v1.332H25.986z"/>
		<path fill="#4C4E4F" d="M27.426,43.35v1.277h1.788v0.45h-1.788v1.782h-0.48v-3.96h2.772v0.45H27.426z"/>
		<path fill="#4C4E4F" d="M33.756,44.861v1.998h-0.36l-0.018-0.534c-0.116,0.192-0.279,0.339-0.489,0.441
			c-0.21,0.102-0.463,0.152-0.759,0.152c-0.372,0-0.696-0.083-0.972-0.249c-0.276-0.165-0.489-0.401-0.639-0.708
			c-0.15-0.306-0.225-0.666-0.225-1.083c0-0.411,0.077-0.771,0.231-1.079c0.154-0.309,0.37-0.545,0.648-0.712
			c0.278-0.165,0.601-0.248,0.969-0.248c0.392,0,0.715,0.073,0.969,0.222c0.254,0.147,0.459,0.376,0.615,0.684l-0.438,0.24
			c-0.088-0.224-0.231-0.396-0.429-0.516c-0.198-0.12-0.437-0.181-0.717-0.181c-0.268,0-0.503,0.064-0.705,0.192
			c-0.202,0.128-0.359,0.311-0.471,0.549c-0.112,0.238-0.168,0.521-0.168,0.849c0,0.505,0.116,0.896,0.348,1.174
			c0.232,0.277,0.566,0.417,1.002,0.417c0.344,0,0.625-0.088,0.843-0.265c0.218-0.176,0.327-0.428,0.327-0.756v-0.138h-1.26v-0.45
			H33.756z"/>
		<path fill="#4C4E4F" d="M37.985,42.899v3.96h-0.48v-1.782h-2.148v1.782h-0.48v-3.96h0.48v1.728h2.148v-1.728H37.985z"/>
		<path fill="#4C4E4F" d="M39.761,46.859h-0.48v-3.96h0.48V46.859z"/>
		<path fill="#4C4E4F" d="M43.2,45.503c0,0.444-0.119,0.792-0.357,1.041c-0.238,0.25-0.567,0.375-0.987,0.375
			c-0.38,0-0.674-0.093-0.882-0.278c-0.208-0.187-0.312-0.443-0.312-0.771c0-0.116,0.01-0.222,0.03-0.317l0.444-0.091
			c-0.016,0.137-0.024,0.232-0.024,0.288c0,0.244,0.058,0.426,0.174,0.543c0.116,0.118,0.3,0.178,0.552,0.178
			c0.328,0,0.557-0.088,0.687-0.265c0.13-0.176,0.195-0.449,0.195-0.821v-2.484h0.48V45.503z"/>
		<path fill="#4C4E4F" d="M45.642,44.867l-0.708,0.72v1.272h-0.48v-3.96h0.48v2.04l1.992-2.04h0.63l-1.578,1.614l1.596,2.346h-0.576
			L45.642,44.867z"/>
		<path fill="#4C4E4F" d="M51.137,46.409v0.45h-2.748v-3.96h0.48v3.51H51.137z"/>
		<path fill="#4C4E4F" d="M55.806,46.859H55.35v-2.49l0.054-1.044h-0.006l-1.302,3.534h-0.408l-1.302-3.534h-0.006l0.054,1.044v2.49
			h-0.456v-3.96h0.738l0.87,2.406l0.3,0.989h0.012l0.306-0.983l0.864-2.412h0.738V46.859z"/>
		<path fill="#4C4E4F" d="M60.209,46.859h-0.594l-1.656-2.652l-0.42-0.779h-0.006l0.024,0.636v2.796h-0.456v-3.96h0.594l1.65,2.64
			l0.426,0.792h0.006l-0.024-0.636v-2.796h0.456V46.859z"/>
		<path fill="#4C4E4F" d="M64.073,43.088c0.276,0.167,0.489,0.402,0.64,0.708c0.149,0.307,0.225,0.668,0.225,1.083
			c0,0.417-0.075,0.777-0.225,1.083c-0.15,0.307-0.363,0.543-0.64,0.708c-0.276,0.166-0.6,0.249-0.972,0.249
			s-0.696-0.083-0.973-0.249c-0.275-0.165-0.488-0.401-0.639-0.708c-0.15-0.306-0.225-0.666-0.225-1.083
			c0-0.415,0.074-0.776,0.225-1.083c0.15-0.306,0.363-0.541,0.639-0.708c0.276-0.165,0.601-0.248,0.973-0.248
			S63.797,42.923,64.073,43.088z M62.127,43.712c-0.238,0.282-0.357,0.672-0.357,1.167c0,0.496,0.119,0.886,0.357,1.167
			c0.237,0.282,0.562,0.424,0.975,0.424s0.736-0.142,0.975-0.424c0.238-0.281,0.357-0.671,0.357-1.167
			c0-0.495-0.119-0.885-0.357-1.167c-0.238-0.281-0.562-0.423-0.975-0.423S62.364,43.431,62.127,43.712z"/>
		<path fill="#4C4E4F" d="M68.357,43.227c0.244,0.218,0.365,0.511,0.365,0.879s-0.121,0.661-0.365,0.879s-0.566,0.327-0.967,0.327
			h-0.918v1.548h-0.479v-3.96h1.397C67.791,42.899,68.113,43.009,68.357,43.227z M68,44.673c0.146-0.127,0.219-0.315,0.219-0.567
			S68.146,43.664,68,43.538s-0.373-0.188-0.681-0.188h-0.847v1.512h0.847C67.627,44.861,67.854,44.799,68,44.673z"/>
		<path fill="#4C4E4F" d="M72.629,47.483c0.124-0.04,0.225-0.094,0.3-0.162l0.156,0.444c-0.093,0.08-0.222,0.144-0.39,0.191
			c-0.168,0.049-0.33,0.072-0.486,0.072c-0.328,0-0.602-0.087-0.819-0.261s-0.339-0.461-0.362-0.861
			c-0.332-0.032-0.619-0.134-0.861-0.306s-0.428-0.405-0.559-0.699c-0.129-0.294-0.194-0.635-0.194-1.023
			c0-0.415,0.075-0.776,0.225-1.083c0.15-0.306,0.363-0.541,0.64-0.708c0.275-0.165,0.6-0.248,0.972-0.248s0.696,0.083,0.972,0.248
			c0.276,0.167,0.489,0.402,0.639,0.708c0.15,0.307,0.226,0.668,0.226,1.083c0,0.389-0.065,0.729-0.198,1.023
			c-0.132,0.294-0.32,0.528-0.564,0.702s-0.531,0.274-0.863,0.303c0.02,0.248,0.097,0.416,0.23,0.504
			c0.135,0.088,0.312,0.132,0.531,0.132C72.369,47.543,72.505,47.523,72.629,47.483z M70.273,46.046
			c0.238,0.282,0.563,0.424,0.976,0.424c0.411,0,0.737-0.142,0.976-0.424c0.237-0.281,0.356-0.671,0.356-1.167
			c0-0.495-0.119-0.885-0.356-1.167c-0.238-0.281-0.564-0.423-0.976-0.423c-0.412,0-0.737,0.142-0.976,0.423
			c-0.238,0.282-0.356,0.672-0.356,1.167C69.917,45.375,70.035,45.765,70.273,46.046z"/>
		<path fill="#4C4E4F" d="M75.569,45.216h-0.948v1.644h-0.48v-3.96h1.5c0.404,0,0.729,0.104,0.973,0.312
			c0.244,0.208,0.365,0.49,0.365,0.847c0,0.28-0.077,0.516-0.233,0.708c-0.155,0.191-0.37,0.324-0.642,0.396l1.115,1.698h-0.57
			L75.569,45.216z M74.621,44.766h1.014c0.561,0,0.84-0.236,0.84-0.708c0-0.473-0.279-0.708-0.84-0.708h-1.014V44.766z"/>
		<path fill="#4C4E4F" d="M80.934,43.68l-0.414,0.336c-0.121-0.265-0.264-0.451-0.43-0.562c-0.166-0.109-0.393-0.165-0.682-0.165
			c-0.303,0-0.543,0.063-0.717,0.189s-0.26,0.287-0.26,0.482c0,0.129,0.033,0.234,0.102,0.318s0.181,0.157,0.339,0.219
			c0.157,0.062,0.377,0.117,0.657,0.165c0.523,0.088,0.895,0.221,1.113,0.396c0.217,0.176,0.326,0.42,0.326,0.731
			c0,0.225-0.062,0.422-0.189,0.592c-0.125,0.17-0.305,0.302-0.537,0.396c-0.231,0.094-0.5,0.141-0.803,0.141
			c-0.4,0-0.742-0.077-1.023-0.233c-0.282-0.156-0.497-0.364-0.645-0.624l0.414-0.336c0.107,0.236,0.267,0.419,0.477,0.549
			s0.473,0.195,0.789,0.195c0.312,0,0.56-0.058,0.744-0.171c0.184-0.114,0.275-0.275,0.275-0.483c0-0.176-0.08-0.316-0.24-0.42
			c-0.16-0.104-0.443-0.192-0.852-0.264c-0.527-0.093-0.902-0.225-1.122-0.396s-0.33-0.412-0.33-0.72
			c0-0.212,0.06-0.408,0.181-0.588c0.119-0.181,0.291-0.323,0.516-0.43c0.224-0.105,0.484-0.158,0.779-0.158
			C80.111,42.84,80.621,43.119,80.934,43.68z"/>
		<path fill="#4C4E4F" d="M84.581,43.35h-1.38v3.51h-0.48v-3.51h-1.38v-0.45h3.24V43.35z"/>
		<path fill="#4C4E4F" d="M88.486,45.384c0,0.508-0.133,0.891-0.398,1.148s-0.65,0.387-1.154,0.387c-0.505,0-0.89-0.13-1.156-0.39
			c-0.266-0.26-0.398-0.642-0.398-1.146v-2.484h0.48v2.364c0,0.416,0.086,0.721,0.261,0.915c0.174,0.193,0.444,0.291,0.813,0.291
			c0.367,0,0.639-0.098,0.812-0.291c0.174-0.194,0.261-0.499,0.261-0.915v-2.364h0.479V45.384z"/>
		<path fill="#4C4E4F" d="M91.312,46.859h-0.546l-1.506-3.96h0.517l1.008,2.736l0.252,0.785l0.252-0.779l1.008-2.742h0.516
			L91.312,46.859z"/>
		<path fill="#4C4E4F" d="M94.961,46.859h-0.594l-1.17-3.96h0.516l0.954,3.582l0.937-3.582h0.545l0.937,3.594l0.96-3.594h0.486
			l-1.164,3.96h-0.594l-0.703-2.568l-0.203-0.894h-0.006l-0.205,0.894L94.961,46.859z"/>
		<path fill="#4C4E4F" d="M101.603,46.859l-1.073-1.638l-1.074,1.638h-0.559l1.387-2.016l-1.267-1.944h0.569l1.009,1.548
			l1.014-1.548h0.511l-1.278,1.92l1.319,2.04H101.603z"/>
		<path fill="#4C4E4F" d="M104.309,45.312v1.548h-0.48v-1.548l-1.416-2.412h0.57l1.086,1.92l1.086-1.92h0.57L104.309,45.312z"/>
		<path fill="#4C4E4F" d="M109.234,46.409v0.45h-3.113v-0.426l2.465-3.084h-2.405v-0.45h2.976v0.426l-2.466,3.084H109.234z"/>
	</g>
	<g enable-background="new    ">
		<path fill="#4C4E4F" d="M9.408,53.682l-0.03,0.378c-0.112,0.04-0.232,0.06-0.36,0.06c-0.156,0-0.279-0.033-0.369-0.102
			s-0.147-0.182-0.171-0.342c-0.092,0.14-0.227,0.249-0.405,0.327c-0.178,0.078-0.365,0.116-0.561,0.116
			c-0.296,0-0.54-0.068-0.732-0.207c-0.192-0.138-0.288-0.337-0.288-0.597c0-0.228,0.1-0.425,0.3-0.591
			c0.2-0.166,0.49-0.281,0.87-0.345l0.798-0.132v-0.169c0-0.199-0.062-0.359-0.186-0.479s-0.296-0.18-0.516-0.18
			c-0.2,0-0.373,0.048-0.519,0.144S6.98,51.802,6.9,51.989l-0.354-0.258c0.08-0.224,0.229-0.402,0.447-0.534
			C7.211,51.065,7.466,51,7.758,51c0.356,0,0.642,0.086,0.858,0.258C8.832,51.43,8.94,51.684,8.94,52.02v1.476
			c0,0.072,0.018,0.126,0.054,0.162c0.036,0.036,0.094,0.055,0.174,0.055S9.328,53.701,9.408,53.682z M8.187,53.52
			c0.182-0.12,0.273-0.276,0.273-0.468v-0.414l-0.672,0.126c-0.268,0.048-0.468,0.117-0.6,0.207
			c-0.132,0.09-0.198,0.205-0.198,0.345c0,0.124,0.048,0.219,0.144,0.285c0.096,0.066,0.23,0.099,0.402,0.099
			C7.788,53.699,8.005,53.64,8.187,53.52z"/>
		<path fill="#4C4E4F" d="M12.579,51.417c0.246,0.277,0.369,0.658,0.369,1.143s-0.123,0.865-0.369,1.143
			C12.333,53.98,12,54.119,11.58,54.119c-0.232,0-0.439-0.053-0.621-0.158c-0.182-0.106-0.317-0.247-0.405-0.424l-0.03,0.522h-0.42
			v-4.38h0.48v1.848c0.096-0.16,0.231-0.288,0.405-0.384C11.163,51.048,11.36,51,11.58,51C12,51,12.333,51.139,12.579,51.417z
			 M12.216,53.391c0.168-0.206,0.252-0.483,0.252-0.831s-0.084-0.625-0.252-0.831s-0.398-0.309-0.69-0.309
			c-0.288,0-0.517,0.1-0.687,0.3s-0.255,0.468-0.255,0.804v0.072c0,0.336,0.085,0.604,0.255,0.804s0.399,0.3,0.687,0.3
			C11.818,53.699,12.048,53.597,12.216,53.391z"/>
		<path fill="#4C4E4F" d="M15.909,51.207c0.206,0.138,0.367,0.335,0.483,0.591l-0.456,0.216c-0.128-0.396-0.394-0.594-0.798-0.594
			c-0.3,0-0.535,0.101-0.705,0.303s-0.255,0.48-0.255,0.837s0.085,0.635,0.255,0.837s0.405,0.303,0.705,0.303
			c0.232,0,0.419-0.053,0.561-0.158c0.142-0.106,0.235-0.26,0.279-0.459l0.444,0.155c-0.104,0.28-0.264,0.497-0.48,0.651
			c-0.216,0.154-0.48,0.23-0.792,0.23c-0.452,0-0.807-0.138-1.065-0.413c-0.258-0.276-0.387-0.658-0.387-1.146
			s0.129-0.87,0.387-1.146C14.343,51.138,14.698,51,15.15,51C15.45,51,15.703,51.068,15.909,51.207z"/>
		<path fill="#4C4E4F" d="M19.932,49.68v4.38h-0.42l-0.03-0.522c-0.088,0.177-0.223,0.317-0.405,0.424
			c-0.182,0.105-0.389,0.158-0.621,0.158c-0.42,0-0.753-0.139-0.999-0.417c-0.246-0.277-0.369-0.658-0.369-1.143
			s0.123-0.865,0.369-1.143C17.703,51.139,18.036,51,18.456,51c0.22,0,0.417,0.048,0.591,0.144c0.174,0.096,0.309,0.224,0.405,0.384
			V49.68H19.932z M19.197,53.399c0.17-0.2,0.255-0.468,0.255-0.804v-0.072c0-0.336-0.085-0.604-0.255-0.804s-0.399-0.3-0.687-0.3
			c-0.292,0-0.522,0.103-0.69,0.309s-0.252,0.483-0.252,0.831s0.084,0.625,0.252,0.831s0.398,0.309,0.69,0.309
			C18.798,53.699,19.027,53.6,19.197,53.399z"/>
		<path fill="#4C4E4F" d="M23.598,52.739h-2.262c0.028,0.305,0.129,0.54,0.303,0.708c0.174,0.168,0.399,0.252,0.675,0.252
			c0.22,0,0.403-0.038,0.549-0.113c0.146-0.076,0.245-0.187,0.297-0.33l0.402,0.21c-0.12,0.212-0.28,0.374-0.48,0.485
			c-0.2,0.112-0.456,0.168-0.768,0.168c-0.452,0-0.807-0.138-1.065-0.413c-0.258-0.276-0.387-0.658-0.387-1.146
			s0.123-0.87,0.369-1.146C21.477,51.138,21.826,51,22.278,51c0.28,0,0.522,0.062,0.726,0.186c0.204,0.124,0.358,0.292,0.462,0.504
			s0.156,0.45,0.156,0.714C23.622,52.516,23.614,52.628,23.598,52.739z M21.639,51.653c-0.162,0.156-0.261,0.376-0.297,0.66h1.818
			c-0.032-0.28-0.124-0.499-0.276-0.657c-0.152-0.157-0.354-0.236-0.606-0.236C22.014,51.42,21.801,51.498,21.639,51.653z"/>
		<path fill="#4C4E4F" d="M25.218,51.06h1.002v0.414h-1.002v2.586h-0.48v-2.586h-0.6V51.06h0.6v-0.504
			c0-0.276,0.084-0.496,0.252-0.66s0.412-0.246,0.732-0.246c0.108,0,0.207,0.012,0.297,0.036c0.09,0.024,0.161,0.058,0.213,0.102
			l-0.126,0.391c-0.096-0.061-0.21-0.09-0.342-0.09c-0.364,0-0.546,0.172-0.546,0.516V51.06z"/>
		<path fill="#4C4E4F" d="M29.142,53.867c0.16,0.129,0.24,0.303,0.24,0.522c0,0.192-0.066,0.361-0.198,0.507
			c-0.132,0.146-0.311,0.258-0.537,0.336s-0.475,0.117-0.747,0.117c-0.456,0-0.8-0.073-1.032-0.219
			c-0.232-0.146-0.348-0.337-0.348-0.573c0-0.136,0.047-0.256,0.141-0.36c0.094-0.104,0.223-0.178,0.387-0.222
			c-0.124-0.06-0.223-0.136-0.297-0.228c-0.074-0.093-0.111-0.2-0.111-0.324c0-0.148,0.04-0.271,0.12-0.369s0.19-0.171,0.33-0.219
			c-0.144-0.088-0.253-0.203-0.327-0.346c-0.074-0.142-0.111-0.301-0.111-0.477c0-0.196,0.052-0.371,0.156-0.525
			c0.104-0.153,0.25-0.273,0.438-0.359S27.646,51,27.882,51c0.224,0,0.428,0.04,0.612,0.119c0.112-0.407,0.394-0.611,0.846-0.611
			l0.108,0.42c-0.392,0-0.63,0.11-0.714,0.33c0.12,0.092,0.213,0.202,0.279,0.33s0.099,0.27,0.099,0.426
			c0,0.196-0.052,0.371-0.156,0.524c-0.104,0.154-0.25,0.274-0.438,0.36s-0.4,0.129-0.636,0.129c-0.176,0-0.33-0.018-0.462-0.054
			c-0.12,0.028-0.206,0.072-0.258,0.132c-0.052,0.061-0.078,0.143-0.078,0.246c0,0.104,0.036,0.184,0.108,0.24
			c0.072,0.056,0.168,0.084,0.288,0.084h0.996C28.76,53.676,28.981,53.739,29.142,53.867z M28.674,54.801
			c0.176-0.099,0.264-0.217,0.264-0.357c0-0.116-0.045-0.204-0.135-0.264c-0.09-0.061-0.243-0.09-0.459-0.09H27.54
			c-0.184,0-0.326,0.033-0.426,0.099c-0.1,0.066-0.15,0.157-0.15,0.273c0,0.151,0.084,0.271,0.252,0.356s0.414,0.129,0.738,0.129
			C28.258,54.947,28.498,54.898,28.674,54.801z M27.36,51.563c-0.14,0.116-0.21,0.267-0.21,0.45s0.07,0.334,0.21,0.45
			c0.14,0.116,0.314,0.174,0.522,0.174c0.208,0,0.382-0.058,0.522-0.174c0.14-0.116,0.21-0.267,0.21-0.45s-0.07-0.334-0.21-0.45
			c-0.14-0.116-0.314-0.174-0.522-0.174C27.674,51.39,27.5,51.447,27.36,51.563z"/>
		<path fill="#4C4E4F" d="M32.394,51.294c0.22,0.195,0.33,0.478,0.33,0.846v1.92h-0.48v-1.752c0-0.312-0.067-0.538-0.201-0.678
			c-0.134-0.141-0.313-0.21-0.537-0.21c-0.156,0-0.305,0.036-0.447,0.107c-0.142,0.072-0.258,0.188-0.348,0.346
			c-0.09,0.157-0.135,0.356-0.135,0.597v1.59h-0.48v-4.38h0.48v1.83c0.1-0.172,0.235-0.3,0.405-0.384S31.341,51,31.554,51
			C31.894,51,32.173,51.098,32.394,51.294z"/>
		<path fill="#4C4E4F" d="M33.789,50.385c-0.066-0.066-0.099-0.153-0.099-0.261c0-0.108,0.033-0.195,0.099-0.262
			c0.066-0.065,0.153-0.099,0.261-0.099s0.195,0.033,0.261,0.099c0.066,0.066,0.099,0.153,0.099,0.262
			c0,0.107-0.033,0.194-0.099,0.261c-0.066,0.065-0.153,0.099-0.261,0.099S33.854,50.45,33.789,50.385z M34.29,54.06h-0.48v-3h0.48
			V54.06z"/>
		<path fill="#4C4E4F" d="M35.886,54.365c0,0.34-0.091,0.589-0.273,0.747c-0.182,0.158-0.395,0.237-0.639,0.237
			c-0.12,0-0.232-0.018-0.336-0.054s-0.192-0.084-0.264-0.145l0.102-0.456c0.14,0.124,0.304,0.187,0.492,0.187
			c0.292,0,0.438-0.188,0.438-0.564V51.06h0.48V54.365z M35.901,49.868c0.07,0.07,0.105,0.155,0.105,0.256
			c0,0.1-0.035,0.185-0.105,0.255c-0.07,0.069-0.155,0.104-0.255,0.104s-0.185-0.035-0.255-0.104
			c-0.07-0.07-0.105-0.155-0.105-0.255c0-0.101,0.035-0.186,0.105-0.256c0.07-0.069,0.155-0.104,0.255-0.104
			S35.831,49.799,35.901,49.868z"/>
		<path fill="#4C4E4F" d="M38.117,52.577l-0.636,0.637v0.846h-0.48v-4.38h0.48v2.934l1.554-1.554h0.6l-1.17,1.17l1.242,1.83h-0.582
			L38.117,52.577z"/>
		<path fill="#4C4E4F" d="M40.859,53.256c0,0.151,0.023,0.257,0.069,0.314c0.046,0.059,0.131,0.087,0.255,0.087
			c0.084,0,0.157-0.006,0.219-0.018s0.135-0.034,0.219-0.066l-0.078,0.462c-0.132,0.057-0.28,0.084-0.444,0.084
			c-0.244,0-0.425-0.065-0.543-0.197s-0.177-0.334-0.177-0.606V49.68h0.48V53.256z"/>
		<path fill="#4C4E4F" d="M46.287,51.123c0.174,0.082,0.315,0.209,0.423,0.381c0.108,0.172,0.162,0.384,0.162,0.636v1.92h-0.48
			v-1.872c0-0.26-0.065-0.453-0.195-0.579c-0.13-0.126-0.301-0.188-0.513-0.188c-0.16,0-0.307,0.039-0.441,0.116
			c-0.134,0.078-0.242,0.192-0.324,0.343c-0.082,0.149-0.123,0.329-0.123,0.537v1.644h-0.48v-1.872c0-0.26-0.065-0.453-0.195-0.579
			s-0.301-0.188-0.513-0.188c-0.144,0-0.284,0.037-0.42,0.11c-0.136,0.074-0.248,0.189-0.336,0.346
			c-0.088,0.155-0.132,0.35-0.132,0.582v1.602h-0.48v-3h0.42l0.03,0.468c0.104-0.176,0.241-0.308,0.411-0.396S43.454,51,43.649,51
			c0.22,0,0.423,0.05,0.609,0.149c0.186,0.101,0.327,0.246,0.423,0.438c0.088-0.192,0.232-0.338,0.432-0.438
			c0.2-0.1,0.404-0.149,0.612-0.149C45.926,51,46.113,51.041,46.287,51.123z"/>
		<path fill="#4C4E4F" d="M50.255,51.294c0.22,0.195,0.33,0.478,0.33,0.846v1.92h-0.48v-1.752c0-0.312-0.067-0.538-0.201-0.678
			c-0.134-0.141-0.313-0.21-0.537-0.21c-0.16,0-0.31,0.035-0.45,0.104c-0.14,0.07-0.255,0.185-0.345,0.342
			c-0.09,0.158-0.135,0.357-0.135,0.598v1.596h-0.48v-3h0.42l0.03,0.468c0.1-0.18,0.238-0.312,0.414-0.398
			C48.998,51.043,49.195,51,49.416,51C49.755,51,50.035,51.098,50.255,51.294z"/>
		<path fill="#4C4E4F" d="M54.002,51.413c0.258,0.276,0.387,0.658,0.387,1.146s-0.129,0.87-0.387,1.146
			c-0.258,0.275-0.613,0.413-1.065,0.413c-0.452,0-0.807-0.138-1.065-0.413c-0.258-0.276-0.387-0.658-0.387-1.146
			s0.129-0.87,0.387-1.146C52.13,51.138,52.485,51,52.938,51C53.389,51,53.744,51.138,54.002,51.413z M52.223,51.72
			c-0.172,0.204-0.258,0.483-0.258,0.84s0.086,0.636,0.258,0.84s0.41,0.307,0.714,0.307c0.304,0,0.542-0.103,0.714-0.307
			s0.258-0.483,0.258-0.84s-0.086-0.636-0.258-0.84s-0.41-0.307-0.714-0.307C52.633,51.413,52.395,51.516,52.223,51.72z"/>
		<path fill="#4C4E4F" d="M57.794,51.417c0.246,0.277,0.369,0.658,0.369,1.143s-0.123,0.865-0.369,1.143
			c-0.246,0.278-0.579,0.417-0.999,0.417c-0.22,0-0.417-0.048-0.591-0.144c-0.174-0.096-0.309-0.224-0.405-0.384v1.728h-0.48v-4.26
			h0.42l0.03,0.522c0.088-0.177,0.223-0.317,0.405-0.424C56.356,51.053,56.563,51,56.795,51C57.215,51,57.548,51.139,57.794,51.417z
			 M57.431,53.391c0.168-0.206,0.252-0.483,0.252-0.831s-0.084-0.625-0.252-0.831s-0.398-0.309-0.69-0.309
			c-0.288,0-0.517,0.1-0.687,0.3s-0.255,0.468-0.255,0.804v0.072c0,0.336,0.085,0.604,0.255,0.804s0.399,0.3,0.687,0.3
			C57.033,53.699,57.263,53.597,57.431,53.391z"/>
		<path fill="#4C4E4F" d="M61.77,51.06v4.26h-0.48v-1.728c-0.096,0.16-0.23,0.288-0.405,0.384c-0.174,0.096-0.37,0.144-0.591,0.144
			c-0.42,0-0.753-0.139-0.999-0.417c-0.246-0.277-0.369-0.658-0.369-1.143s0.123-0.865,0.369-1.143
			C59.54,51.139,59.873,51,60.293,51c0.232,0,0.439,0.053,0.621,0.158c0.182,0.106,0.316,0.247,0.404,0.424l0.031-0.522H61.77z
			 M61.034,53.399c0.17-0.2,0.255-0.468,0.255-0.804v-0.072c0-0.336-0.085-0.604-0.255-0.804c-0.171-0.2-0.399-0.3-0.687-0.3
			c-0.292,0-0.522,0.103-0.69,0.309s-0.252,0.483-0.252,0.831s0.084,0.625,0.252,0.831s0.398,0.309,0.69,0.309
			C60.635,53.699,60.863,53.6,61.034,53.399z"/>
		<path fill="#4C4E4F" d="M64.631,51.06l-0.096,0.468c-0.096-0.052-0.223-0.078-0.378-0.078c-0.128,0-0.253,0.037-0.375,0.111
			s-0.222,0.186-0.3,0.336s-0.117,0.331-0.117,0.543v1.62h-0.48v-3h0.391l0.066,0.492C63.51,51.184,63.829,51,64.301,51
			C64.445,51,64.555,51.02,64.631,51.06z"/>
		<path fill="#4C4E4F" d="M65.447,53.948c-0.232-0.113-0.402-0.282-0.51-0.507l0.39-0.27c0.067,0.176,0.186,0.308,0.354,0.396
			c0.168,0.088,0.365,0.132,0.594,0.132c0.235,0,0.416-0.042,0.539-0.126c0.125-0.084,0.187-0.189,0.187-0.317
			c0-0.116-0.058-0.209-0.174-0.279s-0.32-0.131-0.612-0.183c-0.288-0.053-0.516-0.115-0.684-0.189s-0.291-0.168-0.366-0.282
			c-0.076-0.113-0.114-0.255-0.114-0.423c0-0.164,0.049-0.313,0.145-0.45c0.096-0.136,0.233-0.244,0.414-0.326
			C65.789,51.041,65.997,51,66.232,51c0.32,0,0.578,0.059,0.771,0.177s0.333,0.299,0.417,0.543l-0.408,0.24
			c-0.063-0.192-0.161-0.33-0.29-0.414c-0.131-0.084-0.294-0.126-0.49-0.126c-0.195,0-0.361,0.044-0.498,0.132
			c-0.135,0.088-0.203,0.189-0.203,0.306c0,0.132,0.059,0.234,0.177,0.306c0.118,0.072,0.329,0.135,0.633,0.187
			c0.416,0.068,0.71,0.17,0.882,0.306c0.172,0.137,0.258,0.328,0.258,0.576c0,0.172-0.051,0.325-0.152,0.459
			s-0.248,0.239-0.438,0.315c-0.191,0.075-0.412,0.113-0.664,0.113C65.939,54.119,65.679,54.062,65.447,53.948z"/>
		<path fill="#4C4E4F" d="M70.205,53.85c-0.2,0.18-0.458,0.27-0.773,0.27c-0.244,0-0.443-0.065-0.598-0.197
			s-0.232-0.334-0.236-0.606v-1.842h-0.601V51.06h0.601v-0.72l0.479-0.132v0.852h1.11v0.414h-1.11v1.758
			c0,0.145,0.041,0.253,0.123,0.327c0.081,0.074,0.19,0.111,0.327,0.111c0.191,0,0.361-0.074,0.51-0.223L70.205,53.85z"/>
		<path fill="#4C4E4F" d="M73.48,51.06v3h-0.42l-0.029-0.456c-0.2,0.344-0.559,0.516-1.074,0.516c-0.324,0-0.589-0.09-0.795-0.27
			s-0.309-0.456-0.309-0.828V51.06h0.479v1.836c0,0.292,0.06,0.499,0.181,0.621c0.119,0.122,0.295,0.183,0.527,0.183
			c0.276,0,0.505-0.084,0.688-0.252c0.182-0.168,0.272-0.42,0.272-0.756V51.06H73.48z"/>
		<path fill="#4C4E4F" d="M77.087,51.06l-1.248,3h-0.479l-1.248-3h0.546l0.948,2.514l0.978-2.514H77.087z"/>
		<path fill="#4C4E4F" d="M82.072,51.06l-1.043,3h-0.48l-0.846-2.388l-0.799,2.388h-0.479l-1.044-3h0.533l0.757,2.442l0.815-2.442
			h0.48l0.816,2.442l0.756-2.442H82.072z"/>
		<path fill="#4C4E4F" d="M84.707,54.06l-0.828-1.158l-0.852,1.158h-0.559l1.152-1.512l-1.08-1.488h0.6l0.793,1.11l0.779-1.11h0.564
			l-1.086,1.47l1.104,1.53H84.707z"/>
		<path fill="#4C4E4F" d="M87.191,54.563c-0.117,0.288-0.246,0.491-0.391,0.609c-0.145,0.117-0.33,0.177-0.559,0.177
			c-0.151,0-0.278-0.021-0.381-0.06c-0.102-0.04-0.195-0.104-0.279-0.192l0.168-0.408c0.117,0.16,0.279,0.24,0.486,0.24
			c0.116,0,0.219-0.035,0.31-0.105c0.09-0.069,0.169-0.196,0.237-0.381l0.155-0.39l-1.254-2.994h0.546l0.75,1.956l0.186,0.534
			l0.217-0.594l0.701-1.896h0.517L87.191,54.563z"/>
		<path fill="#4C4E4F" d="M89.045,53.693l1.572-1.842l0.377-0.39l-0.533,0.012h-1.398V51.06h2.467v0.366l-1.572,1.842l-0.373,0.39
			l0.582-0.012h1.41v0.414h-2.531V53.693z"/>
	</g>
	<g enable-background="new    ">
		<path fill="#4C4E4F" d="M6.918,60.798C6.666,60.45,6.54,59.943,6.54,59.279c0-0.663,0.126-1.17,0.378-1.518
			s0.618-0.521,1.098-0.521s0.846,0.174,1.098,0.521s0.378,0.854,0.378,1.518c0,0.664-0.126,1.171-0.378,1.519
			s-0.618,0.521-1.098,0.521S7.17,61.146,6.918,60.798z M8.742,60.477c0.168-0.273,0.252-0.673,0.252-1.197
			c0-0.523-0.084-0.923-0.252-1.196c-0.168-0.274-0.41-0.411-0.726-0.411c-0.316,0-0.558,0.137-0.726,0.411
			c-0.168,0.273-0.252,0.673-0.252,1.196c0,0.524,0.084,0.924,0.252,1.197c0.168,0.274,0.41,0.411,0.726,0.411
			C8.332,60.888,8.574,60.751,8.742,60.477z"/>
		<path fill="#4C4E4F" d="M11.724,57.3v3.96h-0.48v-2.904c0-0.084,0.004-0.237,0.012-0.462c-0.136,0.132-0.294,0.247-0.474,0.345
			c-0.18,0.099-0.364,0.17-0.552,0.214l-0.126-0.438c0.096-0.012,0.226-0.057,0.39-0.135s0.322-0.17,0.474-0.276
			c0.152-0.105,0.264-0.207,0.336-0.303H11.724z"/>
		<path fill="#4C4E4F" d="M12.78,60.87c0.548-0.404,0.968-0.737,1.26-0.999c0.292-0.263,0.501-0.5,0.627-0.714
			c0.126-0.215,0.189-0.439,0.189-0.676c0-0.235-0.076-0.427-0.228-0.572c-0.152-0.146-0.356-0.22-0.612-0.22
			c-0.268,0-0.485,0.088-0.651,0.265c-0.166,0.176-0.263,0.414-0.291,0.714l-0.42-0.252c0.052-0.356,0.197-0.642,0.435-0.855
			s0.553-0.32,0.945-0.32c0.264,0,0.497,0.052,0.699,0.155c0.202,0.104,0.357,0.25,0.465,0.438c0.108,0.188,0.162,0.404,0.162,0.647
			c0,0.257-0.061,0.502-0.183,0.738s-0.321,0.484-0.597,0.744c-0.276,0.26-0.648,0.546-1.116,0.857v0.007
			c0.264-0.013,0.462-0.019,0.594-0.019h1.386v0.45H12.78V60.87z"/>
		<path fill="#4C4E4F" d="M18.249,57.381c0.186,0.094,0.327,0.219,0.423,0.375c0.096,0.156,0.144,0.328,0.144,0.516
			c0,0.185-0.034,0.351-0.102,0.498c-0.068,0.148-0.159,0.266-0.273,0.352c-0.114,0.086-0.237,0.129-0.369,0.129v0.012
			c0.252,0,0.454,0.091,0.606,0.273c0.152,0.182,0.228,0.402,0.228,0.663c0,0.212-0.057,0.403-0.171,0.575
			c-0.114,0.172-0.277,0.307-0.489,0.402c-0.212,0.096-0.456,0.144-0.732,0.144c-0.66,0-1.116-0.315-1.368-0.947l0.444-0.234
			c0.08,0.244,0.191,0.427,0.333,0.549s0.351,0.184,0.627,0.184c0.268,0,0.478-0.067,0.63-0.201c0.152-0.134,0.228-0.307,0.228-0.52
			c0-0.243-0.073-0.415-0.219-0.513s-0.377-0.146-0.693-0.146H17.34v-0.45h0.156c0.548,0,0.822-0.225,0.822-0.672
			c0-0.225-0.063-0.394-0.189-0.508c-0.126-0.113-0.307-0.171-0.543-0.171c-0.232,0-0.417,0.054-0.555,0.159
			c-0.138,0.106-0.233,0.255-0.285,0.447l-0.45-0.21c0.096-0.26,0.259-0.466,0.489-0.618c0.23-0.152,0.495-0.228,0.795-0.228
			C17.84,57.24,18.063,57.287,18.249,57.381z"/>
		<path fill="#4C4E4F" d="M22.709,60.222h-0.702v1.038h-0.48v-1.038h-1.932v-0.354l1.806-2.568h0.606v2.508h0.702V60.222z
			 M20.105,59.808h1.422v-1.481l0.024-0.637H21.54c-0.1,0.204-0.232,0.425-0.396,0.66L20.105,59.808z"/>
		<path fill="#4C4E4F" d="M25.77,59.073c0.228,0.233,0.342,0.543,0.342,0.927c0,0.412-0.12,0.734-0.36,0.969
			c-0.24,0.234-0.572,0.351-0.996,0.351c-0.356,0-0.645-0.076-0.867-0.23c-0.222-0.154-0.393-0.379-0.513-0.675l0.468-0.246
			c0.068,0.231,0.169,0.407,0.303,0.524c0.134,0.118,0.331,0.178,0.591,0.178c0.272,0,0.486-0.074,0.642-0.223
			c0.156-0.147,0.234-0.352,0.234-0.611c0-0.28-0.072-0.494-0.216-0.643c-0.144-0.147-0.352-0.222-0.624-0.222
			c-0.412,0-0.706,0.128-0.882,0.384h-0.426l0.24-2.256h2.226v0.45h-1.818l-0.156,1.248l-0.006,0.054h0.006
			c0.212-0.22,0.514-0.33,0.906-0.33C25.239,58.722,25.542,58.839,25.77,59.073z"/>
		<path fill="#4C4E4F" d="M29.238,57.438c0.2,0.132,0.362,0.345,0.486,0.637l-0.444,0.21c-0.128-0.396-0.41-0.595-0.846-0.595
			c-0.208,0-0.393,0.074-0.555,0.223c-0.162,0.147-0.288,0.35-0.378,0.605c-0.09,0.256-0.135,0.54-0.135,0.853v0.107h0.024
			c0.06-0.235,0.196-0.416,0.408-0.54c0.212-0.124,0.438-0.186,0.678-0.186c0.404,0,0.727,0.116,0.969,0.348
			c0.242,0.232,0.363,0.544,0.363,0.937c0,0.392-0.123,0.704-0.369,0.936c-0.246,0.232-0.577,0.348-0.993,0.348
			c-0.324,0-0.601-0.087-0.831-0.261s-0.404-0.414-0.522-0.72c-0.118-0.306-0.177-0.659-0.177-1.06c0-0.432,0.067-0.801,0.201-1.106
			s0.318-0.538,0.552-0.696c0.234-0.158,0.499-0.236,0.795-0.236C28.78,57.24,29.038,57.306,29.238,57.438z M27.816,59.441
			c-0.16,0.152-0.24,0.349-0.24,0.588c0,0.248,0.079,0.448,0.237,0.601c0.158,0.152,0.367,0.228,0.627,0.228
			c0.272,0,0.484-0.072,0.636-0.219c0.152-0.146,0.228-0.349,0.228-0.609c0-0.252-0.076-0.45-0.228-0.597
			c-0.152-0.146-0.364-0.219-0.636-0.219C28.184,59.214,27.976,59.29,27.816,59.441z"/>
		<path fill="#4C4E4F" d="M33.293,57.3v0.45c-0.492,0.516-0.851,1.06-1.077,1.632s-0.339,1.198-0.339,1.878h-0.492
			c0-0.648,0.117-1.271,0.351-1.869c0.234-0.598,0.579-1.145,1.035-1.641h-2.394V57.3H33.293z"/>
		<path fill="#4C4E4F" d="M36.15,57.524c0.228,0.187,0.342,0.439,0.342,0.76c0,0.203-0.049,0.383-0.147,0.536
			c-0.098,0.154-0.235,0.271-0.411,0.352v0.006c0.232,0.088,0.413,0.218,0.543,0.39c0.13,0.173,0.195,0.381,0.195,0.624
			c0,0.229-0.059,0.428-0.177,0.598c-0.118,0.17-0.286,0.301-0.504,0.393c-0.218,0.092-0.471,0.138-0.759,0.138
			s-0.54-0.046-0.756-0.138c-0.216-0.092-0.384-0.223-0.504-0.393s-0.18-0.369-0.18-0.598c0-0.239,0.065-0.447,0.195-0.624
			c0.13-0.176,0.313-0.306,0.549-0.39v-0.006c-0.176-0.076-0.314-0.192-0.414-0.348c-0.1-0.156-0.15-0.337-0.15-0.54
			c0-0.32,0.114-0.573,0.342-0.76c0.228-0.186,0.534-0.278,0.918-0.278C35.616,57.246,35.922,57.339,36.15,57.524z M35.922,60.675
			c0.168-0.13,0.252-0.307,0.252-0.531c0-0.228-0.085-0.407-0.255-0.537c-0.17-0.13-0.399-0.194-0.687-0.194
			c-0.284,0-0.512,0.065-0.684,0.197c-0.172,0.133-0.258,0.311-0.258,0.534c0,0.225,0.085,0.401,0.255,0.531
			c0.17,0.13,0.399,0.195,0.687,0.195C35.524,60.87,35.754,60.805,35.922,60.675z M34.674,57.863
			c-0.136,0.112-0.204,0.269-0.204,0.469c0,0.191,0.07,0.345,0.21,0.459c0.14,0.113,0.324,0.171,0.552,0.171
			s0.412-0.058,0.552-0.171c0.14-0.114,0.21-0.268,0.21-0.459c0-0.2-0.068-0.356-0.204-0.469c-0.136-0.111-0.322-0.168-0.558-0.168
			C34.996,57.695,34.81,57.752,34.674,57.863z"/>
		<path fill="#4C4E4F" d="M39.692,57.498c0.23,0.172,0.404,0.411,0.522,0.717c0.118,0.306,0.177,0.661,0.177,1.064
			c0,0.664-0.13,1.171-0.39,1.519c-0.26,0.348-0.638,0.521-1.134,0.521c-0.356,0-0.645-0.073-0.867-0.222
			c-0.222-0.147-0.391-0.372-0.507-0.672l0.474-0.252c0.072,0.236,0.171,0.411,0.297,0.525c0.126,0.113,0.325,0.171,0.597,0.171
			c0.396,0,0.677-0.15,0.843-0.45s0.249-0.734,0.249-1.302v-0.055H39.93c-0.056,0.265-0.189,0.454-0.399,0.57
			s-0.445,0.174-0.705,0.174c-0.4,0-0.721-0.116-0.963-0.348c-0.242-0.232-0.363-0.544-0.363-0.937c0-0.392,0.123-0.704,0.369-0.936
			c0.246-0.232,0.577-0.348,0.993-0.348C39.186,57.24,39.462,57.326,39.692,57.498z M38.231,57.921
			c-0.152,0.146-0.228,0.349-0.228,0.608c0,0.253,0.076,0.451,0.228,0.598c0.152,0.146,0.364,0.219,0.636,0.219
			c0.256,0,0.464-0.076,0.624-0.228c0.16-0.152,0.24-0.349,0.24-0.589c0-0.247-0.079-0.447-0.237-0.6
			c-0.158-0.152-0.367-0.228-0.627-0.228C38.596,57.702,38.384,57.774,38.231,57.921z"/>
	</g>
</g>
<g id="Work_Sans_x0D_Medium">
	<g enable-background="new    ">
		<path fill="#4C4E4F" d="M13.917,7.593h-3.22v8.19h-1.12v-8.19h-3.22v-1.05h7.56V7.593z"/>
		<path fill="#4C4E4F" d="M20.078,12.703H14.8c0.065,0.71,0.301,1.26,0.707,1.652c0.406,0.392,0.931,0.588,1.575,0.588
			c0.513,0,0.94-0.089,1.281-0.267c0.34-0.177,0.571-0.434,0.693-0.77l0.938,0.49c-0.28,0.494-0.653,0.872-1.12,1.134
			c-0.467,0.261-1.064,0.392-1.792,0.392c-1.055,0-1.883-0.321-2.485-0.966c-0.602-0.644-0.903-1.535-0.903-2.674
			s0.287-2.03,0.861-2.674c0.574-0.645,1.388-0.966,2.443-0.966c0.653,0,1.218,0.145,1.694,0.434
			c0.476,0.289,0.835,0.682,1.078,1.176c0.243,0.495,0.364,1.05,0.364,1.666C20.134,12.181,20.115,12.442,20.078,12.703z
			 M15.507,10.169c-0.378,0.364-0.609,0.878-0.693,1.54h4.242c-0.075-0.653-0.29-1.164-0.644-1.533
			c-0.355-0.368-0.826-0.553-1.414-0.553C16.382,9.623,15.885,9.806,15.507,10.169z"/>
		<path fill="#4C4E4F" d="M27.358,15.783l-2.506-3.822l-2.506,3.822h-1.302l3.234-4.704l-2.954-4.536h1.33l2.352,3.612l2.366-3.612
			h1.19l-2.982,4.48l3.08,4.76H27.358z"/>
		<path fill="#4C4E4F" d="M34.414,15.293c-0.467,0.42-1.069,0.63-1.806,0.63c-0.569,0-1.034-0.153-1.393-0.462
			c-0.359-0.308-0.544-0.779-0.553-1.414V9.749h-1.4V8.783h1.4v-1.68l1.12-0.309v1.988h2.59v0.966h-2.59v4.103
			c0,0.336,0.096,0.59,0.287,0.763c0.191,0.173,0.445,0.259,0.763,0.259c0.448,0,0.845-0.173,1.19-0.518L34.414,15.293z"/>
		<path fill="#4C4E4F" d="M48.497,11.121v4.662h-0.84l-0.042-1.246c-0.271,0.448-0.651,0.791-1.141,1.029
			c-0.49,0.238-1.08,0.356-1.771,0.356c-0.868,0-1.624-0.193-2.268-0.581c-0.644-0.387-1.141-0.938-1.491-1.651
			s-0.525-1.557-0.525-2.527c0-0.961,0.18-1.801,0.539-2.52c0.359-0.719,0.863-1.271,1.512-1.659
			c0.648-0.388,1.402-0.581,2.261-0.581c0.915,0,1.668,0.173,2.261,0.518c0.593,0.346,1.071,0.878,1.435,1.597l-1.022,0.56
			c-0.206-0.522-0.539-0.924-1.001-1.204s-1.02-0.42-1.673-0.42c-0.625,0-1.174,0.149-1.645,0.448
			c-0.472,0.299-0.838,0.726-1.099,1.281c-0.261,0.555-0.392,1.216-0.392,1.98c0,1.176,0.271,2.089,0.812,2.737
			c0.541,0.648,1.321,0.973,2.338,0.973c0.803,0,1.458-0.205,1.967-0.616c0.508-0.41,0.763-0.998,0.763-1.764v-0.322h-2.94v-1.05
			H48.497z"/>
		<path fill="#4C4E4F" d="M53.468,16.959c-0.271,0.672-0.574,1.146-0.91,1.421c-0.336,0.275-0.77,0.413-1.302,0.413
			c-0.355,0-0.651-0.047-0.889-0.14c-0.238-0.094-0.455-0.243-0.651-0.448l0.392-0.952c0.271,0.373,0.648,0.561,1.134,0.561
			c0.271,0,0.511-0.082,0.721-0.245s0.394-0.46,0.553-0.889l0.364-0.91l-2.926-6.986h1.274l1.75,4.564l0.434,1.245l0.504-1.386
			l1.638-4.424h1.204L53.468,16.959z"/>
		<path fill="#4C4E4F" d="M62.371,8.783l-0.224,1.092c-0.224-0.121-0.519-0.182-0.882-0.182c-0.299,0-0.59,0.086-0.875,0.259
			c-0.285,0.173-0.518,0.434-0.7,0.784c-0.182,0.35-0.273,0.772-0.273,1.267v3.78h-1.12v-7h0.91l0.154,1.148
			c0.392-0.859,1.138-1.288,2.24-1.288C61.938,8.644,62.194,8.69,62.371,8.783z"/>
		<path fill="#4C4E4F" d="M69.735,12.703h-5.278c0.065,0.71,0.301,1.26,0.707,1.652c0.406,0.392,0.932,0.588,1.575,0.588
			c0.513,0,0.94-0.089,1.281-0.267c0.341-0.177,0.571-0.434,0.692-0.77l0.938,0.49c-0.28,0.494-0.653,0.872-1.12,1.134
			c-0.467,0.261-1.064,0.392-1.792,0.392c-1.055,0-1.883-0.321-2.485-0.966c-0.602-0.644-0.902-1.535-0.902-2.674
			s0.287-2.03,0.861-2.674c0.574-0.645,1.388-0.966,2.442-0.966c0.653,0,1.218,0.145,1.694,0.434
			c0.476,0.289,0.835,0.682,1.078,1.176c0.242,0.495,0.363,1.05,0.363,1.666C69.791,12.181,69.772,12.442,69.735,12.703z
			 M65.164,10.169c-0.377,0.364-0.609,0.878-0.693,1.54h4.242c-0.074-0.653-0.289-1.164-0.644-1.533
			c-0.354-0.368-0.826-0.553-1.414-0.553C66.039,9.623,65.543,9.806,65.164,10.169z"/>
	</g>
	<g enable-background="new    ">
		<path fill="#4C4E4F" d="M12.616,30.021H8.43l-0.98,2.562H6.273l3.598-9.24h1.33l3.584,9.24h-1.19L12.616,30.021z M12.209,28.971
			l-1.246-3.275l-0.434-1.288h-0.028l-0.406,1.246l-1.26,3.317H12.209z"/>
		<path fill="#4C4E4F" d="M22.542,22.363v10.22h-0.98l-0.07-1.218c-0.205,0.41-0.52,0.739-0.945,0.986
			c-0.425,0.248-0.908,0.371-1.449,0.371c-0.98,0-1.757-0.324-2.331-0.973c-0.574-0.648-0.861-1.537-0.861-2.667
			c0-1.129,0.287-2.019,0.861-2.667c0.574-0.648,1.351-0.973,2.331-0.973c0.513,0,0.973,0.111,1.379,0.336
			c0.406,0.224,0.721,0.522,0.945,0.896v-4.312H22.542z M20.827,31.043c0.396-0.467,0.595-1.092,0.595-1.876v-0.168
			c0-0.784-0.198-1.409-0.595-1.876c-0.397-0.467-0.931-0.7-1.603-0.7c-0.682,0-1.218,0.24-1.61,0.721
			c-0.392,0.481-0.588,1.128-0.588,1.939s0.196,1.458,0.588,1.939c0.392,0.48,0.929,0.721,1.61,0.721
			C19.896,31.743,20.43,31.51,20.827,31.043z"/>
		<path fill="#4C4E4F" d="M30.956,25.583l-2.912,7h-1.12l-2.912-7h1.274l2.212,5.866l2.282-5.866H30.956z"/>
		<path fill="#4C4E4F" d="M38.375,29.503h-5.278c0.065,0.71,0.301,1.26,0.707,1.652c0.406,0.392,0.931,0.588,1.575,0.588
			c0.513,0,0.94-0.089,1.281-0.267c0.34-0.177,0.571-0.434,0.693-0.77l0.938,0.49c-0.28,0.494-0.653,0.872-1.12,1.134
			c-0.467,0.261-1.064,0.392-1.792,0.392c-1.055,0-1.883-0.321-2.485-0.966c-0.602-0.644-0.903-1.535-0.903-2.674
			s0.287-2.03,0.861-2.674c0.574-0.645,1.388-0.966,2.443-0.966c0.653,0,1.218,0.145,1.694,0.434
			c0.476,0.289,0.835,0.682,1.078,1.176c0.243,0.495,0.364,1.05,0.364,1.666C38.432,28.98,38.413,29.242,38.375,29.503z
			 M33.805,26.969c-0.378,0.364-0.609,0.878-0.693,1.54h4.242c-0.075-0.653-0.29-1.164-0.644-1.533
			c-0.355-0.368-0.826-0.553-1.414-0.553C34.68,26.423,34.183,26.605,33.805,26.969z"/>
		<path fill="#4C4E4F" d="M45.921,26.129c0.513,0.457,0.77,1.115,0.77,1.974v4.48h-1.12v-4.088c0-0.729-0.156-1.255-0.469-1.582
			c-0.313-0.327-0.73-0.49-1.253-0.49c-0.373,0-0.723,0.082-1.05,0.245s-0.595,0.43-0.805,0.798
			c-0.21,0.369-0.315,0.833-0.315,1.394v3.724h-1.12v-7h0.98l0.07,1.092c0.233-0.42,0.555-0.73,0.966-0.931
			c0.411-0.201,0.873-0.301,1.386-0.301C44.754,25.443,45.408,25.672,45.921,26.129z"/>
		<path fill="#4C4E4F" d="M53.411,32.093c-0.467,0.42-1.069,0.63-1.806,0.63c-0.569,0-1.034-0.153-1.393-0.462
			c-0.359-0.308-0.544-0.779-0.553-1.414v-4.298h-1.4v-0.966h1.4v-1.68l1.12-0.309v1.988h2.59v0.966h-2.59v4.103
			c0,0.336,0.096,0.59,0.287,0.763c0.191,0.173,0.445,0.259,0.763,0.259c0.448,0,0.845-0.173,1.19-0.518L53.411,32.093z"/>
		<path fill="#4C4E4F" d="M60.432,26.409c0.601,0.644,0.903,1.535,0.903,2.674s-0.302,2.03-0.903,2.674
			c-0.602,0.645-1.431,0.966-2.485,0.966s-1.883-0.321-2.485-0.966c-0.602-0.644-0.903-1.535-0.903-2.674s0.301-2.03,0.903-2.674
			c0.602-0.645,1.43-0.966,2.485-0.966S59.83,25.765,60.432,26.409z M56.281,27.123c-0.401,0.476-0.602,1.129-0.602,1.96
			s0.201,1.484,0.602,1.96s0.957,0.714,1.666,0.714s1.265-0.238,1.666-0.714s0.602-1.129,0.602-1.96s-0.201-1.484-0.602-1.96
			s-0.957-0.714-1.666-0.714S56.682,26.647,56.281,27.123z"/>
		<path fill="#4C4E4F" d="M67.579,25.583l-0.224,1.092c-0.225-0.121-0.519-0.182-0.883-0.182c-0.299,0-0.59,0.086-0.875,0.259
			c-0.284,0.173-0.518,0.434-0.699,0.784c-0.182,0.35-0.273,0.772-0.273,1.267v3.78h-1.12v-7h0.91l0.154,1.148
			c0.392-0.859,1.138-1.288,2.239-1.288C67.145,25.443,67.402,25.49,67.579,25.583z"/>
	</g>
</g>
<g id="Group_1_1_">
	<g id="Shape_1">
		<g>
			<rect x="3.473" y="72.918" fill="#0F84F3" width="28.567" height="28.566"/>
		</g>
	</g>
	<g id="Shape_1_copy">
		<g>
			<rect x="31.176" y="72.918" fill="#FDA63A" width="28.567" height="28.566"/>
		</g>
	</g>
	<g id="Shape_1_copy_2">
		<g>
			<rect x="59.531" y="72.918" fill="#48B3FF" width="28.567" height="28.566"/>
		</g>
	</g>
	<g id="Shape_1_copy_3">
		<g>
			<rect x="87.959" y="72.918" fill="#FF7D7D" width="28.566" height="28.566"/>
		</g>
	</g>
</g>
</svg>
