<?xml version="1.0" encoding="utf-8"?>
<!-- Generator: Adobe Illustrator 22.0.1, SVG Export Plug-In . SVG Version: 6.00 Build 0)  -->
<svg version="1.1" id="Layer_1" xmlns="http://www.w3.org/2000/svg" xmlns:xlink="http://www.w3.org/1999/xlink" x="0px" y="0px"
	 viewBox="0 0 48 48" style="enable-background:new 0 0 48 48;" xml:space="preserve">
<style type="text/css">
	.st0{fill:#FFFFFF;}
</style>
<path class="st0" d="M19.3,25.4c-0.4-0.2-1-0.3-1.8-0.3h-3.9V30h3.9c0.8,0,1.4-0.1,1.9-0.3c0.8-0.4,1.2-1.2,1.2-2.3
	C20.4,26.4,20,25.8,19.3,25.4z"/>
<path class="st0" d="M32.2,21.9c-0.9,0-1.6,0.3-2.1,0.8c-0.5,0.5-0.8,1.2-0.9,2h5.9v0c-0.1-0.9-0.4-1.6-0.9-2.1
	C33.7,22.2,33,21.9,32.2,21.9z"/>
<path class="st0" d="M19.3,21.6c0.5-0.3,0.7-0.8,0.7-1.6c0-0.9-0.3-1.4-1-1.7c-0.6-0.2-1.3-0.3-2.2-0.3h-3.4v4.1h3.9
	C18.2,22.1,18.8,21.9,19.3,21.6z"/>
<path class="st0" d="M24,0C10.7,0,0,10.7,0,24s10.7,24,24,24s24-10.7,24-24S37.3,0,24,0z M28.5,15.6h7.4v1.8h0h-7.4V15.6z
	 M23.5,30.6c-0.3,0.6-0.8,1.1-1.3,1.4c-0.6,0.4-1.3,0.8-2.1,0.9c-0.8,0.2-1.7,0.2-2.6,0.2H9.2V14.8h8.9c2.2,0,3.8,0.7,4.8,2
	c0.6,0.8,0.8,1.7,0.8,2.8c0,1.1-0.3,2-0.8,2.7c-0.3,0.4-0.8,0.7-1.4,1c0.9,0.3,1.6,0.9,2.1,1.6c0.5,0.7,0.7,1.6,0.7,2.7
	C24.3,28.7,24,29.7,23.5,30.6z M38.8,27h-9.6c0.1,1.3,0.5,2.2,1.4,2.8c0.5,0.3,1.2,0.5,1.9,0.5c0.8,0,1.4-0.2,1.9-0.6
	c0.3-0.2,0.5-0.5,0.7-0.9h3.5c-0.1,0.8-0.5,1.6-1.3,2.4c-1.2,1.3-2.8,1.9-4.9,1.9c-1.8,0-3.3-0.5-4.6-1.6c-1.3-1.1-2-2.8-2-5.3
	c0-2.3,0.6-4,1.8-5.2c1.2-1.2,2.8-1.8,4.7-1.8c1.1,0,2.2,0.2,3.1,0.6c0.9,0.4,1.7,1.1,2.3,1.9c0.5,0.8,0.9,1.7,1,2.7
	C38.7,25,38.8,25.9,38.8,27z"/>
</svg>
