<?xml version="1.0" encoding="UTF-8"?>
<svg width="48px" height="48px" viewBox="0 0 48 48" version="1.1" xmlns="http://www.w3.org/2000/svg" xmlns:xlink="http://www.w3.org/1999/xlink">
    <!-- Generator: Sketch 54.1 (76490) - https://sketchapp.com -->
    <title>emailround</title>
    <desc>Created with Sketch.</desc>
    <g id="Page-1" stroke="none" stroke-width="1" fill="none" fill-rule="evenodd">
        <g id="emailround">
            <rect id="Rectangle" fill="#222328" x="13" y="15" width="22" height="18"></rect>
            <path d="M36.4,16.8 C36.4,15.8 35.6,14.9 34.5,14.9 L13.4,14.9 C12.4,14.9 11.5,15.7 11.5,16.8 L11.5,31.3 C11.5,32.3 12.3,33.2 13.4,33.2 L34.6,33.2 C35.6,33.2 36.5,32.4 36.5,31.3 L36.5,31.3 L36.5,16.8 L36.4,16.8 Z M34.6,31.5 C34.4,31.7 34.2,31.7 34,31.7 C33.8,31.7 33.6,31.6 33.5,31.5 L26.5,24.9 L24.5,26.7 C24.4,26.8 24.2,26.9 24,26.9 C23.8,26.9 23.6,26.8 23.5,26.7 L21.6,25 L14.6,31.6 C14.4,31.7 14.3,31.8 14.1,31.8 C13.9,31.8 13.7,31.7 13.5,31.6 C13.2,31.3 13.2,30.8 13.5,30.5 L20.4,24 L13.5,17.8 C13.2,17.5 13.1,17 13.4,16.7 C13.7,16.4 14.2,16.3 14.5,16.6 L22,23.3 C22,23.3 22.1,23.4 22.1,23.4 C22.1,23.4 22.1,23.4 22.1,23.4 L24,25 L33.4,16.5 C33.7,16.2 34.2,16.2 34.5,16.6 C34.8,16.9 34.8,17.4 34.4,17.7 L27.5,23.8 L34.4,30.3 C34.9,30.6 34.9,31.1 34.6,31.5 Z" id="Shape" fill="#FFFFFF" fill-rule="nonzero"></path>
            <path d="M24,0 C10.7,0 0,10.7 0,24 C0,37.3 10.7,48 24,48 C37.3,48 48,37.3 48,24 C48,10.7 37.3,0 24,0 Z M38,31.2 C38,33.1 36.5,34.6 34.6,34.6 L13.4,34.6 C11.5,34.6 10,33.1 10,31.2 L10,16.8 C10,14.9 11.5,13.4 13.4,13.4 L34.6,13.4 C36.5,13.4 38,14.9 38,16.8 L38,31.2 Z" id="Shape" fill="#222328" fill-rule="nonzero"></path>
        </g>
    </g>
</svg>