<?xml version="1.0" encoding="utf-8"?>
<!-- Generator: Adobe Illustrator 22.0.1, SVG Export Plug-In . SVG Version: 6.00 Build 0)  -->
<svg version="1.1" id="Layer_1" xmlns="http://www.w3.org/2000/svg" xmlns:xlink="http://www.w3.org/1999/xlink" x="0px" y="0px"
	 viewBox="0 0 48 48" style="enable-background:new 0 0 48 48;" xml:space="preserve">
<style type="text/css">
	.st0{fill:#FFFFFF;}
</style>
<path class="st0" d="M36.4,16.8c0-1-0.8-1.9-1.9-1.9H13.4c-1,0-1.9,0.8-1.9,1.9v14.5c0,1,0.8,1.9,1.9,1.9h21.2c1,0,1.9-0.8,1.9-1.9
	h0V16.8z M34.6,31.5c-0.2,0.2-0.4,0.2-0.6,0.2c-0.2,0-0.4-0.1-0.5-0.2l-7-6.6l-2,1.8c-0.1,0.1-0.3,0.2-0.5,0.2
	c-0.2,0-0.4-0.1-0.5-0.2l-1.9-1.7l-7,6.6c-0.2,0.1-0.3,0.2-0.5,0.2c-0.2,0-0.4-0.1-0.6-0.2c-0.3-0.3-0.3-0.8,0-1.1l6.9-6.5l-6.9-6.2
	c-0.3-0.3-0.4-0.8-0.1-1.1c0.3-0.3,0.8-0.4,1.1-0.1l7.5,6.7c0,0,0.1,0.1,0.1,0.1c0,0,0,0,0,0L24,25l9.4-8.5c0.3-0.3,0.8-0.3,1.1,0.1
	c0.3,0.3,0.3,0.8-0.1,1.1l-6.9,6.1l6.9,6.5C34.9,30.6,34.9,31.1,34.6,31.5z"/>
<path class="st0" d="M24,0C10.7,0,0,10.7,0,24s10.7,24,24,24s24-10.7,24-24S37.3,0,24,0z M38,31.2c0,1.9-1.5,3.4-3.4,3.4H13.4
	c-1.9,0-3.4-1.5-3.4-3.4V16.8c0-1.9,1.5-3.4,3.4-3.4h21.2c1.9,0,3.4,1.5,3.4,3.4V31.2z"/>
</svg>
