<?xml version="1.0" encoding="UTF-8"?>
<svg width="68px" height="68px" viewBox="0 0 68 68" version="1.1" xmlns="http://www.w3.org/2000/svg" xmlns:xlink="http://www.w3.org/1999/xlink">
    <!-- Generator: Sketch 43.2 (39069) - http://www.bohemiancoding.com/sketch -->
    <title>instagram</title>
    <desc>Created with Sketch.</desc>
    <defs></defs>
    <g id="Page-1" stroke="none" stroke-width="1" fill="none" fill-rule="evenodd">
        <g id="instagram" transform="translate(-22.000000, -23.000000)" fill-rule="nonzero" fill="#FFFFFF">
            <path d="M79.124,23.506 L33.074,23.506 C27.244,23.506 22.514,28.236 22.514,34.076 L22.514,80.126 C22.514,85.956 27.244,90.686 33.074,90.686 L79.124,90.686 C84.954,90.686 89.684,85.956 89.684,80.126 L89.684,34.076 C89.684,28.236 84.954,23.506 79.124,23.506 Z M71.983,31.276 L80.423,31.256 L80.443,31.256 C81.253,31.246 81.913,31.906 81.913,32.706 L81.913,41.176 C81.913,41.986 81.263,42.636 80.453,42.636 L72.023,42.666 C71.213,42.666 70.563,42.016 70.563,41.216 L70.533,32.746 C70.523,31.936 71.173,31.286 71.983,31.276 Z M45.804,51.326 C46.024,50.946 46.254,50.566 46.514,50.206 C48.664,47.226 52.154,45.276 56.094,45.276 C60.044,45.276 63.534,47.226 65.684,50.206 C65.944,50.566 66.174,50.946 66.394,51.336 C67.354,53.036 67.924,55.006 67.924,57.096 C67.924,63.616 62.614,68.916 56.094,68.916 C49.574,68.916 44.274,63.616 44.274,57.096 C44.273,55.006 44.834,53.036 45.804,51.326 Z M83.144,77.706 C83.144,81.256 80.254,84.146 76.704,84.146 L35.494,84.146 C31.944,84.146 29.054,81.256 29.054,77.706 L29.054,50.206 L39.084,50.206 C38.834,50.816 38.614,51.456 38.434,52.096 C37.974,53.686 37.734,55.366 37.734,57.096 C37.734,67.226 45.974,75.466 56.094,75.466 C66.224,75.466 74.464,67.226 74.464,57.096 C74.464,55.366 74.214,53.686 73.764,52.096 C73.574,51.456 73.364,50.816 73.114,50.206 L83.144,50.206 L83.144,77.706 L83.144,77.706 Z" id="Shape"></path>
        </g>
    </g>
</svg>