<?xml version="1.0" encoding="UTF-8"?>
<svg width="48px" height="48px" viewBox="0 0 48 48" version="1.1" xmlns="http://www.w3.org/2000/svg" xmlns:xlink="http://www.w3.org/1999/xlink">
    <!-- Generator: Sketch 54.1 (76490) - https://sketchapp.com -->
    <title>linkedinround</title>
    <desc>Created with Sketch.</desc>
    <g id="Page-1" stroke="none" stroke-width="1" fill="none" fill-rule="evenodd">
        <g id="linkedinround" fill="#222328" fill-rule="nonzero">
            <path d="M24,0 C10.7,0 0,10.7 0,24 C0,37.3 10.7,48 24,48 C37.3,48 48,37.3 48,24 C48,10.7 37.3,0 24,0 Z M17.4,34.9 L12.8,34.9 L12.8,20.1 L17.4,20.1 L17.4,34.9 Z M14.9,18.2 C13.2,18.2 12.1,17.1 12.1,15.6 C12.1,14.1 13.2,13 14.9,13 C16.6,13 17.7,14.1 17.7,15.6 C17.7,17.1 16.7,18.2 14.9,18.2 Z M35.9,34.9 L30.6,34.9 L30.6,27.2 C30.6,25.2 29.8,23.8 28,23.8 C26.6,23.8 25.9,24.7 25.5,25.6 C25.4,25.9 25.4,26.4 25.4,26.8 L25.4,34.8 L20.2,34.8 C20.2,34.8 20.3,21.2 20.2,20 L25.4,20 L25.4,22.3 C25.7,21.3 27.4,19.8 30,19.8 C33.3,19.8 35.9,21.9 35.9,26.5 L35.9,34.9 L35.9,34.9 Z" id="Shape"></path>
        </g>
    </g>
</svg>