<svg width="287" height="65" viewBox="0 0 287 65" fill="none" xmlns="http://www.w3.org/2000/svg">
<mask id="mask0_1840_32531" style="mask-type:luminance" maskUnits="userSpaceOnUse" x="0" y="0" width="96" height="65">
<path d="M95.0197 0H0V64.9048H95.0197V0Z" fill="white"/>
</mask>
<g mask="url(#mask0_1840_32531)">
<path d="M79.4061 32.9389C79.8686 29.1299 79.7901 25.2258 79.1294 21.3382L77.9649 14.5029L71.6715 15.8318C67.8476 16.6392 64.2632 18.1752 61.034 20.3073C59.1798 14.1758 55.8391 8.55764 51.1934 3.89586L47.3075 0L43.7231 3.59363C39.0114 8.31752 35.6458 14.0268 33.8082 20.2576C30.5996 18.1503 27.0399 16.635 23.2449 15.8318L16.9516 14.5029L15.7871 21.3382C15.1263 25.2217 15.0479 29.1258 15.5063 32.9306L0 35.9446V37.2943C0 52.5217 12.3555 64.9089 27.5437 64.9089H67.476C82.6643 64.9089 95.0197 52.5217 95.0197 37.2943V35.9446L79.4102 32.943L79.4061 32.9389ZM59.4276 61.6382C65.3286 58.9596 70.3914 54.4261 74.0501 48.4436C76.3668 44.6554 77.9814 40.4987 78.8775 36.164L91.7202 38.6315C91.0224 51.4328 80.4137 61.6341 67.4718 61.6341H59.4276V61.6382ZM27.5437 61.6382C14.6019 61.6382 3.99322 51.4369 3.29534 38.6315L16.0348 36.1599C16.9309 40.4946 18.5456 44.6554 20.8622 48.4436C24.521 54.4261 29.5878 58.9596 35.4848 61.6382H27.5396H27.5437ZM18.9998 21.8889L19.5945 18.3987L22.5718 19.028C26.3421 19.8229 29.8521 21.4169 32.9699 23.6443C32.4578 26.2029 32.1936 28.8277 32.1936 31.494C32.1936 32.3427 32.2225 33.1873 32.2761 34.0236C32.3133 34.6363 32.367 35.2449 32.4331 35.8494C32.5033 36.4869 32.5859 37.1204 32.685 37.7538C33.9734 45.914 37.7808 53.4408 43.719 59.3943L45.4699 61.1497L42.5132 60.5245C30.6863 58.028 21.8492 47.922 19.2558 35.5927C19.1443 35.0586 19.0452 34.5245 18.9544 33.9822C18.8677 33.4481 18.7892 32.9057 18.7273 32.3634C18.3267 28.9602 18.3886 25.4328 18.9957 21.8806L18.9998 21.8889ZM45.8622 44.0675L46.2793 46.0838L47.4603 51.793L48.629 46.1376L49.0584 44.0675C50.5492 36.8513 54.1129 30.5748 59.0064 26.0414C59.3037 27.9293 59.4647 29.8503 59.4647 31.8003C59.4647 33.0506 59.3987 34.2927 59.2748 35.5223C59.2046 36.2178 59.1096 36.9051 59.0022 37.5882C58.8825 38.3334 58.738 39.0704 58.5728 39.8032C57.0903 46.4108 53.7867 52.4844 48.8932 57.3904L48.1788 58.1108L47.6172 58.6739L46.8574 57.9121L46.0356 57.0882C41.2537 52.294 37.9872 46.3901 36.4552 39.9605C36.2776 39.2111 36.1248 38.4535 35.9968 37.6876C35.8812 37.0086 35.7821 36.3213 35.7036 35.6341C35.5508 34.272 35.4641 32.8892 35.4641 31.4981C35.4641 29.6392 35.6045 27.8051 35.8771 26.0041C40.7953 30.5417 44.3756 36.8306 45.8704 44.0717L45.8622 44.0675ZM75.322 18.3987L75.9167 21.8889C76.5196 25.4411 76.5856 28.9643 76.1851 32.3675C76.1231 32.9099 76.0447 33.4481 75.958 33.9863C75.8712 34.5245 75.768 35.0627 75.6565 35.5968C73.0673 47.9303 64.2261 58.0363 52.3992 60.5328L49.8265 61.0752L51.1934 59.7048C57.2348 53.6478 61.0711 45.9678 62.2935 37.6462C62.3843 37.0252 62.4628 36.4041 62.5247 35.7748C62.5867 35.1662 62.6321 34.5535 62.6651 33.9366C62.7023 33.2287 62.7229 32.5166 62.7229 31.8003C62.7229 29.0389 62.438 26.3271 61.8929 23.6857C65.0231 21.4376 68.5538 19.8312 72.3447 19.0322L75.322 18.4029V18.3987ZM46.0274 5.90382L47.3075 4.62038L48.8891 6.20605C53.4357 10.7643 56.6113 16.3245 58.2259 22.3857C53.4852 26.3064 49.7315 31.614 47.4562 37.7994C45.1726 31.585 41.3941 26.2525 36.6204 22.3318C38.2185 16.1713 41.4188 10.5201 46.0274 5.90382Z" fill="#1BB5A3"/>
</g>
<path d="M128.611 24.6192V26.7754H124.333V40.7326H121.696V26.7754H117.395V24.6192H128.611ZM142.404 40.7326L138.704 34.2873H136.692V40.7326H134.055V24.6192H139.606C140.839 24.6192 141.88 24.8357 142.727 25.2684C143.591 25.7012 144.231 26.2808 144.647 27.0073C145.079 27.7337 145.294 28.5452 145.294 29.4417C145.294 30.4927 144.986 31.451 144.369 32.3166C143.768 33.1667 142.836 33.7463 141.571 34.0554L145.549 40.7326H142.404ZM136.692 32.1775H139.606C140.592 32.1775 141.332 31.9302 141.826 31.4356C142.334 30.9409 142.589 30.2763 142.589 29.4417C142.589 28.607 142.342 27.9578 141.849 27.4941C141.356 27.015 140.608 26.7754 139.606 26.7754H136.692V32.1775ZM161.131 37.4404H154.402L153.246 40.7326H150.494L156.252 24.5961H159.304L165.063 40.7326H162.288L161.131 37.4404ZM160.391 35.2842L157.778 27.7956L155.142 35.2842H160.391ZM183.546 40.7326H180.91L172.978 28.6998V40.7326H170.341V24.5961H172.978L180.91 36.6057V24.5961H183.546V40.7326ZM201.415 29.2562C200.998 28.4525 200.42 27.8497 199.68 27.4478C198.94 27.0305 198.085 26.8218 197.113 26.8218C196.05 26.8218 195.101 27.0614 194.269 27.5405C193.436 28.0197 192.781 28.6998 192.303 29.5808C191.841 30.4618 191.61 31.4819 191.61 32.6412C191.61 33.8004 191.841 34.8283 192.303 35.7247C192.781 36.6057 193.436 37.2858 194.269 37.765C195.101 38.2441 196.05 38.4837 197.113 38.4837C198.547 38.4837 199.711 38.0818 200.605 37.2781C201.5 36.4744 202.047 35.3847 202.247 34.0091H196.211V31.8992H205.068V33.9627C204.899 35.2147 204.452 36.3662 203.727 37.4172C203.018 38.4683 202.085 39.3106 200.929 39.9443C199.788 40.5626 198.516 40.8717 197.113 40.8717C195.603 40.8717 194.223 40.524 192.974 39.8284C191.725 39.1174 190.731 38.1359 189.991 36.884C189.266 35.632 188.904 34.2177 188.904 32.6412C188.904 31.0646 189.266 29.6503 189.991 28.3984C190.731 27.1464 191.725 26.1726 192.974 25.4771C194.238 24.7661 195.618 24.4106 197.113 24.4106C198.825 24.4106 200.343 24.8357 201.669 25.6857C203.01 26.5204 203.981 27.7106 204.583 29.2562H201.415ZM229.609 24.6192V26.7754H225.331V40.7326H222.695V26.7754H218.393V24.6192H229.609ZM243.402 40.7326L239.702 34.2873H237.69V40.7326H235.054V24.6192H240.604C241.837 24.6192 242.878 24.8357 243.726 25.2684C244.589 25.7012 245.229 26.2808 245.645 27.0073C246.077 27.7337 246.293 28.5452 246.293 29.4417C246.293 30.4927 245.985 31.451 245.368 32.3166C244.766 33.1667 243.834 33.7463 242.57 34.0554L246.547 40.7326H243.402ZM237.69 32.1775H240.604C241.591 32.1775 242.331 31.9302 242.824 31.4356C243.333 30.9409 243.587 30.2763 243.587 29.4417C243.587 28.607 243.341 27.9578 242.847 27.4941C242.354 27.015 241.606 26.7754 240.604 26.7754H237.69V32.1775ZM262.13 37.4404H255.4L254.244 40.7326H251.492L257.25 24.5961H260.303L266.061 40.7326H263.286L262.13 37.4404ZM261.39 35.2842L258.777 27.7956L256.14 35.2842H261.39ZM284.544 40.7326H281.908L273.976 28.6998V40.7326H271.34V24.5961H273.976L281.908 36.6057V24.5961H284.544V40.7326Z" fill="#161A1C"/>
</svg>
