<svg width="695" height="157" viewBox="0 0 695 157" fill="none" xmlns="http://www.w3.org/2000/svg">
<g clip-path="url(#clip0_9_70)">
<path d="M192.29 79.56C193.41 70.36 193.22 60.93 191.62 51.54L188.8 35.03L173.56 38.24C164.3 40.19 155.62 43.9 147.8 49.05C143.31 34.24 135.22 20.67 123.97 9.41L114.56 0L105.88 8.68C94.47 20.09 86.32 33.88 81.87 48.93C74.1 43.84 65.48 40.18 56.29 38.24L41.05 35.03L38.23 51.54C36.63 60.92 36.44 70.35 37.55 79.54L0 86.82V90.08C0 126.86 29.92 156.78 66.7 156.78H163.4C200.18 156.78 230.1 126.86 230.1 90.08V86.82L192.3 79.57L192.29 79.56ZM143.91 148.88C158.2 142.41 170.46 131.46 179.32 117.01C184.93 107.86 188.84 97.82 191.01 87.35L222.11 93.31C220.42 124.23 194.73 148.87 163.39 148.87H143.91V148.88ZM66.7 148.88C35.36 148.88 9.67 124.24 7.98 93.31L38.83 87.34C41 97.81 44.91 107.86 50.52 117.01C59.38 131.46 71.65 142.41 85.93 148.88H66.69H66.7ZM46.01 52.87L47.45 44.44L54.66 45.96C63.79 47.88 72.29 51.73 79.84 57.11C78.6 63.29 77.96 69.63 77.96 76.07C77.96 78.12 78.03 80.16 78.16 82.18C78.25 83.66 78.38 85.13 78.54 86.59C78.71 88.13 78.91 89.66 79.15 91.19C82.27 110.9 91.49 129.08 105.87 143.46L110.11 147.7L102.95 146.19C74.31 140.16 52.91 115.75 46.63 85.97C46.36 84.68 46.12 83.39 45.9 82.08C45.69 80.79 45.5 79.48 45.35 78.17C44.38 69.95 44.53 61.43 46 52.85L46.01 52.87ZM111.06 106.44L112.07 111.31L114.93 125.1L117.76 111.44L118.8 106.44C122.41 89.01 131.04 73.85 142.89 62.9C143.61 67.46 144 72.1 144 76.81C144 79.83 143.84 82.83 143.54 85.8C143.37 87.48 143.14 89.14 142.88 90.79C142.59 92.59 142.24 94.37 141.84 96.14C138.25 112.1 130.25 126.77 118.4 138.62L116.67 140.36L115.31 141.72L113.47 139.88L111.48 137.89C99.9 126.31 91.99 112.05 88.28 96.52C87.85 94.71 87.48 92.88 87.17 91.03C86.89 89.39 86.65 87.73 86.46 86.07C86.09 82.78 85.88 79.44 85.88 76.08C85.88 71.59 86.22 67.16 86.88 62.81C98.79 73.77 107.46 88.96 111.08 106.45L111.06 106.44ZM182.4 44.44L183.84 52.87C185.3 61.45 185.46 69.96 184.49 78.18C184.34 79.49 184.15 80.79 183.94 82.09C183.73 83.39 183.48 84.69 183.21 85.98C176.94 115.77 155.53 140.18 126.89 146.21L120.66 147.52L123.97 144.21C138.6 129.58 147.89 111.03 150.85 90.93C151.07 89.43 151.26 87.93 151.41 86.41C151.56 84.94 151.67 83.46 151.75 81.97C151.84 80.26 151.89 78.54 151.89 76.81C151.89 70.14 151.2 63.59 149.88 57.21C157.46 51.78 166.01 47.9 175.19 45.97L182.4 44.45V44.44ZM111.46 14.26L114.56 11.16L118.39 14.99C129.4 26 137.09 39.43 141 54.07C129.52 63.54 120.43 76.36 114.92 91.3C109.39 76.29 100.24 63.41 88.68 53.94C92.55 39.06 100.3 25.41 111.46 14.26Z" fill="#1BB5A3"/>
</g>
<path d="M311.444 59.465V64.673H301.084V98.385H294.7V64.673H284.284V59.465H311.444ZM344.845 98.385L335.885 82.817H331.013V98.385H324.629V59.465H338.069C341.056 59.465 343.576 59.9877 345.629 61.033C347.72 62.0783 349.269 63.4783 350.277 65.233C351.323 66.9877 351.845 68.9477 351.845 71.113C351.845 73.6517 351.099 75.9663 349.605 78.057C348.149 80.1103 345.891 81.5103 342.829 82.257L352.461 98.385H344.845ZM331.013 77.721H338.069C340.459 77.721 342.251 77.1237 343.445 75.929C344.677 74.7343 345.293 73.129 345.293 71.113C345.293 69.097 344.696 67.529 343.501 66.409C342.307 65.2517 340.496 64.673 338.069 64.673H331.013V77.721ZM390.196 90.433H373.9L371.1 98.385H364.436L378.38 59.409H385.772L399.716 98.385H392.996L390.196 90.433ZM388.404 85.225L382.076 67.137L375.692 85.225H388.404ZM444.475 98.385H438.091L418.883 69.321V98.385H412.499V59.409H418.883L438.091 88.417V59.409H444.475V98.385ZM487.746 70.665C486.738 68.7237 485.338 67.2677 483.546 66.297C481.754 65.289 479.682 64.785 477.33 64.785C474.754 64.785 472.458 65.3637 470.442 66.521C468.426 67.6783 466.84 69.321 465.682 71.449C464.562 73.577 464.002 76.041 464.002 78.841C464.002 81.641 464.562 84.1237 465.682 86.289C466.84 88.417 468.426 90.0597 470.442 91.217C472.458 92.3743 474.754 92.953 477.33 92.953C480.802 92.953 483.621 91.9823 485.786 90.041C487.952 88.0997 489.277 85.4677 489.762 82.145H475.146V77.049H496.594V82.033C496.184 85.057 495.101 87.8383 493.346 90.377C491.629 92.9157 489.37 94.9503 486.57 96.481C483.808 97.9743 480.728 98.721 477.33 98.721C473.672 98.721 470.33 97.881 467.306 96.201C464.282 94.4837 461.874 92.113 460.082 89.089C458.328 86.065 457.45 82.649 457.45 78.841C457.45 75.033 458.328 71.617 460.082 68.593C461.874 65.569 464.282 63.217 467.306 61.537C470.368 59.8197 473.709 58.961 477.33 58.961C481.474 58.961 485.152 59.9877 488.362 62.041C491.61 64.057 493.962 66.9317 495.418 70.665H487.746ZM556.022 59.465V64.673H545.662V98.385H539.278V64.673H528.862V59.465H556.022ZM589.423 98.385L580.463 82.817H575.591V98.385H569.207V59.465H582.647C585.634 59.465 588.154 59.9877 590.207 61.033C592.298 62.0783 593.847 63.4783 594.855 65.233C595.901 66.9877 596.423 68.9477 596.423 71.113C596.423 73.6517 595.677 75.9663 594.183 78.057C592.727 80.1103 590.469 81.5103 587.407 82.257L597.039 98.385H589.423ZM575.591 77.721H582.647C585.037 77.721 586.829 77.1237 588.023 75.929C589.255 74.7343 589.871 73.129 589.871 71.113C589.871 69.097 589.274 67.529 588.079 66.409C586.885 65.2517 585.074 64.673 582.647 64.673H575.591V77.721ZM634.774 90.433H618.478L615.678 98.385H609.014L622.958 59.409H630.35L644.294 98.385H637.574L634.774 90.433ZM632.982 85.225L626.654 67.137L620.27 85.225H632.982ZM689.053 98.385H682.669L663.461 69.321V98.385H657.077V59.409H663.461L682.669 88.417V59.409H689.053V98.385Z" fill="#161A1C"/>
<defs>
<clipPath id="clip0_9_70">
<rect width="230.1" height="156.77" fill="white"/>
</clipPath>
</defs>
</svg>
