<?xml version="1.0" encoding="UTF-8"?>
<svg id="Layer_1" data-name="Layer 1" xmlns="http://www.w3.org/2000/svg" viewBox="0 0 230.1 156.77">
  <defs>
    <style>
      .cls-1 {
        fill: #fff;
      }
    </style>
  </defs>
  <g>
    <path class="cls-1" d="M163.4,152.83H66.7c-34.66,0-62.75-28.1-62.75-62.75h0s37.85-7.33,37.85-7.33c32.5-6.29,64.65,13.51,72.94,45.55,.11,.42,.21,.83,.31,1.24h0s0,0,0,0c.09-.41,.19-.83,.29-1.24,7.9-31.94,39.78-51.85,72.1-45.65l38.71,7.42h0c0,34.66-28.1,62.75-62.75,62.75Z"/>
    <path d="M163.4,156.77H66.7C29.92,156.77,0,126.85,0,90.07v-3.26l41.04-7.95c31.05-6.01,61.58,10.39,73.94,38.18,12.03-27.78,42.24-44.22,73.2-38.28l41.91,8.04v3.26c0,36.78-29.92,66.7-66.7,66.7ZM7.98,93.31c1.69,30.93,27.38,55.57,58.72,55.57h96.7c31.34,0,57.03-24.64,58.72-55.56l-35.42-6.79c-30.49-5.85-60.15,12.92-67.52,42.72-.1,.39-.19,.78-.27,1.16l-3.75,16.62-3.94-16.57c-.09-.39-.19-.78-.29-1.17-7.73-29.85-37.76-48.59-68.37-42.66l-34.56,6.69Z"/>
  </g>
  <g>
    <path class="cls-1" d="M187.73,52.21l-2.13-12.47-11.23,2.36c-30.33,6.39-52.95,32.13-59.45,63.54-6.5-31.41-29.12-57.15-59.45-63.54l-11.23-2.36-2.13,12.47c-7.75,45.43,19.12,89.25,60.03,97.86l11.23,2.36h3.1l11.23-2.36c40.9-8.61,67.78-52.43,60.03-97.86Z"/>
    <path d="M116.89,156.38h-3.92l-11.63-2.45c-20.86-4.39-38.9-17.5-50.81-36.92-11.84-19.3-16.2-42.55-12.29-65.47l2.82-16.51,15.24,3.21c26.68,5.62,48.6,25.84,58.64,53.07,10.03-27.23,31.95-47.45,58.64-53.07l15.24-3.21,2.82,16.51c3.91,22.92-.45,46.17-12.29,65.47-11.91,19.42-29.96,32.53-50.81,36.92l-11.63,2.45Zm-3.1-7.89h2.28l10.82-2.28c38.79-8.17,64.34-50.04,56.95-93.33l-1.44-8.43-7.21,1.52c-27.87,5.87-50,29.61-56.4,60.48l-3.86,18.66-3.86-18.66c-6.39-30.87-28.53-54.61-56.4-60.48l-7.21-1.52-1.44,8.43c-7.39,43.3,18.16,85.17,56.95,93.33l10.82,2.28Z"/>
  </g>
  <path d="M115.29,152.88l-9.41-9.41c-18-18-27.92-41.94-27.92-67.4s9.91-49.39,27.92-67.4L114.56,0l9.41,9.41c18,18,27.92,41.94,27.92,67.4s-9.91,49.39-27.92,67.4l-8.68,8.68Zm-.74-141.72l-3.1,3.1c-16.51,16.51-25.6,38.46-25.6,61.81s9.09,45.3,25.6,61.81l3.83,3.83,3.1-3.1c16.51-16.51,25.6-38.46,25.6-61.81s-9.09-45.3-25.6-61.81l-3.83-3.83Z"/>
</svg>