<svg width="95" height="65" viewBox="0 0 95 65" fill="none" xmlns="http://www.w3.org/2000/svg">
<g clip-path="url(#clip0_8_51)">
<mask id="mask0_8_51" style="mask-type:luminance" maskUnits="userSpaceOnUse" x="0" y="0" width="95" height="65">
<path d="M95 0H0V65H95V0Z" fill="white"/>
</mask>
<g mask="url(#mask0_8_51)">
<mask id="mask1_8_51" style="mask-type:luminance" maskUnits="userSpaceOnUse" x="0" y="0" width="96" height="65">
<path d="M95.0197 0H0V64.9048H95.0197V0Z" fill="white"/>
</mask>
<g mask="url(#mask1_8_51)">
<path d="M79.4061 32.9389C79.8686 29.1299 79.7901 25.2258 79.1294 21.3382L77.9649 14.5029L71.6715 15.8318C67.8476 16.6392 64.2632 18.1752 61.034 20.3073C59.1798 14.1758 55.8391 8.55764 51.1934 3.89586L47.3075 0L43.7231 3.59363C39.0114 8.31752 35.6458 14.0268 33.8082 20.2576C30.5996 18.1503 27.0399 16.635 23.2449 15.8318L16.9516 14.5029L15.7871 21.3382C15.1263 25.2217 15.0479 29.1258 15.5063 32.9306L0 35.9446V37.2943C0 52.5217 12.3555 64.9089 27.5437 64.9089H67.476C82.6643 64.9089 95.0197 52.5217 95.0197 37.2943V35.9446L79.4102 32.943L79.4061 32.9389ZM59.4276 61.6382C65.3286 58.9596 70.3914 54.4261 74.0501 48.4436C76.3668 44.6554 77.9814 40.4987 78.8775 36.164L91.7202 38.6315C91.0224 51.4328 80.4137 61.6341 67.4718 61.6341H59.4276V61.6382ZM27.5437 61.6382C14.6019 61.6382 3.99322 51.4369 3.29534 38.6315L16.0348 36.1599C16.9309 40.4946 18.5456 44.6554 20.8622 48.4436C24.521 54.4261 29.5878 58.9596 35.4848 61.6382H27.5396H27.5437ZM18.9998 21.8889L19.5945 18.3987L22.5718 19.028C26.3421 19.8229 29.8521 21.4169 32.9699 23.6443C32.4578 26.2029 32.1936 28.8277 32.1936 31.494C32.1936 32.3427 32.2225 33.1873 32.2761 34.0236C32.3133 34.6363 32.367 35.2449 32.4331 35.8494C32.5033 36.4869 32.5859 37.1204 32.685 37.7538C33.9734 45.914 37.7808 53.4408 43.719 59.3943L45.4699 61.1497L42.5132 60.5245C30.6863 58.028 21.8492 47.922 19.2558 35.5927C19.1443 35.0586 19.0452 34.5245 18.9544 33.9822C18.8677 33.4481 18.7892 32.9057 18.7273 32.3634C18.3267 28.9602 18.3886 25.4328 18.9957 21.8806L18.9998 21.8889ZM45.8622 44.0675L46.2793 46.0838L47.4603 51.793L48.629 46.1376L49.0584 44.0675C50.5492 36.8513 54.1129 30.5748 59.0064 26.0414C59.3037 27.9293 59.4647 29.8503 59.4647 31.8003C59.4647 33.0506 59.3987 34.2927 59.2748 35.5223C59.2046 36.2178 59.1096 36.9051 59.0022 37.5882C58.8825 38.3334 58.738 39.0704 58.5728 39.8032C57.0903 46.4108 53.7867 52.4844 48.8932 57.3904L48.1788 58.1108L47.6172 58.6739L46.8574 57.9121L46.0356 57.0882C41.2537 52.294 37.9872 46.3901 36.4552 39.9605C36.2776 39.2111 36.1248 38.4535 35.9968 37.6876C35.8812 37.0086 35.7821 36.3213 35.7036 35.6341C35.5508 34.272 35.4641 32.8892 35.4641 31.4981C35.4641 29.6392 35.6045 27.8051 35.8771 26.0041C40.7953 30.5417 44.3756 36.8306 45.8704 44.0717L45.8622 44.0675ZM75.322 18.3987L75.9167 21.8889C76.5196 25.4411 76.5856 28.9643 76.1851 32.3675C76.1231 32.9099 76.0447 33.4481 75.958 33.9863C75.8712 34.5245 75.768 35.0627 75.6565 35.5968C73.0673 47.9303 64.2261 58.0363 52.3992 60.5328L49.8265 61.0752L51.1934 59.7048C57.2348 53.6478 61.0711 45.9678 62.2935 37.6462C62.3843 37.0252 62.4628 36.4041 62.5247 35.7748C62.5867 35.1662 62.6321 34.5535 62.6651 33.9366C62.7023 33.2287 62.7229 32.5166 62.7229 31.8003C62.7229 29.0389 62.438 26.3271 61.8929 23.6857C65.0231 21.4376 68.5538 19.8312 72.3447 19.0322L75.322 18.4029V18.3987ZM46.0274 5.90382L47.3075 4.62038L48.8891 6.20605C53.4357 10.7643 56.6113 16.3245 58.2259 22.3857C53.4852 26.3064 49.7315 31.614 47.4562 37.7994C45.1726 31.585 41.3941 26.2525 36.6204 22.3318C38.2185 16.1713 41.4188 10.5201 46.0274 5.90382Z" fill="#CD8371"/>
</g>
</g>
</g>
<defs>
<clipPath id="clip0_8_51">
<rect width="95" height="65" fill="white"/>
</clipPath>
</defs>
</svg>
