<?xml version="1.0" encoding="UTF-8"?>
<svg width="408px" height="340px" viewBox="0 0 408 340" version="1.1" xmlns="http://www.w3.org/2000/svg" xmlns:xlink="http://www.w3.org/1999/xlink">
    <!-- Generator: Sketch 43.2 (39069) - http://www.bohemiancoding.com/sketch -->
    <title>Page 1</title>
    <desc>Created with Sketch.</desc>
    <defs>
        <path d="M0.086,42.315 C10.119,42.315 19.779,43.902 28.832,46.841 L41.803,6.922 C28.33,2.544 14.252,0.315 0.086,0.315 L0.086,42.315 Z" id="path-1"></path>
        <path d="M0.832,40.842 C10.215,43.888 18.943,48.387 26.754,54.07 L51.437,20.098 C39.977,11.772 27.277,5.299 13.803,0.922 L0.832,40.842 Z" id="path-3"></path>
        <path d="M0.754,34.07 C16.45,45.495 28.434,61.711 34.557,80.569 L74.478,67.598 C65.669,40.484 48.501,16.855 25.437,0.098 L0.754,34.07 Z" id="path-5"></path>
        <path d="M0.557,13.569 C3.497,22.621 5.086,32.282 5.086,42.315 C5.086,52.347 3.497,62.008 0.557,71.061 L40.478,84.031 C49.289,56.918 49.289,27.711 40.478,0.598 L0.557,13.569 Z" id="path-7"></path>
        <path d="M6.693,93.598 C-11.38,149.221 8.419,210.154 55.735,244.531 L80.418,210.558 C57.187,193.651 42.086,166.246 42.086,135.315 C42.086,83.952 83.724,42.315 135.086,42.315 L135.086,0.315 C76.601,0.315 24.766,37.974 6.693,93.598 Z" id="path-9"></path>
        <path d="M80.086,64.314 C59.655,64.314 40.763,57.726 25.418,46.558 L0.735,80.531 C35.697,105.934 80.704,113.062 121.803,99.707 C162.903,86.354 195.125,54.132 208.478,13.031 L168.557,0.061 C156.449,37.354 121.416,64.314 80.086,64.314 Z" id="path-11"></path>
    </defs>
    <g id="Page-1" stroke="none" stroke-width="1" fill="none" fill-rule="evenodd">
        <g id="iPhone-7" transform="translate(-16.000000, -17.000000)">
            <g id="Page-1" transform="translate(16.000000, 17.000000)">
                <g id="Group" transform="translate(73.000000, 37.000000)">
                    <g id="Group-3" transform="translate(135.000000, 0.752000)">
                        <mask id="mask-2" fill="white">
                            <use xlink:href="#path-1"></use>
                        </mask>
                        <g id="Clip-2"></g>
                        <polygon id="Fill-1" fill="#9AD2AC" mask="url(#mask-2)" points="-4.914 51.841 46.803 51.841 46.803 -4.686 -4.914 -4.686"></polygon>
                    </g>
                    <g id="Group-6" transform="translate(163.000000, 6.752000)">
                        <mask id="mask-4" fill="white">
                            <use xlink:href="#path-3"></use>
                        </mask>
                        <g id="Clip-5"></g>
                        <polygon id="Fill-4" fill="#FDE985" mask="url(#mask-4)" points="-4.168 59.07 56.436 59.07 56.436 -4.078 -4.168 -4.078"></polygon>
                    </g>
                    <g id="Group-9" transform="translate(189.000000, 26.752000)">
                        <mask id="mask-6" fill="white">
                            <use xlink:href="#path-5"></use>
                        </mask>
                        <g id="Clip-8"></g>
                        <polygon id="Fill-7" fill="#FDC375" mask="url(#mask-6)" points="-4.246 85.568 79.479 85.568 79.479 -4.903 -4.246 -4.903"></polygon>
                    </g>
                    <g id="Group-12" transform="translate(223.000000, 93.752000)">
                        <mask id="mask-8" fill="white">
                            <use xlink:href="#path-7"></use>
                        </mask>
                        <g id="Clip-11"></g>
                        <polygon id="Fill-10" fill="#A7A6D3" mask="url(#mask-8)" points="-4.442 89.031 52.086 89.031 52.086 -4.403 -4.442 -4.403"></polygon>
                    </g>
                    <g id="Group-15" transform="translate(0.000000, 0.752000)">
                        <mask id="mask-10" fill="white">
                            <use xlink:href="#path-9"></use>
                        </mask>
                        <g id="Clip-14"></g>
                        <polygon id="Fill-13" fill="#33C5F2" mask="url(#mask-10)" points="-4.924 249.531 140.086 249.531 140.086 -4.686 -4.924 -4.686"></polygon>
                    </g>
                    <g id="Group-18" transform="translate(55.000000, 164.752000)">
                        <mask id="mask-12" fill="white">
                            <use xlink:href="#path-11"></use>
                        </mask>
                        <g id="Clip-17"></g>
                        <polygon id="Fill-16" fill="#F06A9C" mask="url(#mask-12)" points="-4.265 111.316 213.479 111.316 213.479 -4.94 -4.265 -4.94"></polygon>
                    </g>
                </g>
                <g id="Group-2" fill="#252526">
                    <path d="M14.076,155.456 L14.076,161 L10.188,161 L10.188,155.456 L0.972,155.456 L0.972,151.676 L8.676,135.512 L14.076,135.512 L14.076,151.856 L16.884,151.856 L16.884,155.456 L14.076,155.456 Z M10.296,139.724 L10.224,139.724 L4.788,151.856 L10.296,151.856 L10.296,139.724 Z M34.704,148.256 C34.704,149.720007 34.602001,151.231992 34.398,152.792 C34.193999,154.352008 33.8100028,155.779994 33.246,157.076 C32.6819972,158.372006 31.896005,159.433996 30.888,160.262 C29.879995,161.090004 28.5840079,161.504 27,161.504 C25.4159921,161.504 24.126005,161.090004 23.13,160.262 C22.133995,159.433996 21.3480029,158.372006 20.772,157.076 C20.1959971,155.779994 19.806001,154.352008 19.602,152.792 C19.397999,151.231992 19.296,149.720007 19.296,148.256 C19.296,146.791993 19.397999,145.280008 19.602,143.72 C19.806001,142.159992 20.1959971,140.732006 20.772,139.436 C21.3480029,138.139994 22.133995,137.078004 23.13,136.25 C24.126005,135.421996 25.4159921,135.008 27,135.008 C28.5840079,135.008 29.879995,135.421996 30.888,136.25 C31.896005,137.078004 32.6819972,138.139994 33.246,139.436 C33.8100028,140.732006 34.193999,142.159992 34.398,143.72 C34.602001,145.280008 34.704,146.791993 34.704,148.256 Z M30.348,148.256 C30.348,147.391996 30.3120004,146.414005 30.24,145.322 C30.1679996,144.229995 30.0180011,143.210005 29.79,142.262 C29.5619989,141.313995 29.2260022,140.510003 28.782,139.85 C28.3379978,139.189997 27.7440037,138.86 27,138.86 C26.2559963,138.86 25.6620022,139.189997 25.218,139.85 C24.7739978,140.510003 24.4380011,141.313995 24.21,142.262 C23.9819989,143.210005 23.8320004,144.229995 23.76,145.322 C23.6879996,146.414005 23.652,147.391996 23.652,148.256 C23.652,149.120004 23.6879996,150.097995 23.76,151.19 C23.8320004,152.282005 23.9819989,153.307995 24.21,154.268 C24.4380011,155.228005 24.7739978,156.031997 25.218,156.68 C25.6620022,157.328003 26.2559963,157.652 27,157.652 C27.7440037,157.652 28.3379978,157.328003 28.782,156.68 C29.2260022,156.031997 29.5619989,155.228005 29.79,154.268 C30.0180011,153.307995 30.1679996,152.282005 30.24,151.19 C30.3120004,150.097995 30.348,149.120004 30.348,148.256 Z M47.088,141.812 C47.088,142.772005 46.9740011,143.659996 46.746,144.476 C46.5179989,145.292004 46.1940021,145.993997 45.774,146.582 C45.3539979,147.170003 44.8320031,147.631998 44.208,147.968 C43.5839969,148.304002 42.876004,148.472 42.084,148.472 C41.3159962,148.472 40.6260031,148.304002 40.014,147.968 C39.4019969,147.631998 38.8800022,147.170003 38.448,146.582 C38.0159978,145.993997 37.6860011,145.292004 37.458,144.476 C37.2299989,143.659996 37.116,142.772005 37.116,141.812 C37.116,140.851995 37.2299989,139.958004 37.458,139.13 C37.6860011,138.301996 38.0099979,137.588003 38.43,136.988 C38.8500021,136.387997 39.3659969,135.920002 39.978,135.584 C40.5900031,135.247998 41.291996,135.08 42.084,135.08 C42.876004,135.08 43.5839969,135.247998 44.208,135.584 C44.8320031,135.920002 45.3539979,136.387997 45.774,136.988 C46.1940021,137.588003 46.5179989,138.301996 46.746,139.13 C46.9740011,139.958004 47.088,140.851995 47.088,141.812 Z M44.064,141.776 C44.064,140.647994 43.8960017,139.712004 43.56,138.968 C43.2239983,138.223996 42.7320032,137.852 42.084,137.852 C41.4599969,137.852 40.9800017,138.223996 40.644,138.968 C40.3079983,139.712004 40.14,140.647994 40.14,141.776 C40.14,142.856005 40.3079983,143.779996 40.644,144.548 C40.9800017,145.316004 41.4599969,145.7 42.084,145.7 C42.7320032,145.7 43.2239983,145.316004 43.56,144.548 C43.8960017,143.779996 44.064,142.856005 44.064,141.776 Z M59.004,154.772 C59.004,155.732005 58.8900011,156.619996 58.662,157.436 C58.4339989,158.252004 58.1040022,158.953997 57.672,159.542 C57.2399978,160.130003 56.7180031,160.591998 56.106,160.928 C55.4939969,161.264002 54.792004,161.432 54,161.432 C53.2319962,161.432 52.5360031,161.264002 51.912,160.928 C51.2879969,160.591998 50.7600022,160.130003 50.328,159.542 C49.8959978,158.953997 49.5660011,158.252004 49.338,157.436 C49.1099989,156.619996 48.996,155.732005 48.996,154.772 C48.996,153.811995 49.1099989,152.918004 49.338,152.09 C49.5660011,151.261996 49.8959978,150.548003 50.328,149.948 C50.7600022,149.347997 51.2819969,148.880002 51.894,148.544 C52.5060031,148.207998 53.207996,148.04 54,148.04 C54.792004,148.04 55.4939969,148.207998 56.106,148.544 C56.7180031,148.880002 57.2399978,149.347997 57.672,149.948 C58.1040022,150.548003 58.4339989,151.261996 58.662,152.09 C58.8900011,152.918004 59.004,153.811995 59.004,154.772 Z M55.944,154.736 C55.944,153.607994 55.7820016,152.672004 55.458,151.928 C55.1339984,151.183996 54.6480032,150.812 54,150.812 C53.3519968,150.812 52.8660016,151.183996 52.542,151.928 C52.2179984,152.672004 52.056,153.607994 52.056,154.736 C52.056,155.816005 52.2179984,156.739996 52.542,157.508 C52.8660016,158.276004 53.3519968,158.66 54,158.66 C54.6480032,158.66 55.1339984,158.276004 55.458,157.508 C55.7820016,156.739996 55.944,155.816005 55.944,154.736 Z M43.92,161.792 L41.688,161 L52.164,134.468 L54.396,135.26 L43.92,161.792 Z" id="40%"></path>
                    <path d="M270.128,331.8 C270.128,332.928006 269.948002,333.965995 269.588,334.914 C269.227998,335.862005 268.724003,336.677997 268.076,337.362 C267.427997,338.046003 266.642005,338.573998 265.718,338.946 C264.793995,339.318002 263.780006,339.504 262.676,339.504 C260.75599,339.504 259.136007,339.018005 257.816,338.046 C256.495993,337.073995 255.596002,335.62801 255.116,333.708 L258.932,332.7 C259.196001,333.612005 259.621997,334.349997 260.21,334.914 C260.798003,335.478003 261.559995,335.76 262.496,335.76 C263.096003,335.76 263.611998,335.640001 264.044,335.4 C264.476002,335.159999 264.835999,334.842002 265.124,334.446 C265.412001,334.049998 265.621999,333.606002 265.754,333.114 C265.886001,332.621998 265.952,332.124003 265.952,331.62 C265.952,330.251993 265.568004,329.220003 264.8,328.524 C264.031996,327.827997 263.036006,327.48 261.812,327.48 L260.732,327.48 L260.732,324.132 L261.92,324.132 C263.000005,324.132 263.857997,323.790003 264.494,323.106 C265.130003,322.421997 265.448,321.468006 265.448,320.244 C265.448,319.835998 265.394001,319.422002 265.286,319.002 C265.177999,318.581998 265.004001,318.204002 264.764,317.868 C264.523999,317.531998 264.212002,317.256001 263.828,317.04 C263.443998,316.823999 262.988003,316.716 262.46,316.716 C261.763997,316.716 261.176002,316.943998 260.696,317.4 C260.215998,317.856002 259.844001,318.431997 259.58,319.128 L255.836,318.084 C256.124001,317.195996 256.519997,316.428003 257.024,315.78 C257.528003,315.131997 258.091997,314.604002 258.716,314.196 C259.340003,313.787998 259.999997,313.488001 260.696,313.296 C261.392003,313.103999 262.087997,313.008 262.784,313.008 C263.720005,313.008 264.595996,313.157998 265.412,313.458 C266.228004,313.758001 266.947997,314.195997 267.572,314.772 C268.196003,315.348003 268.687998,316.049996 269.048,316.878 C269.408002,317.706004 269.588,318.647995 269.588,319.704 C269.588,321.144007 269.264003,322.403995 268.616,323.484 C267.967997,324.564005 267.056006,325.259998 265.88,325.572 L265.88,325.68 C267.176006,326.016002 268.207996,326.741994 268.976,327.858 C269.744004,328.974006 270.128,330.287992 270.128,331.8 Z M288.704,326.256 C288.704,327.720007 288.602001,329.231992 288.398,330.792 C288.193999,332.352008 287.810003,333.779994 287.246,335.076 C286.681997,336.372006 285.896005,337.433996 284.888,338.262 C283.879995,339.090004 282.584008,339.504 281,339.504 C279.415992,339.504 278.126005,339.090004 277.13,338.262 C276.133995,337.433996 275.348003,336.372006 274.772,335.076 C274.195997,333.779994 273.806001,332.352008 273.602,330.792 C273.397999,329.231992 273.296,327.720007 273.296,326.256 C273.296,324.791993 273.397999,323.280008 273.602,321.72 C273.806001,320.159992 274.195997,318.732006 274.772,317.436 C275.348003,316.139994 276.133995,315.078004 277.13,314.25 C278.126005,313.421996 279.415992,313.008 281,313.008 C282.584008,313.008 283.879995,313.421996 284.888,314.25 C285.896005,315.078004 286.681997,316.139994 287.246,317.436 C287.810003,318.732006 288.193999,320.159992 288.398,321.72 C288.602001,323.280008 288.704,324.791993 288.704,326.256 Z M284.348,326.256 C284.348,325.391996 284.312,324.414005 284.24,323.322 C284.168,322.229995 284.018001,321.210005 283.79,320.262 C283.561999,319.313995 283.226002,318.510003 282.782,317.85 C282.337998,317.189997 281.744004,316.86 281,316.86 C280.255996,316.86 279.662002,317.189997 279.218,317.85 C278.773998,318.510003 278.438001,319.313995 278.21,320.262 C277.981999,321.210005 277.832,322.229995 277.76,323.322 C277.688,324.414005 277.652,325.391996 277.652,326.256 C277.652,327.120004 277.688,328.097995 277.76,329.19 C277.832,330.282005 277.981999,331.307995 278.21,332.268 C278.438001,333.228005 278.773998,334.031997 279.218,334.68 C279.662002,335.328003 280.255996,335.652 281,335.652 C281.744004,335.652 282.337998,335.328003 282.782,334.68 C283.226002,334.031997 283.561999,333.228005 283.79,332.268 C284.018001,331.307995 284.168,330.282005 284.24,329.19 C284.312,328.097995 284.348,327.120004 284.348,326.256 Z M301.088,319.812 C301.088,320.772005 300.974001,321.659996 300.746,322.476 C300.517999,323.292004 300.194002,323.993997 299.774,324.582 C299.353998,325.170003 298.832003,325.631998 298.208,325.968 C297.583997,326.304002 296.876004,326.472 296.084,326.472 C295.315996,326.472 294.626003,326.304002 294.014,325.968 C293.401997,325.631998 292.880002,325.170003 292.448,324.582 C292.015998,323.993997 291.686001,323.292004 291.458,322.476 C291.229999,321.659996 291.116,320.772005 291.116,319.812 C291.116,318.851995 291.229999,317.958004 291.458,317.13 C291.686001,316.301996 292.009998,315.588003 292.43,314.988 C292.850002,314.387997 293.365997,313.920002 293.978,313.584 C294.590003,313.247998 295.291996,313.08 296.084,313.08 C296.876004,313.08 297.583997,313.247998 298.208,313.584 C298.832003,313.920002 299.353998,314.387997 299.774,314.988 C300.194002,315.588003 300.517999,316.301996 300.746,317.13 C300.974001,317.958004 301.088,318.851995 301.088,319.812 Z M298.064,319.776 C298.064,318.647994 297.896002,317.712004 297.56,316.968 C297.223998,316.223996 296.732003,315.852 296.084,315.852 C295.459997,315.852 294.980002,316.223996 294.644,316.968 C294.307998,317.712004 294.14,318.647994 294.14,319.776 C294.14,320.856005 294.307998,321.779996 294.644,322.548 C294.980002,323.316004 295.459997,323.7 296.084,323.7 C296.732003,323.7 297.223998,323.316004 297.56,322.548 C297.896002,321.779996 298.064,320.856005 298.064,319.776 Z M313.004,332.772 C313.004,333.732005 312.890001,334.619996 312.662,335.436 C312.433999,336.252004 312.104002,336.953997 311.672,337.542 C311.239998,338.130003 310.718003,338.591998 310.106,338.928 C309.493997,339.264002 308.792004,339.432 308,339.432 C307.231996,339.432 306.536003,339.264002 305.912,338.928 C305.287997,338.591998 304.760002,338.130003 304.328,337.542 C303.895998,336.953997 303.566001,336.252004 303.338,335.436 C303.109999,334.619996 302.996,333.732005 302.996,332.772 C302.996,331.811995 303.109999,330.918004 303.338,330.09 C303.566001,329.261996 303.895998,328.548003 304.328,327.948 C304.760002,327.347997 305.281997,326.880002 305.894,326.544 C306.506003,326.207998 307.207996,326.04 308,326.04 C308.792004,326.04 309.493997,326.207998 310.106,326.544 C310.718003,326.880002 311.239998,327.347997 311.672,327.948 C312.104002,328.548003 312.433999,329.261996 312.662,330.09 C312.890001,330.918004 313.004,331.811995 313.004,332.772 Z M309.944,332.736 C309.944,331.607994 309.782002,330.672004 309.458,329.928 C309.133998,329.183996 308.648003,328.812 308,328.812 C307.351997,328.812 306.866002,329.183996 306.542,329.928 C306.217998,330.672004 306.056,331.607994 306.056,332.736 C306.056,333.816005 306.217998,334.739996 306.542,335.508 C306.866002,336.276004 307.351997,336.66 308,336.66 C308.648003,336.66 309.133998,336.276004 309.458,335.508 C309.782002,334.739996 309.944,333.816005 309.944,332.736 Z M297.92,339.792 L295.688,339 L306.164,312.468 L308.396,313.26 L297.92,339.792 Z" id="30%"></path>
                    <path d="M224.056,18.756 C224.056,20.1960072 223.864002,21.4559946 223.48,22.536 C223.095998,23.6160054 222.574003,24.5279963 221.914,25.272 C221.253997,26.0160037 220.468005,26.5739981 219.556,26.946 C218.643995,27.3180019 217.660005,27.504 216.604,27.504 C214.803991,27.504 213.274006,27.0240048 212.014,26.064 C210.753994,25.1039952 209.884002,23.7000092 209.404,21.852 L213.112,20.628 C213.400001,21.5400046 213.825997,22.2779972 214.39,22.842 C214.954003,23.4060028 215.655996,23.688 216.496,23.688 C217.552005,23.688 218.373997,23.2500044 218.962,22.374 C219.550003,21.4979956 219.844,20.3400072 219.844,18.9 C219.844,17.3399922 219.472004,16.1400042 218.728,15.3 C217.983996,14.4599958 216.988006,14.04 215.74,14.04 C215.019996,14.04 214.210004,14.1479989 213.31,14.364 C212.409996,14.5800011 211.648003,14.8559983 211.024,15.192 L211.456,1.512 L223.156,1.512 L223.156,5.292 L215.128,5.292 L214.876,11.232 C215.212002,11.0639992 215.601998,10.9380004 216.046,10.854 C216.490002,10.7699996 216.879998,10.728 217.216,10.728 C218.320006,10.728 219.297996,10.9199981 220.15,11.304 C221.002004,11.6880019 221.715997,12.2339965 222.292,12.942 C222.868003,13.6500035 223.305998,14.4959951 223.606,15.48 C223.906002,16.4640049 224.056,17.555994 224.056,18.756 Z M237.088,7.812 C237.088,8.7720048 236.974001,9.65999592 236.746,10.476 C236.517999,11.2920041 236.194002,11.9939971 235.774,12.582 C235.353998,13.1700029 234.832003,13.6319983 234.208,13.968 C233.583997,14.3040017 232.876004,14.472 232.084,14.472 C231.315996,14.472 230.626003,14.3040017 230.014,13.968 C229.401997,13.6319983 228.880002,13.1700029 228.448,12.582 C228.015998,11.9939971 227.686001,11.2920041 227.458,10.476 C227.229999,9.65999592 227.116,8.7720048 227.116,7.812 C227.116,6.8519952 227.229999,5.95800414 227.458,5.13 C227.686001,4.30199586 228.009998,3.588003 228.43,2.988 C228.850002,2.387997 229.365997,1.92000168 229.978,1.584 C230.590003,1.24799832 231.291996,1.08 232.084,1.08 C232.876004,1.08 233.583997,1.24799832 234.208,1.584 C234.832003,1.92000168 235.353998,2.387997 235.774,2.988 C236.194002,3.588003 236.517999,4.30199586 236.746,5.13 C236.974001,5.95800414 237.088,6.8519952 237.088,7.812 Z M234.064,7.776 C234.064,6.64799436 233.896002,5.71200372 233.56,4.968 C233.223998,4.22399628 232.732003,3.852 232.084,3.852 C231.459997,3.852 230.980002,4.22399628 230.644,4.968 C230.307998,5.71200372 230.14,6.64799436 230.14,7.776 C230.14,8.8560054 230.307998,9.77999616 230.644,10.548 C230.980002,11.3160038 231.459997,11.7 232.084,11.7 C232.732003,11.7 233.223998,11.3160038 233.56,10.548 C233.896002,9.77999616 234.064,8.8560054 234.064,7.776 Z M249.004,20.772 C249.004,21.7320048 248.890001,22.6199959 248.662,23.436 C248.433999,24.2520041 248.104002,24.9539971 247.672,25.542 C247.239998,26.1300029 246.718003,26.5919983 246.106,26.928 C245.493997,27.2640017 244.792004,27.432 244,27.432 C243.231996,27.432 242.536003,27.2640017 241.912,26.928 C241.287997,26.5919983 240.760002,26.1300029 240.328,25.542 C239.895998,24.9539971 239.566001,24.2520041 239.338,23.436 C239.109999,22.6199959 238.996,21.7320048 238.996,20.772 C238.996,19.8119952 239.109999,18.9180041 239.338,18.09 C239.566001,17.2619959 239.895998,16.548003 240.328,15.948 C240.760002,15.347997 241.281997,14.8800017 241.894,14.544 C242.506003,14.2079983 243.207996,14.04 244,14.04 C244.792004,14.04 245.493997,14.2079983 246.106,14.544 C246.718003,14.8800017 247.239998,15.347997 247.672,15.948 C248.104002,16.548003 248.433999,17.2619959 248.662,18.09 C248.890001,18.9180041 249.004,19.8119952 249.004,20.772 Z M245.944,20.736 C245.944,19.6079944 245.782002,18.6720037 245.458,17.928 C245.133998,17.1839963 244.648003,16.812 244,16.812 C243.351997,16.812 242.866002,17.1839963 242.542,17.928 C242.217998,18.6720037 242.056,19.6079944 242.056,20.736 C242.056,21.8160054 242.217998,22.7399962 242.542,23.508 C242.866002,24.2760038 243.351997,24.66 244,24.66 C244.648003,24.66 245.133998,24.2760038 245.458,23.508 C245.782002,22.7399962 245.944,21.8160054 245.944,20.736 Z M233.92,27.792 L231.688,27 L242.164,0.468 L244.396,1.26 L233.92,27.792 Z" id="5%"></path>
                    <path d="M287.056,35.756 C287.056,37.1960072 286.864002,38.4559946 286.48,39.536 C286.095998,40.6160054 285.574003,41.5279963 284.914,42.272 C284.253997,43.0160037 283.468005,43.5739981 282.556,43.946 C281.643995,44.3180019 280.660005,44.504 279.604,44.504 C277.803991,44.504 276.274006,44.0240048 275.014,43.064 C273.753994,42.1039952 272.884002,40.7000092 272.404,38.852 L276.112,37.628 C276.400001,38.5400046 276.825997,39.2779972 277.39,39.842 C277.954003,40.4060028 278.655996,40.688 279.496,40.688 C280.552005,40.688 281.373997,40.2500044 281.962,39.374 C282.550003,38.4979956 282.844,37.3400072 282.844,35.9 C282.844,34.3399922 282.472004,33.1400042 281.728,32.3 C280.983996,31.4599958 279.988006,31.04 278.74,31.04 C278.019996,31.04 277.210005,31.1479989 276.31,31.364 C275.409995,31.5800011 274.648003,31.8559983 274.024,32.192 L274.456,18.512 L286.156,18.512 L286.156,22.292 L278.128,22.292 L277.876,28.232 C278.212002,28.0639992 278.601998,27.9380004 279.046,27.854 C279.490002,27.7699996 279.879998,27.728 280.216,27.728 C281.320006,27.728 282.297996,27.9199981 283.15,28.304 C284.002004,28.6880019 284.715997,29.2339965 285.292,29.942 C285.868003,30.6500035 286.305998,31.4959951 286.606,32.48 C286.906002,33.4640049 287.056,34.555994 287.056,35.756 Z M300.088,24.812 C300.088,25.7720048 299.974001,26.6599959 299.746,27.476 C299.517999,28.2920041 299.194002,28.9939971 298.774,29.582 C298.353998,30.1700029 297.832003,30.6319983 297.208,30.968 C296.583997,31.3040017 295.876004,31.472 295.084,31.472 C294.315996,31.472 293.626003,31.3040017 293.014,30.968 C292.401997,30.6319983 291.880002,30.1700029 291.448,29.582 C291.015998,28.9939971 290.686001,28.2920041 290.458,27.476 C290.229999,26.6599959 290.116,25.7720048 290.116,24.812 C290.116,23.8519952 290.229999,22.9580041 290.458,22.13 C290.686001,21.3019959 291.009998,20.588003 291.43,19.988 C291.850002,19.387997 292.365997,18.9200017 292.978,18.584 C293.590003,18.2479983 294.291996,18.08 295.084,18.08 C295.876004,18.08 296.583997,18.2479983 297.208,18.584 C297.832003,18.9200017 298.353998,19.387997 298.774,19.988 C299.194002,20.588003 299.517999,21.3019959 299.746,22.13 C299.974001,22.9580041 300.088,23.8519952 300.088,24.812 Z M297.064,24.776 C297.064,23.6479944 296.896002,22.7120037 296.56,21.968 C296.223998,21.2239963 295.732003,20.852 295.084,20.852 C294.459997,20.852 293.980002,21.2239963 293.644,21.968 C293.307998,22.7120037 293.14,23.6479944 293.14,24.776 C293.14,25.8560054 293.307998,26.7799962 293.644,27.548 C293.980002,28.3160038 294.459997,28.7 295.084,28.7 C295.732003,28.7 296.223998,28.3160038 296.56,27.548 C296.896002,26.7799962 297.064,25.8560054 297.064,24.776 Z M312.004,37.772 C312.004,38.7320048 311.890001,39.6199959 311.662,40.436 C311.433999,41.2520041 311.104002,41.9539971 310.672,42.542 C310.239998,43.1300029 309.718003,43.5919983 309.106,43.928 C308.493997,44.2640017 307.792004,44.432 307,44.432 C306.231996,44.432 305.536003,44.2640017 304.912,43.928 C304.287997,43.5919983 303.760002,43.1300029 303.328,42.542 C302.895998,41.9539971 302.566001,41.2520041 302.338,40.436 C302.109999,39.6199959 301.996,38.7320048 301.996,37.772 C301.996,36.8119952 302.109999,35.9180041 302.338,35.09 C302.566001,34.2619959 302.895998,33.548003 303.328,32.948 C303.760002,32.347997 304.281997,31.8800017 304.894,31.544 C305.506003,31.2079983 306.207996,31.04 307,31.04 C307.792004,31.04 308.493997,31.2079983 309.106,31.544 C309.718003,31.8800017 310.239998,32.347997 310.672,32.948 C311.104002,33.548003 311.433999,34.2619959 311.662,35.09 C311.890001,35.9180041 312.004,36.8119952 312.004,37.772 Z M308.944,37.736 C308.944,36.6079944 308.782002,35.6720037 308.458,34.928 C308.133998,34.1839963 307.648003,33.812 307,33.812 C306.351997,33.812 305.866002,34.1839963 305.542,34.928 C305.217998,35.6720037 305.056,36.6079944 305.056,37.736 C305.056,38.8160054 305.217998,39.7399962 305.542,40.508 C305.866002,41.2760038 306.351997,41.66 307,41.66 C307.648003,41.66 308.133998,41.2760038 308.458,40.508 C308.782002,39.7399962 308.944,38.8160054 308.944,37.736 Z M296.92,44.792 L294.688,44 L305.164,17.468 L307.396,18.26 L296.92,44.792 Z" id="5%-copy"></path>
                    <path d="M331.316,89 L331.316,68.516 L327.068,71.72 L325.124,68.372 L331.676,63.512 L335.528,63.512 L335.528,89 L331.316,89 Z M357.704,76.256 C357.704,77.7200073 357.602001,79.2319922 357.398,80.792 C357.193999,82.3520078 356.810003,83.7799935 356.246,85.076 C355.681997,86.3720065 354.896005,87.4339959 353.888,88.262 C352.879995,89.0900041 351.584008,89.504 350,89.504 C348.415992,89.504 347.126005,89.0900041 346.13,88.262 C345.133995,87.4339959 344.348003,86.3720065 343.772,85.076 C343.195997,83.7799935 342.806001,82.3520078 342.602,80.792 C342.397999,79.2319922 342.296,77.7200073 342.296,76.256 C342.296,74.7919927 342.397999,73.2800078 342.602,71.72 C342.806001,70.1599922 343.195997,68.7320065 343.772,67.436 C344.348003,66.1399935 345.133995,65.0780041 346.13,64.25 C347.126005,63.4219959 348.415992,63.008 350,63.008 C351.584008,63.008 352.879995,63.4219959 353.888,64.25 C354.896005,65.0780041 355.681997,66.1399935 356.246,67.436 C356.810003,68.7320065 357.193999,70.1599922 357.398,71.72 C357.602001,73.2800078 357.704,74.7919927 357.704,76.256 Z M353.348,76.256 C353.348,75.3919957 353.312,74.4140055 353.24,73.322 C353.168,72.2299945 353.018001,71.2100047 352.79,70.262 C352.561999,69.3139953 352.226002,68.5100033 351.782,67.85 C351.337998,67.1899967 350.744004,66.86 350,66.86 C349.255996,66.86 348.662002,67.1899967 348.218,67.85 C347.773998,68.5100033 347.438001,69.3139953 347.21,70.262 C346.981999,71.2100047 346.832,72.2299945 346.76,73.322 C346.688,74.4140055 346.652,75.3919957 346.652,76.256 C346.652,77.1200043 346.688,78.0979945 346.76,79.19 C346.832,80.2820055 346.981999,81.3079952 347.21,82.268 C347.438001,83.2280048 347.773998,84.0319968 348.218,84.68 C348.662002,85.3280032 349.255996,85.652 350,85.652 C350.744004,85.652 351.337998,85.3280032 351.782,84.68 C352.226002,84.0319968 352.561999,83.2280048 352.79,82.268 C353.018001,81.3079952 353.168,80.2820055 353.24,79.19 C353.312,78.0979945 353.348,77.1200043 353.348,76.256 Z M370.088,69.812 C370.088,70.7720048 369.974001,71.6599959 369.746,72.476 C369.517999,73.2920041 369.194002,73.9939971 368.774,74.582 C368.353998,75.1700029 367.832003,75.6319983 367.208,75.968 C366.583997,76.3040017 365.876004,76.472 365.084,76.472 C364.315996,76.472 363.626003,76.3040017 363.014,75.968 C362.401997,75.6319983 361.880002,75.1700029 361.448,74.582 C361.015998,73.9939971 360.686001,73.2920041 360.458,72.476 C360.229999,71.6599959 360.116,70.7720048 360.116,69.812 C360.116,68.8519952 360.229999,67.9580041 360.458,67.13 C360.686001,66.3019959 361.009998,65.588003 361.43,64.988 C361.850002,64.387997 362.365997,63.9200017 362.978,63.584 C363.590003,63.2479983 364.291996,63.08 365.084,63.08 C365.876004,63.08 366.583997,63.2479983 367.208,63.584 C367.832003,63.9200017 368.353998,64.387997 368.774,64.988 C369.194002,65.588003 369.517999,66.3019959 369.746,67.13 C369.974001,67.9580041 370.088,68.8519952 370.088,69.812 Z M367.064,69.776 C367.064,68.6479944 366.896002,67.7120037 366.56,66.968 C366.223998,66.2239963 365.732003,65.852 365.084,65.852 C364.459997,65.852 363.980002,66.2239963 363.644,66.968 C363.307998,67.7120037 363.14,68.6479944 363.14,69.776 C363.14,70.8560054 363.307998,71.7799962 363.644,72.548 C363.980002,73.3160038 364.459997,73.7 365.084,73.7 C365.732003,73.7 366.223998,73.3160038 366.56,72.548 C366.896002,71.7799962 367.064,70.8560054 367.064,69.776 Z M382.004,82.772 C382.004,83.7320048 381.890001,84.6199959 381.662,85.436 C381.433999,86.2520041 381.104002,86.9539971 380.672,87.542 C380.239998,88.1300029 379.718003,88.5919983 379.106,88.928 C378.493997,89.2640017 377.792004,89.432 377,89.432 C376.231996,89.432 375.536003,89.2640017 374.912,88.928 C374.287997,88.5919983 373.760002,88.1300029 373.328,87.542 C372.895998,86.9539971 372.566001,86.2520041 372.338,85.436 C372.109999,84.6199959 371.996,83.7320048 371.996,82.772 C371.996,81.8119952 372.109999,80.9180041 372.338,80.09 C372.566001,79.2619959 372.895998,78.548003 373.328,77.948 C373.760002,77.347997 374.281997,76.8800017 374.894,76.544 C375.506003,76.2079983 376.207996,76.04 377,76.04 C377.792004,76.04 378.493997,76.2079983 379.106,76.544 C379.718003,76.8800017 380.239998,77.347997 380.672,77.948 C381.104002,78.548003 381.433999,79.2619959 381.662,80.09 C381.890001,80.9180041 382.004,81.8119952 382.004,82.772 Z M378.944,82.736 C378.944,81.6079944 378.782002,80.6720037 378.458,79.928 C378.133998,79.1839963 377.648003,78.812 377,78.812 C376.351997,78.812 375.866002,79.1839963 375.542,79.928 C375.217998,80.6720037 375.056,81.6079944 375.056,82.736 C375.056,83.8160054 375.217998,84.7399962 375.542,85.508 C375.866002,86.2760038 376.351997,86.66 377,86.66 C377.648003,86.66 378.133998,86.2760038 378.458,85.508 C378.782002,84.7399962 378.944,83.8160054 378.944,82.736 Z M366.92,89.792 L364.688,89 L375.164,62.468 L377.396,63.26 L366.92,89.792 Z" id="10%"></path>
                    <path d="M357.316,184 L357.316,163.516 L353.068,166.72 L351.124,163.372 L357.676,158.512 L361.528,158.512 L361.528,184 L357.316,184 Z M383.704,171.256 C383.704,172.720007 383.602001,174.231992 383.398,175.792 C383.193999,177.352008 382.810003,178.779994 382.246,180.076 C381.681997,181.372006 380.896005,182.433996 379.888,183.262 C378.879995,184.090004 377.584008,184.504 376,184.504 C374.415992,184.504 373.126005,184.090004 372.13,183.262 C371.133995,182.433996 370.348003,181.372006 369.772,180.076 C369.195997,178.779994 368.806001,177.352008 368.602,175.792 C368.397999,174.231992 368.296,172.720007 368.296,171.256 C368.296,169.791993 368.397999,168.280008 368.602,166.72 C368.806001,165.159992 369.195997,163.732006 369.772,162.436 C370.348003,161.139994 371.133995,160.078004 372.13,159.25 C373.126005,158.421996 374.415992,158.008 376,158.008 C377.584008,158.008 378.879995,158.421996 379.888,159.25 C380.896005,160.078004 381.681997,161.139994 382.246,162.436 C382.810003,163.732006 383.193999,165.159992 383.398,166.72 C383.602001,168.280008 383.704,169.791993 383.704,171.256 Z M379.348,171.256 C379.348,170.391996 379.312,169.414005 379.24,168.322 C379.168,167.229995 379.018001,166.210005 378.79,165.262 C378.561999,164.313995 378.226002,163.510003 377.782,162.85 C377.337998,162.189997 376.744004,161.86 376,161.86 C375.255996,161.86 374.662002,162.189997 374.218,162.85 C373.773998,163.510003 373.438001,164.313995 373.21,165.262 C372.981999,166.210005 372.832,167.229995 372.76,168.322 C372.688,169.414005 372.652,170.391996 372.652,171.256 C372.652,172.120004 372.688,173.097995 372.76,174.19 C372.832,175.282005 372.981999,176.307995 373.21,177.268 C373.438001,178.228005 373.773998,179.031997 374.218,179.68 C374.662002,180.328003 375.255996,180.652 376,180.652 C376.744004,180.652 377.337998,180.328003 377.782,179.68 C378.226002,179.031997 378.561999,178.228005 378.79,177.268 C379.018001,176.307995 379.168,175.282005 379.24,174.19 C379.312,173.097995 379.348,172.120004 379.348,171.256 Z M396.088,164.812 C396.088,165.772005 395.974001,166.659996 395.746,167.476 C395.517999,168.292004 395.194002,168.993997 394.774,169.582 C394.353998,170.170003 393.832003,170.631998 393.208,170.968 C392.583997,171.304002 391.876004,171.472 391.084,171.472 C390.315996,171.472 389.626003,171.304002 389.014,170.968 C388.401997,170.631998 387.880002,170.170003 387.448,169.582 C387.015998,168.993997 386.686001,168.292004 386.458,167.476 C386.229999,166.659996 386.116,165.772005 386.116,164.812 C386.116,163.851995 386.229999,162.958004 386.458,162.13 C386.686001,161.301996 387.009998,160.588003 387.43,159.988 C387.850002,159.387997 388.365997,158.920002 388.978,158.584 C389.590003,158.247998 390.291996,158.08 391.084,158.08 C391.876004,158.08 392.583997,158.247998 393.208,158.584 C393.832003,158.920002 394.353998,159.387997 394.774,159.988 C395.194002,160.588003 395.517999,161.301996 395.746,162.13 C395.974001,162.958004 396.088,163.851995 396.088,164.812 Z M393.064,164.776 C393.064,163.647994 392.896002,162.712004 392.56,161.968 C392.223998,161.223996 391.732003,160.852 391.084,160.852 C390.459997,160.852 389.980002,161.223996 389.644,161.968 C389.307998,162.712004 389.14,163.647994 389.14,164.776 C389.14,165.856005 389.307998,166.779996 389.644,167.548 C389.980002,168.316004 390.459997,168.7 391.084,168.7 C391.732003,168.7 392.223998,168.316004 392.56,167.548 C392.896002,166.779996 393.064,165.856005 393.064,164.776 Z M408.004,177.772 C408.004,178.732005 407.890001,179.619996 407.662,180.436 C407.433999,181.252004 407.104002,181.953997 406.672,182.542 C406.239998,183.130003 405.718003,183.591998 405.106,183.928 C404.493997,184.264002 403.792004,184.432 403,184.432 C402.231996,184.432 401.536003,184.264002 400.912,183.928 C400.287997,183.591998 399.760002,183.130003 399.328,182.542 C398.895998,181.953997 398.566001,181.252004 398.338,180.436 C398.109999,179.619996 397.996,178.732005 397.996,177.772 C397.996,176.811995 398.109999,175.918004 398.338,175.09 C398.566001,174.261996 398.895998,173.548003 399.328,172.948 C399.760002,172.347997 400.281997,171.880002 400.894,171.544 C401.506003,171.207998 402.207996,171.04 403,171.04 C403.792004,171.04 404.493997,171.207998 405.106,171.544 C405.718003,171.880002 406.239998,172.347997 406.672,172.948 C407.104002,173.548003 407.433999,174.261996 407.662,175.09 C407.890001,175.918004 408.004,176.811995 408.004,177.772 Z M404.944,177.736 C404.944,176.607994 404.782002,175.672004 404.458,174.928 C404.133998,174.183996 403.648003,173.812 403,173.812 C402.351997,173.812 401.866002,174.183996 401.542,174.928 C401.217998,175.672004 401.056,176.607994 401.056,177.736 C401.056,178.816005 401.217998,179.739996 401.542,180.508 C401.866002,181.276004 402.351997,181.66 403,181.66 C403.648003,181.66 404.133998,181.276004 404.458,180.508 C404.782002,179.739996 404.944,178.816005 404.944,177.736 Z M392.92,184.792 L390.688,184 L401.164,157.468 L403.396,158.26 L392.92,184.792 Z" id="10%-copy"></path>
                </g>
            </g>
        </g>
    </g>
</svg>