<?xml version="1.0" encoding="utf-8"?>
<!-- Generator: Adobe Illustrator 15.0.0, SVG Export Plug-In . SVG Version: 6.00 Build 0)  -->
<!DOCTYPE svg PUBLIC "-//W3C//DTD SVG 1.1//EN" "http://www.w3.org/Graphics/SVG/1.1/DTD/svg11.dtd">
<svg version="1.1" id="Layer_1" xmlns="http://www.w3.org/2000/svg" xmlns:xlink="http://www.w3.org/1999/xlink" x="0px" y="0px"
	 width="451px" height="374px" viewBox="0 0 451 374" enable-background="new 0 0 451 374" xml:space="preserve">
<title>iPhone 7</title>
<desc>Created with Sketch.</desc>
<g>
	<defs>
		<path id="SVGID_1_" d="M228.18,96.937c10.033,0,19.693,1.587,28.746,4.526l12.971-39.919c-13.473-4.378-27.551-6.607-41.717-6.607
			V96.937z"/>
	</defs>
	<clipPath id="SVGID_2_">
		<use xlink:href="#SVGID_1_"  overflow="visible"/>
	</clipPath>
	<g clip-path="url(#SVGID_2_)">
		<defs>
			<rect id="SVGID_3_" x="4.093" y="-0.13" width="451" height="374"/>
		</defs>
		<clipPath id="SVGID_4_">
			<use xlink:href="#SVGID_3_"  overflow="visible"/>
		</clipPath>
		<g clip-path="url(#SVGID_4_)" enable-background="new    ">
			<g>
				<defs>
					<rect id="SVGID_5_" x="223.093" y="49.87" width="52" height="57"/>
				</defs>
				<clipPath id="SVGID_6_">
					<use xlink:href="#SVGID_5_"  overflow="visible"/>
				</clipPath>
				<g clip-path="url(#SVGID_6_)">
					<defs>
						<rect id="SVGID_7_" x="223.179" y="49.936" width="51.717" height="56.527"/>
					</defs>
					<clipPath id="SVGID_8_">
						<use xlink:href="#SVGID_7_"  overflow="visible"/>
					</clipPath>
					<g clip-path="url(#SVGID_8_)">
						<defs>
							<rect id="SVGID_9_" x="228.094" y="54.87" width="42" height="47"/>
						</defs>
						<clipPath id="SVGID_10_">
							<use xlink:href="#SVGID_9_"  overflow="visible"/>
						</clipPath>
						<rect x="218.179" y="44.936" clip-path="url(#SVGID_10_)" fill="#9AD2AC" width="61.717" height="66.527"/>
					</g>
				</g>
			</g>
		</g>
	</g>
</g>
<g>
	<defs>
		<path id="SVGID_11_" d="M256.926,101.464c9.383,3.046,18.111,7.545,25.922,13.228l24.684-33.972
			c-11.461-8.326-24.16-14.799-37.635-19.176L256.926,101.464z"/>
	</defs>
	<clipPath id="SVGID_12_">
		<use xlink:href="#SVGID_11_"  overflow="visible"/>
	</clipPath>
	<g clip-path="url(#SVGID_12_)">
		<defs>
			<rect id="SVGID_13_" x="4.093" y="-0.13" width="451" height="374"/>
		</defs>
		<clipPath id="SVGID_14_">
			<use xlink:href="#SVGID_13_"  overflow="visible"/>
		</clipPath>
		<g clip-path="url(#SVGID_14_)" enable-background="new    ">
			<g>
				<defs>
					<rect id="SVGID_15_" x="251.094" y="55.87" width="62" height="64"/>
				</defs>
				<clipPath id="SVGID_16_">
					<use xlink:href="#SVGID_15_"  overflow="visible"/>
				</clipPath>
				<g clip-path="url(#SVGID_16_)">
					<defs>
						<rect id="SVGID_17_" x="251.926" y="56.544" width="60.604" height="63.148"/>
					</defs>
					<clipPath id="SVGID_18_">
						<use xlink:href="#SVGID_17_"  overflow="visible"/>
					</clipPath>
					<g clip-path="url(#SVGID_18_)">
						<defs>
							<rect id="SVGID_19_" x="256.094" y="60.87" width="52" height="54"/>
						</defs>
						<clipPath id="SVGID_20_">
							<use xlink:href="#SVGID_19_"  overflow="visible"/>
						</clipPath>
						<rect x="246.926" y="51.544" clip-path="url(#SVGID_20_)" fill="#FDE885" width="70.604" height="73.148"/>
					</g>
				</g>
			</g>
		</g>
	</g>
</g>
<g>
	<defs>
		<path id="SVGID_21_" d="M282.848,114.692c15.695,11.425,27.68,27.641,33.803,46.499l39.92-12.971
			c-8.809-27.114-25.977-50.743-49.039-67.5L282.848,114.692z"/>
	</defs>
	<clipPath id="SVGID_22_">
		<use xlink:href="#SVGID_21_"  overflow="visible"/>
	</clipPath>
	<g clip-path="url(#SVGID_22_)">
		<defs>
			<rect id="SVGID_23_" x="4.093" y="-0.13" width="451" height="374"/>
		</defs>
		<clipPath id="SVGID_24_">
			<use xlink:href="#SVGID_23_"  overflow="visible"/>
		</clipPath>
		<g clip-path="url(#SVGID_24_)" enable-background="new    ">
			<g>
				<defs>
					<rect id="SVGID_25_" x="277.094" y="74.87" width="85" height="92"/>
				</defs>
				<clipPath id="SVGID_26_">
					<use xlink:href="#SVGID_25_"  overflow="visible"/>
				</clipPath>
				<g clip-path="url(#SVGID_26_)">
					<defs>
						<rect id="SVGID_27_" x="277.848" y="75.719" width="83.725" height="90.471"/>
					</defs>
					<clipPath id="SVGID_28_">
						<use xlink:href="#SVGID_27_"  overflow="visible"/>
					</clipPath>
					<g clip-path="url(#SVGID_28_)">
						<defs>
							<rect id="SVGID_29_" x="282.094" y="79.87" width="75" height="82"/>
						</defs>
						<clipPath id="SVGID_30_">
							<use xlink:href="#SVGID_29_"  overflow="visible"/>
						</clipPath>
						<rect x="272.848" y="70.719" clip-path="url(#SVGID_30_)" fill="#FCC275" width="93.725" height="100.471"/>
					</g>
				</g>
			</g>
		</g>
	</g>
</g>
<g>
	<defs>
		<path id="SVGID_31_" d="M316.65,161.19c2.939,9.053,4.529,18.714,4.529,28.747c0,10.031-1.59,19.692-4.529,28.746l39.92,12.97
			c8.812-27.113,8.812-56.32,0-83.434L316.65,161.19z"/>
	</defs>
	<clipPath id="SVGID_32_">
		<use xlink:href="#SVGID_31_"  overflow="visible"/>
	</clipPath>
	<g clip-path="url(#SVGID_32_)">
		<defs>
			<rect id="SVGID_33_" x="4.093" y="-0.13" width="451" height="374"/>
		</defs>
		<clipPath id="SVGID_34_">
			<use xlink:href="#SVGID_33_"  overflow="visible"/>
		</clipPath>
		<g clip-path="url(#SVGID_34_)" enable-background="new    ">
			<g>
				<defs>
					<rect id="SVGID_35_" x="311.094" y="142.87" width="58" height="94"/>
				</defs>
				<clipPath id="SVGID_36_">
					<use xlink:href="#SVGID_35_"  overflow="visible"/>
				</clipPath>
				<g clip-path="url(#SVGID_36_)">
					<defs>
						<rect id="SVGID_37_" x="311.65" y="143.219" width="56.529" height="93.434"/>
					</defs>
					<clipPath id="SVGID_38_">
						<use xlink:href="#SVGID_37_"  overflow="visible"/>
					</clipPath>
					<g clip-path="url(#SVGID_38_)">
						<defs>
							<rect id="SVGID_39_" x="316.094" y="147.87" width="50" height="84"/>
						</defs>
						<clipPath id="SVGID_40_">
							<use xlink:href="#SVGID_39_"  overflow="visible"/>
						</clipPath>
						<rect x="306.65" y="138.219" clip-path="url(#SVGID_40_)" fill="#A7A6D2" width="66.529" height="103.434"/>
					</g>
				</g>
			</g>
		</g>
	</g>
</g>
<g>
	<defs>
		<path id="SVGID_41_" d="M99.786,148.22c-18.073,55.623,1.726,116.557,49.042,150.934l24.683-33.974
			c-23.231-16.906-38.332-44.312-38.332-75.242c0-51.363,41.639-93,93-93v-42C169.695,54.937,117.859,92.596,99.786,148.22z"/>
	</defs>
	<clipPath id="SVGID_42_">
		<use xlink:href="#SVGID_41_"  overflow="visible"/>
	</clipPath>
	<g clip-path="url(#SVGID_42_)">
		<defs>
			<rect id="SVGID_43_" x="4.093" y="-0.13" width="451" height="374"/>
		</defs>
		<clipPath id="SVGID_44_">
			<use xlink:href="#SVGID_43_"  overflow="visible"/>
		</clipPath>
		<g clip-path="url(#SVGID_44_)" enable-background="new    ">
			<g>
				<defs>
					<rect id="SVGID_45_" x="88.093" y="49.87" width="146" height="255"/>
				</defs>
				<clipPath id="SVGID_46_">
					<use xlink:href="#SVGID_45_"  overflow="visible"/>
				</clipPath>
				<g clip-path="url(#SVGID_46_)">
					<defs>
						<rect id="SVGID_47_" x="88.169" y="49.936" width="145.01" height="254.217"/>
					</defs>
					<clipPath id="SVGID_48_">
						<use xlink:href="#SVGID_47_"  overflow="visible"/>
					</clipPath>
					<g clip-path="url(#SVGID_48_)">
						<defs>
							<rect id="SVGID_49_" x="88.093" y="54.87" width="141" height="245"/>
						</defs>
						<clipPath id="SVGID_50_">
							<use xlink:href="#SVGID_49_"  overflow="visible"/>
						</clipPath>
						<rect x="83.169" y="44.936" clip-path="url(#SVGID_50_)" fill="#33C4F2" width="155.01" height="264.217"/>
					</g>
				</g>
			</g>
		</g>
	</g>
</g>
<g>
	<defs>
		<path id="SVGID_51_" d="M228.18,282.937c-20.431,0-39.323-6.589-54.668-17.757l-24.683,33.974
			c34.962,25.402,79.969,32.531,121.068,19.176c41.1-13.353,73.322-45.575,86.674-86.676l-39.92-12.97
			C304.543,255.977,269.51,282.937,228.18,282.937z"/>
	</defs>
	<clipPath id="SVGID_52_">
		<use xlink:href="#SVGID_51_"  overflow="visible"/>
	</clipPath>
	<g clip-path="url(#SVGID_52_)">
		<defs>
			<rect id="SVGID_53_" x="4.093" y="-0.13" width="451" height="374"/>
		</defs>
		<clipPath id="SVGID_54_">
			<use xlink:href="#SVGID_53_"  overflow="visible"/>
		</clipPath>
		<g clip-path="url(#SVGID_54_)" enable-background="new    ">
			<g>
				<defs>
					<rect id="SVGID_55_" x="143.093" y="212.87" width="219" height="118"/>
				</defs>
				<clipPath id="SVGID_56_">
					<use xlink:href="#SVGID_55_"  overflow="visible"/>
				</clipPath>
				<g clip-path="url(#SVGID_56_)">
					<defs>
						<rect id="SVGID_57_" x="143.828" y="213.682" width="217.744" height="116.257"/>
					</defs>
					<clipPath id="SVGID_58_">
						<use xlink:href="#SVGID_57_"  overflow="visible"/>
					</clipPath>
					<g clip-path="url(#SVGID_58_)">
						<defs>
							<rect id="SVGID_59_" x="148.093" y="217.87" width="209" height="113"/>
						</defs>
						<clipPath id="SVGID_60_">
							<use xlink:href="#SVGID_59_"  overflow="visible"/>
						</clipPath>
						<rect x="138.828" y="208.683" clip-path="url(#SVGID_60_)" fill="#EF6A9C" width="227.744" height="126.256"/>
					</g>
				</g>
			</g>
		</g>
	</g>
</g>
<g>
	<defs>
		<path id="SVGID_61_" d="M64.013,178.662l-2.232-0.792l10.476-26.532l2.232,0.792L64.013,178.662z M76.037,171.606
			c0-1.129-0.162-2.064-0.486-2.809s-0.81-1.115-1.458-1.115s-1.134,0.371-1.458,1.115s-0.486,1.68-0.486,2.809
			c0,1.08,0.162,2.004,0.486,2.771s0.81,1.152,1.458,1.152s1.134-0.385,1.458-1.152S76.037,172.687,76.037,171.606z M79.097,171.642
			c0,0.961-0.114,1.849-0.342,2.664c-0.228,0.816-0.558,1.519-0.99,2.106c-0.432,0.588-0.954,1.05-1.566,1.386
			s-1.314,0.504-2.106,0.504c-0.768,0-1.464-0.168-2.088-0.504s-1.152-0.798-1.584-1.386c-0.432-0.588-0.762-1.29-0.99-2.106
			c-0.228-0.815-0.342-1.703-0.342-2.664c0-0.959,0.114-1.854,0.342-2.682s0.558-1.542,0.99-2.142
			c0.432-0.601,0.954-1.068,1.566-1.404s1.314-0.504,2.106-0.504s1.494,0.168,2.106,0.504s1.134,0.804,1.566,1.404
			c0.432,0.6,0.762,1.313,0.99,2.142S79.097,170.683,79.097,171.642z M64.157,158.646c0-1.127-0.168-2.063-0.504-2.808
			c-0.336-0.743-0.828-1.116-1.476-1.116c-0.624,0-1.104,0.373-1.44,1.116c-0.336,0.744-0.504,1.681-0.504,2.808
			c0,1.08,0.168,2.004,0.504,2.772s0.816,1.152,1.44,1.152c0.648,0,1.14-0.384,1.476-1.152S64.157,159.726,64.157,158.646z
			 M67.181,158.683c0,0.959-0.114,1.848-0.342,2.664c-0.228,0.815-0.552,1.518-0.972,2.105s-0.942,1.05-1.566,1.386
			c-0.624,0.337-1.332,0.505-2.124,0.505c-0.768,0-1.458-0.168-2.07-0.505c-0.612-0.336-1.134-0.798-1.566-1.386
			c-0.432-0.588-0.762-1.29-0.99-2.105c-0.228-0.816-0.342-1.705-0.342-2.664c0-0.961,0.114-1.854,0.342-2.683
			s0.552-1.542,0.972-2.142c0.42-0.6,0.936-1.068,1.548-1.404s1.314-0.504,2.106-0.504s1.5,0.168,2.124,0.504
			s1.146,0.805,1.566,1.404s0.744,1.313,0.972,2.142S67.181,157.722,67.181,158.683z M50.441,165.126
			c0-0.863-0.036-1.842-0.108-2.934c-0.072-1.092-0.222-2.112-0.45-3.061c-0.228-0.947-0.564-1.752-1.008-2.412
			c-0.444-0.66-1.038-0.99-1.782-0.99s-1.338,0.33-1.782,0.99c-0.444,0.66-0.78,1.465-1.008,2.412
			c-0.228,0.948-0.378,1.969-0.45,3.061c-0.072,1.092-0.108,2.07-0.108,2.934c0,0.864,0.036,1.842,0.108,2.934
			c0.072,1.093,0.222,2.119,0.45,3.078c0.228,0.961,0.564,1.765,1.008,2.412c0.444,0.648,1.038,0.973,1.782,0.973
			s1.338-0.324,1.782-0.973c0.444-0.647,0.78-1.451,1.008-2.412c0.228-0.959,0.378-1.985,0.45-3.078
			C50.405,166.968,50.441,165.99,50.441,165.126z M54.797,165.126c0,1.465-0.102,2.977-0.306,4.536s-0.588,2.987-1.152,4.284
			c-0.564,1.296-1.35,2.357-2.358,3.186c-1.008,0.828-2.304,1.242-3.888,1.242s-2.874-0.414-3.87-1.242s-1.782-1.89-2.358-3.186
			c-0.576-1.297-0.966-2.725-1.17-4.284s-0.306-3.071-0.306-4.536c0-1.464,0.102-2.977,0.306-4.535
			c0.204-1.561,0.594-2.988,1.17-4.285c0.576-1.295,1.362-2.357,2.358-3.186s2.286-1.242,3.87-1.242s2.88,0.414,3.888,1.242
			c1.008,0.828,1.794,1.891,2.358,3.186c0.564,1.297,0.948,2.725,1.152,4.285C54.695,162.149,54.797,163.662,54.797,165.126z
			 M30.389,156.595h-0.072l-5.436,12.131h5.508V156.595z M34.169,172.326v5.544h-3.888v-5.544h-9.216v-3.78l7.704-16.164h5.4v16.344
			h2.808v3.601H34.169z"/>
	</defs>
	<clipPath id="SVGID_62_">
		<use xlink:href="#SVGID_61_"  overflow="visible"/>
	</clipPath>
	<g clip-path="url(#SVGID_62_)">
		<defs>
			<rect id="SVGID_63_" x="4.093" y="-0.13" width="451" height="374"/>
		</defs>
		<clipPath id="SVGID_64_">
			<use xlink:href="#SVGID_63_"  overflow="visible"/>
		</clipPath>
		<rect x="16.065" y="146.338" clip-path="url(#SVGID_64_)" fill="#252526" width="68.032" height="37.324"/>
	</g>
</g>
<g>
	<defs>
		<path id="SVGID_65_" d="M318.014,356.662l-2.232-0.792l10.477-26.532l2.232,0.792L318.014,356.662z M330.037,349.606
			c0-1.128-0.162-2.064-0.486-2.809s-0.809-1.116-1.457-1.116s-1.135,0.372-1.459,1.116s-0.486,1.681-0.486,2.809
			c0,1.08,0.162,2.004,0.486,2.771c0.324,0.769,0.811,1.152,1.459,1.152s1.133-0.384,1.457-1.152
			C329.875,351.61,330.037,350.687,330.037,349.606z M333.098,349.643c0,0.96-0.115,1.848-0.342,2.663
			c-0.229,0.816-0.559,1.519-0.99,2.106s-0.955,1.05-1.566,1.386s-1.314,0.504-2.105,0.504c-0.768,0-1.465-0.168-2.088-0.504
			c-0.625-0.336-1.152-0.798-1.584-1.386s-0.762-1.29-0.99-2.106c-0.229-0.815-0.342-1.703-0.342-2.663
			c0-0.961,0.113-1.854,0.342-2.683s0.559-1.542,0.99-2.142c0.432-0.601,0.953-1.068,1.564-1.404
			c0.613-0.336,1.314-0.504,2.107-0.504c0.791,0,1.494,0.168,2.105,0.504s1.135,0.804,1.566,1.404c0.432,0.6,0.762,1.313,0.99,2.142
			C332.982,347.788,333.098,348.682,333.098,349.643z M318.158,336.646c0-1.128-0.168-2.064-0.506-2.809
			c-0.336-0.744-0.826-1.116-1.475-1.116c-0.625,0-1.104,0.372-1.441,1.116c-0.336,0.744-0.504,1.681-0.504,2.809
			c0,1.08,0.168,2.004,0.504,2.771c0.338,0.769,0.816,1.152,1.441,1.152c0.648,0,1.139-0.384,1.475-1.152
			C317.99,338.65,318.158,337.727,318.158,336.646z M321.182,336.682c0,0.961-0.115,1.849-0.342,2.664
			c-0.229,0.816-0.553,1.519-0.973,2.106s-0.941,1.05-1.566,1.386c-0.623,0.336-1.332,0.504-2.123,0.504
			c-0.768,0-1.459-0.168-2.07-0.504s-1.135-0.798-1.566-1.386s-0.762-1.29-0.99-2.106c-0.227-0.815-0.342-1.703-0.342-2.664
			c0-0.96,0.115-1.854,0.342-2.682c0.229-0.828,0.553-1.542,0.973-2.142c0.42-0.601,0.936-1.068,1.547-1.404
			c0.613-0.336,1.314-0.504,2.107-0.504c0.791,0,1.5,0.168,2.123,0.504c0.625,0.336,1.146,0.804,1.566,1.404
			c0.42,0.6,0.744,1.313,0.973,2.142C321.066,334.828,321.182,335.722,321.182,336.682z M304.441,343.126
			c0-0.864-0.035-1.842-0.107-2.934s-0.223-2.112-0.451-3.061c-0.227-0.947-0.564-1.752-1.008-2.412
			c-0.443-0.659-1.037-0.989-1.781-0.989s-1.338,0.33-1.783,0.989c-0.443,0.66-0.779,1.465-1.008,2.412
			c-0.227,0.948-0.377,1.969-0.449,3.061s-0.107,2.069-0.107,2.934s0.035,1.842,0.107,2.935c0.072,1.092,0.223,2.117,0.449,3.077
			c0.229,0.96,0.564,1.765,1.008,2.412c0.445,0.648,1.039,0.973,1.783,0.973s1.338-0.324,1.781-0.973
			c0.443-0.647,0.781-1.452,1.008-2.412c0.229-0.96,0.379-1.985,0.451-3.077C304.406,344.968,304.441,343.99,304.441,343.126z
			 M308.797,343.126c0,1.464-0.102,2.977-0.305,4.536c-0.205,1.56-0.59,2.988-1.152,4.284c-0.564,1.296-1.35,2.357-2.359,3.186
			c-1.008,0.828-2.303,1.242-3.887,1.242s-2.875-0.414-3.871-1.242s-1.781-1.89-2.357-3.186s-0.967-2.725-1.17-4.284
			s-0.307-3.072-0.307-4.536s0.104-2.976,0.307-4.536c0.203-1.56,0.594-2.987,1.17-4.284c0.576-1.296,1.361-2.357,2.357-3.186
			s2.287-1.242,3.871-1.242s2.879,0.414,3.887,1.242c1.01,0.828,1.795,1.89,2.359,3.186c0.562,1.297,0.947,2.725,1.152,4.284
			C308.695,340.15,308.797,341.662,308.797,343.126z M290.221,348.67c0,1.128-0.18,2.166-0.539,3.114
			c-0.361,0.948-0.865,1.764-1.512,2.448c-0.648,0.684-1.436,1.212-2.359,1.584s-1.938,0.558-3.041,0.558
			c-1.92,0-3.541-0.486-4.859-1.458c-1.32-0.972-2.221-2.418-2.701-4.338l3.816-1.008c0.264,0.912,0.689,1.649,1.277,2.214
			c0.588,0.563,1.35,0.846,2.287,0.846c0.6,0,1.115-0.12,1.547-0.359c0.432-0.24,0.793-0.559,1.08-0.954
			c0.289-0.396,0.498-0.84,0.631-1.332c0.131-0.492,0.197-0.99,0.197-1.494c0-1.368-0.383-2.4-1.152-3.096
			c-0.768-0.696-1.764-1.044-2.986-1.044h-1.08v-3.349h1.188c1.08,0,1.938-0.342,2.574-1.025c0.635-0.685,0.953-1.639,0.953-2.862
			c0-0.408-0.055-0.822-0.162-1.242s-0.281-0.798-0.521-1.134s-0.553-0.612-0.936-0.828c-0.385-0.216-0.84-0.324-1.369-0.324
			c-0.695,0-1.283,0.229-1.764,0.685s-0.852,1.031-1.115,1.728l-3.744-1.044c0.287-0.888,0.684-1.656,1.188-2.304
			c0.504-0.648,1.068-1.177,1.691-1.584c0.625-0.408,1.285-0.708,1.98-0.9s1.393-0.288,2.088-0.288c0.936,0,1.812,0.15,2.629,0.45
			c0.814,0.3,1.535,0.738,2.16,1.314c0.623,0.575,1.115,1.277,1.475,2.105c0.361,0.828,0.541,1.771,0.541,2.826
			c0,1.439-0.324,2.7-0.973,3.78s-1.561,1.775-2.736,2.088v0.107c1.297,0.336,2.328,1.062,3.096,2.179
			C289.838,345.844,290.221,347.158,290.221,348.67z"/>
	</defs>
	<clipPath id="SVGID_66_">
		<use xlink:href="#SVGID_65_"  overflow="visible"/>
	</clipPath>
	<g clip-path="url(#SVGID_66_)">
		<defs>
			<rect id="SVGID_67_" x="4.093" y="-0.13" width="451" height="374"/>
		</defs>
		<clipPath id="SVGID_68_">
			<use xlink:href="#SVGID_67_"  overflow="visible"/>
		</clipPath>
		<rect x="270.209" y="324.338" clip-path="url(#SVGID_68_)" fill="#252526" width="67.889" height="37.324"/>
	</g>
</g>
<g>
	<defs>
		<path id="SVGID_69_" d="M254.014,44.662l-2.232-0.792l10.477-26.532l2.232,0.792L254.014,44.662z M266.037,37.606
			c0-1.128-0.162-2.064-0.486-2.808c-0.324-0.744-0.809-1.116-1.457-1.116s-1.135,0.372-1.459,1.116
			c-0.324,0.744-0.486,1.68-0.486,2.808c0,1.08,0.162,2.004,0.486,2.772c0.324,0.768,0.811,1.152,1.459,1.152
			s1.133-0.384,1.457-1.152C265.875,39.61,266.037,38.686,266.037,37.606z M269.098,37.642c0,0.96-0.115,1.848-0.342,2.664
			c-0.229,0.816-0.559,1.518-0.99,2.106s-0.955,1.05-1.566,1.386c-0.611,0.336-1.314,0.504-2.105,0.504
			c-0.768,0-1.465-0.168-2.088-0.504c-0.625-0.336-1.152-0.798-1.584-1.386s-0.762-1.29-0.99-2.106s-0.342-1.704-0.342-2.664
			s0.113-1.854,0.342-2.682c0.229-0.828,0.559-1.542,0.99-2.142c0.432-0.6,0.953-1.068,1.564-1.404
			c0.613-0.336,1.314-0.504,2.107-0.504c0.791,0,1.494,0.168,2.105,0.504s1.135,0.804,1.566,1.404c0.432,0.6,0.762,1.314,0.99,2.142
			C268.982,35.788,269.098,36.682,269.098,37.642z M254.158,24.646c0-1.128-0.168-2.064-0.506-2.808
			c-0.336-0.744-0.826-1.116-1.475-1.116c-0.625,0-1.104,0.372-1.441,1.116c-0.336,0.744-0.504,1.68-0.504,2.808
			c0,1.08,0.168,2.004,0.504,2.772c0.338,0.768,0.816,1.152,1.441,1.152c0.648,0,1.139-0.384,1.475-1.152
			C253.99,26.65,254.158,25.726,254.158,24.646z M257.182,24.682c0,0.96-0.115,1.848-0.342,2.664
			c-0.229,0.816-0.553,1.518-0.973,2.106s-0.941,1.05-1.566,1.386c-0.623,0.336-1.332,0.504-2.123,0.504
			c-0.768,0-1.459-0.168-2.07-0.504c-0.611-0.336-1.135-0.798-1.566-1.386s-0.762-1.29-0.99-2.106
			c-0.227-0.816-0.342-1.704-0.342-2.664s0.115-1.854,0.342-2.682c0.229-0.828,0.553-1.542,0.973-2.142
			c0.42-0.6,0.936-1.068,1.547-1.404c0.613-0.336,1.314-0.504,2.107-0.504c0.791,0,1.5,0.168,2.123,0.504
			c0.625,0.336,1.146,0.804,1.566,1.404c0.42,0.6,0.744,1.314,0.973,2.142C257.066,22.828,257.182,23.722,257.182,24.682z
			 M244.148,35.626c0,1.44-0.191,2.7-0.574,3.78c-0.385,1.08-0.906,1.992-1.566,2.736s-1.447,1.302-2.359,1.674
			c-0.912,0.372-1.895,0.558-2.951,0.558c-1.801,0-3.33-0.48-4.59-1.44s-2.131-2.364-2.609-4.212l3.707-1.224
			c0.289,0.912,0.715,1.65,1.277,2.214c0.564,0.564,1.268,0.846,2.107,0.846c1.055,0,1.877-0.438,2.465-1.314
			s0.883-2.034,0.883-3.474c0-1.56-0.373-2.76-1.117-3.6c-0.742-0.84-1.738-1.26-2.986-1.26c-0.721,0-1.531,0.108-2.432,0.324
			c-0.898,0.216-1.66,0.492-2.285,0.828l0.432-13.68h11.701v3.78h-8.029l-0.252,5.94c0.336-0.168,0.727-0.294,1.17-0.378
			c0.445-0.084,0.834-0.126,1.17-0.126c1.105,0,2.082,0.192,2.936,0.576c0.852,0.384,1.564,0.93,2.141,1.638
			s1.014,1.554,1.314,2.538S244.148,34.426,244.148,35.626z"/>
	</defs>
	<clipPath id="SVGID_70_">
		<use xlink:href="#SVGID_69_"  overflow="visible"/>
	</clipPath>
	<g clip-path="url(#SVGID_70_)">
		<defs>
			<rect id="SVGID_71_" x="4.093" y="-0.13" width="451" height="374"/>
		</defs>
		<clipPath id="SVGID_72_">
			<use xlink:href="#SVGID_71_"  overflow="visible"/>
		</clipPath>
		<rect x="224.498" y="12.338" clip-path="url(#SVGID_72_)" fill="#252526" width="49.6" height="37.324"/>
	</g>
</g>
<g>
	<defs>
		<path id="SVGID_73_" d="M317.014,61.662l-2.232-0.792l10.477-26.532l2.232,0.792L317.014,61.662z M329.037,54.606
			c0-1.128-0.162-2.064-0.486-2.808c-0.324-0.744-0.809-1.116-1.457-1.116s-1.135,0.372-1.459,1.116
			c-0.324,0.744-0.486,1.68-0.486,2.808c0,1.08,0.162,2.004,0.486,2.772c0.324,0.768,0.811,1.152,1.459,1.152
			s1.133-0.384,1.457-1.152C328.875,56.61,329.037,55.686,329.037,54.606z M332.098,54.642c0,0.96-0.115,1.848-0.342,2.664
			c-0.229,0.816-0.559,1.518-0.99,2.106s-0.955,1.05-1.566,1.386c-0.611,0.336-1.314,0.504-2.105,0.504
			c-0.768,0-1.465-0.168-2.088-0.504c-0.625-0.336-1.152-0.798-1.584-1.386s-0.762-1.29-0.99-2.106s-0.342-1.704-0.342-2.664
			s0.113-1.854,0.342-2.682c0.229-0.828,0.559-1.542,0.99-2.142c0.432-0.6,0.953-1.068,1.564-1.404
			c0.613-0.336,1.314-0.504,2.107-0.504c0.791,0,1.494,0.168,2.105,0.504s1.135,0.804,1.566,1.404c0.432,0.6,0.762,1.314,0.99,2.142
			C331.982,52.788,332.098,53.682,332.098,54.642z M317.158,41.646c0-1.128-0.168-2.064-0.506-2.808
			c-0.336-0.744-0.826-1.116-1.475-1.116c-0.625,0-1.104,0.372-1.441,1.116c-0.336,0.744-0.504,1.68-0.504,2.808
			c0,1.08,0.168,2.004,0.504,2.772c0.338,0.768,0.816,1.152,1.441,1.152c0.648,0,1.139-0.384,1.475-1.152
			C316.99,43.65,317.158,42.726,317.158,41.646z M320.182,41.682c0,0.96-0.115,1.848-0.342,2.664
			c-0.229,0.816-0.553,1.518-0.973,2.106s-0.941,1.05-1.566,1.386c-0.623,0.336-1.332,0.504-2.123,0.504
			c-0.768,0-1.459-0.168-2.07-0.504c-0.611-0.336-1.135-0.798-1.566-1.386s-0.762-1.29-0.99-2.106
			c-0.227-0.816-0.342-1.704-0.342-2.664s0.115-1.854,0.342-2.682c0.229-0.828,0.553-1.542,0.973-2.142
			c0.42-0.6,0.936-1.068,1.547-1.404c0.613-0.336,1.314-0.504,2.107-0.504c0.791,0,1.5,0.168,2.123,0.504
			c0.625,0.336,1.146,0.804,1.566,1.404c0.42,0.6,0.744,1.314,0.973,2.142C320.066,39.828,320.182,40.722,320.182,41.682z
			 M307.148,52.626c0,1.44-0.191,2.7-0.574,3.78c-0.385,1.08-0.906,1.992-1.566,2.736s-1.447,1.302-2.359,1.674
			c-0.912,0.372-1.895,0.558-2.951,0.558c-1.801,0-3.33-0.48-4.59-1.44s-2.131-2.364-2.609-4.212l3.707-1.224
			c0.289,0.912,0.715,1.65,1.277,2.214c0.564,0.564,1.268,0.846,2.107,0.846c1.055,0,1.877-0.438,2.465-1.314
			s0.883-2.034,0.883-3.474c0-1.56-0.373-2.76-1.117-3.6c-0.742-0.84-1.738-1.26-2.986-1.26c-0.721,0-1.531,0.108-2.432,0.324
			c-0.898,0.216-1.66,0.492-2.285,0.828l0.432-13.68h11.701v3.78h-8.029l-0.252,5.94c0.336-0.168,0.727-0.294,1.17-0.378
			c0.445-0.084,0.834-0.126,1.17-0.126c1.105,0,2.082,0.192,2.936,0.576c0.852,0.384,1.564,0.93,2.141,1.638
			s1.014,1.554,1.314,2.538S307.148,51.426,307.148,52.626z"/>
	</defs>
	<clipPath id="SVGID_74_">
		<use xlink:href="#SVGID_73_"  overflow="visible"/>
	</clipPath>
	<g clip-path="url(#SVGID_74_)">
		<defs>
			<rect id="SVGID_75_" x="4.093" y="-0.13" width="451" height="374"/>
		</defs>
		<clipPath id="SVGID_76_">
			<use xlink:href="#SVGID_75_"  overflow="visible"/>
		</clipPath>
		<rect x="287.498" y="29.338" clip-path="url(#SVGID_76_)" fill="#252526" width="49.6" height="37.324"/>
	</g>
</g>
<g>
	<defs>
		<path id="SVGID_77_" d="M387.014,106.662l-2.232-0.792l10.477-26.532l2.232,0.792L387.014,106.662z M399.037,99.606
			c0-1.128-0.162-2.064-0.486-2.808c-0.324-0.744-0.809-1.116-1.457-1.116s-1.135,0.372-1.459,1.116
			c-0.324,0.744-0.486,1.68-0.486,2.808c0,1.08,0.162,2.004,0.486,2.772c0.324,0.768,0.811,1.152,1.459,1.152
			s1.133-0.384,1.457-1.152C398.875,101.61,399.037,100.686,399.037,99.606z M402.098,99.642c0,0.96-0.115,1.848-0.342,2.664
			c-0.229,0.816-0.559,1.518-0.99,2.106s-0.955,1.05-1.566,1.386c-0.611,0.336-1.314,0.504-2.105,0.504
			c-0.768,0-1.465-0.168-2.088-0.504c-0.625-0.336-1.152-0.798-1.584-1.386s-0.762-1.29-0.99-2.106s-0.342-1.704-0.342-2.664
			s0.113-1.854,0.342-2.682c0.229-0.828,0.559-1.542,0.99-2.142c0.432-0.6,0.953-1.068,1.564-1.404
			c0.613-0.336,1.314-0.504,2.107-0.504c0.791,0,1.494,0.168,2.105,0.504s1.135,0.804,1.566,1.404c0.432,0.6,0.762,1.314,0.99,2.142
			C401.982,97.788,402.098,98.682,402.098,99.642z M387.158,86.646c0-1.128-0.168-2.064-0.506-2.808
			c-0.336-0.744-0.826-1.116-1.475-1.116c-0.625,0-1.104,0.372-1.441,1.116c-0.336,0.744-0.504,1.68-0.504,2.808
			c0,1.08,0.168,2.004,0.504,2.772c0.338,0.768,0.816,1.152,1.441,1.152c0.648,0,1.139-0.384,1.475-1.152
			C386.99,88.65,387.158,87.726,387.158,86.646z M390.182,86.682c0,0.96-0.115,1.848-0.342,2.664
			c-0.229,0.816-0.553,1.518-0.973,2.106s-0.941,1.05-1.566,1.386c-0.623,0.336-1.332,0.504-2.123,0.504
			c-0.768,0-1.459-0.168-2.07-0.504c-0.611-0.336-1.135-0.798-1.566-1.386s-0.762-1.29-0.99-2.106
			c-0.227-0.816-0.342-1.704-0.342-2.664s0.115-1.854,0.342-2.682c0.229-0.828,0.553-1.542,0.973-2.142
			c0.42-0.6,0.936-1.068,1.547-1.404c0.613-0.336,1.314-0.504,2.107-0.504c0.791,0,1.5,0.168,2.123,0.504
			c0.625,0.336,1.146,0.804,1.566,1.404c0.42,0.6,0.744,1.314,0.973,2.142C390.066,84.828,390.182,85.722,390.182,86.682z
			 M373.441,93.126c0-0.864-0.035-1.842-0.107-2.934c-0.072-1.092-0.223-2.112-0.451-3.06c-0.227-0.948-0.564-1.752-1.008-2.412
			c-0.443-0.66-1.037-0.99-1.781-0.99s-1.338,0.33-1.783,0.99c-0.443,0.66-0.779,1.464-1.008,2.412
			c-0.227,0.948-0.377,1.968-0.449,3.06c-0.072,1.092-0.107,2.07-0.107,2.934c0,0.864,0.035,1.842,0.107,2.934
			c0.072,1.092,0.223,2.118,0.449,3.078c0.229,0.96,0.564,1.764,1.008,2.412c0.445,0.648,1.039,0.972,1.783,0.972
			s1.338-0.324,1.781-0.972s0.781-1.452,1.008-2.412c0.229-0.96,0.379-1.986,0.451-3.078
			C373.406,94.968,373.441,93.99,373.441,93.126z M377.797,93.126c0,1.464-0.102,2.976-0.305,4.536
			c-0.205,1.56-0.59,2.988-1.152,4.284c-0.564,1.296-1.35,2.358-2.359,3.186c-1.008,0.828-2.303,1.242-3.887,1.242
			s-2.875-0.414-3.871-1.242c-0.996-0.828-1.781-1.89-2.357-3.186c-0.576-1.296-0.967-2.724-1.17-4.284s-0.307-3.072-0.307-4.536
			c0-1.464,0.104-2.976,0.307-4.536c0.203-1.56,0.594-2.988,1.17-4.284s1.361-2.358,2.357-3.186s2.287-1.242,3.871-1.242
			s2.879,0.414,3.887,1.242c1.01,0.828,1.795,1.89,2.359,3.186c0.562,1.296,0.947,2.724,1.152,4.284
			C377.695,90.15,377.797,91.662,377.797,93.126z M351.41,105.87V85.386l-4.248,3.204l-1.945-3.348l6.553-4.86h3.852v25.488H351.41z
			"/>
	</defs>
	<clipPath id="SVGID_78_">
		<use xlink:href="#SVGID_77_"  overflow="visible"/>
	</clipPath>
	<g clip-path="url(#SVGID_78_)">
		<defs>
			<rect id="SVGID_79_" x="4.093" y="-0.13" width="451" height="374"/>
		</defs>
		<clipPath id="SVGID_80_">
			<use xlink:href="#SVGID_79_"  overflow="visible"/>
		</clipPath>
		<rect x="340.217" y="74.338" clip-path="url(#SVGID_80_)" fill="#252526" width="66.881" height="37.324"/>
	</g>
</g>
<g>
	<defs>
		<path id="SVGID_81_" d="M413.014,201.662l-2.232-0.792l10.477-26.532l2.232,0.792L413.014,201.662z M425.037,194.606
			c0-1.128-0.162-2.064-0.486-2.809s-0.809-1.116-1.457-1.116s-1.135,0.372-1.459,1.116s-0.486,1.681-0.486,2.809
			c0,1.08,0.162,2.004,0.486,2.771c0.324,0.769,0.811,1.152,1.459,1.152s1.133-0.384,1.457-1.152
			C424.875,196.61,425.037,195.687,425.037,194.606z M428.098,194.643c0,0.96-0.115,1.848-0.342,2.663
			c-0.229,0.816-0.559,1.519-0.99,2.106s-0.955,1.05-1.566,1.386s-1.314,0.504-2.105,0.504c-0.768,0-1.465-0.168-2.088-0.504
			c-0.625-0.336-1.152-0.798-1.584-1.386s-0.762-1.29-0.99-2.106c-0.229-0.815-0.342-1.703-0.342-2.663
			c0-0.961,0.113-1.854,0.342-2.683s0.559-1.542,0.99-2.142c0.432-0.601,0.953-1.068,1.564-1.404
			c0.613-0.336,1.314-0.504,2.107-0.504c0.791,0,1.494,0.168,2.105,0.504s1.135,0.804,1.566,1.404c0.432,0.6,0.762,1.313,0.99,2.142
			C427.982,192.788,428.098,193.682,428.098,194.643z M413.158,181.646c0-1.127-0.168-2.063-0.506-2.808
			c-0.336-0.743-0.826-1.116-1.475-1.116c-0.625,0-1.104,0.373-1.441,1.116c-0.336,0.744-0.504,1.681-0.504,2.808
			c0,1.08,0.168,2.004,0.504,2.772c0.338,0.769,0.816,1.152,1.441,1.152c0.648,0,1.139-0.384,1.475-1.152
			C412.99,183.649,413.158,182.726,413.158,181.646z M416.182,181.683c0,0.959-0.115,1.848-0.342,2.664
			c-0.229,0.815-0.553,1.518-0.973,2.105s-0.941,1.05-1.566,1.386c-0.623,0.336-1.332,0.504-2.123,0.504
			c-0.768,0-1.459-0.168-2.07-0.504s-1.135-0.798-1.566-1.386s-0.762-1.29-0.99-2.105c-0.227-0.816-0.342-1.705-0.342-2.664
			c0-0.961,0.115-1.854,0.342-2.683c0.229-0.828,0.553-1.542,0.973-2.142s0.936-1.068,1.547-1.404
			c0.613-0.336,1.314-0.504,2.107-0.504c0.791,0,1.5,0.168,2.123,0.504c0.625,0.336,1.146,0.805,1.566,1.404
			s0.744,1.313,0.973,2.142C416.066,179.828,416.182,180.722,416.182,181.683z M399.441,188.126c0-0.863-0.035-1.842-0.107-2.934
			s-0.223-2.112-0.451-3.061c-0.227-0.947-0.564-1.752-1.008-2.412s-1.037-0.99-1.781-0.99s-1.338,0.33-1.783,0.99
			c-0.443,0.66-0.779,1.465-1.008,2.412c-0.227,0.948-0.377,1.969-0.449,3.061s-0.107,2.07-0.107,2.934
			c0,0.864,0.035,1.842,0.107,2.935c0.072,1.092,0.223,2.117,0.449,3.077c0.229,0.96,0.564,1.765,1.008,2.412
			c0.445,0.648,1.039,0.973,1.783,0.973s1.338-0.324,1.781-0.973c0.443-0.647,0.781-1.452,1.008-2.412
			c0.229-0.96,0.379-1.985,0.451-3.077C399.406,189.968,399.441,188.99,399.441,188.126z M403.797,188.126
			c0,1.464-0.102,2.977-0.305,4.536c-0.205,1.56-0.59,2.988-1.152,4.284c-0.564,1.296-1.35,2.357-2.359,3.186
			c-1.008,0.828-2.303,1.242-3.887,1.242s-2.875-0.414-3.871-1.242s-1.781-1.89-2.357-3.186s-0.967-2.725-1.17-4.284
			s-0.307-3.072-0.307-4.536s0.104-2.977,0.307-4.535c0.203-1.561,0.594-2.988,1.17-4.285c0.576-1.295,1.361-2.357,2.357-3.186
			s2.287-1.242,3.871-1.242s2.879,0.414,3.887,1.242c1.01,0.828,1.795,1.891,2.359,3.186c0.562,1.297,0.947,2.725,1.152,4.285
			C403.695,185.149,403.797,186.662,403.797,188.126z M377.41,200.87v-20.484l-4.248,3.205l-1.945-3.349l6.553-4.86h3.852v25.488
			H377.41z"/>
	</defs>
	<clipPath id="SVGID_82_">
		<use xlink:href="#SVGID_81_"  overflow="visible"/>
	</clipPath>
	<g clip-path="url(#SVGID_82_)">
		<defs>
			<rect id="SVGID_83_" x="4.093" y="-0.13" width="451" height="374"/>
		</defs>
		<clipPath id="SVGID_84_">
			<use xlink:href="#SVGID_83_"  overflow="visible"/>
		</clipPath>
		<rect x="366.217" y="169.338" clip-path="url(#SVGID_84_)" fill="#252526" width="66.881" height="37.324"/>
	</g>
</g>
</svg>
