<?xml version="1.0" encoding="utf-8"?>
<!-- Generator: Adobe Illustrator 15.0.0, SVG Export Plug-In . SVG Version: 6.00 Build 0)  -->
<!DOCTYPE svg PUBLIC "-//W3C//DTD SVG 1.1//EN" "http://www.w3.org/Graphics/SVG/1.1/DTD/svg11.dtd">
<svg version="1.1" id="Layer_1" xmlns="http://www.w3.org/2000/svg" xmlns:xlink="http://www.w3.org/1999/xlink" x="0px" y="0px"
	 width="463.477px" height="376.481px" viewBox="0 0 463.477 376.481" enable-background="new 0 0 463.477 376.481"
	 xml:space="preserve">
<g>
	<defs>
		<path id="SVGID_1_" d="M230.897,94.4v-42c14.166,0,28.244,2.229,41.717,6.607l-12.971,39.92
			C250.591,95.988,240.93,94.4,230.897,94.4z"/>
	</defs>
	<clipPath id="SVGID_2_">
		<use xlink:href="#SVGID_1_"  overflow="visible"/>
	</clipPath>
	<rect x="225.897" y="47.4" clip-path="url(#SVGID_2_)" fill="#9BD3AD" width="51.717" height="56.527"/>
</g>
<g>
	<defs>
		<path id="SVGID_3_" d="M259.644,98.928l12.971-39.92c13.475,4.377,26.174,10.849,37.634,19.175l-24.683,33.973
			C277.755,106.472,269.026,101.974,259.644,98.928z"/>
	</defs>
	<clipPath id="SVGID_4_">
		<use xlink:href="#SVGID_3_"  overflow="visible"/>
	</clipPath>
	<rect x="254.644" y="54.008" clip-path="url(#SVGID_4_)" fill="#FEE986" width="60.604" height="63.148"/>
</g>
<g>
	<defs>
		<path id="SVGID_5_" d="M285.565,112.156l24.683-33.973c23.064,16.757,40.232,40.386,49.042,67.5l-39.921,12.971
			C313.246,139.796,301.262,123.58,285.565,112.156z"/>
	</defs>
	<clipPath id="SVGID_6_">
		<use xlink:href="#SVGID_5_"  overflow="visible"/>
	</clipPath>
	<rect x="280.565" y="73.183" clip-path="url(#SVGID_6_)" fill="#FDC375" width="83.725" height="90.471"/>
</g>
<g>
	<defs>
		<path id="SVGID_7_" d="M319.369,216.146l39.921,12.971c8.811-27.113,8.811-56.32,0-83.434l-39.921,12.971
			c2.939,9.052,4.528,18.714,4.528,28.746S322.309,207.093,319.369,216.146z"/>
	</defs>
	<clipPath id="SVGID_8_">
		<use xlink:href="#SVGID_7_"  overflow="visible"/>
	</clipPath>
	<rect x="314.369" y="140.683" opacity="0.7174" clip-path="url(#SVGID_8_)" fill="#A8A7D3" width="56.528" height="93.434"/>
</g>
<g>
	<defs>
		<path id="SVGID_9_" d="M176.229,262.644l-24.683,33.973c-47.316-34.377-67.115-95.311-49.042-150.934
			C120.578,90.06,172.413,52.4,230.897,52.4v42c-51.362,0-93,41.638-93,93C137.897,218.332,152.999,245.736,176.229,262.644z"/>
	</defs>
	<clipPath id="SVGID_10_">
		<use xlink:href="#SVGID_9_"  overflow="visible"/>
	</clipPath>
	<rect x="90.888" y="47.4" clip-path="url(#SVGID_10_)" fill="#34C5F3" width="145.01" height="254.217"/>
</g>
<g>
	<defs>
		<path id="SVGID_11_" d="M319.369,216.146l39.921,12.971c-13.354,41.101-45.575,73.322-86.676,86.676
			c-41.099,13.354-86.106,6.227-121.068-19.176l24.683-33.973c15.345,11.168,34.237,17.756,54.668,17.756
			C272.228,280.4,307.261,253.439,319.369,216.146z"/>
	</defs>
	<clipPath id="SVGID_12_">
		<use xlink:href="#SVGID_11_"  overflow="visible"/>
	</clipPath>
	<rect x="146.546" y="211.146" clip-path="url(#SVGID_12_)" fill="#F16A9D" width="217.744" height="116.256"/>
</g>
<g>
	<path d="M24.851,159.4v-6.152H13.812v-3.094l11.531-15.996h2.672v16.33h3.709v2.76h-3.709v6.152H24.851z M24.798,150.488v-11.434
		l-8.068,11.434H24.798z"/>
	<path d="M49.724,138.253c1.125,2.074,1.688,4.916,1.688,8.525c0,3.422-0.51,6.252-1.529,8.49c-1.477,3.211-3.891,4.816-7.242,4.816
		c-3.023,0-5.273-1.312-6.75-3.938c-1.23-2.191-1.846-5.133-1.846-8.824c0-2.859,0.369-5.314,1.107-7.365
		c1.383-3.82,3.885-5.73,7.506-5.73C45.915,134.228,48.271,135.57,49.724,138.253z M46.54,155.023
		c0.974-1.453,1.461-4.16,1.461-8.121c0-2.859-0.353-5.212-1.057-7.058s-2.072-2.769-4.102-2.769c-1.867,0-3.231,0.876-4.094,2.628
		s-1.294,4.333-1.294,7.743c0,2.566,0.276,4.629,0.828,6.188c0.845,2.379,2.289,3.568,4.331,3.568
		C44.256,157.203,45.565,156.476,46.54,155.023z"/>
	<path d="M64.56,136.786c1.195,1.201,1.793,2.646,1.793,4.333s-0.598,3.129-1.793,4.324s-2.643,1.793-4.342,1.793
		c-1.688,0-3.129-0.598-4.324-1.793s-1.793-2.637-1.793-4.324s0.598-3.132,1.793-4.333s2.637-1.802,4.324-1.802
		C61.917,134.984,63.364,135.584,64.56,136.786z M62.793,143.676c0.709-0.709,1.063-1.562,1.063-2.558s-0.354-1.849-1.063-2.558
		s-1.567-1.063-2.575-1.063c-0.996,0-1.849,0.352-2.558,1.055s-1.063,1.559-1.063,2.566c0,0.996,0.354,1.849,1.063,2.558
		s1.562,1.063,2.558,1.063C61.226,144.74,62.084,144.385,62.793,143.676z M74.931,134.333h1.962l-14.08,25.734h-1.962
		L74.931,134.333z M81.804,148.944c1.195,1.196,1.793,2.641,1.793,4.33c0,1.69-0.598,3.134-1.793,4.33
		c-1.195,1.197-2.637,1.796-4.324,1.796c-1.699,0-3.146-0.599-4.342-1.796c-1.195-1.196-1.793-2.64-1.793-4.33
		c0-1.689,0.598-3.134,1.793-4.33c1.195-1.197,2.643-1.796,4.342-1.796C79.167,147.148,80.608,147.747,81.804,148.944z
		 M80.037,155.837c0.709-0.71,1.063-1.564,1.063-2.563c0-0.998-0.354-1.853-1.063-2.563s-1.562-1.066-2.558-1.066
		c-1.008,0-1.866,0.355-2.575,1.066s-1.063,1.565-1.063,2.563c0,0.999,0.354,1.854,1.063,2.563c0.709,0.711,1.567,1.066,2.575,1.066
		C78.476,156.904,79.328,156.548,80.037,155.837z"/>
</g>
<g>
	<path d="M229.345,31.984c0.211,1.805,1.049,3.053,2.514,3.744c0.75,0.352,1.617,0.527,2.602,0.527c1.875,0,3.264-0.598,4.166-1.793
		s1.354-2.52,1.354-3.973c0-1.758-0.536-3.117-1.608-4.078s-2.358-1.441-3.858-1.441c-1.09,0-2.024,0.211-2.804,0.633
		s-1.444,1.008-1.995,1.758l-2.742-0.158l1.917-13.553h13.077v3.059h-10.705l-1.072,6.996c0.586-0.445,1.143-0.779,1.67-1.002
		c0.938-0.387,2.021-0.58,3.252-0.58c2.309,0,4.266,0.744,5.871,2.232s2.408,3.375,2.408,5.66c0,2.379-0.735,4.477-2.206,6.293
		s-3.817,2.725-7.04,2.725c-2.051,0-3.864-0.577-5.44-1.731s-2.458-2.927-2.646-5.317H229.345z"/>
	<path d="M256.538,15.786c1.195,1.201,1.793,2.646,1.793,4.333s-0.598,3.129-1.793,4.324s-2.643,1.793-4.342,1.793
		c-1.688,0-3.129-0.598-4.324-1.793s-1.793-2.637-1.793-4.324s0.598-3.132,1.793-4.333s2.637-1.802,4.324-1.802
		C253.896,13.984,255.343,14.584,256.538,15.786z M254.771,22.676c0.709-0.709,1.063-1.562,1.063-2.558s-0.354-1.849-1.063-2.558
		s-1.567-1.063-2.575-1.063c-0.996,0-1.849,0.352-2.558,1.055s-1.063,1.559-1.063,2.566c0,0.996,0.354,1.849,1.063,2.558
		s1.562,1.063,2.558,1.063C253.204,23.74,254.062,23.385,254.771,22.676z M266.909,13.333h1.962l-14.08,25.734h-1.962
		L266.909,13.333z M273.782,27.944c1.195,1.196,1.793,2.641,1.793,4.33c0,1.69-0.598,3.134-1.793,4.33
		c-1.195,1.197-2.637,1.796-4.324,1.796c-1.699,0-3.146-0.599-4.342-1.796c-1.195-1.196-1.793-2.64-1.793-4.33
		c0-1.689,0.598-3.134,1.793-4.33c1.195-1.197,2.643-1.796,4.342-1.796C271.146,26.148,272.587,26.747,273.782,27.944z
		 M272.016,34.837c0.709-0.71,1.063-1.564,1.063-2.563c0-0.998-0.354-1.853-1.063-2.563s-1.562-1.066-2.558-1.066
		c-1.008,0-1.866,0.355-2.575,1.066s-1.063,1.565-1.063,2.563c0,0.999,0.354,1.854,1.063,2.563c0.709,0.711,1.567,1.066,2.575,1.066
		C270.454,35.904,271.307,35.548,272.016,34.837z"/>
</g>
<g>
	<path d="M300.345,45.984c0.211,1.805,1.049,3.053,2.514,3.744c0.75,0.352,1.617,0.527,2.602,0.527c1.875,0,3.264-0.598,4.166-1.793
		s1.354-2.52,1.354-3.973c0-1.758-0.536-3.117-1.608-4.078s-2.358-1.441-3.858-1.441c-1.09,0-2.024,0.211-2.804,0.633
		s-1.444,1.008-1.995,1.758l-2.742-0.158l1.917-13.553h13.077v3.059h-10.705l-1.072,6.996c0.586-0.445,1.143-0.779,1.67-1.002
		c0.938-0.387,2.021-0.58,3.252-0.58c2.309,0,4.266,0.744,5.871,2.232s2.408,3.375,2.408,5.66c0,2.379-0.735,4.477-2.206,6.293
		s-3.817,2.725-7.04,2.725c-2.051,0-3.864-0.577-5.44-1.731s-2.458-2.927-2.646-5.317H300.345z"/>
	<path d="M327.538,29.786c1.195,1.201,1.793,2.646,1.793,4.333s-0.598,3.129-1.793,4.324s-2.643,1.793-4.342,1.793
		c-1.688,0-3.129-0.598-4.324-1.793s-1.793-2.637-1.793-4.324s0.598-3.132,1.793-4.333s2.637-1.802,4.324-1.802
		C324.896,27.984,326.343,28.584,327.538,29.786z M325.771,36.676c0.709-0.709,1.063-1.562,1.063-2.558s-0.354-1.849-1.063-2.558
		s-1.567-1.063-2.575-1.063c-0.996,0-1.849,0.352-2.558,1.055s-1.063,1.559-1.063,2.566c0,0.996,0.354,1.849,1.063,2.558
		s1.562,1.063,2.558,1.063C324.204,37.74,325.062,37.385,325.771,36.676z M337.909,27.333h1.962l-14.08,25.734h-1.962
		L337.909,27.333z M344.782,41.944c1.195,1.196,1.793,2.641,1.793,4.33c0,1.69-0.598,3.134-1.793,4.33
		c-1.195,1.197-2.637,1.796-4.324,1.796c-1.699,0-3.146-0.599-4.342-1.796c-1.195-1.196-1.793-2.64-1.793-4.33
		c0-1.689,0.598-3.134,1.793-4.33c1.195-1.197,2.643-1.796,4.342-1.796C342.146,40.148,343.587,40.747,344.782,41.944z
		 M343.016,48.837c0.709-0.71,1.063-1.564,1.063-2.563c0-0.998-0.354-1.853-1.063-2.563s-1.562-1.066-2.558-1.066
		c-1.008,0-1.866,0.355-2.575,1.066s-1.063,1.565-1.063,2.563c0,0.999,0.354,1.854,1.063,2.563c0.709,0.711,1.567,1.066,2.575,1.066
		C341.454,49.904,342.307,49.548,343.016,48.837z"/>
</g>
<g>
	<path d="M356.343,85.576V83.15c2.285-0.223,3.879-0.595,4.781-1.116s1.576-1.755,2.021-3.7h2.496V103.4h-3.375V85.576H356.343z"/>
	<path d="M389.724,82.253c1.125,2.074,1.688,4.916,1.688,8.525c0,3.422-0.51,6.252-1.529,8.49c-1.477,3.211-3.891,4.816-7.242,4.816
		c-3.023,0-5.273-1.312-6.75-3.938c-1.23-2.191-1.846-5.133-1.846-8.824c0-2.859,0.369-5.314,1.107-7.365
		c1.383-3.82,3.885-5.73,7.506-5.73C385.915,78.228,388.271,79.57,389.724,82.253z M386.54,99.023
		c0.974-1.453,1.461-4.16,1.461-8.121c0-2.859-0.353-5.212-1.057-7.058s-2.072-2.769-4.102-2.769c-1.867,0-3.232,0.876-4.095,2.628
		s-1.294,4.333-1.294,7.743c0,2.566,0.275,4.629,0.828,6.188c0.845,2.379,2.289,3.568,4.33,3.568
		C384.257,101.203,385.565,100.476,386.54,99.023z"/>
	<path d="M404.56,80.786c1.195,1.201,1.793,2.646,1.793,4.333s-0.598,3.129-1.793,4.324s-2.643,1.793-4.342,1.793
		c-1.688,0-3.129-0.598-4.324-1.793s-1.793-2.637-1.793-4.324s0.598-3.132,1.793-4.333s2.637-1.802,4.324-1.802
		C401.917,78.984,403.364,79.584,404.56,80.786z M402.793,87.676c0.709-0.709,1.063-1.562,1.063-2.558s-0.354-1.849-1.063-2.558
		s-1.567-1.063-2.575-1.063c-0.996,0-1.849,0.352-2.558,1.055s-1.063,1.559-1.063,2.566c0,0.996,0.354,1.849,1.063,2.558
		s1.562,1.063,2.558,1.063C401.226,88.74,402.084,88.385,402.793,87.676z M414.931,78.333h1.962l-14.08,25.734h-1.962
		L414.931,78.333z M421.804,92.944c1.195,1.196,1.793,2.641,1.793,4.33c0,1.69-0.598,3.134-1.793,4.33
		c-1.195,1.197-2.637,1.796-4.324,1.796c-1.699,0-3.146-0.599-4.342-1.796c-1.195-1.196-1.793-2.64-1.793-4.33
		c0-1.689,0.598-3.134,1.793-4.33c1.195-1.197,2.643-1.796,4.342-1.796C419.167,91.148,420.608,91.747,421.804,92.944z
		 M420.037,99.837c0.709-0.71,1.063-1.564,1.063-2.563c0-0.998-0.354-1.853-1.063-2.563s-1.562-1.066-2.558-1.066
		c-1.008,0-1.866,0.355-2.575,1.066s-1.063,1.565-1.063,2.563c0,0.999,0.354,1.854,1.063,2.563c0.709,0.711,1.567,1.066,2.575,1.066
		C418.476,100.904,419.328,100.548,420.037,99.837z"/>
</g>
<g>
	<path d="M382.343,186.576v-2.426c2.285-0.223,3.879-0.595,4.781-1.116s1.576-1.755,2.021-3.7h2.496V204.4h-3.375v-17.824H382.343z"
		/>
	<path d="M415.724,183.253c1.125,2.074,1.688,4.916,1.688,8.525c0,3.422-0.51,6.252-1.529,8.49
		c-1.477,3.211-3.891,4.816-7.242,4.816c-3.023,0-5.273-1.312-6.75-3.938c-1.23-2.191-1.846-5.133-1.846-8.824
		c0-2.859,0.369-5.314,1.107-7.365c1.383-3.82,3.885-5.73,7.506-5.73C411.915,179.228,414.271,180.57,415.724,183.253z
		 M412.54,200.023c0.974-1.453,1.461-4.16,1.461-8.121c0-2.859-0.353-5.212-1.057-7.058s-2.072-2.769-4.102-2.769
		c-1.867,0-3.232,0.876-4.095,2.628s-1.294,4.333-1.294,7.743c0,2.566,0.275,4.629,0.828,6.188c0.845,2.379,2.289,3.568,4.33,3.568
		C410.257,202.203,411.565,201.476,412.54,200.023z"/>
	<path d="M430.56,181.786c1.195,1.201,1.793,2.646,1.793,4.333s-0.598,3.129-1.793,4.324s-2.643,1.793-4.342,1.793
		c-1.688,0-3.129-0.598-4.324-1.793s-1.793-2.637-1.793-4.324s0.598-3.132,1.793-4.333s2.637-1.802,4.324-1.802
		C427.917,179.984,429.364,180.584,430.56,181.786z M428.793,188.676c0.709-0.709,1.063-1.562,1.063-2.558s-0.354-1.849-1.063-2.558
		s-1.567-1.063-2.575-1.063c-0.996,0-1.849,0.352-2.558,1.055s-1.063,1.559-1.063,2.566c0,0.996,0.354,1.849,1.063,2.558
		s1.562,1.063,2.558,1.063C427.226,189.74,428.084,189.385,428.793,188.676z M440.931,179.333h1.962l-14.08,25.734h-1.962
		L440.931,179.333z M447.804,193.944c1.195,1.196,1.793,2.641,1.793,4.33c0,1.69-0.598,3.134-1.793,4.33
		c-1.195,1.197-2.637,1.796-4.324,1.796c-1.699,0-3.146-0.599-4.342-1.796c-1.195-1.196-1.793-2.64-1.793-4.33
		c0-1.689,0.598-3.134,1.793-4.33c1.195-1.197,2.643-1.796,4.342-1.796C445.167,192.148,446.608,192.747,447.804,193.944z
		 M446.037,200.837c0.709-0.71,1.063-1.564,1.063-2.563c0-0.998-0.354-1.853-1.063-2.563s-1.562-1.066-2.558-1.066
		c-1.008,0-1.866,0.355-2.575,1.066s-1.063,1.565-1.063,2.563c0,0.999,0.354,1.854,1.063,2.563c0.709,0.711,1.567,1.066,2.575,1.066
		C444.476,201.904,445.328,201.548,446.037,200.837z"/>
</g>
<g>
	<path d="M264.359,360.633c-1.342-1.635-2.013-3.624-2.013-5.968h3.305c0.141,1.629,0.445,2.812,0.914,3.551
		c0.82,1.324,2.303,1.986,4.447,1.986c1.664,0,3-0.445,4.008-1.336s1.512-2.039,1.512-3.445c0-1.734-0.53-2.947-1.591-3.639
		s-2.534-1.037-4.421-1.037c-0.211,0-0.425,0.003-0.642,0.009s-0.437,0.015-0.659,0.026v-2.795c0.328,0.035,0.604,0.059,0.826,0.07
		s0.463,0.018,0.721,0.018c1.184,0,2.156-0.188,2.918-0.562c1.336-0.656,2.004-1.828,2.004-3.516c0-1.254-0.445-2.221-1.336-2.9
		s-1.928-1.02-3.111-1.02c-2.109,0-3.568,0.703-4.377,2.109c-0.445,0.773-0.697,1.875-0.756,3.305h-3.129
		c0-1.875,0.375-3.469,1.125-4.781c1.289-2.344,3.557-3.516,6.803-3.516c2.566,0,4.553,0.571,5.959,1.714s2.109,2.798,2.109,4.966
		c0,1.547-0.416,2.801-1.248,3.762c-0.516,0.598-1.184,1.066-2.004,1.406c1.324,0.363,2.358,1.063,3.103,2.101
		s1.116,2.306,1.116,3.806c0,2.402-0.791,4.359-2.373,5.871s-3.826,2.268-6.732,2.268
		C267.86,363.085,265.701,362.268,264.359,360.633z"/>
	<path d="M298.312,341.253c1.125,2.074,1.688,4.916,1.688,8.525c0,3.422-0.51,6.252-1.529,8.49
		c-1.477,3.211-3.891,4.816-7.242,4.816c-3.023,0-5.273-1.312-6.75-3.938c-1.23-2.191-1.846-5.133-1.846-8.824
		c0-2.859,0.369-5.314,1.107-7.365c1.383-3.82,3.885-5.73,7.506-5.73C294.503,337.228,296.858,338.57,298.312,341.253z
		 M295.128,358.023c0.974-1.453,1.461-4.16,1.461-8.121c0-2.859-0.353-5.212-1.057-7.058s-2.072-2.769-4.102-2.769
		c-1.867,0-3.232,0.876-4.095,2.628s-1.294,4.333-1.294,7.743c0,2.566,0.275,4.629,0.828,6.188c0.845,2.379,2.289,3.568,4.33,3.568
		C292.845,360.203,294.153,359.476,295.128,358.023z"/>
	<path d="M313.147,339.786c1.195,1.201,1.793,2.646,1.793,4.333s-0.598,3.129-1.793,4.324s-2.643,1.793-4.342,1.793
		c-1.688,0-3.129-0.598-4.324-1.793s-1.793-2.637-1.793-4.324s0.598-3.132,1.793-4.333s2.637-1.802,4.324-1.802
		C310.505,337.984,311.952,338.584,313.147,339.786z M311.381,346.676c0.709-0.709,1.063-1.562,1.063-2.558
		s-0.354-1.849-1.063-2.558s-1.567-1.063-2.575-1.063c-0.996,0-1.849,0.352-2.558,1.055s-1.063,1.559-1.063,2.566
		c0,0.996,0.354,1.849,1.063,2.558s1.562,1.063,2.558,1.063C309.813,347.74,310.672,347.385,311.381,346.676z M323.519,337.333
		h1.962l-14.08,25.734h-1.962L323.519,337.333z M330.392,351.944c1.195,1.196,1.793,2.641,1.793,4.33c0,1.69-0.598,3.134-1.793,4.33
		c-1.195,1.197-2.637,1.796-4.324,1.796c-1.699,0-3.146-0.599-4.342-1.796c-1.195-1.196-1.793-2.64-1.793-4.33
		c0-1.689,0.598-3.134,1.793-4.33c1.195-1.197,2.643-1.796,4.342-1.796C327.755,350.148,329.196,350.747,330.392,351.944z
		 M328.625,358.837c0.709-0.71,1.063-1.564,1.063-2.563c0-0.998-0.354-1.853-1.063-2.563s-1.562-1.066-2.558-1.066
		c-1.008,0-1.866,0.355-2.575,1.066s-1.063,1.565-1.063,2.563c0,0.999,0.354,1.854,1.063,2.563c0.709,0.711,1.567,1.066,2.575,1.066
		C327.063,359.904,327.916,359.548,328.625,358.837z"/>
</g>
</svg>
