<?xml version="1.0" encoding="UTF-8"?>
<svg width="451px" height="374px" viewBox="0 0 451 374" version="1.1" xmlns="http://www.w3.org/2000/svg" xmlns:xlink="http://www.w3.org/1999/xlink">
    <!-- Generator: Sketch 43.2 (39069) - http://www.bohemiancoding.com/sketch -->
    <title>iPhone 7</title>
    <desc>Created with Sketch.</desc>
    <defs>
        <filter x="-2.6%" y="-1.8%" width="105.2%" height="105.1%" filterUnits="objectBoundingBox" id="filter-1">
            <feOffset dx="0" dy="2" in="SourceAlpha" result="shadowOffsetOuter1"></feOffset>
            <feGaussianBlur stdDeviation="2" in="shadowOffsetOuter1" result="shadowBlurOuter1"></feGaussianBlur>
            <feColorMatrix values="0 0 0 0 0   0 0 0 0 0   0 0 0 0 0  0 0 0 0.5 0" type="matrix" in="shadowBlurOuter1" result="shadowMatrixOuter1"></feColorMatrix>
            <feMerge>
                <feMergeNode in="shadowMatrixOuter1"></feMergeNode>
                <feMergeNode in="SourceGraphic"></feMergeNode>
            </feMerge>
        </filter>
        <path d="M0.086,42.315 C10.119,42.315 19.779,43.902 28.832,46.841 L41.803,6.922 C28.33,2.544 14.252,0.315 0.086,0.315 L0.086,42.315 Z" id="path-2"></path>
        <path d="M0.832,40.842 C10.215,43.888 18.943,48.387 26.754,54.07 L51.437,20.098 C39.977,11.772 27.277,5.299 13.803,0.922 L0.832,40.842 Z" id="path-4"></path>
        <path d="M0.754,34.07 C16.45,45.495 28.434,61.711 34.557,80.569 L74.478,67.598 C65.669,40.484 48.501,16.855 25.437,0.098 L0.754,34.07 Z" id="path-6"></path>
        <path d="M0.557,13.569 C3.497,22.621 5.086,32.282 5.086,42.315 C5.086,52.347 3.497,62.008 0.557,71.061 L40.478,84.031 C49.289,56.918 49.289,27.711 40.478,0.598 L0.557,13.569 Z" id="path-8"></path>
        <path d="M6.693,93.598 C-11.38,149.221 8.419,210.154 55.735,244.531 L80.418,210.558 C57.187,193.651 42.086,166.246 42.086,135.315 C42.086,83.952 83.724,42.315 135.086,42.315 L135.086,0.315 C76.601,0.315 24.766,37.974 6.693,93.598 Z" id="path-10"></path>
        <path d="M80.086,64.314 C59.655,64.314 40.763,57.726 25.418,46.558 L0.735,80.531 C35.697,105.934 80.704,113.062 121.803,99.707 C162.903,86.354 195.125,54.132 208.478,13.031 L168.557,0.061 C156.449,37.354 121.416,64.314 80.086,64.314 Z" id="path-12"></path>
    </defs>
    <g id="Page-1" stroke="none" stroke-width="1" fill="none" fill-rule="evenodd">
        <g id="iPhone-7">
            <g id="Page-1" transform="translate(16.000000, 8.000000)">
                <g id="Group" filter="url(#filter-1)" transform="translate(73.000000, 46.000000)">
                    <g id="Group-3" transform="translate(135.000000, 0.752000)">
                        <mask id="mask-3" fill="white">
                            <use xlink:href="#path-2"></use>
                        </mask>
                        <g id="Clip-2"></g>
                        <polygon id="Fill-1" fill="#9AD2AC" mask="url(#mask-3)" points="-4.914 51.841 46.803 51.841 46.803 -4.686 -4.914 -4.686"></polygon>
                    </g>
                    <g id="Group-6" transform="translate(163.000000, 6.752000)">
                        <mask id="mask-5" fill="white">
                            <use xlink:href="#path-4"></use>
                        </mask>
                        <g id="Clip-5"></g>
                        <polygon id="Fill-4" fill="#FDE985" mask="url(#mask-5)" points="-4.168 59.07 56.436 59.07 56.436 -4.078 -4.168 -4.078"></polygon>
                    </g>
                    <g id="Group-9" transform="translate(189.000000, 26.752000)">
                        <mask id="mask-7" fill="white">
                            <use xlink:href="#path-6"></use>
                        </mask>
                        <g id="Clip-8"></g>
                        <polygon id="Fill-7" fill="#FDC375" mask="url(#mask-7)" points="-4.246 85.568 79.479 85.568 79.479 -4.903 -4.246 -4.903"></polygon>
                    </g>
                    <g id="Group-12" transform="translate(223.000000, 93.752000)">
                        <mask id="mask-9" fill="white">
                            <use xlink:href="#path-8"></use>
                        </mask>
                        <g id="Clip-11"></g>
                        <polygon id="Fill-10" fill="#A7A6D3" mask="url(#mask-9)" points="-4.442 89.031 52.086 89.031 52.086 -4.403 -4.442 -4.403"></polygon>
                    </g>
                    <g id="Group-15" transform="translate(0.000000, 0.752000)">
                        <mask id="mask-11" fill="white">
                            <use xlink:href="#path-10"></use>
                        </mask>
                        <g id="Clip-14"></g>
                        <polygon id="Fill-13" fill="#33C5F2" mask="url(#mask-11)" points="-4.924 249.531 140.086 249.531 140.086 -4.686 -4.924 -4.686"></polygon>
                    </g>
                    <g id="Group-18" transform="translate(55.000000, 164.752000)">
                        <mask id="mask-13" fill="white">
                            <use xlink:href="#path-12"></use>
                        </mask>
                        <g id="Clip-17"></g>
                        <polygon id="Fill-16" fill="#F06A9C" mask="url(#mask-13)" points="-4.265 111.316 213.479 111.316 213.479 -4.94 -4.265 -4.94"></polygon>
                    </g>
                </g>
                <g id="Group-2" font-weight="500" font-size="36" font-family="AvenirNextCondensed-DemiBold, Avenir Next Condensed" fill="#252526" font-style="condensed">
                    <text id="40%">
                        <tspan x="0" y="170">40%</tspan>
                    </text>
                    <text id="30%">
                        <tspan x="254" y="348">30%</tspan>
                    </text>
                    <text id="5%">
                        <tspan x="208" y="36">5%</tspan>
                    </text>
                    <text id="5%-copy">
                        <tspan x="271" y="53">5%</tspan>
                    </text>
                    <text id="10%">
                        <tspan x="323" y="98">10%</tspan>
                    </text>
                    <text id="10%-copy">
                        <tspan x="349" y="193">10%</tspan>
                    </text>
                </g>
            </g>
        </g>
    </g>
</svg>