<svg width="477" height="478" viewBox="0 0 477 478" fill="none" xmlns="http://www.w3.org/2000/svg">
<circle cx="238.502" cy="238.5" r="238.5" fill="white"/>
<path d="M240.502 130C277.194 130 310.804 153.337 335.416 183.184C360.057 213.066 375.002 248.659 375.002 272C375.002 294.927 360.477 316.105 336.113 331.698C311.782 347.27 277.986 357 240.502 357C203.019 357 169.223 347.27 144.892 331.698C120.528 316.105 106.002 294.927 106.002 272C106.002 248.659 120.948 213.066 145.589 183.184C170.201 153.337 203.811 130 240.502 130Z" fill="white" stroke="#1F1F1F" stroke-width="6"/>
<path fill-rule="evenodd" clip-rule="evenodd" d="M240.186 81C314.807 81 377.92 136.2 387.858 210.156L403.031 323.071C408.462 363.485 375.713 398.834 335.003 396.5C335.02 396.477 345.003 383.473 345.003 353C345.003 322.5 339.646 288.064 334.66 240.5C334.66 218 306.449 196.324 291.003 187.5C287.568 185.538 284.283 182.878 281.206 179.846C274.677 188.967 244.012 229.543 202.003 249C179.038 259.637 155.503 264 138.955 264C134.502 309.226 131.003 323 131.003 353C131.003 383 141.003 396.5 141.003 396.5C100.293 398.834 67.544 363.485 72.9746 323.071L88.1474 210.156C98.0854 136.2 161.199 81 235.82 81H240.186Z" fill="#1F1F1F"/>
<circle cx="189.002" cy="305" r="14.5" fill="#1F1F1F" stroke="#1F1F1F"/>
<circle cx="286.002" cy="305" r="15" fill="#1F1F1F"/>
<path d="M223.002 314V315.5C223.002 324.06 229.942 331 238.502 331C247.063 331 254.002 324.06 254.002 315.5V314" stroke="#1F1F1F" stroke-width="6" stroke-linecap="round" stroke-linejoin="round"/>
</svg>
