<svg width="663" height="140" viewBox="0 0 663 140" fill="none" xmlns="http://www.w3.org/2000/svg">
<path d="M170.674 76.4625C172.543 66.5426 172.658 56.2242 170.905 45.9678L168.389 31.2386L154.794 34.0994C146.539 35.8354 138.789 39.1479 131.819 43.7447C127.815 30.5301 120.597 18.4314 110.562 8.39643L102.174 0L94.4333 7.74102C84.2566 17.9177 76.985 30.2201 73.0171 43.6384C66.0909 39.1036 58.3942 35.8266 50.2015 34.1083L36.606 31.2475L34.0906 45.9767C32.3458 56.2242 32.452 66.5515 34.3209 76.4713H0V79.9875C0 112.794 26.6861 139.48 59.4925 139.48H145.733C178.539 139.48 205.225 112.794 205.225 79.9875V76.4713H170.674V76.4625ZM156.246 40.9902L162.676 39.6351L163.961 47.1547C165.67 57.1808 165.396 67.1095 163.456 76.4625C162.96 78.8539 162.358 81.201 161.649 83.5038C154.439 106.922 136.486 125.495 113.166 130.402L107.613 131.571L110.562 128.621C123.024 116.16 131.137 100.509 134.148 83.5038C134.556 81.1832 134.874 78.8361 135.096 76.4625C135.335 73.8319 135.468 71.1748 135.468 68.5089C135.468 62.557 134.857 56.7025 133.67 51.0163C140.428 46.1804 148.062 42.7262 156.246 40.999V40.9902ZM77.047 76.4625C76.737 73.6194 76.5776 70.7497 76.5776 67.8535C76.5776 63.8501 76.8787 59.891 77.4722 56.0117C83.6278 61.6713 88.8091 68.6063 92.715 76.4713C95.5493 82.1841 97.7104 88.384 99.0655 94.947L101.351 105.974C101.616 107.241 103.414 107.241 103.68 105.974L105.965 94.947C107.32 88.384 109.481 82.1841 112.316 76.4713C116.195 68.6506 121.35 61.7421 127.461 56.1002C128.108 60.1656 128.444 64.3195 128.444 68.5177C128.444 71.1925 128.311 73.8496 128.046 76.4713C127.806 78.845 127.461 81.1921 127.009 83.5126C124.078 98.6227 116.735 112.519 105.611 123.653L103.963 125.3L102.856 126.407L101.315 124.866L99.4375 122.988C88.4725 112.023 81.1744 98.3658 78.163 83.5038C77.6936 81.1832 77.3304 78.8361 77.0736 76.4625H77.047ZM99.4109 12.7186L102.174 9.95526L105.593 13.3741C115.407 23.1876 122.28 35.1623 125.778 48.2264C115.531 56.6671 107.418 68.1103 102.502 81.4401C97.5687 68.0483 89.4025 56.5608 79.0841 48.1112C82.5295 34.8434 89.4557 22.6739 99.4109 12.7186ZM41.0433 47.1547L42.3276 39.6351L48.7578 40.9902C56.8974 42.6996 64.4878 46.1272 71.2191 50.9189C70.112 56.4279 69.5451 62.0964 69.5451 67.8446C69.5451 70.7408 69.6869 73.6105 69.9791 76.4536C70.2183 78.8273 70.5548 81.1744 70.9888 83.4949C74.0888 100.243 82.1487 115.655 94.451 127.957L98.233 131.739L91.8471 130.393C68.5266 125.486 50.5735 106.913 43.3639 83.4949C42.6553 81.1921 42.053 78.845 41.557 76.4536C39.6173 67.1095 39.3428 57.1719 41.0522 47.1458L41.0433 47.1547ZM59.4925 132.43C31.7523 132.43 8.97214 110.783 7.15645 83.4949H35.9771C38.0231 90.8108 41.061 97.8344 45.0644 104.353C52.8054 116.983 63.4692 126.611 75.8779 132.43H59.4925ZM145.733 132.43H129.126C141.544 126.62 152.199 116.983 159.94 104.353C163.934 97.8344 166.981 90.8108 169.027 83.4949H198.069C196.253 110.783 173.473 132.43 145.733 132.43Z" fill="#26B6A5"/>
<path d="M259.5 40.16C258.59 40.16 257.82 39.87 257.18 39.28C256.54 38.69 256.22 37.95 256.22 37.04C256.22 36.13 256.54 35.4 257.18 34.84C257.82 34.28 258.59 34 259.5 34H296.7C297.61 34 298.38 34.29 299.02 34.88C299.66 35.47 299.98 36.21 299.98 37.12C299.98 38.03 299.66 38.76 299.02 39.32C298.38 39.88 297.61 40.16 296.7 40.16H259.5ZM278.06 90C277.05 90 276.23 89.68 275.62 89.04C275.01 88.4 274.7 87.63 274.7 86.72V37.36H281.5V86.72C281.5 87.63 281.18 88.4 280.54 89.04C279.9 89.68 279.07 90 278.06 90Z" fill="#161A1C"/>
<path d="M306.86 90.0001C305.95 90.0001 305.19 89.6801 304.58 89.0401C303.97 88.4001 303.66 87.6301 303.66 86.7201V51.9201C303.66 50.9601 303.97 50.1701 304.58 49.5601C305.19 48.9501 305.95 48.6401 306.86 48.6401C307.82 48.6401 308.59 48.9501 309.18 49.5601C309.77 50.1701 310.06 50.9601 310.06 51.9201V62.4001L309.1 60.7201C309.42 59.0701 309.99 57.4501 310.82 55.8801C311.65 54.3101 312.7 52.8901 313.98 51.6401C315.26 50.3901 316.73 49.4001 318.38 48.6801C320.03 47.9601 321.85 47.6001 323.82 47.6001C324.99 47.6001 326.07 47.8801 327.06 48.4401C328.05 49.0001 328.54 49.7901 328.54 50.8001C328.54 51.9201 328.25 52.7601 327.66 53.3201C327.07 53.8801 326.41 54.1601 325.66 54.1601C324.97 54.1601 324.3 54.0001 323.66 53.6801C323.02 53.3601 322.22 53.2001 321.26 53.2001C319.93 53.2001 318.61 53.5701 317.3 54.3201C315.99 55.0701 314.79 56.0901 313.7 57.4001C312.61 58.7101 311.73 60.2001 311.06 61.8801C310.39 63.5601 310.06 65.3601 310.06 67.2801V86.7201C310.06 87.6301 309.75 88.4001 309.14 89.0401C308.53 89.6801 307.77 90.0001 306.86 90.0001Z" fill="#161A1C"/>
<path d="M368.86 48.2401C369.77 48.2401 370.53 48.5501 371.14 49.1601C371.75 49.7701 372.06 50.5301 372.06 51.4401V86.7201C372.06 87.6301 371.75 88.4001 371.14 89.0401C370.53 89.6801 369.77 90.0001 368.86 90.0001C367.9 90.0001 367.11 89.6801 366.5 89.0401C365.89 88.4001 365.58 87.6301 365.58 86.7201V79.1201L367.1 78.9601C367.1 80.1901 366.7 81.4801 365.9 82.8401C365.1 84.2001 364.01 85.4801 362.62 86.6801C361.23 87.8801 359.61 88.8701 357.74 89.6401C355.87 90.4101 353.85 90.8001 351.66 90.8001C348.03 90.8001 344.77 89.8501 341.86 87.9601C338.95 86.0701 336.67 83.4901 335.02 80.2401C333.37 76.9901 332.54 73.2801 332.54 69.1201C332.54 64.9601 333.38 61.1901 335.06 57.9601C336.74 54.7301 339.01 52.2001 341.86 50.3601C344.71 48.5201 347.93 47.6001 351.5 47.6001C353.79 47.6001 355.93 47.9701 357.9 48.7201C359.87 49.4701 361.59 50.4801 363.06 51.7601C364.53 53.0401 365.66 54.4501 366.46 56.0001C367.26 57.5501 367.66 59.0901 367.66 60.6401L365.58 60.1601V51.4401C365.58 50.5301 365.89 49.7701 366.5 49.1601C367.11 48.5501 367.9 48.2401 368.86 48.2401ZM352.38 84.8801C355.05 84.8801 357.39 84.1901 359.42 82.8001C361.45 81.4101 363.05 79.5301 364.22 77.1601C365.39 74.7901 365.98 72.1101 365.98 69.1201C365.98 66.1301 365.39 63.5501 364.22 61.2001C363.05 58.8501 361.45 56.9901 359.42 55.6001C357.39 54.2101 355.05 53.5201 352.38 53.5201C349.71 53.5201 347.43 54.2001 345.38 55.5601C343.33 56.9201 341.71 58.7701 340.54 61.1201C339.37 63.4701 338.78 66.1301 338.78 69.1201C338.78 72.1101 339.35 74.7901 340.5 77.1601C341.65 79.5301 343.25 81.4101 345.3 82.8001C347.35 84.1901 349.71 84.8801 352.38 84.8801Z" fill="#161A1C"/>
<path d="M404.46 47.6001C408.09 47.6001 410.94 48.3501 413.02 49.8401C415.1 51.3301 416.58 53.3301 417.46 55.8401C418.34 58.3501 418.78 61.1701 418.78 64.3201V86.7201C418.78 87.6301 418.47 88.4001 417.86 89.0401C417.25 89.6801 416.49 90.0001 415.58 90.0001C414.62 90.0001 413.85 89.6801 413.26 89.0401C412.67 88.4001 412.38 87.6301 412.38 86.7201V64.4801C412.38 62.4501 412.07 60.6101 411.46 58.9601C410.85 57.3101 409.82 55.9901 408.38 55.0001C406.94 54.0101 405.02 53.5201 402.62 53.5201C400.38 53.5201 398.33 54.0101 396.46 55.0001C394.59 55.9901 393.1 57.3101 391.98 58.9601C390.86 60.6101 390.3 62.4501 390.3 64.4801V86.7201C390.3 87.6301 389.99 88.4001 389.38 89.0401C388.77 89.6801 388.01 90.0001 387.1 90.0001C386.19 90.0001 385.43 89.6801 384.82 89.0401C384.21 88.4001 383.9 87.6301 383.9 86.7201V51.9201C383.9 50.9601 384.21 50.1701 384.82 49.5601C385.43 48.9501 386.19 48.6401 387.1 48.6401C388.06 48.6401 388.83 48.9501 389.42 49.5601C390.01 50.1701 390.3 50.9601 390.3 51.9201V57.5201L388.7 59.2801C388.97 57.8901 389.58 56.4901 390.54 55.0801C391.5 53.6701 392.7 52.4001 394.14 51.2801C395.58 50.1601 397.18 49.2701 398.94 48.6001C400.7 47.9301 402.54 47.6001 404.46 47.6001Z" fill="#161A1C"/>
<path d="M447.9 47.6001C450.25 47.6001 452.41 47.9901 454.38 48.7601C456.35 49.5301 458.07 50.5301 459.54 51.7601C461.01 52.9901 462.15 54.2701 462.98 55.6001C463.81 56.9301 464.22 58.1901 464.22 59.3601L462.62 58.4001V51.4401C462.62 50.5301 462.93 49.7701 463.54 49.1601C464.15 48.5501 464.91 48.2401 465.82 48.2401C466.78 48.2401 467.57 48.5501 468.18 49.1601C468.79 49.7701 469.1 50.5301 469.1 51.4401V86.4801C469.1 90.8501 468.18 94.4901 466.34 97.4001C464.5 100.31 462.03 102.47 458.94 103.88C455.85 105.29 452.38 106 448.54 106C446.94 106 445.18 105.8 443.26 105.4C441.34 105 439.63 104.49 438.14 103.88C436.65 103.27 435.69 102.64 435.26 102C434.46 101.41 433.97 100.8 433.78 100.16C433.59 99.5201 433.69 98.8801 434.06 98.2401C434.59 97.4901 435.23 97.1201 435.98 97.1201C436.73 97.1201 437.69 97.3601 438.86 97.8401C439.39 98.0001 440.18 98.2701 441.22 98.6401C442.26 99.0101 443.43 99.3501 444.74 99.6401C446.05 99.9301 447.34 100.08 448.62 100.08C453.15 100.08 456.62 98.8901 459.02 96.5201C461.42 94.1501 462.62 91.0101 462.62 87.1201V79.6801L463.5 80.0801C463.18 81.5701 462.54 82.9601 461.58 84.2401C460.62 85.5201 459.43 86.6501 458.02 87.6401C456.61 88.6301 455.05 89.4001 453.34 89.9601C451.63 90.5201 449.87 90.8001 448.06 90.8001C444.33 90.8001 440.98 89.8701 438.02 88.0001C435.06 86.1301 432.71 83.5701 430.98 80.3201C429.25 77.0701 428.38 73.3601 428.38 69.2001C428.38 65.0401 429.25 61.2501 430.98 58.0001C432.71 54.7501 435.05 52.2001 437.98 50.3601C440.91 48.5201 444.22 47.6001 447.9 47.6001ZM448.78 53.5201C446.06 53.5201 443.62 54.2001 441.46 55.5601C439.3 56.9201 437.62 58.7901 436.42 61.1601C435.22 63.5301 434.62 66.2101 434.62 69.2001C434.62 72.1901 435.22 74.7901 436.42 77.1601C437.62 79.5301 439.3 81.4101 441.46 82.8001C443.62 84.1901 446.06 84.8801 448.78 84.8801C451.5 84.8801 454.01 84.2001 456.14 82.8401C458.27 81.4801 459.95 79.6301 461.18 77.2801C462.41 74.9301 463.02 72.2401 463.02 69.2001C463.02 66.1601 462.41 63.4501 461.18 61.0801C459.95 58.7101 458.27 56.8501 456.14 55.5201C454.01 54.1901 451.55 53.5201 448.78 53.5201Z" fill="#161A1C"/>
<path d="M502.86 40.16C501.95 40.16 501.18 39.87 500.54 39.28C499.9 38.69 499.58 37.95 499.58 37.04C499.58 36.13 499.9 35.4 500.54 34.84C501.18 34.28 501.95 34 502.86 34H540.06C540.97 34 541.74 34.29 542.38 34.88C543.02 35.47 543.34 36.21 543.34 37.12C543.34 38.03 543.02 38.76 542.38 39.32C541.74 39.88 540.97 40.16 540.06 40.16H502.86ZM521.42 90C520.41 90 519.59 89.68 518.98 89.04C518.37 88.4 518.06 87.63 518.06 86.72V37.36H524.86V86.72C524.86 87.63 524.54 88.4 523.9 89.04C523.26 89.68 522.43 90 521.42 90Z" fill="#161A1C"/>
<path d="M550.22 90.0001C549.31 90.0001 548.55 89.6801 547.94 89.0401C547.33 88.4001 547.02 87.6301 547.02 86.7201V51.9201C547.02 50.9601 547.33 50.1701 547.94 49.5601C548.55 48.9501 549.31 48.6401 550.22 48.6401C551.18 48.6401 551.95 48.9501 552.54 49.5601C553.13 50.1701 553.42 50.9601 553.42 51.9201V62.4001L552.46 60.7201C552.78 59.0701 553.35 57.4501 554.18 55.8801C555.01 54.3101 556.06 52.8901 557.34 51.6401C558.62 50.3901 560.09 49.4001 561.74 48.6801C563.39 47.9601 565.21 47.6001 567.18 47.6001C568.35 47.6001 569.43 47.8801 570.42 48.4401C571.41 49.0001 571.9 49.7901 571.9 50.8001C571.9 51.9201 571.61 52.7601 571.02 53.3201C570.43 53.8801 569.77 54.1601 569.02 54.1601C568.33 54.1601 567.66 54.0001 567.02 53.6801C566.38 53.3601 565.58 53.2001 564.62 53.2001C563.29 53.2001 561.97 53.5701 560.66 54.3201C559.35 55.0701 558.15 56.0901 557.06 57.4001C555.97 58.7101 555.09 60.2001 554.42 61.8801C553.75 63.5601 553.42 65.3601 553.42 67.2801V86.7201C553.42 87.6301 553.11 88.4001 552.5 89.0401C551.89 89.6801 551.13 90.0001 550.22 90.0001Z" fill="#161A1C"/>
<path d="M612.22 48.2401C613.13 48.2401 613.89 48.5501 614.5 49.1601C615.11 49.7701 615.42 50.5301 615.42 51.4401V86.7201C615.42 87.6301 615.11 88.4001 614.5 89.0401C613.89 89.6801 613.13 90.0001 612.22 90.0001C611.26 90.0001 610.47 89.6801 609.86 89.0401C609.25 88.4001 608.94 87.6301 608.94 86.7201V79.1201L610.46 78.9601C610.46 80.1901 610.06 81.4801 609.26 82.8401C608.46 84.2001 607.37 85.4801 605.98 86.6801C604.59 87.8801 602.97 88.8701 601.1 89.6401C599.23 90.4101 597.21 90.8001 595.02 90.8001C591.39 90.8001 588.13 89.8501 585.22 87.9601C582.31 86.0701 580.03 83.4901 578.38 80.2401C576.73 76.9901 575.9 73.2801 575.9 69.1201C575.9 64.9601 576.74 61.1901 578.42 57.9601C580.1 54.7301 582.37 52.2001 585.22 50.3601C588.07 48.5201 591.29 47.6001 594.86 47.6001C597.15 47.6001 599.29 47.9701 601.26 48.7201C603.23 49.4701 604.95 50.4801 606.42 51.7601C607.89 53.0401 609.02 54.4501 609.82 56.0001C610.62 57.5501 611.02 59.0901 611.02 60.6401L608.94 60.1601V51.4401C608.94 50.5301 609.25 49.7701 609.86 49.1601C610.47 48.5501 611.26 48.2401 612.22 48.2401ZM595.74 84.8801C598.41 84.8801 600.75 84.1901 602.78 82.8001C604.81 81.4101 606.41 79.5301 607.58 77.1601C608.75 74.7901 609.34 72.1101 609.34 69.1201C609.34 66.1301 608.75 63.5501 607.58 61.2001C606.41 58.8501 604.81 56.9901 602.78 55.6001C600.75 54.2101 598.41 53.5201 595.74 53.5201C593.07 53.5201 590.79 54.2001 588.74 55.5601C586.69 56.9201 585.07 58.7701 583.9 61.1201C582.73 63.4701 582.14 66.1301 582.14 69.1201C582.14 72.1101 582.71 74.7901 583.86 77.1601C585.01 79.5301 586.61 81.4101 588.66 82.8001C590.71 84.1901 593.07 84.8801 595.74 84.8801Z" fill="#161A1C"/>
<path d="M647.82 47.6001C651.45 47.6001 654.3 48.3501 656.38 49.8401C658.46 51.3301 659.94 53.3301 660.82 55.8401C661.7 58.3501 662.14 61.1701 662.14 64.3201V86.7201C662.14 87.6301 661.83 88.4001 661.22 89.0401C660.61 89.6801 659.85 90.0001 658.94 90.0001C657.98 90.0001 657.21 89.6801 656.62 89.0401C656.03 88.4001 655.74 87.6301 655.74 86.7201V64.4801C655.74 62.4501 655.43 60.6101 654.82 58.9601C654.21 57.3101 653.18 55.9901 651.74 55.0001C650.3 54.0101 648.38 53.5201 645.98 53.5201C643.74 53.5201 641.69 54.0101 639.82 55.0001C637.95 55.9901 636.46 57.3101 635.34 58.9601C634.22 60.6101 633.66 62.4501 633.66 64.4801V86.7201C633.66 87.6301 633.35 88.4001 632.74 89.0401C632.13 89.6801 631.37 90.0001 630.46 90.0001C629.55 90.0001 628.79 89.6801 628.18 89.0401C627.57 88.4001 627.26 87.6301 627.26 86.7201V51.9201C627.26 50.9601 627.57 50.1701 628.18 49.5601C628.79 48.9501 629.55 48.6401 630.46 48.6401C631.42 48.6401 632.19 48.9501 632.78 49.5601C633.37 50.1701 633.66 50.9601 633.66 51.9201V57.5201L632.06 59.2801C632.33 57.8901 632.94 56.4901 633.9 55.0801C634.86 53.6701 636.06 52.4001 637.5 51.2801C638.94 50.1601 640.54 49.2701 642.3 48.6001C644.06 47.9301 645.9 47.6001 647.82 47.6001Z" fill="#161A1C"/>
</svg>
