<?xml version="1.0" encoding="utf-8"?>
<!-- Generator: Adobe Illustrator 15.0.0, SVG Export Plug-In . SVG Version: 6.00 Build 0)  -->
<!DOCTYPE svg PUBLIC "-//W3C//DTD SVG 1.1//EN" "http://www.w3.org/Graphics/SVG/1.1/DTD/svg11.dtd">
<svg version="1.1" id="Layer_1" xmlns="http://www.w3.org/2000/svg" xmlns:xlink="http://www.w3.org/1999/xlink" x="0px" y="0px"
	 width="198.879px" height="308.807px" viewBox="0 0 198.879 308.807" enable-background="new 0 0 198.879 308.807"
	 xml:space="preserve">
<g>
	<defs>
		<rect id="SVGID_1_" width="28" height="28"/>
	</defs>
	<clipPath id="SVGID_2_">
		<use xlink:href="#SVGID_1_"  overflow="visible"/>
	</clipPath>
	<rect x="-5" y="-5" clip-path="url(#SVGID_2_)" fill="#9BD3AD" width="38" height="38"/>
</g>
<g>
	<path d="M49.768,22.688l0.496-1.009c0.565,0.48,1.141,0.822,1.728,1.024c0.586,0.203,1.269,0.304,2.048,0.304
		c0.917,0,1.624-0.179,2.12-0.536c0.496-0.356,0.744-0.861,0.744-1.512c0-0.384-0.12-0.696-0.36-0.936
		c-0.24-0.24-0.555-0.43-0.944-0.568c-0.39-0.139-0.91-0.282-1.56-0.432c-0.875-0.192-1.595-0.4-2.16-0.624
		c-0.565-0.225-1.024-0.547-1.376-0.969c-0.352-0.421-0.528-0.973-0.528-1.655c0-0.65,0.17-1.225,0.512-1.721
		s0.824-0.882,1.448-1.159s1.352-0.416,2.184-0.416c0.789,0,1.525,0.122,2.208,0.367c0.683,0.246,1.258,0.604,1.728,1.072
		l-0.512,1.008c-0.533-0.458-1.075-0.794-1.624-1.008c-0.549-0.213-1.149-0.32-1.8-0.32c-0.886,0-1.579,0.189-2.08,0.568
		c-0.501,0.379-0.752,0.898-0.752,1.56c0,0.576,0.218,1.009,0.656,1.297c0.438,0.287,1.109,0.538,2.016,0.752
		c0.981,0.234,1.752,0.45,2.312,0.647s1.026,0.496,1.4,0.896c0.374,0.399,0.56,0.931,0.56,1.592c0,0.64-0.171,1.203-0.512,1.688
		c-0.342,0.486-0.83,0.862-1.464,1.128c-0.635,0.268-1.378,0.4-2.232,0.4C52.243,24.128,50.824,23.648,49.768,22.688z"/>
	<path d="M67.336,24H65.64l-4.128-3.872V24h-1.296V12.224h1.296v7.425l3.792-3.681h1.648l-4.032,3.856L67.336,24z"/>
	<path d="M75.048,19.936h-5.904c0.01,1.024,0.248,1.798,0.712,2.32s1.139,0.784,2.024,0.784c0.938,0,1.803-0.314,2.592-0.944
		l0.432,0.944c-0.352,0.331-0.803,0.592-1.352,0.784c-0.549,0.191-1.112,0.288-1.688,0.288c-1.259,0-2.245-0.371-2.96-1.112
		c-0.714-0.741-1.072-1.757-1.072-3.048c0-0.821,0.16-1.55,0.48-2.185c0.32-0.634,0.768-1.128,1.344-1.479
		c0.576-0.353,1.232-0.528,1.968-0.528c1.066,0,1.904,0.35,2.512,1.048c0.608,0.699,0.912,1.662,0.912,2.889V19.936z M70,17.376
		c-0.421,0.405-0.691,0.976-0.808,1.712h4.688c-0.064-0.757-0.286-1.333-0.664-1.728s-0.904-0.593-1.576-0.593
		C70.968,16.768,70.421,16.971,70,17.376z"/>
	<path d="M78.712,16.976v4.4c0,0.598,0.123,1.016,0.368,1.256c0.245,0.24,0.592,0.36,1.04,0.36c0.299,0,0.587-0.048,0.864-0.145
		v1.104c-0.331,0.106-0.704,0.16-1.12,0.16c-0.768,0-1.368-0.216-1.8-0.648c-0.432-0.432-0.648-1.069-0.648-1.912v-4.576h-1.568
		v-1.023h1.568v-2.064l1.296-0.464v2.528h2.304v1.023H78.712z"/>
	<path d="M83.919,23.6c-0.582-0.341-1.029-0.823-1.344-1.447c-0.315-0.624-0.472-1.353-0.472-2.185s0.16-1.565,0.48-2.2
		c0.32-0.634,0.776-1.128,1.368-1.479c0.592-0.353,1.282-0.528,2.072-0.528c0.544,0,1.069,0.094,1.576,0.28
		c0.506,0.187,0.925,0.445,1.256,0.776l-0.432,0.96c-0.405-0.32-0.797-0.555-1.176-0.704c-0.379-0.149-0.766-0.225-1.16-0.225
		c-0.821,0-1.467,0.275-1.936,0.824c-0.469,0.55-0.704,1.314-0.704,2.296c0,0.971,0.232,1.726,0.696,2.265
		c0.464,0.538,1.112,0.808,1.944,0.808c0.395,0,0.781-0.074,1.16-0.224c0.378-0.149,0.771-0.385,1.176-0.704l0.432,0.96
		c-0.341,0.319-0.771,0.573-1.288,0.76c-0.518,0.187-1.053,0.28-1.608,0.28C85.181,24.112,84.5,23.941,83.919,23.6z"/>
	<path d="M97.416,18.944V24h-1.296v-4.992c0-0.746-0.149-1.293-0.448-1.64c-0.299-0.347-0.768-0.521-1.408-0.521
		c-0.747,0-1.344,0.229-1.792,0.688c-0.448,0.459-0.672,1.077-0.672,1.855V24h-1.296V12.224h1.296v5.04
		c0.256-0.49,0.621-0.863,1.096-1.12c0.474-0.256,1.016-0.384,1.624-0.384C96.45,15.76,97.416,16.821,97.416,18.944z"/>
	<path d="M99.735,12.544h1.584v1.472h-1.584V12.544z M99.863,24v-8.048h1.296V24H99.863z"/>
	<path d="M110.584,18.944V24h-1.297v-4.992c0-0.746-0.149-1.293-0.447-1.64c-0.299-0.347-0.769-0.521-1.408-0.521
		c-0.747,0-1.344,0.229-1.793,0.688c-0.447,0.459-0.672,1.077-0.672,1.855V24h-1.295v-5.792c0-0.832-0.043-1.584-0.129-2.256h1.232
		l0.128,1.439c0.245-0.522,0.613-0.925,1.104-1.208c0.49-0.282,1.05-0.424,1.68-0.424C109.617,15.76,110.584,16.821,110.584,18.944z
		"/>
	<path d="M120.199,15.952v7.983c0,1.195-0.307,2.099-0.92,2.713c-0.613,0.613-1.518,0.92-2.712,0.92
		c-1.228,0-2.282-0.278-3.168-0.832l0.224-1.057c0.512,0.288,0.994,0.496,1.448,0.624c0.453,0.128,0.952,0.192,1.496,0.192
		c0.778,0,1.365-0.206,1.76-0.616s0.593-1.021,0.593-1.832v-1.904c-0.246,0.513-0.606,0.91-1.08,1.192
		c-0.476,0.283-1.038,0.424-1.688,0.424c-0.704,0-1.331-0.165-1.88-0.496c-0.55-0.33-0.974-0.8-1.272-1.407
		c-0.298-0.608-0.448-1.307-0.448-2.097c0-0.789,0.15-1.487,0.448-2.096c0.299-0.608,0.723-1.077,1.272-1.408
		c0.549-0.33,1.176-0.496,1.88-0.496c0.64,0,1.197,0.139,1.672,0.416s0.835,0.667,1.08,1.168v-1.392H120.199z M118.239,21.896
		c0.442-0.518,0.664-1.229,0.664-2.137c0-0.906-0.222-1.618-0.664-2.136s-1.054-0.776-1.832-0.776c-0.79,0-1.411,0.259-1.864,0.776
		s-0.68,1.229-0.68,2.136c0,0.907,0.227,1.619,0.68,2.137c0.453,0.517,1.074,0.775,1.864,0.775
		C117.186,22.672,117.797,22.413,118.239,21.896z"/>
</g>
<g>
	<defs>
		<rect id="SVGID_3_" y="156" width="28" height="28"/>
	</defs>
	<clipPath id="SVGID_4_">
		<use xlink:href="#SVGID_3_"  overflow="visible"/>
	</clipPath>
	<rect x="-5" y="151" clip-path="url(#SVGID_4_)" fill="#A8A7D3" width="38" height="38"/>
</g>
<g>
	<path d="M53.16,180v-10.272h-3.968v-1.119h9.264v1.119h-3.968V180H53.16z"/>
	<path d="M63.144,171.856l-0.032,1.184c-0.245-0.085-0.528-0.128-0.848-0.128c-0.779,0-1.357,0.242-1.736,0.728
		c-0.378,0.486-0.568,1.075-0.568,1.769V180h-1.296v-5.792c0-0.832-0.043-1.584-0.128-2.256h1.232l0.128,1.488
		c0.203-0.544,0.528-0.96,0.976-1.248c0.448-0.288,0.96-0.433,1.536-0.433C62.674,171.76,62.92,171.792,63.144,171.856z"/>
	<path d="M71.4,171.952V180h-1.28v-1.456c-0.235,0.502-0.59,0.888-1.064,1.16c-0.475,0.271-1.027,0.408-1.656,0.408
		c-0.715,0-1.341-0.171-1.88-0.513c-0.539-0.341-0.955-0.823-1.248-1.447s-0.44-1.353-0.44-2.185s0.149-1.565,0.448-2.2
		c0.299-0.634,0.717-1.128,1.256-1.479c0.539-0.353,1.16-0.528,1.864-0.528c0.629,0,1.179,0.139,1.648,0.416
		s0.827,0.667,1.072,1.168v-1.392H71.4z M69.48,178.232c0.426-0.539,0.64-1.305,0.64-2.297c0-0.991-0.214-1.754-0.64-2.287
		c-0.427-0.533-1.035-0.801-1.824-0.801c-0.789,0-1.405,0.275-1.848,0.824c-0.443,0.55-0.664,1.314-0.664,2.296
		s0.218,1.739,0.656,2.272s1.056,0.8,1.856,0.8C68.445,179.04,69.053,178.771,69.48,178.232z"/>
	<path d="M79.688,171.968h1.296L77.512,180H76.28l-3.424-8.032h1.36l2.72,6.624L79.688,171.968z"/>
	<path d="M89.063,175.936H83.16c0.01,1.024,0.248,1.798,0.712,2.32s1.139,0.784,2.024,0.784c0.938,0,1.803-0.314,2.592-0.944
		l0.432,0.944c-0.352,0.331-0.803,0.592-1.352,0.784c-0.549,0.191-1.112,0.288-1.688,0.288c-1.259,0-2.245-0.371-2.96-1.112
		c-0.714-0.741-1.072-1.757-1.072-3.048c0-0.821,0.16-1.55,0.48-2.185c0.32-0.634,0.768-1.128,1.344-1.479
		c0.576-0.353,1.232-0.528,1.968-0.528c1.066,0,1.904,0.35,2.512,1.048c0.608,0.699,0.912,1.662,0.912,2.889V175.936z
		 M84.016,173.376c-0.421,0.405-0.691,0.976-0.808,1.712h4.688c-0.064-0.757-0.286-1.333-0.664-1.728s-0.904-0.593-1.576-0.593
		C84.983,172.768,84.437,172.971,84.016,173.376z"/>
	<path d="M91.032,180v-11.776h1.296V180H91.032z"/>
	<path d="M94.711,168.544h1.584v1.472h-1.584V168.544z M94.839,180v-8.048h1.296V180H94.839z"/>
	<path d="M105.56,174.944V180h-1.296v-4.992c0-0.746-0.15-1.293-0.448-1.64c-0.299-0.347-0.769-0.521-1.408-0.521
		c-0.747,0-1.344,0.229-1.792,0.688c-0.448,0.459-0.672,1.077-0.672,1.855V180h-1.296v-5.792c0-0.832-0.043-1.584-0.128-2.256h1.232
		l0.128,1.439c0.245-0.522,0.613-0.925,1.104-1.208c0.491-0.282,1.05-0.424,1.681-0.424
		C104.594,171.76,105.56,172.821,105.56,174.944z"/>
	<path d="M115.176,171.952v7.983c0,1.195-0.307,2.099-0.92,2.713c-0.614,0.613-1.518,0.92-2.713,0.92
		c-1.227,0-2.282-0.278-3.168-0.832l0.225-1.057c0.512,0.288,0.994,0.496,1.447,0.624s0.953,0.192,1.496,0.192
		c0.779,0,1.365-0.206,1.76-0.616s0.593-1.021,0.593-1.832v-1.904c-0.245,0.513-0.606,0.91-1.08,1.192
		c-0.476,0.283-1.038,0.424-1.688,0.424c-0.703,0-1.33-0.165-1.88-0.496c-0.55-0.33-0.974-0.8-1.272-1.407
		c-0.298-0.608-0.447-1.307-0.447-2.097c0-0.789,0.149-1.487,0.447-2.096c0.299-0.608,0.723-1.077,1.272-1.408
		c0.55-0.33,1.177-0.496,1.88-0.496c0.641,0,1.197,0.139,1.672,0.416s0.835,0.667,1.08,1.168v-1.392H115.176z M113.215,177.896
		c0.443-0.518,0.664-1.229,0.664-2.137c0-0.906-0.221-1.618-0.664-2.136c-0.442-0.518-1.053-0.776-1.832-0.776
		c-0.789,0-1.41,0.259-1.863,0.776s-0.68,1.229-0.68,2.136c0,0.907,0.227,1.619,0.68,2.137c0.453,0.517,1.074,0.775,1.863,0.775
		C112.162,178.672,112.772,178.413,113.215,177.896z"/>
</g>
<g>
	<defs>
		<rect id="SVGID_5_" y="52" width="28" height="28"/>
	</defs>
	<clipPath id="SVGID_6_">
		<use xlink:href="#SVGID_5_"  overflow="visible"/>
	</clipPath>
	<rect x="-5" y="47" clip-path="url(#SVGID_6_)" fill="#FEE986" width="38" height="38"/>
</g>
<g>
	<path d="M59.416,70.064v5.279c-0.448,0.235-1.035,0.424-1.76,0.568c-0.725,0.144-1.461,0.216-2.208,0.216
		c-1.131,0-2.107-0.231-2.928-0.696c-0.821-0.464-1.448-1.133-1.88-2.008c-0.432-0.874-0.648-1.92-0.648-3.136
		c0-1.205,0.216-2.242,0.648-3.112c0.432-0.869,1.05-1.536,1.856-2c0.805-0.464,1.757-0.695,2.856-0.695
		c0.8,0,1.533,0.119,2.2,0.359s1.24,0.601,1.72,1.08l-0.512,1.008c-0.555-0.469-1.096-0.808-1.624-1.016
		c-0.528-0.208-1.123-0.312-1.784-0.312c-1.291,0-2.28,0.403-2.968,1.208c-0.688,0.806-1.032,1.966-1.032,3.48
		c0,1.547,0.352,2.723,1.056,3.528c0.704,0.805,1.728,1.208,3.072,1.208c0.949,0,1.861-0.149,2.736-0.448v-3.473h-2.832v-1.039
		H59.416z"/>
	<path d="M66.424,67.856l-0.032,1.184c-0.245-0.085-0.528-0.128-0.848-0.128c-0.779,0-1.357,0.242-1.736,0.728
		c-0.378,0.486-0.568,1.075-0.568,1.769V76h-1.296v-5.792c0-0.832-0.043-1.584-0.128-2.256h1.232l0.128,1.488
		c0.203-0.544,0.528-0.96,0.976-1.248c0.448-0.288,0.96-0.433,1.536-0.433C65.954,67.76,66.2,67.792,66.424,67.856z"/>
	<path d="M74.68,67.952V76H73.4v-1.456c-0.235,0.502-0.59,0.888-1.064,1.16c-0.475,0.271-1.027,0.408-1.656,0.408
		c-0.715,0-1.341-0.171-1.88-0.513c-0.539-0.341-0.955-0.823-1.248-1.447s-0.44-1.353-0.44-2.185s0.149-1.565,0.448-2.2
		c0.299-0.634,0.717-1.128,1.256-1.479c0.539-0.353,1.16-0.528,1.864-0.528c0.629,0,1.179,0.139,1.648,0.416
		s0.827,0.667,1.072,1.168v-1.392H74.68z M72.76,74.232c0.426-0.539,0.64-1.305,0.64-2.297c0-0.991-0.214-1.754-0.64-2.287
		c-0.427-0.533-1.035-0.801-1.824-0.801c-0.789,0-1.405,0.275-1.848,0.824c-0.443,0.55-0.664,1.314-0.664,2.296
		s0.218,1.739,0.656,2.272s1.056,0.8,1.856,0.8C71.725,75.04,72.333,74.771,72.76,74.232z"/>
	<path d="M83.08,68.288c0.544,0.352,0.965,0.846,1.264,1.479c0.299,0.635,0.448,1.368,0.448,2.2s-0.149,1.561-0.448,2.185
		s-0.717,1.106-1.256,1.447c-0.539,0.342-1.166,0.513-1.88,0.513c-0.63,0-1.179-0.139-1.648-0.416
		c-0.47-0.277-0.827-0.672-1.072-1.185v4.944h-1.296v-9.248c0-0.832-0.043-1.584-0.128-2.256h1.232l0.128,1.552
		c0.224-0.555,0.579-0.984,1.064-1.288s1.059-0.456,1.72-0.456C81.912,67.76,82.536,67.936,83.08,68.288z M82.8,74.24
		c0.432-0.533,0.648-1.291,0.648-2.272s-0.219-1.746-0.656-2.296c-0.438-0.549-1.045-0.824-1.824-0.824
		c-0.8,0-1.414,0.268-1.84,0.801c-0.427,0.533-0.64,1.296-0.64,2.287c0,0.992,0.213,1.758,0.64,2.297
		c0.426,0.538,1.04,0.808,1.84,0.808C81.757,75.04,82.368,74.773,82.8,74.24z"/>
	<path d="M93.704,70.944V76h-1.296v-4.992c0-0.746-0.149-1.293-0.448-1.64c-0.299-0.347-0.768-0.521-1.408-0.521
		c-0.747,0-1.344,0.229-1.792,0.688c-0.448,0.459-0.672,1.077-0.672,1.855V76h-1.296V64.224h1.296v5.04
		c0.256-0.49,0.621-0.863,1.096-1.12c0.474-0.256,1.016-0.384,1.624-0.384C92.738,67.76,93.704,68.821,93.704,70.944z"/>
	<path d="M96.023,64.544h1.584v1.472h-1.584V64.544z M96.151,76v-8.048h1.296V76H96.151z"/>
	<path d="M101.295,75.6c-0.582-0.341-1.029-0.823-1.344-1.447c-0.315-0.624-0.472-1.353-0.472-2.185s0.16-1.565,0.48-2.2
		c0.32-0.634,0.776-1.128,1.368-1.479c0.592-0.353,1.282-0.528,2.072-0.528c0.544,0,1.069,0.094,1.576,0.28s0.925,0.445,1.256,0.776
		l-0.433,0.96c-0.404-0.32-0.797-0.555-1.176-0.704s-0.766-0.225-1.16-0.225c-0.82,0-1.466,0.275-1.936,0.824
		c-0.469,0.55-0.704,1.314-0.704,2.296c0,0.971,0.232,1.726,0.696,2.265c0.464,0.538,1.111,0.808,1.943,0.808
		c0.395,0,0.781-0.074,1.16-0.224s0.771-0.385,1.176-0.704l0.433,0.96c-0.341,0.319-0.771,0.573-1.288,0.76s-1.053,0.28-1.607,0.28
		C102.557,76.112,101.876,75.941,101.295,75.6z"/>
	<path d="M119.143,64.224V76h-1.279v-1.456c-0.234,0.502-0.59,0.888-1.064,1.16c-0.475,0.271-1.026,0.408-1.656,0.408
		c-0.703,0-1.324-0.177-1.863-0.528s-0.957-0.846-1.256-1.48c-0.299-0.634-0.448-1.367-0.448-2.199s0.146-1.561,0.44-2.185
		c0.293-0.624,0.711-1.106,1.256-1.447c0.543-0.342,1.168-0.513,1.871-0.513c0.63,0,1.18,0.137,1.648,0.408
		c0.469,0.272,0.821,0.653,1.057,1.144v-5.088H119.143z M117.223,74.232c0.427-0.539,0.641-1.305,0.641-2.297
		c0-0.98-0.214-1.741-0.641-2.279c-0.426-0.539-1.034-0.809-1.824-0.809c-0.789,0-1.404,0.268-1.848,0.801
		c-0.442,0.533-0.664,1.285-0.664,2.256c0,0.992,0.222,1.763,0.664,2.312c0.443,0.55,1.059,0.824,1.848,0.824
		C116.188,75.04,116.797,74.771,117.223,74.232z"/>
	<path d="M128.391,71.936h-5.904c0.011,1.024,0.248,1.798,0.713,2.32c0.463,0.522,1.139,0.784,2.023,0.784
		c0.938,0,1.803-0.314,2.592-0.944l0.432,0.944c-0.352,0.331-0.803,0.592-1.352,0.784c-0.549,0.191-1.111,0.288-1.688,0.288
		c-1.26,0-2.246-0.371-2.961-1.112c-0.714-0.741-1.071-1.757-1.071-3.048c0-0.821,0.16-1.55,0.479-2.185
		c0.32-0.634,0.769-1.128,1.344-1.479c0.576-0.353,1.232-0.528,1.969-0.528c1.066,0,1.904,0.35,2.512,1.048
		c0.608,0.699,0.912,1.662,0.912,2.889V71.936z M123.343,69.376c-0.421,0.405-0.69,0.976-0.808,1.712h4.688
		c-0.064-0.757-0.285-1.333-0.664-1.728s-0.904-0.593-1.576-0.593S123.764,68.971,123.343,69.376z"/>
	<path d="M129.863,75.072l0.432-0.96c0.438,0.341,0.88,0.587,1.328,0.735c0.447,0.149,0.949,0.225,1.504,0.225
		c0.607,0,1.069-0.104,1.384-0.312s0.472-0.509,0.472-0.903c0-0.32-0.106-0.576-0.32-0.769c-0.213-0.191-0.564-0.341-1.055-0.448
		l-1.36-0.319c-0.673-0.149-1.192-0.416-1.56-0.801c-0.369-0.384-0.553-0.842-0.553-1.376c0-0.703,0.283-1.276,0.848-1.72
		c0.565-0.442,1.312-0.664,2.24-0.664c0.565,0,1.099,0.091,1.6,0.272c0.502,0.182,0.923,0.442,1.265,0.784l-0.433,0.943
		c-0.757-0.629-1.567-0.943-2.432-0.943c-0.576,0-1.021,0.109-1.336,0.327c-0.314,0.219-0.472,0.526-0.472,0.921
		c0,0.33,0.099,0.592,0.296,0.783c0.197,0.192,0.514,0.342,0.951,0.448l1.361,0.336c0.746,0.171,1.301,0.435,1.664,0.792
		c0.361,0.357,0.543,0.824,0.543,1.4c0,0.693-0.282,1.248-0.848,1.664s-1.334,0.624-2.305,0.624
		C131.725,76.112,130.652,75.766,129.863,75.072z"/>
	<path d="M138.166,64.544h1.584v1.472h-1.584V64.544z M138.295,76v-8.048h1.295V76H138.295z"/>
	<path d="M149.271,67.952v7.983c0,1.195-0.307,2.099-0.92,2.713c-0.614,0.613-1.518,0.92-2.712,0.92
		c-1.227,0-2.283-0.278-3.168-0.832l0.224-1.057c0.513,0.288,0.995,0.496,1.448,0.624s0.952,0.192,1.496,0.192
		c0.778,0,1.365-0.206,1.76-0.616s0.592-1.021,0.592-1.832v-1.904c-0.245,0.513-0.605,0.91-1.08,1.192
		c-0.475,0.283-1.037,0.424-1.688,0.424c-0.704,0-1.331-0.165-1.881-0.496c-0.549-0.33-0.973-0.8-1.271-1.407
		c-0.299-0.608-0.447-1.307-0.447-2.097c0-0.789,0.148-1.487,0.447-2.096s0.723-1.077,1.271-1.408
		c0.55-0.33,1.177-0.496,1.881-0.496c0.64,0,1.197,0.139,1.672,0.416s0.834,0.667,1.08,1.168v-1.392H149.271z M147.311,73.896
		c0.442-0.518,0.664-1.229,0.664-2.137c0-0.906-0.222-1.618-0.664-2.136c-0.443-0.518-1.054-0.776-1.832-0.776
		c-0.789,0-1.41,0.259-1.864,0.776c-0.453,0.518-0.68,1.229-0.68,2.136c0,0.907,0.227,1.619,0.68,2.137
		c0.454,0.517,1.075,0.775,1.864,0.775C146.257,74.672,146.867,74.413,147.311,73.896z"/>
	<path d="M158.678,70.944V76h-1.296v-4.992c0-0.746-0.149-1.293-0.448-1.64s-0.768-0.521-1.408-0.521
		c-0.746,0-1.344,0.229-1.791,0.688c-0.448,0.459-0.672,1.077-0.672,1.855V76h-1.297v-5.792c0-0.832-0.043-1.584-0.127-2.256h1.231
		l0.128,1.439c0.245-0.522,0.613-0.925,1.104-1.208c0.491-0.282,1.051-0.424,1.681-0.424
		C157.713,67.76,158.678,68.821,158.678,70.944z"/>
</g>
<g>
	<defs>
		<rect id="SVGID_7_" y="208" width="28" height="28"/>
	</defs>
	<clipPath id="SVGID_8_">
		<use xlink:href="#SVGID_7_"  overflow="visible"/>
	</clipPath>
	<rect x="-5" y="203" clip-path="url(#SVGID_8_)" fill="#F16A9D" width="38" height="38"/>
</g>
<g>
	<path d="M50.408,232v-11.392h7.2v1.088h-5.904v3.968h5.584v1.104h-5.584v4.145h5.904V232H50.408z"/>
	<path d="M66.744,223.952V232h-1.28v-1.456c-0.235,0.502-0.59,0.888-1.064,1.16c-0.475,0.271-1.027,0.408-1.656,0.408
		c-0.715,0-1.341-0.171-1.88-0.513c-0.539-0.341-0.955-0.823-1.248-1.447s-0.44-1.353-0.44-2.185s0.149-1.565,0.448-2.2
		c0.299-0.634,0.717-1.128,1.256-1.479c0.539-0.353,1.16-0.528,1.864-0.528c0.629,0,1.179,0.139,1.648,0.416
		s0.827,0.667,1.072,1.168v-1.392H66.744z M64.824,230.232c0.426-0.539,0.64-1.305,0.64-2.297c0-0.991-0.214-1.754-0.64-2.287
		c-0.427-0.533-1.035-0.801-1.824-0.801c-0.789,0-1.405,0.275-1.848,0.824c-0.443,0.55-0.664,1.314-0.664,2.296
		s0.218,1.739,0.656,2.272s1.056,0.8,1.856,0.8C63.79,231.04,64.397,230.771,64.824,230.232z"/>
	<path d="M70.984,224.976v4.4c0,0.598,0.123,1.016,0.368,1.256c0.245,0.24,0.592,0.36,1.04,0.36c0.299,0,0.587-0.048,0.864-0.145
		v1.104c-0.331,0.106-0.704,0.16-1.12,0.16c-0.768,0-1.368-0.216-1.8-0.648c-0.432-0.432-0.648-1.069-0.648-1.912v-4.576H68.12
		v-1.023h1.568v-2.064l1.296-0.464v2.528h2.304v1.023H70.984z"/>
	<path d="M74.728,220.544h1.584v1.472h-1.584V220.544z M74.855,232v-8.048h1.296V232H74.855z"/>
	<path d="M85.576,226.944V232h-1.296v-4.992c0-0.746-0.149-1.293-0.448-1.64c-0.299-0.347-0.768-0.521-1.408-0.521
		c-0.747,0-1.344,0.229-1.792,0.688c-0.448,0.459-0.672,1.077-0.672,1.855V232h-1.296v-5.792c0-0.832-0.043-1.584-0.128-2.256h1.232
		l0.128,1.439c0.245-0.522,0.613-0.925,1.104-1.208c0.491-0.282,1.05-0.424,1.68-0.424C84.61,223.76,85.576,224.821,85.576,226.944z
		"/>
	<path d="M95.191,223.952v7.983c0,1.195-0.307,2.099-0.92,2.713c-0.614,0.613-1.518,0.92-2.712,0.92
		c-1.227,0-2.283-0.278-3.168-0.832l0.224-1.057c0.512,0.288,0.995,0.496,1.448,0.624c0.453,0.128,0.952,0.192,1.496,0.192
		c0.778,0,1.365-0.206,1.76-0.616s0.592-1.021,0.592-1.832v-1.904c-0.246,0.513-0.606,0.91-1.08,1.192
		c-0.475,0.283-1.038,0.424-1.688,0.424c-0.704,0-1.331-0.165-1.88-0.496c-0.549-0.33-0.973-0.8-1.272-1.407
		c-0.298-0.608-0.448-1.307-0.448-2.097c0-0.789,0.149-1.487,0.448-2.096c0.299-0.608,0.723-1.077,1.272-1.408
		c0.549-0.33,1.176-0.496,1.88-0.496c0.64,0,1.197,0.139,1.672,0.416s0.834,0.667,1.08,1.168v-1.392H95.191z M93.231,229.896
		c0.442-0.518,0.664-1.229,0.664-2.137c0-0.906-0.222-1.618-0.664-2.136c-0.443-0.518-1.054-0.776-1.832-0.776
		c-0.79,0-1.411,0.259-1.864,0.776c-0.453,0.518-0.68,1.229-0.68,2.136c0,0.907,0.227,1.619,0.68,2.137
		c0.454,0.517,1.075,0.775,1.864,0.775C92.178,230.672,92.789,230.413,93.231,229.896z"/>
</g>
<g>
	<defs>
		<rect id="SVGID_9_" y="104" width="28" height="28"/>
	</defs>
	<clipPath id="SVGID_10_">
		<use xlink:href="#SVGID_9_"  overflow="visible"/>
	</clipPath>
	<rect x="-5" y="99" clip-path="url(#SVGID_10_)" fill="#FDC375" width="38" height="38"/>
</g>
<g>
	<path d="M50.408,128v-11.392h7.04v1.104h-5.744v3.952h5.424v1.104h-5.424V128H50.408z"/>
	<path d="M59.128,116.544h1.584v1.472h-1.584V116.544z M59.256,128v-8.048h1.296V128H59.256z"/>
	<path d="M63.063,128v-11.776h1.296V128H63.063z"/>
	<path d="M78.472,122.944V128h-1.296v-4.992c0-0.757-0.13-1.307-0.392-1.647c-0.262-0.342-0.686-0.513-1.272-0.513
		c-0.683,0-1.216,0.229-1.6,0.688c-0.384,0.459-0.576,1.083-0.576,1.872V128H72.04v-4.992c0-0.746-0.133-1.293-0.4-1.64
		c-0.267-0.347-0.694-0.521-1.28-0.521c-0.683,0-1.219,0.229-1.608,0.688c-0.39,0.459-0.584,1.083-0.584,1.872V128h-1.296v-5.792
		c0-0.832-0.043-1.584-0.128-2.256h1.232l0.128,1.408c0.224-0.513,0.557-0.907,1-1.185c0.442-0.277,0.957-0.416,1.544-0.416
		c0.64,0,1.163,0.128,1.568,0.384c0.405,0.257,0.704,0.651,0.896,1.185c0.246-0.48,0.605-0.861,1.08-1.145
		c0.475-0.282,1.011-0.424,1.608-0.424C77.581,119.76,78.472,120.821,78.472,122.944z"/>
	<path d="M94.743,127.248l-0.704,0.896c-0.885-0.405-1.632-0.911-2.24-1.52c-0.459,0.479-0.976,0.848-1.552,1.104
		c-0.576,0.257-1.2,0.385-1.872,0.385c-0.726,0-1.366-0.126-1.92-0.376c-0.555-0.251-0.984-0.601-1.288-1.048
		c-0.304-0.448-0.456-0.966-0.456-1.553c0-0.683,0.208-1.298,0.624-1.848s1.088-1.102,2.016-1.656
		c-0.501-0.576-0.851-1.059-1.048-1.448c-0.197-0.389-0.296-0.792-0.296-1.208c0-0.746,0.256-1.346,0.768-1.8
		c0.512-0.453,1.189-0.68,2.032-0.68c0.79,0,1.414,0.205,1.872,0.616c0.458,0.41,0.688,0.968,0.688,1.672
		c0,0.565-0.171,1.072-0.512,1.52c-0.342,0.448-0.944,0.95-1.808,1.504l2.688,3.024c0.501-0.971,0.768-2.144,0.8-3.521h1.152
		c-0.021,0.864-0.134,1.667-0.336,2.408c-0.203,0.742-0.485,1.4-0.848,1.977C93.058,126.304,93.805,126.821,94.743,127.248z
		 M91.079,125.824l-3.04-3.408c-0.747,0.459-1.274,0.894-1.584,1.304c-0.309,0.411-0.464,0.872-0.464,1.384
		c0,0.598,0.219,1.072,0.656,1.425c0.437,0.352,1.024,0.527,1.76,0.527C89.453,127.056,90.343,126.646,91.079,125.824z
		 M87.688,117.896c-0.288,0.271-0.432,0.632-0.432,1.079c0,0.31,0.074,0.604,0.224,0.881c0.149,0.277,0.442,0.666,0.88,1.168
		c0.704-0.438,1.189-0.816,1.456-1.137c0.266-0.319,0.4-0.666,0.4-1.04c0-0.405-0.128-0.732-0.384-0.983
		c-0.256-0.251-0.592-0.376-1.008-0.376C88.354,117.488,87.975,117.624,87.688,117.896z"/>
	<path d="M105.895,120.288c0.545,0.352,0.965,0.846,1.264,1.479c0.299,0.635,0.449,1.368,0.449,2.2s-0.15,1.561-0.449,2.185
		s-0.717,1.106-1.256,1.447c-0.538,0.342-1.165,0.513-1.879,0.513c-0.631,0-1.18-0.139-1.648-0.416
		c-0.47-0.277-0.827-0.672-1.072-1.185v4.944h-1.296v-9.248c0-0.832-0.043-1.584-0.128-2.256h1.232l0.128,1.552
		c0.224-0.555,0.579-0.984,1.064-1.288s1.059-0.456,1.721-0.456C104.727,119.76,105.351,119.936,105.895,120.288z M105.615,126.24
		c0.432-0.533,0.647-1.291,0.647-2.272s-0.219-1.746-0.655-2.296c-0.438-0.549-1.046-0.824-1.824-0.824
		c-0.801,0-1.414,0.268-1.84,0.801c-0.427,0.533-0.64,1.296-0.64,2.287c0,0.992,0.213,1.758,0.64,2.297
		c0.426,0.538,1.04,0.808,1.84,0.808C104.572,127.04,105.183,126.773,105.615,126.24z"/>
	<path d="M116.52,122.944V128h-1.297v-4.992c0-0.746-0.149-1.293-0.447-1.64c-0.299-0.347-0.769-0.521-1.408-0.521
		c-0.747,0-1.344,0.229-1.793,0.688c-0.447,0.459-0.672,1.077-0.672,1.855V128h-1.295v-11.776h1.295v5.04
		c0.256-0.49,0.621-0.863,1.097-1.12c0.474-0.256,1.016-0.384,1.624-0.384C115.553,119.76,116.52,120.821,116.52,122.944z"/>
	<path d="M120.295,127.6c-0.576-0.341-1.021-0.826-1.336-1.456c-0.314-0.629-0.473-1.365-0.473-2.208
		c0-0.842,0.158-1.578,0.473-2.208c0.314-0.629,0.76-1.114,1.336-1.455c0.576-0.342,1.242-0.513,2-0.513
		c0.757,0,1.424,0.171,2,0.513c0.576,0.341,1.021,0.826,1.336,1.455c0.314,0.63,0.472,1.366,0.472,2.208
		c0,0.843-0.157,1.579-0.472,2.208c-0.314,0.63-0.76,1.115-1.336,1.456c-0.576,0.342-1.243,0.513-2,0.513
		C121.537,128.112,120.871,127.941,120.295,127.6z M124.135,126.248c0.426-0.528,0.641-1.299,0.641-2.312
		c0-0.98-0.219-1.741-0.656-2.279c-0.438-0.539-1.046-0.809-1.824-0.809c-0.789,0-1.402,0.27-1.84,0.809
		c-0.438,0.538-0.656,1.299-0.656,2.279c0,1.014,0.216,1.784,0.648,2.312c0.432,0.528,1.047,0.792,1.848,0.792
		C123.095,127.04,123.708,126.776,124.135,126.248z"/>
	<path d="M129.847,120.976v4.4c0,0.598,0.122,1.016,0.368,1.256c0.245,0.24,0.592,0.36,1.039,0.36c0.299,0,0.588-0.048,0.865-0.145
		v1.104c-0.331,0.106-0.705,0.16-1.121,0.16c-0.768,0-1.367-0.216-1.799-0.648c-0.433-0.432-0.648-1.069-0.648-1.912v-4.576h-1.568
		v-1.023h1.568v-2.064l1.296-0.464v2.528h2.304v1.023H129.847z"/>
	<path d="M135.047,127.6c-0.576-0.341-1.021-0.826-1.336-1.456c-0.314-0.629-0.473-1.365-0.473-2.208
		c0-0.842,0.158-1.578,0.473-2.208c0.314-0.629,0.76-1.114,1.336-1.455c0.576-0.342,1.242-0.513,2-0.513
		c0.757,0,1.424,0.171,2,0.513c0.576,0.341,1.021,0.826,1.336,1.455c0.314,0.63,0.472,1.366,0.472,2.208
		c0,0.843-0.157,1.579-0.472,2.208c-0.314,0.63-0.76,1.115-1.336,1.456c-0.576,0.342-1.243,0.513-2,0.513
		C136.289,128.112,135.623,127.941,135.047,127.6z M138.887,126.248c0.426-0.528,0.641-1.299,0.641-2.312
		c0-0.98-0.219-1.741-0.656-2.279c-0.438-0.539-1.046-0.809-1.824-0.809c-0.789,0-1.402,0.27-1.84,0.809
		c-0.438,0.538-0.656,1.299-0.656,2.279c0,1.014,0.216,1.784,0.648,2.312c0.432,0.528,1.047,0.792,1.848,0.792
		C137.847,127.04,138.46,126.776,138.887,126.248z"/>
	<path d="M150.038,119.952v7.983c0,1.195-0.307,2.099-0.92,2.713c-0.614,0.613-1.518,0.92-2.712,0.92
		c-1.227,0-2.283-0.278-3.168-0.832l0.224-1.057c0.513,0.288,0.995,0.496,1.448,0.624s0.952,0.192,1.496,0.192
		c0.778,0,1.365-0.206,1.76-0.616s0.592-1.021,0.592-1.832v-1.904c-0.245,0.513-0.605,0.91-1.08,1.192
		c-0.475,0.283-1.037,0.424-1.688,0.424c-0.704,0-1.331-0.165-1.881-0.496c-0.549-0.33-0.973-0.8-1.271-1.407
		c-0.299-0.608-0.447-1.307-0.447-2.097c0-0.789,0.148-1.487,0.447-2.096s0.723-1.077,1.271-1.408
		c0.55-0.33,1.177-0.496,1.881-0.496c0.64,0,1.197,0.139,1.672,0.416s0.834,0.667,1.08,1.168v-1.392H150.038z M148.078,125.896
		c0.442-0.518,0.664-1.229,0.664-2.137c0-0.906-0.222-1.618-0.664-2.136c-0.443-0.518-1.054-0.776-1.832-0.776
		c-0.789,0-1.41,0.259-1.864,0.776c-0.453,0.518-0.68,1.229-0.68,2.136c0,0.907,0.227,1.619,0.68,2.137
		c0.454,0.517,1.075,0.775,1.864,0.775C147.024,126.672,147.635,126.413,148.078,125.896z"/>
	<path d="M157.014,119.856l-0.031,1.184c-0.246-0.085-0.528-0.128-0.848-0.128c-0.779,0-1.357,0.242-1.736,0.728
		c-0.379,0.486-0.568,1.075-0.568,1.769V128h-1.296v-5.792c0-0.832-0.043-1.584-0.128-2.256h1.232l0.127,1.488
		c0.203-0.544,0.528-0.96,0.977-1.248c0.447-0.288,0.96-0.433,1.536-0.433C156.545,119.76,156.79,119.792,157.014,119.856z"/>
	<path d="M165.27,119.952V128h-1.279v-1.456c-0.234,0.502-0.59,0.888-1.064,1.16c-0.475,0.271-1.026,0.408-1.656,0.408
		c-0.715,0-1.341-0.171-1.879-0.513c-0.539-0.341-0.955-0.823-1.248-1.447c-0.294-0.624-0.44-1.353-0.44-2.185
		s0.149-1.565,0.448-2.2c0.299-0.634,0.717-1.128,1.256-1.479c0.539-0.353,1.16-0.528,1.863-0.528c0.63,0,1.18,0.139,1.648,0.416
		s0.826,0.667,1.072,1.168v-1.392H165.27z M163.35,126.232c0.427-0.539,0.641-1.305,0.641-2.297c0-0.991-0.214-1.754-0.641-2.287
		c-0.426-0.533-1.034-0.801-1.824-0.801c-0.789,0-1.404,0.275-1.848,0.824c-0.442,0.55-0.664,1.314-0.664,2.296
		s0.219,1.739,0.656,2.272s1.057,0.8,1.855,0.8C162.315,127.04,162.924,126.771,163.35,126.232z"/>
	<path d="M173.67,120.288c0.545,0.352,0.965,0.846,1.264,1.479c0.299,0.635,0.449,1.368,0.449,2.2s-0.15,1.561-0.449,2.185
		s-0.717,1.106-1.256,1.447c-0.538,0.342-1.165,0.513-1.879,0.513c-0.631,0-1.18-0.139-1.648-0.416
		c-0.47-0.277-0.827-0.672-1.072-1.185v4.944h-1.296v-9.248c0-0.832-0.043-1.584-0.128-2.256h1.232l0.127,1.552
		c0.225-0.555,0.579-0.984,1.064-1.288s1.059-0.456,1.721-0.456C172.502,119.76,173.126,119.936,173.67,120.288z M173.391,126.24
		c0.432-0.533,0.647-1.291,0.647-2.272s-0.219-1.746-0.655-2.296c-0.438-0.549-1.046-0.824-1.824-0.824
		c-0.801,0-1.414,0.268-1.84,0.801c-0.428,0.533-0.641,1.296-0.641,2.287c0,0.992,0.213,1.758,0.641,2.297
		c0.426,0.538,1.039,0.808,1.84,0.808C172.348,127.04,172.958,126.773,173.391,126.24z"/>
	<path d="M184.294,122.944V128h-1.296v-4.992c0-0.746-0.15-1.293-0.448-1.64c-0.299-0.347-0.769-0.521-1.408-0.521
		c-0.747,0-1.344,0.229-1.792,0.688c-0.447,0.459-0.672,1.077-0.672,1.855V128h-1.296v-11.776h1.296v5.04
		c0.256-0.49,0.621-0.863,1.096-1.12c0.475-0.256,1.016-0.384,1.625-0.384C183.328,119.76,184.294,120.821,184.294,122.944z"/>
	<path d="M193.813,119.952l-3.76,8.784c-0.396,0.917-0.891,1.589-1.488,2.016c-0.597,0.427-1.333,0.72-2.208,0.88l-0.271-1.008
		c0.757-0.171,1.33-0.397,1.72-0.68c0.39-0.283,0.712-0.718,0.968-1.305l0.32-0.72l-3.408-7.968h1.359l2.721,6.64l2.752-6.64
		H193.813z"/>
</g>
<g>
	<defs>
		<rect id="SVGID_11_" y="260" width="28" height="28"/>
	</defs>
	<clipPath id="SVGID_12_">
		<use xlink:href="#SVGID_11_"  overflow="visible"/>
	</clipPath>
	<rect x="-5" y="255" clip-path="url(#SVGID_12_)" fill="#34C5F3" width="38" height="38"/>
</g>
<g>
	<path d="M50.408,272.608h4.544c1.173,0,2.088,0.282,2.744,0.848c0.656,0.565,0.984,1.344,0.984,2.336s-0.331,1.773-0.992,2.344
		c-0.662,0.571-1.574,0.856-2.736,0.856H51.72V284h-1.312V272.608z M54.84,277.904c0.843,0,1.478-0.182,1.904-0.544
		c0.426-0.363,0.64-0.886,0.64-1.568s-0.213-1.202-0.64-1.56c-0.427-0.357-1.062-0.536-1.904-0.536h-3.12v4.208H54.84z"/>
	<path d="M67.16,279.936h-5.904c0.01,1.024,0.248,1.798,0.712,2.32s1.139,0.784,2.024,0.784c0.938,0,1.803-0.314,2.592-0.944
		l0.432,0.944c-0.352,0.331-0.803,0.592-1.352,0.784c-0.549,0.191-1.112,0.288-1.688,0.288c-1.259,0-2.245-0.371-2.96-1.112
		c-0.714-0.741-1.072-1.757-1.072-3.048c0-0.821,0.16-1.55,0.48-2.185c0.32-0.634,0.768-1.128,1.344-1.479
		c0.576-0.353,1.232-0.528,1.968-0.528c1.066,0,1.904,0.35,2.512,1.048c0.608,0.699,0.912,1.662,0.912,2.889V279.936z
		 M62.112,277.376c-0.421,0.405-0.691,0.976-0.808,1.712h4.688c-0.064-0.757-0.286-1.333-0.664-1.728s-0.904-0.593-1.576-0.593
		C63.08,276.768,62.533,276.971,62.112,277.376z"/>
	<path d="M70.824,276.976v4.4c0,0.598,0.123,1.016,0.368,1.256c0.245,0.24,0.592,0.36,1.04,0.36c0.299,0,0.587-0.048,0.864-0.145
		v1.104c-0.331,0.106-0.704,0.16-1.12,0.16c-0.768,0-1.368-0.216-1.8-0.648c-0.432-0.432-0.648-1.069-0.648-1.912v-4.576h-1.568
		v-1.023h1.568v-2.064l1.296-0.464v2.528h2.304v1.023H70.824z"/>
	<path d="M76.472,276.976v4.4c0,0.598,0.123,1.016,0.368,1.256c0.245,0.24,0.592,0.36,1.04,0.36c0.299,0,0.587-0.048,0.864-0.145
		v1.104c-0.331,0.106-0.704,0.16-1.12,0.16c-0.768,0-1.368-0.216-1.8-0.648c-0.432-0.432-0.648-1.069-0.648-1.912v-4.576h-1.568
		v-1.023h1.568v-2.064l1.296-0.464v2.528h2.304v1.023H76.472z"/>
	<path d="M80.215,272.544h1.584v1.472h-1.584V272.544z M80.343,284v-8.048h1.296V284H80.343z"/>
	<path d="M91.063,278.944V284h-1.296v-4.992c0-0.746-0.149-1.293-0.448-1.64c-0.299-0.347-0.768-0.521-1.408-0.521
		c-0.747,0-1.344,0.229-1.792,0.688c-0.448,0.459-0.672,1.077-0.672,1.855V284h-1.296v-5.792c0-0.832-0.043-1.584-0.128-2.256h1.232
		l0.128,1.439c0.245-0.522,0.613-0.925,1.104-1.208c0.491-0.282,1.05-0.424,1.68-0.424C90.098,275.76,91.063,276.821,91.063,278.944
		z"/>
	<path d="M100.679,275.952v7.983c0,1.195-0.307,2.099-0.92,2.713c-0.614,0.613-1.518,0.92-2.712,0.92
		c-1.227,0-2.283-0.278-3.168-0.832l0.224-1.057c0.512,0.288,0.995,0.496,1.448,0.624c0.453,0.128,0.952,0.192,1.496,0.192
		c0.778,0,1.365-0.206,1.76-0.616s0.592-1.021,0.592-1.832v-1.904c-0.246,0.513-0.606,0.91-1.08,1.192
		c-0.475,0.283-1.038,0.424-1.688,0.424c-0.704,0-1.331-0.165-1.88-0.496c-0.549-0.33-0.973-0.8-1.272-1.407
		c-0.298-0.608-0.448-1.307-0.448-2.097c0-0.789,0.149-1.487,0.448-2.096c0.299-0.608,0.723-1.077,1.272-1.408
		c0.549-0.33,1.176-0.496,1.88-0.496c0.64,0,1.197,0.139,1.672,0.416s0.834,0.667,1.08,1.168v-1.392H100.679z M98.719,281.896
		c0.442-0.518,0.664-1.229,0.664-2.137c0-0.906-0.222-1.618-0.664-2.136c-0.443-0.518-1.054-0.776-1.832-0.776
		c-0.79,0-1.411,0.259-1.864,0.776c-0.453,0.518-0.68,1.229-0.68,2.136c0,0.907,0.227,1.619,0.68,2.137
		c0.454,0.517,1.075,0.775,1.864,0.775C97.666,282.672,98.276,282.413,98.719,281.896z"/>
	<path d="M108.687,283.6c-0.581-0.341-1.029-0.823-1.344-1.447c-0.315-0.624-0.472-1.353-0.472-2.185s0.16-1.565,0.479-2.2
		c0.319-0.634,0.776-1.128,1.368-1.479c0.592-0.353,1.282-0.528,2.072-0.528c0.543,0,1.068,0.094,1.576,0.28
		c0.506,0.187,0.925,0.445,1.256,0.776l-0.433,0.96c-0.405-0.32-0.798-0.555-1.176-0.704c-0.379-0.149-0.766-0.225-1.16-0.225
		c-0.821,0-1.467,0.275-1.937,0.824c-0.469,0.55-0.703,1.314-0.703,2.296c0,0.971,0.232,1.726,0.695,2.265
		c0.465,0.538,1.112,0.808,1.944,0.808c0.395,0,0.781-0.074,1.16-0.224c0.378-0.149,0.771-0.385,1.176-0.704l0.433,0.96
		c-0.342,0.319-0.771,0.573-1.289,0.76s-1.053,0.28-1.607,0.28C109.947,284.112,109.268,283.941,108.687,283.6z"/>
	<path d="M122.358,275.952V284h-1.28v-1.456c-0.234,0.502-0.59,0.888-1.063,1.16c-0.476,0.271-1.026,0.408-1.656,0.408
		c-0.715,0-1.341-0.171-1.88-0.513c-0.539-0.341-0.955-0.823-1.248-1.447s-0.439-1.353-0.439-2.185s0.148-1.565,0.447-2.2
		c0.299-0.634,0.717-1.128,1.256-1.479c0.539-0.353,1.16-0.528,1.864-0.528c0.63,0,1.179,0.139,1.647,0.416
		c0.47,0.277,0.827,0.667,1.072,1.168v-1.392H122.358z M120.438,282.232c0.427-0.539,0.64-1.305,0.64-2.297
		c0-0.991-0.213-1.754-0.64-2.287s-1.034-0.801-1.824-0.801c-0.789,0-1.405,0.275-1.848,0.824c-0.442,0.55-0.664,1.314-0.664,2.296
		s0.218,1.739,0.655,2.272s1.057,0.8,1.856,0.8C119.404,283.04,120.012,282.771,120.438,282.232z"/>
	<path d="M126.599,276.976v4.4c0,0.598,0.122,1.016,0.368,1.256c0.245,0.24,0.592,0.36,1.039,0.36c0.299,0,0.588-0.048,0.865-0.145
		v1.104c-0.331,0.106-0.705,0.16-1.121,0.16c-0.768,0-1.367-0.216-1.799-0.648c-0.433-0.432-0.648-1.069-0.648-1.912v-4.576h-1.568
		v-1.023h1.568v-2.064l1.296-0.464v2.528h2.304v1.023H126.599z"/>
	<path d="M129.975,283.072l0.432-0.96c0.438,0.341,0.88,0.587,1.328,0.735c0.447,0.149,0.949,0.225,1.504,0.225
		c0.607,0,1.069-0.104,1.384-0.312s0.472-0.509,0.472-0.903c0-0.32-0.106-0.576-0.32-0.769c-0.213-0.191-0.564-0.341-1.055-0.448
		l-1.36-0.319c-0.673-0.149-1.192-0.416-1.56-0.801c-0.369-0.384-0.553-0.842-0.553-1.376c0-0.703,0.283-1.276,0.848-1.72
		c0.565-0.442,1.312-0.664,2.24-0.664c0.565,0,1.099,0.091,1.6,0.272c0.502,0.182,0.923,0.442,1.265,0.784l-0.433,0.943
		c-0.757-0.629-1.567-0.943-2.432-0.943c-0.576,0-1.021,0.109-1.336,0.327c-0.314,0.219-0.472,0.526-0.472,0.921
		c0,0.33,0.099,0.592,0.296,0.783c0.197,0.192,0.514,0.342,0.951,0.448l1.361,0.336c0.746,0.171,1.301,0.435,1.664,0.792
		c0.361,0.357,0.543,0.824,0.543,1.4c0,0.693-0.282,1.248-0.848,1.664s-1.334,0.624-2.305,0.624
		C131.836,284.112,130.764,283.766,129.975,283.072z"/>
	<path d="M144.67,273.64c-0.24,0.24-0.359,0.654-0.359,1.24v1.072h1.967v1.023h-1.967V284h-1.297v-7.024h-1.568v-1.023h1.568v-1.232
		c0-0.842,0.211-1.479,0.633-1.912c0.421-0.432,1.01-0.647,1.768-0.647c0.373,0,0.736,0.048,1.088,0.144v1.104
		c-0.299-0.086-0.576-0.128-0.832-0.128C145.243,273.28,144.91,273.4,144.67,273.64z"/>
	<path d="M149.238,283.6c-0.576-0.341-1.021-0.826-1.336-1.456c-0.315-0.629-0.473-1.365-0.473-2.208
		c0-0.842,0.157-1.578,0.473-2.208c0.314-0.629,0.76-1.114,1.336-1.455c0.575-0.342,1.242-0.513,2-0.513
		c0.756,0,1.424,0.171,2,0.513c0.575,0.341,1.021,0.826,1.336,1.455c0.314,0.63,0.471,1.366,0.471,2.208
		c0,0.843-0.156,1.579-0.471,2.208c-0.315,0.63-0.761,1.115-1.336,1.456c-0.576,0.342-1.244,0.513-2,0.513
		C150.48,284.112,149.813,283.941,149.238,283.6z M153.078,282.248c0.426-0.528,0.64-1.299,0.64-2.312
		c0-0.98-0.219-1.741-0.656-2.279c-0.438-0.539-1.046-0.809-1.823-0.809c-0.79,0-1.403,0.27-1.841,0.809
		c-0.438,0.538-0.655,1.299-0.655,2.279c0,1.014,0.215,1.784,0.647,2.312s1.048,0.792,1.849,0.792
		C152.037,283.04,152.65,282.776,153.078,282.248z"/>
	<path d="M161.541,275.856l-0.031,1.184c-0.246-0.085-0.528-0.128-0.848-0.128c-0.779,0-1.357,0.242-1.736,0.728
		c-0.379,0.486-0.568,1.075-0.568,1.769V284h-1.296v-5.792c0-0.832-0.043-1.584-0.128-2.256h1.232l0.127,1.488
		c0.203-0.544,0.528-0.96,0.977-1.248c0.447-0.288,0.96-0.433,1.536-0.433C161.072,275.76,161.317,275.792,161.541,275.856z"/>
	<path d="M167.029,284v-11.776h1.296V284H167.029z"/>
	<path d="M172.166,283.6c-0.576-0.341-1.021-0.826-1.336-1.456c-0.315-0.629-0.473-1.365-0.473-2.208
		c0-0.842,0.157-1.578,0.473-2.208c0.314-0.629,0.76-1.114,1.336-1.455c0.575-0.342,1.242-0.513,2-0.513
		c0.756,0,1.424,0.171,2,0.513c0.575,0.341,1.021,0.826,1.336,1.455c0.314,0.63,0.471,1.366,0.471,2.208
		c0,0.843-0.156,1.579-0.471,2.208c-0.315,0.63-0.761,1.115-1.336,1.456c-0.576,0.342-1.244,0.513-2,0.513
		C173.408,284.112,172.741,283.941,172.166,283.6z M176.006,282.248c0.426-0.528,0.64-1.299,0.64-2.312
		c0-0.98-0.219-1.741-0.656-2.279c-0.438-0.539-1.046-0.809-1.823-0.809c-0.79,0-1.403,0.27-1.841,0.809
		c-0.438,0.538-0.655,1.299-0.655,2.279c0,1.014,0.215,1.784,0.647,2.312s1.048,0.792,1.849,0.792
		C174.965,283.04,175.578,282.776,176.006,282.248z"/>
	<path d="M186.901,278.944V284h-1.296v-4.992c0-0.746-0.15-1.293-0.448-1.64c-0.299-0.347-0.769-0.521-1.408-0.521
		c-0.747,0-1.344,0.229-1.792,0.688c-0.447,0.459-0.672,1.077-0.672,1.855V284h-1.296v-5.792c0-0.832-0.043-1.584-0.128-2.256h1.232
		l0.127,1.439c0.246-0.522,0.613-0.925,1.104-1.208c0.491-0.282,1.05-0.424,1.681-0.424
		C185.936,275.76,186.901,276.821,186.901,278.944z"/>
	<path d="M196.518,275.952v7.983c0,1.195-0.307,2.099-0.92,2.713c-0.614,0.613-1.518,0.92-2.713,0.92
		c-1.227,0-2.282-0.278-3.168-0.832l0.225-1.057c0.512,0.288,0.994,0.496,1.447,0.624s0.953,0.192,1.496,0.192
		c0.779,0,1.365-0.206,1.76-0.616s0.593-1.021,0.593-1.832v-1.904c-0.245,0.513-0.606,0.91-1.08,1.192
		c-0.476,0.283-1.038,0.424-1.688,0.424c-0.703,0-1.33-0.165-1.88-0.496c-0.55-0.33-0.974-0.8-1.272-1.407
		c-0.298-0.608-0.447-1.307-0.447-2.097c0-0.789,0.149-1.487,0.447-2.096c0.299-0.608,0.723-1.077,1.272-1.408
		c0.55-0.33,1.177-0.496,1.88-0.496c0.641,0,1.197,0.139,1.672,0.416s0.835,0.667,1.08,1.168v-1.392H196.518z M194.557,281.896
		c0.443-0.518,0.664-1.229,0.664-2.137c0-0.906-0.221-1.618-0.664-2.136c-0.442-0.518-1.053-0.776-1.832-0.776
		c-0.789,0-1.41,0.259-1.863,0.776s-0.68,1.229-0.68,2.136c0,0.907,0.227,1.619,0.68,2.137c0.453,0.517,1.074,0.775,1.863,0.775
		C193.504,282.672,194.114,282.413,194.557,281.896z"/>
</g>
<g>
	<path d="M56.136,296.288c0.544,0.352,0.965,0.846,1.264,1.479c0.299,0.635,0.448,1.368,0.448,2.2s-0.149,1.561-0.448,2.185
		s-0.717,1.106-1.256,1.447c-0.539,0.342-1.166,0.513-1.88,0.513c-0.63,0-1.179-0.139-1.648-0.416
		c-0.47-0.277-0.827-0.672-1.072-1.185v4.944h-1.296v-9.248c0-0.832-0.043-1.584-0.128-2.256h1.232l0.128,1.552
		c0.224-0.555,0.579-0.984,1.064-1.288s1.059-0.456,1.72-0.456C54.968,295.76,55.592,295.936,56.136,296.288z M55.856,302.24
		c0.432-0.533,0.648-1.291,0.648-2.272s-0.219-1.746-0.656-2.296c-0.438-0.549-1.045-0.824-1.824-0.824
		c-0.8,0-1.414,0.268-1.84,0.801c-0.427,0.533-0.64,1.296-0.64,2.287c0,0.992,0.213,1.758,0.64,2.297
		c0.426,0.538,1.04,0.808,1.84,0.808C54.813,303.04,55.424,302.773,55.856,302.24z"/>
	<path d="M66.583,299.936H60.68c0.01,1.024,0.248,1.798,0.712,2.32s1.139,0.784,2.024,0.784c0.938,0,1.803-0.314,2.592-0.944
		l0.432,0.944c-0.352,0.331-0.803,0.592-1.352,0.784c-0.549,0.191-1.112,0.288-1.688,0.288c-1.259,0-2.245-0.371-2.96-1.112
		c-0.714-0.741-1.072-1.757-1.072-3.048c0-0.821,0.16-1.55,0.48-2.185c0.32-0.634,0.768-1.128,1.344-1.479
		c0.576-0.353,1.232-0.528,1.968-0.528c1.066,0,1.904,0.35,2.512,1.048c0.608,0.699,0.912,1.662,0.912,2.889V299.936z
		 M61.536,297.376c-0.421,0.405-0.691,0.976-0.808,1.712h4.688c-0.064-0.757-0.286-1.333-0.664-1.728s-0.904-0.593-1.576-0.593
		C62.503,296.768,61.957,296.971,61.536,297.376z"/>
	<path d="M73.032,295.856L73,297.04c-0.245-0.085-0.528-0.128-0.848-0.128c-0.779,0-1.357,0.242-1.736,0.728
		c-0.378,0.486-0.568,1.075-0.568,1.769V304h-1.296v-5.792c0-0.832-0.043-1.584-0.128-2.256h1.232l0.128,1.488
		c0.203-0.544,0.528-0.96,0.976-1.248c0.448-0.288,0.96-0.433,1.536-0.433C72.562,295.76,72.808,295.792,73.032,295.856z"/>
	<path d="M74.216,292.544H75.8v1.472h-1.584V292.544z M74.344,304v-8.048h1.296V304H74.344z"/>
	<path d="M79.479,303.6c-0.576-0.341-1.021-0.826-1.336-1.456c-0.315-0.629-0.472-1.365-0.472-2.208
		c0-0.842,0.157-1.578,0.472-2.208c0.314-0.629,0.76-1.114,1.336-1.455c0.576-0.342,1.242-0.513,2-0.513
		c0.757,0,1.424,0.171,2,0.513c0.576,0.341,1.021,0.826,1.336,1.455c0.314,0.63,0.472,1.366,0.472,2.208
		c0,0.843-0.157,1.579-0.472,2.208c-0.315,0.63-0.76,1.115-1.336,1.456c-0.576,0.342-1.243,0.513-2,0.513
		C80.722,304.112,80.055,303.941,79.479,303.6z M83.319,302.248c0.426-0.528,0.64-1.299,0.64-2.312c0-0.98-0.219-1.741-0.656-2.279
		c-0.438-0.539-1.045-0.809-1.824-0.809c-0.79,0-1.403,0.27-1.84,0.809c-0.438,0.538-0.656,1.299-0.656,2.279
		c0,1.014,0.216,1.784,0.648,2.312s1.048,0.792,1.848,0.792C82.279,303.04,82.893,302.776,83.319,302.248z"/>
	<path d="M94.392,292.224V304h-1.28v-1.456c-0.235,0.502-0.59,0.888-1.064,1.16c-0.475,0.271-1.027,0.408-1.656,0.408
		c-0.704,0-1.325-0.177-1.864-0.528c-0.539-0.352-0.958-0.846-1.256-1.48c-0.298-0.634-0.448-1.367-0.448-2.199
		s0.146-1.561,0.44-2.185s0.712-1.106,1.256-1.447c0.544-0.342,1.168-0.513,1.872-0.513c0.629,0,1.179,0.137,1.648,0.408
		c0.469,0.272,0.821,0.653,1.056,1.144v-5.088H94.392z M92.472,302.232c0.426-0.539,0.64-1.305,0.64-2.297
		c0-0.98-0.214-1.741-0.64-2.279c-0.427-0.539-1.035-0.809-1.824-0.809c-0.789,0-1.405,0.268-1.848,0.801
		c-0.443,0.533-0.664,1.285-0.664,2.256c0,0.992,0.221,1.763,0.664,2.312c0.442,0.55,1.059,0.824,1.848,0.824
		C91.437,303.04,92.045,302.771,92.472,302.232z"/>
	<path d="M96.407,303.072l0.432-0.96c0.437,0.341,0.88,0.587,1.328,0.735c0.448,0.149,0.949,0.225,1.504,0.225
		c0.608,0,1.069-0.104,1.384-0.312s0.472-0.509,0.472-0.903c0-0.32-0.107-0.576-0.32-0.769c-0.213-0.191-0.565-0.341-1.056-0.448
		l-1.36-0.319c-0.672-0.149-1.192-0.416-1.56-0.801c-0.368-0.384-0.552-0.842-0.552-1.376c0-0.703,0.283-1.276,0.848-1.72
		c0.565-0.442,1.312-0.664,2.24-0.664c0.565,0,1.099,0.091,1.6,0.272s0.922,0.442,1.264,0.784l-0.432,0.943
		c-0.757-0.629-1.568-0.943-2.432-0.943c-0.576,0-1.021,0.109-1.336,0.327c-0.314,0.219-0.472,0.526-0.472,0.921
		c0,0.33,0.098,0.592,0.296,0.783c0.197,0.192,0.514,0.342,0.952,0.448l1.36,0.336c0.747,0.171,1.301,0.435,1.664,0.792
		c0.362,0.357,0.544,0.824,0.544,1.4c0,0.693-0.283,1.248-0.848,1.664c-0.565,0.416-1.333,0.624-2.304,0.624
		C98.269,304.112,97.196,303.766,96.407,303.072z"/>
	<path d="M110.343,303.6c-0.576-0.341-1.021-0.826-1.336-1.456c-0.315-0.629-0.472-1.365-0.472-2.208
		c0-0.842,0.156-1.578,0.472-2.208c0.314-0.629,0.76-1.114,1.336-1.455c0.575-0.342,1.242-0.513,2-0.513
		c0.757,0,1.424,0.171,2,0.513c0.575,0.341,1.021,0.826,1.336,1.455c0.314,0.63,0.472,1.366,0.472,2.208
		c0,0.843-0.157,1.579-0.472,2.208c-0.315,0.63-0.761,1.115-1.336,1.456c-0.576,0.342-1.243,0.513-2,0.513
		C111.585,304.112,110.918,303.941,110.343,303.6z M114.183,302.248c0.427-0.528,0.64-1.299,0.64-2.312
		c0-0.98-0.219-1.741-0.656-2.279c-0.438-0.539-1.045-0.809-1.823-0.809c-0.79,0-1.403,0.27-1.841,0.809
		c-0.438,0.538-0.655,1.299-0.655,2.279c0,1.014,0.216,1.784,0.647,2.312c0.433,0.528,1.049,0.792,1.849,0.792
		S113.756,302.776,114.183,302.248z"/>
	<path d="M120.255,293.64c-0.239,0.24-0.36,0.654-0.36,1.24v1.072h1.969v1.023h-1.969V304H118.6v-7.024h-1.568v-1.023h1.568v-1.232
		c0-0.842,0.21-1.479,0.631-1.912c0.422-0.432,1.011-0.647,1.769-0.647c0.373,0,0.735,0.048,1.088,0.144v1.104
		c-0.299-0.086-0.576-0.128-0.832-0.128C120.828,293.28,120.495,293.4,120.255,293.64z"/>
	<path d="M129.463,296.976v4.4c0,0.598,0.122,1.016,0.367,1.256c0.246,0.24,0.592,0.36,1.04,0.36c0.299,0,0.587-0.048,0.864-0.145
		v1.104c-0.33,0.106-0.704,0.16-1.12,0.16c-0.769,0-1.368-0.216-1.8-0.648c-0.432-0.432-0.648-1.069-0.648-1.912v-4.576h-1.568
		v-1.023h1.568v-2.064l1.297-0.464v2.528h2.303v1.023H129.463z"/>
	<path d="M133.206,292.544h1.584v1.472h-1.584V292.544z M133.334,304v-8.048h1.296V304H133.334z"/>
	<path d="M148.742,298.944V304h-1.297v-4.992c0-0.757-0.13-1.307-0.391-1.647c-0.262-0.342-0.686-0.513-1.272-0.513
		c-0.683,0-1.216,0.229-1.601,0.688c-0.384,0.459-0.576,1.083-0.576,1.872V304h-1.295v-4.992c0-0.746-0.134-1.293-0.4-1.64
		c-0.268-0.347-0.693-0.521-1.28-0.521c-0.683,0-1.219,0.229-1.608,0.688c-0.389,0.459-0.584,1.083-0.584,1.872V304h-1.295v-5.792
		c0-0.832-0.043-1.584-0.129-2.256h1.232l0.128,1.408c0.224-0.513,0.558-0.907,1-1.185s0.957-0.416,1.544-0.416
		c0.641,0,1.162,0.128,1.568,0.384c0.404,0.257,0.703,0.651,0.896,1.185c0.245-0.48,0.605-0.861,1.08-1.145
		c0.475-0.282,1.011-0.424,1.608-0.424C147.852,295.76,148.742,296.821,148.742,298.944z"/>
	<path d="M157.941,299.936h-5.903c0.011,1.024,0.248,1.798,0.712,2.32s1.139,0.784,2.023,0.784c0.939,0,1.803-0.314,2.593-0.944
		l0.432,0.944c-0.353,0.331-0.803,0.592-1.353,0.784c-0.549,0.191-1.111,0.288-1.688,0.288c-1.259,0-2.245-0.371-2.96-1.112
		c-0.714-0.741-1.071-1.757-1.071-3.048c0-0.821,0.16-1.55,0.479-2.185c0.319-0.634,0.769-1.128,1.344-1.479
		c0.576-0.353,1.232-0.528,1.968-0.528c1.066,0,1.904,0.35,2.512,1.048c0.609,0.699,0.912,1.662,0.912,2.889V299.936z
		 M152.895,297.376c-0.422,0.405-0.691,0.976-0.809,1.712h4.688c-0.063-0.757-0.285-1.333-0.664-1.728
		c-0.378-0.395-0.903-0.593-1.575-0.593C153.861,296.768,153.315,296.971,152.895,297.376z"/>
</g>
</svg>
