<?xml version="1.0" encoding="utf-8"?>
<!-- Generator: Adobe Illustrator 15.0.0, SVG Export Plug-In . SVG Version: 6.00 Build 0)  -->
<!DOCTYPE svg PUBLIC "-//W3C//DTD SVG 1.1//EN" "http://www.w3.org/Graphics/SVG/1.1/DTD/svg11.dtd">
<svg version="1.1" id="Layer_1" xmlns="http://www.w3.org/2000/svg" xmlns:xlink="http://www.w3.org/1999/xlink" x="0px" y="0px"
	 width="360px" height="360px" viewBox="0 0 360 360" enable-background="new 0 0 360 360" xml:space="preserve">
<g>
	<path fill="#1069B5" d="M110.847,209.218c0,0,14.709,24.259,21.153,29.782c7,6,15.667,46.333,13.333,74.333
		C143.054,340.695,180,339,180,339v11.5c0,0-51.746,4.693-48.333-37.833c5.065-63.115-16.225-72.832-28.06-85.351
		C97.771,221.145,110.847,209.218,110.847,209.218z"/>
	<path fill="#1069B5" d="M180,248.012c-44.741,0-81.012-36.27-81.012-81.012c0-44.741,36.271-81.012,81.012-81.012V69.667
		c-53.756,0-97.333,43.578-97.333,97.333c0,53.756,43.578,97.334,97.333,97.334V248.012z"/>
</g>
<g>
	<path fill="#1069B5" d="M248.152,209.218c0,0-14.709,24.259-21.152,29.782c-7,6-15.666,46.333-13.334,74.333
		C215.945,340.695,179,339,179,339v11.5c0,0,51.746,4.693,48.334-37.833c-5.064-63.115,16.225-72.832,28.059-85.351
		C261.229,221.145,248.152,209.218,248.152,209.218z"/>
	<path fill="#1069B5" d="M179,248.012c44.741,0,81.012-36.27,81.012-81.012c0-44.741-36.271-81.012-81.012-81.012V69.667
		c53.756,0,97.334,43.578,97.334,97.333c0,53.756-43.578,97.334-97.334,97.334V248.012L179,248.012z"/>
</g>
<path fill="#1069B5" d="M180,220.959c-0.334,0.007-0.665,0.025-1,0.025c-29.814,0-53.985-24.17-53.985-53.984
	c0-29.815,24.17-53.985,53.985-53.985c0.335,0,0.666,0.019,1,0.025v-11.565c-0.334-0.005-0.665-0.025-1-0.025
	c-36.202,0-65.55,29.348-65.55,65.55c0,36.201,29.348,65.55,65.55,65.55c0.335,0,0.666-0.021,1-0.024V220.959z"/>
<circle fill="#1069B5" cx="180.629" cy="226.744" r="5.806"/>
<ellipse fill="#1069B5" cx="180.505" cy="107.192" rx="5.578" ry="5.848"/>
<path fill="#1069B5" d="M215.93,273c-7.791,7.736-21.246,11.568-36.55,11.568c-15.305,0-28.76-3.832-36.55-11.568h-11.552
	c8.341,14.02,26.734,23.078,48.102,23.078c21.367,0,39.761-9.059,48.103-23.078H215.93z"/>
<path fill="#1069B5" d="M220.665,299.078h-3.429c-8.07,7.736-22.012,11.568-37.87,11.568c-15.857,0-29.799-3.832-37.871-11.568
	h-0.442v11.984c9.876,6.975,23.392,11.094,38.313,11.094c16.483,0,31.257-5.024,41.298-13.377L220.665,299.078L220.665,299.078z"/>
<path fill="#1069B5" d="M188.598,51.929c0,4.273-3.465,7.737-7.738,7.737l0,0c-4.271,0-7.735-3.464-7.735-7.737V18.737
	c0-4.273,3.464-7.737,7.735-7.737l0,0c4.273,0,7.738,3.464,7.738,7.737V51.929L188.598,51.929z"/>
<path fill="#1069B5" d="M64.93,159.263c4.273,0,7.736,3.464,7.736,7.737l0,0c0,4.273-3.463,7.737-7.736,7.737H31.738
	c-4.273,0-7.737-3.464-7.737-7.737l0,0c0-4.273,3.464-7.737,7.737-7.737H64.93z"/>
<path fill="#1069B5" d="M327.264,159.263c4.273,0,7.736,3.464,7.736,7.737l0,0c0,4.273-3.463,7.737-7.736,7.737h-33.19
	c-4.273,0-7.737-3.464-7.737-7.737l0,0c0-4.273,3.464-7.737,7.737-7.737H327.264z"/>
<path fill="#1069B5" d="M80.044,53.987l20.158,26.37c2.595,3.395,1.947,8.251-1.448,10.846c-3.395,2.596-8.25,1.947-10.846-1.448
	L67.75,63.385c-2.595-3.395-1.946-8.25,1.449-10.846C72.594,49.945,77.449,50.592,80.044,53.987z"/>
<path fill="#1069B5" d="M280.956,54.987l-20.158,26.37c-2.595,3.395-1.946,8.251,1.448,10.846c3.395,2.596,8.25,1.947,10.846-1.448
	l20.158-26.37c2.596-3.395,1.945-8.25-1.449-10.846C288.406,50.945,283.551,51.592,280.956,54.987z"/>
</svg>
