<?xml version="1.0" encoding="utf-8"?>
<!-- Generator: Adobe Illustrator 15.0.0, SVG Export Plug-In . SVG Version: 6.00 Build 0)  -->
<!DOCTYPE svg PUBLIC "-//W3C//DTD SVG 1.1//EN" "http://www.w3.org/Graphics/SVG/1.1/DTD/svg11.dtd">
<svg version="1.1" id="Layer_1" xmlns="http://www.w3.org/2000/svg" xmlns:xlink="http://www.w3.org/1999/xlink" x="0px" y="0px"
	 width="385px" height="414.5px" viewBox="0 0 385 414.5" enable-background="new 0 0 385 414.5" xml:space="preserve">
<path fill="#A82723" d="M230.324,297.475c-3.905,3.905-10.237,3.905-14.143,0L103.051,184.344c-3.906-3.905-3.906-10.237,0-14.142
	l53.74-53.74c3.905-3.905,10.237-3.905,14.142,0l113.131,113.131c3.904,3.905,3.904,10.237,0,14.142L230.324,297.475z"/>
<rect x="88.655" y="208.541" transform="matrix(-0.7071 -0.7071 0.7071 -0.7071 148.0845 505.0865)" fill="#A82723" width="179.989" height="26.666"/>
<path fill="#A82723" d="M186.35,212.626l-31.898-31.898c-12.732,14.841-20.653,29.131-17.333,38.829
	c8.128,23.741-41.67,54.359-49.576,64.029c-1.86,1.666-3.708,3.407-5.528,5.229c-20.293,20.293-30.633,43.099-23.822,51.971
	c8.872,6.811,31.677-3.529,51.971-23.823c1.821-1.821,3.562-3.668,5.228-5.528c9.669-7.906,40.288-57.703,64.03-49.576
	c9.697,3.32,23.987-4.601,38.828-17.334L186.35,212.626z M70.756,328.219c-2.05-2.05-0.467-6.958,3.536-10.96
	s8.91-5.585,10.96-3.536c2.05,2.051,0.468,6.959-3.536,10.961C77.713,328.688,72.807,330.27,70.756,328.219z"/>
<path fill="#303030" d="M336.979,176.677l-40.02-40.021l-53.748,52.319l52.318-53.747l-52.802-52.802l-44.575,40.26l40.26-44.575
	l-14.564-14.565c-3.904-3.905-10.236-3.905-14.143,0l-8.436,8.436l-35.405,35.404l-31.368,31.369l127.273,127.273l31.368-31.368
	l35.405-35.405l8.436-8.436C340.885,186.913,340.885,180.582,336.979,176.677z"/>
<rect x="100.154" y="199.124" transform="matrix(-0.7071 -0.7071 0.7071 -0.7071 175.8476 493.5865)" fill="#DDC656" width="179.989" height="22.5"/>
<path fill="#63C8CE" d="M355.944,231.07c-0.739-13.217-14.968-43.878-16.006-46.098v-3.311c0,0.002-0.018,3.213-0.032,3.242
	c-0.015-0.029-0.031-0.065-0.031-0.067v0.137c-1.039,2.22-15.269,32.88-16.006,46.098h-0.06c0,0.309,0.021,0.606,0.023,0.914
	c-0.002,0.172,0.01,0.329,0.014,0.495c0.385,16.43,7.396,29.535,16.027,29.601v0.006c0.012,0,0.021-0.003,0.031-0.003
	c0.012,0,0.021,0.003,0.032,0.003v-0.007c8.632-0.064,15.644-13.171,16.027-29.602c0.004-0.164,0.016-0.322,0.014-0.494
	c0.006-0.307,0.024-0.605,0.024-0.914H355.944z"/>
</svg>
