<?xml version="1.0" encoding="utf-8"?>
<!-- Generator: Adobe Illustrator 15.0.0, SVG Export Plug-In . SVG Version: 6.00 Build 0)  -->
<!DOCTYPE svg PUBLIC "-//W3C//DTD SVG 1.1//EN" "http://www.w3.org/Graphics/SVG/1.1/DTD/svg11.dtd">
<svg version="1.1" id="Layer_1" xmlns="http://www.w3.org/2000/svg" xmlns:xlink="http://www.w3.org/1999/xlink" x="0px" y="0px"
	 width="360px" height="360px" viewBox="0 0 360 360" enable-background="new 0 0 360 360" xml:space="preserve">
<path fill="#1069B5" d="M204.52,294.696h-48.006c0,0-5.854-225.589-5.854-258.57S180.517,1,180.517,1l29.856,35.126L204.52,294.696z
	"/>
<path fill="#1069B5" d="M156.123,294.696h48.005c0,0,5.854-225.589,5.854-258.57S180.126,1,180.126,1l-29.857,35.126
	L156.123,294.696z"/>
<polygon fill="#1069B5" points="176.418,333.92 104.605,356.166 104.605,332.163 157.685,293.524 "/>
<polygon fill="#1069B5" points="185.006,333.92 256.82,356.166 256.82,332.163 203.739,293.524 "/>
<polygon fill="#1069B5" points="203.934,339.775 180.614,332.75 157.295,339.775 157.295,293.136 203.934,293.136 "/>
<polygon fill="#1069B5" points="28.107,236.249 180.614,177.704 180.614,101.206 28.107,206.586 "/>
<polygon fill="#1069B5" points="332.829,236.249 180.322,177.704 180.322,101.206 332.829,206.586 "/>
</svg>
