<?xml version="1.0" encoding="utf-8"?>
<!-- Generator: Adobe Illustrator 15.0.0, SVG Export Plug-In . SVG Version: 6.00 Build 0)  -->
<!DOCTYPE svg PUBLIC "-//W3C//DTD SVG 1.1//EN" "http://www.w3.org/Graphics/SVG/1.1/DTD/svg11.dtd">
<svg version="1.1" id="Layer_1" xmlns="http://www.w3.org/2000/svg" xmlns:xlink="http://www.w3.org/1999/xlink" x="0px" y="0px"
	 width="385px" height="414.5px" viewBox="0 0 385 414.5" enable-background="new 0 0 385 414.5" xml:space="preserve">
<ellipse fill="#FBED3E" cx="191.667" cy="387.691" rx="111.333" ry="14.333"/>
<ellipse fill="#FBED3E" cx="191.667" cy="386.69" rx="111.333" ry="14.333"/>
<ellipse fill="#FBED3E" cx="191.667" cy="386.69" rx="111.333" ry="14.333"/>
<ellipse fill="#FBED3E" cx="191.667" cy="387.691" rx="111.333" ry="14.333"/>
<ellipse fill="#FBED3E" cx="191.667" cy="388.692" rx="111.333" ry="14.333"/>
<linearGradient id="SVGID_1_" gradientUnits="userSpaceOnUse" x1="191.6665" y1="363" x2="191.6665" y2="101.9521">
	<stop  offset="0" style="stop-color:#FFEF00;stop-opacity:0.2"/>
	<stop  offset="1" style="stop-color:#F5C971;stop-opacity:0.8"/>
</linearGradient>
<polygon fill="url(#SVGID_1_)" points="303,387.691 191.667,17.023 80.333,387.691 127.667,387.691 127.667,396.189 
	240.333,396.189 240.333,387.691 "/>
<path fill="#FBAB1F" d="M285.236,161.813l-1.87-2.348c-3.1-3.89-9.164-4.214-13.546-0.724l-51.452,40.984
	c-0.844-0.262-1.74-0.403-2.67-0.403h-12.797c12.52-4.385,21.502-16.297,21.502-30.314c0-17.595-14.149-31.877-31.689-32.108v-0.011
	c-0.072,0-0.143,0.005-0.215,0.005c-0.072,0-0.143-0.005-0.215-0.005v0.011c-17.54,0.231-31.689,14.514-31.689,32.108
	c0,14.017,8.982,25.93,21.502,30.314H169.3c-0.93,0-1.826,0.141-2.67,0.403l-51.451-40.984c-4.383-3.49-10.447-3.167-13.546,0.724
	l-1.87,2.348c-3.099,3.891-2.058,9.874,2.324,13.365l58.208,46.366v84.043c0,0.957,0.152,1.878,0.429,2.743
	c-0.078,0.54-0.129,1.089-0.128,1.653l0.07,75.067c0.005,5.602,4.042,10.14,9.015,10.136l3.002-0.003
	c4.974-0.004,9.001-4.55,8.996-10.153l-0.065-70.438h10.672h0.43h10.672l-0.065,70.438c-0.005,5.603,4.022,10.149,8.996,10.153
	l3.002,0.003c4.973,0.003,9.009-4.534,9.015-10.136l0.07-75.067c0-0.564-0.05-1.114-0.128-1.653
	c0.277-0.865,0.429-1.786,0.429-2.743v-84.043l58.208-46.366C287.295,171.687,288.335,165.704,285.236,161.813z"/>
</svg>
