<?xml version="1.0" encoding="utf-8"?>
<!-- Generator: Adobe Illustrator 15.0.0, SVG Export Plug-In . SVG Version: 6.00 Build 0)  -->
<!DOCTYPE svg PUBLIC "-//W3C//DTD SVG 1.1//EN" "http://www.w3.org/Graphics/SVG/1.1/DTD/svg11.dtd">
<svg version="1.1" id="Layer_1" xmlns="http://www.w3.org/2000/svg" xmlns:xlink="http://www.w3.org/1999/xlink" x="0px" y="0px"
	 width="612px" height="792px" viewBox="0 0 612 792" enable-background="new 0 0 612 792" xml:space="preserve">
<linearGradient id="SVGID_1_" gradientUnits="userSpaceOnUse" x1="298.8354" y1="430.3047" x2="298.8354" y2="97.9613">
	<stop  offset="0" style="stop-color:#401B4D"/>
	<stop  offset="1" style="stop-color:#000945"/>
</linearGradient>
<circle fill="url(#SVGID_1_)" cx="298.835" cy="371.303" r="164.557"/>
<g>
	<polygon fill="#754B3C" points="181.406,365.946 184.951,396.617 188.496,427.288 181.406,427.288 174.316,427.288 
		177.861,396.617 	"/>
	<polygon fill="#375109" points="166.617,311.875 151.83,339.904 161.555,339.904 145.558,367.323 158.868,367.323 141.975,396.276 
		181.406,396.276 181.406,283.845 	"/>
	<polygon fill="#2A3A07" points="196.194,311.874 210.982,339.904 201.256,339.904 217.253,367.323 203.943,367.323 
		220.836,396.276 181.406,396.276 181.406,283.844 	"/>
</g>
<g>
	<polygon fill="#754B3C" points="316.667,371.656 319.199,393.559 321.73,415.461 316.667,415.461 311.604,415.461 314.136,393.559 
			"/>
	<polygon fill="#375109" points="306.106,333.043 295.546,353.06 302.491,353.06 291.067,372.64 300.572,372.64 288.509,393.315 
		316.667,393.315 316.667,313.027 	"/>
	<polygon fill="#2A3A07" points="327.227,333.043 337.788,353.059 330.842,353.059 342.267,372.639 332.761,372.639 
		344.824,393.314 316.667,393.314 316.667,313.027 	"/>
</g>
<g>
	<polygon fill="#754B3C" points="255.875,382.104 257.976,400.273 260.076,418.443 255.875,418.443 251.675,418.443 
		253.775,400.273 	"/>
	<polygon fill="#375109" points="247.114,350.071 238.354,366.676 244.115,366.676 234.639,382.92 242.524,382.92 232.516,400.071 
		255.875,400.071 255.875,333.466 	"/>
	<polygon fill="#2A3A07" points="264.636,350.071 273.397,366.676 267.635,366.676 277.112,382.919 269.227,382.919 
		279.234,400.071 255.875,400.071 255.875,333.466 	"/>
</g>
<g>
	<polygon fill="#754B3C" points="390.906,365.946 394.451,396.617 397.996,427.288 390.906,427.288 383.816,427.288 
		387.361,396.617 	"/>
	<polygon fill="#375109" points="376.117,311.875 361.33,339.904 371.055,339.904 355.059,367.323 368.368,367.323 351.475,396.276 
		390.906,396.276 390.906,283.845 	"/>
	<polygon fill="#2A3A07" points="405.694,311.874 420.482,339.904 410.756,339.904 426.754,367.323 413.443,367.323 
		430.336,396.275 390.906,396.275 390.906,283.844 	"/>
</g>
<linearGradient id="SVGID_2_" gradientUnits="userSpaceOnUse" x1="299.3062" y1="458.8633" x2="299.3062" y2="329.7233">
	<stop  offset="0" style="stop-color:#769D62"/>
	<stop  offset="1" style="stop-color:#DBD45A"/>
</linearGradient>
<polygon fill="url(#SVGID_2_)" points="137.278,410.498 151,470.5 169.193,473.928 185,500 265,539.5 352,535.861 422.927,501.055 
	461.333,410.498 "/>
<path fill="#F7EEC3" d="M286.606,255.096c-11.124,0-20.142-9.018-20.142-20.142c0-5.063,1.873-9.686,4.957-13.225
	c-8.456,2.39-14.654,10.158-14.654,19.378c0,11.125,9.018,20.142,20.142,20.142c6.061,0,11.492-2.681,15.185-6.917
	C290.348,254.826,288.509,255.096,286.606,255.096z"/>
<path opacity="0.4" fill="none" stroke="#102322" stroke-width="0.5" d="M300.306,412.5"/>
<path opacity="0.4" fill="none" stroke="#102322" stroke-width="0.5" d="M300.306,362.167"/>
<ellipse opacity="0.5" fill="#666564" cx="298.836" cy="412.961" rx="78" ry="2.5"/>
<g>
	<path fill="#FBD372" d="M241.807,412.468v0.032h-0.001C241.806,412.49,241.807,412.479,241.807,412.468z"/>
</g>
<g>
	<path fill="#FDE59E" d="M315.993,347.764l-0.018-0.021l-15.67-2.998l-15.671,2.998l-0.017,0.021
		c-21.788,6.295-37.685,37.947-41.118,57.611c-0.457,2.617-4.489,5.021-4.489,7.125h122.591c0-1.291-3.886-2.695-4.061-4.191
		C355.297,389.034,338.902,354.383,315.993,347.764z"/>
	<path fill="#992D20" d="M316.744,344.67l-0.018-0.022l-16.42-5.238l-16.42,5.238l-0.018,0.022
		c-25.867,7.474-44.858,49.058-44.858,67.83c0,0,81.38-60.772,61.296-60.772c-20.085,0,61.295,60.772,61.295,60.772
		C361.602,393.728,342.611,352.144,316.744,344.67z"/>
</g>
<path opacity="0.25" d="M361.602,412.5c0-18.772-18.99-60.356-44.857-67.831l-0.018-0.022l-16.42-5.238V412.5H361.602z"/>
<path opacity="0.5" fill="#666564" d="M451.288,419.943c0,1.381-6.529,2.5-14.585,2.5s-14.585-1.119-14.585-2.5
	s6.529-1.5,14.585-1.5S451.288,418.562,451.288,419.943z"/>
<path opacity="0.5" fill="#666564" d="M220.389,461.736c0,1.381-6.529,2.5-14.585,2.5s-14.585-1.119-14.585-2.5
	s6.529-1.5,14.585-1.5S220.389,460.355,220.389,461.736z"/>
<g>
	<polygon fill="#754B3C" points="205.804,415.597 208.5,438.918 211.195,462.238 205.804,462.238 200.414,462.238 203.109,438.918 	
		"/>
	<polygon fill="#375109" points="194.56,374.483 183.316,395.796 190.711,395.796 178.547,416.644 188.668,416.644 175.823,438.658 
		205.804,438.658 205.804,353.171 	"/>
	<polygon fill="#2A3A07" points="217.049,374.483 228.292,395.795 220.897,395.795 233.061,416.644 222.94,416.644 235.785,438.658 
		205.804,438.658 205.804,353.171 	"/>
</g>
<g>
	<polygon fill="#754B3C" points="437.733,378.441 440.171,399.529 442.608,420.617 437.733,420.617 432.858,420.617 
		435.296,399.529 	"/>
	<polygon fill="#375109" points="427.564,341.263 417.397,360.535 424.084,360.535 413.086,379.388 422.236,379.388 
		410.621,399.295 437.733,399.295 437.733,321.99 	"/>
	<polygon fill="#2A3A07" points="447.901,341.262 458.069,360.535 451.381,360.535 462.381,379.387 453.229,379.387 
		464.844,399.295 437.733,399.295 437.733,321.99 	"/>
</g>
<path opacity="0.5" fill="#666564" d="M235.785,392.467"/>
<path fill="#F4F3F2" d="M298.835,188.393c-101.019,0-182.911,81.893-182.911,182.911s81.893,182.911,182.911,182.911
	c101.02,0,182.912-81.893,182.912-182.911S399.854,188.393,298.835,188.393z M298.835,535.861
	c-90.882,0-164.557-73.676-164.557-164.559c0-90.882,73.675-164.557,164.557-164.557c90.883,0,164.558,73.675,164.558,164.557
	C463.393,462.186,389.718,535.861,298.835,535.861z"/>
<path opacity="0.5" fill="#666564" d="M259.869,389.967"/>
<path fill="#F7EEC3" d="M317.695,262.438c0,6.496-4.302,7.167-4.302,7.167s4.29,0.671,4.301,7.144v0.023
	c0-0.004,0.001-0.007,0.001-0.012c0,0.004,0,0.008,0,0.012v-0.023c0.011-6.473,4.301-7.144,4.301-7.144h0.001
	C321.997,269.604,317.695,268.933,317.695,262.438z"/>
<path fill="#F7EEC3" d="M239.586,270.84c0,3.141-2.081,3.466-2.081,3.466s2.075,0.324,2.08,3.455v0.011c0-0.002,0-0.003,0-0.006
	c0,0.002,0,0.004,0,0.006v-0.011c0.005-3.13,2.08-3.455,2.08-3.455h0C241.666,274.306,239.586,273.981,239.586,270.84z"/>
<path fill="#F7EEC3" d="M297.195,214.5c0,9.772-4.302,10.782-4.302,10.782s4.29,1.009,4.301,10.747v0.035
	c0-0.006,0.001-0.011,0.001-0.018c0,0.006,0,0.012,0,0.018v-0.035c0.011-9.737,4.301-10.747,4.301-10.747h0.001
	C301.497,225.282,297.195,224.272,297.195,214.5z"/>
<path fill="#F7EEC3" d="M345.799,238.813c0,5.25-2.927,5.792-2.927,5.792s2.919,0.542,2.926,5.773v0.019
	c0-0.003,0.001-0.006,0.001-0.009c0,0.003,0,0.006,0,0.009v-0.019c0.008-5.231,2.926-5.773,2.926-5.773h0.001
	C348.726,244.605,345.799,244.063,345.799,238.813z"/>
<path fill="#F7EEC3" d="M358.83,250.605c0,7.449-5.677,8.218-5.677,8.218s5.661,0.769,5.675,8.191v0.027
	c0-0.004,0.002-0.008,0.002-0.013c0,0.005,0,0.009,0,0.013v-0.027c0.016-7.422,5.675-8.191,5.675-8.191h0.002
	C364.507,258.824,358.83,258.054,358.83,250.605z"/>
</svg>
