<?xml version="1.0" encoding="utf-8"?>
<!-- Generator: Adobe Illustrator 15.0.0, SVG Export Plug-In . SVG Version: 6.00 Build 0)  -->
<!DOCTYPE svg PUBLIC "-//W3C//DTD SVG 1.1//EN" "http://www.w3.org/Graphics/SVG/1.1/DTD/svg11.dtd">
<svg version="1.1" id="Layer_1" xmlns="http://www.w3.org/2000/svg" xmlns:xlink="http://www.w3.org/1999/xlink" x="0px" y="0px"
	 width="360px" height="360px" viewBox="0 0 360 360" enable-background="new 0 0 360 360" xml:space="preserve">
<g>
	<polygon fill="#1069B5" points="129.441,122.268 134.784,122.268 149.092,81.466 163.399,122.269 168.743,122.268 149.093,66.231 	
		"/>
	<polygon fill="#1069B5" points="142.112,97.799 149.092,78 156.07,97.8 	"/>
	<path fill="#1069B5" d="M129.417,327.984h39.327l-0.001-205.716h-39.327L129.417,327.984z M163.039,291.625l-0.001,30.133
		l-28.641,0.001v-30.135L163.039,291.625z"/>
</g>
<path fill="#1069B5" d="M229.27,104.124c0,0,19.33-14.338,12.58-45.254c-6.752-30.917-29.257-28.677-29.257-28.677
	s8.048,13.351,6.931,16.579c-1.115,3.228-3.069,8.962-8.537,24.196c-5.465,15.234-2.375,19.341,6.432,27.78
	c8.805,8.438,10.688,11.202,10.688,11.202L229.27,104.124z M221.125,91.393c-5.896-7.144-5.536-10.997-1.875-23.893
	c3.66-12.896,4.714-20,4.714-20l-6.069-14.14c0,0,15.733,13.689,17.594,25.275c3.514,21.865-6.227,36.624-7.424,37.308
	c-1.194,0.684-5.252,2.93,0.219,4.931C233.751,102.875,227.02,98.535,221.125,91.393z"/>
<polygon fill="#1069B5" points="218.504,33.421 225.773,36.701 231.759,42.734 231.762,53.38 228.641,48.38 227.342,50.487 
	223.443,46.695 222.309,49.393 216.166,33.421 "/>
<path fill="#1069B5" d="M237.393,209.887c-0.002-53.417-3.252-98.669-7.748-114.202h-6.854
	c-4.494,15.533-7.747,60.786-7.747,114.204c0,66.25,5.003,119.957,11.174,119.957S237.393,276.137,237.393,209.887z"/>
<path fill="#1069B5" d="M212.593,30.192c0,0-6.593,2.808-9.593,3.808s-14.167,9.808-10.5,14.487c3.23,4.121,7.602,3.571,9.833,3.013
	c0,0,4.833-2.5,4-7s0.978-8.191,1.5-9.167S212.593,30.192,212.593,30.192z"/>
</svg>
