<?xml version="1.0" encoding="utf-8"?>
<!-- Generator: Adobe Illustrator 15.0.0, SVG Export Plug-In . SVG Version: 6.00 Build 0)  -->
<!DOCTYPE svg PUBLIC "-//W3C//DTD SVG 1.1//EN" "http://www.w3.org/Graphics/SVG/1.1/DTD/svg11.dtd">
<svg version="1.1" id="Layer_1" xmlns="http://www.w3.org/2000/svg" xmlns:xlink="http://www.w3.org/1999/xlink" x="0px" y="0px"
	 width="385px" height="414.5px" viewBox="0 0 385 414.5" enable-background="new 0 0 385 414.5" xml:space="preserve">
<g>
	<circle fill="#787878" cx="192.484" cy="337.199" r="17.333"/>
	<path fill="#EEC329" d="M276.019,143.469c0-46.117-37.385-83.502-83.502-83.502c-0.001,0-0.001,0-0.001,0v0l0,0
		c-46.117,0-83.502,37.386-83.502,83.502c0,20.438,7.346,39.156,19.537,53.67h-0.252c0,0,14.379,20.824,33.727,85.644
		c2.262,5.459,21.733,13.043,30.492,18.404l0,0c0,0,0,0,0.001,0c8.759-5.361,28.23-12.945,30.491-18.404
		c19.348-64.819,33.726-85.643,33.726-85.643h-0.252C268.671,182.625,276.019,163.907,276.019,143.469z"/>
	<path fill="#B2B3B3" d="M227.484,289.866c0,4.143-3.358,7.5-7.5,7.5h-55c-4.142,0-7.5-3.357-7.5-7.5l0,0c0-4.143,3.358-7.5,7.5-7.5
		h55C224.126,282.366,227.484,285.724,227.484,289.866L227.484,289.866z"/>
	<path fill="#B2B3B3" d="M227.516,319.866c0,4.143-3.358,7.5-7.5,7.5h-55c-4.142,0-7.5-3.357-7.5-7.5l0,0c0-4.143,3.358-7.5,7.5-7.5
		h55C224.158,312.366,227.516,315.724,227.516,319.866L227.516,319.866z"/>
	<path fill="#898989" d="M227.484,304.866c0,4.143-3.358,7.5-7.5,7.5h-55c-4.142,0-7.5-3.357-7.5-7.5l0,0c0-4.143,3.358-7.5,7.5-7.5
		h55C224.126,297.366,227.484,300.724,227.484,304.866L227.484,304.866z"/>
	<path fill="#898989" d="M227.484,334.866c0,4.143-3.358,7.5-7.5,7.5h-55c-4.142,0-7.5-3.357-7.5-7.5l0,0c0-4.143,3.358-7.5,7.5-7.5
		h55C224.126,327.366,227.484,330.724,227.484,334.866L227.484,334.866z"/>
	<path opacity="0.15" fill="#898989" d="M192.516,59.968c-0.01,0-0.021-0.001-0.031-0.001c-0.002,0-0.002,0-0.002,0v0
		c-46.116,0-83.502,37.386-83.502,83.502c0,20.438,7.346,39.156,19.537,53.67h-0.252c0,0,14.379,20.824,33.727,85.644
		c0.021,0.053,0.056,0.106,0.08,0.159c-2.713,1.129-4.62,3.803-4.62,6.925c0,4.143,3.357,7.5,7.5,7.5c-4.143,0-7.5,3.357-7.5,7.5
		s3.357,7.5,7.5,7.5h0.031c-4.142,0-7.5,3.357-7.5,7.5s3.358,7.5,7.5,7.5h-0.031c-4.143,0-7.5,3.357-7.5,7.5s3.357,7.5,7.5,7.5
		h27.564V59.968z"/>
</g>
</svg>
