<svg width="28" height="28" viewBox="0 0 28 28" fill="none" xmlns="http://www.w3.org/2000/svg">
<circle r="12" transform="matrix(1 0 0 -1 14 14)" fill="#05AD97" stroke="#05AD97" stroke-width="3"/>
<path d="M10.8202 17.9556L10.9844 17.7899L10.8202 17.9556C11.0264 18.1599 11.2813 18.25 11.5477 18.25C11.8164 18.25 12.0651 18.1587 12.2829 17.9646L12.2831 17.9648L12.2922 17.9558L19.721 10.6124L19.7212 10.6122C20.1302 10.207 20.1302 9.56925 19.7212 9.16404C19.3136 8.76017 18.6741 8.7601 18.2664 9.16382C18.2663 9.16389 18.2663 9.16397 18.2662 9.16404L11.5646 15.7873L8.84523 13.109C8.84514 13.1089 8.84504 13.1088 8.84495 13.1087C8.43724 12.705 7.79782 12.7051 7.39022 13.109C6.98125 13.5142 6.98125 14.1519 7.39022 14.5571L10.8202 17.9556Z" fill="white" stroke="white" stroke-width="0.5"/>
</svg>
