<svg width="48" height="48" viewBox="0 0 48 48" fill="none" xmlns="http://www.w3.org/2000/svg">
<g clip-path="url(#clip0_312_2714)">
<mask id="mask0_312_2714" style="mask-type:luminance" maskUnits="userSpaceOnUse" x="0" y="0" width="48" height="48">
<path d="M48 0H0V48H48V0Z" fill="white"/>
</mask>
<g mask="url(#mask0_312_2714)">
<path fill-rule="evenodd" clip-rule="evenodd" d="M33.9999 31.7C34.1999 31.7 34.3999 31.7 34.5999 31.5C34.8999 31.1 34.8999 30.6 34.3999 30.3L27.4999 23.8L34.3999 17.7C34.7999 17.4 34.7999 16.9 34.4999 16.6C34.1999 16.2 33.6999 16.2 33.3999 16.5L23.9999 25L22.0999 23.4L21.9999 23.3L14.4999 16.6C14.1999 16.3 13.6999 16.4 13.3999 16.7C13.0999 17 13.1999 17.5 13.4999 17.8L20.3999 24L13.4999 30.5C13.1999 30.8 13.1999 31.3 13.4999 31.6C13.6999 31.7 13.8999 31.8 14.0999 31.8C14.2463 31.8 14.3391 31.7464 14.4568 31.6784C14.4999 31.6536 14.5463 31.6268 14.5999 31.6L21.5999 25L23.4999 26.7C23.5999 26.8 23.7999 26.9 23.9999 26.9C24.1999 26.9 24.3999 26.8 24.4999 26.7L26.4999 24.9L33.4999 31.5C33.5999 31.6 33.7999 31.7 33.9999 31.7Z" fill="#142358"/>
<path d="M24 0C10.7 0 0 10.7 0 24C0 37.3 10.7 48 24 48C37.3 48 48 37.3 48 24C48 10.7 37.3 0 24 0ZM38 31.2C38 33.1 36.5 34.6 34.6 34.6H13.4C11.5 34.6 10 33.1 10 31.2V16.8C10 14.9 11.5 13.4 13.4 13.4H34.6C36.5 13.4 38 14.9 38 16.8V31.2Z" fill="#142358"/>
</g>
</g>
<defs>
<clipPath id="clip0_312_2714">
<rect width="48" height="48" fill="white"/>
</clipPath>
</defs>
</svg>
