<svg width="48" height="48" viewBox="0 0 48 48" fill="none" xmlns="http://www.w3.org/2000/svg">
<g clip-path="url(#clip0_531_36)">
<path d="M35 15H13V33H35V15Z" fill="#142358"/>
<path d="M36.4 16.8C36.4 15.8 35.6 14.9 34.5 14.9H13.4C12.4 14.9 11.5 15.7 11.5 16.8V31.3C11.5 32.3 12.3 33.2 13.4 33.2H34.6C35.6 33.2 36.5 32.4 36.5 31.3V16.8H36.4ZM34.6 31.5C34.4 31.7 34.2 31.7 34 31.7C33.8 31.7 33.6 31.6 33.5 31.5L26.5 24.9L24.5 26.7C24.4 26.8 24.2 26.9 24 26.9C23.8 26.9 23.6 26.8 23.5 26.7L21.6 25L14.6 31.6C14.4 31.7 14.3 31.8 14.1 31.8C13.9 31.8 13.7 31.7 13.5 31.6C13.2 31.3 13.2 30.8 13.5 30.5L20.4 24L13.5 17.8C13.2 17.5 13.1 17 13.4 16.7C13.7 16.4 14.2 16.3 14.5 16.6L22 23.3L22.1 23.4L24 25L33.4 16.5C33.7 16.2 34.2 16.2 34.5 16.6C34.8 16.9 34.8 17.4 34.4 17.7L27.5 23.8L34.4 30.3C34.9 30.6 34.9 31.1 34.6 31.5Z" fill="white"/>
<path d="M24 0C10.7 0 0 10.7 0 24C0 37.3 10.7 48 24 48C37.3 48 48 37.3 48 24C48 10.7 37.3 0 24 0ZM38 31.2C38 33.1 36.5 34.6 34.6 34.6H13.4C11.5 34.6 10 33.1 10 31.2V16.8C10 14.9 11.5 13.4 13.4 13.4H34.6C36.5 13.4 38 14.9 38 16.8V31.2Z" fill="#142358"/>
</g>
<defs>
<clipPath id="clip0_531_36">
<rect width="48" height="48" fill="white"/>
</clipPath>
</defs>
</svg>
