<svg width="48" height="48" viewBox="0 0 48 48" fill="none" xmlns="http://www.w3.org/2000/svg">
<g clip-path="url(#clip0_12_150)">
<mask id="mask0_12_150" style="mask-type:luminance" maskUnits="userSpaceOnUse" x="0" y="0" width="48" height="48">
<path d="M48 0H0V48H48V0Z" fill="white"/>
</mask>
<g mask="url(#mask0_12_150)">
<path fill-rule="evenodd" clip-rule="evenodd" d="M24 48C37.2549 48 48 37.2548 48 24C48 10.7452 37.2549 0 24 0C10.7451 0 0 10.7452 0 24C0 37.2548 10.7451 48 24 48ZM29.2473 19.557H29.25C30.2777 19.557 31.2633 19.9724 31.99 20.7119C32.7168 21.4513 33.125 22.4543 33.125 23.5C33.125 24.5457 32.7168 25.5487 31.99 26.2881C31.2633 27.0276 30.2777 27.443 29.25 27.443C28.2223 27.443 27.2367 27.0276 26.51 26.2881C25.7832 25.5487 25.375 24.5457 25.375 23.5C25.375 22.4543 25.7832 21.4513 26.51 20.7119C27.2361 19.9731 28.2206 19.5577 29.2473 19.557ZM25.375 27.6489C26.4191 28.6586 27.8059 29.2237 29.25 29.2237C30.7418 29.2237 32.1726 28.6207 33.2274 27.5473C34.2823 26.4739 34.875 25.018 34.875 23.5C34.875 21.982 34.2823 20.5261 33.2274 19.4527C32.933 19.1531 32.6093 18.8901 32.2631 18.6667C32.6093 18.4432 32.933 18.1802 33.2274 17.8806C34.2823 16.8072 34.875 15.3513 34.875 13.8333C34.875 12.3153 34.2823 10.8595 33.2274 9.78608C32.1726 8.71268 30.7418 8.10965 29.25 8.10965H25.375H23.625H19.75C18.2582 8.10965 16.8274 8.71268 15.7726 9.78608C14.7177 10.8595 14.125 12.3153 14.125 13.8333C14.125 15.3513 14.7177 16.8072 15.7726 17.8806C16.067 18.1802 16.3907 18.4432 16.7369 18.6667C16.3907 18.8901 16.067 19.1531 15.7726 19.4527C14.7177 20.5261 14.125 21.982 14.125 23.5C14.125 25.018 14.7177 26.4739 15.7726 27.5473C16.067 27.8469 16.3907 28.1099 16.7369 28.3333C16.3907 28.5568 16.067 28.8198 15.7726 29.1194C14.7177 30.1928 14.125 31.6487 14.125 33.1667C14.125 34.6847 14.7177 36.1405 15.7726 37.2139C16.8274 38.2873 18.2582 38.8904 19.75 38.8904C21.2418 38.8904 22.6726 38.2873 23.7274 37.2139C24.7823 36.1405 25.375 34.6847 25.375 33.1667V29.2237V27.6489ZM23.625 29.2237H19.75C18.7223 29.2237 17.7367 29.6391 17.01 30.3786C16.2832 31.118 15.875 32.1209 15.875 33.1667C15.875 34.2124 16.2832 35.2153 17.01 35.9548C17.7367 36.6942 18.7223 37.1096 19.75 37.1096C20.7777 37.1096 21.7633 36.6942 22.49 35.9548C23.2168 35.2153 23.625 34.2124 23.625 33.1667V29.2237ZM19.75 17.7763H23.625V9.89035H19.75C18.7223 9.89035 17.7367 10.3058 17.01 11.0452C16.2832 11.7847 15.875 12.7876 15.875 13.8333C15.875 14.8791 16.2832 15.882 17.01 16.6214C17.7367 17.3609 18.7223 17.7763 19.75 17.7763ZM19.75 19.557C18.7223 19.557 17.7367 19.9724 17.01 20.7119C16.2832 21.4513 15.875 22.4543 15.875 23.5C15.875 24.5457 16.2832 25.5487 17.01 26.2881C17.7367 27.0276 18.7223 27.443 19.75 27.443H23.625V23.5V19.557H19.75ZM25.375 17.7763H29.2467H29.25C30.2777 17.7763 31.2633 17.3609 31.99 16.6214C32.7168 15.882 33.125 14.8791 33.125 13.8333C33.125 12.7876 32.7168 11.7847 31.99 11.0452C31.2633 10.3058 30.2777 9.89035 29.25 9.89035H25.375V17.7763Z" fill="#161A1C"/>
</g>
</g>
<defs>
<clipPath id="clip0_12_150">
<rect width="48" height="48" fill="white"/>
</clipPath>
</defs>
</svg>
