<?xml version="1.0" encoding="utf-8"?>
<!-- Generator: Adobe Illustrator 22.0.1, SVG Export Plug-In . SVG Version: 6.00 Build 0)  -->
<svg version="1.1" id="Layer_1" xmlns="http://www.w3.org/2000/svg" xmlns:xlink="http://www.w3.org/1999/xlink" x="0px" y="0px"
	 viewBox="0 0 48 48" style="enable-background:new 0 0 48 48;" xml:space="preserve">
<style type="text/css">
	.st0{fill:#FFFFFF;}
</style>
<path class="st0" d="M30.4,24c0,3.5-2.9,6.4-6.4,6.4s-6.4-2.9-6.4-6.4c0-0.8,0.2-1.7,0.5-2.4h-3.5v9.6c0,1.2,1,2.2,2.2,2.2h14.4
	c1.2,0,2.2-1,2.2-2.2v-9.6h-3.5C30.2,22.3,30.4,23.2,30.4,24z"/>
<polygon class="st0" points="33,15.5 33,15 32.5,15 29,15 29,19 33,19 "/>
<path class="st0" d="M24,28.1c2.2,0,4.1-1.8,4.1-4.1c0-0.9-0.3-1.7-0.8-2.4c-0.7-1-2-1.7-3.3-1.7s-2.6,0.7-3.3,1.7
	c-0.5,0.7-0.8,1.5-0.8,2.4C19.9,26.3,21.8,28.1,24,28.1z"/>
<path class="st0" d="M24,0C10.7,0,0,10.7,0,24s10.7,24,24,24s24-10.7,24-24S37.3,0,24,0z M35.7,21.6v9.6c0,2.5-2,4.5-4.5,4.5H16.8
	c-2.5,0-4.5-2-4.5-4.5v-9.6v-4.8c0-2.5,2-4.5,4.5-4.5h14.4c2.5,0,4.5,2,4.5,4.5V21.6z"/>
</svg>
