<?xml version="1.0" encoding="utf-8"?>
<!-- Generator: Adobe Illustrator 15.0.0, SVG Export Plug-In . SVG Version: 6.00 Build 0)  -->
<!DOCTYPE svg PUBLIC "-//W3C//DTD SVG 1.1//EN" "http://www.w3.org/Graphics/SVG/1.1/DTD/svg11.dtd">
<svg version="1.1" id="Layer_1" xmlns="http://www.w3.org/2000/svg" xmlns:xlink="http://www.w3.org/1999/xlink" x="0px" y="0px"
	 width="360px" height="360px" viewBox="0 0 360 360" enable-background="new 0 0 360 360" xml:space="preserve">
<path fill="#1069B5" d="M302.018,230.363c1.873-5.021,3.277-10.2,4.187-15.514h49.021v-7.474h-48.094
	c0.174-2.192,0.271-4.406,0.271-6.638c0-7.012-0.871-13.854-2.529-20.465c2.236-30.173,7.598-114.572-1.621-123.438
	c-9.643-9.273-62.715,35.325-77.688,48.261c-13.607-4.106-28.328-6.354-43.696-6.354c-0.625,0-1.245,0.019-1.868,0.027
	c-0.623-0.008-1.243-0.027-1.869-0.027c-15.368,0-30.088,2.248-43.697,6.354c-14.971-12.934-68.044-57.533-77.685-48.26
	c-9.219,8.866-3.857,93.265-1.621,123.438c-1.658,6.615-2.529,13.458-2.529,20.465c0,2.229,0.098,4.44,0.271,6.638H4.776v7.475H53.8
	c0.905,5.312,2.311,10.494,4.183,15.513l-53.34,6.626l0.922,7.414l55.448-6.889c18.161,38.153,63.747,65.221,117.119,65.221
	c0.625,0,1.246-0.021,1.869-0.026c0.623,0.009,1.243,0.026,1.868,0.026c53.372,0,98.958-27.064,117.117-65.221l55.447,6.889
	l0.925-7.414L302.018,230.363z M61.967,162.026c-1.462-30.982-3.665-92.054,1.568-93.928c5.832-2.089,48.834,28.971,63.233,39.551
	C97.501,118.327,74.187,137.848,61.967,162.026z M116.001,215.012c-11.494,0-20.811-9.316-20.811-20.812
	c0-11.496,9.317-20.812,20.811-20.812s20.812,9.317,20.812,20.812S127.495,215.012,116.001,215.012z M199.615,242.88
	c-10.52,0-17.092-4.952-19.615-14.681c-2.523,9.728-9.097,14.681-19.614,14.681c-10.882,0-19.962-7.692-22.115-17.935h1.005h2.71
	c1.874,8.339,9.309,14.572,18.212,14.572c8.904,0,16.339-6.233,18.213-14.572h3.176c1.874,8.339,9.31,14.572,18.213,14.572
	c8.904,0,16.341-6.233,18.216-14.572h2.709h1.006C219.576,235.188,210.496,242.88,199.615,242.88z M244,215.012
	c-11.494,0-20.812-9.316-20.812-20.812c0-11.496,9.318-20.812,20.812-20.812c11.492,0,20.811,9.317,20.811,20.812
	S255.492,215.012,244,215.012z M298.033,162.026c-12.219-24.178-35.533-43.699-64.801-54.376
	c14.396-10.581,57.397-41.641,63.229-39.551C301.699,69.972,299.496,131.043,298.033,162.026z"/>
</svg>
