<?xml version="1.0" encoding="utf-8"?>
<!-- Generator: Adobe Illustrator 15.0.0, SVG Export Plug-In . SVG Version: 6.00 Build 0)  -->
<!DOCTYPE svg PUBLIC "-//W3C//DTD SVG 1.1//EN" "http://www.w3.org/Graphics/SVG/1.1/DTD/svg11.dtd">
<svg version="1.1" id="Layer_1" xmlns="http://www.w3.org/2000/svg" xmlns:xlink="http://www.w3.org/1999/xlink" x="0px" y="0px"
	 width="385px" height="414.5px" viewBox="0 0 385 414.5" enable-background="new 0 0 385 414.5" xml:space="preserve">
<g>
	<path fill="#423D3E" d="M38.756,186.428c0,0-11.596-126.352-0.583-128.867s119.539,48.144,119.539,48.144L38.756,186.428z"/>
	<path fill="#938287" d="M46.756,197.428c0,0-14.263-128.685-0.583-128.867s119.539,48.144,119.539,48.144L46.756,197.428z"/>
</g>
<path fill="#423D3E" d="M192.52,357.028v-263"/>
<path fill="none" stroke="#FFFFFF" stroke-width="2" d="M84.244,316.042"/>
<path fill="none" stroke="#FFFFFF" stroke-width="2" d="M100.975,308.042"/>
<g>
	<path fill="#423D3E" d="M346.242,186.428c0,0,11.598-126.352,0.584-128.867s-119.539,48.144-119.539,48.144L346.242,186.428z"/>
	<path fill="#938287" d="M338.242,197.428c0,0,14.264-128.685,0.584-128.867s-119.539,48.144-119.539,48.144L338.242,197.428z"/>
</g>
<path fill="#423D3E" d="M356.479,225.53c0-72.614-73.403-131.482-163.958-131.5v0c-0.007,0-0.014,0-0.021,0s-0.014,0-0.021,0v0
	C101.923,94.048,28.52,152.916,28.52,225.53c0,72.615,73.403,131.482,163.959,131.5v0c0.007,0,0.014,0,0.021,0s0.014,0,0.021,0v0
	C283.076,357.012,356.479,298.145,356.479,225.53z"/>
<circle stroke="#F9E642" stroke-width="4" cx="264.526" cy="254.538" r="23.5"/>
<path fill="#423D3E" d="M192.479,357.028v-263"/>
<path fill="none" stroke="#FFFFFF" stroke-width="2" d="M300.755,316.042"/>
<path fill="none" stroke="#FFFFFF" stroke-width="2" d="M284.024,308.042"/>
<line fill="none" stroke="#787878" stroke-width="2" x1="295.146" y1="283.712" x2="379.146" y2="283.712"/>
<line fill="none" stroke="#787878" stroke-width="2" x1="295.146" y1="295.045" x2="375.812" y2="308.042"/>
<line fill="none" stroke="#787878" stroke-width="2" x1="295.146" y1="304.379" x2="366.479" y2="327.045"/>
<circle stroke="#F9E642" stroke-width="4" cx="120.473" cy="254.538" r="23.5"/>
<line fill="none" stroke="#787878" stroke-width="2" x1="89.854" y1="283.712" x2="5.854" y2="283.712"/>
<line fill="none" stroke="#787878" stroke-width="2" x1="89.854" y1="295.045" x2="9.187" y2="308.042"/>
<line fill="none" stroke="#787878" stroke-width="2" x1="89.854" y1="304.379" x2="18.52" y2="327.045"/>
</svg>
