<svg width="48" height="48" viewBox="0 0 48 48" fill="none" xmlns="http://www.w3.org/2000/svg">
<g clip-path="url(#clip0_531_42)">
<path d="M24 0C10.7 0 0 10.7 0 24C0 37.3 10.7 48 24 48C37.3 48 48 37.3 48 24C48 10.7 37.3 0 24 0ZM17.4 34.9H12.8V20.1H17.4V34.9ZM14.9 18.2C13.2 18.2 12.1 17.1 12.1 15.6C12.1 14.1 13.2 13 14.9 13C16.6 13 17.7 14.1 17.7 15.6C17.7 17.1 16.7 18.2 14.9 18.2ZM35.9 34.9H30.6V27.2C30.6 25.2 29.8 23.8 28 23.8C26.6 23.8 25.9 24.7 25.5 25.6C25.4 25.9 25.4 26.4 25.4 26.8V34.8H20.2C20.2 34.8 20.3 21.2 20.2 20H25.4V22.3C25.7 21.3 27.4 19.8 30 19.8C33.3 19.8 35.9 21.9 35.9 26.5V34.9Z" fill="#142358"/>
</g>
<defs>
<clipPath id="clip0_531_42">
<rect width="48" height="48" fill="white"/>
</clipPath>
</defs>
</svg>
