<?xml version="1.0" encoding="utf-8"?>
<!-- Generator: Adobe Illustrator 15.0.0, SVG Export Plug-In . SVG Version: 6.00 Build 0)  -->
<!DOCTYPE svg PUBLIC "-//W3C//DTD SVG 1.1//EN" "http://www.w3.org/Graphics/SVG/1.1/DTD/svg11.dtd">
<svg version="1.1" id="Layer_1" xmlns="http://www.w3.org/2000/svg" xmlns:xlink="http://www.w3.org/1999/xlink" x="0px" y="0px"
	 width="385px" height="414.5px" viewBox="0 0 385 414.5" enable-background="new 0 0 385 414.5" xml:space="preserve">
<path fill="#BABABA" d="M314.031,90h-93.5v258h93.5c5.523,0,10-4.477,10-10V100C324.031,94.477,319.555,90,314.031,90z"/>
<path fill="#BABABA" d="M131.508,90h93.5v258h-93.5c-5.523,0-10-4.477-10-10V100C121.508,94.477,125.985,90,131.508,90z"/>
<path fill="#333333" d="M312.27,95.193h-87.262h-4.477H133.27c-5.3,0-7.595,2.295-7.595,7.595v232.422
	c0,5.301,4.297,7.596,9.597,7.596h85.259h4.477h85.26c5.3,0,9.597-2.295,9.597-7.596V102.789
	C319.864,97.488,317.569,95.193,312.27,95.193z"/>
<rect x="124.532" y="321" fill="#BABABA" width="196.333" height="22.808"/>
<circle fill="#BABABA" stroke="#434343" cx="225.007" cy="333.962" r="7.462"/>
<path fill="#6D6D6D" d="M155.016,338c0,5.523-4.477,10-10,10H80.349c-5.523,0-10-4.477-10-10V194.333c0-5.523,4.477-10,10-10h64.667
	c5.523,0,10,4.477,10,10V338z"/>
<path fill="#333333" d="M152.624,331.231c0,5.211-4.224,9.435-9.435,9.435H82.176c-5.211,0-9.435-4.224-9.435-9.435V193.68
	c0-5.211,4.224-7.433,9.435-7.433h61.013c5.211,0,9.435,2.222,9.435,7.433V331.231z"/>
<rect x="72.741" y="332.232" fill="#6D6D6D" width="79.883" height="9.435"/>
<circle fill="#6D6D6D" stroke="#333333" cx="112.683" cy="338.664" r="4.833"/>
<polygon fill="#6D6D6D" points="152.624,188.732 151.608,188.732 150.375,186.5 149,186.5 149,185.625 77.375,185.625 77.375,187 
	74.75,187 74.75,188.732 72.501,188.732 72.501,198.167 153.625,198.167 "/>
<path fill="#333333" d="M123.1,191.896c0,0.581-0.471,1.052-1.052,1.052h-18.73c-0.581,0-1.052-0.471-1.052-1.052l0,0
	c0-0.581,0.471-1.052,1.052-1.052h18.73C122.629,190.845,123.1,191.315,123.1,191.896L123.1,191.896z"/>
<circle fill="#333333" cx="99.032" cy="191.896" r="1.052"/>
</svg>
