<?xml version="1.0" encoding="utf-8"?>
<!-- Generator: Adobe Illustrator 15.0.0, SVG Export Plug-In . SVG Version: 6.00 Build 0)  -->
<!DOCTYPE svg PUBLIC "-//W3C//DTD SVG 1.1//EN" "http://www.w3.org/Graphics/SVG/1.1/DTD/svg11.dtd">
<svg version="1.1" id="Layer_1" xmlns="http://www.w3.org/2000/svg" xmlns:xlink="http://www.w3.org/1999/xlink" x="0px" y="0px"
	 width="385px" height="414.5px" viewBox="0 0 385 414.5" enable-background="new 0 0 385 414.5" xml:space="preserve">
<path fill="#A82723" d="M230.324,297.475c-3.905,3.905-10.237,3.905-14.142,0L103.051,184.344c-3.906-3.905-3.906-10.237,0-14.142
	l53.74-53.74c3.905-3.905,10.237-3.905,14.142,0l113.131,113.131c3.905,3.905,3.905,10.237,0,14.142L230.324,297.475z"/>
<rect x="88.654" y="208.543" transform="matrix(0.7071 0.7071 -0.7071 0.7071 209.2155 -61.3381)" fill="#A82723" width="179.991" height="26.666"/>
<path fill="#A82723" d="M186.35,212.626l-31.898-31.898c-12.732,14.841-20.653,29.131-17.333,38.828
	c8.128,23.742-41.67,54.36-49.576,64.03c-1.86,1.666-3.708,3.407-5.528,5.228c-20.293,20.293-30.633,43.099-23.822,51.971
	c8.872,6.81,31.677-3.529,51.971-23.823c1.821-1.821,3.562-3.668,5.228-5.528c9.669-7.906,40.288-57.704,64.03-49.576
	c9.697,3.32,23.987-4.601,38.828-17.334L186.35,212.626z M70.756,328.219c-2.05-2.05-0.467-6.958,3.536-10.96
	s8.91-5.585,10.96-3.536c2.05,2.05,0.468,6.958-3.536,10.96C77.713,328.687,72.807,330.269,70.756,328.219z"/>
<path fill="#303030" d="M325.969,187.688l-40.02-40.021l-53.748,52.319l52.319-53.747l-52.802-52.802l-44.575,40.26l40.26-44.575
	l-14.565-14.565c-3.905-3.905-10.237-3.905-14.142,0l-8.436,8.436l-35.405,35.404l-31.368,31.369L250.76,277.039l31.368-31.368
	l35.405-35.405l8.436-8.436C329.874,197.924,329.874,191.593,325.969,187.688z"/>
<rect x="100.153" y="199.127" transform="matrix(0.7071 0.7071 -0.7071 0.7071 204.4522 -72.8374)" fill="#DDC656" width="179.991" height="22.5"/>
<path fill="#63C8CE" d="M344.936,240.99c-0.74-13.217-14.968-43.878-16.006-46.098v-3.311c0,0.002-0.018,3.213-0.033,3.242
	c-0.014-0.029-0.031-0.065-0.031-0.067v0.137c-1.039,2.22-15.268,32.881-16.006,46.098h-0.059c0,0.309,0.02,0.607,0.023,0.914
	c-0.002,0.172,0.01,0.33,0.014,0.495c0.385,16.43,7.396,29.536,16.027,29.601v0.006c0.012,0,0.021-0.003,0.031-0.003
	c0.012,0,0.021,0.003,0.033,0.003V272c8.632-0.065,15.643-13.171,16.027-29.601c0.004-0.165,0.016-0.323,0.014-0.495
	c0.006-0.307,0.024-0.605,0.024-0.914H344.936z"/>
</svg>
