<?xml version="1.0" encoding="utf-8"?>
<!-- Generator: Adobe Illustrator 15.0.0, SVG Export Plug-In . SVG Version: 6.00 Build 0)  -->
<!DOCTYPE svg PUBLIC "-//W3C//DTD SVG 1.1//EN" "http://www.w3.org/Graphics/SVG/1.1/DTD/svg11.dtd">
<svg version="1.1" id="Layer_1" xmlns="http://www.w3.org/2000/svg" xmlns:xlink="http://www.w3.org/1999/xlink" x="0px" y="0px"
	 width="360px" height="360px" viewBox="0 0 360 360" enable-background="new 0 0 360 360" xml:space="preserve">
<path fill="#1069B5" d="M327.731,83.065c-2.68,6.486-6.749,12.696-12.183,18.127c-19.24,19.242-48.24,21.437-64.771,4.905
	c-16.532-16.533-14.336-45.532,4.904-64.774c5.432-5.431,11.639-9.502,18.125-12.18c-21.666-1.214-45.662,7.899-64.359,26.595
	c-22.701,22.701-31.279,53.215-24.379,77.884L36.195,282.496c-12.62,12.62-14.302,31.398-3.758,41.941
	c10.544,10.545,29.322,8.86,41.941-3.758l148.873-148.875c24.669,6.899,55.185-1.678,77.886-24.379
	C319.833,128.732,328.946,104.733,327.731,83.065z M47.454,309.422c-3.386-3.385-2.846-9.412,1.206-13.463
	c4.051-4.051,10.078-4.591,13.463-1.206c3.385,3.386,2.846,9.412-1.206,13.463C56.866,312.268,50.838,312.807,47.454,309.422z"/>
<path fill="#1069B5" d="M224.747,196.477l-8.968-8.968l-30.648,30.648l8.967,8.966c-0.187,11.121,4.605,23.169,14.06,32.621
	l64.813,64.814c16.479,16.479,40.857,18.822,54.446,5.234c13.588-13.589,11.243-37.967-5.234-54.445l-64.813-64.814
	C247.915,201.081,235.867,196.289,224.747,196.477z M306.854,275.045c14.23,14.229,18.114,33.421,8.676,42.861
	c-9.441,9.441-28.633,5.557-42.861-8.674l-55.969-55.969c-8.16-8.16-12.912-17.951-13.705-26.601l-7.742-7.743l21.292-21.292
	l7.743,7.743c8.648,0.792,18.439,5.541,26.602,13.703L306.854,275.045z"/>
<rect x="138.968" y="60.908" transform="matrix(0.7071 -0.7071 0.7071 0.7071 -60.9882 143.8629)" fill="#1069B5" width="8.391" height="169.286"/>
<polygon fill="#1069B5" points="50.446,60.715 76.992,98.567 95.189,80.37 57.337,53.824 "/>
<rect x="252.986" y="193.027" transform="matrix(0.7072 -0.707 0.707 0.7072 -108.5151 257.5372)" fill="#1069B5" width="7.345" height="133.497"/>
</svg>
