<?xml version="1.0" encoding="utf-8"?>
<!-- Generator: Adobe Illustrator 15.0.0, SVG Export Plug-In . SVG Version: 6.00 Build 0)  -->
<!DOCTYPE svg PUBLIC "-//W3C//DTD SVG 1.1//EN" "http://www.w3.org/Graphics/SVG/1.1/DTD/svg11.dtd">
<svg version="1.1" id="Layer_1" xmlns="http://www.w3.org/2000/svg" xmlns:xlink="http://www.w3.org/1999/xlink" x="0px" y="0px"
	 width="360px" height="360px" viewBox="0 0 360 360" enable-background="new 0 0 360 360" xml:space="preserve">
<g>
	<g>
		<path fill="#1069B5" d="M108.392,142.728H30.564c-8.792,0-15.919,7.127-15.919,15.92v169.807c0,8.791,7.127,15.918,15.919,15.918
			h77.827c8.793,0,15.92-7.127,15.92-15.918V158.647C124.312,149.854,117.185,142.728,108.392,142.728z M120.546,322.624
			c0,8.188-6.639,14.826-14.826,14.826H33.235c-8.188,0-14.825-6.64-14.825-14.826V164.476c0-8.186,6.637-14.824,14.825-14.824
			h72.484c8.188,0,14.826,6.639,14.826,14.824L120.546,322.624L120.546,322.624z"/>
		<path fill="#1069B5" d="M121.658,166.163v-3.242c0-8.793-7.128-15.918-15.919-15.918H33.002c-8.792,0-15.919,7.125-15.919,15.918
			v3.242H121.658z"/>
		<path fill="#1069B5" d="M121.352,310.32H17.389c-0.198,1.005-0.307,2.037-0.307,3.099v13.267c0,8.791,7.127,15.918,15.919,15.918
			h72.737c8.791,0,15.919-7.127,15.919-15.918v-13.267C121.658,312.357,121.549,311.325,121.352,310.32z M69.479,336.411
			c-5.495,0-9.95-4.453-9.95-9.947c0-5.496,4.455-9.95,9.95-9.95c5.493,0,9.948,4.454,9.948,9.95
			C79.427,331.958,74.972,336.411,69.479,336.411z"/>
		<circle fill="#1069B5" cx="69.554" cy="326.464" r="8.344"/>
	</g>
	<path fill="#1069B5" d="M216.541,316.346c0,1.735-1.407,3.145-3.145,3.145h-13.071c-1.735,0-3.144-1.407-3.144-3.145v-11.168
		c0-1.734,1.406-3.143,3.144-3.143h13.071c1.735,0,3.145,1.406,3.145,3.143V316.346z"/>
	<path fill="#1069B5" d="M121.352,295.333v14.987H73.979v1.871c0,6.627,5.373,12,12,12h241.766c6.627,0,12-5.373,12-12v-16.858
		H121.352z M218.268,317.447c0,2.068-1.677,3.744-3.744,3.744h-15.566c-2.066,0-3.743-1.676-3.743-3.744v-13.299
		c0-2.067,1.677-3.744,3.743-3.744h15.566c2.067,0,3.744,1.677,3.744,3.744V317.447z"/>
	<path fill="#1069B5" d="M332,22H81.479c-6.627,0-12,5.373-12,12v122.583h5.5V39.649c0-6.362,5.158-11.519,11.519-11.519H326.98
		c6.359,0,11.52,5.157,11.52,11.519V310.34c0,6.362-5.158,11.52-11.52,11.52H105.72v6.132H332c6.627,0,12-5.372,12-12V34
		C344,27.373,338.627,22,332,22z"/>
</g>
</svg>
