<?xml version="1.0" encoding="utf-8"?>
<!-- Generator: Adobe Illustrator 15.0.0, SVG Export Plug-In . SVG Version: 6.00 Build 0)  -->
<!DOCTYPE svg PUBLIC "-//W3C//DTD SVG 1.1//EN" "http://www.w3.org/Graphics/SVG/1.1/DTD/svg11.dtd">
<svg version="1.1" xmlns="http://www.w3.org/2000/svg" xmlns:xlink="http://www.w3.org/1999/xlink" x="0px" y="0px" width="120px"
	 height="198px" viewBox="0 0 120 198" enable-background="new 0 0 120 198" xml:space="preserve">
<g id="Layer_0_xA0_Image_1_">
	
		<image overflow="visible" width="500" height="825" id="Layer_0_xA0_Image" xlink:href="E013DA52.png"  transform="matrix(0.24 0 0 0.24 0 0)">
	</image>
</g>
<g id="ABCDEFGHIJKLMNOPQRSTUVWXYZ_abcdefghijklmnopqrstuvwxyz_012345678_3_">
	<g>
		<path fill="#4C4E4F" d="M9.024,116.803H7.23l-0.42,1.098H6.306l1.542-3.96h0.57l1.536,3.96h-0.51L9.024,116.803z M8.851,116.353
			l-0.534-1.404l-0.186-0.552H8.118l-0.174,0.534l-0.54,1.422H8.851z"/>
		<path fill="#4C4E4F" d="M10.878,113.94h1.41c0.456,0,0.795,0.095,1.017,0.285c0.222,0.189,0.333,0.459,0.333,0.807
			c0,0.208-0.059,0.393-0.177,0.552c-0.118,0.16-0.281,0.261-0.489,0.301v0.006c0.232,0.044,0.418,0.149,0.558,0.317
			c0.14,0.168,0.21,0.362,0.21,0.582c0,0.341-0.128,0.61-0.384,0.811s-0.614,0.3-1.074,0.3h-1.404V113.94z M12.294,115.681
			c0.284,0,0.495-0.054,0.633-0.159c0.138-0.106,0.207-0.27,0.207-0.489c0-0.428-0.28-0.642-0.84-0.642h-0.936v1.29H12.294z
			 M12.396,117.45c0.28,0,0.49-0.057,0.63-0.171s0.21-0.276,0.21-0.489c0-0.212-0.07-0.375-0.21-0.488
			c-0.14-0.114-0.35-0.171-0.63-0.171h-1.038v1.319H12.396z"/>
		<path fill="#4C4E4F" d="M17.497,117.676c-0.284,0.189-0.612,0.284-0.984,0.284s-0.696-0.083-0.972-0.249
			c-0.276-0.165-0.489-0.401-0.639-0.708c-0.15-0.306-0.225-0.666-0.225-1.083c0-0.411,0.075-0.771,0.225-1.079
			c0.15-0.309,0.363-0.545,0.639-0.712c0.276-0.165,0.596-0.248,0.96-0.248c0.38,0,0.699,0.077,0.957,0.233s0.451,0.386,0.579,0.69
			l-0.474,0.222c-0.088-0.231-0.216-0.406-0.384-0.522c-0.168-0.115-0.382-0.174-0.642-0.174c-0.272,0-0.51,0.063-0.714,0.189
			c-0.204,0.126-0.362,0.309-0.474,0.549c-0.112,0.24-0.168,0.524-0.168,0.852c0,0.496,0.119,0.886,0.357,1.167
			c0.238,0.282,0.563,0.424,0.975,0.424c0.268,0,0.5-0.068,0.696-0.204s0.336-0.336,0.42-0.601l0.48,0.181
			C17.984,117.223,17.781,117.485,17.497,117.676z"/>
		<path fill="#4C4E4F" d="M21.895,114.456c0.352,0.345,0.528,0.832,0.528,1.464c0,0.633-0.176,1.12-0.528,1.465
			c-0.352,0.344-0.84,0.516-1.464,0.516h-1.278v-3.96h1.278C21.054,113.94,21.542,114.112,21.895,114.456z M21.538,117.045
			c0.254-0.27,0.381-0.645,0.381-1.125c0-0.479-0.127-0.854-0.381-1.125c-0.254-0.27-0.607-0.404-1.059-0.404h-0.846v3.06h0.846
			C20.93,117.45,21.283,117.315,21.538,117.045z"/>
		<path fill="#4C4E4F" d="M26.466,117.45v0.45h-2.868v-3.96h2.778v0.45h-2.298v1.277h1.788v0.45h-1.788v1.332H26.466z"/>
		<path fill="#4C4E4F" d="M28.026,114.391v1.277h1.788v0.45h-1.788v1.782h-0.48v-3.96h2.772v0.45H28.026z"/>
		<path fill="#4C4E4F" d="M34.476,115.902v1.998h-0.36l-0.018-0.534c-0.116,0.192-0.279,0.339-0.489,0.441
			c-0.21,0.102-0.463,0.152-0.759,0.152c-0.372,0-0.696-0.083-0.972-0.249c-0.276-0.165-0.489-0.401-0.639-0.708
			c-0.15-0.306-0.225-0.666-0.225-1.083c0-0.411,0.077-0.771,0.231-1.079c0.154-0.309,0.37-0.545,0.648-0.712
			c0.278-0.165,0.601-0.248,0.969-0.248c0.392,0,0.715,0.073,0.969,0.222c0.254,0.147,0.459,0.376,0.615,0.684l-0.438,0.24
			c-0.088-0.224-0.231-0.396-0.429-0.516c-0.198-0.12-0.437-0.181-0.717-0.181c-0.268,0-0.503,0.064-0.705,0.192
			c-0.202,0.128-0.359,0.311-0.471,0.549c-0.112,0.238-0.168,0.521-0.168,0.849c0,0.505,0.116,0.896,0.348,1.174
			c0.232,0.277,0.566,0.417,1.002,0.417c0.344,0,0.625-0.088,0.843-0.265c0.218-0.176,0.327-0.428,0.327-0.756v-0.138h-1.26v-0.45
			H34.476z"/>
		<path fill="#4C4E4F" d="M38.826,113.94v3.96h-0.48v-1.782h-2.148v1.782h-0.48v-3.96h0.48v1.728h2.148v-1.728H38.826z"/>
		<path fill="#4C4E4F" d="M40.722,117.9h-0.48v-3.96h0.48V117.9z"/>
		<path fill="#4C4E4F" d="M44.28,116.544c0,0.444-0.119,0.792-0.357,1.041c-0.238,0.25-0.567,0.375-0.987,0.375
			c-0.38,0-0.674-0.093-0.882-0.278c-0.208-0.187-0.312-0.443-0.312-0.771c0-0.116,0.01-0.222,0.03-0.317l0.444-0.091
			c-0.016,0.137-0.024,0.232-0.024,0.288c0,0.244,0.058,0.426,0.174,0.543c0.116,0.118,0.3,0.178,0.552,0.178
			c0.328,0,0.557-0.088,0.687-0.265c0.13-0.176,0.195-0.449,0.195-0.821v-2.484h0.48V116.544z"/>
		<path fill="#4C4E4F" d="M46.842,115.908l-0.708,0.72v1.272h-0.48v-3.96h0.48v2.04l1.992-2.04h0.63l-1.578,1.614l1.596,2.346
			h-0.576L46.842,115.908z"/>
		<path fill="#4C4E4F" d="M52.458,117.45v0.45H49.71v-3.96h0.48v3.51H52.458z"/>
		<path fill="#4C4E4F" d="M57.246,117.9H56.79v-2.49l0.054-1.044h-0.006l-1.302,3.534h-0.408l-1.302-3.534H53.82l0.054,1.044v2.49
			h-0.456v-3.96h0.738l0.87,2.406l0.3,0.989h0.012l0.306-0.983l0.864-2.412h0.738V117.9z"/>
		<path fill="#4C4E4F" d="M61.77,117.9h-0.594l-1.656-2.652l-0.42-0.779h-0.006l0.024,0.636v2.796h-0.456v-3.96h0.594l1.649,2.64
			l0.427,0.792h0.006l-0.024-0.636v-2.796h0.456V117.9z"/>
		<path fill="#4C4E4F" d="M65.754,114.129c0.276,0.167,0.489,0.402,0.64,0.708c0.149,0.307,0.225,0.668,0.225,1.083
			c0,0.417-0.075,0.777-0.225,1.083c-0.15,0.307-0.363,0.543-0.64,0.708c-0.275,0.166-0.6,0.249-0.972,0.249
			s-0.696-0.083-0.972-0.249c-0.276-0.165-0.489-0.401-0.64-0.708c-0.149-0.306-0.225-0.666-0.225-1.083
			c0-0.415,0.075-0.776,0.225-1.083c0.15-0.306,0.363-0.541,0.64-0.708c0.275-0.165,0.6-0.248,0.972-0.248
			S65.479,113.964,65.754,114.129z M63.807,114.753c-0.237,0.282-0.356,0.672-0.356,1.167c0,0.496,0.119,0.886,0.356,1.167
			c0.238,0.282,0.563,0.424,0.976,0.424s0.737-0.142,0.975-0.424c0.238-0.281,0.357-0.671,0.357-1.167
			c0-0.495-0.119-0.885-0.357-1.167c-0.237-0.281-0.562-0.423-0.975-0.423S64.045,114.472,63.807,114.753z"/>
		<path fill="#4C4E4F" d="M70.157,114.268c0.244,0.218,0.366,0.511,0.366,0.879s-0.122,0.661-0.366,0.879s-0.565,0.327-0.966,0.327
			h-0.918v1.548h-0.479v-3.96h1.397C69.592,113.94,69.913,114.05,70.157,114.268z M69.801,115.714
			c0.146-0.127,0.219-0.315,0.219-0.567s-0.073-0.441-0.219-0.567c-0.146-0.126-0.373-0.188-0.682-0.188h-0.846v1.512h0.846
			C69.428,115.902,69.654,115.84,69.801,115.714z"/>
		<path fill="#4C4E4F" d="M74.55,118.524c0.124-0.04,0.224-0.094,0.3-0.162l0.156,0.444c-0.092,0.08-0.222,0.144-0.39,0.191
			c-0.168,0.049-0.33,0.072-0.486,0.072c-0.328,0-0.602-0.087-0.819-0.261s-0.339-0.461-0.362-0.861
			c-0.333-0.032-0.619-0.134-0.861-0.306s-0.428-0.405-0.559-0.699c-0.13-0.294-0.194-0.635-0.194-1.023
			c0-0.415,0.075-0.776,0.225-1.083c0.15-0.306,0.363-0.541,0.64-0.708c0.275-0.165,0.6-0.248,0.972-0.248s0.696,0.083,0.972,0.248
			c0.276,0.167,0.489,0.402,0.64,0.708c0.149,0.307,0.225,0.668,0.225,1.083c0,0.389-0.066,0.729-0.198,1.023
			s-0.32,0.528-0.563,0.702c-0.244,0.174-0.532,0.274-0.864,0.303c0.02,0.248,0.097,0.416,0.23,0.504
			c0.135,0.088,0.312,0.132,0.531,0.132C74.29,118.584,74.426,118.564,74.55,118.524z M72.194,117.087
			c0.238,0.282,0.563,0.424,0.976,0.424s0.737-0.142,0.975-0.424c0.238-0.281,0.357-0.671,0.357-1.167
			c0-0.495-0.119-0.885-0.357-1.167c-0.237-0.281-0.562-0.423-0.975-0.423s-0.737,0.142-0.976,0.423
			c-0.237,0.282-0.356,0.672-0.356,1.167C71.838,116.416,71.957,116.806,72.194,117.087z"/>
		<path fill="#4C4E4F" d="M77.609,116.257h-0.948v1.644h-0.479v-3.96h1.5c0.403,0,0.728,0.104,0.972,0.312
			c0.244,0.208,0.366,0.49,0.366,0.847c0,0.28-0.078,0.516-0.234,0.708c-0.156,0.191-0.37,0.324-0.642,0.396l1.115,1.698h-0.569
			L77.609,116.257z M76.661,115.807h1.014c0.561,0,0.841-0.236,0.841-0.708c0-0.473-0.28-0.708-0.841-0.708h-1.014V115.807z"/>
		<path fill="#4C4E4F" d="M83.094,114.721l-0.414,0.336c-0.12-0.265-0.264-0.451-0.429-0.562c-0.166-0.109-0.394-0.165-0.682-0.165
			c-0.304,0-0.543,0.063-0.717,0.189s-0.261,0.287-0.261,0.482c0,0.129,0.034,0.234,0.102,0.318
			c0.068,0.084,0.181,0.157,0.339,0.219c0.158,0.062,0.377,0.117,0.657,0.165c0.524,0.088,0.896,0.221,1.113,0.396
			s0.327,0.42,0.327,0.731c0,0.225-0.063,0.422-0.189,0.592s-0.305,0.302-0.537,0.396c-0.231,0.094-0.5,0.141-0.804,0.141
			c-0.4,0-0.741-0.077-1.023-0.233c-0.281-0.156-0.497-0.364-0.645-0.624l0.414-0.336c0.107,0.236,0.267,0.419,0.477,0.549
			s0.474,0.195,0.789,0.195c0.312,0,0.561-0.058,0.744-0.171c0.184-0.114,0.276-0.275,0.276-0.483c0-0.176-0.08-0.316-0.24-0.42
			c-0.16-0.104-0.444-0.192-0.852-0.264c-0.528-0.093-0.902-0.225-1.122-0.396c-0.221-0.172-0.33-0.412-0.33-0.72
			c0-0.212,0.06-0.408,0.18-0.588c0.12-0.181,0.292-0.323,0.516-0.43c0.225-0.105,0.484-0.158,0.78-0.158
			C82.271,113.881,82.781,114.16,83.094,114.721z"/>
		<path fill="#4C4E4F" d="M86.861,114.391h-1.38v3.51h-0.479v-3.51h-1.38v-0.45h3.239V114.391z"/>
		<path fill="#4C4E4F" d="M90.887,116.425c0,0.508-0.133,0.891-0.398,1.148c-0.267,0.258-0.651,0.387-1.155,0.387
			s-0.89-0.13-1.155-0.39s-0.398-0.642-0.398-1.146v-2.484h0.479v2.364c0,0.416,0.087,0.721,0.261,0.915
			c0.175,0.193,0.445,0.291,0.813,0.291s0.639-0.098,0.812-0.291c0.175-0.194,0.262-0.499,0.262-0.915v-2.364h0.479V116.425z"/>
		<path fill="#4C4E4F" d="M93.833,117.9h-0.546l-1.506-3.96h0.516l1.009,2.736l0.252,0.785l0.252-0.779l1.008-2.742h0.516
			L93.833,117.9z"/>
		<path fill="#4C4E4F" d="M97.602,117.9h-0.595l-1.17-3.96h0.517l0.953,3.582l0.937-3.582h0.546l0.936,3.594l0.961-3.594h0.485
			l-1.164,3.96h-0.594l-0.702-2.568l-0.204-0.894h-0.006l-0.204,0.894L97.602,117.9z"/>
		<path fill="#4C4E4F" d="M104.363,117.9l-1.074-1.638l-1.074,1.638h-0.558l1.386-2.016l-1.267-1.944h0.57l1.008,1.548l1.015-1.548
			h0.51l-1.278,1.92l1.32,2.04H104.363z"/>
		<path fill="#4C4E4F" d="M107.189,116.353v1.548h-0.48v-1.548l-1.416-2.412h0.57l1.086,1.92l1.086-1.92h0.57L107.189,116.353z"/>
		<path fill="#4C4E4F" d="M112.235,117.45v0.45h-3.114v-0.426l2.466-3.084h-2.405v-0.45h2.976v0.426l-2.466,3.084H112.235z"/>
		<path fill="#4C4E4F" d="M9.408,124.723l-0.03,0.378c-0.112,0.04-0.232,0.06-0.36,0.06c-0.156,0-0.279-0.033-0.369-0.102
			s-0.147-0.182-0.171-0.342c-0.092,0.14-0.227,0.249-0.405,0.327c-0.178,0.078-0.365,0.116-0.561,0.116
			c-0.296,0-0.54-0.068-0.732-0.207c-0.192-0.138-0.288-0.337-0.288-0.597c0-0.228,0.1-0.425,0.3-0.591
			c0.2-0.166,0.49-0.281,0.87-0.345l0.798-0.132v-0.169c0-0.199-0.062-0.359-0.186-0.479s-0.296-0.18-0.516-0.18
			c-0.2,0-0.373,0.048-0.519,0.144S6.98,122.843,6.9,123.03l-0.354-0.258c0.08-0.224,0.229-0.402,0.447-0.534
			c0.218-0.132,0.473-0.197,0.765-0.197c0.356,0,0.642,0.086,0.858,0.258c0.216,0.172,0.324,0.426,0.324,0.762v1.476
			c0,0.072,0.018,0.126,0.054,0.162c0.036,0.036,0.094,0.055,0.174,0.055S9.328,124.742,9.408,124.723z M8.188,124.561
			c0.182-0.12,0.273-0.276,0.273-0.468v-0.414l-0.672,0.126c-0.268,0.048-0.468,0.117-0.6,0.207
			c-0.132,0.09-0.198,0.205-0.198,0.345c0,0.124,0.048,0.219,0.144,0.285c0.096,0.066,0.23,0.099,0.402,0.099
			C7.789,124.74,8.005,124.681,8.188,124.561z"/>
		<path fill="#4C4E4F" d="M12.7,122.458c0.246,0.277,0.369,0.658,0.369,1.143s-0.123,0.865-0.369,1.143
			c-0.246,0.278-0.579,0.417-0.999,0.417c-0.232,0-0.439-0.053-0.621-0.158c-0.182-0.106-0.317-0.247-0.405-0.424l-0.03,0.522h-0.42
			v-4.38h0.48v1.848c0.096-0.16,0.231-0.288,0.405-0.384c0.174-0.096,0.371-0.144,0.591-0.144
			C12.121,122.041,12.454,122.18,12.7,122.458z M12.336,124.432c0.168-0.206,0.252-0.483,0.252-0.831s-0.084-0.625-0.252-0.831
			s-0.398-0.309-0.69-0.309c-0.288,0-0.517,0.1-0.687,0.3s-0.255,0.468-0.255,0.804v0.072c0,0.336,0.085,0.604,0.255,0.804
			s0.399,0.3,0.687,0.3C11.938,124.74,12.168,124.638,12.336,124.432z"/>
		<path fill="#4C4E4F" d="M16.149,122.248c0.206,0.138,0.367,0.335,0.483,0.591l-0.456,0.216c-0.128-0.396-0.394-0.594-0.798-0.594
			c-0.3,0-0.535,0.101-0.705,0.303s-0.255,0.48-0.255,0.837s0.085,0.635,0.255,0.837s0.405,0.303,0.705,0.303
			c0.232,0,0.419-0.053,0.561-0.158c0.142-0.106,0.235-0.26,0.279-0.459l0.444,0.155c-0.104,0.28-0.264,0.497-0.48,0.651
			c-0.216,0.154-0.48,0.23-0.792,0.23c-0.452,0-0.807-0.138-1.065-0.413c-0.258-0.276-0.387-0.658-0.387-1.146
			s0.129-0.87,0.387-1.146c0.258-0.275,0.613-0.413,1.065-0.413C15.69,122.041,15.943,122.109,16.149,122.248z"/>
		<path fill="#4C4E4F" d="M20.292,120.721v4.38h-0.42l-0.03-0.522c-0.088,0.177-0.223,0.317-0.405,0.424
			c-0.182,0.105-0.389,0.158-0.621,0.158c-0.42,0-0.753-0.139-0.999-0.417c-0.246-0.277-0.369-0.658-0.369-1.143
			s0.123-0.865,0.369-1.143c0.246-0.278,0.579-0.417,0.999-0.417c0.22,0,0.417,0.048,0.591,0.144
			c0.174,0.096,0.309,0.224,0.405,0.384v-1.848H20.292z M19.557,124.44c0.17-0.2,0.255-0.468,0.255-0.804v-0.072
			c0-0.336-0.085-0.604-0.255-0.804s-0.399-0.3-0.687-0.3c-0.292,0-0.522,0.103-0.69,0.309s-0.252,0.483-0.252,0.831
			s0.084,0.625,0.252,0.831s0.398,0.309,0.69,0.309C19.158,124.74,19.387,124.641,19.557,124.44z"/>
		<path fill="#4C4E4F" d="M24.078,123.78h-2.262c0.028,0.305,0.129,0.54,0.303,0.708c0.174,0.168,0.399,0.252,0.675,0.252
			c0.22,0,0.403-0.038,0.549-0.113c0.146-0.076,0.245-0.187,0.297-0.33l0.402,0.21c-0.12,0.212-0.28,0.374-0.48,0.485
			c-0.2,0.112-0.456,0.168-0.768,0.168c-0.452,0-0.807-0.138-1.065-0.413c-0.258-0.276-0.387-0.658-0.387-1.146
			s0.123-0.87,0.369-1.146c0.246-0.275,0.595-0.413,1.047-0.413c0.28,0,0.522,0.062,0.726,0.186
			c0.204,0.124,0.358,0.292,0.462,0.504s0.156,0.45,0.156,0.714C24.102,123.557,24.094,123.669,24.078,123.78z M22.119,122.694
			c-0.162,0.156-0.261,0.376-0.297,0.66h1.818c-0.032-0.28-0.124-0.499-0.276-0.657c-0.152-0.157-0.354-0.236-0.606-0.236
			C22.494,122.461,22.281,122.539,22.119,122.694z"/>
		<path fill="#4C4E4F" d="M25.818,122.101h1.002v0.414h-1.002v2.586h-0.48v-2.586h-0.6v-0.414h0.6v-0.504
			c0-0.276,0.084-0.496,0.252-0.66s0.412-0.246,0.732-0.246c0.108,0,0.207,0.012,0.297,0.036c0.09,0.024,0.161,0.058,0.213,0.102
			l-0.126,0.391c-0.096-0.061-0.21-0.09-0.342-0.09c-0.364,0-0.546,0.172-0.546,0.516V122.101z"/>
		<path fill="#4C4E4F" d="M29.862,124.908c0.16,0.129,0.24,0.303,0.24,0.522c0,0.192-0.066,0.361-0.198,0.507
			c-0.132,0.146-0.311,0.258-0.537,0.336s-0.475,0.117-0.747,0.117c-0.456,0-0.8-0.073-1.032-0.219
			c-0.232-0.146-0.348-0.337-0.348-0.573c0-0.136,0.047-0.256,0.141-0.36c0.094-0.104,0.223-0.178,0.387-0.222
			c-0.124-0.06-0.223-0.136-0.297-0.228c-0.074-0.093-0.111-0.2-0.111-0.324c0-0.148,0.04-0.271,0.12-0.369s0.19-0.171,0.33-0.219
			c-0.144-0.088-0.253-0.203-0.327-0.346c-0.074-0.142-0.111-0.301-0.111-0.477c0-0.196,0.052-0.371,0.156-0.525
			c0.104-0.153,0.25-0.273,0.438-0.359s0.4-0.129,0.636-0.129c0.224,0,0.428,0.04,0.612,0.119c0.112-0.407,0.394-0.611,0.846-0.611
			l0.108,0.42c-0.392,0-0.63,0.11-0.714,0.33c0.12,0.092,0.213,0.202,0.279,0.33s0.099,0.27,0.099,0.426
			c0,0.196-0.052,0.371-0.156,0.524c-0.104,0.154-0.25,0.274-0.438,0.36s-0.4,0.129-0.636,0.129c-0.176,0-0.33-0.018-0.462-0.054
			c-0.12,0.028-0.206,0.072-0.258,0.132c-0.052,0.061-0.078,0.143-0.078,0.246c0,0.104,0.036,0.184,0.108,0.24
			c0.072,0.056,0.168,0.084,0.288,0.084h0.996C29.48,124.717,29.702,124.78,29.862,124.908z M29.395,125.842
			c0.176-0.099,0.264-0.217,0.264-0.357c0-0.116-0.045-0.204-0.135-0.264c-0.09-0.061-0.243-0.09-0.459-0.09H28.26
			c-0.184,0-0.326,0.033-0.426,0.099c-0.1,0.066-0.15,0.157-0.15,0.273c0,0.151,0.084,0.271,0.252,0.356s0.414,0.129,0.738,0.129
			C28.979,125.988,29.218,125.939,29.395,125.842z M28.081,122.604c-0.14,0.116-0.21,0.267-0.21,0.45s0.07,0.334,0.21,0.45
			c0.14,0.116,0.314,0.174,0.522,0.174c0.208,0,0.382-0.058,0.522-0.174c0.14-0.116,0.21-0.267,0.21-0.45s-0.07-0.334-0.21-0.45
			c-0.14-0.116-0.314-0.174-0.522-0.174C28.395,122.431,28.22,122.488,28.081,122.604z"/>
		<path fill="#4C4E4F" d="M33.234,122.335c0.22,0.195,0.33,0.478,0.33,0.846v1.92h-0.48v-1.752c0-0.312-0.067-0.538-0.201-0.678
			c-0.134-0.141-0.313-0.21-0.537-0.21c-0.156,0-0.305,0.036-0.447,0.107c-0.142,0.072-0.258,0.188-0.348,0.346
			c-0.09,0.157-0.135,0.356-0.135,0.597v1.59h-0.48v-4.38h0.48v1.83c0.1-0.172,0.235-0.3,0.405-0.384s0.361-0.126,0.573-0.126
			C32.734,122.041,33.014,122.139,33.234,122.335z"/>
		<path fill="#4C4E4F" d="M34.749,121.426c-0.066-0.066-0.099-0.153-0.099-0.261c0-0.108,0.033-0.195,0.099-0.262
			c0.066-0.065,0.153-0.099,0.261-0.099s0.195,0.033,0.261,0.099c0.066,0.066,0.099,0.153,0.099,0.262
			c0,0.107-0.033,0.194-0.099,0.261c-0.066,0.065-0.153,0.099-0.261,0.099S34.815,121.491,34.749,121.426z M35.25,125.101h-0.48v-3
			h0.48V125.101z"/>
		<path fill="#4C4E4F" d="M36.966,125.406c0,0.34-0.091,0.589-0.273,0.747c-0.182,0.158-0.395,0.237-0.639,0.237
			c-0.12,0-0.232-0.018-0.336-0.054s-0.192-0.084-0.264-0.145l0.102-0.456c0.14,0.124,0.304,0.187,0.492,0.187
			c0.292,0,0.438-0.188,0.438-0.564v-3.258h0.48V125.406z M36.981,120.909c0.07,0.07,0.105,0.155,0.105,0.256
			c0,0.1-0.035,0.185-0.105,0.255c-0.07,0.069-0.155,0.104-0.255,0.104s-0.185-0.035-0.255-0.104
			c-0.07-0.07-0.105-0.155-0.105-0.255c0-0.101,0.035-0.186,0.105-0.256c0.07-0.069,0.155-0.104,0.255-0.104
			S36.911,120.84,36.981,120.909z"/>
		<path fill="#4C4E4F" d="M39.318,123.618l-0.636,0.637v0.846h-0.48v-4.38h0.48v2.934l1.554-1.554h0.6l-1.17,1.17l1.242,1.83h-0.582
			L39.318,123.618z"/>
		<path fill="#4C4E4F" d="M42.18,124.297c0,0.151,0.023,0.257,0.069,0.314c0.046,0.059,0.131,0.087,0.255,0.087
			c0.084,0,0.157-0.006,0.219-0.018s0.135-0.034,0.219-0.066l-0.078,0.462c-0.132,0.057-0.28,0.084-0.444,0.084
			c-0.244,0-0.425-0.065-0.543-0.197s-0.177-0.334-0.177-0.606v-3.636h0.48V124.297z"/>
		<path fill="#4C4E4F" d="M47.727,122.164c0.174,0.082,0.315,0.209,0.423,0.381c0.108,0.172,0.162,0.384,0.162,0.636v1.92h-0.48
			v-1.872c0-0.26-0.065-0.453-0.195-0.579c-0.13-0.126-0.301-0.188-0.513-0.188c-0.16,0-0.307,0.039-0.441,0.116
			c-0.134,0.078-0.242,0.192-0.324,0.343c-0.082,0.149-0.123,0.329-0.123,0.537v1.644h-0.48v-1.872c0-0.26-0.065-0.453-0.195-0.579
			s-0.301-0.188-0.513-0.188c-0.144,0-0.284,0.037-0.42,0.11c-0.136,0.074-0.248,0.189-0.336,0.346
			c-0.088,0.155-0.132,0.35-0.132,0.582v1.602h-0.48v-3h0.42l0.03,0.468c0.104-0.176,0.241-0.308,0.411-0.396
			s0.353-0.132,0.549-0.132c0.22,0,0.423,0.05,0.609,0.149c0.186,0.101,0.327,0.246,0.423,0.438
			c0.088-0.192,0.232-0.338,0.432-0.438c0.2-0.1,0.404-0.149,0.612-0.149C47.366,122.041,47.553,122.082,47.727,122.164z"/>
		<path fill="#4C4E4F" d="M51.816,122.335c0.22,0.195,0.33,0.478,0.33,0.846v1.92h-0.48v-1.752c0-0.312-0.067-0.538-0.201-0.678
			c-0.134-0.141-0.313-0.21-0.537-0.21c-0.16,0-0.31,0.035-0.45,0.104c-0.14,0.07-0.255,0.185-0.345,0.342
			c-0.09,0.158-0.135,0.357-0.135,0.598v1.596h-0.48v-3h0.42l0.03,0.468c0.1-0.18,0.238-0.312,0.414-0.398
			c0.176-0.086,0.374-0.129,0.594-0.129C51.316,122.041,51.596,122.139,51.816,122.335z"/>
		<path fill="#4C4E4F" d="M55.683,122.454c0.258,0.276,0.387,0.658,0.387,1.146s-0.129,0.87-0.387,1.146
			c-0.258,0.275-0.613,0.413-1.065,0.413c-0.452,0-0.807-0.138-1.065-0.413c-0.258-0.276-0.387-0.658-0.387-1.146
			s0.129-0.87,0.387-1.146c0.258-0.275,0.613-0.413,1.065-0.413C55.07,122.041,55.425,122.179,55.683,122.454z M53.904,122.761
			c-0.172,0.204-0.258,0.483-0.258,0.84s0.086,0.636,0.258,0.84s0.41,0.307,0.714,0.307c0.304,0,0.542-0.103,0.714-0.307
			s0.258-0.483,0.258-0.84s-0.086-0.636-0.258-0.84s-0.41-0.307-0.714-0.307C54.314,122.454,54.076,122.557,53.904,122.761z"/>
		<path fill="#4C4E4F" d="M59.595,122.458c0.246,0.277,0.369,0.658,0.369,1.143s-0.123,0.865-0.369,1.143
			c-0.246,0.278-0.579,0.417-0.999,0.417c-0.22,0-0.417-0.048-0.591-0.144c-0.174-0.096-0.309-0.224-0.405-0.384v1.728h-0.48v-4.26
			h0.42l0.03,0.522c0.088-0.177,0.223-0.317,0.405-0.424c0.182-0.105,0.389-0.158,0.621-0.158
			C59.016,122.041,59.349,122.18,59.595,122.458z M59.231,124.432c0.168-0.206,0.252-0.483,0.252-0.831s-0.084-0.625-0.252-0.831
			s-0.398-0.309-0.69-0.309c-0.288,0-0.517,0.1-0.687,0.3s-0.255,0.468-0.255,0.804v0.072c0,0.336,0.085,0.604,0.255,0.804
			s0.399,0.3,0.687,0.3C58.833,124.74,59.063,124.638,59.231,124.432z"/>
		<path fill="#4C4E4F" d="M63.689,122.101v4.26H63.21v-1.728c-0.096,0.16-0.231,0.288-0.405,0.384s-0.371,0.144-0.591,0.144
			c-0.42,0-0.753-0.139-0.999-0.417c-0.246-0.277-0.369-0.658-0.369-1.143s0.123-0.865,0.369-1.143
			c0.246-0.278,0.579-0.417,0.999-0.417c0.232,0,0.439,0.053,0.621,0.158c0.182,0.106,0.317,0.247,0.405,0.424l0.029-0.522H63.689z
			 M62.955,124.44c0.17-0.2,0.255-0.468,0.255-0.804v-0.072c0-0.336-0.085-0.604-0.255-0.804s-0.399-0.3-0.688-0.3
			c-0.292,0-0.521,0.103-0.689,0.309s-0.252,0.483-0.252,0.831s0.084,0.625,0.252,0.831s0.397,0.309,0.689,0.309
			C62.556,124.74,62.785,124.641,62.955,124.44z"/>
		<path fill="#4C4E4F" d="M66.671,122.101l-0.096,0.468c-0.096-0.052-0.222-0.078-0.378-0.078c-0.128,0-0.253,0.037-0.375,0.111
			s-0.222,0.186-0.3,0.336s-0.117,0.331-0.117,0.543v1.62h-0.48v-3h0.391l0.065,0.492c0.168-0.368,0.488-0.552,0.96-0.552
			C66.485,122.041,66.595,122.061,66.671,122.101z"/>
		<path fill="#4C4E4F" d="M67.607,124.989c-0.231-0.113-0.401-0.282-0.51-0.507l0.39-0.27c0.068,0.176,0.187,0.308,0.354,0.396
			s0.366,0.132,0.594,0.132c0.236,0,0.416-0.042,0.54-0.126s0.186-0.189,0.186-0.317c0-0.116-0.058-0.209-0.174-0.279
			s-0.319-0.131-0.611-0.183c-0.288-0.053-0.517-0.115-0.685-0.189s-0.29-0.168-0.366-0.282c-0.075-0.113-0.113-0.255-0.113-0.423
			c0-0.164,0.048-0.313,0.144-0.45c0.096-0.136,0.234-0.244,0.414-0.326s0.388-0.123,0.624-0.123c0.32,0,0.577,0.059,0.771,0.177
			c0.193,0.118,0.333,0.299,0.417,0.543l-0.408,0.24c-0.064-0.192-0.161-0.33-0.291-0.414s-0.293-0.126-0.489-0.126
			s-0.362,0.044-0.498,0.132s-0.204,0.189-0.204,0.306c0,0.132,0.06,0.234,0.177,0.306c0.118,0.072,0.329,0.135,0.634,0.187
			c0.416,0.068,0.71,0.17,0.882,0.306c0.172,0.137,0.258,0.328,0.258,0.576c0,0.172-0.051,0.325-0.153,0.459
			c-0.102,0.134-0.248,0.239-0.438,0.315c-0.19,0.075-0.411,0.113-0.663,0.113C68.1,125.16,67.84,125.104,67.607,124.989z"/>
		<path fill="#4C4E4F" d="M72.485,124.891c-0.199,0.18-0.458,0.27-0.773,0.27c-0.244,0-0.443-0.065-0.597-0.197
			c-0.154-0.132-0.233-0.334-0.237-0.606v-1.842h-0.601v-0.414h0.601v-0.72l0.479-0.132v0.852h1.11v0.414h-1.11v1.758
			c0,0.145,0.041,0.253,0.123,0.327s0.191,0.111,0.327,0.111c0.192,0,0.362-0.074,0.51-0.223L72.485,124.891z"/>
		<path fill="#4C4E4F" d="M75.882,122.101v3h-0.42l-0.03-0.456c-0.2,0.344-0.558,0.516-1.074,0.516c-0.324,0-0.589-0.09-0.795-0.27
			s-0.309-0.456-0.309-0.828v-1.962h0.479v1.836c0,0.292,0.061,0.499,0.181,0.621c0.119,0.122,0.296,0.183,0.527,0.183
			c0.276,0,0.505-0.084,0.688-0.252c0.182-0.168,0.272-0.42,0.272-0.756v-1.632H75.882z"/>
		<path fill="#4C4E4F" d="M79.607,122.101l-1.248,3H77.88l-1.248-3h0.546l0.948,2.514l0.978-2.514H79.607z"/>
		<path fill="#4C4E4F" d="M84.714,122.101l-1.044,3h-0.48l-0.846-2.388l-0.798,2.388h-0.48l-1.044-3h0.534l0.756,2.442l0.816-2.442
			h0.479l0.816,2.442l0.756-2.442H84.714z"/>
		<path fill="#4C4E4F" d="M87.468,125.101l-0.828-1.158l-0.852,1.158h-0.559l1.152-1.512l-1.08-1.488h0.6l0.792,1.11l0.78-1.11
			h0.564l-1.086,1.47l1.104,1.53H87.468z"/>
		<path fill="#4C4E4F" d="M90.071,125.604c-0.116,0.288-0.246,0.491-0.391,0.609c-0.144,0.117-0.33,0.177-0.558,0.177
			c-0.152,0-0.279-0.021-0.381-0.06c-0.103-0.04-0.195-0.104-0.279-0.192l0.168-0.408c0.116,0.16,0.278,0.24,0.486,0.24
			c0.116,0,0.219-0.035,0.309-0.105c0.09-0.069,0.169-0.196,0.237-0.381l0.156-0.39l-1.254-2.994h0.546l0.75,1.956l0.186,0.534
			l0.216-0.594l0.702-1.896h0.517L90.071,125.604z"/>
		<path fill="#4C4E4F" d="M92.045,124.734l1.572-1.842l0.378-0.39l-0.534,0.012h-1.397v-0.414h2.466v0.366l-1.572,1.842l-0.372,0.39
			l0.582-0.012h1.41v0.414h-2.532V124.734z"/>
		<path fill="#4C4E4F" d="M6.918,131.839c-0.252-0.348-0.378-0.854-0.378-1.519c0-0.663,0.126-1.17,0.378-1.518
			s0.618-0.521,1.098-0.521s0.846,0.174,1.098,0.521s0.378,0.854,0.378,1.518c0,0.664-0.126,1.171-0.378,1.519
			s-0.618,0.521-1.098,0.521S7.17,132.187,6.918,131.839z M8.742,131.518c0.168-0.273,0.252-0.673,0.252-1.197
			c0-0.523-0.084-0.923-0.252-1.196c-0.168-0.274-0.41-0.411-0.726-0.411c-0.316,0-0.558,0.137-0.726,0.411
			c-0.168,0.273-0.252,0.673-0.252,1.196c0,0.524,0.084,0.924,0.252,1.197c0.168,0.274,0.41,0.411,0.726,0.411
			C8.333,131.929,8.574,131.792,8.742,131.518z"/>
		<path fill="#4C4E4F" d="M11.844,128.341v3.96h-0.48v-2.904c0-0.084,0.004-0.237,0.012-0.462c-0.136,0.132-0.294,0.247-0.474,0.345
			c-0.18,0.099-0.364,0.17-0.552,0.214l-0.126-0.438c0.096-0.012,0.226-0.057,0.39-0.135s0.322-0.17,0.474-0.276
			c0.152-0.105,0.264-0.207,0.336-0.303H11.844z"/>
		<path fill="#4C4E4F" d="M13.02,131.911c0.548-0.404,0.968-0.737,1.26-0.999c0.292-0.263,0.501-0.5,0.627-0.714
			c0.126-0.215,0.189-0.439,0.189-0.676c0-0.235-0.076-0.427-0.228-0.572c-0.152-0.146-0.356-0.22-0.612-0.22
			c-0.268,0-0.485,0.088-0.651,0.265c-0.166,0.176-0.263,0.414-0.291,0.714l-0.42-0.252c0.052-0.356,0.197-0.642,0.435-0.855
			s0.553-0.32,0.945-0.32c0.264,0,0.497,0.052,0.699,0.155c0.202,0.104,0.357,0.25,0.465,0.438c0.108,0.188,0.162,0.404,0.162,0.647
			c0,0.257-0.061,0.502-0.183,0.738s-0.321,0.484-0.597,0.744c-0.276,0.26-0.648,0.546-1.116,0.857v0.007
			c0.264-0.013,0.462-0.019,0.594-0.019h1.386v0.45H13.02V131.911z"/>
		<path fill="#4C4E4F" d="M18.609,128.422c0.186,0.094,0.327,0.219,0.423,0.375c0.096,0.156,0.144,0.328,0.144,0.516
			c0,0.185-0.034,0.351-0.102,0.498c-0.068,0.148-0.159,0.266-0.273,0.352c-0.114,0.086-0.237,0.129-0.369,0.129v0.012
			c0.252,0,0.454,0.091,0.606,0.273c0.152,0.182,0.228,0.402,0.228,0.663c0,0.212-0.057,0.403-0.171,0.575
			c-0.114,0.172-0.277,0.307-0.489,0.402c-0.212,0.096-0.456,0.144-0.732,0.144c-0.66,0-1.116-0.315-1.368-0.947l0.444-0.234
			c0.08,0.244,0.191,0.427,0.333,0.549s0.351,0.184,0.627,0.184c0.268,0,0.478-0.067,0.63-0.201c0.152-0.134,0.228-0.307,0.228-0.52
			c0-0.243-0.073-0.415-0.219-0.513s-0.377-0.146-0.693-0.146H17.7v-0.45h0.156c0.548,0,0.822-0.225,0.822-0.672
			c0-0.225-0.063-0.394-0.189-0.508c-0.126-0.113-0.307-0.171-0.543-0.171c-0.232,0-0.417,0.054-0.555,0.159
			c-0.138,0.106-0.233,0.255-0.285,0.447l-0.45-0.21c0.096-0.26,0.259-0.466,0.489-0.618c0.23-0.152,0.495-0.228,0.795-0.228
			C18.2,128.281,18.423,128.328,18.609,128.422z"/>
		<path fill="#4C4E4F" d="M23.19,131.263h-0.702v1.038h-0.48v-1.038h-1.932v-0.354l1.806-2.568h0.606v2.508h0.702V131.263z
			 M20.586,130.849h1.422v-1.481l0.024-0.637H22.02c-0.1,0.204-0.232,0.425-0.396,0.66L20.586,130.849z"/>
		<path fill="#4C4E4F" d="M26.37,130.114c0.228,0.233,0.342,0.543,0.342,0.927c0,0.412-0.12,0.734-0.36,0.969
			c-0.24,0.234-0.572,0.351-0.996,0.351c-0.356,0-0.645-0.076-0.867-0.23c-0.222-0.154-0.393-0.379-0.513-0.675l0.468-0.246
			c0.068,0.231,0.169,0.407,0.303,0.524c0.134,0.118,0.331,0.178,0.591,0.178c0.272,0,0.486-0.074,0.642-0.223
			c0.156-0.147,0.234-0.352,0.234-0.611c0-0.28-0.072-0.494-0.216-0.643c-0.144-0.147-0.352-0.222-0.624-0.222
			c-0.412,0-0.706,0.128-0.882,0.384h-0.426l0.24-2.256h2.226v0.45h-1.818l-0.156,1.248l-0.006,0.054h0.006
			c0.212-0.22,0.514-0.33,0.906-0.33C25.84,129.763,26.142,129.88,26.37,130.114z"/>
		<path fill="#4C4E4F" d="M29.958,128.479c0.2,0.132,0.362,0.345,0.486,0.637L30,129.325c-0.128-0.396-0.41-0.595-0.846-0.595
			c-0.208,0-0.393,0.074-0.555,0.223c-0.162,0.147-0.288,0.35-0.378,0.605c-0.09,0.256-0.135,0.54-0.135,0.853v0.107h0.024
			c0.06-0.235,0.196-0.416,0.408-0.54c0.212-0.124,0.438-0.186,0.678-0.186c0.404,0,0.727,0.116,0.969,0.348
			c0.242,0.232,0.363,0.544,0.363,0.937c0,0.392-0.123,0.704-0.369,0.936c-0.246,0.232-0.577,0.348-0.993,0.348
			c-0.324,0-0.601-0.087-0.831-0.261s-0.404-0.414-0.522-0.72c-0.118-0.306-0.177-0.659-0.177-1.06c0-0.432,0.067-0.801,0.201-1.106
			s0.318-0.538,0.552-0.696c0.234-0.158,0.499-0.236,0.795-0.236C29.5,128.281,29.758,128.347,29.958,128.479z M28.536,130.482
			c-0.16,0.152-0.24,0.349-0.24,0.588c0,0.248,0.079,0.448,0.237,0.601c0.158,0.152,0.367,0.228,0.627,0.228
			c0.272,0,0.484-0.072,0.636-0.219c0.152-0.146,0.228-0.349,0.228-0.609c0-0.252-0.076-0.45-0.228-0.597
			c-0.152-0.146-0.364-0.219-0.636-0.219C28.904,130.255,28.696,130.331,28.536,130.482z"/>
		<path fill="#4C4E4F" d="M34.134,128.341v0.45c-0.492,0.516-0.851,1.06-1.077,1.632s-0.339,1.198-0.339,1.878h-0.492
			c0-0.648,0.117-1.271,0.351-1.869c0.234-0.598,0.579-1.145,1.035-1.641h-2.394v-0.45H34.134z"/>
		<path fill="#4C4E4F" d="M37.11,128.565c0.228,0.187,0.342,0.439,0.342,0.76c0,0.203-0.049,0.383-0.147,0.536
			c-0.098,0.154-0.235,0.271-0.411,0.352v0.006c0.232,0.088,0.413,0.218,0.543,0.39c0.13,0.173,0.195,0.381,0.195,0.624
			c0,0.229-0.059,0.428-0.177,0.598c-0.118,0.17-0.286,0.301-0.504,0.393c-0.218,0.092-0.471,0.138-0.759,0.138
			s-0.54-0.046-0.756-0.138c-0.216-0.092-0.384-0.223-0.504-0.393s-0.18-0.369-0.18-0.598c0-0.239,0.065-0.447,0.195-0.624
			c0.13-0.176,0.313-0.306,0.549-0.39v-0.006c-0.176-0.076-0.314-0.192-0.414-0.348c-0.1-0.156-0.15-0.337-0.15-0.54
			c0-0.32,0.114-0.573,0.342-0.76c0.228-0.186,0.534-0.278,0.918-0.278C36.576,128.287,36.882,128.38,37.11,128.565z
			 M36.882,131.716c0.168-0.13,0.252-0.307,0.252-0.531c0-0.228-0.085-0.407-0.255-0.537c-0.17-0.13-0.399-0.194-0.687-0.194
			c-0.284,0-0.512,0.065-0.684,0.197c-0.172,0.133-0.258,0.311-0.258,0.534c0,0.225,0.085,0.401,0.255,0.531
			c0.17,0.13,0.399,0.195,0.687,0.195C36.484,131.911,36.714,131.846,36.882,131.716z M35.634,128.904
			c-0.136,0.112-0.204,0.269-0.204,0.469c0,0.191,0.07,0.345,0.21,0.459c0.14,0.113,0.324,0.171,0.552,0.171
			s0.412-0.058,0.552-0.171c0.14-0.114,0.21-0.268,0.21-0.459c0-0.2-0.068-0.356-0.204-0.469c-0.136-0.111-0.322-0.168-0.558-0.168
			C35.956,128.736,35.77,128.793,35.634,128.904z"/>
		<path fill="#4C4E4F" d="M40.773,128.539c0.23,0.172,0.404,0.411,0.522,0.717c0.118,0.306,0.177,0.661,0.177,1.064
			c0,0.664-0.13,1.171-0.39,1.519c-0.26,0.348-0.638,0.521-1.134,0.521c-0.356,0-0.645-0.073-0.867-0.222
			c-0.222-0.147-0.391-0.372-0.507-0.672l0.474-0.252c0.072,0.236,0.171,0.411,0.297,0.525c0.126,0.113,0.325,0.171,0.597,0.171
			c0.396,0,0.677-0.15,0.843-0.45s0.249-0.734,0.249-1.302v-0.055H41.01c-0.056,0.265-0.189,0.454-0.399,0.57
			s-0.445,0.174-0.705,0.174c-0.4,0-0.721-0.116-0.963-0.348c-0.242-0.232-0.363-0.544-0.363-0.937c0-0.392,0.123-0.704,0.369-0.936
			c0.246-0.232,0.577-0.348,0.993-0.348C40.266,128.281,40.543,128.367,40.773,128.539z M39.312,128.962
			c-0.152,0.146-0.228,0.349-0.228,0.608c0,0.253,0.076,0.451,0.228,0.598c0.152,0.146,0.364,0.219,0.636,0.219
			c0.256,0,0.464-0.076,0.624-0.228c0.16-0.152,0.24-0.349,0.24-0.589c0-0.247-0.079-0.447-0.237-0.6
			c-0.158-0.152-0.367-0.228-0.627-0.228C39.676,128.743,39.464,128.815,39.312,128.962z"/>
	</g>
</g>
<g id="Roboto_Regular">
	<g>
		<path fill="#4C4E4F" d="M10.715,92.397H8.377v4.026H7.058V86.47h3.295c1.121,0,1.983,0.255,2.587,0.766s0.906,1.253,0.906,2.229
			c0,0.62-0.167,1.16-0.502,1.62s-0.801,0.804-1.398,1.032l2.338,4.225v0.082h-1.408L10.715,92.397z M8.377,91.324h2.017
			c0.355,0,0.667-0.049,0.933-0.147s0.489-0.23,0.667-0.396s0.311-0.362,0.4-0.588s0.133-0.468,0.133-0.728
			c0-0.287-0.042-0.548-0.126-0.783s-0.215-0.437-0.393-0.605s-0.403-0.298-0.677-0.39s-0.599-0.137-0.978-0.137H8.377V91.324z"/>
		<path fill="#4C4E4F" d="M15.432,92.657c0-0.538,0.079-1.036,0.236-1.494s0.38-0.855,0.67-1.193s0.642-0.602,1.056-0.793
			s0.879-0.287,1.395-0.287c0.524,0,0.995,0.096,1.412,0.287s0.771,0.456,1.063,0.793s0.515,0.735,0.67,1.193
			s0.232,0.956,0.232,1.494v0.15c0,0.538-0.078,1.036-0.232,1.494s-0.378,0.854-0.67,1.189s-0.645,0.597-1.06,0.786
			s-0.882,0.284-1.401,0.284s-0.987-0.095-1.401-0.284s-0.768-0.451-1.06-0.786s-0.516-0.731-0.673-1.189s-0.236-0.956-0.236-1.494
			V92.657z M16.703,92.807c0,0.369,0.043,0.718,0.13,1.046s0.218,0.616,0.393,0.865s0.394,0.445,0.656,0.591
			s0.568,0.219,0.919,0.219c0.346,0,0.652-0.073,0.916-0.219s0.483-0.343,0.656-0.591s0.304-0.537,0.393-0.865
			s0.133-0.677,0.133-1.046v-0.15c0-0.365-0.044-0.712-0.133-1.042s-0.221-0.62-0.396-0.868s-0.396-0.447-0.66-0.595
			s-0.572-0.222-0.923-0.222c-0.346,0-0.649,0.074-0.909,0.222s-0.478,0.346-0.653,0.595s-0.307,0.538-0.393,0.868
			s-0.13,0.678-0.13,1.042V92.807z"/>
		<path fill="#4C4E4F" d="M30.293,92.807c0,0.542-0.064,1.042-0.191,1.5s-0.314,0.854-0.561,1.189s-0.547,0.596-0.902,0.783
			s-0.761,0.28-1.217,0.28c-0.488,0-0.909-0.085-1.265-0.256s-0.656-0.416-0.902-0.735l-0.062,0.854h-1.162v-10.5h1.265v3.917
			c0.246-0.305,0.542-0.54,0.889-0.704s0.754-0.246,1.224-0.246c0.465,0,0.876,0.091,1.234,0.273s0.659,0.438,0.902,0.769
			s0.43,0.727,0.557,1.189s0.191,0.977,0.191,1.542V92.807z M29.028,92.664c0-0.369-0.034-0.717-0.103-1.042
			s-0.179-0.612-0.332-0.858s-0.352-0.441-0.598-0.584s-0.547-0.215-0.902-0.215c-0.232,0-0.442,0.03-0.629,0.089
			s-0.354,0.141-0.502,0.246s-0.277,0.228-0.386,0.369s-0.203,0.294-0.28,0.458v3.199c0.082,0.164,0.179,0.317,0.291,0.458
			s0.242,0.264,0.39,0.369s0.315,0.187,0.502,0.246s0.396,0.089,0.629,0.089c0.342,0,0.633-0.071,0.875-0.212
			s0.44-0.333,0.595-0.574s0.269-0.525,0.342-0.851s0.109-0.673,0.109-1.042V92.664z"/>
		<path fill="#4C4E4F" d="M31.831,92.657c0-0.538,0.079-1.036,0.236-1.494s0.38-0.855,0.67-1.193s0.642-0.602,1.056-0.793
			s0.879-0.287,1.395-0.287c0.524,0,0.995,0.096,1.412,0.287s0.771,0.456,1.063,0.793s0.515,0.735,0.67,1.193
			s0.232,0.956,0.232,1.494v0.15c0,0.538-0.078,1.036-0.232,1.494s-0.378,0.854-0.67,1.189s-0.645,0.597-1.06,0.786
			s-0.882,0.284-1.401,0.284s-0.987-0.095-1.401-0.284s-0.768-0.451-1.06-0.786s-0.516-0.731-0.673-1.189s-0.236-0.956-0.236-1.494
			V92.657z M33.102,92.807c0,0.369,0.043,0.718,0.13,1.046s0.218,0.616,0.393,0.865s0.394,0.445,0.656,0.591
			s0.568,0.219,0.919,0.219c0.346,0,0.652-0.073,0.916-0.219s0.483-0.343,0.656-0.591s0.304-0.537,0.393-0.865
			s0.133-0.677,0.133-1.046v-0.15c0-0.365-0.044-0.712-0.133-1.042s-0.221-0.62-0.396-0.868s-0.396-0.447-0.66-0.595
			s-0.572-0.222-0.923-0.222c-0.346,0-0.649,0.074-0.909,0.222s-0.478,0.346-0.653,0.595s-0.307,0.538-0.393,0.868
			s-0.13,0.678-0.13,1.042V92.807z"/>
		<path fill="#4C4E4F" d="M42.146,87.236v1.791h1.381v0.978h-1.381v4.587c0,0.191,0.023,0.345,0.068,0.461s0.106,0.206,0.181,0.27
			s0.162,0.106,0.26,0.126s0.199,0.031,0.304,0.031s0.215-0.01,0.332-0.031s0.206-0.038,0.27-0.051v1.025
			c-0.1,0.027-0.23,0.057-0.39,0.089s-0.353,0.048-0.581,0.048c-0.232,0-0.452-0.033-0.66-0.099s-0.389-0.177-0.543-0.332
			s-0.278-0.359-0.369-0.612s-0.137-0.564-0.137-0.933v-4.58h-1.347v-0.978h1.347v-1.791H42.146z"/>
		<path fill="#4C4E4F" d="M44.812,92.657c0-0.538,0.079-1.036,0.236-1.494s0.38-0.855,0.67-1.193s0.642-0.602,1.056-0.793
			s0.879-0.287,1.395-0.287c0.524,0,0.995,0.096,1.412,0.287s0.771,0.456,1.063,0.793s0.515,0.735,0.67,1.193
			s0.232,0.956,0.232,1.494v0.15c0,0.538-0.078,1.036-0.232,1.494s-0.378,0.854-0.67,1.189s-0.645,0.597-1.06,0.786
			s-0.882,0.284-1.401,0.284s-0.987-0.095-1.401-0.284s-0.768-0.451-1.06-0.786s-0.516-0.731-0.673-1.189s-0.236-0.956-0.236-1.494
			V92.657z M46.083,92.807c0,0.369,0.043,0.718,0.13,1.046s0.218,0.616,0.393,0.865s0.394,0.445,0.656,0.591
			s0.568,0.219,0.919,0.219c0.346,0,0.652-0.073,0.916-0.219s0.483-0.343,0.656-0.591s0.304-0.537,0.393-0.865
			s0.133-0.677,0.133-1.046v-0.15c0-0.365-0.044-0.712-0.133-1.042s-0.221-0.62-0.396-0.868s-0.396-0.447-0.66-0.595
			s-0.572-0.222-0.923-0.222c-0.346,0-0.649,0.074-0.909,0.222s-0.478,0.346-0.653,0.595s-0.307,0.538-0.393,0.868
			s-0.13,0.678-0.13,1.042V92.807z"/>
		<path fill="#4C4E4F" d="M61.006,92.397h-2.338v4.026h-1.319V86.47h3.294c1.121,0,1.984,0.255,2.588,0.766s0.906,1.253,0.906,2.229
			c0,0.62-0.168,1.16-0.504,1.62c-0.334,0.46-0.801,0.804-1.396,1.032l2.338,4.225v0.082h-1.408L61.006,92.397z M58.667,91.324
			h2.016c0.355,0,0.666-0.049,0.934-0.147c0.266-0.098,0.488-0.23,0.666-0.396s0.311-0.362,0.4-0.588
			c0.088-0.226,0.133-0.468,0.133-0.728c0-0.287-0.041-0.548-0.127-0.783c-0.084-0.235-0.215-0.437-0.393-0.605
			s-0.402-0.298-0.676-0.39s-0.6-0.137-0.979-0.137h-1.975V91.324z"/>
		<path fill="#4C4E4F" d="M69.127,96.56c-0.516,0-0.982-0.089-1.398-0.267c-0.418-0.178-0.773-0.425-1.07-0.742
			c-0.295-0.317-0.523-0.694-0.684-1.131c-0.158-0.438-0.238-0.916-0.238-1.436v-0.287c0-0.602,0.09-1.139,0.27-1.613
			s0.42-0.873,0.721-1.196s0.645-0.571,1.033-0.742c0.387-0.171,0.791-0.256,1.209-0.256c0.529,0,0.984,0.092,1.367,0.277
			s0.699,0.438,0.947,0.762s0.432,0.707,0.551,1.148c0.117,0.442,0.178,0.923,0.178,1.442v0.567H67
			c0.01,0.342,0.064,0.661,0.168,0.957c0.102,0.296,0.248,0.554,0.438,0.772s0.416,0.392,0.684,0.52
			c0.266,0.127,0.568,0.191,0.906,0.191c0.445,0,0.824-0.091,1.135-0.273c0.309-0.182,0.58-0.424,0.812-0.725l0.773,0.602
			c-0.119,0.182-0.262,0.359-0.432,0.53c-0.168,0.171-0.365,0.324-0.592,0.458c-0.225,0.134-0.482,0.242-0.775,0.321
			C69.826,96.52,69.496,96.56,69.127,96.56z M68.969,89.929c-0.254,0-0.49,0.047-0.703,0.14c-0.215,0.093-0.406,0.229-0.574,0.407
			c-0.17,0.178-0.309,0.399-0.422,0.663c-0.111,0.264-0.188,0.567-0.229,0.909h3.705v-0.096c-0.014-0.246-0.053-0.49-0.119-0.731
			s-0.168-0.458-0.309-0.649c-0.139-0.191-0.316-0.346-0.535-0.465S69.293,89.929,68.969,89.929z"/>
		<path fill="#4C4E4F" d="M73.453,92.664c0-0.565,0.066-1.079,0.201-1.542s0.328-0.859,0.58-1.189
			c0.254-0.331,0.561-0.587,0.92-0.769c0.361-0.182,0.766-0.273,1.217-0.273c0.471,0,0.877,0.082,1.225,0.246
			c0.346,0.164,0.643,0.401,0.889,0.711l0.061-0.82h1.156v7.239c0,0.488-0.076,0.922-0.23,1.302
			c-0.152,0.38-0.367,0.702-0.645,0.964c-0.279,0.262-0.609,0.461-0.992,0.599c-0.383,0.137-0.807,0.205-1.271,0.205
			c-0.191,0-0.41-0.021-0.66-0.065c-0.248-0.044-0.498-0.114-0.752-0.212c-0.252-0.098-0.494-0.229-0.727-0.393
			s-0.432-0.367-0.596-0.608l0.656-0.759c0.156,0.191,0.314,0.351,0.479,0.479s0.33,0.23,0.496,0.308s0.334,0.133,0.506,0.167
			c0.17,0.034,0.34,0.051,0.51,0.051c0.295,0,0.564-0.042,0.807-0.126c0.24-0.084,0.447-0.211,0.617-0.379
			c0.172-0.168,0.303-0.375,0.395-0.619c0.09-0.244,0.137-0.527,0.137-0.851v-0.643c-0.246,0.283-0.539,0.499-0.879,0.649
			s-0.736,0.226-1.193,0.226c-0.441,0-0.842-0.093-1.199-0.28s-0.664-0.448-0.916-0.783c-0.254-0.335-0.447-0.731-0.584-1.189
			s-0.205-0.958-0.205-1.5V92.664z M74.725,92.807c0,0.369,0.037,0.717,0.111,1.042c0.076,0.326,0.191,0.609,0.35,0.851
			c0.156,0.242,0.359,0.433,0.605,0.574s0.539,0.212,0.881,0.212c0.225,0,0.426-0.027,0.605-0.082s0.342-0.13,0.484-0.226
			c0.145-0.096,0.271-0.209,0.381-0.342s0.205-0.278,0.287-0.438v-3.377c-0.082-0.15-0.178-0.291-0.287-0.42
			s-0.236-0.243-0.381-0.338c-0.143-0.096-0.303-0.17-0.48-0.222s-0.377-0.079-0.596-0.079c-0.346,0-0.643,0.072-0.889,0.215
			s-0.449,0.338-0.607,0.584c-0.16,0.246-0.277,0.532-0.354,0.858c-0.074,0.326-0.111,0.673-0.111,1.042V92.807z"/>
		<path fill="#4C4E4F" d="M86.455,95.692c-0.232,0.273-0.527,0.486-0.883,0.639s-0.783,0.229-1.285,0.229
			c-0.363,0-0.695-0.051-0.99-0.154c-0.297-0.103-0.553-0.264-0.766-0.485c-0.215-0.221-0.381-0.506-0.496-0.854
			c-0.117-0.349-0.174-0.769-0.174-1.261v-4.778h1.264v4.792c0,0.333,0.039,0.607,0.117,0.824c0.076,0.216,0.18,0.387,0.307,0.513
			c0.129,0.125,0.273,0.212,0.438,0.26s0.334,0.072,0.506,0.072c0.516,0,0.93-0.098,1.24-0.294c0.312-0.196,0.543-0.458,0.688-0.786
			v-5.38h1.266v7.396h-1.203L86.455,95.692z"/>
		<path fill="#4C4E4F" d="M91.26,96.423h-1.264v-10.5h1.264V96.423z"/>
		<path fill="#4C4E4F" d="M98.131,96.423c-0.047-0.091-0.082-0.206-0.109-0.345s-0.051-0.284-0.068-0.434
			c-0.119,0.123-0.252,0.24-0.4,0.352s-0.311,0.209-0.486,0.294c-0.174,0.084-0.365,0.15-0.57,0.198s-0.422,0.072-0.648,0.072
			c-0.379,0-0.723-0.057-1.029-0.171c-0.309-0.114-0.57-0.269-0.787-0.465c-0.215-0.196-0.383-0.427-0.502-0.694
			c-0.117-0.267-0.178-0.553-0.178-0.858c0-0.396,0.078-0.746,0.232-1.049c0.156-0.303,0.377-0.557,0.666-0.762
			c0.291-0.205,0.641-0.36,1.051-0.465s0.867-0.157,1.373-0.157h1.258v-0.581c0-0.442-0.131-0.794-0.396-1.056
			c-0.264-0.262-0.654-0.393-1.168-0.393c-0.238,0-0.453,0.032-0.65,0.096c-0.195,0.064-0.363,0.149-0.502,0.256
			s-0.248,0.231-0.324,0.373c-0.078,0.141-0.117,0.29-0.117,0.444h-1.271c0-0.264,0.07-0.526,0.209-0.786s0.336-0.493,0.592-0.701
			c0.254-0.208,0.562-0.376,0.926-0.506c0.361-0.13,0.768-0.195,1.213-0.195c0.402,0,0.771,0.051,1.111,0.154
			s0.631,0.257,0.871,0.465c0.242,0.208,0.432,0.466,0.568,0.776s0.205,0.672,0.205,1.087v3.438c0,0.25,0.021,0.514,0.064,0.79
			s0.107,0.514,0.195,0.714v0.109H98.131z M96.031,95.459c0.229,0,0.443-0.032,0.643-0.096c0.201-0.064,0.383-0.147,0.547-0.25
			s0.307-0.22,0.428-0.352s0.215-0.269,0.283-0.41v-1.518h-1.053c-0.725,0-1.283,0.113-1.674,0.338
			c-0.393,0.226-0.588,0.566-0.588,1.022c0,0.178,0.029,0.344,0.088,0.499c0.061,0.155,0.15,0.288,0.27,0.4
			c0.121,0.112,0.27,0.201,0.445,0.267S95.799,95.459,96.031,95.459z"/>
		<path fill="#4C4E4F" d="M105.033,90.162c-0.109-0.018-0.211-0.031-0.305-0.038c-0.092-0.007-0.199-0.01-0.316-0.01
			c-0.438,0-0.795,0.096-1.07,0.287s-0.482,0.449-0.619,0.772v5.25h-1.264v-7.396h1.23l0.02,0.854
			c0.191-0.305,0.432-0.547,0.719-0.725s0.635-0.267,1.045-0.267c0.092,0,0.197,0.01,0.314,0.031
			c0.119,0.021,0.201,0.042,0.246,0.065V90.162z"/>
	</g>
</g>
<g id="ABCDEFGHIJKLMNOPQRSTUVWXYZ_abcdefghijklmnopqrstuvwxyz_012345678_2_">
	<g>
		<path fill="#4C4E4F" d="M6.142,44.141l1.649-4.295h0.612l1.758,4.295H9.514L9.013,42.84H7.217l-0.472,1.301H6.142z M7.381,42.377
			h1.456l-0.448-1.189c-0.137-0.361-0.238-0.658-0.305-0.891c-0.055,0.275-0.132,0.549-0.231,0.82L7.381,42.377z"/>
		<path fill="#4C4E4F" d="M10.712,44.141v-4.295h1.611c0.328,0,0.591,0.043,0.79,0.13s0.354,0.221,0.466,0.401
			s0.168,0.37,0.168,0.567c0,0.184-0.05,0.356-0.149,0.519s-0.25,0.293-0.451,0.393c0.26,0.076,0.459,0.206,0.599,0.39
			s0.209,0.4,0.209,0.65c0,0.201-0.042,0.388-0.127,0.561s-0.19,0.306-0.315,0.4s-0.282,0.165-0.47,0.212s-0.419,0.072-0.693,0.072
			H10.712z M11.28,41.651h0.929c0.252,0,0.433-0.017,0.542-0.05c0.145-0.043,0.253-0.114,0.327-0.214s0.11-0.225,0.11-0.375
			c0-0.143-0.034-0.268-0.103-0.376s-0.166-0.183-0.293-0.223s-0.345-0.06-0.653-0.06H11.28V41.651z M11.28,43.634h1.069
			c0.184,0,0.312-0.007,0.387-0.021c0.131-0.023,0.24-0.062,0.328-0.117s0.16-0.134,0.217-0.239s0.085-0.225,0.085-0.362
			c0-0.16-0.041-0.299-0.123-0.417s-0.196-0.201-0.341-0.249s-0.355-0.072-0.628-0.072H11.28V43.634z"/>
		<path fill="#4C4E4F" d="M17.922,42.635l0.568,0.144c-0.119,0.467-0.333,0.823-0.643,1.068s-0.688,0.368-1.135,0.368
			c-0.463,0-0.839-0.094-1.129-0.283s-0.511-0.461-0.662-0.819s-0.227-0.741-0.227-1.151c0-0.447,0.085-0.837,0.256-1.17
			s0.414-0.586,0.729-0.759s0.663-0.259,1.042-0.259c0.43,0,0.791,0.109,1.084,0.328s0.497,0.526,0.612,0.923l-0.56,0.132
			c-0.1-0.312-0.244-0.54-0.434-0.683s-0.428-0.214-0.715-0.214c-0.33,0-0.606,0.079-0.828,0.237s-0.377,0.371-0.467,0.637
			s-0.135,0.542-0.135,0.825c0,0.365,0.053,0.684,0.16,0.957s0.272,0.476,0.497,0.611s0.468,0.202,0.729,0.202
			c0.318,0,0.588-0.092,0.809-0.275S17.844,42.997,17.922,42.635z"/>
		<path fill="#4C4E4F" d="M19.31,44.141v-4.295h1.479c0.334,0,0.589,0.021,0.765,0.062c0.246,0.057,0.456,0.159,0.63,0.308
			c0.227,0.191,0.396,0.436,0.508,0.734s0.168,0.638,0.168,1.021c0,0.326-0.038,0.615-0.114,0.867s-0.174,0.46-0.293,0.625
			s-0.25,0.295-0.391,0.39s-0.312,0.167-0.513,0.215s-0.43,0.073-0.69,0.073H19.31z M19.878,43.634h0.917
			c0.283,0,0.505-0.026,0.667-0.079s0.29-0.127,0.385-0.223c0.135-0.135,0.24-0.316,0.315-0.543s0.113-0.503,0.113-0.828
			c0-0.449-0.074-0.794-0.221-1.036s-0.327-0.403-0.538-0.485c-0.152-0.059-0.397-0.088-0.735-0.088h-0.902V43.634z"/>
		<path fill="#4C4E4F" d="M23.775,44.141v-4.295h3.105v0.507h-2.537v1.315h2.376v0.504h-2.376v1.462h2.637v0.507H23.775z"/>
		<path fill="#4C4E4F" d="M27.915,44.141v-4.295h2.897v0.507h-2.329v1.33h2.016v0.507h-2.016v1.951H27.915z"/>
		<path fill="#4C4E4F" d="M33.68,42.457v-0.504L35.5,41.95v1.594c-0.279,0.223-0.567,0.39-0.864,0.502s-0.602,0.168-0.914,0.168
			c-0.422,0-0.805-0.09-1.15-0.271s-0.605-0.442-0.781-0.784s-0.264-0.724-0.264-1.146c0-0.418,0.087-0.808,0.262-1.17
			s0.426-0.631,0.754-0.807s0.706-0.264,1.134-0.264c0.311,0,0.591,0.05,0.842,0.151s0.448,0.241,0.59,0.42s0.251,0.414,0.325,0.703
			l-0.513,0.141c-0.064-0.219-0.145-0.391-0.24-0.516s-0.232-0.225-0.41-0.3s-0.375-0.113-0.592-0.113
			c-0.26,0-0.484,0.04-0.674,0.119s-0.342,0.183-0.458,0.312s-0.207,0.271-0.271,0.425c-0.109,0.266-0.164,0.554-0.164,0.864
			c0,0.383,0.066,0.703,0.198,0.961s0.324,0.449,0.576,0.574s0.52,0.188,0.803,0.188c0.246,0,0.486-0.047,0.721-0.142
			s0.412-0.196,0.533-0.303v-0.8H33.68z"/>
		<path fill="#4C4E4F" d="M36.475,44.141v-4.295h0.568v1.764h2.232v-1.764h0.568v4.295h-0.568v-2.024h-2.232v2.024H36.475z"/>
		<path fill="#4C4E4F" d="M41.007,44.141v-4.295h0.568v4.295H41.007z"/>
		<path fill="#4C4E4F" d="M42.407,42.922l0.513-0.07c0.014,0.328,0.075,0.553,0.185,0.674s0.261,0.182,0.454,0.182
			c0.143,0,0.266-0.033,0.369-0.098s0.175-0.154,0.214-0.267s0.059-0.292,0.059-0.538v-2.959h0.568v2.927
			c0,0.359-0.043,0.638-0.13,0.835s-0.225,0.348-0.413,0.451s-0.41,0.155-0.664,0.155c-0.377,0-0.666-0.108-0.866-0.325
			S42.399,43.35,42.407,42.922z"/>
		<path fill="#4C4E4F" d="M45.794,44.141v-4.295h0.568v2.13l2.133-2.13h0.771l-1.802,1.74l1.881,2.555h-0.75l-1.529-2.174
			l-0.703,0.686v1.488H45.794z"/>
		<path fill="#4C4E4F" d="M49.916,44.141v-4.295h0.568v3.788h2.115v0.507H49.916z"/>
		<path fill="#4C4E4F" d="M53.378,44.141v-4.295h0.855l1.017,3.041c0.094,0.283,0.162,0.495,0.205,0.636
			c0.049-0.156,0.125-0.386,0.229-0.688l1.028-2.988h0.765v4.295h-0.548v-3.595l-1.248,3.595h-0.513l-1.242-3.656v3.656H53.378z"/>
		<path fill="#4C4E4F" d="M58.508,44.141v-4.295h0.583l2.256,3.372v-3.372h0.545v4.295h-0.584l-2.255-3.375v3.375H58.508z"/>
		<path fill="#4C4E4F" d="M62.794,42.049c0-0.713,0.191-1.271,0.574-1.674s0.877-0.605,1.482-0.605c0.396,0,0.754,0.095,1.072,0.284
			s0.562,0.454,0.728,0.792c0.168,0.339,0.251,0.723,0.251,1.153c0,0.436-0.088,0.825-0.264,1.169s-0.425,0.604-0.747,0.781
			s-0.67,0.265-1.043,0.265c-0.404,0-0.766-0.098-1.084-0.293s-0.56-0.462-0.724-0.8S62.794,42.426,62.794,42.049z M63.38,42.058
			c0,0.518,0.14,0.925,0.417,1.223c0.279,0.298,0.628,0.447,1.048,0.447c0.428,0,0.779-0.15,1.056-0.451s0.415-0.728,0.415-1.28
			c0-0.35-0.06-0.655-0.177-0.916c-0.119-0.261-0.292-0.463-0.52-0.606s-0.482-0.215-0.766-0.215c-0.402,0-0.748,0.138-1.039,0.415
			C63.525,40.95,63.38,41.412,63.38,42.058z"/>
		<path fill="#4C4E4F" d="M67.754,44.141v-4.295h1.62c0.285,0,0.503,0.014,0.653,0.041c0.211,0.035,0.388,0.102,0.53,0.201
			s0.257,0.237,0.345,0.415c0.086,0.178,0.13,0.373,0.13,0.586c0,0.365-0.116,0.674-0.349,0.927s-0.652,0.379-1.26,0.379h-1.102
			v1.746H67.754z M68.322,41.888h1.11c0.367,0,0.628-0.068,0.782-0.205s0.231-0.329,0.231-0.577c0-0.18-0.046-0.333-0.136-0.461
			c-0.092-0.128-0.211-0.212-0.359-0.253c-0.096-0.025-0.272-0.038-0.53-0.038h-1.099V41.888z"/>
		<path fill="#4C4E4F" d="M75.131,43.681c0.264,0.182,0.507,0.314,0.729,0.398l-0.167,0.396c-0.309-0.111-0.616-0.287-0.923-0.527
			c-0.318,0.178-0.67,0.267-1.055,0.267c-0.389,0-0.741-0.094-1.058-0.281s-0.561-0.451-0.731-0.791s-0.256-0.723-0.256-1.148
			c0-0.424,0.086-0.81,0.258-1.157s0.416-0.612,0.734-0.794c0.316-0.182,0.672-0.272,1.064-0.272c0.396,0,0.754,0.094,1.072,0.283
			s0.561,0.452,0.729,0.791c0.166,0.339,0.25,0.721,0.25,1.147c0,0.354-0.054,0.671-0.161,0.954S75.348,43.472,75.131,43.681z
			 M73.88,42.955c0.328,0.092,0.599,0.229,0.812,0.41c0.334-0.305,0.501-0.763,0.501-1.374c0-0.348-0.06-0.651-0.178-0.911
			s-0.291-0.461-0.518-0.605c-0.229-0.144-0.483-0.215-0.767-0.215c-0.424,0-0.775,0.145-1.055,0.435s-0.419,0.723-0.419,1.299
			c0,0.559,0.138,0.987,0.414,1.286s0.63,0.448,1.06,0.448c0.203,0,0.395-0.038,0.574-0.114c-0.178-0.115-0.365-0.197-0.562-0.246
			L73.88,42.955z"/>
		<path fill="#4C4E4F" d="M76.672,44.141v-4.295h1.904c0.383,0,0.674,0.039,0.873,0.116s0.358,0.213,0.478,0.409
			s0.179,0.411,0.179,0.647c0,0.305-0.099,0.562-0.296,0.771s-0.502,0.342-0.914,0.398c0.15,0.072,0.265,0.144,0.343,0.214
			c0.166,0.152,0.323,0.343,0.472,0.571l0.747,1.169h-0.715l-0.568-0.894c-0.166-0.258-0.303-0.455-0.41-0.592
			s-0.204-0.232-0.288-0.287c-0.086-0.055-0.172-0.093-0.26-0.114c-0.064-0.014-0.17-0.021-0.316-0.021H77.24v1.907H76.672z
			 M77.24,41.742h1.222c0.26,0,0.463-0.027,0.609-0.081s0.258-0.14,0.334-0.258s0.114-0.247,0.114-0.385
			c0-0.203-0.074-0.37-0.222-0.501s-0.38-0.196-0.698-0.196H77.24V41.742z"/>
		<path fill="#4C4E4F" d="M80.923,42.761l0.536-0.047c0.025,0.215,0.084,0.391,0.177,0.529s0.237,0.249,0.433,0.334
			s0.415,0.127,0.659,0.127c0.217,0,0.408-0.032,0.574-0.097s0.289-0.153,0.371-0.265c0.08-0.112,0.121-0.235,0.121-0.368
			c0-0.135-0.039-0.252-0.117-0.353s-0.207-0.185-0.387-0.253c-0.115-0.045-0.37-0.115-0.765-0.209s-0.671-0.184-0.829-0.268
			c-0.205-0.107-0.358-0.241-0.459-0.4s-0.15-0.337-0.15-0.535c0-0.217,0.062-0.419,0.185-0.608s0.303-0.332,0.539-0.429
			s0.499-0.146,0.788-0.146c0.318,0,0.6,0.051,0.842,0.154c0.244,0.103,0.431,0.253,0.562,0.453s0.201,0.425,0.211,0.677
			l-0.545,0.041c-0.029-0.271-0.129-0.477-0.298-0.615s-0.418-0.208-0.748-0.208c-0.344,0-0.595,0.063-0.752,0.189
			s-0.235,0.278-0.235,0.456c0,0.154,0.056,0.281,0.167,0.381c0.109,0.1,0.395,0.202,0.857,0.306
			c0.461,0.104,0.778,0.196,0.95,0.274c0.25,0.115,0.435,0.261,0.554,0.438s0.179,0.38,0.179,0.611c0,0.229-0.065,0.444-0.196,0.646
			s-0.319,0.359-0.564,0.472s-0.521,0.168-0.827,0.168c-0.389,0-0.715-0.057-0.978-0.17s-0.469-0.284-0.617-0.511
			C81.009,43.306,80.931,43.048,80.923,42.761z"/>
		<path fill="#4C4E4F" d="M86.331,44.141v-3.788h-1.415v-0.507h3.404v0.507h-1.421v3.788H86.331z"/>
		<path fill="#4C4E4F" d="M91.842,39.846h0.568v2.481c0,0.432-0.049,0.774-0.146,1.028s-0.273,0.46-0.529,0.62
			c-0.254,0.159-0.589,0.239-1.003,0.239c-0.402,0-0.731-0.069-0.987-0.208s-0.438-0.339-0.548-0.602s-0.164-0.622-0.164-1.077
			v-2.481h0.568v2.479c0,0.373,0.034,0.648,0.104,0.825c0.068,0.177,0.188,0.313,0.357,0.409c0.168,0.096,0.375,0.144,0.619,0.144
			c0.418,0,0.716-0.095,0.894-0.284s0.267-0.554,0.267-1.093V39.846z"/>
		<path fill="#4C4E4F" d="M94.703,44.141l-1.664-4.295h0.615l1.116,3.12c0.09,0.25,0.165,0.484,0.226,0.703
			c0.066-0.234,0.144-0.469,0.231-0.703l1.16-3.12h0.58l-1.682,4.295H94.703z"/>
		<path fill="#4C4E4F" d="M98.348,44.141l-1.14-4.295h0.583l0.653,2.815c0.07,0.295,0.131,0.588,0.182,0.879
			c0.109-0.459,0.174-0.724,0.193-0.794l0.817-2.9h0.686l0.615,2.174c0.154,0.539,0.266,1.046,0.334,1.521
			c0.055-0.271,0.126-0.583,0.214-0.935l0.674-2.76h0.571l-1.178,4.295h-0.548l-0.905-3.272c-0.076-0.273-0.121-0.441-0.135-0.504
			c-0.045,0.197-0.087,0.365-0.126,0.504l-0.911,3.272H98.348z"/>
		<path fill="#4C4E4F" d="M102.944,44.141l1.661-2.238l-1.465-2.057h0.677l0.779,1.102c0.162,0.229,0.277,0.404,0.346,0.527
			c0.096-0.156,0.209-0.319,0.34-0.489l0.864-1.14h0.618l-1.509,2.024l1.626,2.271h-0.703l-1.081-1.532
			c-0.061-0.088-0.123-0.184-0.188-0.287c-0.096,0.156-0.164,0.264-0.205,0.322l-1.078,1.497H102.944z"/>
		<path fill="#4C4E4F" d="M108.713,44.141v-1.819l-1.655-2.476h0.691l0.847,1.295c0.156,0.242,0.302,0.484,0.437,0.727
			c0.129-0.225,0.285-0.478,0.469-0.759l0.832-1.263h0.662l-1.714,2.476v1.819H108.713z"/>
		<path fill="#4C4E4F" d="M111.282,44.141v-0.527l2.2-2.751c0.156-0.195,0.305-0.365,0.445-0.51h-2.396v-0.507h3.076v0.507
			l-2.411,2.979l-0.261,0.302h2.742v0.507H111.282z"/>
		<path fill="#4C4E4F" d="M8.576,50.958c-0.195,0.166-0.383,0.283-0.564,0.352s-0.375,0.103-0.582,0.103
			c-0.342,0-0.604-0.083-0.788-0.25s-0.275-0.38-0.275-0.64c0-0.152,0.035-0.292,0.104-0.417s0.16-0.227,0.272-0.303
			s0.239-0.134,0.379-0.173c0.104-0.027,0.26-0.054,0.469-0.079c0.426-0.051,0.739-0.111,0.94-0.182
			c0.002-0.072,0.003-0.118,0.003-0.138c0-0.215-0.05-0.366-0.149-0.454c-0.135-0.119-0.335-0.179-0.601-0.179
			c-0.248,0-0.431,0.043-0.549,0.13s-0.206,0.241-0.262,0.461l-0.516-0.07c0.047-0.221,0.124-0.399,0.231-0.535
			s0.263-0.24,0.466-0.313s0.438-0.11,0.706-0.11c0.266,0,0.481,0.031,0.647,0.094s0.288,0.141,0.366,0.236s0.133,0.214,0.164,0.359
			c0.018,0.09,0.026,0.252,0.026,0.486v0.703c0,0.49,0.011,0.8,0.034,0.93s0.067,0.254,0.133,0.374H8.682
			C8.627,51.232,8.592,51.104,8.576,50.958z M8.532,49.78c-0.191,0.078-0.479,0.145-0.861,0.199c-0.217,0.031-0.37,0.066-0.46,0.105
			s-0.159,0.096-0.208,0.171s-0.073,0.159-0.073,0.25c0,0.141,0.053,0.258,0.16,0.352s0.262,0.141,0.467,0.141
			c0.203,0,0.384-0.044,0.542-0.133s0.274-0.21,0.349-0.365c0.057-0.119,0.085-0.295,0.085-0.527V49.78z"/>
		<path fill="#4C4E4F" d="M10.489,51.341H10v-4.295h0.527v1.532c0.223-0.279,0.507-0.419,0.853-0.419
			c0.191,0,0.373,0.039,0.543,0.116s0.312,0.186,0.422,0.325s0.197,0.308,0.259,0.505s0.094,0.408,0.094,0.633
			c0,0.533-0.132,0.945-0.396,1.236s-0.58,0.437-0.949,0.437c-0.367,0-0.655-0.153-0.864-0.46V51.341z M10.483,49.762
			c0,0.373,0.051,0.643,0.152,0.809c0.166,0.271,0.391,0.407,0.674,0.407c0.23,0,0.43-0.1,0.598-0.3s0.252-0.499,0.252-0.895
			c0-0.406-0.081-0.706-0.242-0.899s-0.356-0.29-0.584-0.29c-0.23,0-0.43,0.1-0.598,0.3S10.483,49.383,10.483,49.762z"/>
		<path fill="#4C4E4F" d="M15.49,50.202l0.519,0.067c-0.057,0.357-0.202,0.637-0.435,0.839s-0.52,0.303-0.86,0.303
			c-0.426,0-0.768-0.139-1.027-0.417s-0.388-0.677-0.388-1.197c0-0.336,0.056-0.63,0.167-0.882s0.281-0.441,0.508-0.567
			s0.475-0.189,0.743-0.189c0.338,0,0.614,0.085,0.829,0.256s0.353,0.414,0.413,0.728l-0.513,0.079
			c-0.049-0.209-0.135-0.366-0.259-0.472s-0.274-0.158-0.45-0.158c-0.266,0-0.481,0.095-0.647,0.286s-0.249,0.492-0.249,0.904
			c0,0.418,0.08,0.722,0.24,0.911s0.369,0.284,0.627,0.284c0.207,0,0.38-0.063,0.519-0.19S15.453,50.465,15.49,50.202z"/>
		<path fill="#4C4E4F" d="M18.598,51.341v-0.393c-0.197,0.309-0.487,0.463-0.87,0.463c-0.248,0-0.476-0.068-0.684-0.205
			s-0.369-0.328-0.483-0.573s-0.171-0.527-0.171-0.845c0-0.311,0.052-0.592,0.155-0.845s0.259-0.447,0.466-0.582
			s0.438-0.202,0.694-0.202c0.188,0,0.354,0.04,0.501,0.119s0.266,0.182,0.357,0.309v-1.541h0.524v4.295H18.598z M16.931,49.789
			c0,0.398,0.084,0.696,0.252,0.894s0.366,0.296,0.595,0.296c0.23,0,0.426-0.094,0.587-0.283s0.242-0.476,0.242-0.863
			c0-0.426-0.082-0.738-0.246-0.938s-0.366-0.299-0.606-0.299c-0.234,0-0.43,0.096-0.587,0.287S16.931,49.376,16.931,49.789z"/>
		<path fill="#4C4E4F" d="M22.167,50.339l0.545,0.067c-0.086,0.318-0.245,0.565-0.478,0.741s-0.529,0.264-0.891,0.264
			c-0.455,0-0.816-0.14-1.083-0.42s-0.4-0.673-0.4-1.179c0-0.523,0.135-0.93,0.404-1.219s0.619-0.434,1.049-0.434
			c0.416,0,0.756,0.142,1.02,0.425s0.396,0.682,0.396,1.195c0,0.031-0.001,0.078-0.003,0.141h-2.32
			c0.02,0.342,0.116,0.604,0.29,0.785s0.391,0.272,0.65,0.272c0.193,0,0.358-0.051,0.495-0.152S22.086,50.562,22.167,50.339z
			 M20.435,49.487h1.737c-0.023-0.262-0.09-0.458-0.199-0.589c-0.168-0.203-0.386-0.305-0.653-0.305
			c-0.242,0-0.446,0.081-0.611,0.243S20.453,49.215,20.435,49.487z"/>
		<path fill="#4C4E4F" d="M23.62,51.341V48.64h-0.466v-0.41h0.466v-0.331c0-0.209,0.019-0.364,0.056-0.466
			c0.051-0.137,0.14-0.248,0.268-0.333s0.307-0.127,0.538-0.127c0.148,0,0.312,0.018,0.492,0.053l-0.079,0.46
			c-0.109-0.02-0.213-0.029-0.311-0.029c-0.16,0-0.273,0.034-0.34,0.103s-0.1,0.196-0.1,0.384v0.287h0.606v0.41h-0.606v2.701H23.62z
			"/>
		<path fill="#4C4E4F" d="M25.184,51.599l0.513,0.076c0.021,0.158,0.081,0.273,0.179,0.346c0.131,0.098,0.31,0.146,0.536,0.146
			c0.244,0,0.433-0.049,0.565-0.146s0.223-0.234,0.27-0.41c0.027-0.107,0.04-0.333,0.038-0.677c-0.23,0.271-0.518,0.407-0.861,0.407
			c-0.428,0-0.759-0.154-0.993-0.463s-0.352-0.679-0.352-1.11c0-0.297,0.054-0.571,0.161-0.822s0.263-0.445,0.467-0.582
			s0.444-0.205,0.719-0.205c0.367,0,0.67,0.148,0.908,0.445V48.23h0.486v2.689c0,0.484-0.049,0.828-0.148,1.03
			s-0.255,0.362-0.469,0.479s-0.477,0.176-0.79,0.176c-0.371,0-0.671-0.083-0.899-0.25S25.176,51.935,25.184,51.599z M25.621,49.73
			c0,0.408,0.081,0.706,0.243,0.894s0.365,0.281,0.609,0.281c0.242,0,0.445-0.093,0.609-0.28s0.246-0.479,0.246-0.877
			c0-0.381-0.084-0.668-0.253-0.861s-0.373-0.29-0.611-0.29c-0.234,0-0.434,0.095-0.598,0.286S25.621,49.355,25.621,49.73z"/>
		<path fill="#4C4E4F" d="M28.737,51.341v-4.295h0.527v1.541c0.246-0.285,0.557-0.428,0.932-0.428c0.23,0,0.431,0.045,0.601,0.136
			s0.292,0.216,0.365,0.376s0.11,0.393,0.11,0.697v1.972h-0.527V49.37c0-0.264-0.057-0.456-0.171-0.576s-0.276-0.18-0.485-0.18
			c-0.156,0-0.303,0.041-0.441,0.122s-0.236,0.191-0.294,0.33s-0.088,0.33-0.088,0.574v1.702H28.737z"/>
		<path fill="#4C4E4F" d="M32.197,47.653v-0.606h0.527v0.606H32.197z M32.197,51.341V48.23h0.527v3.111H32.197z"/>
		<path fill="#4C4E4F" d="M32.977,52.548l0.1-0.448c0.105,0.027,0.188,0.041,0.249,0.041c0.107,0,0.188-0.036,0.24-0.107
			s0.079-0.25,0.079-0.535v-3.27h0.527v3.281c0,0.383-0.05,0.649-0.149,0.8c-0.127,0.195-0.338,0.293-0.633,0.293
			C33.247,52.604,33.109,52.585,32.977,52.548z M33.645,47.659v-0.612h0.527v0.612H33.645z"/>
		<path fill="#4C4E4F" d="M35.104,51.341v-4.295h0.527v2.449l1.248-1.266h0.683l-1.189,1.154l1.31,1.957h-0.65l-1.028-1.591
			l-0.372,0.357v1.233H35.104z"/>
		<path fill="#4C4E4F" d="M38.208,51.341v-4.295h0.527v4.295H38.208z"/>
		<path fill="#4C4E4F" d="M39.673,51.341V48.23h0.472v0.437c0.098-0.152,0.228-0.275,0.39-0.368s0.347-0.139,0.554-0.139
			c0.23,0,0.419,0.048,0.567,0.144s0.251,0.229,0.312,0.401c0.246-0.363,0.566-0.545,0.961-0.545c0.309,0,0.546,0.085,0.712,0.256
			s0.249,0.434,0.249,0.79v2.136h-0.524v-1.96c0-0.211-0.017-0.363-0.051-0.456s-0.096-0.167-0.186-0.224s-0.195-0.085-0.316-0.085
			c-0.219,0-0.4,0.073-0.545,0.218s-0.217,0.378-0.217,0.699v1.808h-0.527V49.32c0-0.234-0.043-0.41-0.129-0.527
			s-0.227-0.176-0.422-0.176c-0.148,0-0.286,0.039-0.412,0.117s-0.217,0.192-0.274,0.343s-0.085,0.367-0.085,0.65v1.614H39.673z"/>
		<path fill="#4C4E4F" d="M44.792,51.341V48.23h0.475v0.442c0.229-0.342,0.559-0.513,0.99-0.513c0.188,0,0.36,0.034,0.517,0.101
			s0.275,0.156,0.353,0.265s0.133,0.239,0.164,0.39c0.02,0.098,0.029,0.269,0.029,0.513v1.913h-0.527v-1.893
			c0-0.215-0.021-0.375-0.062-0.482s-0.114-0.191-0.218-0.255s-0.227-0.095-0.368-0.095c-0.225,0-0.418,0.071-0.582,0.214
			s-0.245,0.413-0.245,0.812v1.699H44.792z"/>
		<path fill="#4C4E4F" d="M48.052,49.786c0-0.576,0.16-1.003,0.48-1.28c0.268-0.23,0.594-0.346,0.979-0.346
			c0.428,0,0.777,0.14,1.049,0.42s0.407,0.667,0.407,1.162c0,0.4-0.06,0.715-0.18,0.945s-0.295,0.408-0.524,0.535
			s-0.48,0.19-0.751,0.19c-0.436,0-0.788-0.14-1.056-0.419S48.052,50.311,48.052,49.786z M48.594,49.786
			c0,0.398,0.087,0.697,0.261,0.895s0.393,0.297,0.656,0.297c0.262,0,0.479-0.1,0.653-0.299s0.261-0.503,0.261-0.911
			c0-0.385-0.087-0.676-0.262-0.875s-0.392-0.297-0.652-0.297c-0.264,0-0.482,0.099-0.656,0.296S48.594,49.387,48.594,49.786z"/>
		<path fill="#4C4E4F" d="M51.705,52.534V48.23h0.48v0.404c0.113-0.158,0.241-0.277,0.384-0.356s0.315-0.119,0.519-0.119
			c0.266,0,0.5,0.068,0.703,0.205s0.356,0.33,0.46,0.579s0.155,0.522,0.155,0.819c0,0.318-0.057,0.605-0.171,0.86
			s-0.28,0.45-0.498,0.586s-0.447,0.204-0.687,0.204c-0.176,0-0.333-0.037-0.473-0.111s-0.254-0.168-0.344-0.281v1.515H51.705z
			 M52.183,49.803c0,0.4,0.081,0.696,0.243,0.888s0.358,0.287,0.589,0.287c0.234,0,0.435-0.099,0.602-0.297s0.25-0.505,0.25-0.921
			c0-0.396-0.082-0.693-0.245-0.891s-0.358-0.296-0.584-0.296c-0.225,0-0.423,0.105-0.596,0.315S52.183,49.403,52.183,49.803z"/>
		<path fill="#4C4E4F" d="M57.146,52.534V51.01c-0.082,0.115-0.197,0.211-0.344,0.287s-0.304,0.114-0.47,0.114
			c-0.369,0-0.687-0.147-0.954-0.442s-0.4-0.699-0.4-1.213c0-0.312,0.054-0.593,0.163-0.841s0.266-0.436,0.472-0.564
			s0.432-0.192,0.678-0.192c0.385,0,0.688,0.162,0.908,0.486V48.23h0.475v4.304H57.146z M55.52,49.777
			c0,0.4,0.084,0.701,0.252,0.901s0.369,0.3,0.604,0.3c0.225,0,0.418-0.095,0.58-0.286s0.243-0.48,0.243-0.869
			c0-0.414-0.085-0.726-0.256-0.935s-0.372-0.313-0.602-0.313c-0.229,0-0.422,0.097-0.582,0.292S55.52,49.365,55.52,49.777z"/>
		<path fill="#4C4E4F" d="M58.613,51.341V48.23h0.475v0.472c0.121-0.221,0.233-0.366,0.335-0.437s0.215-0.105,0.338-0.105
			c0.178,0,0.358,0.057,0.542,0.17l-0.182,0.489c-0.129-0.076-0.258-0.114-0.387-0.114c-0.115,0-0.219,0.035-0.311,0.104
			s-0.157,0.166-0.196,0.289c-0.059,0.188-0.088,0.393-0.088,0.615v1.629H58.613z"/>
		<path fill="#4C4E4F" d="M60.526,50.413l0.521-0.082c0.029,0.209,0.11,0.369,0.245,0.48c0.133,0.111,0.32,0.167,0.561,0.167
			c0.242,0,0.422-0.049,0.539-0.148s0.176-0.214,0.176-0.347c0-0.119-0.052-0.213-0.155-0.281c-0.072-0.047-0.252-0.106-0.539-0.179
			c-0.387-0.098-0.655-0.182-0.804-0.253c-0.15-0.071-0.264-0.17-0.34-0.296c-0.078-0.126-0.116-0.265-0.116-0.417
			c0-0.139,0.031-0.267,0.095-0.385s0.15-0.216,0.26-0.294c0.082-0.061,0.193-0.112,0.336-0.154
			c0.141-0.042,0.293-0.063,0.455-0.063c0.244,0,0.459,0.035,0.643,0.105c0.186,0.07,0.321,0.166,0.409,0.286
			s0.148,0.281,0.182,0.482l-0.516,0.07c-0.023-0.16-0.092-0.285-0.204-0.375s-0.271-0.135-0.476-0.135
			c-0.242,0-0.415,0.04-0.519,0.12s-0.155,0.174-0.155,0.281c0,0.068,0.021,0.13,0.064,0.185c0.043,0.057,0.11,0.104,0.202,0.141
			c0.053,0.02,0.208,0.064,0.466,0.135c0.373,0.1,0.633,0.181,0.78,0.245s0.264,0.156,0.348,0.277s0.126,0.271,0.126,0.451
			c0,0.176-0.052,0.341-0.153,0.497c-0.104,0.155-0.251,0.275-0.444,0.36s-0.412,0.127-0.656,0.127
			c-0.404,0-0.713-0.084-0.925-0.252S60.585,50.743,60.526,50.413z"/>
		<path fill="#4C4E4F" d="M65.009,50.87l0.076,0.466c-0.148,0.031-0.281,0.047-0.398,0.047c-0.191,0-0.34-0.03-0.445-0.091
			s-0.18-0.14-0.223-0.239s-0.064-0.306-0.064-0.623v-1.79h-0.387v-0.41h0.387v-0.771l0.524-0.316v1.087h0.53v0.41h-0.53v1.819
			c0,0.15,0.009,0.247,0.028,0.29c0.018,0.043,0.048,0.077,0.09,0.103s0.103,0.038,0.181,0.038
			C64.836,50.89,64.913,50.883,65.009,50.87z"/>
		<path fill="#4C4E4F" d="M67.684,51.341v-0.457c-0.242,0.352-0.571,0.527-0.987,0.527c-0.184,0-0.355-0.035-0.514-0.105
			c-0.16-0.07-0.278-0.159-0.355-0.265s-0.131-0.237-0.162-0.391c-0.021-0.104-0.032-0.268-0.032-0.492V48.23h0.527v1.726
			c0,0.275,0.011,0.461,0.032,0.557c0.033,0.139,0.104,0.248,0.211,0.327s0.24,0.119,0.398,0.119s0.307-0.041,0.445-0.122
			s0.236-0.191,0.295-0.331c0.057-0.14,0.086-0.342,0.086-0.608V48.23h0.527v3.111H67.684z"/>
		<path fill="#4C4E4F" d="M69.965,51.341l-1.184-3.111h0.557l0.668,1.863c0.072,0.201,0.139,0.41,0.199,0.627
			c0.047-0.164,0.112-0.361,0.196-0.592l0.691-1.898h0.542l-1.178,3.111H69.965z"/>
		<path fill="#4C4E4F" d="M72.795,51.341l-0.952-3.111h0.545l0.495,1.796l0.185,0.668c0.008-0.033,0.062-0.247,0.161-0.642
			l0.495-1.822h0.542l0.466,1.805l0.155,0.595l0.179-0.601l0.533-1.799h0.513l-0.973,3.111h-0.548l-0.495-1.863l-0.12-0.53
			l-0.63,2.394H72.795z"/>
		<path fill="#4C4E4F" d="M76.322,51.341l1.137-1.617l-1.052-1.494h0.659l0.478,0.729c0.09,0.139,0.162,0.255,0.217,0.349
			c0.086-0.129,0.165-0.243,0.237-0.343l0.524-0.735h0.63l-1.075,1.465l1.157,1.646h-0.647l-0.639-0.967l-0.17-0.261l-0.817,1.228
			H76.322z"/>
		<path fill="#4C4E4F" d="M79.771,52.54l-0.059-0.495c0.115,0.031,0.216,0.047,0.302,0.047c0.117,0,0.211-0.02,0.281-0.059
			s0.128-0.094,0.173-0.164c0.033-0.053,0.087-0.184,0.161-0.393c0.01-0.029,0.025-0.072,0.047-0.129l-1.181-3.117h0.568
			l0.647,1.802c0.084,0.229,0.159,0.469,0.226,0.721c0.061-0.242,0.133-0.479,0.217-0.709l0.665-1.813h0.527l-1.184,3.164
			c-0.127,0.342-0.226,0.577-0.296,0.706c-0.094,0.174-0.201,0.301-0.322,0.382s-0.266,0.122-0.434,0.122
			C80.009,52.604,79.896,52.583,79.771,52.54z"/>
		<path fill="#4C4E4F" d="M82.636,51.341v-0.428l1.98-2.273c-0.225,0.012-0.423,0.018-0.595,0.018h-1.269V48.23h2.543v0.349
			l-1.685,1.975l-0.325,0.36c0.236-0.018,0.458-0.026,0.665-0.026h1.438v0.454H82.636z"/>
		<path fill="#4C4E4F" d="M6.399,56.423c0-0.508,0.052-0.917,0.157-1.226s0.26-0.548,0.466-0.716s0.465-0.252,0.778-0.252
			c0.23,0,0.433,0.046,0.606,0.139s0.317,0.227,0.431,0.401s0.202,0.388,0.267,0.639S9.2,55.997,9.2,56.423
			c0,0.504-0.052,0.911-0.155,1.22s-0.258,0.549-0.464,0.718S8.114,58.614,7.8,58.614c-0.414,0-0.739-0.148-0.976-0.445
			C6.541,57.812,6.399,57.229,6.399,56.423z M6.941,56.423c0,0.705,0.083,1.174,0.248,1.408s0.369,0.35,0.611,0.35
			s0.446-0.117,0.611-0.352s0.248-0.703,0.248-1.406c0-0.707-0.083-1.177-0.248-1.409s-0.371-0.349-0.617-0.349
			c-0.242,0-0.436,0.103-0.58,0.308C7.032,55.234,6.941,55.718,6.941,56.423z"/>
		<path fill="#4C4E4F" d="M11.843,58.541h-0.527v-3.36c-0.127,0.121-0.293,0.242-0.5,0.363s-0.391,0.212-0.555,0.272v-0.51
			c0.295-0.139,0.553-0.307,0.773-0.504s0.377-0.389,0.469-0.574h0.34V58.541z"/>
		<path fill="#4C4E4F" d="M16.085,58.034v0.507h-2.839c-0.004-0.127,0.017-0.249,0.062-0.366c0.072-0.193,0.188-0.384,0.347-0.571
			s0.389-0.404,0.69-0.65c0.467-0.383,0.782-0.686,0.946-0.91s0.246-0.435,0.246-0.634c0-0.209-0.075-0.385-0.224-0.529
			s-0.344-0.215-0.584-0.215c-0.254,0-0.457,0.076-0.609,0.229s-0.229,0.363-0.231,0.633l-0.542-0.056
			c0.037-0.404,0.177-0.712,0.419-0.924s0.567-0.318,0.976-0.318c0.412,0,0.738,0.114,0.979,0.343s0.36,0.512,0.36,0.85
			c0,0.172-0.035,0.341-0.105,0.507s-0.187,0.341-0.35,0.524s-0.434,0.436-0.813,0.756c-0.316,0.266-0.52,0.446-0.609,0.541
			s-0.164,0.19-0.223,0.286H16.085z"/>
		<path fill="#4C4E4F" d="M16.773,57.407l0.527-0.07c0.061,0.299,0.164,0.514,0.309,0.646s0.323,0.198,0.532,0.198
			c0.248,0,0.458-0.086,0.628-0.258s0.256-0.385,0.256-0.639c0-0.242-0.079-0.442-0.237-0.599s-0.359-0.236-0.604-0.236
			c-0.1,0-0.224,0.02-0.372,0.059l0.059-0.463c0.035,0.004,0.063,0.006,0.085,0.006c0.225,0,0.427-0.059,0.606-0.176
			s0.27-0.298,0.27-0.542c0-0.193-0.065-0.354-0.196-0.48s-0.3-0.19-0.507-0.19c-0.205,0-0.376,0.064-0.513,0.193
			s-0.225,0.322-0.264,0.58l-0.527-0.094c0.064-0.354,0.211-0.627,0.439-0.822s0.513-0.292,0.853-0.292
			c0.234,0,0.45,0.05,0.647,0.151s0.348,0.238,0.453,0.412s0.157,0.358,0.157,0.554c0,0.186-0.05,0.354-0.149,0.507
			s-0.247,0.273-0.442,0.363c0.254,0.059,0.451,0.18,0.592,0.365s0.211,0.416,0.211,0.693c0,0.375-0.137,0.693-0.41,0.954
			s-0.619,0.391-1.037,0.391c-0.377,0-0.69-0.112-0.939-0.337S16.808,57.765,16.773,57.407z"/>
		<path fill="#4C4E4F" d="M21.917,58.541v-1.028h-1.863v-0.483l1.96-2.783h0.431v2.783h0.58v0.483h-0.58v1.028H21.917z
			 M21.917,57.029v-1.937l-1.345,1.937H21.917z"/>
		<path fill="#4C4E4F" d="M23.684,57.416l0.554-0.047c0.041,0.27,0.136,0.472,0.286,0.608s0.33,0.204,0.541,0.204
			c0.254,0,0.469-0.096,0.645-0.287s0.264-0.445,0.264-0.762c0-0.301-0.084-0.538-0.253-0.712s-0.39-0.261-0.664-0.261
			c-0.17,0-0.323,0.039-0.46,0.116s-0.244,0.177-0.322,0.3l-0.495-0.064l0.416-2.206h2.136v0.504h-1.714l-0.231,1.154
			c0.258-0.18,0.528-0.27,0.812-0.27c0.375,0,0.691,0.13,0.949,0.39s0.387,0.594,0.387,1.002c0,0.389-0.113,0.725-0.34,1.008
			c-0.275,0.348-0.651,0.521-1.128,0.521c-0.391,0-0.709-0.109-0.957-0.328S23.719,57.777,23.684,57.416z"/>
		<path fill="#4C4E4F" d="M29.877,55.298l-0.524,0.041c-0.047-0.207-0.113-0.357-0.199-0.451c-0.143-0.15-0.318-0.226-0.527-0.226
			c-0.168,0-0.315,0.047-0.442,0.141c-0.166,0.121-0.297,0.298-0.393,0.53s-0.146,0.563-0.149,0.993
			c0.127-0.193,0.282-0.337,0.466-0.431s0.376-0.141,0.577-0.141c0.352,0,0.651,0.129,0.898,0.388s0.371,0.593,0.371,1.003
			c0,0.27-0.058,0.52-0.174,0.751s-0.276,0.409-0.479,0.532s-0.434,0.185-0.691,0.185c-0.439,0-0.798-0.162-1.075-0.485
			s-0.416-0.856-0.416-1.598c0-0.83,0.153-1.434,0.46-1.811c0.268-0.328,0.628-0.492,1.081-0.492c0.338,0,0.615,0.095,0.831,0.284
			S29.834,54.964,29.877,55.298z M27.724,57.149c0,0.182,0.039,0.355,0.116,0.521s0.185,0.292,0.324,0.379s0.284,0.13,0.437,0.13
			c0.223,0,0.414-0.09,0.574-0.27s0.24-0.424,0.24-0.732c0-0.297-0.079-0.531-0.237-0.702s-0.357-0.256-0.598-0.256
			c-0.238,0-0.44,0.085-0.606,0.256S27.724,56.872,27.724,57.149z"/>
		<path fill="#4C4E4F" d="M30.633,54.809v-0.507h2.78v0.41c-0.273,0.291-0.544,0.678-0.813,1.16s-0.476,0.979-0.623,1.488
			c-0.105,0.359-0.173,0.753-0.202,1.181h-0.542c0.006-0.338,0.072-0.746,0.199-1.225s0.309-0.94,0.546-1.384
			s0.49-0.819,0.757-1.124H30.633z"/>
		<path fill="#4C4E4F" d="M34.866,56.212c-0.219-0.08-0.381-0.194-0.486-0.343s-0.158-0.326-0.158-0.533
			c0-0.312,0.112-0.575,0.337-0.788s0.523-0.319,0.896-0.319c0.375,0,0.677,0.109,0.905,0.327s0.343,0.483,0.343,0.795
			c0,0.199-0.052,0.373-0.157,0.52s-0.263,0.261-0.476,0.341c0.264,0.086,0.464,0.225,0.602,0.416s0.207,0.42,0.207,0.686
			c0,0.367-0.13,0.676-0.39,0.926s-0.602,0.375-1.025,0.375s-0.766-0.125-1.025-0.376s-0.39-0.564-0.39-0.939
			c0-0.279,0.071-0.513,0.212-0.702S34.604,56.28,34.866,56.212z M34.591,57.302c0,0.15,0.036,0.296,0.107,0.437
			s0.177,0.25,0.318,0.327s0.292,0.116,0.454,0.116c0.252,0,0.46-0.081,0.624-0.243s0.246-0.368,0.246-0.618
			c0-0.254-0.084-0.464-0.253-0.63s-0.38-0.249-0.634-0.249c-0.248,0-0.454,0.082-0.617,0.246S34.591,57.056,34.591,57.302z
			 M34.761,55.318c0,0.203,0.065,0.369,0.196,0.498s0.301,0.193,0.51,0.193c0.203,0,0.37-0.064,0.5-0.192s0.195-0.285,0.195-0.47
			c0-0.193-0.067-0.356-0.201-0.488s-0.3-0.198-0.5-0.198c-0.201,0-0.368,0.064-0.501,0.193S34.761,55.139,34.761,55.318z"/>
		<path fill="#4C4E4F" d="M37.591,57.548l0.507-0.047c0.043,0.238,0.125,0.411,0.246,0.519s0.276,0.161,0.466,0.161
			c0.162,0,0.304-0.037,0.426-0.111s0.222-0.173,0.3-0.297s0.144-0.292,0.196-0.502s0.079-0.426,0.079-0.645
			c0-0.023-0.001-0.059-0.003-0.105c-0.105,0.168-0.25,0.304-0.432,0.409s-0.38,0.157-0.593,0.157c-0.355,0-0.656-0.129-0.902-0.387
			s-0.369-0.598-0.369-1.02c0-0.436,0.128-0.786,0.385-1.052s0.579-0.398,0.965-0.398c0.279,0,0.535,0.075,0.766,0.226
			s0.407,0.365,0.527,0.643s0.18,0.681,0.18,1.208c0,0.549-0.06,0.986-0.179,1.311s-0.296,0.573-0.532,0.743
			s-0.511,0.255-0.828,0.255c-0.336,0-0.61-0.093-0.823-0.28S37.634,57.886,37.591,57.548z M39.75,55.652
			c0-0.303-0.081-0.543-0.242-0.721s-0.355-0.267-0.582-0.267c-0.234,0-0.438,0.096-0.612,0.287s-0.261,0.439-0.261,0.744
			c0,0.273,0.083,0.496,0.248,0.667s0.369,0.256,0.611,0.256c0.244,0,0.445-0.085,0.602-0.256S39.75,55.955,39.75,55.652z"/>
	</g>
</g>
<g id="Arial_Regular">
	<g>
		<path fill="#4C4E4F" d="M5.889,22.665l3.849-10.021h1.429l4.102,10.021h-1.511l-1.169-3.035h-4.19l-1.101,3.035H5.889z
			 M8.781,18.549h3.397l-1.046-2.775c-0.319-0.843-0.556-1.536-0.711-2.078c-0.127,0.643-0.308,1.281-0.54,1.914L8.781,18.549z"/>
		<path fill="#4C4E4F" d="M16.437,22.665v-7.26h1.107v1.101c0.283-0.515,0.543-0.854,0.783-1.019s0.502-0.246,0.79-0.246
			c0.415,0,0.836,0.132,1.265,0.396l-0.424,1.142c-0.301-0.178-0.602-0.267-0.902-0.267c-0.269,0-0.51,0.081-0.725,0.243
			s-0.367,0.386-0.458,0.673c-0.137,0.438-0.205,0.916-0.205,1.436v3.801H16.437z"/>
		<path fill="#4C4E4F" d="M21.399,14.058v-1.415h1.23v1.415H21.399z M21.399,22.665v-7.26h1.23v7.26H21.399z"/>
		<path fill="#4C4E4F" d="M29.52,21.769c-0.456,0.387-0.895,0.661-1.316,0.82s-0.874,0.239-1.357,0.239
			c-0.797,0-1.411-0.195-1.839-0.584s-0.643-0.888-0.643-1.494c0-0.355,0.081-0.68,0.243-0.974s0.374-0.53,0.636-0.708
			s0.557-0.312,0.885-0.403c0.242-0.064,0.606-0.125,1.094-0.185c0.994-0.119,1.725-0.26,2.194-0.424
			c0.004-0.168,0.007-0.276,0.007-0.321c0-0.501-0.116-0.854-0.349-1.06c-0.314-0.278-0.782-0.417-1.401-0.417
			c-0.579,0-1.006,0.102-1.282,0.304s-0.479,0.562-0.612,1.077l-1.203-0.164c0.109-0.515,0.29-0.931,0.54-1.248
			s0.613-0.561,1.087-0.731s1.023-0.256,1.647-0.256c0.62,0,1.124,0.073,1.511,0.219s0.672,0.329,0.854,0.55s0.31,0.5,0.383,0.837
			c0.041,0.209,0.062,0.588,0.062,1.135v1.641c0,1.144,0.026,1.867,0.079,2.17s0.156,0.594,0.311,0.872h-1.285
			C29.639,22.409,29.557,22.111,29.52,21.769z M29.417,19.021c-0.447,0.182-1.117,0.337-2.01,0.465
			c-0.506,0.073-0.864,0.155-1.073,0.246s-0.372,0.225-0.485,0.4s-0.171,0.37-0.171,0.584c0,0.328,0.124,0.602,0.373,0.82
			s0.612,0.328,1.09,0.328c0.474,0,0.896-0.104,1.265-0.311s0.64-0.491,0.813-0.851c0.132-0.278,0.198-0.688,0.198-1.23V19.021z"/>
		<path fill="#4C4E4F" d="M32.822,22.665V12.643h1.23v10.021H32.822z"/>
		<path fill="#4C4E4F" d="M40.587,22.665V12.643h4.443c0.893,0,1.572,0.09,2.037,0.27s0.836,0.498,1.114,0.954
			s0.417,0.959,0.417,1.511c0,0.711-0.23,1.31-0.69,1.798s-1.171,0.797-2.133,0.93c0.351,0.168,0.618,0.335,0.8,0.499
			c0.387,0.355,0.754,0.8,1.101,1.333l1.743,2.728h-1.668l-1.326-2.085c-0.387-0.602-0.707-1.062-0.957-1.381
			s-0.475-0.542-0.673-0.67s-0.4-0.216-0.605-0.267c-0.15-0.032-0.396-0.048-0.738-0.048h-1.538v4.45H40.587z M41.913,17.066h2.851
			c0.606,0,1.08-0.062,1.422-0.188s0.602-0.326,0.779-0.602s0.267-0.575,0.267-0.899c0-0.474-0.172-0.864-0.516-1.169
			s-0.888-0.458-1.63-0.458h-3.172V17.066z"/>
		<path fill="#4C4E4F" d="M55.769,20.327l1.271,0.157c-0.201,0.743-0.572,1.319-1.114,1.729s-1.235,0.615-2.078,0.615
			c-1.062,0-1.904-0.327-2.526-0.981s-0.933-1.571-0.933-2.751c0-1.221,0.314-2.169,0.943-2.844s1.445-1.012,2.447-1.012
			c0.971,0,1.764,0.331,2.379,0.991s0.923,1.59,0.923,2.789c0,0.073-0.002,0.182-0.007,0.328h-5.414
			c0.045,0.797,0.271,1.408,0.677,1.832s0.912,0.636,1.518,0.636c0.451,0,0.836-0.119,1.155-0.355S55.582,20.846,55.769,20.327z
			 M51.729,18.337h4.054c-0.055-0.611-0.209-1.069-0.465-1.374c-0.392-0.474-0.9-0.711-1.524-0.711c-0.565,0-1.04,0.189-1.425,0.567
			S51.77,17.704,51.729,18.337z"/>
		<path fill="#4C4E4F" d="M58.64,23.266l1.196,0.178c0.05,0.369,0.189,0.638,0.417,0.807c0.305,0.228,0.723,0.342,1.25,0.342
			c0.57,0,1.01-0.114,1.32-0.342c0.309-0.228,0.52-0.547,0.629-0.957c0.062-0.25,0.094-0.777,0.088-1.579
			c-0.537,0.633-1.207,0.95-2.01,0.95c-0.998,0-1.77-0.36-2.317-1.08s-0.82-1.583-0.82-2.591c0-0.693,0.125-1.332,0.376-1.917
			s0.614-1.038,1.09-1.357c0.476-0.319,1.036-0.479,1.679-0.479c0.855,0,1.562,0.346,2.119,1.039v-0.875h1.135v6.275
			c0,1.13-0.115,1.931-0.346,2.403s-0.596,0.844-1.094,1.118c-0.5,0.273-1.113,0.41-1.842,0.41c-0.865,0-1.566-0.195-2.099-0.584
			S58.622,24.05,58.64,23.266z M59.659,18.905c0,0.953,0.189,1.647,0.568,2.085s0.852,0.656,1.422,0.656
			c0.564,0,1.039-0.218,1.422-0.653s0.574-1.118,0.574-2.047c0-0.889-0.197-1.559-0.592-2.01s-0.869-0.677-1.426-0.677
			c-0.547,0-1.012,0.222-1.395,0.667C59.85,17.37,59.659,18.03,59.659,18.905z"/>
		<path fill="#4C4E4F" d="M71.689,22.665v-1.066c-0.566,0.82-1.334,1.23-2.305,1.23c-0.428,0-0.828-0.082-1.199-0.246
			s-0.646-0.37-0.828-0.619c-0.18-0.249-0.305-0.553-0.379-0.913c-0.049-0.242-0.074-0.625-0.074-1.148v-4.498h1.23v4.026
			c0,0.643,0.025,1.076,0.074,1.299c0.078,0.324,0.242,0.578,0.492,0.762c0.252,0.185,0.561,0.277,0.93,0.277
			s0.717-0.095,1.039-0.284c0.324-0.189,0.553-0.447,0.688-0.772s0.201-0.799,0.201-1.418v-3.89h1.23v7.26H71.689z"/>
		<path fill="#4C4E4F" d="M74.971,22.665V12.643h1.23v10.021H74.971z"/>
		<path fill="#4C4E4F" d="M83.125,21.769c-0.455,0.387-0.895,0.661-1.316,0.82c-0.42,0.16-0.873,0.239-1.355,0.239
			c-0.799,0-1.41-0.195-1.84-0.584c-0.428-0.39-0.643-0.888-0.643-1.494c0-0.355,0.082-0.68,0.242-0.974
			c0.162-0.294,0.375-0.53,0.637-0.708s0.557-0.312,0.885-0.403c0.242-0.064,0.607-0.125,1.094-0.185
			c0.994-0.119,1.725-0.26,2.195-0.424c0.004-0.168,0.006-0.276,0.006-0.321c0-0.501-0.115-0.854-0.348-1.06
			c-0.314-0.278-0.781-0.417-1.402-0.417c-0.578,0-1.006,0.102-1.281,0.304s-0.48,0.562-0.611,1.077l-1.203-0.164
			c0.109-0.515,0.289-0.931,0.539-1.248c0.252-0.317,0.613-0.561,1.088-0.731c0.473-0.171,1.023-0.256,1.646-0.256
			c0.621,0,1.123,0.073,1.512,0.219c0.387,0.146,0.672,0.329,0.854,0.55c0.184,0.221,0.311,0.5,0.383,0.837
			c0.041,0.209,0.062,0.588,0.062,1.135v1.641c0,1.144,0.025,1.867,0.078,2.17s0.156,0.594,0.311,0.872h-1.285
			C83.244,22.409,83.162,22.111,83.125,21.769z M83.023,19.021c-0.447,0.182-1.117,0.337-2.01,0.465
			c-0.506,0.073-0.863,0.155-1.074,0.246c-0.209,0.091-0.371,0.225-0.484,0.4c-0.115,0.175-0.172,0.37-0.172,0.584
			c0,0.328,0.125,0.602,0.373,0.82s0.611,0.328,1.09,0.328c0.475,0,0.896-0.104,1.266-0.311s0.641-0.491,0.812-0.851
			c0.133-0.278,0.199-0.688,0.199-1.23V19.021z"/>
		<path fill="#4C4E4F" d="M86.441,22.665v-7.26h1.107v1.101c0.281-0.515,0.543-0.854,0.781-1.019
			c0.24-0.164,0.504-0.246,0.791-0.246c0.414,0,0.836,0.132,1.264,0.396l-0.424,1.142c-0.301-0.178-0.602-0.267-0.902-0.267
			c-0.268,0-0.51,0.081-0.725,0.243c-0.213,0.162-0.367,0.386-0.457,0.673c-0.137,0.438-0.205,0.916-0.205,1.436v3.801H86.441z"/>
	</g>
</g>
<g id="Group_1_1_">
	<g id="Shape_1">
		<g>
			<rect x="8.752" y="155.718" fill="#171B23" width="20.584" height="28.567"/>
		</g>
	</g>
	<g id="Shape_1_copy">
		<g>
			<rect x="28.714" y="155.718" fill="#222733" width="20.585" height="28.567"/>
		</g>
	</g>
	<g id="Shape_1_copy_2">
		<g>
			<rect x="49.146" y="155.718" fill="#53B9EA" width="20.584" height="28.567"/>
		</g>
	</g>
	<g id="Shape_1_copy_3">
		<g>
			<rect x="69.63" y="155.718" fill="#909595" width="20.585" height="28.567"/>
		</g>
	</g>
	<g id="Shape_1_copy_4">
		<g>
			<rect x="90.215" y="155.718" fill="#A8D93F" width="20.585" height="28.567"/>
		</g>
	</g>
</g>
</svg>
