<?xml version="1.0" encoding="utf-8"?>
<!-- Generator: Adobe Illustrator 15.0.0, SVG Export Plug-In . SVG Version: 6.00 Build 0)  -->
<!DOCTYPE svg PUBLIC "-//W3C//DTD SVG 1.1//EN" "http://www.w3.org/Graphics/SVG/1.1/DTD/svg11.dtd">
<svg version="1.1" id="Layer_1" xmlns="http://www.w3.org/2000/svg" xmlns:xlink="http://www.w3.org/1999/xlink" x="0px" y="0px"
	 width="612px" height="792px" viewBox="0 0 612 792" enable-background="new 0 0 612 792" xml:space="preserve">
<linearGradient id="SVGID_1_" gradientUnits="userSpaceOnUse" x1="298.8354" y1="434.6367" x2="298.8354" y2="103.9785">
	<stop  offset="0" style="stop-color:#D0F0FF"/>
	<stop  offset="0.6319" style="stop-color:#179CFF"/>
</linearGradient>
<circle fill="url(#SVGID_1_)" cx="298.835" cy="371.303" r="164.557"/>
<path opacity="0.4" fill="none" stroke="#102322" stroke-width="0.5" d="M300.306,412.5"/>
<path opacity="0.4" fill="none" stroke="#102322" stroke-width="0.5" d="M300.306,362.167"/>
<g>
	<linearGradient id="SVGID_2_" gradientUnits="userSpaceOnUse" x1="345.0732" y1="453.3916" x2="254.5907" y2="215.381">
		<stop  offset="0" style="stop-color:#DBEDE0"/>
		<stop  offset="1" style="stop-color:#0A132E"/>
	</linearGradient>
	<polygon fill="url(#SVGID_2_)" points="466.539,354.382 466.539,316.884 436.8,295.384 433.539,283.509 410.539,304.134 
		399.539,289.884 388.539,274.217 351.539,262.884 319.509,293.462 303.539,270.884 295.539,278.217 262.539,242.884 
		251.035,251.884 239.345,260.217 226.539,243.884 204.539,252.55 182.539,245.786 171.539,253.907 157.539,275.907 
		141.539,304.001 134.073,354.382 	"/>
	<g>
		<linearGradient id="SVGID_3_" gradientUnits="userSpaceOnUse" x1="363.0039" y1="550.0146" x2="254.5396" y2="264.7038">
			<stop  offset="0" style="stop-color:#00171C"/>
			<stop  offset="1" style="stop-color:#FFFFFF"/>
		</linearGradient>
		<polygon fill="url(#SVGID_3_)" points="257.408,257.384 265.25,245.786 280.539,269.884 303.539,299.161 303.539,286.384 
			317.539,312.884 336.039,324.884 291.539,331.884 324.539,344.384 246.039,351.407 227.539,347.883 248.539,342.051 
			236.539,328.884 276.539,314.384 251.035,291.884 263.039,273.384 264.539,255.884 		"/>
		<linearGradient id="SVGID_4_" gradientUnits="userSpaceOnUse" x1="246.0752" y1="383.2192" x2="187.1378" y2="228.1867">
			<stop  offset="0" style="stop-color:#00171C"/>
			<stop  offset="1" style="stop-color:#FFFFFF"/>
		</linearGradient>
		<polygon fill="url(#SVGID_4_)" points="182.539,245.786 195.539,248.884 203.039,259.384 210.039,253.884 214.539,272.384 
			233.324,295.384 205.039,278.384 182.539,270.384 189.539,262.795 		"/>
		<linearGradient id="SVGID_5_" gradientUnits="userSpaceOnUse" x1="442.0137" y1="438.3096" x2="356.8473" y2="271.1749">
			<stop  offset="0" style="stop-color:#00171C"/>
			<stop  offset="1" style="stop-color:#FFFFFF"/>
		</linearGradient>
		<polygon fill="url(#SVGID_5_)" points="349.791,264.553 359.539,278.384 375.039,288.384 368.039,306.335 381.039,299.161 
			359.039,347.884 402.039,314.384 408.539,306.335 410.539,304.134 388.539,274.217 351.539,262.884 		"/>
	</g>
</g>
<linearGradient id="SVGID_6_" gradientUnits="userSpaceOnUse" x1="301.0005" y1="496.459" x2="301.0005" y2="252.4083">
	<stop  offset="0" style="stop-color:#006AA2"/>
	<stop  offset="0.2856" style="stop-color:#0691B5"/>
	<stop  offset="0.9221" style="stop-color:#15F3E4"/>
	<stop  offset="1" style="stop-color:#17FFEA"/>
</linearGradient>
<polygon fill="url(#SVGID_6_)" points="139,439 214.902,533.859 382.626,528 458,443.085 475,352.31 127,352.31 "/>
<g>
	<path fill="#FBD372" d="M241.807,412.468v0.032h-0.001C241.806,412.49,241.807,412.479,241.807,412.468z"/>
</g>
<path opacity="0.5" fill="#666564" d="M235.785,392.467"/>
<path opacity="0.5" fill="#666564" d="M259.869,389.967"/>
<g opacity="0.3">
	
		<linearGradient id="SVGID_7_" gradientUnits="userSpaceOnUse" x1="346.0439" y1="346.5156" x2="250.5525" y2="95.3293" gradientTransform="matrix(1 0 0 -1 0 597.2637)">
		<stop  offset="0" style="stop-color:#DBEDE0"/>
		<stop  offset="1" style="stop-color:#0A132E"/>
	</linearGradient>
	<polygon fill="url(#SVGID_7_)" points="466.539,352.31 466.539,389.809 436.8,411.309 433.539,423.184 410.539,402.559 
		399.539,416.809 388.539,432.477 351.539,443.809 319.509,413.23 303.539,435.809 295.539,428.477 262.539,463.809 
		251.035,454.809 239.345,446.477 226.539,462.809 204.539,454.143 182.539,460.906 151,460.906 138.5,431.5 127,389.967 
		134.073,352.31 	"/>
	<g>
		
			<linearGradient id="SVGID_8_" gradientUnits="userSpaceOnUse" x1="363.0029" y1="440.5859" x2="254.5386" y2="155.2751" gradientTransform="matrix(1 0 0 -1 0 597.2637)">
			<stop  offset="0" style="stop-color:#00171C"/>
			<stop  offset="1" style="stop-color:#FFFFFF"/>
		</linearGradient>
		<polygon fill="url(#SVGID_8_)" points="257.408,449.309 265.25,460.906 280.539,436.809 303.539,407.531 303.539,420.309 
			317.539,393.809 336.039,381.809 291.539,374.809 324.539,362.309 246.039,355.286 227.539,358.81 248.539,364.642 
			236.539,377.809 276.539,392.309 251.035,414.809 263.039,433.309 264.539,450.809 		"/>
		
			<linearGradient id="SVGID_9_" gradientUnits="userSpaceOnUse" x1="246.0747" y1="273.79" x2="187.1373" y2="118.7575" gradientTransform="matrix(1 0 0 -1 0 597.2637)">
			<stop  offset="0" style="stop-color:#00171C"/>
			<stop  offset="1" style="stop-color:#FFFFFF"/>
		</linearGradient>
		<polygon fill="url(#SVGID_9_)" points="182.539,460.906 195.539,457.809 203.039,447.309 210.039,452.809 214.539,434.309 
			233.324,411.309 205.039,428.309 182.539,436.309 189.539,443.898 		"/>
		
			<linearGradient id="SVGID_10_" gradientUnits="userSpaceOnUse" x1="442.0137" y1="328.8809" x2="356.8473" y2="161.7462" gradientTransform="matrix(1 0 0 -1 0 597.2637)">
			<stop  offset="0" style="stop-color:#00171C"/>
			<stop  offset="1" style="stop-color:#FFFFFF"/>
		</linearGradient>
		<polygon fill="url(#SVGID_10_)" points="349.791,442.141 359.539,428.309 375.039,418.309 368.039,400.357 381.039,407.531 
			359.039,358.809 402.039,392.309 408.539,400.357 410.539,402.559 388.539,432.477 351.539,443.809 		"/>
	</g>
</g>
<linearGradient id="SVGID_11_" gradientUnits="userSpaceOnUse" x1="418.4277" y1="422.999" x2="388.8631" y2="345.2305" gradientTransform="matrix(1 0 0 -1 0 733.9668)">
	<stop  offset="0" style="stop-color:#00331C"/>
	<stop  offset="1" style="stop-color:#205C00"/>
</linearGradient>
<polygon opacity="0.5" fill="url(#SVGID_11_)" points="469,390.442 413,379.442 387,372.275 352.252,363.139 322,352.108 
	369,347.442 413,344.476 469,344.476 "/>
<linearGradient id="SVGID_12_" gradientUnits="userSpaceOnUse" x1="298.8354" y1="506.9131" x2="298.8354" y2="364.6896">
	<stop  offset="0" style="stop-color:#FFD94A"/>
	<stop  offset="0.6319" style="stop-color:#E76400"/>
</linearGradient>
<path fill="url(#SVGID_12_)" d="M298.847,402.459l-0.005-0.019c0,0-0.006,0.006-0.007,0.007c-0.001-0.001-0.007-0.007-0.007-0.007
	l-0.005,0.019c-0.8,0.791-52,61.56-74.554,117.385l35.6,16.018L296.333,544l43.333-8.139l33.734-16.018
	C350.849,464.019,299.647,403.25,298.847,402.459z"/>
<linearGradient id="SVGID_13_" gradientUnits="userSpaceOnUse" x1="418.4268" y1="393.4521" x2="388.8622" y2="315.6837">
	<stop  offset="0" style="stop-color:#00331C"/>
	<stop  offset="1" style="stop-color:#205C00"/>
</linearGradient>
<polygon fill="url(#SVGID_13_)" points="469,313.977 413,324.977 387,332.144 352.252,341.28 322,352.31 369,356.977 413,359.943 
	469,359.943 "/>
<linearGradient id="SVGID_14_" gradientUnits="userSpaceOnUse" x1="298.8354" y1="531.6885" x2="298.8354" y2="464.9822">
	<stop  offset="0" style="stop-color:#A27E00"/>
	<stop  offset="0.6319" style="stop-color:#1F0100"/>
</linearGradient>
<path fill="url(#SVGID_14_)" d="M338.147,539.363c-0.438-13.215-18.043-23.851-39.312-23.911
	c-21.27,0.061-38.875,10.696-39.312,23.911l-0.021,0.004l-6.006,4.009l35.049,6.006c3.287,0.563,6.736,2.875,10.29,2.886
	c3.554-0.011,7.002-2.322,10.29-2.886l35.049-6.002l-6.006-4.013L338.147,539.363z"/>
<linearGradient id="SVGID_15_" gradientUnits="userSpaceOnUse" x1="177.6602" y1="336.126" x2="38.7276" y2="252.7801">
	<stop  offset="0" style="stop-color:#00331C"/>
	<stop  offset="1" style="stop-color:#205C00"/>
</linearGradient>
<polygon fill="url(#SVGID_15_)" points="156.333,281 167,305.382 179,320.333 215.667,352.31 134.073,352.31 134.073,329 "/>
<linearGradient id="SVGID_16_" gradientUnits="userSpaceOnUse" x1="173.1216" y1="252.0039" x2="-1.4052" y2="147.3049" gradientTransform="matrix(1 0 0 -1 0 633.3105)">
	<stop  offset="0" style="stop-color:#00331C"/>
	<stop  offset="1" style="stop-color:#205C00"/>
</linearGradient>
<polygon opacity="0.4" fill="url(#SVGID_16_)" points="146,450 167,399.238 179,384.287 215.667,352.31 134.073,352.31 127,376 "/>
<path fill="#F4F3F2" d="M298.835,535.861c-90.882,0-164.557-73.676-164.557-164.559c0-90.882,73.675-164.557,164.557-164.557
	c90.883,0,164.558,73.675,164.558,164.557C463.393,462.186,389.718,535.861,298.835,535.861z M298.835,188.393
	c-101.019,0-182.911,81.893-182.911,182.911s81.893,182.911,182.911,182.911c101.02,0,182.912-81.893,182.912-182.911
	S399.854,188.393,298.835,188.393z"/>
</svg>
