<?xml version="1.0" encoding="UTF-8"?>
<svg width="342px" height="146px" viewBox="0 0 342 146" version="1.1" xmlns="http://www.w3.org/2000/svg" xmlns:xlink="http://www.w3.org/1999/xlink">
    <!-- Generator: Sketch 54.1 (76490) - https://sketchapp.com -->
    <title>office space copy</title>
    <desc>Created with Sketch.</desc>
    <g id="office-space-copy" stroke="none" stroke-width="1" fill="none" fill-rule="evenodd">
        <rect fill="#FFFFFF" x="0" y="0" width="342" height="146"></rect>
        <g id="Group-Copy-2" transform="translate(171.000000, 15.000000)" fill="#4C4E4F" font-family="AvenirNextCondensed-Regular, Avenir Next Condensed" font-style="condensed" font-weight="normal">
            <text id="Avenir-Next-Condense" font-size="13">
                <tspan x="0" y="13">Avenir Next Condensed Regular</tspan>
            </text>
            <text id="ABCDEFGHIJKLMNOPQRST" font-size="8">
                <tspan x="0" y="33">ABCDEFGHIJKLMNOPQRSTUVWXYZ</tspan>
                <tspan x="0" y="44">abcdefghijklmnopqrstuvwxyz</tspan>
                <tspan x="0" y="55">0123456789</tspan>
            </text>
        </g>
        <g id="Group-2" transform="translate(12.000000, 100.000000)" fill-rule="nonzero">
            <rect id="Rectangle-path" fill="#303842" x="0" y="0" width="63" height="31"></rect>
            <polygon id="Rectangle-path" fill="#1885CF" points="61 0 124 0 124 31 61 31"></polygon>
            <polygon id="Rectangle-path" fill="#6DD5C4" points="124 0 189 0 189 31 124 31"></polygon>
            <polygon id="Rectangle-path" fill="#EEEEEE" points="188 0 251 0 251 31 188 31"></polygon>
            <polygon id="Rectangle-path" fill="#DC7B55" points="250 0 315 0 315 31 250 31"></polygon>
        </g>
        <g id="Group-Copy-2" transform="translate(12.000000, 15.000000)" fill="#4C4E4F" font-family="Avenir-Medium, Avenir" font-weight="400">
            <text id="Avenir-Medium" font-size="13">
                <tspan x="0" y="13">Avenir Medium</tspan>
            </text>
            <text id="ABCDEFGHIJKLMNOPQRST" font-size="8">
                <tspan x="1.5" y="31">ABCDEFGHIJKLMNOPQRSTUVWXYZ</tspan>
                <tspan x="1.5" y="42">abcdefghijklmnopqrstuvwxyz</tspan>
                <tspan x="1.5" y="53">0123456789</tspan>
            </text>
        </g>
    </g>
</svg>