<?xml version="1.0" encoding="utf-8"?>
<!-- Generator: Adobe Illustrator 25.0.1, SVG Export Plug-In . SVG Version: 6.00 Build 0)  -->
<svg version="1.1" id="Layer_1" xmlns="http://www.w3.org/2000/svg" xmlns:xlink="http://www.w3.org/1999/xlink" x="0px" y="0px"
	 viewBox="0 0 268 268" style="enable-background:new 0 0 268 268;" xml:space="preserve">
<style type="text/css">
	.st0{fill:#B2D8B8;}
	.st1{fill:#FFDBCD;}
	.st2{fill:#2B783B;}
	.st3{fill:#493126;}
	.st4{fill:#38251E;}
	.st5{fill:#EFBEAF;}
	.st6{fill:#FE854F;}
	.st7{fill:#665046;}
	.st8{fill:#FFFFFF;}
	.st9{fill:#332B27;}
	.st10{opacity:0.5;fill:#F7B1A4;}
</style>
<circle class="st0" cx="134" cy="134" r="134"/>
<circle class="st0" cx="134" cy="134" r="134"/>
<ellipse transform="matrix(0.8969 -0.4423 0.4423 0.8969 -65.9855 39.4226)" class="st1" cx="51.54" cy="161.19" rx="15.72" ry="20.96"/>
<path class="st2" d="M146.77,229.8c-0.01,0.11-0.01,0.22-0.02,0.33c-0.67,8.02-5.61,14.23-11.76,14.79
	c-0.6,0.06-1.21,0.08-1.83,0.08s-1.23-0.03-1.83-0.08c-6.15-0.56-11.08-6.77-11.76-14.79c-0.01-0.08-0.01-0.16-0.02-0.25
	c-20.95,2.69-38.39,11.32-47.57,22.92C90.53,262.51,111.62,268,134,268c22.1,0,42.94-5.35,61.31-14.82
	C186.12,241.26,168.25,232.42,146.77,229.8z"/>
<path class="st3" d="M220.65,120.5c-7.34-48.76-38.82-82.46-86.65-83.45c-47.83,1-79.32,34.69-86.65,83.45
	c-0.86,5.71-6.83,61.39-5.64,66.83c0.22,0.99,3.64,27.53,4.29,26.34c3.82-6.93,11-71.62,14-68.67c15.81,15.61,39.47,59.58,74,59.02
	c33.44,0.54,54.57-41.65,71-55.02c3.11-2.53,7.69,72.44,13,83.67c2.03,4.29,7.83-43.19,8.29-45.34
	C227.48,181.89,221.51,126.21,220.65,120.5z"/>
<path class="st4" d="M47.24,177l4.65,62.87c6.28,4.88,13,9.22,20.1,12.94c9.18-11.6,26.62-20.23,47.57-22.92
	c0.01,0.08,0.01,0.16,0.02,0.25c0.67,8.02,5.61,14.23,11.76,14.79c0.6,0.06,1.21,0.08,1.83,0.08s1.23-0.03,1.83-0.08
	c6.15-0.56,11.08-6.77,11.76-14.79c0.01-0.11,0.02-0.22,0.02-0.33c21.48,2.62,39.35,11.46,48.55,23.38
	c7.95-4.1,15.42-8.97,22.34-14.51l3.35-67.67L47.24,177z"/>
<path class="st5" d="M130.83,245.92c0.88,0.06,1.77,0.08,2.67,0.08s1.79-0.03,2.67-0.08c8.98-0.56,16.18-6.77,17.16-14.79
	c0.01-0.11,0.02-0.22,0.04-0.33c0.41-3.46,0.63-7.08,0.63-10.81c0-8.19-1.05-15.86-2.87-22.43c-2.01-7.25-9.16-12.53-17.49-12.56
	c-0.05,0-0.1,0-0.15,0s-0.1,0-0.15,0c-8.33,0.03-15.48,5.31-17.49,12.56c-1.82,6.57-2.87,14.23-2.87,22.43
	c0,3.76,0.22,7.41,0.64,10.9c0.01,0.08,0.02,0.16,0.03,0.25C114.65,239.15,121.85,245.36,130.83,245.92z"/>
<path class="st1" d="M57.51,164.67c0,34.15,33.58,61.83,75,61.83s75-27.68,75-61.83c0-30.41,2.08-72.79-52.31-73.17
	c-5.5-0.04-11.57,0.25-18.28,0.9c-2.93,0.28-5.88,0.28-8.81,0C54.99,85.31,57.51,131.19,57.51,164.67z"/>
<ellipse class="st6" cx="133.5" cy="181" rx="10.5" ry="4"/>
<path class="st7" d="M133.5,203.6c-7.55,0-15.1-2.99-22.33-8.98c-0.65-0.53-0.71-1.51-0.16-2.14l0,0c0.54-0.61,1.47-0.67,2.1-0.15
	c13.19,10.89,27.58,10.89,40.77,0c0.63-0.52,1.56-0.46,2.1,0.15l0,0c0.55,0.63,0.49,1.6-0.16,2.14
	C148.6,200.6,141.05,203.6,133.5,203.6z"/>
<ellipse class="st8" cx="98.5" cy="162.25" rx="17" ry="19.25"/>
<ellipse class="st8" cx="169.5" cy="162.25" rx="17" ry="19.25"/>
<path class="st3" d="M215.19,97.71l-0.33-0.16l5.14,41.45l-0.26,6.23c0,0-6.47-15.12-14.75-31.4v35.46l1.36,4.65l9.12,86.43
	c1.03-0.79,2.06-1.6,3.07-2.42l6.29-41.33c0.97-6.36,1.06-12.83,0.26-19.22L215.19,97.71z"/>
<g id="brows">
	<path class="st7" d="M97.82,130.86c5.68,0,11.35,2.25,16.78,6.75c0.49,0.4,0.53,1.13,0.12,1.61l0,0c-0.41,0.46-1.1,0.5-1.58,0.11
		c-9.92-8.19-20.73-8.19-30.64,0c-0.47,0.39-1.17,0.35-1.58-0.11l0,0c-0.42-0.47-0.37-1.21,0.12-1.61
		C86.47,133.11,92.15,130.86,97.82,130.86z"/>
	<path class="st7" d="M168.82,130.86c5.68,0,11.35,2.25,16.78,6.75c0.49,0.4,0.53,1.13,0.12,1.61l0,0c-0.41,0.46-1.1,0.5-1.58,0.11
		c-9.92-8.19-20.73-8.19-30.64,0c-0.47,0.39-1.17,0.35-1.58-0.11l0,0c-0.42-0.47-0.37-1.21,0.12-1.61
		C157.47,133.11,163.15,130.86,168.82,130.86z"/>
</g>
<path class="st3" d="M171,81.35c4.24-20.4,21.26,7.41,34,32.48V92.6l9.87,4.95l-0.09-0.75L168.5,66.29H116L52.81,98.01L42.77,178.8
	c-0.7,5.66-0.63,11.39,0.23,17.03l6.4,42.09c1.25,1.02,2.52,2.02,3.81,2.99l7.43-86.67C60.64,154.24,164,115,171,81.35z"/>
<ellipse transform="matrix(0.4423 -0.8969 0.8969 0.4423 -23.2548 284.9902)" class="st1" cx="217.54" cy="161.19" rx="20.96" ry="15.72"/>
<g id="eyes">
	<path class="st9" d="M175.5,145.83c-2.42,0-4.64,1.29-6.42,3.44c0.14-0.01,0.28-0.05,0.42-0.05c2.49,0,4.5,2.28,4.5,5.1
		s-2.01,5.1-4.5,5.1c-1.68,0-3.13-1.05-3.9-2.6c-0.38,1.7-0.6,3.52-0.6,5.43c0,9.07,4.7,16.42,10.5,16.42s10.5-7.35,10.5-16.42
		C186,153.18,181.3,145.83,175.5,145.83z"/>
	<path class="st9" d="M104.5,145.83c-2.42,0-4.64,1.29-6.42,3.44c0.14-0.01,0.28-0.05,0.42-0.05c2.49,0,4.5,2.28,4.5,5.1
		s-2.01,5.1-4.5,5.1c-1.68,0-3.13-1.05-3.9-2.6c-0.38,1.7-0.6,3.52-0.6,5.43c0,5.15,1.51,9.74,3.88,12.75
		c0.78,0.99,12.21,1.3,13.23,0c2.37-3.01,3.88-7.6,3.88-12.75C115,153.18,110.3,145.83,104.5,145.83z"/>
</g>
<path class="st7" d="M98.5,183c-10.2,0-18.5-9.31-18.5-20.75s8.3-20.75,18.5-20.75s18.5,9.31,18.5,20.75S108.7,183,98.5,183z
	 M98.5,144.5c-8.55,0-15.5,7.96-15.5,17.75S89.95,180,98.5,180s15.5-7.96,15.5-17.75S107.05,144.5,98.5,144.5z"/>
<path class="st7" d="M169.5,183c-10.2,0-18.5-9.31-18.5-20.75s8.3-20.75,18.5-20.75s18.5,9.31,18.5,20.75S179.7,183,169.5,183z
	 M169.5,144.5c-8.55,0-15.5,7.96-15.5,17.75S160.95,180,169.5,180s15.5-7.96,15.5-17.75S178.05,144.5,169.5,144.5z"/>
<rect x="83" y="175" class="st1" width="32" height="13"/>
<rect x="154" y="175" class="st1" width="32" height="13"/>
<g>
	<ellipse class="st10" cx="96" cy="184.67" rx="15" ry="8"/>
	<ellipse class="st10" cx="172" cy="184.67" rx="15" ry="8"/>
</g>
</svg>
