<?xml version="1.0" encoding="utf-8"?>
<!-- Generator: Adobe Illustrator 22.1.0, SVG Export Plug-In . SVG Version: 6.00 Build 0)  -->
<svg version="1.1" id="Layer_1" xmlns="http://www.w3.org/2000/svg" xmlns:xlink="http://www.w3.org/1999/xlink" x="0px" y="0px"
	 viewBox="0 0 219.7 269.9" style="enable-background:new 0 0 219.7 269.9;" xml:space="preserve">
<style type="text/css">
	.st0{enable-background:new    ;}
	.st1{display:none;}
	.st2{display:inline;}
	.st3{fill:#242424;}
	.st4{fill:#B53C46;}
	.st5{fill:#F74F5C;}
	.st6{fill:#2AAEE4;}
	.st7{fill:#84CAEA;}
	.st8{fill:#EF9F17;}
	.st9{fill:#F7C884;}
	.st10{fill:#A658B7;}
	.st11{fill:#D3A5DB;}
	.st12{fill:#5ABA50;}
	.st13{fill:#CEEF67;}
	.st14{fill:#EFB941;}
	.st15{fill:none;}
	.st16{fill:#227748;}
	.st17{fill:#044C27;}
</style>
<g id="Rectangle_1_1_" class="st0">
</g>
<g id="Rectangle_5" class="st1">
	<g class="st2">
		<polygon class="st3" points="216,266.4 215.1,267.9 218.8,269.9 219.7,268.5 		"/>
	</g>
</g>
<g>
	<g>
		<g>
			<rect x="27.5" y="85.4" class="st4" width="32.9" height="168"/>
			<polygon class="st4" points="55.2,86.4 32.7,86.4 40.1,55.8 47.8,55.8 			"/>
		</g>
		<rect x="27.5" y="95.1" class="st5" width="32.9" height="168"/>
		<rect x="27.5" y="98.6" class="st4" width="32.9" height="5.6"/>
	</g>
	<g>
		<g>
			<rect x="60.4" y="85.4" class="st6" width="32.9" height="168"/>
			<polygon class="st6" points="88.2,86.4 65.7,86.4 73.1,55.8 80.8,55.8 			"/>
		</g>
		<rect x="60.4" y="95.1" class="st7" width="32.9" height="168"/>
		<rect x="60.4" y="98.6" class="st6" width="32.9" height="5.6"/>
	</g>
	<g>
		<g>
			<rect x="93.4" y="85.4" class="st8" width="32.9" height="168"/>
			<polygon class="st8" points="121.1,86.4 98.6,86.4 106,55.8 113.7,55.8 			"/>
		</g>
		<rect x="93.4" y="95.1" class="st9" width="32.9" height="168"/>
		<rect x="93.4" y="98.6" class="st8" width="32.9" height="5.6"/>
	</g>
	<g>
		<g>
			<rect x="159.3" y="85.4" class="st10" width="32.9" height="168"/>
			<polygon class="st10" points="187,86.4 164.5,86.4 171.9,55.8 179.6,55.8 			"/>
		</g>
		<rect x="159.3" y="95.1" class="st11" width="32.9" height="168"/>
		<rect x="159.3" y="98.6" class="st10" width="32.9" height="5.6"/>
	</g>
	<g>
		<g>
			<rect x="126.3" y="36.4" class="st12" width="32.9" height="168"/>
			<polygon class="st12" points="154,37.4 131.5,37.4 138.9,6.8 146.7,6.8 			"/>
		</g>
		<rect x="126.3" y="46.1" class="st13" width="32.9" height="168"/>
		<rect x="126.3" y="49.6" class="st12" width="32.9" height="5.6"/>
	</g>
	<rect x="27.5" y="119.7" class="st14" width="164.7" height="143.4"/>
	<line class="st15" x1="98.6" y1="263.1" x2="27.5" y2="263.1"/>
	<polygon class="st16" points="27.5,172.6 27.5,263.1 92.4,263.1 	"/>
	<polygon class="st16" points="103.1,263.1 27.5,157.5 27.5,164.1 98.4,263.1 	"/>
	<polygon class="st16" points="116.6,263.1 192.2,157.5 192.2,164.1 121.3,263.1 	"/>
	<polygon class="st16" points="192.2,172.6 192.2,263.1 127.3,263.1 	"/>
	<polygon class="st17" points="27.5,199.9 27.5,263.1 72.8,263.1 	"/>
	<polygon class="st17" points="192.2,199.9 146.9,263.1 192.2,263.1 	"/>
	
		<rect x="18.5" y="96.4" transform="matrix(0.7071 -0.7071 0.7071 0.7071 -73.6526 46.7979)" class="st14" width="2.3" height="31.9"/>
	
		<rect x="184.1" y="111.2" transform="matrix(0.7071 -0.7071 0.7071 0.7071 -20.8228 174.3474)" class="st14" width="31.9" height="2.3"/>
</g>
</svg>
