<?xml version="1.0" encoding="utf-8"?>
<!-- Generator: Adobe Illustrator 22.1.0, SVG Export Plug-In . SVG Version: 6.00 Build 0)  -->
<svg version="1.1" xmlns="http://www.w3.org/2000/svg" xmlns:xlink="http://www.w3.org/1999/xlink" x="0px" y="0px"
	 viewBox="0 0 355.373 382.106" enable-background="new 0 0 355.373 382.106" xml:space="preserve">
<g id="Rectangle_1_1_" enable-background="new    ">
</g>
<g id="Group_1_1_">
	<g id="Rectangle_5" display="none">
		<g display="inline">
			<polygon fill="#242424" points="335.732,367.58 334.84,369.064 338.546,371.118 339.437,369.635 			"/>
		</g>
	</g>
	<g>
		<g>
			<g>
				<rect x="94.09" y="125.01" fill="#B53C46" width="32.937" height="181.156"/>
				<polygon fill="#B53C46" points="121.813,126.037 99.304,126.037 106.699,93.097 114.418,93.097 				"/>
			</g>
			<rect x="94.09" y="135.436" fill="#F74F5C" width="32.937" height="181.156"/>
			<rect x="94.09" y="139.253" fill="#B53C46" width="32.937" height="6.058"/>
		</g>
		<g>
			<g>
				<rect x="127.027" y="125.01" fill="#2AAEE4" width="32.937" height="181.156"/>
				<polygon fill="#2AAEE4" points="154.75,126.037 132.242,126.037 139.636,93.097 147.355,93.097 				"/>
			</g>
			<rect x="127.027" y="135.436" fill="#84CAEA" width="32.937" height="181.156"/>
			<rect x="127.027" y="139.253" fill="#2AAEE4" width="32.937" height="6.058"/>
		</g>
		<g>
			<g>
				<rect x="159.965" y="125.01" fill="#EF9F17" width="32.937" height="181.156"/>
				<polygon fill="#EF9F17" points="187.687,126.037 165.179,126.037 172.574,93.097 180.293,93.097 				"/>
			</g>
			<rect x="159.965" y="135.436" fill="#F7C884" width="32.937" height="181.156"/>
			<rect x="159.965" y="139.253" fill="#EF9F17" width="32.937" height="6.058"/>
		</g>
		<g>
			<g>
				<rect x="225.839" y="125.01" fill="#A658B7" width="32.937" height="181.156"/>
				<polygon fill="#A658B7" points="253.562,126.037 231.054,126.037 238.449,93.097 246.167,93.097 				"/>
			</g>
			<rect x="225.839" y="135.436" fill="#D3A5DB" width="32.937" height="181.156"/>
			<rect x="225.839" y="139.253" fill="#A658B7" width="32.937" height="6.058"/>
		</g>
		<g>
			<g>
				<rect x="192.902" y="72.189" fill="#5ABA50" width="32.937" height="181.156"/>
				<polygon fill="#5ABA50" points="220.625,73.216 198.116,73.216 205.511,40.277 213.23,40.277 				"/>
			</g>
			<rect x="192.902" y="82.615" fill="#CEEF67" width="32.937" height="181.156"/>
			<rect x="192.902" y="86.433" fill="#5ABA50" width="32.937" height="6.058"/>
		</g>
		<rect x="94.09" y="151.905" fill="#EFB941" width="164.687" height="164.687"/>
		<line fill="#5ABA50" x1="165.179" y1="316.592" x2="94.09" y2="316.592"/>
		<polygon fill="#227748" points="94.09,226.014 94.09,316.592 158.956,316.592 		"/>
		<polygon fill="#227748" points="169.719,316.592 94.09,210.985 94.09,217.557 165.013,316.592 		"/>
		<polygon fill="#227748" points="183.147,316.592 258.777,210.985 258.777,217.557 187.854,316.592 		"/>
		<polygon fill="#227748" points="258.777,226.014 258.777,316.592 193.91,316.592 		"/>
		<polygon fill="#044C27" points="94.09,253.345 94.09,316.592 139.383,316.592 		"/>
		<polygon fill="#044C27" points="258.777,253.345 213.483,316.592 258.777,316.592 		"/>
		
			<rect x="85.106" y="129.834" transform="matrix(0.7071 -0.7071 0.7071 0.7071 -77.8127 103.6781)" fill="#EFB941" width="2.276" height="31.866"/>
		
			<rect x="265.484" y="129.834" transform="matrix(-0.7071 -0.7071 0.7071 -0.7071 352.0796 437.3706)" fill="#EFB941" width="2.276" height="31.866"/>
	</g>
</g>
</svg>
