<?xml version="1.0" encoding="utf-8"?>
<!-- Generator: Adobe Illustrator 15.0.0, SVG Export Plug-In . SVG Version: 6.00 Build 0)  -->
<!DOCTYPE svg PUBLIC "-//W3C//DTD SVG 1.1//EN" "http://www.w3.org/Graphics/SVG/1.1/DTD/svg11.dtd">
<svg version="1.1" xmlns="http://www.w3.org/2000/svg" xmlns:xlink="http://www.w3.org/1999/xlink" x="0px" y="0px" width="120px"
	 height="108px" viewBox="0 0 120 108" enable-background="new 0 0 120 108" xml:space="preserve">
<g id="Layer_0_xA0_Image_1_">
	
		<image overflow="visible" width="500" height="450" id="Layer_0_xA0_Image" xlink:href="93E9D880.png"  transform="matrix(0.24 0 0 0.24 0 0)">
	</image>
</g>
<g id="ABCDEFGHIJKLMNOPQRSTUVWXYZ_abcdefghijklmnopqrstuvwxyz_012345678_1_">
	<g>
		<path fill="#4C4E4F" d="M8.977,45.822H7.309L6.93,46.86h-0.66l1.494-3.96h0.768l1.494,3.96H9.349L8.977,45.822z M8.784,45.3
			l-0.456-1.272l-0.18-0.57H8.13l-0.168,0.558L7.495,45.3H8.784z"/>
		<path fill="#4C4E4F" d="M10.848,42.9h1.56c0.464,0,0.809,0.094,1.035,0.282c0.226,0.188,0.339,0.456,0.339,0.804
			c0,0.216-0.062,0.404-0.186,0.564c-0.124,0.16-0.298,0.26-0.522,0.3v0.006c0.248,0.04,0.445,0.144,0.591,0.312
			s0.219,0.366,0.219,0.594c0,0.344-0.126,0.613-0.378,0.807s-0.61,0.291-1.074,0.291h-1.584V42.9z M12.36,44.604
			c0.504,0,0.756-0.194,0.756-0.582c0-0.388-0.252-0.582-0.756-0.582h-0.882v1.164H12.36z M12.462,46.326
			c0.248,0,0.436-0.051,0.564-0.153c0.128-0.102,0.192-0.249,0.192-0.441s-0.064-0.339-0.192-0.441
			c-0.128-0.102-0.316-0.153-0.564-0.153h-0.984v1.188H12.462z"/>
		<path fill="#4C4E4F" d="M17.607,46.632c-0.29,0.192-0.631,0.288-1.023,0.288c-0.38,0-0.71-0.082-0.99-0.246
			c-0.28-0.164-0.496-0.4-0.648-0.708c-0.152-0.308-0.228-0.67-0.228-1.086s0.076-0.778,0.228-1.086
			c0.152-0.308,0.368-0.544,0.648-0.708c0.28-0.164,0.608-0.246,0.984-0.246c0.396,0,0.729,0.082,0.999,0.246
			s0.465,0.406,0.585,0.726l-0.606,0.27c-0.08-0.236-0.196-0.409-0.348-0.519s-0.35-0.165-0.594-0.165
			c-0.372,0-0.669,0.131-0.891,0.393c-0.222,0.262-0.333,0.625-0.333,1.089c0,0.468,0.106,0.832,0.318,1.092
			c0.212,0.26,0.506,0.39,0.882,0.39c0.256,0,0.471-0.064,0.645-0.192c0.174-0.128,0.299-0.316,0.375-0.564l0.612,0.204
			C18.102,46.166,17.897,46.44,17.607,46.632z"/>
		<path fill="#4C4E4F" d="M22.014,43.416c0.344,0.344,0.516,0.832,0.516,1.464s-0.172,1.12-0.516,1.464
			c-0.344,0.344-0.828,0.516-1.452,0.516h-1.398V42.9h1.398C21.186,42.9,21.67,43.072,22.014,43.416z M21.522,45.939
			c0.224-0.25,0.336-0.603,0.336-1.059s-0.112-0.809-0.336-1.059c-0.224-0.25-0.544-0.375-0.96-0.375h-0.756v2.868h0.756
			C20.978,46.314,21.298,46.189,21.522,45.939z"/>
		<path fill="#4C4E4F" d="M26.556,46.308v0.552h-2.952V42.9h2.868v0.552h-2.226v1.14h1.74v0.54h-1.74v1.176H26.556z"/>
		<path fill="#4C4E4F" d="M28.182,43.452v1.146h1.74v0.558h-1.74v1.704H27.54V42.9h2.862v0.552H28.182z"/>
		<path fill="#4C4E4F" d="M34.584,44.814v2.046H34.11l-0.018-0.504c-0.116,0.18-0.276,0.319-0.48,0.417
			c-0.204,0.098-0.448,0.147-0.732,0.147c-0.368,0-0.69-0.082-0.966-0.246c-0.276-0.164-0.49-0.399-0.642-0.705
			c-0.152-0.306-0.228-0.669-0.228-1.089c0-0.416,0.078-0.777,0.234-1.083c0.156-0.306,0.376-0.542,0.66-0.708
			c0.284-0.166,0.614-0.249,0.99-0.249c0.408,0,0.744,0.076,1.008,0.228c0.264,0.152,0.472,0.388,0.624,0.708l-0.588,0.282
			c-0.076-0.216-0.204-0.38-0.384-0.492c-0.18-0.112-0.396-0.168-0.648-0.168c-0.376,0-0.674,0.13-0.894,0.39
			c-0.22,0.26-0.33,0.624-0.33,1.092c0,0.476,0.105,0.843,0.315,1.101c0.21,0.258,0.517,0.387,0.921,0.387
			c0.316,0,0.572-0.078,0.768-0.234c0.196-0.156,0.294-0.382,0.294-0.678v-0.114h-1.212v-0.528H34.584z"/>
		<path fill="#4C4E4F" d="M38.976,42.9v3.96h-0.648v-1.728h-1.956v1.728H35.73V42.9h0.642v1.68h1.956V42.9H38.976z"/>
		<path fill="#4C4E4F" d="M40.908,46.86h-0.642V42.9h0.642V46.86z"/>
		<path fill="#4C4E4F" d="M44.574,45.456c0,0.46-0.127,0.819-0.381,1.077c-0.254,0.258-0.607,0.387-1.059,0.387
			c-0.416,0-0.734-0.099-0.954-0.297c-0.22-0.198-0.33-0.469-0.33-0.813c0-0.124,0.01-0.236,0.03-0.336l0.612-0.114
			c-0.016,0.152-0.024,0.254-0.024,0.306c0,0.24,0.054,0.416,0.162,0.528c0.108,0.112,0.276,0.168,0.504,0.168
			c0.292,0,0.498-0.083,0.618-0.249c0.12-0.166,0.18-0.425,0.18-0.777V42.9h0.642V45.456z"/>
		<path fill="#4C4E4F" d="M47.1,44.952l-0.642,0.69v1.218h-0.642V42.9h0.642v1.968l1.818-1.968h0.786l-1.5,1.62l1.536,2.34h-0.756
			L47.1,44.952z"/>
		<path fill="#4C4E4F" d="M52.764,46.308v0.552h-2.826V42.9h0.642v3.408H52.764z"/>
		<path fill="#4C4E4F" d="M57.702,46.86h-0.588v-2.292l0.042-1.092H57.15l-1.206,3.384H55.41l-1.206-3.384h-0.006l0.048,1.092v2.292
			h-0.594V42.9h0.954l0.798,2.292l0.276,0.942h0.012l0.282-0.942l0.792-2.292h0.936V46.86z"/>
		<path fill="#4C4E4F" d="M62.244,46.86h-0.762l-1.531-2.496l-0.384-0.732h-0.006l0.024,0.672v2.556h-0.588V42.9h0.756l1.523,2.49
			l0.391,0.738h0.006l-0.023-0.672V42.9h0.594V46.86z"/>
		<path fill="#4C4E4F" d="M66.17,43.086c0.282,0.164,0.499,0.4,0.651,0.708s0.228,0.67,0.228,1.086s-0.075,0.778-0.228,1.086
			s-0.369,0.544-0.651,0.708c-0.281,0.164-0.612,0.246-0.992,0.246c-0.381,0-0.711-0.082-0.99-0.246
			c-0.28-0.164-0.496-0.4-0.648-0.708c-0.151-0.308-0.228-0.67-0.228-1.086s0.076-0.778,0.228-1.086
			c0.152-0.308,0.368-0.544,0.648-0.708c0.279-0.164,0.609-0.246,0.99-0.246C65.558,42.84,65.889,42.922,66.17,43.086z
			 M64.302,43.788c-0.213,0.26-0.318,0.624-0.318,1.092c0,0.468,0.105,0.832,0.318,1.092c0.212,0.26,0.504,0.39,0.876,0.39
			c0.376,0,0.67-0.13,0.882-0.39c0.212-0.26,0.317-0.624,0.317-1.092c0-0.468-0.105-0.832-0.317-1.092
			c-0.212-0.26-0.506-0.39-0.882-0.39C64.806,43.398,64.514,43.528,64.302,43.788z"/>
		<path fill="#4C4E4F" d="M70.665,43.23c0.25,0.22,0.375,0.522,0.375,0.906c0,0.384-0.125,0.685-0.375,0.903
			c-0.25,0.218-0.589,0.327-1.017,0.327h-0.882v1.494h-0.643V42.9h1.524C70.076,42.9,70.415,43.01,70.665,43.23z M70.17,44.649
			c0.136-0.114,0.204-0.285,0.204-0.513c0-0.46-0.276-0.69-0.828-0.69h-0.779v1.374h0.779C69.826,44.82,70.034,44.763,70.17,44.649z
			"/>
		<path fill="#4C4E4F" d="M75.024,47.406c0.123-0.04,0.224-0.096,0.3-0.168l0.186,0.54c-0.096,0.084-0.229,0.15-0.398,0.198
			c-0.171,0.048-0.344,0.072-0.52,0.072c-0.352,0-0.637-0.093-0.854-0.279c-0.219-0.186-0.333-0.473-0.346-0.861
			c-0.5-0.056-0.893-0.263-1.179-0.621c-0.286-0.358-0.429-0.827-0.429-1.407c0-0.416,0.076-0.778,0.228-1.086
			c0.152-0.308,0.368-0.544,0.648-0.708c0.279-0.164,0.609-0.246,0.99-0.246c0.38,0,0.711,0.082,0.992,0.246
			c0.282,0.164,0.499,0.4,0.651,0.708s0.228,0.67,0.228,1.086c0,0.584-0.145,1.055-0.435,1.413s-0.687,0.563-1.191,0.615
			c0.021,0.216,0.092,0.363,0.214,0.441c0.121,0.078,0.288,0.117,0.501,0.117C74.762,47.466,74.9,47.446,75.024,47.406z
			 M72.774,45.972c0.212,0.26,0.504,0.39,0.876,0.39c0.376,0,0.67-0.13,0.882-0.39c0.212-0.26,0.317-0.624,0.317-1.092
			c0-0.468-0.105-0.832-0.317-1.092c-0.212-0.26-0.506-0.39-0.882-0.39c-0.372,0-0.664,0.13-0.876,0.39
			c-0.213,0.26-0.318,0.624-0.318,1.092C72.456,45.348,72.562,45.712,72.774,45.972z"/>
		<path fill="#4C4E4F" d="M78.084,45.276h-0.853v1.584h-0.636V42.9h1.614c0.428,0,0.766,0.105,1.014,0.315s0.372,0.501,0.372,0.873
			c0,0.284-0.073,0.521-0.219,0.711c-0.146,0.19-0.354,0.325-0.621,0.405l1.074,1.656h-0.738L78.084,45.276z M77.231,44.742h0.925
			c0.26,0,0.453-0.053,0.582-0.159c0.128-0.106,0.191-0.269,0.191-0.489c0-0.22-0.063-0.383-0.191-0.489
			c-0.129-0.106-0.322-0.159-0.582-0.159h-0.925V44.742z"/>
		<path fill="#4C4E4F" d="M83.03,43.038c0.258,0.132,0.475,0.334,0.651,0.606l-0.486,0.438c-0.112-0.24-0.252-0.414-0.42-0.522
			c-0.168-0.108-0.393-0.162-0.672-0.162c-0.276,0-0.49,0.055-0.643,0.165c-0.151,0.11-0.228,0.251-0.228,0.423
			c0,0.16,0.074,0.287,0.222,0.381c0.148,0.094,0.412,0.175,0.792,0.243c0.356,0.064,0.639,0.145,0.849,0.243
			c0.211,0.098,0.363,0.22,0.46,0.366c0.096,0.146,0.144,0.327,0.144,0.543c0,0.232-0.066,0.436-0.198,0.612
			c-0.132,0.176-0.316,0.311-0.555,0.405s-0.513,0.141-0.825,0.141c-0.804,0-1.372-0.268-1.704-0.804l0.45-0.45
			c0.128,0.24,0.293,0.416,0.495,0.528s0.453,0.168,0.753,0.168c0.284,0,0.507-0.049,0.669-0.147s0.243-0.237,0.243-0.417
			c0-0.144-0.073-0.26-0.219-0.348c-0.146-0.088-0.401-0.166-0.766-0.234s-0.653-0.152-0.87-0.252
			c-0.216-0.1-0.373-0.224-0.471-0.372s-0.146-0.328-0.146-0.54c0-0.224,0.062-0.428,0.186-0.612s0.303-0.33,0.537-0.438
			c0.233-0.108,0.507-0.162,0.819-0.162C82.461,42.84,82.772,42.906,83.03,43.038z"/>
		<path fill="#4C4E4F" d="M87.516,43.452h-1.356v3.408h-0.642v-3.408h-1.356V42.9h3.354V43.452z"/>
		<path fill="#4C4E4F" d="M91.59,45.342c0,0.52-0.139,0.913-0.414,1.179c-0.276,0.266-0.679,0.399-1.206,0.399
			c-0.528,0-0.931-0.133-1.206-0.399c-0.276-0.266-0.414-0.659-0.414-1.179V42.9h0.647v2.364c0,0.376,0.079,0.653,0.237,0.831
			c0.158,0.178,0.403,0.267,0.735,0.267s0.576-0.089,0.734-0.267c0.158-0.178,0.237-0.455,0.237-0.831V42.9h0.648V45.342z"/>
		<path fill="#4C4E4F" d="M94.595,46.86h-0.75l-1.47-3.96h0.685l0.924,2.634l0.24,0.786l0.239-0.78l0.924-2.64h0.679L94.595,46.86z"
			/>
		<path fill="#4C4E4F" d="M98.411,46.86h-0.762l-1.164-3.96h0.696l0.863,3.45l0.87-3.45h0.66l0.876,3.456l0.87-3.456h0.66
			l-1.158,3.96h-0.756l-0.63-2.376l-0.198-0.912h-0.006l-0.198,0.912L98.411,46.86z"/>
		<path fill="#4C4E4F" d="M105.077,46.86l-0.972-1.542l-0.972,1.542h-0.738l1.374-2.01l-1.266-1.95h0.762l0.912,1.47l0.912-1.47
			h0.695l-1.277,1.926l1.332,2.034H105.077z"/>
		<path fill="#4C4E4F" d="M108.191,45.342v1.518h-0.643v-1.518l-1.41-2.442h0.715l0.708,1.272l0.312,0.594l0.312-0.594l0.701-1.272
			h0.721L108.191,45.342z"/>
		<path fill="#4C4E4F" d="M113.256,46.314v0.546h-3.198v-0.522l2.395-2.892h-2.341V42.9h3.072v0.522l-2.394,2.892H113.256z"/>
		<path fill="#4C4E4F" d="M9.462,53.616L9.42,54.047c-0.108,0.049-0.232,0.072-0.372,0.072c-0.172,0-0.309-0.033-0.411-0.102
			c-0.102-0.067-0.169-0.182-0.201-0.341c-0.092,0.14-0.228,0.249-0.408,0.326c-0.18,0.08-0.382,0.117-0.606,0.117
			c-0.292,0-0.528-0.066-0.708-0.203c-0.18-0.136-0.27-0.33-0.27-0.582c0-0.236,0.098-0.435,0.294-0.597
			c0.196-0.162,0.488-0.277,0.876-0.345l0.762-0.132v-0.162c0-0.184-0.054-0.329-0.162-0.435s-0.258-0.159-0.45-0.159
			c-0.396,0-0.654,0.18-0.774,0.54L6.492,51.78c0.072-0.24,0.219-0.43,0.441-0.57C7.155,51.07,7.428,51,7.752,51
			c0.388,0,0.696,0.09,0.924,0.27s0.342,0.444,0.342,0.792v1.356c0,0.076,0.017,0.132,0.051,0.168
			C9.104,53.622,9.16,53.64,9.24,53.64C9.328,53.64,9.402,53.632,9.462,53.616z M8.13,53.478c0.164-0.104,0.246-0.242,0.246-0.414
			v-0.36l-0.654,0.132c-0.208,0.04-0.362,0.096-0.462,0.168c-0.1,0.072-0.15,0.168-0.15,0.288c0,0.112,0.039,0.197,0.117,0.255
			c0.078,0.058,0.189,0.087,0.333,0.087C7.776,53.634,7.966,53.582,8.13,53.478z"/>
		<path fill="#4C4E4F" d="M12.774,51.417c0.236,0.278,0.354,0.661,0.354,1.149c0,0.488-0.118,0.869-0.354,1.143
			s-0.56,0.41-0.972,0.41c-0.236,0-0.443-0.055-0.621-0.167c-0.178-0.112-0.311-0.262-0.399-0.45l-0.03,0.559h-0.564V49.71h0.642
			v1.83c0.092-0.168,0.223-0.3,0.393-0.396C11.394,51.048,11.586,51,11.802,51C12.214,51,12.539,51.139,12.774,51.417z
			 M12.268,53.328c0.146-0.184,0.219-0.44,0.219-0.768s-0.073-0.583-0.219-0.765c-0.146-0.182-0.349-0.273-0.609-0.273
			c-0.244,0-0.439,0.082-0.585,0.246s-0.227,0.39-0.243,0.678v0.228c0.016,0.292,0.097,0.52,0.243,0.684s0.341,0.246,0.585,0.246
			C11.918,53.604,12.122,53.512,12.268,53.328z"/>
		<path fill="#4C4E4F" d="M16.705,51.84l-0.6,0.24c-0.104-0.38-0.338-0.57-0.702-0.57c-0.268,0-0.476,0.092-0.624,0.276
			s-0.222,0.444-0.222,0.78s0.074,0.594,0.222,0.774c0.148,0.18,0.356,0.27,0.624,0.27c0.204,0,0.368-0.05,0.492-0.15
			c0.124-0.1,0.206-0.244,0.246-0.432l0.588,0.198c-0.088,0.28-0.244,0.499-0.468,0.657c-0.224,0.158-0.506,0.236-0.846,0.236
			c-0.472,0-0.841-0.137-1.107-0.413c-0.266-0.276-0.399-0.658-0.399-1.146c0-0.488,0.132-0.87,0.396-1.146
			C14.568,51.138,14.935,51,15.402,51C16.059,51,16.492,51.28,16.705,51.84z"/>
		<path fill="#4C4E4F" d="M20.376,49.71v4.351h-0.564l-0.036-0.535c-0.088,0.18-0.221,0.324-0.399,0.432
			c-0.178,0.108-0.381,0.161-0.609,0.161c-0.412,0-0.737-0.136-0.975-0.41c-0.238-0.274-0.357-0.655-0.357-1.143
			c0-0.488,0.119-0.871,0.357-1.149C18.031,51.139,18.356,51,18.768,51c0.22,0,0.414,0.049,0.582,0.147
			c0.168,0.098,0.296,0.231,0.384,0.399V49.71H20.376z M19.512,53.334c0.148-0.18,0.222-0.426,0.222-0.738v-0.072
			c0-0.312-0.074-0.557-0.222-0.735c-0.148-0.178-0.348-0.267-0.6-0.267c-0.26,0-0.463,0.091-0.609,0.273
			c-0.146,0.182-0.219,0.437-0.219,0.765s0.073,0.584,0.219,0.768s0.349,0.276,0.609,0.276
			C19.164,53.604,19.364,53.514,19.512,53.334z"/>
		<path fill="#4C4E4F" d="M24.15,52.8h-2.196c0.036,0.264,0.13,0.465,0.282,0.603c0.152,0.138,0.348,0.207,0.588,0.207
			c0.196,0,0.359-0.035,0.489-0.105c0.13-0.07,0.219-0.171,0.267-0.303l0.534,0.222c-0.224,0.464-0.654,0.695-1.29,0.695
			c-0.472,0-0.841-0.137-1.107-0.413c-0.266-0.276-0.399-0.658-0.399-1.146c0-0.492,0.128-0.875,0.384-1.149S22.318,51,22.782,51
			c0.44,0,0.782,0.134,1.026,0.402c0.244,0.268,0.366,0.624,0.366,1.068C24.174,52.586,24.166,52.696,24.15,52.8z M22.221,51.714
			c-0.142,0.136-0.231,0.334-0.267,0.594h1.62c-0.032-0.252-0.117-0.448-0.255-0.588c-0.138-0.14-0.317-0.21-0.537-0.21
			C22.55,51.51,22.363,51.578,22.221,51.714z"/>
		<path fill="#4C4E4F" d="M25.926,51.06h0.972v0.504h-0.954v2.497h-0.642v-2.497h-0.564V51.06h0.564v-0.432
			c0-0.304,0.092-0.54,0.276-0.708s0.442-0.252,0.774-0.252c0.12,0,0.23,0.013,0.33,0.039s0.178,0.061,0.234,0.105l-0.12,0.468
			c-0.092-0.06-0.206-0.09-0.342-0.09c-0.352,0-0.528,0.162-0.528,0.486V51.06z"/>
		<path fill="#4C4E4F" d="M30,53.796c0.168,0.136,0.252,0.323,0.252,0.563c0,0.205-0.067,0.381-0.201,0.529
			c-0.134,0.146-0.318,0.262-0.552,0.342c-0.234,0.08-0.497,0.119-0.789,0.119c-0.476,0-0.833-0.07-1.071-0.209
			c-0.238-0.141-0.357-0.326-0.357-0.559c0-0.137,0.047-0.256,0.141-0.357c0.094-0.102,0.225-0.174,0.393-0.219
			c-0.128-0.06-0.23-0.137-0.306-0.231c-0.076-0.094-0.114-0.207-0.114-0.339c0-0.292,0.156-0.492,0.468-0.6
			c-0.152-0.088-0.267-0.202-0.345-0.342c-0.078-0.14-0.117-0.3-0.117-0.48c0-0.2,0.054-0.377,0.162-0.531
			c0.108-0.154,0.261-0.273,0.459-0.357C28.221,51.042,28.448,51,28.704,51c0.22,0,0.422,0.032,0.606,0.096
			c0.056-0.22,0.157-0.387,0.303-0.501c0.146-0.114,0.339-0.169,0.579-0.165l0.108,0.498c-0.192-0.004-0.347,0.02-0.465,0.072
			c-0.118,0.052-0.199,0.13-0.243,0.234c0.132,0.092,0.234,0.204,0.306,0.336c0.072,0.132,0.108,0.28,0.108,0.444
			c0,0.308-0.119,0.554-0.357,0.738c-0.238,0.184-0.553,0.276-0.945,0.276c-0.184,0-0.35-0.018-0.498-0.054
			c-0.1,0.024-0.173,0.063-0.219,0.117c-0.046,0.054-0.069,0.125-0.069,0.213c0,0.092,0.033,0.163,0.099,0.213
			c0.066,0.05,0.157,0.075,0.273,0.075h1.002C29.596,53.592,29.833,53.66,30,53.796z M29.454,54.744
			c0.164-0.084,0.246-0.188,0.246-0.312c0-0.1-0.04-0.176-0.12-0.229c-0.08-0.051-0.214-0.076-0.402-0.076h-0.81
			c-0.18,0-0.315,0.027-0.405,0.084c-0.09,0.055-0.135,0.133-0.135,0.232c0,0.137,0.079,0.242,0.237,0.316
			c0.158,0.074,0.393,0.109,0.705,0.109C29.062,54.869,29.29,54.828,29.454,54.744z M28.242,51.609
			c-0.124,0.106-0.186,0.241-0.186,0.405c0,0.168,0.062,0.305,0.186,0.411s0.278,0.159,0.462,0.159c0.188,0,0.343-0.053,0.465-0.159
			s0.183-0.243,0.183-0.411s-0.061-0.304-0.183-0.408s-0.277-0.156-0.465-0.156C28.521,51.45,28.366,51.503,28.242,51.609z"/>
		<path fill="#4C4E4F" d="M33.417,51.288c0.21,0.192,0.315,0.468,0.315,0.828v1.944H33.09V52.32c0-0.528-0.214-0.792-0.642-0.792
			c-0.224,0-0.416,0.078-0.576,0.234c-0.16,0.156-0.24,0.394-0.24,0.714v1.584H30.99V49.71h0.642v1.83
			c0.1-0.184,0.233-0.32,0.399-0.408C32.197,51.044,32.388,51,32.604,51C32.936,51,33.207,51.096,33.417,51.288z"/>
		<path fill="#4C4E4F" d="M34.83,50.451c-0.076-0.07-0.114-0.169-0.114-0.297c0-0.128,0.038-0.226,0.114-0.294
			c0.076-0.068,0.182-0.102,0.318-0.102c0.136,0,0.241,0.034,0.315,0.102c0.074,0.068,0.111,0.166,0.111,0.294
			c0,0.128-0.037,0.227-0.111,0.297c-0.074,0.07-0.179,0.105-0.315,0.105C35.012,50.556,34.906,50.521,34.83,50.451z M35.466,54.061
			h-0.642v-3h0.642V54.061z"/>
		<path fill="#4C4E4F" d="M37.23,54.324c0,0.355-0.093,0.615-0.279,0.779s-0.421,0.246-0.705,0.246c-0.26,0-0.48-0.066-0.66-0.197
			l0.114-0.516c0.136,0.111,0.29,0.168,0.462,0.168c0.136,0,0.241-0.043,0.315-0.127c0.074-0.084,0.111-0.221,0.111-0.414V51.06
			h0.642V54.324z M37.221,49.866c0.078,0.072,0.117,0.168,0.117,0.288c0,0.12-0.039,0.217-0.117,0.291
			c-0.078,0.074-0.181,0.111-0.309,0.111c-0.132,0-0.237-0.037-0.315-0.111c-0.078-0.074-0.117-0.171-0.117-0.291
			c0-0.12,0.039-0.216,0.117-0.288c0.078-0.072,0.183-0.108,0.315-0.108C37.04,49.758,37.143,49.794,37.221,49.866z"/>
		<path fill="#4C4E4F" d="M39.582,52.65l-0.594,0.612v0.798h-0.642V49.71h0.642v2.82l1.434-1.47h0.756l-1.146,1.176l1.218,1.825
			h-0.744L39.582,52.65z"/>
		<path fill="#4C4E4F" d="M42.588,53.184c0,0.148,0.022,0.251,0.066,0.309S42.78,53.58,42.9,53.58c0.076,0,0.141-0.005,0.195-0.015
			c0.054-0.01,0.121-0.031,0.201-0.063l-0.072,0.516c-0.136,0.068-0.302,0.102-0.498,0.102c-0.268,0-0.465-0.066-0.591-0.203
			c-0.126-0.136-0.189-0.35-0.189-0.642V49.71h0.642V53.184z"/>
		<path fill="#4C4E4F" d="M48.126,51.123c0.168,0.082,0.302,0.207,0.402,0.375s0.15,0.374,0.15,0.618v1.944h-0.642v-1.842
			c0-0.236-0.056-0.41-0.168-0.522c-0.112-0.112-0.262-0.168-0.45-0.168c-0.22,0-0.405,0.08-0.555,0.24
			c-0.15,0.16-0.225,0.38-0.225,0.66v1.632h-0.642v-1.842c0-0.236-0.056-0.41-0.168-0.522c-0.112-0.112-0.262-0.168-0.45-0.168
			c-0.128,0-0.252,0.033-0.372,0.099c-0.12,0.066-0.218,0.169-0.294,0.309s-0.114,0.316-0.114,0.528v1.597h-0.642v-3h0.57
			l0.03,0.498c0.1-0.184,0.236-0.323,0.408-0.417S45.324,51,45.528,51c0.224,0,0.427,0.051,0.609,0.153
			c0.182,0.102,0.317,0.251,0.405,0.447c0.092-0.196,0.233-0.345,0.423-0.447C47.155,51.051,47.358,51,47.574,51
			C47.774,51,47.958,51.041,48.126,51.123z"/>
		<path fill="#4C4E4F" d="M52.197,51.288c0.21,0.192,0.315,0.468,0.315,0.828v1.944H51.87V52.32c0-0.528-0.214-0.792-0.642-0.792
			c-0.224,0-0.416,0.077-0.576,0.231c-0.16,0.154-0.24,0.391-0.24,0.711v1.59H49.77v-3h0.57l0.03,0.498
			c0.1-0.188,0.238-0.328,0.414-0.42C50.96,51.046,51.16,51,51.384,51C51.716,51,51.987,51.096,52.197,51.288z"/>
		<path fill="#4C4E4F" d="M56.022,51.414c0.264,0.276,0.396,0.658,0.396,1.146c0,0.488-0.132,0.87-0.396,1.146
			s-0.63,0.413-1.098,0.413c-0.468,0-0.834-0.137-1.098-0.413c-0.264-0.276-0.396-0.658-0.396-1.146c0-0.488,0.132-0.87,0.396-1.146
			C54.09,51.138,54.456,51,54.924,51C55.392,51,55.758,51.138,56.022,51.414z M54.297,51.777c-0.146,0.182-0.219,0.443-0.219,0.783
			s0.073,0.601,0.219,0.783c0.146,0.182,0.355,0.273,0.627,0.273s0.482-0.092,0.63-0.276c0.147-0.184,0.222-0.444,0.222-0.78
			s-0.074-0.596-0.222-0.78c-0.148-0.184-0.358-0.276-0.63-0.276S54.443,51.595,54.297,51.777z"/>
		<path fill="#4C4E4F" d="M59.946,51.411c0.236,0.274,0.354,0.655,0.354,1.143c0,0.488-0.118,0.871-0.354,1.149
			s-0.56,0.416-0.972,0.416c-0.216,0-0.409-0.047-0.579-0.143c-0.17-0.096-0.301-0.228-0.393-0.396v1.74H57.36v-4.26h0.564
			l0.03,0.558c0.088-0.188,0.221-0.338,0.399-0.45C58.531,51.056,58.738,51,58.974,51C59.386,51,59.71,51.137,59.946,51.411z
			 M59.439,53.325c0.146-0.182,0.219-0.437,0.219-0.765s-0.073-0.584-0.219-0.768s-0.349-0.276-0.609-0.276
			c-0.244,0-0.439,0.082-0.585,0.246s-0.227,0.392-0.243,0.684v0.228c0.016,0.288,0.097,0.514,0.243,0.678s0.341,0.246,0.585,0.246
			C59.09,53.598,59.293,53.507,59.439,53.325z"/>
		<path fill="#4C4E4F" d="M64.038,51.06v4.26h-0.643v-1.746c-0.092,0.168-0.222,0.301-0.39,0.399
			c-0.168,0.097-0.36,0.146-0.576,0.146c-0.412,0-0.737-0.138-0.975-0.416c-0.238-0.278-0.357-0.661-0.357-1.149
			c0-0.488,0.118-0.869,0.354-1.143C61.688,51.137,62.012,51,62.424,51c0.236,0,0.443,0.055,0.621,0.165s0.311,0.259,0.399,0.447
			l0.029-0.552H64.038z M63.171,53.331c0.15-0.178,0.225-0.423,0.225-0.735v-0.072c0-0.312-0.074-0.558-0.225-0.738
			c-0.15-0.18-0.351-0.27-0.604-0.27c-0.26,0-0.463,0.092-0.608,0.276c-0.146,0.184-0.219,0.44-0.219,0.768s0.072,0.583,0.219,0.765
			c0.146,0.182,0.349,0.273,0.608,0.273C62.82,53.598,63.021,53.509,63.171,53.331z"/>
		<path fill="#4C4E4F" d="M67.031,51.06l-0.102,0.588c-0.093-0.052-0.219-0.078-0.378-0.078c-0.129,0-0.249,0.034-0.363,0.102
			c-0.114,0.068-0.208,0.17-0.282,0.306c-0.074,0.136-0.111,0.3-0.111,0.492v1.59h-0.642v-3h0.546l0.054,0.54
			c0.168-0.4,0.484-0.6,0.948-0.6C66.841,51,66.951,51.02,67.031,51.06z"/>
		<path fill="#4C4E4F" d="M67.935,53.964c-0.234-0.104-0.411-0.262-0.531-0.474l0.432-0.372c0.076,0.172,0.194,0.298,0.354,0.378
			s0.352,0.12,0.576,0.12c0.203,0,0.361-0.033,0.474-0.099s0.168-0.153,0.168-0.261c0-0.096-0.052-0.173-0.156-0.231
			c-0.104-0.058-0.284-0.113-0.54-0.165c-0.443-0.084-0.756-0.196-0.936-0.336c-0.18-0.14-0.271-0.338-0.271-0.594
			c0-0.164,0.051-0.317,0.15-0.459s0.245-0.256,0.435-0.342C68.28,51.043,68.505,51,68.766,51c0.332,0,0.598,0.055,0.798,0.165
			s0.354,0.281,0.462,0.513l-0.456,0.336c-0.072-0.176-0.173-0.305-0.303-0.387c-0.131-0.082-0.295-0.123-0.495-0.123
			c-0.181,0-0.329,0.037-0.447,0.111c-0.118,0.074-0.177,0.159-0.177,0.255c0,0.108,0.053,0.194,0.159,0.258
			c0.105,0.064,0.299,0.122,0.578,0.174c0.425,0.076,0.725,0.184,0.9,0.324c0.176,0.14,0.264,0.336,0.264,0.588
			c0,0.268-0.115,0.486-0.348,0.654c-0.232,0.167-0.552,0.251-0.96,0.251C68.438,54.119,68.168,54.068,67.935,53.964z"/>
		<path fill="#4C4E4F" d="M72.894,53.862c-0.097,0.08-0.214,0.142-0.352,0.189s-0.287,0.068-0.447,0.068
			c-0.275,0-0.497-0.068-0.662-0.206c-0.166-0.138-0.252-0.353-0.256-0.645v-1.704h-0.569V51.06h0.569v-0.702l0.643-0.18v0.882h1.05
			v0.504h-1.05v1.596c0,0.144,0.039,0.251,0.117,0.321c0.078,0.07,0.185,0.105,0.32,0.105c0.185,0,0.347-0.064,0.486-0.192
			L72.894,53.862z"/>
		<path fill="#4C4E4F" d="M76.331,51.06v3h-0.569l-0.024-0.486c-0.204,0.364-0.561,0.545-1.068,0.545
			c-0.323,0-0.585-0.088-0.782-0.266c-0.198-0.178-0.298-0.451-0.298-0.819V51.06h0.643v1.806c0,0.264,0.052,0.451,0.156,0.561
			c0.104,0.11,0.258,0.165,0.462,0.165c0.243,0,0.444-0.077,0.603-0.231c0.158-0.154,0.237-0.381,0.237-0.681v-1.62H76.331z"/>
		<path fill="#4C4E4F" d="M80.093,51.06l-1.193,3h-0.702l-1.2-3h0.708l0.846,2.478l0.87-2.478H80.093z"/>
		<path fill="#4C4E4F" d="M85.319,51.06l-1.002,3h-0.702l-0.756-2.269l-0.72,2.269h-0.702l-1.002-3h0.696l0.678,2.4l0.75-2.4h0.636
			l0.744,2.4l0.685-2.4H85.319z"/>
		<path fill="#4C4E4F" d="M88.001,54.061l-0.756-1.128l-0.779,1.128h-0.727l1.128-1.513L85.8,51.06h0.768l0.72,1.086l0.714-1.086
			h0.738l-1.074,1.47l1.093,1.53H88.001z"/>
		<path fill="#4C4E4F" d="M90.911,54.414c-0.132,0.344-0.282,0.586-0.45,0.727c-0.168,0.139-0.388,0.209-0.659,0.209
			c-0.156,0-0.291-0.02-0.405-0.057s-0.215-0.1-0.303-0.184l0.186-0.492c0.12,0.145,0.284,0.217,0.492,0.217
			c0.12,0,0.221-0.031,0.303-0.094c0.082-0.061,0.155-0.174,0.219-0.338l0.133-0.324l-0.312-0.744l-0.936-2.274h0.72l0.66,1.884
			l0.174,0.564l0.204-0.618l0.624-1.83h0.666L90.911,54.414z"/>
		<path fill="#4C4E4F" d="M92.729,53.616l1.458-1.692l0.36-0.372l-0.516,0.012h-1.29V51.06h2.514v0.444l-1.452,1.692l-0.36,0.372
			l0.57-0.012h1.296v0.504h-2.58V53.616z"/>
		<path fill="#4C4E4F" d="M6.897,60.801c-0.258-0.346-0.387-0.852-0.387-1.521c0-0.668,0.129-1.174,0.387-1.52
			c0.258-0.346,0.637-0.52,1.137-0.52s0.88,0.174,1.14,0.52c0.26,0.346,0.39,0.852,0.39,1.52c0,0.67-0.13,1.176-0.39,1.521
			c-0.26,0.346-0.64,0.52-1.14,0.52S7.155,61.146,6.897,60.801z M8.688,60.398c0.148-0.25,0.222-0.623,0.222-1.119
			c0-0.494-0.074-0.867-0.222-1.117s-0.366-0.375-0.654-0.375c-0.58,0-0.87,0.498-0.87,1.492c0,0.996,0.29,1.494,0.87,1.494
			C8.322,60.773,8.541,60.648,8.688,60.398z"/>
		<path fill="#4C4E4F" d="M11.982,57.301v3.959h-0.63v-2.928c0-0.135,0.002-0.242,0.006-0.318c-0.136,0.133-0.291,0.246-0.465,0.342
			c-0.174,0.098-0.351,0.164-0.531,0.205l-0.12-0.559c0.104-0.012,0.239-0.057,0.405-0.131c0.166-0.076,0.323-0.166,0.471-0.271
			c0.148-0.104,0.256-0.203,0.324-0.299H11.982z"/>
		<path fill="#4C4E4F" d="M13.086,60.787c0.52-0.365,0.924-0.674,1.212-0.928c0.288-0.254,0.495-0.486,0.621-0.695
			c0.126-0.211,0.189-0.428,0.189-0.652c0-0.211-0.067-0.383-0.201-0.516c-0.134-0.133-0.317-0.197-0.549-0.197
			c-0.248,0-0.445,0.082-0.591,0.246s-0.229,0.391-0.249,0.684l-0.558-0.258c0.04-0.381,0.186-0.68,0.438-0.9s0.584-0.33,0.996-0.33
			c0.284,0,0.53,0.055,0.738,0.164c0.208,0.111,0.366,0.26,0.474,0.447c0.108,0.189,0.162,0.4,0.162,0.637
			c0,0.381-0.141,0.742-0.423,1.086c-0.282,0.344-0.751,0.727-1.407,1.146v0.012c0.2-0.016,0.418-0.023,0.654-0.023h1.248v0.551
			h-2.754V60.787z"/>
		<path fill="#4C4E4F" d="M18.765,57.381c0.194,0.094,0.341,0.221,0.441,0.381s0.15,0.338,0.15,0.535c0,0.188-0.037,0.354-0.111,0.5
			c-0.074,0.146-0.168,0.26-0.282,0.34c-0.114,0.08-0.231,0.119-0.351,0.119v0.012c0.152,0,0.291,0.039,0.417,0.115
			s0.227,0.184,0.303,0.324c0.076,0.139,0.114,0.301,0.114,0.484c0,0.217-0.06,0.41-0.18,0.582s-0.289,0.307-0.507,0.402
			c-0.218,0.096-0.469,0.145-0.753,0.145c-0.716,0-1.19-0.32-1.422-0.961l0.588-0.281c0.06,0.232,0.156,0.404,0.288,0.52
			c0.132,0.113,0.322,0.17,0.57,0.17c0.24,0,0.428-0.059,0.564-0.176c0.136-0.119,0.204-0.275,0.204-0.471
			c0-0.217-0.065-0.369-0.195-0.459c-0.13-0.092-0.337-0.137-0.621-0.137h-0.18v-0.51h0.162c0.496,0,0.744-0.203,0.744-0.611
			c0-0.199-0.057-0.352-0.171-0.455c-0.114-0.105-0.275-0.156-0.483-0.156c-0.212,0-0.381,0.051-0.507,0.152
			c-0.126,0.102-0.207,0.246-0.243,0.436l-0.588-0.24c0.084-0.289,0.247-0.51,0.489-0.666s0.529-0.234,0.861-0.234
			C18.338,57.24,18.571,57.287,18.765,57.381z"/>
		<path fill="#4C4E4F" d="M23.418,60.27h-0.672v0.99H22.14v-0.99h-1.95v-0.389l1.77-2.58h0.786v2.471h0.672V60.27z M20.833,59.771
			h1.308v-1.355l0.024-0.643h-0.012c-0.096,0.205-0.224,0.426-0.384,0.66L20.833,59.771z"/>
		<path fill="#4C4E4F" d="M26.371,58.875c0.188,0.105,0.333,0.254,0.435,0.441c0.102,0.188,0.153,0.406,0.153,0.654
			c0,0.428-0.128,0.76-0.384,0.996c-0.256,0.236-0.598,0.354-1.026,0.354c-0.36,0-0.655-0.072-0.885-0.217
			c-0.23-0.143-0.413-0.361-0.549-0.652l0.6-0.33c0.06,0.215,0.151,0.379,0.273,0.488s0.305,0.164,0.549,0.164
			c0.244,0,0.437-0.064,0.579-0.197s0.213-0.318,0.213-0.559c0-0.248-0.066-0.438-0.198-0.572s-0.322-0.201-0.57-0.201
			c-0.376,0-0.644,0.113-0.804,0.342l-0.534-0.035l0.246-2.25h2.298v0.551h-1.788l-0.138,1.1l-0.012,0.084h0.006
			c0.192-0.213,0.484-0.318,0.876-0.318C25.962,58.717,26.182,58.77,26.371,58.875z"/>
		<path fill="#4C4E4F" d="M30.204,57.441c0.212,0.135,0.376,0.35,0.492,0.645l-0.564,0.27c-0.116-0.371-0.372-0.557-0.768-0.557
			c-0.192,0-0.362,0.064-0.51,0.197s-0.263,0.314-0.345,0.547c-0.082,0.23-0.123,0.492-0.123,0.779v0.107h0.024
			c0.064-0.215,0.194-0.381,0.39-0.494c0.196-0.115,0.414-0.172,0.654-0.172c0.26,0,0.49,0.053,0.69,0.156
			c0.2,0.104,0.355,0.252,0.465,0.441c0.11,0.189,0.165,0.412,0.165,0.668c0,0.396-0.126,0.711-0.378,0.943
			c-0.252,0.232-0.596,0.348-1.032,0.348c-0.5,0-0.886-0.184-1.158-0.549c-0.272-0.367-0.408-0.863-0.408-1.492
			c0-0.436,0.069-0.807,0.207-1.115c0.138-0.309,0.328-0.539,0.57-0.693s0.517-0.23,0.825-0.23
			C29.724,57.24,29.992,57.307,30.204,57.441z M28.803,59.5c-0.142,0.133-0.213,0.309-0.213,0.523c0,0.225,0.07,0.404,0.21,0.541
			c0.14,0.137,0.328,0.203,0.564,0.203c0.244,0,0.434-0.064,0.57-0.193c0.136-0.131,0.204-0.314,0.204-0.551
			c0-0.227-0.068-0.404-0.204-0.533c-0.136-0.129-0.326-0.191-0.57-0.191C29.132,59.299,28.945,59.365,28.803,59.5z"/>
		<path fill="#4C4E4F" d="M34.41,57.301v0.533c-0.488,0.5-0.84,1.029-1.056,1.584c-0.216,0.557-0.324,1.17-0.324,1.842h-0.654
			c0-0.635,0.114-1.24,0.342-1.811c0.228-0.572,0.57-1.104,1.026-1.592h-2.352v-0.557H34.41z"/>
		<path fill="#4C4E4F" d="M37.435,57.535c0.24,0.191,0.36,0.449,0.36,0.773c0,0.203-0.051,0.381-0.153,0.533
			c-0.102,0.152-0.245,0.268-0.429,0.348v0.006c0.236,0.09,0.419,0.217,0.549,0.385s0.195,0.375,0.195,0.619
			c0,0.344-0.134,0.615-0.402,0.818c-0.268,0.201-0.63,0.303-1.086,0.303s-0.819-0.102-1.089-0.303
			c-0.27-0.203-0.405-0.475-0.405-0.818c0-0.24,0.066-0.447,0.198-0.619s0.316-0.301,0.552-0.385v-0.006
			c-0.184-0.074-0.328-0.189-0.432-0.344s-0.156-0.334-0.156-0.537c0-0.328,0.12-0.588,0.36-0.777
			c0.24-0.189,0.564-0.285,0.972-0.285C36.873,57.246,37.194,57.342,37.435,57.535z M37.083,60.605
			c0.15-0.115,0.225-0.275,0.225-0.479c0-0.205-0.076-0.365-0.228-0.484c-0.152-0.117-0.356-0.176-0.612-0.176
			s-0.461,0.059-0.615,0.176c-0.154,0.119-0.231,0.279-0.231,0.484c0,0.203,0.076,0.363,0.228,0.479
			c0.152,0.117,0.358,0.174,0.618,0.174C36.729,60.779,36.934,60.723,37.083,60.605z M35.964,57.939
			c-0.124,0.102-0.186,0.244-0.186,0.43c0,0.18,0.062,0.32,0.186,0.422s0.292,0.152,0.504,0.152c0.208,0,0.375-0.051,0.501-0.152
			s0.189-0.242,0.189-0.422c0-0.182-0.062-0.322-0.186-0.428c-0.124-0.104-0.292-0.154-0.504-0.154S36.088,57.838,35.964,57.939z"/>
		<path fill="#4C4E4F" d="M41.382,57.789c0.272,0.365,0.408,0.865,0.408,1.498c0,0.672-0.135,1.178-0.405,1.52
			s-0.659,0.514-1.167,0.514c-0.36,0-0.653-0.074-0.879-0.223c-0.226-0.146-0.399-0.369-0.519-0.666l0.606-0.281
			c0.064,0.207,0.152,0.363,0.264,0.465c0.112,0.102,0.288,0.152,0.528,0.152c0.352,0,0.604-0.133,0.756-0.398
			c0.152-0.266,0.228-0.652,0.228-1.16v-0.066h-0.024c-0.056,0.232-0.183,0.402-0.381,0.512c-0.198,0.111-0.423,0.166-0.675,0.166
			c-0.256,0-0.483-0.053-0.681-0.156c-0.198-0.104-0.353-0.252-0.465-0.447c-0.112-0.193-0.168-0.418-0.168-0.674
			c0-0.404,0.127-0.723,0.381-0.955s0.599-0.348,1.035-0.348C40.724,57.24,41.11,57.424,41.382,57.789z M39.654,58
			c-0.136,0.129-0.204,0.312-0.204,0.549c0,0.227,0.068,0.406,0.204,0.533c0.136,0.129,0.326,0.191,0.57,0.191
			c0.232,0,0.419-0.066,0.561-0.199c0.142-0.135,0.213-0.311,0.213-0.525c0-0.225-0.071-0.404-0.213-0.541
			c-0.142-0.135-0.329-0.203-0.561-0.203C39.98,57.805,39.79,57.869,39.654,58z"/>
	</g>
</g>
<g id="Work_Sans_x0D_Medium">
	<g>
		<path fill="#4C4E4F" d="M10.796,15.783H9.018l-2.716-9.24h1.624l2.016,8.05l2.03-8.05h1.54l2.044,8.064l2.03-8.064h1.54
			l-2.702,9.24H14.66l-1.47-5.544l-0.462-2.128h-0.014l-0.462,2.128L10.796,15.783z"/>
		<path fill="#4C4E4F" d="M26.042,9.609c0.616,0.644,0.924,1.535,0.924,2.674s-0.308,2.03-0.924,2.674
			c-0.616,0.644-1.47,0.966-2.562,0.966c-1.092,0-1.946-0.322-2.562-0.966c-0.616-0.644-0.924-1.535-0.924-2.674
			s0.308-2.03,0.924-2.674c0.616-0.644,1.47-0.966,2.562-0.966C24.572,8.643,25.426,8.965,26.042,9.609z M22.017,10.456
			c-0.341,0.425-0.511,1.034-0.511,1.827c0,0.793,0.17,1.402,0.511,1.827s0.829,0.637,1.463,0.637c0.634,0,1.125-0.214,1.47-0.644
			c0.345-0.429,0.518-1.036,0.518-1.82s-0.173-1.391-0.518-1.82s-0.835-0.644-1.47-0.644C22.845,9.819,22.357,10.032,22.017,10.456z
			"/>
		<path fill="#4C4E4F" d="M33.545,8.783l-0.238,1.372c-0.215-0.121-0.509-0.182-0.882-0.182c-0.299,0-0.581,0.08-0.847,0.238
			c-0.266,0.159-0.485,0.396-0.658,0.714s-0.259,0.7-0.259,1.148v3.71h-1.498v-7h1.274l0.126,1.26c0.392-0.933,1.129-1.4,2.212-1.4
			C33.102,8.643,33.359,8.69,33.545,8.783z"/>
		<path fill="#4C4E4F" d="M38.123,12.493l-1.386,1.428v1.862h-1.498V5.633h1.498v6.58l3.346-3.43h1.764l-2.674,2.744l2.842,4.256
			h-1.736L38.123,12.493z"/>
		<path fill="#4C4E4F" d="M53.769,6.865c0.602,0.308,1.108,0.779,1.519,1.414l-1.134,1.022c-0.261-0.56-0.588-0.966-0.98-1.218
			s-0.915-0.378-1.568-0.378c-0.644,0-1.144,0.128-1.498,0.385c-0.355,0.257-0.532,0.585-0.532,0.987
			c0,0.374,0.173,0.67,0.518,0.889s0.961,0.408,1.848,0.567c0.831,0.149,1.491,0.338,1.981,0.567
			c0.49,0.229,0.847,0.514,1.071,0.854c0.224,0.341,0.336,0.763,0.336,1.267c0,0.542-0.154,1.018-0.462,1.428
			c-0.308,0.411-0.74,0.726-1.295,0.945s-1.197,0.329-1.925,0.329c-1.876,0-3.202-0.625-3.976-1.876l1.05-1.05
			c0.299,0.56,0.684,0.971,1.155,1.232c0.471,0.262,1.057,0.392,1.757,0.392c0.663,0,1.183-0.114,1.561-0.343
			s0.567-0.553,0.567-0.973c0-0.336-0.17-0.606-0.511-0.812c-0.341-0.205-0.936-0.387-1.785-0.546
			c-0.85-0.159-1.526-0.354-2.03-0.588c-0.504-0.233-0.871-0.523-1.099-0.868c-0.229-0.345-0.343-0.765-0.343-1.26
			c0-0.523,0.145-0.999,0.434-1.428c0.289-0.429,0.707-0.77,1.253-1.022c0.546-0.252,1.183-0.378,1.911-0.378
			C52.44,6.403,53.167,6.557,53.769,6.865z"/>
		<path fill="#4C4E4F" d="M63.953,14.747l-0.098,1.008c-0.252,0.112-0.541,0.168-0.869,0.168c-0.4,0-0.721-0.08-0.959-0.238
			c-0.236-0.159-0.395-0.424-0.469-0.798c-0.215,0.327-0.531,0.581-0.951,0.763c-0.42,0.182-0.892,0.273-1.415,0.273
			c-0.681,0-1.232-0.159-1.652-0.476s-0.63-0.77-0.63-1.358c0-0.551,0.229-1.015,0.686-1.393c0.457-0.378,1.139-0.646,2.044-0.805
			l1.779-0.308v-0.378c0-0.429-0.127-0.768-0.379-1.015c-0.252-0.248-0.602-0.371-1.05-0.371c-0.924,0-1.526,0.42-1.806,1.26
			l-1.162-0.616c0.168-0.56,0.511-1.003,1.029-1.33s1.155-0.49,1.911-0.49c0.906,0,1.625,0.21,2.156,0.63
			c0.531,0.42,0.799,1.036,0.799,1.848v3.164c0,0.177,0.039,0.308,0.117,0.392c0.08,0.084,0.213,0.126,0.4,0.126
			C63.641,14.803,63.812,14.785,63.953,14.747z M60.846,14.425c0.383-0.243,0.574-0.564,0.574-0.966v-0.84l-1.527,0.308
			c-0.485,0.093-0.845,0.224-1.078,0.392s-0.35,0.392-0.35,0.672c0,0.261,0.091,0.46,0.273,0.595
			c0.182,0.135,0.441,0.203,0.777,0.203C60.02,14.789,60.463,14.668,60.846,14.425z"/>
		<path fill="#4C4E4F" d="M71.311,9.315c0.49,0.448,0.734,1.092,0.734,1.932v4.536h-1.498v-4.06c0-1.232-0.5-1.848-1.498-1.848
			c-0.523,0-0.971,0.18-1.344,0.539c-0.373,0.359-0.561,0.913-0.561,1.659v3.71h-1.498v-7h1.33l0.07,1.162
			c0.232-0.438,0.555-0.765,0.967-0.98c0.41-0.215,0.877-0.322,1.398-0.322C70.188,8.643,70.82,8.867,71.311,9.315z"/>
		<path fill="#4C4E4F" d="M75.244,15.559c-0.547-0.243-0.959-0.611-1.238-1.106l1.008-0.868c0.176,0.402,0.451,0.696,0.826,0.882
			c0.373,0.187,0.82,0.28,1.344,0.28c0.475,0,0.844-0.077,1.105-0.231c0.262-0.154,0.393-0.357,0.393-0.609
			c0-0.224-0.121-0.404-0.365-0.539c-0.242-0.135-0.662-0.264-1.26-0.385c-1.035-0.196-1.764-0.458-2.184-0.784
			s-0.631-0.789-0.631-1.386c0-0.382,0.117-0.739,0.352-1.071c0.232-0.331,0.57-0.597,1.014-0.798s0.969-0.301,1.576-0.301
			c0.773,0,1.395,0.128,1.861,0.385s0.826,0.656,1.078,1.197l-1.064,0.784c-0.168-0.411-0.402-0.711-0.707-0.903
			c-0.303-0.191-0.688-0.287-1.154-0.287c-0.42,0-0.768,0.086-1.043,0.259c-0.275,0.173-0.414,0.371-0.414,0.595
			c0,0.252,0.125,0.453,0.371,0.602c0.248,0.149,0.699,0.285,1.352,0.406c0.99,0.177,1.689,0.43,2.1,0.756
			c0.412,0.327,0.617,0.784,0.617,1.372c0,0.625-0.271,1.134-0.812,1.526c-0.541,0.392-1.287,0.588-2.24,0.588
			C76.418,15.923,75.791,15.802,75.244,15.559z"/>
		<path fill="#4C4E4F" d="M16.731,32.583H15.36v-5.348l0.098-2.548h-0.014l-2.814,7.896h-1.246L8.57,24.687H8.556l0.112,2.548v5.348
			H7.282v-9.24h2.226l1.862,5.348l0.644,2.198h0.028l0.658-2.198l1.848-5.348h2.184V32.583z"/>
		<path fill="#4C4E4F" d="M25.649,29.643h-5.124c0.084,0.616,0.303,1.085,0.658,1.407c0.354,0.322,0.812,0.483,1.372,0.483
			c0.457,0,0.837-0.082,1.141-0.245c0.303-0.163,0.511-0.399,0.623-0.707l1.246,0.518c-0.522,1.083-1.526,1.624-3.01,1.624
			c-1.102,0-1.962-0.322-2.583-0.966s-0.931-1.535-0.931-2.674c0-1.148,0.299-2.042,0.896-2.681c0.597-0.639,1.438-0.959,2.52-0.959
			c1.027,0,1.825,0.313,2.394,0.938c0.569,0.625,0.854,1.456,0.854,2.492C25.706,29.144,25.687,29.4,25.649,29.643z M21.148,27.109
			c-0.331,0.317-0.539,0.779-0.623,1.386h3.78c-0.075-0.588-0.273-1.045-0.595-1.372c-0.322-0.327-0.74-0.49-1.253-0.49
			C21.916,26.633,21.48,26.792,21.148,27.109z"/>
		<path fill="#4C4E4F" d="M34.344,22.433v10.15h-1.316l-0.084-1.246c-0.206,0.42-0.516,0.756-0.931,1.008
			c-0.416,0.252-0.889,0.378-1.421,0.378c-0.961,0-1.72-0.32-2.275-0.959c-0.556-0.639-0.833-1.528-0.833-2.667
			s0.277-2.032,0.833-2.681c0.555-0.648,1.313-0.973,2.275-0.973c0.513,0,0.966,0.115,1.358,0.343s0.69,0.539,0.896,0.931v-4.284
			H34.344z M32.328,30.889c0.345-0.42,0.518-0.994,0.518-1.722v-0.168c0-0.728-0.173-1.3-0.518-1.715
			c-0.345-0.416-0.812-0.623-1.4-0.623c-0.607,0-1.081,0.212-1.421,0.637c-0.341,0.425-0.511,1.02-0.511,1.785
			c0,0.766,0.17,1.363,0.511,1.792c0.34,0.429,0.814,0.644,1.421,0.644C31.516,31.519,31.982,31.309,32.328,30.889z"/>
		<path fill="#4C4E4F" d="M36.961,24.162c-0.177-0.163-0.266-0.395-0.266-0.693c0-0.299,0.088-0.527,0.266-0.686
			s0.425-0.238,0.742-0.238s0.562,0.08,0.735,0.238s0.259,0.387,0.259,0.686c0,0.298-0.086,0.53-0.259,0.693
			s-0.417,0.245-0.735,0.245S37.139,24.325,36.961,24.162z M38.446,32.583h-1.498v-7h1.498V32.583z"/>
		<path fill="#4C4E4F" d="M47.405,25.583v7h-1.33l-0.056-1.134c-0.476,0.849-1.307,1.274-2.492,1.274
			c-0.756,0-1.365-0.208-1.827-0.623c-0.462-0.415-0.693-1.052-0.693-1.911v-4.606h1.498v4.214c0,0.616,0.121,1.053,0.364,1.309
			c0.243,0.257,0.602,0.385,1.078,0.385c0.569,0,1.038-0.18,1.407-0.539c0.369-0.359,0.553-0.889,0.553-1.589v-3.78H47.405z"/>
		<path fill="#4C4E4F" d="M59.739,25.73c0.392,0.191,0.704,0.483,0.938,0.875c0.232,0.392,0.35,0.873,0.35,1.442v4.536h-1.498
			v-4.298c0-0.551-0.131-0.957-0.392-1.218c-0.261-0.261-0.611-0.392-1.05-0.392c-0.514,0-0.945,0.187-1.295,0.56
			c-0.35,0.374-0.525,0.887-0.525,1.54v3.808h-1.498v-4.298c0-0.551-0.131-0.957-0.392-1.218c-0.261-0.261-0.611-0.392-1.05-0.392
			c-0.299,0-0.588,0.077-0.868,0.231c-0.28,0.154-0.509,0.394-0.686,0.721s-0.266,0.737-0.266,1.232v3.724h-1.498v-7h1.33
			l0.07,1.162c0.233-0.429,0.551-0.754,0.952-0.973c0.401-0.219,0.84-0.329,1.316-0.329c0.522,0,0.996,0.119,1.421,0.357
			c0.425,0.238,0.74,0.586,0.945,1.043c0.215-0.457,0.544-0.805,0.987-1.043c0.443-0.238,0.917-0.357,1.421-0.357
			C58.918,25.443,59.347,25.539,59.739,25.73z"/>
	</g>
</g>
<g id="Group_1_1_">
	<g id="Shape_1">
		<g>
			<rect x="3.473" y="72.918" fill="#292C34" width="28.567" height="28.567"/>
		</g>
	</g>
	<g id="Shape_1_copy">
		<g>
			<rect x="31.176" y="72.918" fill="#1E2128" width="28.567" height="28.567"/>
		</g>
	</g>
	<g id="Shape_1_copy_2">
		<g>
			<rect x="59.531" y="72.918" fill="#4C4F54" width="28.567" height="28.567"/>
		</g>
	</g>
	<g id="Shape_1_copy_3">
		<g>
			<rect x="87.959" y="72.918" fill="#DD8112" width="28.566" height="28.567"/>
		</g>
	</g>
</g>
</svg>
