<?xml version="1.0" encoding="utf-8"?>
<!-- Generator: Adobe Illustrator 23.0.1, SVG Export Plug-In . SVG Version: 6.00 Build 0)  -->
<svg version="1.1" id="Layer_1" xmlns="http://www.w3.org/2000/svg" xmlns:xlink="http://www.w3.org/1999/xlink" x="0px" y="0px"
	 viewBox="0 0 492.2 294.4" style="enable-background:new 0 0 492.2 294.4;" xml:space="preserve">
<style type="text/css">
	.st0{opacity:0.5;fill:url(#SVGID_1_);}
	.st1{opacity:0.5;fill:url(#SVGID_2_);}
	.st2{opacity:0.5;fill:url(#SVGID_3_);}
	.st3{opacity:0.5;fill:url(#SVGID_4_);}
	.st4{opacity:0.5;fill:url(#SVGID_5_);}
</style>
<title>lotus</title>
<g>
	<g>
		<linearGradient id="SVGID_1_" gradientUnits="userSpaceOnUse" x1="71.0488" y1="159.8482" x2="216.719" y2="165.5448">
			<stop  offset="0" style="stop-color:#E898B0"/>
			<stop  offset="1" style="stop-color:#EDB5A5"/>
		</linearGradient>
		<path class="st0" d="M230.5,127.3C201.9,80.8,125.6,43.4,97.6,42.8c-12,25.3-12.7,110.2,16,156.6c0.1,0.1,0.2,0.3,0.3,0.4
			c0.1,0.1,0.2,0.3,0.3,0.5c28.7,46.4,104.9,83.9,132.9,84.4c12-25.3,12.7-110.2-16-156.6c-0.1-0.1-0.2-0.3-0.3-0.4
			C230.7,127.6,230.6,127.4,230.5,127.3z"/>
		<g>
			<linearGradient id="SVGID_2_" gradientUnits="userSpaceOnUse" x1="51.3851" y1="209.0888" x2="262.1593" y2="223.7372">
				<stop  offset="0" style="stop-color:#E898B0"/>
				<stop  offset="1" style="stop-color:#EDB5A5"/>
			</linearGradient>
			<path class="st1" d="M157.1,154.2C109.7,127.1,24.8,130.7,0,143.6c1.5,27.9,41.6,102.8,89,129.9c0.2,0.1,0.3,0.2,0.5,0.3
				c0.2,0.1,0.3,0.2,0.5,0.3c47.4,27.1,132.3,23.4,157.1,10.6c-1.5-27.9-41.6-102.8-89-129.9c-0.2-0.1-0.3-0.2-0.5-0.3
				C157.4,154.4,157.3,154.3,157.1,154.2z"/>
		</g>
	</g>
	<g>
		
			<linearGradient id="SVGID_3_" gradientUnits="userSpaceOnUse" x1="188.5197" y1="159.8482" x2="334.1898" y2="165.5448" gradientTransform="matrix(-1 0 0 1 609.6716 0)">
			<stop  offset="0" style="stop-color:#E898B0"/>
			<stop  offset="1" style="stop-color:#EDB5A5"/>
		</linearGradient>
		<path class="st2" d="M261.7,127.3c28.7-46.4,104.9-83.9,132.9-84.4c12,25.3,12.7,110.2-16,156.6c-0.1,0.1-0.2,0.3-0.3,0.4
			c-0.1,0.1-0.2,0.3-0.3,0.5c-28.7,46.4-104.9,83.9-132.9,84.4c-12-25.3-12.7-110.2,16-156.6c0.1-0.1,0.2-0.3,0.3-0.4
			C261.5,127.6,261.6,127.4,261.7,127.3z"/>
		<g>
			
				<linearGradient id="SVGID_4_" gradientUnits="userSpaceOnUse" x1="168.8559" y1="209.0888" x2="379.6301" y2="223.7372" gradientTransform="matrix(-1 0 0 1 609.6716 0)">
				<stop  offset="0" style="stop-color:#E898B0"/>
				<stop  offset="1" style="stop-color:#EDB5A5"/>
			</linearGradient>
			<path class="st3" d="M335.1,154.2c47.4-27.1,132.3-23.4,157.1-10.6c-1.5,27.9-41.6,102.8-89,129.9c-0.2,0.1-0.3,0.2-0.5,0.3
				c-0.2,0.1-0.3,0.2-0.5,0.3c-47.4,27.1-132.3,23.4-157.1,10.6c1.5-27.9,41.6-102.8,89-129.9c0.2-0.1,0.3-0.2,0.5-0.3
				C334.8,154.4,334.9,154.3,335.1,154.2z"/>
		</g>
	</g>
	<linearGradient id="SVGID_5_" gradientUnits="userSpaceOnUse" x1="247.0965" y1="24.0023" x2="247.0965" y2="442.9471">
		<stop  offset="0" style="stop-color:#E898B0"/>
		<stop  offset="1" style="stop-color:#EDB5A5"/>
	</linearGradient>
	<path class="st4" d="M315.8,141.7c0-54.6-45.2-126.5-68.7-141.7c-23.5,15.2-68.7,87.1-68.7,141.7c0,0.2,0,0.4,0,0.5
		c0,0.2,0,0.4,0,0.5c0,54.6,45.2,126.5,68.7,141.7c23.5-15.2,68.7-87.1,68.7-141.7c0-0.2,0-0.4,0-0.5
		C315.8,142,315.8,141.9,315.8,141.7z"/>
</g>
</svg>
