<?xml version="1.0" encoding="UTF-8"?>
<svg width="1747px" height="295px" viewBox="0 0 1747 295" version="1.1" xmlns="http://www.w3.org/2000/svg" xmlns:xlink="http://www.w3.org/1999/xlink">
    <!-- Generator: Sketch 54.1 (76490) - https://sketchapp.com -->
    <title>lotus</title>
    <desc>Created with Sketch.</desc>
    <defs>
        <linearGradient x1="21.4126749%" y1="48.3628359%" x2="62.5219206%" y2="50.7177759%" id="linearGradient-1">
            <stop stop-color="#E898B0" offset="0%"></stop>
            <stop stop-color="#EDB5A5" offset="100%"></stop>
        </linearGradient>
        <linearGradient x1="20.7944152%" y1="48.6810942%" x2="106.093565%" y2="52.5362448%" id="linearGradient-2">
            <stop stop-color="#E898B0" offset="0%"></stop>
            <stop stop-color="#EDB5A5" offset="100%"></stop>
        </linearGradient>
        <linearGradient x1="78.5886233%" y1="48.3622985%" x2="37.4794058%" y2="50.7172385%" id="linearGradient-3">
            <stop stop-color="#E898B0" offset="0%"></stop>
            <stop stop-color="#EDB5A5" offset="100%"></stop>
        </linearGradient>
        <linearGradient x1="79.2063537%" y1="48.6803325%" x2="-6.09279644%" y2="52.534511%" id="linearGradient-4">
            <stop stop-color="#E898B0" offset="0%"></stop>
            <stop stop-color="#EDB5A5" offset="100%"></stop>
        </linearGradient>
        <linearGradient x1="50%" y1="8.43962729%" x2="50%" y2="155.747925%" id="linearGradient-5">
            <stop stop-color="#E898B0" offset="0%"></stop>
            <stop stop-color="#EDB5A5" offset="100%"></stop>
        </linearGradient>
    </defs>
    <g id="Page-1" stroke="none" stroke-width="1" fill="none" fill-rule="evenodd">
        <g id="lotus" fill-rule="nonzero">
            <g id="Group" opacity="0.5">
                <g transform="translate(0.000000, 42.000000)" id="Path">
                    <path d="M230.5,85.3 C201.9,38.8 125.6,1.4 97.6,0.8 C85.6,26.1 84.9,111 113.6,157.4 C113.7,157.5 113.8,157.7 113.9,157.8 C114,157.9 114.1,158.1 114.2,158.3 C142.9,204.7 219.1,242.2 247.1,242.7 C259.1,217.4 259.8,132.5 231.1,86.1 C231,86 230.9,85.8 230.8,85.7 C230.7,85.6 230.6,85.4 230.5,85.3 Z" fill="url(#linearGradient-1)"></path>
                    <path d="M157.1,112.2 C109.7,85.1 24.8,88.7 0,101.6 C1.5,129.5 41.6,204.4 89,231.5 C89.2,231.6 89.3,231.7 89.5,231.8 C89.7,231.9 89.8,232 90,232.1 C137.4,259.2 222.3,255.5 247.1,242.7 C245.6,214.8 205.5,139.9 158.1,112.8 C157.9,112.7 157.8,112.6 157.6,112.5 C157.4,112.4 157.3,112.3 157.1,112.2 Z" fill="url(#linearGradient-2)"></path>
                </g>
                <g transform="translate(237.000000, 42.000000)" id="Path">
                    <path d="M24.7,85.3 C53.4,38.9 129.6,1.4 157.6,0.9 C169.6,26.2 170.3,111.1 141.6,157.5 C141.5,157.6 141.4,157.8 141.3,157.9 C141.2,158 141.1,158.2 141,158.4 C112.3,204.8 36.1,242.3 8.1,242.8 C-3.9,217.5 -4.6,132.6 24.1,86.2 C24.2,86.1 24.3,85.9 24.4,85.8 C24.5,85.6 24.6,85.4 24.7,85.3 Z" fill="url(#linearGradient-3)"></path>
                    <path d="M98.1,112.2 C145.5,85.1 230.4,88.8 255.2,101.6 C253.7,129.5 213.6,204.4 166.2,231.5 C166,231.6 165.9,231.7 165.7,231.8 C165.5,231.9 165.4,232 165.2,232.1 C117.8,259.2 32.9,255.5 8.1,242.7 C9.6,214.8 49.7,139.9 97.1,112.8 C97.3,112.7 97.4,112.6 97.6,112.5 C97.8,112.4 97.9,112.3 98.1,112.2 Z" fill="url(#linearGradient-4)"></path>
                </g>
                <path d="M315.8,141.7 C315.8,87.1 270.6,15.2 247.1,0 C223.6,15.2 178.4,87.1 178.4,141.7 C178.4,141.9 178.4,142.1 178.4,142.2 C178.4,142.4 178.4,142.6 178.4,142.7 C178.4,197.3 223.6,269.2 247.1,284.4 C270.6,269.2 315.8,197.3 315.8,142.7 C315.8,142.5 315.8,142.3 315.8,142.2 C315.8,142 315.8,141.9 315.8,141.7 Z" id="Path" fill="url(#linearGradient-5)"></path>
            </g>
            <g id="Group" transform="translate(638.000000, 55.000000)" fill="#222328">
                <polygon id="Path" points="47.6 24.5 0.3 24.5 0.3 0.4 122.2 0.4 122.2 24.5 75 24.5 75 156.4 47.6 156.4"></polygon>
                <path d="M127.2,43.4 L151.8,43.4 L151.8,60 C160.2,49.2 173.8,40.8 188.5,40.8 L188.5,65.1 C186.4,64.6 183.8,64.4 180.8,64.4 C170.5,64.4 156.7,71.4 151.8,79.4 L151.8,156.4 L127.2,156.4 L127.2,43.4 Z" id="Path"></path>
                <path d="M287.9,141 C279.2,152.2 266.1,159.2 251.6,159.2 C222.6,159.2 201.3,137.2 201.3,100 C201.3,63.5 222.4,40.6 251.6,40.6 C265.6,40.6 279,47.1 287.9,59.1 L287.9,43.4 L312.5,43.4 L312.5,156.4 L287.9,156.4 L287.9,141 Z M287.9,77.8 C282.3,69.4 270.4,62.6 258.7,62.6 C239.3,62.6 226.9,78 226.9,100 C226.9,121.8 239.3,137.4 258.7,137.4 C270.4,137.4 282.3,130.9 287.9,122.4 L287.9,77.8 Z" id="Shape"></path>
                <path d="M420.5,85.8 C420.5,68.3 411.6,62.4 397.8,62.4 C385.2,62.4 374.4,69.9 368.8,77.6 L368.8,156.4 L344.2,156.4 L344.2,43.4 L368.8,43.4 L368.8,58.8 C376.3,49.9 390.8,40.6 408.6,40.6 C432.9,40.6 445.1,53.7 445.1,76.9 L445.1,156.4 L420.5,156.4 L420.5,85.8 Z" id="Path"></path>
                <path d="M487,167.6 C496.1,178.1 507.8,182.1 522.8,182.1 C538.9,182.1 556.3,174.6 556.3,151.5 L556.3,137.9 C547.6,149.1 534.8,156.6 520,156.6 C491.2,156.6 469.9,135.8 469.9,98.6 C469.9,62.1 491,40.6 520,40.6 C534.3,40.6 547.1,47.1 556.3,59.1 L556.3,43.4 L580.9,43.4 L580.9,150.5 C580.9,191.2 550.7,202.2 522.9,202.2 C503.7,202.2 489.4,198 475.6,185.4 L487,167.6 Z M556.2,77.6 C550.8,69.2 538.7,62.4 527.2,62.4 C507.8,62.4 495.4,76.9 495.4,98.7 C495.4,120.5 507.8,135 527.2,135 C538.7,135 550.8,128.2 556.2,119.8 L556.2,77.6 Z" id="Shape"></path>
                <polygon id="Path" points="710.6 24.5 663.3 24.5 663.3 0.4 785.2 0.4 785.2 24.5 738 24.5 738 156.4 710.6 156.4"></polygon>
                <path d="M790.1,43.4 L814.7,43.4 L814.7,60 C823.1,49.2 836.7,40.8 851.4,40.8 L851.4,65.1 C849.3,64.6 846.7,64.4 843.7,64.4 C833.4,64.4 819.6,71.4 814.7,79.4 L814.7,156.4 L790.1,156.4 L790.1,43.4 Z" id="Path"></path>
                <path d="M950.9,141 C942.2,152.2 929.1,159.2 914.6,159.2 C885.6,159.2 864.3,137.2 864.3,100 C864.3,63.5 885.4,40.6 914.6,40.6 C928.6,40.6 942,47.1 950.9,59.1 L950.9,43.4 L975.5,43.4 L975.5,156.4 L950.9,156.4 L950.9,141 Z M950.9,77.8 C945.3,69.4 933.4,62.6 921.7,62.6 C902.3,62.6 889.9,78 889.9,100 C889.9,121.8 902.3,137.4 921.7,137.4 C933.4,137.4 945.3,130.9 950.9,122.4 L950.9,77.8 Z" id="Shape"></path>
                <path d="M1083.5,85.8 C1083.5,68.3 1074.6,62.4 1060.8,62.4 C1048.2,62.4 1037.4,69.9 1031.8,77.6 L1031.8,156.4 L1007.2,156.4 L1007.2,43.4 L1031.8,43.4 L1031.8,58.8 C1039.3,49.9 1053.8,40.6 1071.6,40.6 C1095.9,40.6 1108.1,53.7 1108.1,76.9 L1108.1,156.4 L1083.5,156.4 L1083.5,85.8 Z" id="Path"></path>
            </g>
        </g>
    </g>
</svg>