<?xml version="1.0" encoding="UTF-8"?>
<svg width="275px" height="45px" viewBox="0 0 275 45" version="1.1" xmlns="http://www.w3.org/2000/svg" xmlns:xlink="http://www.w3.org/1999/xlink">
    <!-- Generator: Sketch 54.1 (76490) - https://sketchapp.com -->
    <title>Group 2</title>
    <desc>Created with Sketch.</desc>
    <defs>
        <linearGradient x1="20.3970609%" y1="48.3870194%" x2="62.9658168%" y2="50.7419595%" id="linearGradient-1">
            <stop stop-color="#E898B0" offset="0%"></stop>
            <stop stop-color="#EDB5A5" offset="100%"></stop>
        </linearGradient>
        <linearGradient x1="20.7952651%" y1="48.7188165%" x2="106.094415%" y2="52.4417896%" id="linearGradient-2">
            <stop stop-color="#E898B0" offset="0%"></stop>
            <stop stop-color="#EDB5A5" offset="100%"></stop>
        </linearGradient>
        <linearGradient x1="79.3723208%" y1="48.34568%" x2="37.1355127%" y2="50.7006201%" id="linearGradient-3">
            <stop stop-color="#E898B0" offset="0%"></stop>
            <stop stop-color="#EDB5A5" offset="100%"></stop>
        </linearGradient>
        <linearGradient x1="79.2050587%" y1="48.7038858%" x2="-6.09409146%" y2="52.4551699%" id="linearGradient-4">
            <stop stop-color="#E898B0" offset="0%"></stop>
            <stop stop-color="#EDB5A5" offset="100%"></stop>
        </linearGradient>
        <linearGradient x1="49.9974527%" y1="8.43962729%" x2="49.9974527%" y2="155.747925%" id="linearGradient-5">
            <stop stop-color="#E898B0" offset="0%"></stop>
            <stop stop-color="#EDB5A5" offset="100%"></stop>
        </linearGradient>
    </defs>
    <g id="Page-1" stroke="none" stroke-width="1" fill="none" fill-rule="evenodd">
        <g id="Group-2" fill-rule="nonzero">
            <g id="Group-6-Copy-2" fill-opacity="0.5">
                <g id="Group-5" transform="translate(0.000000, 6.000000)">
                    <g id="Group" transform="translate(0.000000, 0.025127)">
                        <path d="M36.1568627,13.1490119 C31.6705882,5.98102767 19.7019608,0.215810277 15.3098039,0.123320158 C13.427451,4.02332016 13.3176471,17.1106719 17.8196078,24.2632411 C17.8352941,24.2786561 17.8509804,24.3094862 17.8666667,24.3249012 C17.8823529,24.3403162 17.8980392,24.3711462 17.9137255,24.4019763 C22.4156863,31.5545455 34.3686275,37.3351779 38.7607843,37.412253 C40.6431373,33.512253 40.7529412,20.4249012 36.2509804,13.272332 C36.2352941,13.256917 36.2196078,13.226087 36.2039216,13.2106719 C36.1882353,13.1952569 36.172549,13.1644269 36.1568627,13.1490119 Z" id="Path" fill="url(#linearGradient-1)"></path>
                        <path d="M24.6431373,17.2956522 C17.2078431,13.1181818 3.89019608,13.6731225 0,15.6616601 C0.235294118,19.9624506 6.5254902,31.5083004 13.9607843,35.6857708 C13.9921569,35.7011858 14.0078431,35.7166008 14.0392157,35.7320158 C14.0705882,35.7474308 14.0862745,35.7628458 14.1176471,35.7782609 C21.5529412,39.9557312 34.8705882,39.3853755 38.7607843,37.412253 C38.5254902,33.1114625 32.2352941,21.5656126 24.8,17.3881423 C24.7686275,17.3727273 24.7529412,17.3573123 24.7215686,17.3418972 C24.6901961,17.3264822 24.6745098,17.3110672 24.6431373,17.2956522 Z" id="Path" fill="url(#linearGradient-2)"></path>
                    </g>
                    <g id="Group" transform="translate(38.000000, 0.000000)">
                        <path d="M3.859375,13.1490119 C8.34375,5.99644269 20.25,0.215810277 24.625,0.138735178 C26.5,4.03873518 26.609375,17.126087 22.125,24.2786561 C22.109375,24.2940711 22.09375,24.3249012 22.078125,24.3403162 C22.0625,24.3557312 22.046875,24.3865613 22.03125,24.4173913 C17.546875,31.5699605 5.640625,37.3505929 1.265625,37.427668 C-0.609375,33.527668 -0.71875,20.4403162 3.765625,13.287747 C3.78125,13.272332 3.796875,13.241502 3.8125,13.226087 C3.828125,13.1952569 3.84375,13.1644269 3.859375,13.1490119 Z" id="Path" fill="url(#linearGradient-3)"></path>
                        <path d="M15.328125,17.2956522 C22.734375,13.1181818 36,13.6885375 39.875,15.6616601 C39.640625,19.9624506 33.375,31.5083004 25.96875,35.6857708 C25.9375,35.7011858 25.921875,35.7166008 25.890625,35.7320158 C25.859375,35.7474308 25.84375,35.7628458 25.8125,35.7782609 C18.40625,39.9557312 5.140625,39.3853755 1.265625,37.412253 C1.5,33.1114625 7.765625,21.5656126 15.171875,17.3881423 C15.203125,17.3727273 15.21875,17.3573123 15.25,17.3418972 C15.28125,17.3264822 15.296875,17.3110672 15.328125,17.2956522 Z" id="Path" fill="url(#linearGradient-4)"></path>
                    </g>
                </g>
                <path d="M49.5,21.9226442 C49.5,13.4753868 42.5917031,2.35161744 39,0 C35.4082969,2.35161744 28.5,13.4753868 28.5,21.9226442 C28.5,21.9535865 28.5,21.9845288 28.5,22 C28.5,22.0309423 28.5,22.0618847 28.5,22.0773558 C28.5,30.5246132 35.4082969,41.6483826 39,44 C42.5917031,41.6483826 49.5,30.5246132 49.5,22.0773558 C49.5,22.0464135 49.5,22.0154712 49.5,22 C49.5,21.9690577 49.5,21.9535865 49.5,21.9226442 Z" id="Path" fill="url(#linearGradient-5)"></path>
            </g>
            <path d="M103.0553,34 L103.0553,13.396 L95.1673,13.396 L95.1673,9.792 L115.3973,9.792 L115.3973,13.396 L107.4753,13.396 L107.4753,34 L103.0553,34 Z M127.3653,16.422 C128.022637,16.422 128.589298,16.5126658 129.0653,16.694 L129.0313,20.57 C128.305963,20.2753319 127.557971,20.128 126.7873,20.128 C125.336626,20.128 124.231637,20.5473291 123.4723,21.386 C122.712963,22.2246709 122.3333,23.3353264 122.3333,24.718 L122.3333,34 L118.1173,34 L118.1173,21.692 C118.1173,19.8786576 118.026634,18.2580071 117.8453,16.83 L121.8233,16.83 L122.1633,19.856 C122.593969,18.7453278 123.273962,17.8953363 124.2033,17.306 C125.132638,16.7166637 126.186627,16.422 127.3653,16.422 Z M147.8673,16.83 L147.8673,34 L143.6853,34 L143.6853,31.246 C143.163964,32.1980048 142.415972,32.9403307 141.4413,33.473 C140.466628,34.0056693 139.355973,34.272 138.1093,34.272 C136.613293,34.272 135.287306,33.909337 134.1313,33.184 C132.975294,32.458663 132.07997,31.42734 131.4453,30.09 C130.81063,28.75266 130.4933,27.2000088 130.4933,25.432 C130.4933,23.6639912 130.816297,22.0943402 131.4623,20.723 C132.108303,19.3516598 133.009294,18.2863371 134.1653,17.527 C135.321306,16.7676629 136.635959,16.388 138.1093,16.388 C139.355973,16.388 140.466628,16.6543307 141.4413,17.187 C142.415972,17.7196693 143.163964,18.4619952 143.6853,19.414 L143.6853,16.83 L147.8673,16.83 Z M139.2653,30.94 C140.67064,30.94 141.758629,30.4526715 142.5293,29.478 C143.299971,28.5033285 143.6853,27.1320088 143.6853,25.364 C143.6853,23.5506576 143.299971,22.1566715 142.5293,21.182 C141.758629,20.2073285 140.659307,19.72 139.2313,19.72 C137.82596,19.72 136.732304,20.2243283 135.9503,21.233 C135.168296,22.2416717 134.7773,23.6413244 134.7773,25.432 C134.7773,27.2000088 135.168296,28.5599952 135.9503,29.512 C136.732304,30.4640048 137.837293,30.94 139.2653,30.94 Z M162.3173,16.388 C166.419987,16.388 168.4713,18.7453098 168.4713,23.46 L168.4713,34 L164.2213,34 L164.2213,23.664 C164.2213,22.3039932 163.960636,21.3123365 163.4393,20.689 C162.917964,20.0656636 162.113305,19.754 161.0253,19.754 C159.733294,19.754 158.690637,20.1676625 157.8973,20.995 C157.103963,21.8223375 156.7073,22.9159932 156.7073,24.276 L156.7073,34 L152.4913,34 L152.4913,21.692 C152.4913,19.8786576 152.400634,18.2580071 152.2193,16.83 L156.1973,16.83 L156.5033,19.652 C157.092636,18.6093281 157.891628,17.8046695 158.9003,17.238 C159.908972,16.6713305 161.04796,16.388 162.3173,16.388 Z M189.5853,16.83 L189.5853,33.456 C189.5853,36.13068 188.848641,38.1593264 187.3753,39.542 C185.901959,40.9246736 183.737314,41.616 180.8813,41.616 C178.229287,41.616 175.894643,41.0606722 173.8773,39.95 L174.5573,36.72 C176.642644,37.8080054 178.716623,38.352 180.7793,38.352 C183.839315,38.352 185.3693,36.8333485 185.3693,33.796 L185.3693,30.396 C184.847964,31.325338 184.088638,32.0789971 183.0913,32.657 C182.093962,33.2350029 180.971973,33.524 179.7253,33.524 C178.229293,33.524 176.897639,33.1670036 175.7303,32.453 C174.562961,31.7389964 173.656303,30.7303399 173.0103,29.427 C172.364297,28.1236602 172.0413,26.6333417 172.0413,24.956 C172.0413,23.2786583 172.364297,21.7883399 173.0103,20.485 C173.656303,19.1816602 174.562961,18.1730036 175.7303,17.459 C176.897639,16.7449964 178.229293,16.388 179.7253,16.388 C180.99464,16.388 182.122295,16.6543307 183.1083,17.187 C184.094305,17.7196693 184.847964,18.4619952 185.3693,19.414 L185.3693,16.83 L189.5853,16.83 Z M180.8473,30.192 C182.25264,30.192 183.357629,29.727338 184.1623,28.798 C184.966971,27.868662 185.3693,26.5880082 185.3693,24.956 C185.3693,23.3239918 184.972637,22.043338 184.1793,21.114 C183.385963,20.184662 182.275307,19.72 180.8473,19.72 C179.44196,19.72 178.336971,20.184662 177.5323,21.114 C176.727629,22.043338 176.3253,23.3239918 176.3253,24.956 C176.3253,26.5880082 176.727629,27.868662 177.5323,28.798 C178.336971,29.727338 179.44196,30.192 180.8473,30.192 Z M209.4753,34 L209.4753,13.396 L201.5873,13.396 L201.5873,9.792 L221.8173,9.792 L221.8173,13.396 L213.8953,13.396 L213.8953,34 L209.4753,34 Z M233.7853,16.422 C234.442637,16.422 235.009298,16.5126658 235.4853,16.694 L235.4513,20.57 C234.725963,20.2753319 233.977971,20.128 233.2073,20.128 C231.756626,20.128 230.651637,20.5473291 229.8923,21.386 C229.132963,22.2246709 228.7533,23.3353264 228.7533,24.718 L228.7533,34 L224.5373,34 L224.5373,21.692 C224.5373,19.8786576 224.446634,18.2580071 224.2653,16.83 L228.2433,16.83 L228.5833,19.856 C229.013969,18.7453278 229.693962,17.8953363 230.6233,17.306 C231.552638,16.7166637 232.606627,16.422 233.7853,16.422 Z M254.2873,16.83 L254.2873,34 L250.1053,34 L250.1053,31.246 C249.583964,32.1980048 248.835972,32.9403307 247.8613,33.473 C246.886628,34.0056693 245.775973,34.272 244.5293,34.272 C243.033293,34.272 241.707306,33.909337 240.5513,33.184 C239.395294,32.458663 238.49997,31.42734 237.8653,30.09 C237.23063,28.75266 236.9133,27.2000088 236.9133,25.432 C236.9133,23.6639912 237.236297,22.0943402 237.8823,20.723 C238.528303,19.3516598 239.429294,18.2863371 240.5853,17.527 C241.741306,16.7676629 243.055959,16.388 244.5293,16.388 C245.775973,16.388 246.886628,16.6543307 247.8613,17.187 C248.835972,17.7196693 249.583964,18.4619952 250.1053,19.414 L250.1053,16.83 L254.2873,16.83 Z M245.6853,30.94 C247.09064,30.94 248.178629,30.4526715 248.9493,29.478 C249.719971,28.5033285 250.1053,27.1320088 250.1053,25.364 C250.1053,23.5506576 249.719971,22.1566715 248.9493,21.182 C248.178629,20.2073285 247.079307,19.72 245.6513,19.72 C244.24596,19.72 243.152304,20.2243283 242.3703,21.233 C241.588296,22.2416717 241.1973,23.6413244 241.1973,25.432 C241.1973,27.2000088 241.588296,28.5599952 242.3703,29.512 C243.152304,30.4640048 244.257293,30.94 245.6853,30.94 Z M268.7373,16.388 C272.839987,16.388 274.8913,18.7453098 274.8913,23.46 L274.8913,34 L270.6413,34 L270.6413,23.664 C270.6413,22.3039932 270.380636,21.3123365 269.8593,20.689 C269.337964,20.0656636 268.533305,19.754 267.4453,19.754 C266.153294,19.754 265.110637,20.1676625 264.3173,20.995 C263.523963,21.8223375 263.1273,22.9159932 263.1273,24.276 L263.1273,34 L258.9113,34 L258.9113,21.692 C258.9113,19.8786576 258.820634,18.2580071 258.6393,16.83 L262.6173,16.83 L262.9233,19.652 C263.512636,18.6093281 264.311628,17.8046695 265.3203,17.238 C266.328972,16.6713305 267.46796,16.388 268.7373,16.388 Z" id="TrangTran" fill="#222328"></path>
        </g>
    </g>
</svg>