<svg id="Layer_1" data-name="Layer 1" xmlns="http://www.w3.org/2000/svg" xmlns:xlink="http://www.w3.org/1999/xlink" viewBox="0 0 495.51 341.88">
  <defs>
    <style>
      .cls-1 {
        opacity: 0.47;
      }

      .cls-2 {
        fill: url(#linear-gradient);
      }

      .cls-3 {
        fill: url(#linear-gradient-2);
      }

      .cls-4 {
        fill: url(#linear-gradient-3);
      }

      .cls-5 {
        fill: url(#linear-gradient-4);
      }

      .cls-6 {
        fill: url(#linear-gradient-5);
      }

      .cls-7 {
        fill: url(#linear-gradient-6);
      }
    </style>
    <linearGradient id="linear-gradient" x1="636.79" y1="137.99" x2="636.79" y2="581.64" gradientTransform="matrix(-0.8, -0.6, -0.6, 0.8, 1026.76, 296.17)" gradientUnits="userSpaceOnUse">
      <stop offset="0" stop-color="#e81a4a"/>
      <stop offset="1" stop-color="#2563af"/>
    </linearGradient>
    <linearGradient id="linear-gradient-2" x1="305.55" y1="-111.86" x2="305.55" y2="331.79" gradientTransform="translate(-116.35 296.17) rotate(-37.03)" xlink:href="#linear-gradient"/>
    <linearGradient id="linear-gradient-3" x1="227.79" y1="-543.66" x2="227.79" y2="-168.76" gradientTransform="matrix(0.35, -0.94, 0.94, 0.35, 401.37, 564.8)" xlink:href="#linear-gradient"/>
    <linearGradient id="linear-gradient-4" x1="414.54" y1="-49.79" x2="414.54" y2="325.11" gradientTransform="matrix(-0.35, -0.94, -0.94, 0.35, 622.14, 564.8)" xlink:href="#linear-gradient"/>
    <linearGradient id="linear-gradient-5" x1="247.75" y1="-30.04" x2="247.75" y2="420.54" gradientTransform="matrix(1, 0, 0, 1, 0, 0)" xlink:href="#linear-gradient"/>
    <linearGradient id="linear-gradient-6" x1="247.75" y1="-30.04" x2="247.75" y2="420.54" gradientUnits="userSpaceOnUse">
      <stop offset="0" stop-color="#e998b1"/>
      <stop offset="1" stop-color="#8b3d7a" stop-opacity="0.4"/>
    </linearGradient>
  </defs>
  <title>lotus</title>
  <g>
    <g>
      <g class="cls-1">
        <path class="cls-2" d="M417.47,46.48c12.18,87-37.62,204.32-72.18,250.13q-1.85,2.46-3.8,4.79c-37.36,44.77-90.81,40.92-126.73,13.83s-54.3-77.43-21.52-125.65c1.14-1.68,2.32-3.34,3.56-5C231.36,138.79,330.53,58.66,417.47,46.48Z"/>
      </g>
      <g class="cls-1">
        <path class="cls-3" d="M78,46.48c-12.18,87,37.62,204.32,72.17,250.13q1.86,2.46,3.8,4.79c37.37,44.77,90.82,40.92,126.74,13.83s54.3-77.43,21.52-125.65q-1.71-2.52-3.56-5C264.15,138.79,165,58.66,78,46.48Z"/>
      </g>
    </g>
    <g>
      <g class="cls-1">
        <path class="cls-4" d="M0,159.83c36.11,80,88.87,142.69,142.55,163,1.91.72,3.84,1.4,5.77,2C203.81,342.75,247,311,262.87,268.89s4.59-94.46-48.87-117.75c-1.86-.81-3.75-1.57-5.67-2.3C154.66,128.54,80,123.72,0,159.83Z"/>
      </g>
      <g class="cls-1">
        <path class="cls-5" d="M495.51,159.83c-36.11,80-88.87,142.69-142.55,163-1.92.72-3.84,1.4-5.77,2C291.7,342.75,248.55,311,232.64,268.89s-4.59-94.46,48.87-117.75c1.86-.81,3.75-1.57,5.66-2.3C340.85,128.54,415.48,123.72,495.51,159.83Z"/>
      </g>
    </g>
    <path class="cls-6" d="M247.75,0c-63,63.05-94.45,188.67-94.45,247q0,3.12.16,6.21c2.91,59.14,48.6,88.72,94.29,88.72s91.38-29.58,94.3-88.72q.15-3.09.15-6.21C342.2,188.67,310.8,63.05,247.75,0Z"/>
    <path class="cls-7" d="M247.75,0c-63,63.05-94.45,188.67-94.45,247q0,3.12.16,6.21c2.91,59.14,48.6,88.72,94.29,88.72s91.38-29.58,94.3-88.72q.15-3.09.15-6.21C342.2,188.67,310.8,63.05,247.75,0Z"/>
  </g>
</svg>
