<?xml version="1.0" encoding="utf-8"?>
<!-- Generator: Adobe Illustrator 23.0.1, SVG Export Plug-In . SVG Version: 6.00 Build 0)  -->
<svg version="1.1" id="Layer_1" xmlns="http://www.w3.org/2000/svg" xmlns:xlink="http://www.w3.org/1999/xlink" x="0px" y="0px"
	 viewBox="0 0 1796.1 294.5" style="enable-background:new 0 0 1796.1 294.5;" xml:space="preserve">
<style type="text/css">
	.st0{opacity:0.5;fill:url(#SVGID_1_);enable-background:new    ;}
	.st1{opacity:0.5;fill:url(#SVGID_2_);enable-background:new    ;}
	.st2{opacity:0.5;fill:url(#SVGID_3_);enable-background:new    ;}
	.st3{opacity:0.5;fill:url(#SVGID_4_);enable-background:new    ;}
	.st4{opacity:0.5;fill:url(#SVGID_5_);enable-background:new    ;}
	.st5{fill:#3A3A3A;}
</style>
<title>lotus</title>
<g>
	<g>
		
			<linearGradient id="SVGID_1_" gradientUnits="userSpaceOnUse" x1="71.0511" y1="136.2103" x2="216.7213" y2="130.5137" gradientTransform="matrix(1 0 0 -1 0 296)">
			<stop  offset="0" style="stop-color:#E898B0"/>
			<stop  offset="1" style="stop-color:#EDB5A5"/>
		</linearGradient>
		<path class="st0" d="M230.5,127.3C201.9,80.8,125.6,43.4,97.6,42.8c-12,25.3-12.7,110.2,16,156.6c0.1,0.1,0.2,0.3,0.3,0.4
			c0.1,0.1,0.2,0.3,0.3,0.5c28.7,46.4,104.9,83.9,132.9,84.4c12-25.3,12.7-110.2-16-156.6c-0.1-0.1-0.2-0.3-0.3-0.4
			C230.7,127.6,230.6,127.4,230.5,127.3z"/>
		<g>
			
				<linearGradient id="SVGID_2_" gradientUnits="userSpaceOnUse" x1="51.383" y1="86.8817" x2="262.1572" y2="72.2333" gradientTransform="matrix(1 0 0 -1 0 296)">
				<stop  offset="0" style="stop-color:#E898B0"/>
				<stop  offset="1" style="stop-color:#EDB5A5"/>
			</linearGradient>
			<path class="st1" d="M157.1,154.2C109.7,127.1,24.8,130.7,0,143.6c1.5,27.9,41.6,102.8,89,129.9c0.2,0.1,0.3,0.2,0.5,0.3
				c0.2,0.1,0.3,0.2,0.5,0.3c47.4,27.1,132.3,23.4,157.1,10.6c-1.5-27.9-41.6-102.8-89-129.9c-0.2-0.1-0.3-0.2-0.5-0.3
				C157.4,154.4,157.3,154.3,157.1,154.2z"/>
		</g>
	</g>
	<g>
		
			<linearGradient id="SVGID_3_" gradientUnits="userSpaceOnUse" x1="-341.4819" y1="136.1116" x2="-195.8118" y2="130.415" gradientTransform="matrix(-1 0 0 -1 79.6716 296)">
			<stop  offset="0" style="stop-color:#E898B0"/>
			<stop  offset="1" style="stop-color:#EDB5A5"/>
		</linearGradient>
		<path class="st2" d="M261.7,127.3c28.7-46.4,104.9-83.9,132.9-84.4c12,25.3,12.7,110.2-16,156.6c-0.1,0.1-0.2,0.3-0.3,0.4
			c-0.1,0.1-0.2,0.3-0.3,0.5c-28.7,46.4-104.9,83.9-132.9,84.4c-12-25.3-12.7-110.2,16-156.6c0.1-0.1,0.2-0.3,0.3-0.4
			C261.5,127.6,261.6,127.4,261.7,127.3z"/>
		<g>
			
				<linearGradient id="SVGID_4_" gradientUnits="userSpaceOnUse" x1="-361.1473" y1="86.8656" x2="-150.3731" y2="72.2172" gradientTransform="matrix(-1 0 0 -1 79.6716 296)">
				<stop  offset="0" style="stop-color:#E898B0"/>
				<stop  offset="1" style="stop-color:#EDB5A5"/>
			</linearGradient>
			<path class="st3" d="M335.1,154.2c47.4-27.1,132.3-23.4,157.1-10.6c-1.5,27.9-41.6,102.8-89,129.9c-0.2,0.1-0.3,0.2-0.5,0.3
				c-0.2,0.1-0.3,0.2-0.5,0.3c-47.4,27.1-132.3,23.4-157.1,10.6c1.5-27.9,41.6-102.8,89-129.9c0.2-0.1,0.3-0.2,0.5-0.3
				C334.8,154.4,334.9,154.3,335.1,154.2z"/>
		</g>
	</g>
	
		<linearGradient id="SVGID_5_" gradientUnits="userSpaceOnUse" x1="247.1" y1="271.9977" x2="247.1" y2="-146.9471" gradientTransform="matrix(1 0 0 -1 0 296)">
		<stop  offset="0" style="stop-color:#E898B0"/>
		<stop  offset="1" style="stop-color:#EDB5A5"/>
	</linearGradient>
	<path class="st4" d="M315.8,141.7c0-54.6-45.2-126.5-68.7-141.7c-23.5,15.2-68.7,87.1-68.7,141.7c0,0.2,0,0.4,0,0.5
		c0,0.2,0,0.4,0,0.5c0,54.6,45.2,126.5,68.7,141.7c23.5-15.2,68.7-87.1,68.7-141.7c0-0.2,0-0.4,0-0.5
		C315.8,142,315.8,141.9,315.8,141.7z"/>
</g>
<g>
	<path class="st5" d="M685.6,79.5h-47.3V55.4h121.9v24.1H713v131.9h-27.4V79.5z"/>
	<path class="st5" d="M765.2,98.4h24.6V115c8.4-10.8,22-19.2,36.7-19.2v24.3c-2.1-0.5-4.7-0.7-7.7-0.7c-10.3,0-24.1,7-29,15v77
		h-24.6V98.4z"/>
	<path class="st5" d="M925.9,196c-8.7,11.2-21.8,18.2-36.3,18.2c-29,0-50.3-22-50.3-59.2c0-36.5,21.1-59.4,50.3-59.4
		c14,0,27.4,6.5,36.3,18.5V98.4h24.6v113h-24.6V196z M925.9,132.8c-5.6-8.4-17.5-15.2-29.2-15.2c-19.4,0-31.8,15.4-31.8,37.4
		c0,21.8,12.4,37.4,31.8,37.4c11.7,0,23.6-6.5,29.2-15V132.8z"/>
	<path class="st5" d="M1058.5,140.8c0-17.5-8.9-23.4-22.7-23.4c-12.6,0-23.4,7.5-29,15.2v78.8h-24.6v-113h24.6v15.4
		c7.5-8.9,22-18.2,39.8-18.2c24.3,0,36.5,13.1,36.5,36.3v79.5h-24.6V140.8z"/>
	<path class="st5" d="M1125,222.6c9.1,10.5,20.8,14.5,35.8,14.5c16.1,0,33.5-7.5,33.5-30.6v-13.6c-8.7,11.2-21.5,18.7-36.3,18.7
		c-28.8,0-50.1-20.8-50.1-58c0-36.5,21.1-58,50.1-58c14.3,0,27.1,6.5,36.3,18.5V98.4h24.6v107.1c0,40.7-30.2,51.7-58,51.7
		c-19.2,0-33.5-4.2-47.3-16.8L1125,222.6z M1194.2,132.6c-5.4-8.4-17.5-15.2-29-15.2c-19.4,0-31.8,14.5-31.8,36.3
		c0,21.8,12.4,36.3,31.8,36.3c11.5,0,23.6-6.8,29-15.2V132.6z"/>
	<path class="st5" d="M1348.6,79.5h-47.3V55.4h121.9v24.1H1376v131.9h-27.4V79.5z"/>
	<path class="st5" d="M1428.1,98.4h24.6V115c8.4-10.8,22-19.2,36.7-19.2v24.3c-2.1-0.5-4.7-0.7-7.7-0.7c-10.3,0-24.1,7-29,15v77
		h-24.6V98.4z"/>
	<path class="st5" d="M1588.9,196c-8.7,11.2-21.8,18.2-36.3,18.2c-29,0-50.3-22-50.3-59.2c0-36.5,21.1-59.4,50.3-59.4
		c14,0,27.4,6.5,36.3,18.5V98.4h24.6v113h-24.6V196z M1588.9,132.8c-5.6-8.4-17.5-15.2-29.2-15.2c-19.4,0-31.8,15.4-31.8,37.4
		c0,21.8,12.4,37.4,31.8,37.4c11.7,0,23.6-6.5,29.2-15V132.8z"/>
	<path class="st5" d="M1721.5,140.8c0-17.5-8.9-23.4-22.7-23.4c-12.6,0-23.4,7.5-29,15.2v78.8h-24.6v-113h24.6v15.4
		c7.5-8.9,22-18.2,39.8-18.2c24.3,0,36.5,13.1,36.5,36.3v79.5h-24.6V140.8z"/>
</g>
</svg>
