<?xml version="1.0" encoding="utf-8"?>
<!-- Generator: Adobe Illustrator 22.1.0, SVG Export Plug-In . SVG Version: 6.00 Build 0)  -->
<svg version="1.1" xmlns="http://www.w3.org/2000/svg" xmlns:xlink="http://www.w3.org/1999/xlink" x="0px" y="0px"
	 viewBox="0 0 355.373 382.106" enable-background="new 0 0 355.373 382.106" xml:space="preserve">
<g id="Rectangle_1_1_" enable-background="new    ">
</g>
<g id="Group_1_1_">
	<g id="Rectangle_6">
		<g>
			
				<rect x="169.288" y="295.585" transform="matrix(0.5003 -0.8659 0.8659 0.5003 -166.7374 337.8154)" fill="#AFAFAF" width="80.004" height="35.544"/>
		</g>
	</g>
	<g id="Rectangle_3">
		<g>
			<rect x="140.433" y="269.854" fill="#242424" width="191.056" height="17.781"/>
		</g>
	</g>
	
		<rect x="93.249" y="18.03" transform="matrix(0.8651 -0.5015 0.5015 0.8651 2.8906 61.4649)" fill-rule="evenodd" clip-rule="evenodd" width="44.972" height="14.655"/>
	<g id="Rectangle_5" display="none">
		<g display="inline">
			<polygon fill="#242424" points="335.732,367.58 334.84,369.064 338.546,371.118 339.437,369.635 			"/>
		</g>
	</g>
	
		<rect x="209.937" y="216.821" transform="matrix(0.8653 -0.5013 0.5013 0.8653 -81.053 146.7149)" fill-rule="evenodd" clip-rule="evenodd" width="44.967" height="14.653"/>
	<g id="Rectangle_2">
		<g>
			<path fill-rule="evenodd" clip-rule="evenodd" fill="#AFAFAF" d="M201.54,240.175l57.705-33.337L145.973,10.487L88.267,43.831
				L201.54,240.175z M61.419,358.722h157.847c7.34,0,12.799-4.743,8.504-9.449c-3.437-3.762-72.827-78.965-78.77-85.388
				c-3.898-4.215-13.198-4.141-17.095,0c-4.35,4.62-74.102,80.119-78.954,85.585C49.397,353.477,53.33,358.722,61.419,358.722z"/>
		</g>
	</g>
	<g id="Shape_1">
		<g>
			<path fill-rule="evenodd" clip-rule="evenodd" fill="#AFAFAF" d="M7.168,200.906c0,67.515,54.703,122.255,122.163,122.255
				c12.132,0,23.85-1.775,34.912-5.071l-10.478-3.813v-37.752c-7.697,2.491-15.907,3.844-24.434,3.844
				c-43.858,0-79.407-35.573-79.407-79.462c0-43.883,35.549-79.462,79.407-79.462c5.852,0,11.55,0.652,17.042,1.855l-24.947-44.379
				C57.65,82.998,7.168,136.05,7.168,200.906z M198.487,239.944c-0.004,0.007-0.008,0.013-0.012,0.02l0.021,0.003L198.487,239.944z"
				/>
		</g>
	</g>
	<g id="Ellipse_1">
		<g>
			<path d="M140.433,274.278c4.89,0,8.848,3.97,8.848,8.884s-3.958,8.897-8.848,8.897c-4.876,0-8.847-3.983-8.847-8.897
				S135.557,274.278,140.433,274.278z"/>
		</g>
	</g>
	<path fill="#FFFFFF" d="M102.176,15.854"/>
	<path fill="#FFFFFF" d="M251.493,233.582"/>
	<polygon fill-rule="evenodd" clip-rule="evenodd" fill="#D6D6D6" points="113.78,29.089 229.289,224.146 248.602,212.989 
		259.244,206.837 145.973,10.487 	"/>
</g>
</svg>
