<?xml version="1.0" encoding="utf-8"?>
<!-- Generator: Adobe Illustrator 22.1.0, SVG Export Plug-In . SVG Version: 6.00 Build 0)  -->
<svg version="1.1" xmlns="http://www.w3.org/2000/svg" xmlns:xlink="http://www.w3.org/1999/xlink" x="0px" y="0px"
	 viewBox="0 0 419.589 302.887" enable-background="new 0 0 419.589 302.887" xml:space="preserve">
<g id="Rectangle_1_1_" enable-background="new    ">
</g>
<g id="Group_1_1_">
	<g id="Rectangle_5" display="none">
		<g display="inline">
			<polygon fill="#242424" points="272.861,299.349 271.97,300.832 275.675,302.887 276.566,301.404 			"/>
		</g>
	</g>
	<g>
		<g>
			<path fill="#626363" d="M375.659,231.799H43.929c-3.712,0-6.721-3.009-6.721-6.721V31.995c0-3.712,3.009-6.721,6.721-6.721
				h331.73c3.712,0,6.721,3.009,6.721,6.721v193.083C382.381,228.79,379.371,231.799,375.659,231.799z"/>
			<rect x="50.376" y="37.409" fill="#A6D5FF" width="318.836" height="182.255"/>
			<path fill="#626363" d="M255.938,277.614h-92.287c-1.786,0-2.897-1.941-1.99-3.481l19.094-43.009h58.081l19.094,43.009
				C258.834,275.672,257.724,277.614,255.938,277.614z"/>
			<path fill="#626363" d="M298.158,266.566H121.431c-0.869,0-1.573,0.704-1.573,1.573v7.902c0,0.869,0.704,1.573,1.573,1.573
				h176.727c0.869,0,1.573-0.704,1.573-1.573v-7.902C299.731,267.27,299.027,266.566,298.158,266.566z"/>
			<path fill="#FFFFFF" d="M285.906,186.41H133.682c-2.07,0-3.748-1.678-3.748-3.748V75.834h159.72v106.828
				C289.654,184.732,287.976,186.41,285.906,186.41z"/>
			<polygon opacity="0.07" fill="#639CE0" points="50.376,219.664 50.376,37.409 369.212,37.409 			"/>
			<rect x="129.934" y="74.47" fill="#ACADAD" width="159.72" height="9.934"/>
			<g>
				<circle fill="#FFA397" cx="140.964" cy="79.438" r="2.675"/>
				<circle fill="#FFFFFF" cx="149.042" cy="79.438" r="2.675"/>
				<circle fill="#AEE85B" cx="157.121" cy="79.438" r="2.675"/>
			</g>
		</g>
		<g>
			<rect x="140.964" y="125.664" opacity="0.6" fill="#ACADAD" width="61.311" height="2.431"/>
			<g>
				<rect x="220.727" y="113.96" opacity="0.07" fill="#639CE0" width="61.311" height="50.8"/>
				<rect x="140.964" y="113.96" opacity="0.6" fill="#ACADAD" width="61.311" height="2.431"/>
				<rect x="140.964" y="119.812" opacity="0.6" fill="#ACADAD" width="61.311" height="2.431"/>
				<rect x="140.964" y="131.516" opacity="0.6" fill="#ACADAD" width="61.311" height="2.431"/>
			</g>
		</g>
		<rect x="129.934" y="84.405" fill="#CECECE" width="159.72" height="8.707"/>
		<rect x="138.332" y="85.865" fill="#FFFFFF" width="142.925" height="5.786"/>
	</g>
</g>
</svg>
