<?xml version="1.0" encoding="utf-8"?>
<!-- Generator: Adobe Illustrator 22.1.0, SVG Export Plug-In . SVG Version: 6.00 Build 0)  -->
<svg version="1.1" id="Layer_1" xmlns="http://www.w3.org/2000/svg" xmlns:xlink="http://www.w3.org/1999/xlink" x="0px" y="0px"
	 viewBox="0 0 419.6 302.9" style="enable-background:new 0 0 419.6 302.9;" xml:space="preserve">
<style type="text/css">
	.st0{enable-background:new    ;}
	.st1{display:none;}
	.st2{display:inline;}
	.st3{fill:#242424;}
	.st4{fill:#626363;}
	.st5{fill:#A6D5FF;}
	.st6{fill:#FFFFFF;}
	.st7{opacity:7.000000e-02;fill:#639CE0;enable-background:new    ;}
	.st8{fill:#ACADAD;}
	.st9{fill:#FFA397;}
	.st10{fill:#AEE85B;}
	.st11{opacity:0.6;fill:#ACADAD;enable-background:new    ;}
	.st12{fill:#CECECE;}
</style>
<g id="Rectangle_1_1_" class="st0">
</g>
<g id="Group_1_1_">
	<g id="Rectangle_5" class="st1">
		<g class="st2">
			<polygon class="st3" points="272.9,299.3 272,300.8 275.7,302.9 276.6,301.4 			"/>
		</g>
	</g>
	<g>
		<g>
			<path class="st4" d="M375.7,231.8H43.9c-3.7,0-6.7-3-6.7-6.7V32c0-3.7,3-6.7,6.7-6.7h331.7c3.7,0,6.7,3,6.7,6.7v193.1
				C382.4,228.8,379.4,231.8,375.7,231.8z"/>
			<rect x="50.4" y="37.4" class="st5" width="318.8" height="182.3"/>
			<path class="st4" d="M255.9,277.6h-92.3c-1.8,0-2.9-1.9-2-3.5l19.1-43h58.1l19.1,43C258.8,275.7,257.7,277.6,255.9,277.6z"/>
			<path class="st4" d="M298.2,266.6H121.4c-0.9,0-1.6,0.7-1.6,1.6v7.9c0,0.9,0.7,1.6,1.6,1.6h176.7c0.9,0,1.6-0.7,1.6-1.6v-7.9
				C299.7,267.3,299,266.6,298.2,266.6z"/>
			<path class="st6" d="M285.9,186.4H133.7c-2.1,0-3.7-1.7-3.7-3.7V75.8h159.7v106.8C289.7,184.7,288,186.4,285.9,186.4z"/>
			<polygon class="st7" points="50.4,219.7 50.4,37.4 369.2,37.4 			"/>
			<rect x="129.9" y="74.5" class="st8" width="159.7" height="9.9"/>
			<g>
				<circle class="st9" cx="141" cy="79.4" r="2.7"/>
				<circle class="st6" cx="149" cy="79.4" r="2.7"/>
				<circle class="st10" cx="157.1" cy="79.4" r="2.7"/>
			</g>
		</g>
		<g>
			<rect x="141" y="125.7" class="st11" width="61.3" height="2.4"/>
			<g>
				<rect x="220.7" y="114" class="st7" width="61.3" height="50.8"/>
				<rect x="141" y="114" class="st11" width="61.3" height="2.4"/>
				<rect x="141" y="119.8" class="st11" width="61.3" height="2.4"/>
				<rect x="141" y="131.5" class="st11" width="61.3" height="2.4"/>
			</g>
		</g>
		<rect x="129.9" y="84.4" class="st12" width="159.7" height="8.7"/>
		<rect x="138.3" y="85.9" class="st6" width="142.9" height="5.8"/>
	</g>
</g>
</svg>
