<?xml version="1.0" encoding="UTF-8"?>
<svg width="961px" height="869px" viewBox="0 0 961 869" version="1.1" xmlns="http://www.w3.org/2000/svg" xmlns:xlink="http://www.w3.org/1999/xlink">
    <!-- Generator: Sketch 54.1 (76490) - https://sketchapp.com -->
    <title>Path</title>
    <desc>Created with Sketch.</desc>
    <defs>
        <linearGradient x1="33.2481258%" y1="24.6640945%" x2="124.629012%" y2="145.814099%" id="linearGradient-1">
            <stop stop-color="#FF6982" offset="0%"></stop>
            <stop stop-color="#630968" offset="100%"></stop>
        </linearGradient>
    </defs>
    <g id="Page-1" stroke="none" stroke-width="1" fill="none" fill-rule="evenodd">
        <path d="M280,296.6 L280,296.6 C280,315.929966 264.329966,331.6 245,331.6 L167.1,331.6 C75.6,331.6 0.2,258 -1.27070663e-14,166.5 C-0.3,75 74.1,0.5 165.5,0.5 L793.9,0.5 C885.4,0.5 960.7,74 961,165.5 C961.3,257 886.9,331.5 795.5,331.5 L480.5,331.5 C427.8,331.5 385,374.3 385,427 L385,701.8 C385,754.4 427,798 479.6,798.5 C532.7,799 576,756 576,703 L576,431.6 C576,412.3 591.7,396.6 611,396.6 C630.3,396.6 646,412.3 646,431.6 L646,703.1 C646,794.5 571.5,868.9 480,868.6 C388.5,868.3 315,793 315,701.5 L315,427.1 C315,335.7 389.1,261.6 480.5,261.6 L794.3,261.6 C846.9,261.6 890.5,219.6 891,167 C891.5,113.9 848.5,70.6 795.5,70.6 L166.7,70.6 C114.1,70.6 70.5,112.6 70,165.2 C69.5,218.3 112.5,261.6 165.5,261.6 L245,261.6 C264.329966,261.6 280,277.270034 280,296.6 Z" id="Path" fill="url(#linearGradient-1)" fill-rule="nonzero"></path>
    </g>
</svg>