<?xml version="1.0" encoding="UTF-8"?>
<svg width="961px" height="869px" viewBox="0 0 961 869" version="1.1" xmlns="http://www.w3.org/2000/svg" xmlns:xlink="http://www.w3.org/1999/xlink">
    <!-- Generator: Sketch 54.1 (76490) - https://sketchapp.com -->
    <title>tlogo</title>
    <desc>Created with Sketch.</desc>
    <defs>
        <linearGradient x1="34.0802189%" y1="79.8409413%" x2="124.629012%" y2="145.814099%" id="linearGradient-1">
            <stop stop-color="#FF6982" offset="0%"></stop>
            <stop stop-color="#630968" offset="100%"></stop>
        </linearGradient>
        <linearGradient x1="-0.0010128782%" y1="50.0024152%" x2="124.629012%" y2="76.8915491%" id="linearGradient-2">
            <stop stop-color="#FF6982" offset="0%"></stop>
            <stop stop-color="#630968" offset="100%"></stop>
        </linearGradient>
    </defs>
    <g id="Page-1" stroke="none" stroke-width="1" fill="none" fill-rule="evenodd">
        <g id="tlogo" transform="translate(-1.000000, 0.000000)" fill-rule="nonzero">
            <path d="M341,261.6 C302,284.6 281,331.6 281,331.6 L168.1,331.6 C76.6,331.6 1.2,258 1,166.5 C0.7,75 75.1,0.5 166.5,0.5 L794.9,0.5 C886.4,0.5 961.7,74 962,165.5 C962.3,257 887.9,331.5 796.5,331.5 L481.5,331.5 C428.8,331.5 386,374.3 386,427 L386,701.8 C386,754.4 428,798 480.6,798.5 C533.7,799 577,756 577,703 L577,431.6 C577,412.3 592.7,396.6 612,396.6 L612,396.6 C631.3,396.6 647,412.3 647,431.6 L647,703.1 C647,794.5 572.5,868.9 481,868.6 C389.5,868.3 316,793 316,701.5 L316,427.1 C316,335.7 390.1,261.6 481.5,261.6 L795.3,261.6 C847.9,261.6 891.5,219.6 892,167 C892.5,113.9 849.5,70.6 796.5,70.6 L167.7,70.6 C115.1,70.6 71.5,112.6 71,165.2 C70.5,218.3 113.5,261.6 166.5,261.6 L341,261.6" id="Path" fill="url(#linearGradient-1)"></path>
            <path d="M465,333 C470.4,332.1 475.9,331.6 481.5,331.6 L487.6,331.6 L796.5,331.6 C887.9,331.6 962.3,257.1 962,165.6 C961.7,74.1 886.4,0.6 794.9,0.6 L166.5,0.6 C75.1,0.6 0.7,75.1 1,166.5 C1.3,258 76.6,331.5 168.1,331.5 L281,331.5 C281,331.5 302,284.5 341,261.5 L166.5,261.5 C113.5,261.5 70.5,218.1 71,165.1 C71.5,112.5 115.1,70.5 167.7,70.5 L796.5,70.5 C849.5,70.5 892.5,113.9 892,166.9 C891.5,219.5 847.9,261.5 795.3,261.5 L481.5,261.5 C390.1,261.5 316,335.6 316,427 L316,460.5 C335.5,393.2 393.8,342 465,333 Z" id="Path" fill="url(#linearGradient-2)"></path>
        </g>
    </g>
</svg>