<?xml version="1.0" encoding="utf-8"?>
<!-- Generator: Adobe Illustrator 15.0.0, SVG Export Plug-In . SVG Version: 6.00 Build 0)  -->
<!DOCTYPE svg PUBLIC "-//W3C//DTD SVG 1.1//EN" "http://www.w3.org/Graphics/SVG/1.1/DTD/svg11.dtd">
<svg version="1.1" id="Layer_1" xmlns="http://www.w3.org/2000/svg" xmlns:xlink="http://www.w3.org/1999/xlink" x="0px" y="0px"
	 width="225.143px" height="97.5px" viewBox="0 0 225.143 97.5" enable-background="new 0 0 225.143 97.5" xml:space="preserve">
<g opacity="0.65">
	<path fill="#FFFFFF" d="M5.1,4.611v12.96H3.72V4.611H1v-1.2h6.84v1.2H5.1z"/>
	<path fill="#FFFFFF" d="M15.8,17.571l-2.56-6.56h-1.82v6.56h-1.38V3.411h3.4c0.466,0,0.917,0.063,1.35,0.19
		c0.433,0.127,0.82,0.337,1.16,0.63c0.34,0.293,0.613,0.68,0.82,1.16c0.207,0.48,0.31,1.067,0.31,1.76c0,0.6-0.077,1.117-0.23,1.55
		c-0.154,0.434-0.354,0.797-0.6,1.09c-0.247,0.293-0.52,0.52-0.82,0.68c-0.3,0.16-0.597,0.26-0.89,0.3l2.76,6.8H15.8z M15.72,7.221
		c0-0.504-0.07-0.926-0.21-1.265c-0.14-0.338-0.327-0.607-0.56-0.807s-0.5-0.339-0.8-0.418s-0.61-0.12-0.93-0.12h-1.8v5.3h1.86
		c0.76,0,1.357-0.235,1.79-0.707S15.72,8.072,15.72,7.221z"/>
	<path fill="#FFFFFF" d="M26.2,17.571l-0.86-3.54h-4.36l-0.9,3.54h-1.42l3.6-14.16h1.9l3.5,14.16H26.2z M23.22,4.671h-0.08
		l-1.96,8.24h3.96L23.22,4.671z"/>
	<path fill="#FFFFFF" d="M36.305,17.571L31.38,5.792h-0.06v11.78H30V3.411h1.74l4.9,11.78h0.06V3.411h1.28v14.16H36.305z"/>
	<path fill="#FFFFFF" d="M48.149,17.522c-0.554,0.206-1.204,0.309-1.95,0.309c-0.787,0-1.494-0.173-2.12-0.52
		c-0.627-0.347-1.153-0.84-1.58-1.48c-0.427-0.64-0.753-1.413-0.98-2.32s-0.34-1.92-0.34-3.04c0-1.053,0.11-2.033,0.33-2.94
		c0.22-0.907,0.537-1.69,0.95-2.35c0.414-0.66,0.92-1.176,1.52-1.55c0.6-0.373,1.28-0.56,2.04-0.56c0.693,0,1.327,0.14,1.9,0.42
		c0.573,0.28,1.053,0.72,1.44,1.32l-0.9,0.92c-0.307-0.467-0.663-0.817-1.07-1.05c-0.407-0.233-0.843-0.35-1.31-0.35
		c-0.587,0-1.093,0.164-1.52,0.49s-0.783,0.77-1.07,1.33c-0.287,0.56-0.5,1.21-0.64,1.95c-0.14,0.74-0.21,1.53-0.21,2.37
		c0,0.88,0.073,1.693,0.22,2.44c0.146,0.747,0.37,1.39,0.67,1.93c0.3,0.54,0.673,0.963,1.12,1.27c0.446,0.307,0.963,0.46,1.55,0.46
		c0.427,0,0.81-0.053,1.15-0.16c0.34-0.106,0.623-0.26,0.85-0.46v-4.8h-2.02v-1.2h3.38v6.743
		C49.172,17.04,48.702,17.316,48.149,17.522z"/>
	<path fill="#FFFFFF" d="M59.359,4.611v12.96h-1.38V4.611h-2.72v-1.2h6.84v1.2H59.359z"/>
	<path fill="#FFFFFF" d="M70.059,17.571l-2.56-6.56h-1.82v6.56h-1.38V3.411h3.399c0.467,0,0.917,0.063,1.351,0.19
		c0.433,0.127,0.82,0.337,1.16,0.63s0.613,0.68,0.819,1.16c0.207,0.48,0.311,1.067,0.311,1.76c0,0.6-0.077,1.117-0.23,1.55
		c-0.153,0.434-0.354,0.797-0.6,1.09c-0.247,0.293-0.521,0.52-0.82,0.68c-0.3,0.16-0.597,0.26-0.89,0.3l2.76,6.8H70.059z
		 M69.979,7.221c0-0.504-0.069-0.926-0.21-1.265c-0.14-0.338-0.327-0.607-0.56-0.807c-0.233-0.199-0.5-0.339-0.8-0.418
		c-0.301-0.08-0.61-0.12-0.931-0.12h-1.8v5.3h1.86c0.76,0,1.356-0.235,1.79-0.707C69.762,8.732,69.979,8.072,69.979,7.221z"/>
	<path fill="#FFFFFF" d="M80.458,17.571l-0.859-3.54h-4.36l-0.9,3.54h-1.42l3.601-14.16h1.899l3.5,14.16H80.458z M77.479,4.671
		h-0.08l-1.96,8.24h3.96L77.479,4.671z"/>
	<path fill="#FFFFFF" d="M90.564,17.571l-4.925-11.78h-0.06v11.78h-1.32V3.411H86l4.899,11.78h0.061V3.411h1.279v14.16H90.564z"/>
</g>
<g opacity="0.65">
	<path fill="#FFFFFF" d="M14.995,55.094c-0.21,0.971-0.55,1.815-1.02,2.535c-0.47,0.72-1.095,1.285-1.875,1.694
		c-0.78,0.41-1.74,0.615-2.88,0.615c-1.14,0-2.096-0.205-2.865-0.615c-0.77-0.409-1.39-0.975-1.86-1.694
		c-0.47-0.72-0.806-1.564-1.005-2.535c-0.2-0.97-0.3-2.005-0.3-3.105v-13.8h2.1v13.53c0,0.78,0.055,1.55,0.165,2.31
		c0.109,0.761,0.31,1.436,0.6,2.025c0.29,0.59,0.69,1.065,1.2,1.425c0.51,0.36,1.175,0.54,1.995,0.54c0.8,0,1.459-0.18,1.98-0.54
		c0.52-0.359,0.925-0.835,1.215-1.425s0.49-1.26,0.6-2.01s0.165-1.525,0.165-2.325v-13.53h2.1v13.8
		C15.31,53.089,15.205,54.124,14.995,55.094z"/>
	<path fill="#FFFFFF" d="M60.711,59.429v-21.24h2.1v21.24H60.711z"/>
	<path fill="#FFFFFF" d="M33.916,60.448l-1.5-0.27l5.31-23.19l1.5,0.3L33.916,60.448z"/>
	<path fill="#FFFFFF" d="M55.33,55.094c-0.21,0.971-0.55,1.815-1.02,2.535c-0.47,0.72-1.095,1.285-1.875,1.694
		c-0.78,0.41-1.74,0.615-2.88,0.615c-1.14,0-2.096-0.205-2.865-0.615c-0.77-0.409-1.39-0.975-1.86-1.694
		c-0.47-0.72-0.806-1.564-1.005-2.535c-0.2-0.97-0.3-2.005-0.3-3.105v-13.8h2.1v13.53c0,0.78,0.055,1.55,0.165,2.31
		c0.109,0.761,0.31,1.436,0.6,2.025c0.29,0.59,0.69,1.065,1.2,1.425c0.51,0.36,1.175,0.54,1.995,0.54c0.8,0,1.459-0.18,1.98-0.54
		c0.52-0.359,0.925-0.835,1.215-1.425s0.49-1.26,0.6-2.01s0.165-1.525,0.165-2.325v-13.53h2.1v13.8
		C55.645,53.089,55.54,54.124,55.33,55.094z"/>
	<path fill="#FFFFFF" d="M27.623,59.429l-4.29-9.42l-4.29,9.42h-2.22l5.37-11.19l-4.83-10.05h2.22l3.81,8.4l3.78-8.4h2.16
		l-4.8,10.08l5.37,11.16H27.623z"/>
	<path fill="#FFFFFF" d="M86.559,48.839c0,1.74-0.181,3.27-0.54,4.59c-0.36,1.32-0.881,2.426-1.56,3.315
		c-0.68,0.89-1.496,1.56-2.445,2.01s-2.005,0.675-3.165,0.675h-4.56v-21.24h4.59c1.16,0,2.215,0.225,3.165,0.675
		c0.95,0.45,1.76,1.125,2.43,2.025c0.67,0.9,1.185,2.015,1.545,3.345C86.378,45.564,86.559,47.099,86.559,48.839z M84.489,48.839
		c0-1.505-0.145-2.814-0.435-3.928s-0.69-2.032-1.2-2.754c-0.51-0.722-1.11-1.264-1.8-1.625s-1.435-0.542-2.235-0.542h-2.46v17.64
		h2.46c0.8,0,1.545-0.181,2.235-0.542s1.29-0.903,1.8-1.626c0.51-0.722,0.91-1.635,1.2-2.739
		C84.344,51.618,84.489,50.323,84.489,48.839z"/>
	<path fill="#FFFFFF" d="M91.268,59.429v-21.24h8.551v1.86h-6.511v7.439h6.09v1.801h-6.09v8.25h6.811v1.89H91.268z"/>
	<path fill="#FFFFFF" d="M113.768,53.999c0,0.94-0.14,1.774-0.42,2.505s-0.665,1.35-1.154,1.859c-0.491,0.511-1.065,0.9-1.726,1.171
		c-0.66,0.27-1.36,0.404-2.1,0.404c-1.08,0-2.075-0.229-2.985-0.689s-1.646-1.07-2.205-1.83l1.29-1.471
		c0.46,0.66,1.04,1.171,1.74,1.53c0.7,0.36,1.41,0.54,2.13,0.54c0.96,0,1.765-0.34,2.415-1.02c0.649-0.68,0.975-1.65,0.975-2.91
		c0-0.601-0.1-1.13-0.3-1.59s-0.47-0.87-0.81-1.23c-0.341-0.359-0.726-0.68-1.155-0.96c-0.431-0.279-0.885-0.54-1.365-0.78
		c-0.58-0.279-1.13-0.595-1.649-0.944c-0.521-0.35-0.976-0.755-1.365-1.215s-0.705-1.005-0.945-1.635s-0.359-1.365-0.359-2.205
		c0-0.98,0.149-1.835,0.449-2.565c0.301-0.73,0.705-1.34,1.216-1.83c0.51-0.49,1.084-0.855,1.725-1.095
		c0.64-0.24,1.31-0.36,2.01-0.36c0.96,0,1.825,0.165,2.595,0.495c0.771,0.33,1.415,0.845,1.936,1.545l-1.29,1.47
		c-0.4-0.58-0.87-0.995-1.41-1.245s-1.13-0.375-1.77-0.375c-0.42,0-0.836,0.075-1.245,0.225c-0.41,0.15-0.775,0.385-1.096,0.705
		c-0.319,0.32-0.58,0.73-0.779,1.23c-0.2,0.5-0.3,1.09-0.3,1.77c0,0.6,0.09,1.121,0.27,1.56c0.18,0.44,0.425,0.83,0.735,1.17
		c0.31,0.341,0.67,0.641,1.08,0.9c0.409,0.26,0.834,0.5,1.274,0.72c0.56,0.28,1.115,0.6,1.665,0.96s1.045,0.78,1.485,1.26
		c0.439,0.48,0.79,1.04,1.05,1.681C113.638,52.389,113.768,53.139,113.768,53.999z"/>
	<path fill="#FFFFFF" d="M118.328,59.429v-21.24h2.101v21.24H118.328z"/>
	<path fill="#FFFFFF" d="M135.563,59.355c-0.83,0.309-1.806,0.463-2.925,0.463c-1.181,0-2.24-0.26-3.181-0.779
		c-0.939-0.521-1.729-1.261-2.369-2.221c-0.641-0.96-1.131-2.119-1.471-3.479s-0.51-2.88-0.51-4.561c0-1.579,0.165-3.049,0.495-4.41
		c0.33-1.36,0.805-2.535,1.425-3.525c0.62-0.99,1.38-1.765,2.28-2.325c0.899-0.56,1.92-0.84,3.06-0.84c1.04,0,1.99,0.21,2.851,0.63
		c0.859,0.42,1.579,1.08,2.159,1.98l-1.35,1.38c-0.46-0.7-0.995-1.225-1.604-1.575c-0.61-0.35-1.266-0.525-1.966-0.525
		c-0.88,0-1.64,0.245-2.279,0.735c-0.641,0.49-1.176,1.155-1.605,1.995c-0.43,0.84-0.75,1.815-0.96,2.925
		c-0.21,1.109-0.314,2.295-0.314,3.555c0,1.32,0.109,2.541,0.329,3.66c0.221,1.12,0.556,2.085,1.006,2.896
		c0.449,0.81,1.01,1.445,1.68,1.904c0.67,0.461,1.444,0.69,2.325,0.69c0.64,0,1.215-0.08,1.725-0.24
		c0.51-0.159,0.935-0.39,1.275-0.689v-7.2h-3.03v-1.8h5.07v10.114C137.097,58.632,136.393,59.046,135.563,59.355z"/>
	<path fill="#FFFFFF" d="M152.295,59.429l-7.388-17.67h-0.09v17.67h-1.98v-21.24h2.61l7.35,17.67h0.091v-17.67h1.92v21.24H152.295z"
		/>
	<path fill="#FFFFFF" d="M160.417,59.429v-21.24h8.551v1.86h-6.511v7.439h6.09v1.801h-6.09v8.25h6.811v1.89H160.417z"/>
	<path fill="#FFFFFF" d="M182.347,59.429l-3.84-9.84h-2.73v9.84h-2.07v-21.24h5.101c0.699,0,1.375,0.095,2.024,0.285
		c0.65,0.19,1.23,0.505,1.74,0.945s0.92,1.02,1.23,1.74c0.31,0.72,0.465,1.6,0.465,2.64c0,0.9-0.115,1.675-0.346,2.325
		c-0.229,0.65-0.529,1.196-0.899,1.635c-0.37,0.44-0.78,0.78-1.23,1.02c-0.449,0.24-0.895,0.391-1.335,0.45l4.141,10.2H182.347z
		 M182.227,43.904c0-0.757-0.105-1.39-0.315-1.897c-0.21-0.508-0.49-0.912-0.84-1.21s-0.75-0.508-1.2-0.627
		c-0.45-0.12-0.915-0.18-1.395-0.18h-2.7v7.95h2.79c1.14,0,2.035-0.354,2.685-1.061C181.902,46.17,182.227,45.179,182.227,43.904z"
		/>
	<path fill="#FFFFFF" d="M13.84,95.429l-1.92-2.91c-0.2,0.461-0.44,0.9-0.72,1.32c-0.28,0.42-0.61,0.785-0.99,1.095
		c-0.38,0.311-0.815,0.555-1.305,0.735c-0.49,0.18-1.045,0.27-1.665,0.27c-1.48,0-2.675-0.529-3.585-1.59
		c-0.91-1.06-1.365-2.55-1.365-4.47c0-0.76,0.095-1.45,0.285-2.07c0.189-0.619,0.445-1.185,0.765-1.695
		c0.32-0.51,0.7-0.97,1.14-1.38c0.44-0.409,0.92-0.784,1.44-1.125c-0.68-1.02-1.14-1.904-1.38-2.654
		c-0.24-0.75-0.36-1.535-0.36-2.355c0-1.54,0.4-2.755,1.2-3.645s1.82-1.335,3.06-1.335c0.6,0,1.145,0.109,1.635,0.329
		c0.49,0.221,0.91,0.53,1.26,0.931c0.35,0.4,0.625,0.885,0.825,1.455c0.2,0.569,0.3,1.195,0.3,1.875c0,0.7-0.11,1.33-0.33,1.89
		c-0.22,0.561-0.515,1.075-0.885,1.545c-0.371,0.471-0.806,0.896-1.305,1.275c-0.5,0.38-1.02,0.75-1.56,1.109l3.39,5.07l1.86-5.07
		h2.04l-2.73,6.601l3.3,4.8H13.84z M6.82,84.988c-0.34,0.24-0.67,0.506-0.99,0.796c-0.32,0.29-0.6,0.63-0.84,1.02
		c-0.24,0.39-0.435,0.825-0.585,1.305c-0.15,0.48-0.225,1.021-0.225,1.62c0,1.38,0.305,2.46,0.915,3.24
		c0.61,0.78,1.395,1.17,2.355,1.17c0.42,0,0.805-0.09,1.155-0.27c0.35-0.181,0.67-0.415,0.96-0.705c0.29-0.29,0.54-0.625,0.75-1.005
		s0.385-0.771,0.525-1.171L6.82,84.988z M10.54,78.358c0-0.96-0.185-1.715-0.555-2.265S9.09,75.269,8.41,75.269
		c-0.68,0-1.235,0.306-1.665,0.915C6.314,76.794,6.1,77.579,6.1,78.539c0,0.779,0.109,1.479,0.33,2.1
		c0.22,0.62,0.589,1.33,1.11,2.13c0.84-0.54,1.55-1.155,2.13-1.845C10.25,80.233,10.54,79.379,10.54,78.358z"/>
	<path fill="#FFFFFF" d="M31.27,95.429h-2.73l-5.25-21.24h2.28l4.38,18.87h0.06l4.38-18.87h2.22L31.27,95.429z"/>
	<path fill="#FFFFFF" d="M39.97,95.429v-21.24h2.1v21.24H39.97z"/>
	<path fill="#FFFFFF" d="M56.89,89.999c0,0.94-0.14,1.774-0.42,2.505c-0.281,0.73-0.666,1.35-1.155,1.859
		c-0.49,0.511-1.065,0.9-1.725,1.171c-0.66,0.27-1.36,0.404-2.1,0.404c-1.08,0-2.075-0.229-2.985-0.689s-1.645-1.07-2.205-1.83
		l1.29-1.471c0.46,0.66,1.04,1.171,1.74,1.53c0.7,0.36,1.41,0.54,2.13,0.54c0.96,0,1.765-0.34,2.415-1.02
		c0.65-0.68,0.975-1.65,0.975-2.91c0-0.601-0.101-1.13-0.3-1.59c-0.2-0.46-0.47-0.87-0.81-1.23c-0.34-0.359-0.726-0.68-1.155-0.96
		c-0.43-0.279-0.885-0.54-1.365-0.78c-0.581-0.279-1.13-0.595-1.65-0.944s-0.975-0.755-1.365-1.215s-0.705-1.006-0.945-1.636
		c-0.24-0.63-0.36-1.364-0.36-2.205c0-0.979,0.15-1.834,0.45-2.564c0.3-0.73,0.705-1.34,1.215-1.83
		c0.51-0.49,1.085-0.855,1.725-1.095c0.64-0.24,1.31-0.36,2.01-0.36c0.96,0,1.825,0.165,2.595,0.495
		c0.77,0.33,1.415,0.845,1.935,1.545l-1.29,1.47c-0.4-0.58-0.87-0.994-1.41-1.245c-0.54-0.249-1.13-0.375-1.77-0.375
		c-0.42,0-0.835,0.075-1.245,0.226c-0.41,0.149-0.775,0.385-1.095,0.705c-0.32,0.32-0.581,0.73-0.78,1.229
		c-0.2,0.5-0.3,1.091-0.3,1.771c0,0.6,0.09,1.12,0.27,1.56c0.18,0.44,0.425,0.83,0.735,1.17c0.31,0.341,0.67,0.641,1.08,0.9
		c0.41,0.26,0.835,0.5,1.275,0.72c0.56,0.28,1.115,0.6,1.665,0.96c0.55,0.36,1.045,0.78,1.485,1.26c0.439,0.48,0.79,1.04,1.05,1.681
		C56.759,88.389,56.89,89.139,56.89,89.999z"/>
	<path fill="#FFFFFF" d="M73.014,91.094c-0.21,0.971-0.55,1.815-1.02,2.535c-0.47,0.72-1.095,1.285-1.875,1.694
		c-0.78,0.41-1.74,0.615-2.88,0.615c-1.14,0-2.096-0.205-2.865-0.615c-0.77-0.409-1.39-0.975-1.86-1.694
		c-0.47-0.72-0.806-1.564-1.005-2.535c-0.2-0.97-0.3-2.005-0.3-3.105v-13.8h2.1v13.53c0,0.78,0.055,1.55,0.165,2.31
		c0.109,0.761,0.31,1.436,0.6,2.025c0.29,0.59,0.69,1.065,1.2,1.425c0.51,0.36,1.175,0.54,1.995,0.54c0.8,0,1.459-0.18,1.98-0.54
		c0.52-0.359,0.925-0.835,1.215-1.425s0.49-1.26,0.6-2.01s0.165-1.525,0.165-2.325v-13.53h2.1v13.8
		C73.329,89.089,73.224,90.124,73.014,91.094z"/>
	<path fill="#FFFFFF" d="M87.429,95.429l-1.289-5.31h-6.541l-1.35,5.31h-2.13l5.4-21.24h2.85l5.25,21.24H87.429z M82.959,76.079
		h-0.12l-2.94,12.359h5.94L82.959,76.079z"/>
	<path fill="#FFFFFF" d="M93.008,95.429v-21.24h2.101v19.29h6.06v1.95H93.008z"/>
	<path fill="#FFFFFF" d="M122.319,84.839c0,1.74-0.181,3.27-0.54,4.59c-0.36,1.32-0.881,2.426-1.561,3.315s-1.495,1.56-2.444,2.01
		c-0.95,0.45-2.006,0.675-3.165,0.675h-4.561v-21.24h4.59c1.16,0,2.215,0.226,3.165,0.675c0.95,0.45,1.76,1.125,2.431,2.025
		c0.67,0.9,1.185,2.016,1.545,3.345C122.138,81.564,122.319,83.099,122.319,84.839z M120.249,84.839
		c0-1.505-0.146-2.814-0.435-3.929c-0.29-1.113-0.69-2.031-1.2-2.754s-1.11-1.265-1.8-1.626c-0.69-0.36-1.436-0.542-2.235-0.542
		h-2.46v17.641h2.46c0.8,0,1.545-0.181,2.235-0.542c0.689-0.361,1.29-0.903,1.8-1.626c0.51-0.722,0.91-1.635,1.2-2.739
		C120.103,87.618,120.249,86.323,120.249,84.839z"/>
	<path fill="#FFFFFF" d="M127.028,95.429v-21.24h8.551v1.86h-6.511v7.439h6.09v1.801h-6.09v8.25h6.811v1.89H127.028z"/>
	<path fill="#FFFFFF" d="M149.528,89.999c0,0.94-0.14,1.774-0.42,2.505s-0.665,1.35-1.154,1.859c-0.491,0.511-1.065,0.9-1.726,1.171
		c-0.66,0.27-1.36,0.404-2.1,0.404c-1.08,0-2.075-0.229-2.985-0.689s-1.646-1.07-2.205-1.83l1.29-1.471
		c0.46,0.66,1.04,1.171,1.74,1.53c0.7,0.36,1.41,0.54,2.13,0.54c0.96,0,1.765-0.34,2.415-1.02c0.649-0.68,0.975-1.65,0.975-2.91
		c0-0.601-0.1-1.13-0.3-1.59s-0.47-0.87-0.81-1.23c-0.341-0.359-0.726-0.68-1.155-0.96c-0.431-0.279-0.885-0.54-1.365-0.78
		c-0.58-0.279-1.13-0.595-1.649-0.944c-0.521-0.35-0.976-0.755-1.365-1.215s-0.705-1.006-0.945-1.636s-0.359-1.364-0.359-2.205
		c0-0.979,0.149-1.834,0.449-2.564c0.301-0.73,0.705-1.34,1.216-1.83c0.51-0.49,1.084-0.855,1.725-1.095
		c0.64-0.24,1.31-0.36,2.01-0.36c0.96,0,1.825,0.165,2.595,0.495c0.771,0.33,1.415,0.845,1.936,1.545l-1.29,1.47
		c-0.4-0.58-0.87-0.994-1.41-1.245c-0.54-0.249-1.13-0.375-1.77-0.375c-0.42,0-0.836,0.075-1.245,0.226
		c-0.41,0.149-0.775,0.385-1.096,0.705c-0.319,0.32-0.58,0.73-0.779,1.229c-0.2,0.5-0.3,1.091-0.3,1.771c0,0.6,0.09,1.12,0.27,1.56
		c0.18,0.44,0.425,0.83,0.735,1.17c0.31,0.341,0.67,0.641,1.08,0.9c0.409,0.26,0.834,0.5,1.274,0.72c0.56,0.28,1.115,0.6,1.665,0.96
		s1.045,0.78,1.485,1.26c0.439,0.48,0.79,1.04,1.05,1.681C149.398,88.389,149.528,89.139,149.528,89.999z"/>
	<path fill="#FFFFFF" d="M154.087,95.429v-21.24h2.101v21.24H154.087z"/>
	<path fill="#FFFFFF" d="M171.323,95.355c-0.83,0.309-1.806,0.463-2.925,0.463c-1.181,0-2.24-0.26-3.181-0.779
		c-0.939-0.521-1.729-1.261-2.369-2.221c-0.641-0.96-1.131-2.119-1.471-3.479s-0.51-2.88-0.51-4.561
		c0-1.579,0.165-3.049,0.495-4.409s0.805-2.535,1.425-3.525s1.38-1.765,2.28-2.325c0.899-0.56,1.92-0.84,3.06-0.84
		c1.04,0,1.99,0.21,2.851,0.63c0.859,0.42,1.579,1.08,2.159,1.98l-1.35,1.38c-0.46-0.7-0.995-1.225-1.604-1.575
		c-0.61-0.35-1.266-0.525-1.966-0.525c-0.88,0-1.64,0.245-2.279,0.735c-0.641,0.49-1.176,1.155-1.605,1.995s-0.75,1.814-0.96,2.925
		s-0.314,2.295-0.314,3.555c0,1.32,0.109,2.541,0.329,3.66c0.221,1.12,0.556,2.085,1.006,2.896c0.449,0.81,1.01,1.445,1.68,1.904
		c0.67,0.461,1.444,0.69,2.325,0.69c0.64,0,1.215-0.08,1.725-0.24c0.51-0.159,0.935-0.39,1.275-0.689v-7.2h-3.03v-1.8h5.07v10.114
		C172.857,94.632,172.153,95.046,171.323,95.355z"/>
	<path fill="#FFFFFF" d="M188.055,95.429l-7.388-17.67h-0.09v17.67h-1.98v-21.24h2.61l7.35,17.67h0.091v-17.67h1.92v21.24H188.055z"
		/>
	<path fill="#FFFFFF" d="M196.177,95.429v-21.24h8.551v1.86h-6.511v7.439h6.09v1.801h-6.09v8.25h6.811v1.89H196.177z"/>
	<path fill="#FFFFFF" d="M218.108,95.429l-3.84-9.84h-2.73v9.84h-2.07v-21.24h5.101c0.699,0,1.375,0.096,2.024,0.285
		c0.65,0.19,1.23,0.506,1.74,0.945s0.92,1.02,1.23,1.74c0.31,0.72,0.465,1.6,0.465,2.64c0,0.899-0.115,1.675-0.346,2.325
		c-0.229,0.649-0.529,1.195-0.899,1.635c-0.37,0.44-0.78,0.78-1.23,1.02c-0.449,0.24-0.895,0.391-1.335,0.45l4.141,10.2H218.108z
		 M217.988,79.903c0-0.756-0.105-1.389-0.315-1.897c-0.21-0.508-0.49-0.911-0.84-1.21s-0.75-0.508-1.2-0.628
		c-0.45-0.119-0.915-0.18-1.395-0.18h-2.7v7.95h2.79c1.14,0,2.035-0.354,2.685-1.061C217.663,82.171,217.988,81.179,217.988,79.903z
		"/>
</g>
<rect y="26.245" opacity="0.65" fill="#FFFFFF" width="225.143" height="1.796"/>
</svg>
