<?xml version="1.0" encoding="utf-8"?>
<!-- Generator: Adobe Illustrator 15.0.0, SVG Export Plug-In . SVG Version: 6.00 Build 0)  -->
<!DOCTYPE svg PUBLIC "-//W3C//DTD SVG 1.1//EN" "http://www.w3.org/Graphics/SVG/1.1/DTD/svg11.dtd">
<svg version="1.1" id="Layer_1" xmlns="http://www.w3.org/2000/svg" xmlns:xlink="http://www.w3.org/1999/xlink" x="0px" y="0px"
	 width="179.333px" height="124.667px" viewBox="0 0 179.333 124.667" enable-background="new 0 0 179.333 124.667"
	 xml:space="preserve">
<g>
	<g>
		<linearGradient id="SVGID_1_" gradientUnits="userSpaceOnUse" x1="49.7568" y1="2.8535" x2="49.7568" y2="137.5502">
			<stop  offset="0" style="stop-color:#FFFFFF;stop-opacity:0.75"/>
			<stop  offset="1" style="stop-color:#FFFFFF;stop-opacity:0.75"/>
		</linearGradient>
		<path fill="url(#SVGID_1_)" d="M49.59,11.276c1.434,3.145,2.867,6.29,4.3,9.435c-0.353,0.161-0.706,0.325-1.057,0.491
			c-1.479-3.124-2.959-6.247-4.438-9.371c-0.783,0.371-1.562,0.754-2.336,1.148c-0.146-0.285-0.291-0.57-0.436-0.855
			c1.969-1.003,3.964-1.93,5.984-2.781c0.124,0.295,0.249,0.59,0.373,0.885C51.18,10.566,50.383,10.915,49.59,11.276z"/>
		<linearGradient id="SVGID_2_" gradientUnits="userSpaceOnUse" x1="58.4028" y1="0.6035" x2="58.4028" y2="136.5481">
			<stop  offset="0" style="stop-color:#FFFFFF;stop-opacity:0.75"/>
			<stop  offset="1" style="stop-color:#FFFFFF;stop-opacity:0.75"/>
		</linearGradient>
		<path fill="url(#SVGID_2_)" d="M62.158,17.485c-1.221-1.441-2.485-2.858-3.79-4.25c-0.51,0.182-1.018,0.369-1.525,0.562
			c0.62,1.636,1.24,3.271,1.859,4.908c-0.36,0.137-0.72,0.276-1.079,0.418c-1.39-3.511-2.779-7.022-4.168-10.534
			c1.011-0.4,2.027-0.781,3.047-1.144c0.42-0.149,0.843-0.242,1.268-0.278c0.423-0.037,0.825,0.007,1.204,0.131
			s0.719,0.34,1.019,0.647c0.3,0.308,0.532,0.728,0.697,1.257c0.143,0.458,0.199,0.874,0.17,1.246
			c-0.029,0.374-0.113,0.705-0.252,0.996c-0.14,0.292-0.316,0.54-0.531,0.746c-0.214,0.206-0.44,0.366-0.677,0.481
			c1.364,1.45,2.681,2.929,3.951,4.434C62.952,17.229,62.555,17.355,62.158,17.485z M59.513,9.639
			c-0.125-0.384-0.292-0.685-0.501-0.901c-0.208-0.216-0.443-0.365-0.701-0.446c-0.259-0.081-0.533-0.105-0.822-0.073
			c-0.288,0.033-0.576,0.1-0.861,0.202c-0.535,0.191-1.067,0.388-1.599,0.589c0.501,1.322,1.002,2.644,1.502,3.965
			c0.523-0.199,1.049-0.392,1.575-0.58c0.645-0.23,1.09-0.581,1.343-1.063C59.701,10.849,59.725,10.285,59.513,9.639z"/>
		<linearGradient id="SVGID_3_" gradientUnits="userSpaceOnUse" x1="67.9365" y1="-2.0728" x2="67.9365" y2="136.5063">
			<stop  offset="0" style="stop-color:#FFFFFF;stop-opacity:0.75"/>
			<stop  offset="1" style="stop-color:#FFFFFF;stop-opacity:0.75"/>
		</linearGradient>
		<path fill="url(#SVGID_3_)" d="M70.414,15.267c-0.428-0.875-0.865-1.746-1.309-2.614c-1.22,0.27-2.434,0.567-3.644,0.894
			c-0.003,0.979,0.001,1.956,0.015,2.933c-0.379,0.106-0.758,0.215-1.137,0.327c-0.112-3.904-0.083-7.831,0.087-11.771
			c0.583-0.149,1.167-0.292,1.751-0.429c1.938,3.424,3.746,6.9,5.421,10.419C71.204,15.102,70.809,15.183,70.414,15.267z
			 M65.55,5.792c-0.024,0.006-0.048,0.012-0.073,0.018c-0.072,2.28-0.099,4.556-0.081,6.825c1.11-0.297,2.226-0.57,3.345-0.82
			C67.72,9.792,66.656,7.784,65.55,5.792z"/>
		<linearGradient id="SVGID_4_" gradientUnits="userSpaceOnUse" x1="75.7183" y1="-4.083" x2="75.7183" y2="133.7417">
			<stop  offset="0" style="stop-color:#FFFFFF;stop-opacity:0.75"/>
			<stop  offset="1" style="stop-color:#FFFFFF;stop-opacity:0.75"/>
		</linearGradient>
		<path fill="url(#SVGID_4_)" d="M78.573,13.976c-1.678-2.982-3.514-5.912-5.503-8.779c-0.018,0.003-0.037,0.006-0.055,0.009
			c0.491,3.103,0.981,6.206,1.472,9.308c-0.36,0.057-0.719,0.116-1.078,0.178c-0.641-3.722-1.282-7.443-1.922-11.164
			c0.541-0.093,1.082-0.181,1.624-0.264c2.003,2.871,3.852,5.805,5.545,8.79c0.017-0.002,0.033-0.003,0.05-0.005
			c-0.317-3.125-0.633-6.251-0.95-9.376c0.4-0.041,0.801-0.078,1.203-0.114c0.331,3.762,0.661,7.523,0.992,11.285
			C79.491,13.883,79.032,13.928,78.573,13.976z"/>
		<linearGradient id="SVGID_5_" gradientUnits="userSpaceOnUse" x1="85.8716" y1="-3.9893" x2="85.8716" y2="124.6735">
			<stop  offset="0" style="stop-color:#FFFFFF;stop-opacity:0.75"/>
			<stop  offset="1" style="stop-color:#FFFFFF;stop-opacity:0.75"/>
		</linearGradient>
		<path fill="url(#SVGID_5_)" d="M88.237,13.509c-0.459,0.157-0.995,0.234-1.608,0.236c-0.648,0.002-1.23-0.126-1.756-0.39
			c-0.526-0.264-0.977-0.642-1.356-1.139c-0.38-0.496-0.688-1.1-0.919-1.814C82.365,9.688,82.22,8.884,82.17,7.99
			c-0.047-0.841,0.006-1.63,0.169-2.365C82.5,4.891,82.76,4.25,83.121,3.706c0.36-0.544,0.819-0.974,1.376-1.288
			c0.555-0.314,1.198-0.475,1.916-0.479c0.656-0.003,1.255,0.112,1.792,0.344c0.537,0.231,0.979,0.595,1.325,1.085
			c-0.286,0.237-0.57,0.476-0.852,0.715c-0.275-0.378-0.604-0.664-0.981-0.854c-0.377-0.189-0.786-0.284-1.222-0.282
			c-0.548,0.002-1.021,0.14-1.413,0.41c-0.392,0.27-0.713,0.634-0.961,1.089c-0.25,0.457-0.425,0.983-0.529,1.58
			c-0.103,0.597-0.14,1.231-0.112,1.902c0.028,0.704,0.12,1.352,0.269,1.943c0.151,0.592,0.36,1.099,0.627,1.523
			c0.268,0.424,0.591,0.754,0.97,0.992c0.379,0.238,0.81,0.354,1.299,0.353c0.355-0.001,0.675-0.043,0.959-0.126
			c0.284-0.083,0.522-0.202,0.716-0.359c0.021-1.28,0.043-2.56,0.065-3.84c-0.591-0.01-1.183-0.014-1.774-0.011
			c-0.001-0.32-0.002-0.64-0.004-0.96c1.001-0.004,2.002,0.009,3.002,0.041c-0.056,1.797-0.112,3.595-0.167,5.392
			C89.091,13.141,88.696,13.352,88.237,13.509z"/>
		<linearGradient id="SVGID_6_" gradientUnits="userSpaceOnUse" x1="98.0527" y1="-3.8193" x2="98.0527" y2="128.5423">
			<stop  offset="0" style="stop-color:#FFFFFF;stop-opacity:0.75"/>
			<stop  offset="1" style="stop-color:#FFFFFF;stop-opacity:0.75"/>
		</linearGradient>
		<path fill="url(#SVGID_6_)" d="M98.613,3.931c-0.449,3.427-0.897,6.854-1.347,10.281c-0.377-0.05-0.755-0.096-1.133-0.14
			c0.4-3.433,0.8-6.866,1.199-10.299c-0.841-0.098-1.684-0.184-2.526-0.258c0.028-0.319,0.057-0.638,0.084-0.956
			c2.143,0.188,4.28,0.452,6.408,0.793c-0.051,0.316-0.101,0.632-0.151,0.948C100.304,4.165,99.459,4.042,98.613,3.931z"/>
		<linearGradient id="SVGID_7_" gradientUnits="userSpaceOnUse" x1="105.168" y1="-3.1299" x2="105.168" y2="138.2611">
			<stop  offset="0" style="stop-color:#FFFFFF;stop-opacity:0.75"/>
			<stop  offset="1" style="stop-color:#FFFFFF;stop-opacity:0.75"/>
		</linearGradient>
		<path fill="url(#SVGID_7_)" d="M105.879,15.825c-0.272-1.868-0.592-3.737-0.958-5.607c-0.524-0.114-1.05-0.222-1.575-0.326
			c-0.339,1.716-0.677,3.433-1.016,5.149c-0.374-0.074-0.748-0.145-1.123-0.213c0.677-3.715,1.354-7.43,2.031-11.145
			c1.055,0.192,2.106,0.403,3.156,0.633c0.433,0.095,0.837,0.239,1.213,0.431c0.377,0.192,0.693,0.441,0.949,0.746
			c0.254,0.305,0.427,0.667,0.519,1.087c0.092,0.42,0.065,0.898-0.073,1.435c-0.12,0.465-0.293,0.848-0.513,1.148
			c-0.221,0.302-0.467,0.539-0.738,0.712c-0.271,0.174-0.551,0.292-0.84,0.354c-0.29,0.062-0.564,0.079-0.825,0.052
			c0.387,1.95,0.72,3.9,1.001,5.849C106.685,16.025,106.282,15.923,105.879,15.825z M107.777,7.765
			c0.097-0.392,0.114-0.735,0.051-1.029c-0.062-0.294-0.182-0.543-0.357-0.749c-0.175-0.205-0.393-0.37-0.653-0.495
			c-0.26-0.125-0.537-0.219-0.83-0.282c-0.55-0.119-1.1-0.233-1.651-0.342c-0.273,1.387-0.547,2.773-0.82,4.16
			c0.543,0.107,1.085,0.219,1.626,0.337c0.664,0.145,1.225,0.082,1.691-0.196C107.298,8.892,107.616,8.426,107.777,7.765z"/>
		<linearGradient id="SVGID_8_" gradientUnits="userSpaceOnUse" x1="112.0928" y1="-0.2739" x2="112.0928" y2="139.2646">
			<stop  offset="0" style="stop-color:#FFFFFF;stop-opacity:0.75"/>
			<stop  offset="1" style="stop-color:#FFFFFF;stop-opacity:0.75"/>
		</linearGradient>
		<path fill="url(#SVGID_8_)" d="M114.078,18.309c0.097-0.969,0.185-1.94,0.265-2.914c-1.188-0.418-2.383-0.809-3.584-1.172
			c-0.521,0.829-1.033,1.662-1.537,2.498c-0.379-0.11-0.758-0.218-1.138-0.323c1.966-3.375,4.065-6.694,6.295-9.949
			c0.576,0.182,1.149,0.371,1.723,0.564c-0.156,3.934-0.449,7.843-0.877,11.72C114.844,18.589,114.461,18.447,114.078,18.309z
			 M114.937,7.688c-0.024-0.008-0.048-0.015-0.071-0.023c-1.269,1.897-2.495,3.814-3.681,5.75c1.103,0.335,2.199,0.694,3.29,1.076
			C114.672,12.233,114.826,9.965,114.937,7.688z"/>
		<linearGradient id="SVGID_9_" gradientUnits="userSpaceOnUse" x1="122.5918" y1="1.6494" x2="122.5918" y2="152.641">
			<stop  offset="0" style="stop-color:#FFFFFF;stop-opacity:0.75"/>
			<stop  offset="1" style="stop-color:#FFFFFF;stop-opacity:0.75"/>
		</linearGradient>
		<path fill="url(#SVGID_9_)" d="M121.812,21.585c0.127-3.433,0.094-6.903-0.101-10.398c-0.018-0.007-0.035-0.015-0.054-0.022
			c-1.225,2.893-2.449,5.785-3.675,8.678c-0.341-0.144-0.682-0.286-1.024-0.426c1.424-3.497,2.848-6.994,4.271-10.492
			c0.516,0.21,1.03,0.425,1.543,0.645c0.206,3.506,0.25,6.988,0.135,10.432c0.016,0.008,0.03,0.015,0.046,0.023
			c1.389-2.818,2.776-5.636,4.164-8.455c0.37,0.182,0.739,0.367,1.107,0.555c-1.714,3.365-3.429,6.729-5.143,10.093
			C122.66,22.003,122.236,21.792,121.812,21.585z"/>
	</g>
</g>
<g>
	<linearGradient id="SVGID_10_" gradientUnits="userSpaceOnUse" x1="15.8091" y1="4.667" x2="15.8091" y2="133.3404">
		<stop  offset="0" style="stop-color:#FFFFFF;stop-opacity:0.75"/>
		<stop  offset="1" style="stop-color:#FFFFFF;stop-opacity:0.75"/>
	</linearGradient>
	<path fill="url(#SVGID_10_)" d="M20.788,55.035c-0.182,0.841-0.477,1.573-0.884,2.197c-0.408,0.624-0.949,1.114-1.625,1.469
		c-0.676,0.355-1.508,0.533-2.496,0.533s-1.816-0.178-2.483-0.533c-0.667-0.355-1.205-0.845-1.612-1.469s-0.698-1.356-0.871-2.197
		c-0.174-0.841-0.26-1.738-0.26-2.691v-11.96h1.82V52.11c0,0.676,0.048,1.344,0.143,2.002c0.095,0.659,0.269,1.244,0.52,1.755
		c0.251,0.511,0.598,0.923,1.04,1.235s1.018,0.468,1.729,0.468c0.693,0,1.265-0.156,1.716-0.468c0.45-0.312,0.801-0.724,1.053-1.235
		c0.251-0.511,0.425-1.092,0.52-1.742s0.143-1.322,0.143-2.015V40.384h1.82v11.96C21.061,53.297,20.97,54.194,20.788,55.035z"/>
	<linearGradient id="SVGID_11_" gradientUnits="userSpaceOnUse" x1="26.5728" y1="4.667" x2="26.5727" y2="133.3404">
		<stop  offset="0" style="stop-color:#FFFFFF;stop-opacity:0.75"/>
		<stop  offset="1" style="stop-color:#FFFFFF;stop-opacity:0.75"/>
	</linearGradient>
	<path fill="url(#SVGID_11_)" d="M25.663,58.792V40.384h1.82v18.408H25.663z"/>
	<linearGradient id="SVGID_12_" gradientUnits="userSpaceOnUse" x1="33.5278" y1="4.667" x2="33.5278" y2="133.3404">
		<stop  offset="0" style="stop-color:#FFFFFF;stop-opacity:0.75"/>
		<stop  offset="1" style="stop-color:#FFFFFF;stop-opacity:0.75"/>
	</linearGradient>
	<path fill="url(#SVGID_12_)" d="M31.876,59.676l-1.3-0.234l4.602-20.098l1.3,0.26L31.876,59.676z"/>
	<linearGradient id="SVGID_13_" gradientUnits="userSpaceOnUse" x1="44.5386" y1="4.667" x2="44.5386" y2="133.3404">
		<stop  offset="0" style="stop-color:#FFFFFF;stop-opacity:0.75"/>
		<stop  offset="1" style="stop-color:#FFFFFF;stop-opacity:0.75"/>
	</linearGradient>
	<path fill="url(#SVGID_13_)" d="M49.518,55.035c-0.182,0.841-0.477,1.573-0.884,2.197c-0.408,0.624-0.949,1.114-1.625,1.469
		c-0.676,0.355-1.508,0.533-2.496,0.533s-1.816-0.178-2.483-0.533c-0.667-0.355-1.205-0.845-1.612-1.469s-0.698-1.356-0.871-2.197
		c-0.174-0.841-0.26-1.738-0.26-2.691v-11.96h1.82V52.11c0,0.676,0.048,1.344,0.143,2.002c0.095,0.659,0.269,1.244,0.52,1.755
		c0.251,0.511,0.598,0.923,1.04,1.235s1.018,0.468,1.729,0.468c0.693,0,1.265-0.156,1.716-0.468c0.45-0.312,0.801-0.724,1.053-1.235
		c0.251-0.511,0.425-1.092,0.52-1.742s0.143-1.322,0.143-2.015V40.384h1.82v11.96C49.791,53.297,49.7,54.194,49.518,55.035z"/>
	<linearGradient id="SVGID_14_" gradientUnits="userSpaceOnUse" x1="58.188" y1="4.667" x2="58.188" y2="133.3404">
		<stop  offset="0" style="stop-color:#FFFFFF;stop-opacity:0.75"/>
		<stop  offset="1" style="stop-color:#FFFFFF;stop-opacity:0.75"/>
	</linearGradient>
	<path fill="url(#SVGID_14_)" d="M61.88,58.792l-3.718-8.164l-3.718,8.164H52.52l4.654-9.698l-4.186-8.71h1.924l3.302,7.28
		l3.276-7.28h1.872l-4.16,8.736l4.654,9.672H61.88z"/>
	<linearGradient id="SVGID_15_" gradientUnits="userSpaceOnUse" x1="77.1812" y1="4.667" x2="77.1811" y2="133.3404">
		<stop  offset="0" style="stop-color:#FFFFFF;stop-opacity:0.75"/>
		<stop  offset="1" style="stop-color:#FFFFFF;stop-opacity:0.75"/>
	</linearGradient>
	<path fill="url(#SVGID_15_)" d="M82.499,49.614c0,1.508-0.156,2.834-0.468,3.978s-0.763,2.102-1.352,2.873
		c-0.589,0.771-1.296,1.352-2.119,1.742s-1.738,0.585-2.743,0.585h-3.952V40.384h3.978c1.005,0,1.919,0.195,2.743,0.585
		c0.823,0.39,1.525,0.975,2.106,1.755c0.581,0.78,1.027,1.747,1.339,2.899C82.342,46.776,82.499,48.106,82.499,49.614z
		 M80.704,49.614c0-1.304-0.126-2.439-0.377-3.404c-0.251-0.965-0.598-1.761-1.04-2.387c-0.442-0.626-0.962-1.095-1.56-1.409
		c-0.598-0.313-1.244-0.47-1.937-0.47h-2.132v15.288h2.132c0.693,0,1.339-0.156,1.937-0.47c0.598-0.312,1.118-0.782,1.56-1.409
		c0.442-0.626,0.789-1.417,1.04-2.374C80.578,52.023,80.704,50.901,80.704,49.614z"/>
	<linearGradient id="SVGID_16_" gradientUnits="userSpaceOnUse" x1="90.3623" y1="4.667" x2="90.3623" y2="133.3404">
		<stop  offset="0" style="stop-color:#FFFFFF;stop-opacity:0.75"/>
		<stop  offset="1" style="stop-color:#FFFFFF;stop-opacity:0.75"/>
	</linearGradient>
	<path fill="url(#SVGID_16_)" d="M86.528,58.792V40.384h7.41v1.612h-5.642v6.448h5.278v1.56h-5.278v7.15h5.901v1.638H86.528z"/>
	<linearGradient id="SVGID_17_" gradientUnits="userSpaceOnUse" x1="101.3867" y1="4.667" x2="101.3867" y2="133.3404">
		<stop  offset="0" style="stop-color:#FFFFFF;stop-opacity:0.75"/>
		<stop  offset="1" style="stop-color:#FFFFFF;stop-opacity:0.75"/>
	</linearGradient>
	<path fill="url(#SVGID_17_)" d="M105.976,54.086c0,0.815-0.122,1.539-0.364,2.171c-0.242,0.633-0.576,1.17-1,1.612
		c-0.426,0.442-0.924,0.78-1.496,1.014c-0.572,0.234-1.179,0.351-1.819,0.351c-0.937,0-1.799-0.199-2.587-0.598
		c-0.789-0.399-1.426-0.927-1.911-1.586l1.118-1.274c0.398,0.572,0.9,1.014,1.508,1.326c0.606,0.312,1.222,0.468,1.846,0.468
		c0.832,0,1.529-0.294,2.094-0.884c0.562-0.589,0.844-1.43,0.844-2.522c0-0.52-0.086-0.979-0.26-1.378
		c-0.173-0.398-0.407-0.754-0.701-1.066c-0.295-0.312-0.629-0.589-1.002-0.832s-0.767-0.468-1.183-0.676
		c-0.503-0.243-0.979-0.516-1.43-0.819c-0.451-0.303-0.845-0.654-1.183-1.053c-0.338-0.398-0.611-0.871-0.819-1.417
		s-0.312-1.183-0.312-1.911c0-0.849,0.129-1.59,0.389-2.223c0.261-0.633,0.611-1.161,1.054-1.586s0.94-0.741,1.495-0.949
		s1.135-0.312,1.742-0.312c0.832,0,1.581,0.143,2.248,0.429c0.668,0.286,1.227,0.732,1.678,1.339l-1.118,1.274
		c-0.347-0.502-0.754-0.862-1.222-1.079c-0.469-0.216-0.98-0.325-1.534-0.325c-0.364,0-0.724,0.065-1.079,0.195
		s-0.672,0.334-0.949,0.611s-0.503,0.633-0.676,1.066c-0.174,0.433-0.26,0.945-0.26,1.534c0,0.52,0.078,0.971,0.234,1.352
		c0.155,0.381,0.367,0.72,0.637,1.014c0.268,0.295,0.58,0.555,0.936,0.78c0.355,0.226,0.724,0.434,1.105,0.624
		c0.484,0.243,0.966,0.52,1.443,0.832c0.476,0.312,0.904,0.676,1.286,1.092s0.685,0.901,0.91,1.456S105.976,53.341,105.976,54.086z"
		/>
	<linearGradient id="SVGID_18_" gradientUnits="userSpaceOnUse" x1="110.7852" y1="4.667" x2="110.7851" y2="133.3404">
		<stop  offset="0" style="stop-color:#FFFFFF;stop-opacity:0.75"/>
		<stop  offset="1" style="stop-color:#FFFFFF;stop-opacity:0.75"/>
	</linearGradient>
	<path fill="url(#SVGID_18_)" d="M109.875,58.792V40.384h1.82v18.408H109.875z"/>
	<linearGradient id="SVGID_19_" gradientUnits="userSpaceOnUse" x1="121.1465" y1="4.667" x2="121.1465" y2="133.3404">
		<stop  offset="0" style="stop-color:#FFFFFF;stop-opacity:0.75"/>
		<stop  offset="1" style="stop-color:#FFFFFF;stop-opacity:0.75"/>
	</linearGradient>
	<path fill="url(#SVGID_19_)" d="M124.76,58.728c-0.719,0.268-1.564,0.402-2.534,0.402c-1.022,0-1.941-0.226-2.757-0.676
		c-0.814-0.451-1.499-1.092-2.053-1.924c-0.556-0.832-0.98-1.837-1.274-3.016c-0.295-1.179-0.442-2.496-0.442-3.952
		c0-1.369,0.143-2.643,0.43-3.822c0.285-1.179,0.697-2.197,1.234-3.055s1.196-1.53,1.977-2.015c0.779-0.485,1.664-0.728,2.651-0.728
		c0.901,0,1.725,0.182,2.47,0.546c0.746,0.364,1.369,0.936,1.873,1.716l-1.17,1.196c-0.399-0.606-0.863-1.062-1.392-1.365
		s-1.097-0.455-1.703-0.455c-0.763,0-1.421,0.212-1.976,0.637c-0.555,0.425-1.02,1.001-1.391,1.729
		c-0.373,0.728-0.65,1.573-0.832,2.535c-0.183,0.962-0.273,1.989-0.273,3.081c0,1.144,0.095,2.202,0.285,3.172
		c0.191,0.971,0.481,1.807,0.871,2.509c0.391,0.702,0.875,1.252,1.457,1.651c0.58,0.399,1.252,0.598,2.015,0.598
		c0.554,0,1.053-0.069,1.495-0.208c0.441-0.139,0.81-0.338,1.104-0.598v-6.24h-2.626v-1.56h4.395v8.766
		C126.09,58.102,125.479,58.46,124.76,58.728z"/>
	<linearGradient id="SVGID_20_" gradientUnits="userSpaceOnUse" x1="136.2002" y1="4.667" x2="136.2002" y2="133.3404">
		<stop  offset="0" style="stop-color:#FFFFFF;stop-opacity:0.75"/>
		<stop  offset="1" style="stop-color:#FFFFFF;stop-opacity:0.75"/>
	</linearGradient>
	<path fill="url(#SVGID_20_)" d="M139.21,58.792l-6.403-15.314h-0.078v15.314h-1.715V40.384h2.262l6.369,15.314h0.078V40.384h1.664
		v18.408H139.21z"/>
	<linearGradient id="SVGID_21_" gradientUnits="userSpaceOnUse" x1="150.0322" y1="4.667" x2="150.0322" y2="133.3404">
		<stop  offset="0" style="stop-color:#FFFFFF;stop-opacity:0.75"/>
		<stop  offset="1" style="stop-color:#FFFFFF;stop-opacity:0.75"/>
	</linearGradient>
	<path fill="url(#SVGID_21_)" d="M146.197,58.792V40.384h7.41v1.612h-5.643v6.448h5.277v1.56h-5.277v7.15h5.902v1.638H146.197z"/>
	<linearGradient id="SVGID_22_" gradientUnits="userSpaceOnUse" x1="162.3809" y1="4.667" x2="162.3809" y2="133.3404">
		<stop  offset="0" style="stop-color:#FFFFFF;stop-opacity:0.75"/>
		<stop  offset="1" style="stop-color:#FFFFFF;stop-opacity:0.75"/>
	</linearGradient>
	<path fill="url(#SVGID_22_)" d="M165.15,58.792l-3.328-8.528h-2.365v8.528h-1.795V40.384h4.42c0.607,0,1.192,0.083,1.756,0.247
		c0.562,0.165,1.066,0.438,1.508,0.819s0.797,0.884,1.066,1.508c0.268,0.624,0.402,1.387,0.402,2.288c0,0.78-0.1,1.452-0.299,2.015
		c-0.199,0.563-0.459,1.036-0.779,1.417c-0.322,0.381-0.677,0.676-1.066,0.884c-0.391,0.208-0.776,0.338-1.157,0.39l3.588,8.84
		H165.15z M165.047,45.337c0-0.656-0.092-1.204-0.273-1.645s-0.425-0.79-0.729-1.049c-0.303-0.259-0.649-0.44-1.039-0.544
		c-0.391-0.104-0.793-0.156-1.209-0.156h-2.34v6.89h2.418c0.988,0,1.764-0.306,2.326-0.919
		C164.765,47.302,165.047,46.442,165.047,45.337z"/>
	<linearGradient id="SVGID_23_" gradientUnits="userSpaceOnUse" x1="88.5942" y1="4.667" x2="88.5942" y2="133.3404">
		<stop  offset="0" style="stop-color:#FFFFFF;stop-opacity:0.75"/>
		<stop  offset="1" style="stop-color:#FFFFFF;stop-opacity:0.75"/>
	</linearGradient>
	<path fill="url(#SVGID_23_)" d="M95.307,79.659c-0.086,0.972-0.268,1.929-0.545,2.868c-0.279,0.938-0.659,1.81-1.141,2.611
		c0.5,0.558,1.053,1.152,1.656,1.785c0.604,0.632,1.204,1.255,1.799,1.869h-2.69c-0.358-0.359-0.694-0.701-1.005-1.027
		c-0.312-0.326-0.619-0.678-0.921-1.055c-0.358,0.387-0.755,0.741-1.189,1.062c-0.434,0.32-0.904,0.602-1.409,0.842
		c-0.505,0.24-1.039,0.428-1.601,0.561c-0.562,0.131-1.149,0.197-1.763,0.197c-1.18,0-2.176-0.166-2.988-0.496
		s-1.468-0.758-1.968-1.281s-0.864-1.111-1.09-1.763s-0.34-1.298-0.34-1.94c0-0.66,0.137-1.279,0.411-1.854s0.637-1.121,1.09-1.635
		c0.453-0.515,0.97-1.008,1.55-1.48c0.581-0.472,1.178-0.935,1.792-1.388c-0.736-1.104-1.303-2.117-1.699-3.038
		c-0.396-0.92-0.595-1.753-0.595-2.499c0-0.51,0.104-1.01,0.312-1.501s0.515-0.93,0.92-1.317s0.901-0.701,1.487-0.942
		c0.585-0.24,1.255-0.361,2.011-0.361c0.793,0,1.487,0.127,2.082,0.382s1.09,0.583,1.487,0.984c0.396,0.401,0.694,0.85,0.892,1.345
		c0.198,0.496,0.297,0.984,0.297,1.466c0,0.595-0.125,1.156-0.375,1.685c-0.25,0.529-0.58,1.034-0.991,1.515
		c-0.41,0.481-0.882,0.944-1.416,1.388c-0.533,0.444-1.083,0.878-1.649,1.303c0.595,0.802,1.253,1.654,1.976,2.556
		c0.722,0.902,1.569,1.915,2.542,3.038c0.292-0.557,0.526-1.161,0.7-1.812c0.176-0.651,0.301-1.34,0.376-2.067H95.307z
		 M86.456,87.32c0.944,0,1.805-0.189,2.584-0.566c0.778-0.378,1.465-0.906,2.06-1.586c-0.963-1.086-1.862-2.127-2.698-3.123
		c-0.835-0.996-1.607-1.966-2.315-2.91c-0.519,0.377-1.015,0.758-1.487,1.14c-0.472,0.383-0.89,0.77-1.253,1.161
		c-0.364,0.393-0.651,0.793-0.864,1.205c-0.212,0.41-0.318,0.837-0.318,1.281c0,0.585,0.123,1.092,0.368,1.521
		s0.571,0.783,0.977,1.062c0.406,0.278,0.864,0.483,1.374,0.615C85.394,87.253,85.918,87.32,86.456,87.32z M84.7,71.97
		c0,0.5,0.151,1.104,0.453,1.812s0.779,1.572,1.43,2.591c0.481-0.349,0.935-0.699,1.359-1.048s0.795-0.701,1.111-1.055
		c0.316-0.354,0.566-0.715,0.751-1.083c0.184-0.368,0.276-0.746,0.276-1.133c0-0.377-0.071-0.708-0.212-0.991
		s-0.335-0.515-0.581-0.694s-0.533-0.314-0.864-0.404c-0.331-0.089-0.685-0.134-1.062-0.134c-0.34,0-0.67,0.047-0.991,0.142
		s-0.604,0.231-0.85,0.411s-0.444,0.401-0.595,0.666S84.7,71.621,84.7,71.97z"/>
	<linearGradient id="SVGID_24_" gradientUnits="userSpaceOnUse" x1="11.4019" y1="4.667" x2="11.4018" y2="133.3404">
		<stop  offset="0" style="stop-color:#FFFFFF;stop-opacity:0.75"/>
		<stop  offset="1" style="stop-color:#FFFFFF;stop-opacity:0.75"/>
	</linearGradient>
	<path fill="url(#SVGID_24_)" d="M12.546,118.792H10.18l-4.55-18.408h1.976l3.796,16.354h0.052l3.796-16.354h1.924L12.546,118.792z"
		/>
	<linearGradient id="SVGID_25_" gradientUnits="userSpaceOnUse" x1="20.9438" y1="4.667" x2="20.9438" y2="133.3404">
		<stop  offset="0" style="stop-color:#FFFFFF;stop-opacity:0.75"/>
		<stop  offset="1" style="stop-color:#FFFFFF;stop-opacity:0.75"/>
	</linearGradient>
	<path fill="url(#SVGID_25_)" d="M20.034,118.792v-18.408h1.82v18.408H20.034z"/>
	<linearGradient id="SVGID_26_" gradientUnits="userSpaceOnUse" x1="30.0566" y1="4.667" x2="30.0566" y2="133.3404">
		<stop  offset="0" style="stop-color:#FFFFFF;stop-opacity:0.75"/>
		<stop  offset="1" style="stop-color:#FFFFFF;stop-opacity:0.75"/>
	</linearGradient>
	<path fill="url(#SVGID_26_)" d="M34.646,114.085c0,0.816-0.122,1.539-0.364,2.172c-0.243,0.633-0.577,1.17-1.001,1.611
		c-0.425,0.441-0.923,0.781-1.495,1.014c-0.572,0.234-1.179,0.352-1.82,0.352c-0.936,0-1.799-0.199-2.587-0.598
		s-1.426-0.928-1.911-1.586l1.118-1.273c0.399,0.57,0.901,1.014,1.508,1.324c0.606,0.312,1.222,0.469,1.846,0.469
		c0.832,0,1.53-0.295,2.093-0.885c0.563-0.588,0.845-1.43,0.845-2.521c0-0.52-0.087-0.979-0.26-1.377
		c-0.173-0.398-0.408-0.754-0.702-1.066c-0.295-0.312-0.628-0.59-1.001-0.832c-0.373-0.242-0.767-0.469-1.183-0.676
		c-0.503-0.242-0.979-0.516-1.43-0.82c-0.451-0.303-0.845-0.652-1.183-1.053c-0.338-0.398-0.611-0.871-0.819-1.416
		c-0.208-0.547-0.312-1.184-0.312-1.912c0-0.848,0.13-1.59,0.39-2.223c0.26-0.633,0.611-1.16,1.053-1.586
		c0.442-0.424,0.94-0.74,1.495-0.949c0.554-0.207,1.135-0.311,1.742-0.311c0.832,0,1.582,0.143,2.249,0.428
		c0.667,0.287,1.226,0.732,1.677,1.34l-1.118,1.273c-0.347-0.502-0.754-0.861-1.222-1.078c-0.468-0.217-0.979-0.326-1.534-0.326
		c-0.364,0-0.724,0.064-1.079,0.195c-0.355,0.131-0.672,0.334-0.949,0.611s-0.503,0.633-0.676,1.066
		c-0.173,0.434-0.26,0.943-0.26,1.533c0,0.52,0.078,0.971,0.234,1.352c0.156,0.383,0.368,0.721,0.637,1.014
		c0.269,0.295,0.581,0.557,0.936,0.781c0.355,0.225,0.724,0.434,1.105,0.623c0.485,0.244,0.966,0.521,1.443,0.832
		c0.476,0.312,0.905,0.676,1.287,1.092s0.685,0.902,0.91,1.457C34.533,112.691,34.646,113.341,34.646,114.085z"/>
	<linearGradient id="SVGID_27_" gradientUnits="userSpaceOnUse" x1="43.5894" y1="4.667" x2="43.5894" y2="133.3404">
		<stop  offset="0" style="stop-color:#FFFFFF;stop-opacity:0.75"/>
		<stop  offset="1" style="stop-color:#FFFFFF;stop-opacity:0.75"/>
	</linearGradient>
	<path fill="url(#SVGID_27_)" d="M48.568,115.035c-0.182,0.842-0.477,1.574-0.884,2.197c-0.408,0.625-0.949,1.113-1.625,1.469
		c-0.676,0.355-1.508,0.533-2.496,0.533s-1.816-0.178-2.483-0.533c-0.667-0.355-1.205-0.844-1.612-1.469
		c-0.407-0.623-0.698-1.355-0.871-2.197c-0.174-0.84-0.26-1.736-0.26-2.691v-11.959h1.82v11.727c0,0.676,0.048,1.342,0.143,2.002
		c0.095,0.658,0.269,1.242,0.52,1.754c0.251,0.512,0.598,0.924,1.04,1.234c0.442,0.312,1.018,0.469,1.729,0.469
		c0.693,0,1.265-0.156,1.716-0.469c0.45-0.311,0.801-0.723,1.053-1.234c0.251-0.512,0.425-1.092,0.52-1.742s0.143-1.32,0.143-2.014
		v-11.727h1.82v11.959C48.841,113.298,48.75,114.195,48.568,115.035z"/>
	<linearGradient id="SVGID_28_" gradientUnits="userSpaceOnUse" x1="57.0571" y1="4.667" x2="57.0571" y2="133.3404">
		<stop  offset="0" style="stop-color:#FFFFFF;stop-opacity:0.75"/>
		<stop  offset="1" style="stop-color:#FFFFFF;stop-opacity:0.75"/>
	</linearGradient>
	<path fill="url(#SVGID_28_)" d="M61.009,118.792l-1.118-4.602h-5.668l-1.17,4.602h-1.846l4.68-18.408h2.47l4.55,18.408H61.009z
		 M57.135,102.023h-0.104l-2.548,10.711h5.148L57.135,102.023z"/>
	<linearGradient id="SVGID_29_" gradientUnits="userSpaceOnUse" x1="69.3291" y1="4.667" x2="69.3291" y2="133.3404">
		<stop  offset="0" style="stop-color:#FFFFFF;stop-opacity:0.75"/>
		<stop  offset="1" style="stop-color:#FFFFFF;stop-opacity:0.75"/>
	</linearGradient>
	<path fill="url(#SVGID_29_)" d="M65.793,118.792v-18.408h1.82v16.717h5.252v1.691H65.793z"/>
	<linearGradient id="SVGID_30_" gradientUnits="userSpaceOnUse" x1="85.7739" y1="4.667" x2="85.7739" y2="133.3404">
		<stop  offset="0" style="stop-color:#FFFFFF;stop-opacity:0.75"/>
		<stop  offset="1" style="stop-color:#FFFFFF;stop-opacity:0.75"/>
	</linearGradient>
	<path fill="url(#SVGID_30_)" d="M91.091,109.615c0,1.508-0.156,2.834-0.468,3.977c-0.312,1.145-0.763,2.104-1.352,2.873
		c-0.589,0.771-1.296,1.354-2.119,1.742c-0.823,0.391-1.738,0.586-2.743,0.586h-3.952v-18.408h3.978
		c1.005,0,1.919,0.195,2.743,0.584c0.823,0.391,1.525,0.977,2.106,1.756c0.581,0.779,1.027,1.746,1.339,2.898
		C90.935,106.777,91.091,108.107,91.091,109.615z M89.297,109.615c0-1.305-0.126-2.439-0.377-3.404
		c-0.251-0.967-0.598-1.762-1.04-2.389c-0.442-0.625-0.962-1.096-1.56-1.408c-0.598-0.312-1.244-0.469-1.937-0.469h-2.132v15.287
		h2.132c0.693,0,1.339-0.156,1.937-0.469c0.598-0.314,1.118-0.783,1.56-1.41c0.442-0.625,0.789-1.416,1.04-2.373
		C89.171,112.023,89.297,110.902,89.297,109.615z"/>
	<linearGradient id="SVGID_31_" gradientUnits="userSpaceOnUse" x1="98.9561" y1="4.667" x2="98.956" y2="133.3404">
		<stop  offset="0" style="stop-color:#FFFFFF;stop-opacity:0.75"/>
		<stop  offset="1" style="stop-color:#FFFFFF;stop-opacity:0.75"/>
	</linearGradient>
	<path fill="url(#SVGID_31_)" d="M95.121,118.792v-18.408h7.41v1.611h-5.643v6.449h5.278v1.559h-5.278v7.15h5.902v1.639H95.121z"/>
	<linearGradient id="SVGID_32_" gradientUnits="userSpaceOnUse" x1="109.9795" y1="4.667" x2="109.9795" y2="133.3404">
		<stop  offset="0" style="stop-color:#FFFFFF;stop-opacity:0.75"/>
		<stop  offset="1" style="stop-color:#FFFFFF;stop-opacity:0.75"/>
	</linearGradient>
	<path fill="url(#SVGID_32_)" d="M114.568,114.085c0,0.816-0.121,1.539-0.363,2.172c-0.243,0.633-0.576,1.17-1.001,1.611
		s-0.923,0.781-1.495,1.014c-0.572,0.234-1.18,0.352-1.82,0.352c-0.936,0-1.799-0.199-2.587-0.598s-1.426-0.928-1.911-1.586
		l1.118-1.273c0.399,0.57,0.901,1.014,1.509,1.324c0.605,0.312,1.221,0.469,1.846,0.469c0.832,0,1.529-0.295,2.093-0.885
		c0.563-0.588,0.845-1.43,0.845-2.521c0-0.52-0.087-0.979-0.26-1.377c-0.174-0.398-0.408-0.754-0.702-1.066
		c-0.295-0.312-0.628-0.59-1.001-0.832s-0.768-0.469-1.184-0.676c-0.502-0.242-0.979-0.516-1.43-0.82
		c-0.451-0.303-0.845-0.652-1.183-1.053c-0.338-0.398-0.61-0.871-0.819-1.416c-0.207-0.547-0.312-1.184-0.312-1.912
		c0-0.848,0.13-1.59,0.39-2.223s0.611-1.16,1.053-1.586c0.442-0.424,0.94-0.74,1.496-0.949c0.554-0.207,1.135-0.311,1.741-0.311
		c0.832,0,1.581,0.143,2.249,0.428c0.667,0.287,1.227,0.732,1.678,1.34l-1.119,1.273c-0.346-0.502-0.754-0.861-1.222-1.078
		s-0.979-0.326-1.534-0.326c-0.363,0-0.724,0.064-1.078,0.195c-0.355,0.131-0.672,0.334-0.949,0.611s-0.504,0.633-0.676,1.066
		c-0.174,0.434-0.26,0.943-0.26,1.533c0,0.52,0.077,0.971,0.233,1.352c0.155,0.383,0.368,0.721,0.637,1.014
		c0.269,0.295,0.581,0.557,0.937,0.781c0.354,0.225,0.723,0.434,1.104,0.623c0.485,0.244,0.966,0.521,1.443,0.832
		c0.476,0.312,0.905,0.676,1.286,1.092c0.382,0.416,0.686,0.902,0.91,1.457C114.456,112.691,114.568,113.341,114.568,114.085z"/>
	<linearGradient id="SVGID_33_" gradientUnits="userSpaceOnUse" x1="119.3789" y1="4.667" x2="119.3789" y2="133.3404">
		<stop  offset="0" style="stop-color:#FFFFFF;stop-opacity:0.75"/>
		<stop  offset="1" style="stop-color:#FFFFFF;stop-opacity:0.75"/>
	</linearGradient>
	<path fill="url(#SVGID_33_)" d="M118.469,118.792v-18.408h1.82v18.408H118.469z"/>
	<linearGradient id="SVGID_34_" gradientUnits="userSpaceOnUse" x1="129.7402" y1="4.667" x2="129.7402" y2="133.3404">
		<stop  offset="0" style="stop-color:#FFFFFF;stop-opacity:0.75"/>
		<stop  offset="1" style="stop-color:#FFFFFF;stop-opacity:0.75"/>
	</linearGradient>
	<path fill="url(#SVGID_34_)" d="M133.354,118.728c-0.719,0.268-1.564,0.402-2.535,0.402c-1.022,0-1.941-0.227-2.756-0.676
		c-0.814-0.451-1.5-1.092-2.054-1.924c-0.556-0.832-0.979-1.838-1.274-3.018c-0.295-1.178-0.441-2.496-0.441-3.951
		c0-1.369,0.143-2.643,0.429-3.822c0.286-1.178,0.698-2.197,1.235-3.055s1.195-1.529,1.976-2.016
		c0.78-0.484,1.664-0.727,2.651-0.727c0.902,0,1.725,0.182,2.471,0.545c0.745,0.363,1.369,0.936,1.872,1.717l-1.17,1.195
		c-0.399-0.605-0.862-1.061-1.392-1.365c-0.528-0.303-1.096-0.455-1.703-0.455c-0.762,0-1.421,0.213-1.976,0.637
		c-0.555,0.426-1.019,1.002-1.391,1.73c-0.373,0.727-0.65,1.572-0.832,2.535c-0.183,0.961-0.272,1.988-0.272,3.08
		c0,1.145,0.094,2.201,0.285,3.172c0.19,0.971,0.48,1.807,0.871,2.51c0.391,0.701,0.875,1.252,1.456,1.65s1.252,0.598,2.015,0.598
		c0.555,0,1.053-0.068,1.495-0.207s0.81-0.338,1.104-0.6v-6.238h-2.625v-1.561h4.394v8.766
		C134.684,118.101,134.072,118.46,133.354,118.728z"/>
	<linearGradient id="SVGID_35_" gradientUnits="userSpaceOnUse" x1="144.793" y1="4.667" x2="144.793" y2="133.3404">
		<stop  offset="0" style="stop-color:#FFFFFF;stop-opacity:0.75"/>
		<stop  offset="1" style="stop-color:#FFFFFF;stop-opacity:0.75"/>
	</linearGradient>
	<path fill="url(#SVGID_35_)" d="M147.803,118.792l-6.402-15.314h-0.078v15.314h-1.717v-18.408h2.263l6.37,15.314h0.078v-15.314
		h1.664v18.408H147.803z"/>
	<linearGradient id="SVGID_36_" gradientUnits="userSpaceOnUse" x1="158.625" y1="4.667" x2="158.625" y2="133.3404">
		<stop  offset="0" style="stop-color:#FFFFFF;stop-opacity:0.75"/>
		<stop  offset="1" style="stop-color:#FFFFFF;stop-opacity:0.75"/>
	</linearGradient>
	<path fill="url(#SVGID_36_)" d="M154.79,118.792v-18.408h7.41v1.611h-5.642v6.449h5.277v1.559h-5.277v7.15h5.901v1.639H154.79z"/>
	<linearGradient id="SVGID_37_" gradientUnits="userSpaceOnUse" x1="170.9746" y1="4.667" x2="170.9746" y2="133.3404">
		<stop  offset="0" style="stop-color:#FFFFFF;stop-opacity:0.75"/>
		<stop  offset="1" style="stop-color:#FFFFFF;stop-opacity:0.75"/>
	</linearGradient>
	<path fill="url(#SVGID_37_)" d="M173.744,118.792l-3.328-8.529h-2.366v8.529h-1.794v-18.408h4.42c0.606,0,1.191,0.082,1.755,0.246
		c0.563,0.166,1.065,0.439,1.509,0.82c0.441,0.381,0.797,0.883,1.066,1.508c0.268,0.623,0.402,1.387,0.402,2.287
		c0,0.781-0.1,1.453-0.299,2.016s-0.459,1.035-0.781,1.416c-0.32,0.383-0.676,0.676-1.064,0.885
		c-0.391,0.207-0.777,0.338-1.158,0.391l3.588,8.84H173.744z M173.641,105.337c0-0.656-0.092-1.205-0.273-1.645
		c-0.182-0.441-0.426-0.791-0.729-1.049c-0.303-0.26-0.65-0.441-1.039-0.545c-0.391-0.104-0.794-0.154-1.209-0.154h-2.341v6.889
		h2.418c0.988,0,1.764-0.307,2.327-0.918C173.357,107.302,173.641,106.443,173.641,105.337z"/>
</g>
</svg>
