<?xml version="1.0" encoding="UTF-8"?>
<svg width="1440px" height="1024px" viewBox="0 0 1440 1024" version="1.1" xmlns="http://www.w3.org/2000/svg" xmlns:xlink="http://www.w3.org/1999/xlink">
    <!-- Generator: Sketch 43.2 (39069) - http://www.bohemiancoding.com/sketch -->
    <title>Desktop HD</title>
    <desc>Created with Sketch.</desc>
    <defs>
        <polygon id="path-1" points="0 0.100364572 0 576.339952 2455.73497 576.339952 2455.73497 0.100364572"></polygon>
        <linearGradient x1="50%" y1="41.5353983%" x2="50%" y2="100%" id="linearGradient-3">
            <stop stop-color="#556A8B" offset="0%"></stop>
            <stop stop-color="#23163F" offset="100%"></stop>
        </linearGradient>
        <linearGradient x1="50%" y1="0%" x2="50%" y2="100%" id="linearGradient-4">
            <stop stop-color="#FFFFFF" stop-opacity="0.25" offset="0%"></stop>
            <stop stop-color="#AAB0BA" offset="100%"></stop>
        </linearGradient>
        <linearGradient x1="50%" y1="0%" x2="50%" y2="100%" id="linearGradient-5">
            <stop stop-color="#FFFFFF" stop-opacity="0.1" offset="0%"></stop>
            <stop stop-color="#D1D1D1" offset="100%"></stop>
        </linearGradient>
        <linearGradient x1="50%" y1="0%" x2="46.586567%" y2="30.3945265%" id="linearGradient-6">
            <stop stop-color="#96DC6E" offset="0%"></stop>
            <stop stop-color="#81C15C" offset="100%"></stop>
        </linearGradient>
        <linearGradient x1="50%" y1="35.9148435%" x2="50%" y2="100%" id="linearGradient-7">
            <stop stop-color="#FFDED3" offset="0%"></stop>
            <stop stop-color="#F39E82" offset="100%"></stop>
        </linearGradient>
        <linearGradient x1="50%" y1="0%" x2="50%" y2="100%" id="linearGradient-8">
            <stop stop-color="#603232" offset="0%"></stop>
            <stop stop-color="#000000" offset="100%"></stop>
        </linearGradient>
        <linearGradient x1="50%" y1="0%" x2="50%" y2="100%" id="linearGradient-9">
            <stop stop-color="#FFFFFF" stop-opacity="0.25" offset="0%"></stop>
            <stop stop-color="#AAB0BA" stop-opacity="0.75" offset="100%"></stop>
        </linearGradient>
    </defs>
    <g id="Page-1" stroke="none" stroke-width="1" fill="none" fill-rule="evenodd">
        <g id="Desktop-HD">
            <g id="trangcover" transform="translate(-1014.000000, 360.000000)">
                <g id="Page-1" transform="translate(0.000000, 98.692872)">
                    <g id="Group-3" transform="translate(0.000000, 0.508690)">
                        <g id="Fill-1-Clipped">
                            <mask id="mask-2" fill="white">
                                <use xlink:href="#path-1"></use>
                            </mask>
                            <g id="path-1"></g>
                            <path d="M1578.96977,527.100316 C1593.13386,522.21794 1604.72743,514.75991 1617.4859,508.46633 L1617.4859,492.499491 L1625.45476,492.499491 L1625.45476,485.842714 L1578.96977,485.842714 L1578.96977,527.100316 Z M578.214382,468.545074 L594.152092,468.545074 C593.770251,467.375078 594.954511,464.635846 593.488021,464.549898 C589.083014,466.571052 582.54468,466.451835 578.214382,468.545074 L578.214382,468.545074 Z M489.228833,468.545074 C494.32558,468.107019 501.176582,469.423957 505.166543,467.879673 C499.455531,467.16714 494.292376,465.911197 489.228833,464.549898 L489.228833,468.545074 Z M612.746088,459.894868 C609.309519,461.550051 604.677621,462.010287 600.792805,463.219098 L600.792805,468.545074 L614.07423,468.545074 C613.357586,465.933377 615.612661,460.349558 612.746088,459.894868 L612.746088,459.894868 Z M469.306695,468.545074 L482.58812,468.545074 L482.58812,463.219098 C478.155445,462.118414 473.73937,460.998324 469.306695,459.894868 L469.306695,468.545074 Z M1507.25008,468.545074 L1513.89079,468.545074 L1513.89079,456.567865 C1511.61911,455.957915 1509.13438,455.566992 1507.25008,454.571664 L1507.25008,468.545074 Z M620.714943,457.898666 L620.714943,468.545074 L633.996368,468.545074 C633.561954,464.100754 634.873495,457.906984 633.332296,454.571664 C629.807185,456.359928 625.346839,457.213859 620.714943,457.898666 L620.714943,457.898666 Z M449.384557,468.545074 L462.665982,468.545074 L462.665982,457.898666 C457.743554,457.285944 453.438159,456.054953 449.384557,454.571664 L449.384557,468.545074 Z M1487.32794,468.545074 L1500.61213,468.545074 L1500.61213,452.575463 C1495.54305,452.106909 1492.01794,450.0913 1487.32794,449.245688 L1487.32794,468.545074 Z M653.918507,449.91386 C653.771856,449.395403 653.362347,449.13756 652.590364,449.245688 C648.929673,450.681844 645.166601,452.009872 640.63708,452.575463 L640.63708,468.545074 L653.918507,468.545074 L653.918507,449.91386 Z M429.462419,468.545074 L442.743844,468.545074 L442.743844,452.575463 C437.677534,452.106909 434.15519,450.0913 429.462419,449.245688 L429.462419,468.545074 Z M1467.40856,468.545074 L1480.68722,468.545074 L1480.68722,447.252259 C1476.23795,445.943638 1472.11794,444.305089 1467.40856,443.259856 L1467.40856,468.545074 Z M673.176572,443.259856 C669.217046,444.837409 664.615587,445.771742 660.55922,447.252259 L660.55922,468.545074 L673.840646,468.545074 C673.400695,460.335695 674.723304,450.360233 673.176572,443.259856 L673.176572,443.259856 Z M409.540282,468.545074 L422.821707,468.545074 L422.821707,447.252259 C418.483108,445.829965 414.039364,444.5158 409.540282,443.259856 L409.540282,468.545074 Z M1447.48366,468.545074 L1460.76508,468.545074 L1460.76508,440.598254 C1455.79839,439.808091 1452.17366,437.673264 1447.48366,436.603079 L1447.48366,468.545074 Z M680.481353,440.598254 L680.481353,468.545074 L693.762779,468.545074 L693.762779,437.271251 C690.063352,436.458908 685.287574,440.301596 680.481353,440.598254 L680.481353,440.598254 Z M389.618144,468.545074 L402.899569,468.545074 L402.899569,440.598254 C397.932869,439.808091 394.308147,437.673264 389.618144,436.603079 L389.618144,468.545074 Z M1427.56153,468.545074 L1440.84295,468.545074 L1440.84295,433.941477 C1435.79601,433.009916 1431.99973,430.825184 1427.56153,429.286446 L1427.56153,468.545074 Z M700.403492,433.941477 L700.403492,468.545074 L713.684919,468.545074 C713.244974,455.677892 714.570349,441.041854 713.020851,429.286446 C709.37122,431.393548 705.035394,432.815841 700.403492,433.941477 L700.403492,433.941477 Z M369.696006,468.545074 L382.977431,468.545074 L382.977431,433.941477 C378.05777,432.885154 373.934994,431.027577 369.696006,429.286446 L369.696006,468.545074 Z M1407.63939,468.545074 L1420.92081,468.545074 L1420.92081,426.624844 C1415.97071,425.596246 1412.34323,423.242392 1407.63939,421.96704 L1407.63939,468.545074 Z M732.942984,421.96704 C728.939188,423.719262 725.015637,425.55743 720.325632,426.624844 L720.325632,468.545074 L733.607058,468.545074 C733.16434,453.23809 734.492482,436.162251 732.942984,421.96704 L732.942984,421.96704 Z M349.773868,468.545074 L363.055293,468.545074 L363.055293,426.624844 C358.058157,425.643378 354.400231,423.320022 349.773868,421.96704 L349.773868,468.545074 Z M1387.71725,468.545074 L1401.00144,468.545074 L1401.00144,419.305439 C1396.83163,417.270422 1392.50133,415.396211 1387.71725,413.982235 L1387.71725,468.545074 Z M752.865123,413.982235 C748.689775,415.787133 744.348408,417.42291 740.247771,419.305439 L740.247771,468.545074 L753.529198,468.545074 C753.089246,450.576489 754.414622,430.839047 752.865123,413.982235 L752.865123,413.982235 Z M329.85173,468.545074 L343.133156,468.545074 L343.133156,419.305439 C338.741984,417.494995 334.644111,415.390666 329.85173,413.982235 L329.85173,468.545074 Z M760.169904,410.655232 L760.169904,468.545074 L773.45133,468.545074 L773.45133,405.332029 L772.123188,405.332029 C768.27711,407.245055 764.364627,409.091541 760.169904,410.655232 L760.169904,410.655232 Z M309.929593,468.545074 L323.211018,468.545074 L323.211018,410.655232 C318.41587,409.249574 315.070611,406.391124 309.929593,405.332029 L309.929593,468.545074 Z M1367.79788,468.545074 L1381.07653,468.545074 L1381.07653,410.655232 C1376.40867,408.900238 1372.05623,406.829179 1367.79788,404.666628 L1367.79788,468.545074 Z M1347.87297,468.545074 L1361.1544,468.545074 L1361.1544,402.002254 C1356.93754,399.576314 1352.15623,397.713193 1347.87297,395.348249 L1347.87297,468.545074 Z M780.092044,402.670426 L780.092044,468.545074 L793.37347,468.545074 C792.930758,444.368857 794.2589,418.418238 792.709402,395.348249 C789.162152,398.450678 783.246385,399.177074 780.092044,402.670426 L780.092044,402.670426 Z M290.007455,468.545074 L303.28888,468.545074 L303.28888,402.002254 C298.914311,399.734347 294.395859,397.605066 290.007455,395.348249 L290.007455,468.545074 Z M1327.95083,468.545074 L1341.23226,468.545074 L1341.23226,392.024019 C1336.80235,389.806018 1332.38074,387.585243 1327.95083,385.367242 L1327.95083,468.545074 Z M800.014183,392.024019 L800.014183,468.545074 L813.295609,468.545074 C812.852891,441.039082 814.181033,411.764233 812.631535,385.367242 C808.874003,388.034389 804.142495,389.728388 800.014183,392.024019 L800.014183,392.024019 Z M270.085317,468.545074 L283.366742,468.545074 L283.366742,392.024019 C278.9396,389.806018 274.515226,387.585243 270.085317,385.367242 L270.085317,468.545074 Z M1308.0287,468.545074 L1321.31012,468.545074 L1321.31012,382.043012 C1317.10987,379.375865 1312.85705,376.761396 1308.0287,374.723606 L1308.0287,468.545074 Z M832.553674,374.723606 C828.718664,377.756723 822.985516,378.887904 819.936322,382.705639 L819.936322,468.545074 L833.217749,468.545074 C832.77503,437.493052 834.103173,404.666628 832.553674,374.723606 L832.553674,374.723606 Z M250.163179,468.545074 L263.444604,468.545074 L263.444604,382.043012 C259.222218,379.398045 254.853183,376.897248 250.163179,374.723606 L250.163179,468.545074 Z M1288.10656,468.545074 L1301.39075,468.545074 L1301.39075,371.396604 C1297.84627,367.623229 1292.48113,365.682478 1288.10656,362.746398 L1288.10656,468.545074 Z M839.858455,372.062005 C837.960318,377.521061 839.858455,387.768228 839.858455,396.016422 L839.858455,468.545074 L853.139882,468.545074 C852.697169,433.497876 854.025312,396.681822 852.475813,362.746398 C849.949578,366.70553 841.587813,367.088136 839.858455,372.062005 L839.858455,372.062005 Z M230.241042,468.545074 L243.522467,468.545074 L243.522467,371.396604 C239.994588,367.609366 234.366584,365.932003 230.241042,362.746398 L230.241042,468.545074 Z M1268.18719,468.545074 L1281.46585,468.545074 L1281.46585,359.419396 C1277.9684,355.382633 1272.35424,353.466834 1268.18719,350.103789 L1268.18719,468.545074 Z M859.780595,360.084796 C857.68047,366.397783 859.780595,377.906439 859.780595,386.698043 L859.780595,468.545074 L873.062021,468.545074 C872.619309,429.286446 873.947452,388.250644 872.40072,350.103789 C869.885545,354.223727 861.446308,355.083202 859.780595,360.084796 L859.780595,360.084796 Z M210.318903,468.545074 L223.600328,468.545074 L223.600328,359.419396 C220.014344,355.471352 214.480417,353.475151 210.318903,350.103789 L210.318903,468.545074 Z M1248.26228,468.545074 L1261.54371,468.545074 L1261.54371,346.111386 C1257.4818,342.642986 1252.88864,339.701361 1248.26228,336.793007 L1248.26228,468.545074 Z M879.702734,346.774014 C878.626383,349.918031 879.702734,356.425093 879.702734,361.415597 L879.702734,468.545074 L892.98416,468.545074 C892.541448,424.850442 893.869584,379.38141 892.320086,336.793007 C889.710844,340.799272 881.318638,342.063533 879.702734,346.774014 L879.702734,346.774014 Z M190.396765,468.545074 L203.678191,468.545074 L203.678191,346.111386 C199.699297,342.554266 194.859878,339.864939 190.396765,336.793007 L190.396765,468.545074 Z M1228.34014,468.545074 L1241.62157,468.545074 L1241.62157,332.137976 C1237.66481,328.339648 1232.81156,325.439611 1228.34014,322.156968 L1228.34014,468.545074 Z M899.624873,332.800604 L899.624873,468.545074 L912.9063,468.545074 C912.463581,419.968067 913.794491,369.622203 912.242225,322.156968 C908.659006,326.329584 902.698969,328.117848 899.624873,332.800604 L899.624873,332.800604 Z M170.474628,468.545074 L183.756053,468.545074 L183.756053,332.137976 C179.586239,328.550359 174.987545,325.398024 170.474628,322.156968 L170.474628,468.545074 Z M1221.69943,317.496393 C1219.04868,314.468821 1213.5701,309.542084 1210.41022,307.518158 C1210.61498,307.648465 1208.08321,304.729021 1208.418,307.518158 L1208.418,468.545074 L1221.69943,468.545074 L1221.69943,317.496393 Z M932.164365,306.187358 C928.904882,311.316486 921.129714,312.622335 919.54978,318.827194 C918.335079,323.582035 919.54978,331.358903 919.54978,337.46118 C919.54978,380.290791 919.547013,428.274483 919.54978,468.545074 L932.828433,468.545074 C932.385721,414.647635 933.713863,358.973023 932.164365,306.187358 L932.164365,306.187358 Z M163.833915,337.46118 C163.833915,330.784995 165.21463,322.805734 163.833915,318.164566 C162.909749,315.045501 155.480452,309.519905 152.544704,307.518158 C152.176698,307.26586 151.368744,305.436009 150.55249,307.518158 L150.55249,468.545074 L163.833915,468.545074 L163.833915,337.46118 Z M1201.78007,322.822369 C1201.78007,315.780214 1203.26592,306.658682 1201.78007,301.529554 C1200.20012,296.098223 1192.89258,293.966168 1189.15994,289.552345 C1189.1212,288.850902 1188.30772,289.028343 1188.49587,290.217746 L1188.49587,468.545074 L1201.78007,468.545074 C1201.78007,423.716489 1201.7773,369.178602 1201.78007,322.822369 L1201.78007,322.822369 Z M939.469146,302.192182 C938.116101,307.509841 939.469146,315.843982 939.469146,322.822369 L939.469146,468.545074 L952.753339,468.545074 C952.310627,408.878058 953.636003,347.442187 952.086504,288.886945 C948.782745,294.296096 941.068455,295.9291 939.469146,302.192182 L939.469146,302.192182 Z M143.911777,322.822369 C143.911777,315.541779 145.42254,306.614322 143.911777,301.529554 C142.318006,296.156445 134.891476,294.032709 131.294424,289.552345 C131.258453,288.850902 130.444966,289.028343 130.630352,290.217746 L130.630352,468.545074 L143.911777,468.545074 L143.911777,322.822369 Z M1181.85516,306.852758 C1181.85516,298.765369 1183.4766,289.485805 1181.85516,283.563741 C1180.27522,277.785847 1172.84039,275.279505 1169.2378,270.252959 C1169.20183,269.554288 1168.38558,269.731728 1168.5765,270.921132 L1168.5765,468.545074 L1181.85516,468.545074 L1181.85516,306.852758 Z M972.011404,269.590331 C968.688284,275.459718 960.97952,277.619497 959.391285,284.226369 C957.946928,290.242698 959.391285,299.170155 959.391285,306.852758 L959.391285,468.545074 L972.672711,468.545074 C972.229999,402.448627 973.558142,334.577777 972.011404,269.590331 L972.011404,269.590331 Z M123.98964,306.852758 C123.98964,298.765369 125.61108,289.485805 123.98964,283.563741 C122.409703,277.785847 114.974872,275.279505 111.372286,270.252959 C111.336315,269.554288 110.520061,269.731728 110.708214,270.921132 L110.708214,468.545074 L123.98964,468.545074 L123.98964,306.852758 Z M1161.93302,289.552345 C1161.93302,280.624889 1163.62917,270.530209 1161.93302,263.598954 C1160.35862,257.158432 1152.96529,254.62991 1149.31567,248.962916 C1149.27969,248.261473 1148.46621,248.438913 1148.65159,249.625544 L1148.65159,468.545074 L1161.93302,468.545074 L1161.93302,289.552345 Z M979.313425,264.267127 C977.763926,271.156795 979.313425,281.029674 979.313425,289.552345 L979.313425,468.545074 L992.594851,468.545074 C992.152132,395.348249 993.480275,320.382567 991.930776,248.294743 C988.687895,254.732493 980.893359,257.25547 979.313425,264.267127 L979.313425,264.267127 Z M104.067502,289.552345 C104.067502,280.497354 105.796854,270.289001 104.067502,263.598954 C102.46543,257.413502 94.9586576,254.56337 91.4501481,248.962916 C91.4141775,248.261473 90.60069,248.438913 90.7860768,249.625544 L90.7860768,468.545074 L104.067502,468.545074 L104.067502,289.552345 Z M1128.72945,468.545074 L1142.01088,468.545074 L1142.01088,269.590331 C1142.01088,259.553874 1143.88688,248.635761 1142.01088,240.97811 C1140.67167,235.499647 1130.86832,227.817043 1128.72945,223.677698 L1128.72945,468.545074 Z M999.235564,241.643511 C997.567083,249.431469 999.235564,260.177687 999.235564,269.590331 C999.235564,335.137823 999.232797,405.878212 999.235564,468.545074 L1012.51698,468.545074 C1012.07427,387.144415 1013.40518,303.969356 1011.85292,223.677698 C1008.93654,230.974923 1000.84317,234.154983 999.235564,241.643511 L999.235564,241.643511 Z M70.8639387,468.545074 L84.1453636,468.545074 L84.1453636,269.590331 C84.1453636,259.545556 86.0352002,248.591401 84.1453636,240.97811 C82.4187789,234.01913 74.3171095,230.320613 70.8639387,223.677698 L70.8639387,468.545074 Z M2329.3703,205.046484 C2320.88955,205.060347 2326.21596,222.934667 2324.72456,232.327904 L2334.01879,232.327904 C2332.49973,222.956848 2337.89255,205.029849 2329.3703,205.046484 L2329.3703,205.046484 Z M2317.41701,205.046484 C2308.93627,205.060347 2314.25991,222.934667 2312.76851,232.327904 L2322.06828,232.327904 C2320.54645,222.956848 2325.93926,205.029849 2317.41701,205.046484 L2317.41701,205.046484 Z M2302.14338,206.377286 C2300.62985,213.729961 2301.89711,223.874545 2301.4793,232.327904 L2310.11223,232.327904 C2309.73592,223.832958 2310.90635,213.788183 2309.44816,206.377286 C2307.3757,205.010442 2304.11345,204.483667 2302.14338,206.377286 L2302.14338,206.377286 Z M1019.16046,215.692892 C1017.35641,224.562126 1019.16046,236.453387 1019.16046,246.963942 C1019.1577,320.049867 1019.16046,398.348096 1019.16046,468.545074 L1032.43912,468.545074 C1031.99641,377.828809 1033.32455,285.335369 1031.77506,195.728105 C1028.65115,203.504973 1020.77637,207.733039 1019.16046,215.692892 L1019.16046,215.692892 Z M50.9418009,468.545074 L64.2232261,468.545074 L64.2232261,246.963942 C64.2232261,235.857299 66.2348088,223.796915 64.2232261,215.024719 C62.9116853,209.305048 53.1692066,199.928446 50.9418009,195.728105 L50.9418009,468.545074 Z M1108.80732,468.545074 L1122.08875,468.545074 L1122.08875,215.024719 C1119.24984,209.438128 1113.08781,201.425597 1108.80732,195.065478 L1108.80732,468.545074 Z M2320.73737,195.065478 L2329.3703,195.065478 C2328.83351,189.614739 2330.87829,181.577255 2327.37808,179.093093 L2322.72958,179.093093 C2319.22937,181.577255 2321.27416,189.614739 2320.73737,195.065478 L2320.73737,195.065478 Z M2305.4665,195.065478 L2314.09942,195.065478 C2313.68161,189.492748 2315.39713,181.785192 2312.10444,179.093093 L2307.45594,179.093093 C2303.95573,181.577255 2306.00329,189.614739 2305.4665,195.065478 L2305.4665,195.065478 Z M1088.88518,248.294743 C1088.88518,279.748778 1088.06616,315.394836 1090.21332,342.784384 C1091.8569,363.725091 1090.21332,385.062267 1090.21332,405.997429 C1090.21332,424.520515 1089.73464,444.435396 1090.21332,461.888297 C1090.26589,463.756963 1089.0097,467.347353 1091.54147,468.545074 L1101.50253,468.545074 C1103.49475,375.386234 1100.83847,277.575137 1102.83068,184.416297 C1097.25525,177.36028 1093.79654,168.186071 1088.88518,160.464653 L1088.88518,248.294743 Z M1045.05647,173.772662 C1042.90931,177.609805 1039.7356,181.64934 1039.07984,185.08447 C1037.1402,195.265098 1039.07984,208.539837 1039.07984,220.347923 C1039.0826,302.305855 1039.07984,389.473317 1039.07984,468.545074 L1051.03312,468.545074 C1051.87704,366.916241 1053.31863,262.34301 1051.69719,160.464653 C1049.9789,165.391389 1047.66019,169.117631 1045.05647,173.772662 L1045.05647,173.772662 Z M31.6837344,468.545074 L43.637017,468.545074 C44.8461801,390.665493 44.3010883,300.983371 44.3010883,220.347923 C44.3010883,207.891072 46.4786886,194.4583 44.3010883,184.416297 C43.6148813,181.255645 39.9790912,177.30483 37.6603757,173.107262 C35.2005451,168.651851 33.0948858,163.054169 31.0196631,160.464653 C30.5050079,263.898384 31.9493628,365.36364 31.6837344,468.545074 L31.6837344,468.545074 Z M1059.00198,147.15387 C1056.01919,165.815581 1061.23492,191.627575 1059.00198,211.700489 L1059.00198,219.685295 C1059.32848,224.453998 1059.98978,218.202006 1059.66604,216.35552 L1059.66604,200.388681 L1059.66604,184.416297 C1059.66604,179.794537 1058.16635,169.649952 1059.66604,167.781285 C1059.91231,167.479083 1061.89622,167.878322 1062.32233,167.781285 C1065.80041,166.99944 1062.91169,139.177382 1062.98917,137.172863 C1062.14248,140.33906 1059.59964,143.416538 1059.00198,147.15387 L1059.00198,147.15387 Z M19.7304516,167.118657 C19.6225401,169.001186 23.8227908,166.564157 23.7148792,168.449458 C24.2821068,184.987432 22.9511973,200.225103 23.7148792,216.35552 C23.8393926,218.983852 23.8532274,223.378267 24.3789505,219.685295 C26.310291,206.133305 24.3789505,193.925979 24.3789505,179.093093 C24.3789505,164.249118 26.6367928,144.472861 19.7304516,137.172863 L19.7304516,167.118657 Z M1077.59597,167.118657 C1077.48806,169.001186 1081.68831,166.564157 1081.5804,168.449458 L1081.5804,200.388681 L1081.5804,216.35552 C1081.2539,218.202006 1081.91796,224.453998 1082.24447,219.685295 L1082.24447,211.035089 L1082.24447,178.430465 C1082.24447,161.385123 1084.26435,144.223336 1077.59597,136.510236 L1077.59597,167.118657 Z M2462.18455,384.704614 L2462.18455,576.339952 L1318.65384,576.339952 L1318.3218,575.339078 L1317.99254,574.34375 C1352.17006,570.700682 1386.49148,565.103001 1419.59267,561.032968 C1428.57423,559.932285 1437.24036,559.530272 1445.49145,557.708738 C1467.39196,552.865177 1491.38984,545.6539 1513.89079,540.408326 L1513.89079,486.508114 C1012.70514,484.958286 508.752528,486.286315 6.44902644,485.842714 L6.44902644,105.901813 L19.7304516,105.901813 C20.4498622,120.909366 27.5969291,134.575029 33.6759481,147.15387 C75.329818,233.367592 141.25826,295.690665 219.615901,346.111386 C285.536041,388.525121 362.117293,422.554811 449.384557,446.584085 C478.957864,454.729696 509.751402,463.219098 542.354534,463.219098 C575.195624,463.219098 605.895085,454.216784 635.32451,445.921458 C721.424118,421.64543 799.463557,388.694244 865.093165,346.111386 C909.489099,317.30509 949.875698,284.018431 983.961921,244.970513 C1009.39585,215.831517 1032.2067,184.194497 1050.36905,146.491242 C1056.37613,134.023301 1062.18399,120.321596 1064.31455,105.901813 L1077.59597,105.901813 C1077.24733,109.877581 1077.83946,114.377352 1078.92412,117.876249 C1082.24724,128.603059 1088.14363,140.225388 1093.53644,151.146273 C1129.98566,225.005726 1187.1539,283.527699 1250.91857,328.808201 C1326.30449,382.342442 1416.06202,421.928226 1513.89079,448.58306 L1513.89079,400.008825 C1535.36243,400.449653 1558.60492,399.121624 1578.96977,400.671452 L1578.96977,463.219098 C1593.38289,466.08032 1607.10426,469.629123 1625.45476,468.545074 L1625.45476,439.267453 L1667.95532,439.267453 C1668.39803,418.637266 1667.06989,396.238222 1668.61939,376.719808 C1676.1483,377.157864 1685.43976,375.83538 1691.86189,377.385209 L1691.86189,468.545074 C1700.53078,469.246517 1704.1721,464.907551 1710.45865,463.219098 L1710.45865,382.043012 L1722.40916,382.043012 C1722.84911,376.492463 1721.52927,369.184148 1723.07324,364.739827 L1814.051,364.739827 L1814.051,382.043012 C1817.82237,382.475522 1823.33416,381.166901 1826.00428,382.705639 C1826.44423,395.794622 1825.12162,410.65246 1826.67112,422.632441 C1833.0462,419.929251 1840.15453,417.95523 1847.25456,415.975664 L1847.25456,278.903165 C1853.27824,278.581555 1852.53392,271.508903 1855.88749,267.591357 C1860.48895,262.221021 1868.03999,258.514186 1879.12998,258.278523 C1879.58653,252.165156 1878.53232,243.997365 1879.12998,236.982935 C1879.24343,235.682632 1877.99276,231.582101 1881.1222,232.327904 C1882.66893,239.428281 1881.34632,249.403744 1881.78626,257.613122 C1895.50487,259.393068 1906.94073,263.457557 1909.68003,276.244336 C1908.68669,279.898493 1914.86255,276.371871 1913.66169,280.233966 L1913.66169,398.009851 C1918.60348,397.197508 1923.27135,396.105142 1927.60718,394.685621 C1933.76645,348.958745 1939.72095,304.191155 1946.20118,257.613122 C1947.77835,246.273589 1950.25201,234.723346 1950.84967,223.012297 C1952.78379,185.259138 1949.41086,146.430248 1950.84967,106.567214 L1966.78739,106.567214 C1972.43199,71.6336886 1976.24764,34.8675395 1982.06379,0.100364572 L1983.05714,0.435837313 L1984.05324,0.100364572 C1989.39071,35.1226098 1993.89533,70.9766056 1998.66558,106.567214 C2003.75956,107.005269 2010.61056,105.685558 2014.60052,107.232614 C2015.01833,144.508903 2014.04159,180.324085 2014.60052,217.023693 C2014.7693,228.113701 2016.52079,239.040131 2017.92087,249.625544 C2023.7315,293.566928 2029.93226,335.340216 2035.8508,377.385209 C2036.29352,337.902007 2034.96537,296.649951 2036.51487,258.278523 L2090.30464,258.278523 C2092.15574,295.20825 2087.84481,334.322707 2090.30464,372.062005 C2090.38488,373.270816 2088.88796,377.676321 2092.29962,377.385209 C2095.86071,377.252128 2094.21713,372.425202 2094.28907,370.731204 C2095.04169,353.042641 2093.72738,331.24523 2094.28907,312.841362 L2107.57049,312.841362 L2107.57049,251.624518 C2109.7813,250.953572 2114.79503,253.093944 2114.87805,250.293717 C2121.65157,236.012559 2133.19258,226.502877 2151.3992,223.677698 C2151.57075,213.865814 2152.17948,204.497529 2153.39418,195.728105 L2153.72345,196.728979 L2154.71955,196.396278 C2155.93149,204.941129 2156.47381,214.154154 2156.71177,223.677698 C2176.06945,226.236717 2188.58442,235.654907 2194.56383,251.624518 C2197.23672,252.04871 2201.62512,250.759497 2203.19952,252.287146 L2203.19952,312.841362 C2206.97089,313.273872 2212.48269,311.965252 2215.15004,313.50399 L2215.15004,378.713237 L2229.75961,378.713237 C2230.20232,336.130379 2228.87418,291.770347 2230.42368,250.293717 C2246.36139,250.734545 2264.06995,249.406517 2278.90088,250.956345 C2279.3436,284.672742 2278.01822,320.157995 2279.56495,352.765391 C2282.96832,350.849592 2288.33346,350.905042 2292.1823,349.435616 L2292.1823,242.974312 C2290.8763,239.447689 2296.1446,242.508531 2294.83859,238.981909 L2294.83859,195.728105 C2295.5248,193.532284 2301.82241,196.959096 2301.4793,193.734676 L2301.4793,173.107262 C2312.10721,173.548089 2324.49767,172.220061 2334.01879,173.772662 L2334.01879,194.400077 C2334.705,196.595898 2341.00261,193.169086 2340.65951,196.396278 L2340.65951,239.647309 C2339.91243,242.613887 2345.49062,239.239752 2343.97987,242.974312 L2343.97987,346.774014 C2358.63371,347.461594 2374.28088,350.816322 2387.80857,355.426993 C2403.24822,360.683657 2418.35308,366.47264 2421.67897,383.373813 C2424.25225,384.055848 2419.61758,387.829223 2423.00434,387.366216 C2435.95373,386.365342 2449.21579,385.683307 2462.18455,384.704614 L2462.18455,384.704614 Z" id="Fill-1" fill="url(#linearGradient-3)" fill-rule="nonzero" mask="url(#mask-2)"></path>
                        </g>
                    </g>
                </g>
                <path d="M1328.19808,352.321993 C1264.30196,350.048447 1216.39076,340.604138 1216.39076,329.298765 C1216.39076,316.295565 1279.77303,305.754387 1357.95903,305.754387 C1379.13715,305.754387 1399.22912,306.52779 1417.26952,307.914034 C1424.21645,292.375831 1442.9733,281.242432 1465.02206,281.242432 C1492.98379,281.242432 1515.65126,299.147994 1515.65126,321.235622 C1515.65126,325.043428 1514.97758,328.726941 1513.71923,332.215849 C1545.24569,336.276747 1565.95798,343.133449 1565.95798,350.907989 C1565.95798,363.376811 1512.68222,373.48479 1446.96324,373.48479 C1383.7473,373.48479 1332.04478,364.132117 1328.19808,352.321993 Z" id="cloud2" fill="url(#linearGradient-4)" fill-rule="nonzero"></path>
                <path d="M1648.54585,44.6968535 C1630.00609,52.5049723 1616.26471,80.9384816 1616.26471,114.819158 C1616.26471,154.719391 1635.3227,187.064921 1658.83193,187.064921 C1682.34116,187.064921 1701.39916,154.719391 1701.39916,114.819158 C1701.39916,109.064439 1701.00272,103.46687 1700.25367,98.1008282 C1706.50672,87.7808016 1710.42857,72.9378078 1710.42857,56.4420019 C1710.42857,25.269945 1696.42383,0 1679.14811,0 C1664.10445,0 1651.54114,19.1619156 1648.54585,44.6968535 Z" id="Combined-Shape" fill="url(#linearGradient-5)" fill-rule="nonzero"></path>
                <g id="house" transform="translate(1453.735294, 171.583686)" fill-rule="nonzero">
                    <ellipse id="Oval-2" fill="url(#linearGradient-6)" cx="342.795168" cy="528.297138" rx="342.795168" ry="168.358428"></ellipse>
                    <ellipse id="Oval-16" fill="#66AC66" cx="343.117647" cy="401.544528" rx="212.191176" ry="15.8037605"></ellipse>
                    <rect id="Rectangle" fill="url(#linearGradient-7)" x="152.855042" y="134.170702" width="378.590336" height="265.116146"></rect>
                    <rect id="Rectangle-5" fill="url(#linearGradient-8)" x="170.913866" y="5.1604116" width="71.5903361" height="116.109261"></rect>
                    <polygon id="Triangle" fill="#A02952" points="342.15021 0 560.468487 145.781628 123.831933 145.781628"></polygon>
                    <rect id="Rectangle-2" fill="#D16E6E" x="183.813025" y="239.314088" width="105.128151" height="85.1467914"></rect>
                    <rect id="Rectangle-2" fill="#DDF2F0" x="188.972689" y="245.119551" width="94.8088235" height="73.5358653"></rect>
                    <rect id="Rectangle-6" fill="#A8ABB1" x="188.972689" y="272.211712" width="6.44957983" height="46.4437044"></rect>
                    <g id="door" transform="translate(410.838235, 253.505220)">
                        <rect id="Rectangle-3" fill="#E06161" x="0" y="0" width="87.7142857" height="145.781628"></rect>
                        <rect id="Rectangle-4" fill="#EC7272" x="13.6604216" y="8.12764827" width="25.882904" height="59.0799228"></rect>
                        <rect id="Rectangle-4-Copy-2" fill="#EC7272" x="13.6604216" y="79.4839189" width="25.882904" height="59.0799228"></rect>
                        <rect id="Rectangle-4-Copy" fill="#EC7272" x="50.3278689" y="8.12764827" width="25.882904" height="59.0799228"></rect>
                        <rect id="Rectangle-4-Copy-3" fill="#EC7272" x="50.3278689" y="79.4839189" width="25.882904" height="59.0799228"></rect>
                    </g>
                    <path d="M254.113445,305.754387 C263.730858,305.754387 271.527311,298.245603 271.527311,288.98305 C271.527311,279.720496 265.077731,272.211712 254.113445,272.211712 C243.14916,272.211712 237.989496,275.436969 236.69958,288.98305 C235.409664,302.52913 244.496033,305.754387 254.113445,305.754387 Z" id="Oval-3" fill="#F2DFB5"></path>
                    <path d="M254.824868,306.32197 C262.839379,306.32197 290.469974,303.687066 290.469974,298.877663 C290.469974,294.06826 262.839379,288.905581 254.824868,288.905581 C246.810359,288.905581 240.90859,292.139111 240.90859,296.948514 C240.90859,301.757918 246.810359,306.32197 254.824868,306.32197 Z" id="Oval-5" fill="#3C1A0C" transform="translate(265.689282, 297.613776) rotate(75.000000) translate(-265.689282, -297.613776) "></path>
                    <ellipse id="Oval-4" fill="#000000" cx="241.214286" cy="289.628101" rx="1.28991597" ry="3.8703087"></ellipse>
                    <ellipse id="Oval-6" fill="#580B0B" transform="translate(249.123208, 315.961949) rotate(-36.000000) translate(-249.123208, -315.961949) " cx="249.123208" cy="315.961949" rx="12.5766807" ry="4.51536015"></ellipse>
                    <polygon id="Rectangle-7" fill="#3C1A0C" points="245.084034 278.017175 267.657563 278.017175 272.817227 319.300468 245.084034 319.300468"></polygon>
                    <rect id="Rectangle-8" fill="#D16E6E" x="233.47479" y="318.655416" width="45.1470588" height="5.80546305"></rect>
                    <path d="M254.435924,288.337998 C262.450435,288.337998 272.172269,287.692947 270.237395,281.564958 C268.302521,275.436969 262.450435,269.631506 254.435924,269.631506 C249.45123,269.631506 244.366121,272.023246 241.610461,274.507853 C239.935505,276.018056 239.92437,276.082021 238.634454,278.339701 C235.64182,283.577569 246.421414,288.337998 254.435924,288.337998 Z" id="Oval-5" fill="#3C1A0C"></path>
                    <ellipse id="Oval" fill="#FFEF85" cx="417.932773" cy="325.750982" rx="3.8697479" ry="3.8703087"></ellipse>
                </g>
                <path d="M2271.49271,415.626464 C2280.18656,414.502668 2290.20466,413.572256 2301.18823,412.884828 C2306.89109,405.856902 2331.15559,400.576951 2360.22374,400.576951 C2392.84406,400.576951 2419.41498,407.226188 2420.49328,415.533166 C2442.3193,418.303992 2456,422.28188 2456,426.701534 C2456,435.073458 2406.91122,441.860243 2346.35714,441.860243 C2285.80306,441.860243 2236.71429,435.073458 2236.71429,426.701534 C2236.71429,426.133617 2236.94018,425.572994 2237.38022,425.021289 C2232.55468,425.485566 2227.46375,425.733957 2222.20273,425.733957 C2191.39139,425.733957 2166.41387,417.214376 2166.41387,406.704939 C2166.41387,396.195503 2191.39139,387.675922 2222.20273,387.675922 C2253.01407,387.675922 2277.9916,396.195503 2277.9916,406.704939 C2277.9916,409.92887 2275.64109,412.965545 2271.49272,415.626464 L2271.49271,415.626464 Z" id="cloud1" fill="url(#linearGradient-9)" fill-rule="nonzero"></path>
                <ellipse id="sahdow" fill="#652C40" fill-rule="nonzero" cx="1847.80462" cy="221.897699" rx="11.6092437" ry="2.5802058"></ellipse>
                <g id="cat" transform="translate(1834.905462, 163.843068)" fill-rule="nonzero">
                    <path d="M16.7689076,57.4095791 C19.2623107,57.4095791 21.2836134,45.2800055 21.2836134,30.3174182 C21.2836134,15.3548308 20.5522267,15.4812348 18.0588235,15.4812348 C15.5654204,15.4812348 12.2542017,15.3548308 12.2542017,30.3174182 C12.2542017,45.2800055 14.2755044,57.4095791 16.7689076,57.4095791 Z" id="Oval-17" fill="#000000"></path>
                    <path d="M8.70693277,58.0546305 C14.5842404,58.0546305 21.2991002,58.8629558 22.909396,49.5158289 C24.5196919,40.1687019 16.1239496,38.0580356 16.1239496,25.802058 C16.1239496,13.5460805 2.59112041,31.783033 0.98082458,41.13016 C-0.629471254,50.477287 2.82962521,58.0546305 8.70693277,58.0546305 Z" id="Oval-18" fill="#000000"></path>
                    <ellipse id="Oval-15" fill="#080808" cx="17.0913866" cy="10.6433489" rx="9.35189076" ry="6.77304023"></ellipse>
                    <polygon id="Triangle-2" fill="#000000" points="12.5766807 0 16.1239496 7.7406174 9.02941176 7.7406174"></polygon>
                    <polygon id="Triangle-2-Copy" fill="#000000" points="21.6060924 0 25.1533613 7.7406174 18.0588235 7.7406174"></polygon>
                    <path d="M14.8340336,56.1194762 C14.8340336,56.1194762 20.1819108,57.1497427 24.5084034,56.1194762 C26.4432773,56.1194762 27.0882353,55.4744247 27.7331933,54.1843218 C29.1501423,51.7549143 28.3781513,52.8942189 29.0231092,49.6689617 C29.6680672,47.7338073 30.6939495,47.3817114 30.9579832,47.7338073 C31.6613865,48.6718143 31.3001212,49.3621893 30.9579832,50.9590646 C30.3326842,53.8775494 30.73643,53.4267248 29.0231092,56.1194762 C28.4790771,56.9745078 27.8952617,57.5265597 26.4432773,58.0546305 C24.3479928,58.8166626 24.3319019,58.3562993 21.9285714,58.699682 C19.817196,59.0013507 19.6388359,58.8480348 17.4138655,58.699682 C14.801651,58.5255091 12.2542017,58.0546305 12.2542017,58.0546305 L9.02941176,57.4095791 L14.8340336,56.1194762 Z" id="Path-2" fill="#000000"></path>
                </g>
                <g id="Rectangle-9" transform="translate(1847.804622, 180.614406)">
                    <g id="path-10-link" fill="#D8D8D8">
                        <polygon id="path-10" points="0.657644307 0 8.13927945 0 8.38445378 1.2901029 0.412469979 1.2901029"></polygon>
                    </g>
                    <polygon id="Shape" stroke="#FF6DA5" points="0.924605315 0.322525725 7.87232489 0.322525725 7.99490561 0.967577175 0.802018151 0.967577175"></polygon>
                </g>
            </g>
        </g>
    </g>
</svg>