<svg id="Layer_1" data-name="Layer 1" xmlns="http://www.w3.org/2000/svg" xmlns:xlink="http://www.w3.org/1999/xlink" viewBox="0 0 842.15 553">
  <defs>
    <style>
      .cls-1 {
        fill: url(#linear-gradient);
      }

      .cls-2 {
        fill: url(#linear-gradient-2);
      }

      .cls-3 {
        fill: url(#linear-gradient-3);
      }

      .cls-4 {
        fill: #aaaab0;
      }

      .cls-5 {
        fill: url(#linear-gradient-4);
      }

      .cls-6 {
        fill: url(#linear-gradient-5);
      }

      .cls-7 {
        fill: url(#linear-gradient-6);
      }

      .cls-8 {
        fill: url(#linear-gradient-7);
      }

      .cls-9 {
        fill: url(#linear-gradient-8);
      }

      .cls-10 {
        fill: url(#linear-gradient-9);
      }

      .cls-11 {
        fill: url(#linear-gradient-10);
      }

      .cls-12 {
        fill: url(#linear-gradient-11);
      }

      .cls-13 {
        fill: url(#linear-gradient-12);
      }

      .cls-14 {
        fill: #f7b497;
      }

      .cls-15 {
        fill: url(#linear-gradient-13);
      }

      .cls-16 {
        fill: url(#linear-gradient-14);
      }
    </style>
    <linearGradient id="linear-gradient" x1="418.04" y1="205.92" x2="442.82" y2="174.14" gradientUnits="userSpaceOnUse">
      <stop offset="0" stop-color="#f7b497"/>
      <stop offset="1" stop-color="#f79b7d"/>
    </linearGradient>
    <linearGradient id="linear-gradient-2" x1="582.64" y1="231.83" x2="450.31" y2="171.11" gradientUnits="userSpaceOnUse">
      <stop offset="0" stop-color="#6a0007"/>
      <stop offset="1" stop-color="#3a0007"/>
    </linearGradient>
    <linearGradient id="linear-gradient-3" x1="384.72" y1="245.02" x2="806.61" y2="245.02" gradientUnits="userSpaceOnUse">
      <stop offset="0" stop-color="#e998b1"/>
      <stop offset="1" stop-color="#8b3d7a"/>
    </linearGradient>
    <linearGradient id="linear-gradient-4" x1="731.18" y1="26.12" x2="823.36" y2="26.12" gradientTransform="translate(39.36 -186.82) rotate(14.69)" gradientUnits="userSpaceOnUse">
      <stop offset="0" stop-color="#723f10"/>
      <stop offset="0.03"/>
      <stop offset="1" stop-color="#642e10"/>
    </linearGradient>
    <linearGradient id="linear-gradient-5" x1="573.06" y1="179.57" x2="767.79" y2="179.57" gradientTransform="matrix(0.89, 0.21, -0.27, 0.96, 94.25, -155.88)" gradientUnits="userSpaceOnUse">
      <stop offset="0"/>
      <stop offset="1" stop-color="#5a4560"/>
    </linearGradient>
    <linearGradient id="linear-gradient-6" x1="453.39" y1="285.2" x2="442.11" y2="487.6" gradientUnits="userSpaceOnUse">
      <stop offset="0" stop-color="#022893"/>
      <stop offset="1" stop-color="#0060aa"/>
    </linearGradient>
    <linearGradient id="linear-gradient-7" x1="809.02" y1="37.92" x2="848.86" y2="37.92" gradientTransform="translate(18.56 -205.78) rotate(13.41)" xlink:href="#linear-gradient-3"/>
    <linearGradient id="linear-gradient-8" x1="440.67" y1="140.49" x2="541.75" y2="171.12" xlink:href="#linear-gradient"/>
    <linearGradient id="linear-gradient-9" x1="595.47" y1="192.05" x2="428.46" y2="185.66" gradientUnits="userSpaceOnUse">
      <stop offset="0" stop-color="#272610"/>
      <stop offset="1" stop-color="#642e10"/>
    </linearGradient>
    <linearGradient id="linear-gradient-10" x1="596.08" y1="153.04" x2="643.58" y2="153.04" xlink:href="#linear-gradient"/>
    <linearGradient id="linear-gradient-11" x1="447.37" y1="273.03" x2="461.54" y2="144.26" xlink:href="#linear-gradient-2"/>
    <linearGradient id="linear-gradient-12" x1="407.99" y1="196.57" x2="606.42" y2="196.57" gradientUnits="userSpaceOnUse">
      <stop offset="0" stop-color="#6a0007"/>
      <stop offset="1" stop-color="#6a0007"/>
    </linearGradient>
    <linearGradient id="linear-gradient-13" x1="92.97" y1="474.12" x2="231.92" y2="402.45" gradientTransform="translate(66.77 -26.94) rotate(9.21)" xlink:href="#linear-gradient-3"/>
    <linearGradient id="linear-gradient-14" x1="53.42" y1="382.51" x2="235.06" y2="367.78" gradientTransform="translate(35.48 -12.49) rotate(5.92)" xlink:href="#linear-gradient-3"/>
  </defs>
  <title>trangy</title>
  <g>
    <polygon class="cls-1" points="420.58 174.84 420.58 147.81 451.58 147.81 451.58 217.76 420.58 217.76 420.58 174.84"/>
    <path class="cls-2" d="M617.08,187.33l-80,22.92-74.46,1.16,6.5,28.61,53.74-5.62a160.58,160.58,0,0,0,39.67-9.33L617.08,201Z"/>
    <path class="cls-3" d="M819.69,28.17,803.52,39.06l-31,49.42a650.43,650.43,0,0,1-201.6,203c-181.62,115.53-419.3,196.07-419.3,196.07l258-64.39a615.14,615.14,0,0,0,198.13-88.47c41.48-28.32,81.85-62.69,115-102,89.45-106,116.8-230.25,116.8-230.25Z"/>
    <ellipse class="cls-4" cx="467.58" cy="542.55" rx="176" ry="10.45"/>
    <path d="M452.63,511.24l-5,13.79,17.22,12.35c3.61,1.85,12.42,4.25,16.46,4.39l-12.74-16.53-1.4-9.64-11.93-6.35Z"/>
    <path d="M420.58,523.93v13.62l25.63,5.1a29.08,29.08,0,0,0,12.66-.3l4.71-1.16-28-14.54-12-6.36Z"/>
    <g>
      <path class="cls-5" d="M728.89,66.31l17.85-24.5a106.3,106.3,0,0,1,19.48-19.3l7.85-6a44.68,44.68,0,0,1,29.67-8.86h0A80.77,80.77,0,0,0,841.35.84h0l-2.53,4.8a92.79,92.79,0,0,1-24.41,29.25l-6.92,5.51A102.27,102.27,0,0,1,789.19,52L758,67.4l-23.1,4.83Z"/>
      <path class="cls-6" d="M633,125.28l106.9-73.77,18.37,15.67L664.19,166a200,200,0,0,1-44.88,35.28c-32.46,18.74-74,42.49-94.5,54.21-2.95,1.68-5.89-1.48-3.83-4.13l63-81.34a114.17,114.17,0,0,1,13.52-14.59C609.17,144.87,627.24,130.16,633,125.28Z"/>
    </g>
    <path class="cls-7" d="M504.69,418.19,487.61,338a109.9,109.9,0,0,0-3.26-11.95l-11.57-34.6-24.9,23.37-15.8-23.94L404.2,301.37c-2.54,1.92-3.69,8.26-5.36,10.89-2.76,4.35-7.6,11.74-7.6,25.74a137.1,137.1,0,0,0,1.82,22.18c2.87,19.09,8.41,37.9,14.46,56.23l3.91,11.83a35.14,35.14,0,0,1,1.39,16.31l-.38,2.49a94.47,94.47,0,0,0,.44,31.07l7.7,49.45,15.5-.45,5-91.67,7.51-64.25,23.29,45.5a6.35,6.35,0,0,1-.07,5.9c-3.81,7.05-13.06,25.4-13.06,37.48,0,8.93-8,53.31-8,53.31l17.45,3.54,7.94-26.36A96.59,96.59,0,0,1,482.33,475l12.3-26.76c2.07-4.1,5.47-10.83,8.07-16.69,1.91-4.28,2.43-6.89,2.32-10.61A15.78,15.78,0,0,0,504.69,418.19Z"/>
    <path class="cls-8" d="M804.72,7.57h0A80.43,80.43,0,0,0,842.15,0h0l-2.41,4.85a92.22,92.22,0,0,1-23.68,29.74L797.12,47.81C791.62,52.39,793.93,7.16,804.72,7.57Z"/>
    <path class="cls-9" d="M393.81,148.78l5.77-15.5,35-39.07,40.77,13.64c9.21,12.82,13,37.67,10.47,53.09h0a23,23,0,0,1-5,10.44c-14.54,18.47-44.57,19.15-60.87,1.94-6.09-6.44-7.73-8.15-10.71-15C408.67,156.94,394.18,150.13,393.81,148.78Z"/>
    <path class="cls-10" d="M481.44,116.56l-2.6-5.83a44.25,44.25,0,0,0-23-22.23h0a46.36,46.36,0,0,0-18.5-3.83h-2.72a70.92,70.92,0,0,0-20.56,3h0a29.29,29.29,0,0,0-16.62,12.53l-.1.17a65.83,65.83,0,0,0-8.22,49.46h0a75.42,75.42,0,0,1,1.95,17v3a101.92,101.92,0,0,1-3.26,25.51l-.69,2.65a83.52,83.52,0,0,0-2,31.63l1.67,12.86a40.62,40.62,0,0,0,.75,4.08l1.81,7.5a57.22,57.22,0,0,0,21.71,32.27h0l22-27.26-8.85-82.22-7.74-8.69a20.83,20.83,0,0,1-5.41-14.47h0l2.3-6.81a17.81,17.81,0,0,1,6.09-8.38h0a36.6,36.6,0,0,0,12.17-16.33l5.47-14.91,20.42,17.88c12,10.89,28.47,15.26,28.47,15.26l-2.18-15.59A31,31,0,0,0,481.44,116.56Z"/>
    <path class="cls-11" d="M596.08,164.05l11.58-14.64c.57-.71,1.18-1.37,1.8-2a26,26,0,0,0,4-5.53l1.83-3.41a3,3,0,0,1,5.65.51h0l9.46-6.17a8,8,0,0,1,9.29.31h0a10.48,10.48,0,0,1,3.19,12l-3.59,9.28c-4.86,9.41-13.34,15.78-23,17.26l-19,2.93Z"/>
    <path class="cls-12" d="M413.08,215.49v33a67.24,67.24,0,0,1-1.86,15.65l-16.14,53.13,38.67,6.69a88,88,0,0,0,42.39-.87l7.87-2.13s-3.52-5.25-1.83-19.57c2.24-19,14.85-40.83,14.85-49.19,0-23.27-7.41-22.1-20.95-50.3h0Z"/>
    <path class="cls-13" d="M412.18,224a13.37,13.37,0,0,1-.86-18.54,31.16,31.16,0,0,1,17-10h0a114.63,114.63,0,0,1,27.26-4.75l54.34-2.84a130,130,0,0,0,36.16-7.08l52.57-20.33,7.8,13.31-65.27,35.7a65.53,65.53,0,0,1-9.44,3.2l-73,18.73a43.09,43.09,0,0,1-11.66,1.32C424.27,232.15,416.8,228.51,412.18,224Z"/>
    <path class="cls-14" d="M416.58,151.45c0,6-1.48,12.71-7,12.71s-13-6.69-13-12.71,4.47-10.91,10-10.91S416.58,145.42,416.58,151.45Z"/>
    <path class="cls-15" d="M243.5,431.51,159.58,459.2A209,209,0,0,1,90.69,470,197.44,197.44,0,0,1,62,467.42l-.43-.07a18.25,18.25,0,0,1-14.44-11.5h0c-4.17-11.69,6.47-22.92,19.68-20.78,0,0,11.29,1.29,28,3.56a322.3,322.3,0,0,0,81,.82Z"/>
    <path class="cls-16" d="M198.61,421.84s-45.46,2.51-81.34-4.9c-42.47-8.77-74.66-19.27-100.5-47.79A81.74,81.74,0,0,1,5.56,354l-3.94-7.25a13.06,13.06,0,0,1,4.29-17.2h0a16.51,16.51,0,0,1,21.41,2.61s24.22,26.49,29.87,31.2a240.11,240.11,0,0,0,93.21,47.65C176,417.74,198.61,421.84,198.61,421.84Z"/>
  </g>
</svg>
