<?xml version="1.0" encoding="UTF-8"?>
<svg width="2078px" height="1024px" viewBox="0 0 2078 1024" version="1.1" xmlns="http://www.w3.org/2000/svg" xmlns:xlink="http://www.w3.org/1999/xlink">
    <!-- Generator: Sketch 43.2 (39069) - http://www.bohemiancoding.com/sketch -->
    <title>Desktop</title>
    <desc>Created with Sketch.</desc>
    <defs>
        <polygon id="path-1" points="0 0.155591577 0 893.479042 3807.58907 893.479042 3807.58907 0.155591577 0 0.155591577"></polygon>
        <linearGradient x1="50%" y1="41.5353983%" x2="50%" y2="100%" id="linearGradient-3">
            <stop stop-color="#556A8B" offset="0%"></stop>
            <stop stop-color="#23163F" offset="100%"></stop>
        </linearGradient>
        <linearGradient x1="50%" y1="0%" x2="50%" y2="100%" id="linearGradient-4">
            <stop stop-color="#FFFFFF" stop-opacity="0.25" offset="0%"></stop>
            <stop stop-color="#AAB0BA" offset="100%"></stop>
        </linearGradient>
        <linearGradient x1="50%" y1="0%" x2="50%" y2="100%" id="linearGradient-5">
            <stop stop-color="#FFFFFF" stop-opacity="0.1" offset="0%"></stop>
            <stop stop-color="#D1D1D1" offset="100%"></stop>
        </linearGradient>
        <linearGradient x1="50%" y1="0%" x2="35.8447708%" y2="30.3945265%" id="linearGradient-6">
            <stop stop-color="#96DC6E" offset="0%"></stop>
            <stop stop-color="#81C15C" offset="100%"></stop>
        </linearGradient>
        <linearGradient x1="50%" y1="35.9148435%" x2="50%" y2="100%" id="linearGradient-7">
            <stop stop-color="#FFDED3" offset="0%"></stop>
            <stop stop-color="#F39E82" offset="100%"></stop>
        </linearGradient>
        <linearGradient x1="50%" y1="0%" x2="50%" y2="100%" id="linearGradient-8">
            <stop stop-color="#603232" offset="0%"></stop>
            <stop stop-color="#000000" offset="100%"></stop>
        </linearGradient>
        <linearGradient x1="50%" y1="0%" x2="50%" y2="100%" id="linearGradient-9">
            <stop stop-color="#FFFFFF" stop-opacity="0.25" offset="0%"></stop>
            <stop stop-color="#AAB0BA" stop-opacity="0.75" offset="100%"></stop>
        </linearGradient>
        <polygon id="path-10" points="1136.01967 318 1147.61986 318 1148 320 1135.63953 320"></polygon>
    </defs>
    <g id="Page-1" stroke="none" stroke-width="1" fill="none" fill-rule="evenodd">
        <g id="Desktop">
            <g id="Page-1" transform="translate(-1730.000000, 191.000000)">
                <g id="Group-3" transform="translate(0.000000, 0.788603)">
                    <mask id="mask-2" fill="white">
                        <use xlink:href="#path-1"></use>
                    </mask>
                    <g id="Clip-2"></g>
                    <path d="M2448.17463,817.144611 C2470.13588,809.575639 2488.11159,798.013724 2507.89345,788.257014 L2507.89345,763.5042 L2520.24907,763.5042 L2520.24907,753.184438 L2448.17463,753.184438 L2448.17463,817.144611 Z M896.514807,726.368531 L921.226045,726.368531 C920.634005,724.554728 922.470187,720.308196 920.19641,720.174954 C913.366498,723.308276 903.228885,723.123458 896.514807,726.368531 L896.514807,726.368531 Z M758.543728,726.368531 C766.446176,725.689429 777.068576,727.731031 783.254966,725.336984 C774.400106,724.23237 766.394694,722.285326 758.543728,720.174954 L758.543728,726.368531 Z M950.055823,712.958428 C944.727462,715.524399 937.545758,716.237886 931.522394,718.111862 L931.522394,726.368531 L952.115092,726.368531 C951.003945,722.319711 954.500413,713.663318 950.055823,712.958428 L950.055823,712.958428 Z M727.65468,726.368531 L748.247379,726.368531 L748.247379,718.111862 C741.374566,716.405512 734.527493,714.669076 727.65468,712.958428 L727.65468,726.368531 Z M2336.97406,726.368531 L2347.27041,726.368531 L2347.27041,707.800696 C2343.7482,706.855112 2339.89565,706.249078 2336.97406,704.706057 L2336.97406,726.368531 Z M962.411442,709.863789 L962.411442,726.368531 L983.00414,726.368531 C982.330587,719.478661 984.364116,709.876683 981.974505,704.706057 C976.50886,707.478338 969.593145,708.802156 962.411442,709.863789 L962.411442,709.863789 Z M696.765633,726.368531 L717.358331,726.368531 L717.358331,709.863789 C709.726162,708.913907 703.050696,707.005546 696.765633,704.706057 L696.765633,726.368531 Z M2306.08501,726.368531 L2326.682,726.368531 L2326.682,701.611418 C2318.82245,700.885037 2313.35681,697.760311 2306.08501,696.449388 L2306.08501,726.368531 Z M1013.89319,697.485232 C1013.66581,696.681486 1013.03087,696.281762 1011.83392,696.449388 C1006.15806,698.675809 1000.32346,700.734603 993.300489,701.611418 L993.300489,726.368531 L1013.89319,726.368531 L1013.89319,697.485232 Z M665.876585,726.368531 L686.469283,726.368531 L686.469283,701.611418 C678.614027,700.885037 673.152672,697.760311 665.876585,696.449388 L665.876585,726.368531 Z M2275.20025,726.368531 L2295.78866,726.368531 L2295.78866,693.359047 C2288.89011,691.330339 2282.50208,688.790156 2275.20025,687.169769 L2275.20025,726.368531 Z M1043.7526,687.169769 C1037.6134,689.615393 1030.47889,691.063856 1024.18954,693.359047 L1024.18954,726.368531 L1044.78224,726.368531 C1044.1001,713.641827 1046.15079,698.177228 1043.7526,687.169769 L1043.7526,687.169769 Z M634.987538,726.368531 L655.580236,726.368531 L655.580236,693.359047 C648.853288,691.154117 641.963314,689.116813 634.987538,687.169769 L634.987538,726.368531 Z M2244.30692,726.368531 L2264.89961,726.368531 L2264.89961,683.043583 C2257.1988,681.818622 2251.57871,678.509077 2244.30692,676.850007 L2244.30692,726.368531 Z M1055.07858,683.043583 L1055.07858,726.368531 L1075.67128,726.368531 L1075.67128,677.885851 C1069.93536,676.626505 1062.53057,682.583686 1055.07858,683.043583 L1055.07858,683.043583 Z M604.09849,726.368531 L624.691188,726.368531 L624.691188,683.043583 C616.990377,681.818622 611.370287,678.509077 604.09849,676.850007 L604.09849,726.368531 Z M2213.41787,726.368531 L2234.01057,726.368531 L2234.01057,672.723822 C2226.18534,671.279657 2220.29926,667.892746 2213.41787,665.507295 L2213.41787,726.368531 Z M1085.96763,672.723822 L1085.96763,726.368531 L1106.56033,726.368531 C1105.8782,706.421003 1107.93318,683.731281 1105.5307,665.507295 C1099.87199,668.773859 1093.14934,670.978789 1085.96763,672.723822 L1085.96763,672.723822 Z M573.209442,726.368531 L593.802141,726.368531 L593.802141,672.723822 C586.174262,671.086242 579.781945,668.206508 573.209442,665.507295 L573.209442,726.368531 Z M2182.52882,726.368531 L2203.12152,726.368531 L2203.12152,661.38111 C2195.44645,659.786511 2189.82207,656.137416 2182.52882,654.160285 L2182.52882,726.368531 Z M1136.41974,654.160285 C1130.2119,656.876691 1124.12848,659.726337 1116.85668,661.38111 L1116.85668,726.368531 L1137.44938,726.368531 C1136.76295,702.638666 1138.82222,676.166608 1136.41974,654.160285 L1136.41974,654.160285 Z M542.320395,726.368531 L562.913093,726.368531 L562.913093,661.38111 C555.16509,659.859579 549.493518,656.257763 542.320395,654.160285 L542.320395,726.368531 Z M2151.63977,726.368531 L2172.23676,726.368531 L2172.23676,650.0341 C2165.77151,646.879287 2159.05743,643.973765 2151.63977,641.781729 L2151.63977,726.368531 Z M1167.30879,641.781729 C1160.83496,644.579798 1154.10372,647.115683 1147.74573,650.0341 L1147.74573,726.368531 L1168.33843,726.368531 C1167.65629,698.512481 1169.71127,667.914237 1167.30879,641.781729 L1167.30879,641.781729 Z M511.431347,726.368531 L532.024046,726.368531 L532.024046,650.0341 C525.215585,647.227434 518.861879,643.965169 511.431347,641.781729 L511.431347,726.368531 Z M1178.63477,636.623997 L1178.63477,726.368531 L1199.22747,726.368531 L1199.22747,628.371626 L1197.1682,628.371626 C1191.2049,631.337322 1185.13864,634.199863 1178.63477,636.623997 L1178.63477,636.623997 Z M480.5423,726.368531 L501.134998,726.368531 L501.134998,636.623997 C493.700176,634.444855 488.51339,630.013504 480.5423,628.371626 L480.5423,726.368531 Z M2120.75502,726.368531 L2141.34342,726.368531 L2141.34342,636.623997 C2134.10595,633.903293 2127.35755,630.692605 2120.75502,627.34008 L2120.75502,726.368531 Z M2089.86168,726.368531 L2110.45438,726.368531 L2110.45438,623.209596 C2103.91619,619.44875 2096.50282,616.56042 2089.86168,612.894132 L2089.86168,726.368531 Z M1209.52382,624.24544 L1209.52382,726.368531 L1230.11652,726.368531 C1229.4301,688.889013 1231.48937,648.658704 1229.08689,612.894132 C1223.58692,617.703717 1214.41459,618.829822 1209.52382,624.24544 L1209.52382,624.24544 Z M449.653252,726.368531 L470.245951,726.368531 L470.245951,623.209596 C463.463231,619.693742 456.457423,616.392794 449.653252,612.894132 L449.653252,726.368531 Z M2058.97263,726.368531 L2079.56533,726.368531 L2079.56533,607.740699 C2072.69681,604.302211 2065.84115,600.859425 2058.97263,597.420937 L2058.97263,726.368531 Z M1240.41287,607.740699 L1240.41287,726.368531 L1261.00557,726.368531 C1260.31914,683.726983 1262.37841,638.343241 1259.97593,597.420937 C1254.14992,601.555719 1246.81377,604.181864 1240.41287,607.740699 L1240.41287,607.740699 Z M418.764205,726.368531 L439.356903,726.368531 L439.356903,607.740699 C432.49267,604.302211 425.632728,600.859425 418.764205,597.420937 L418.764205,726.368531 Z M2028.08358,726.368531 L2048.67628,726.368531 L2048.67628,592.267503 C2042.16384,588.132722 2035.56989,584.079604 2028.08358,580.920493 L2028.08358,726.368531 Z M1290.86498,580.920493 C1284.91884,585.622625 1276.02966,587.376254 1271.30192,593.294751 L1271.30192,726.368531 L1291.89462,726.368531 C1291.20819,678.2297 1293.26746,627.34008 1290.86498,580.920493 L1290.86498,580.920493 Z M387.875157,726.368531 L408.467855,726.368531 L408.467855,592.267503 C401.921093,588.167106 395.146954,584.290211 387.875157,580.920493 L387.875157,726.368531 Z M1997.19453,726.368531 L2017.79152,726.368531 L2017.79152,575.762761 C2012.29585,569.913034 2003.97725,566.904357 1997.19453,562.352659 L1997.19453,726.368531 Z M1302.19096,576.794308 C1299.24792,585.257286 1302.19096,601.1431 1302.19096,613.929977 L1302.19096,726.368531 L1322.78366,726.368531 C1322.09724,672.036124 1324.15651,614.961523 1321.75403,562.352659 C1317.83713,568.490359 1304.87231,569.083499 1302.19096,576.794308 L1302.19096,576.794308 Z M356.98611,726.368531 L377.578808,726.368531 L377.578808,575.762761 C372.108872,569.891543 363.382716,567.291187 356.98611,562.352659 L356.98611,726.368531 Z M1966.30978,726.368531 L1986.89819,726.368531 L1986.89819,557.194927 C1981.47544,550.936879 1972.77074,547.966885 1966.30978,542.753278 L1966.30978,726.368531 Z M1333.08001,558.226473 C1329.82379,568.013269 1333.08001,585.854723 1333.08001,599.48403 L1333.08001,726.368531 L1353.67271,726.368531 C1352.98629,665.507295 1355.04556,601.890971 1352.64737,542.753278 C1348.74762,549.140269 1335.66268,550.472683 1333.08001,558.226473 L1333.08001,558.226473 Z M326.097062,726.368531 L346.68976,726.368531 L346.68976,557.194927 C341.129732,551.074418 332.549441,547.979779 326.097062,542.753278 L326.097062,726.368531 Z M1935.41644,726.368531 L1956.00914,726.368531 L1956.00914,536.563999 C1949.7112,531.187064 1942.58956,526.626769 1935.41644,522.118052 L1935.41644,726.368531 Z M1363.96906,537.591248 C1362.30019,542.465304 1363.96906,552.552968 1363.96906,560.289566 L1363.96906,726.368531 L1384.56176,726.368531 C1383.87534,658.630319 1385.9346,588.141318 1383.53212,522.118052 C1379.48652,528.328821 1366.4745,530.288759 1363.96906,537.591248 L1363.96906,537.591248 Z M295.208014,726.368531 L315.800713,726.368531 L315.800713,536.563999 C309.631484,531.049525 302.128019,526.880358 295.208014,522.118052 L295.208014,726.368531 Z M1904.52739,726.368531 L1925.12009,726.368531 L1925.12009,514.901526 C1918.98518,509.013115 1911.46027,504.517292 1904.52739,499.42833 L1904.52739,726.368531 Z M1394.85811,515.928774 L1394.85811,726.368531 L1415.45081,726.368531 C1414.76438,651.061348 1416.82794,573.011971 1414.42117,499.42833 C1408.86543,505.896986 1399.62446,508.669267 1394.85811,515.928774 L1394.85811,515.928774 Z M264.318967,726.368531 L284.911665,726.368531 L284.911665,514.901526 C278.446416,509.339772 271.316194,504.452821 264.318967,499.42833 L264.318967,726.368531 Z M1894.23104,492.203208 C1890.12108,487.509672 1881.6266,479.87193 1876.72725,476.73431 C1877.04472,476.936321 1873.11924,472.410412 1873.63834,476.73431 L1873.63834,726.368531 L1894.23104,726.368531 L1894.23104,492.203208 Z M1445.31022,474.671218 C1440.25643,482.622721 1428.20112,484.647131 1425.75145,494.2663 C1423.86807,501.637559 1425.75145,513.693757 1425.75145,523.153897 C1425.75145,589.551098 1425.74716,663.938485 1425.75145,726.368531 L1446.33985,726.368531 C1445.65343,642.813275 1447.7127,556.502931 1445.31022,474.671218 L1445.31022,474.671218 Z M254.022618,523.153897 C254.022618,512.804048 256.1634,500.434088 254.022618,493.239052 C252.589709,488.403679 241.070668,479.837546 236.518824,476.73431 C235.948235,476.343182 234.695512,473.50643 233.429919,476.73431 L233.429919,726.368531 L254.022618,726.368531 L254.022618,523.153897 Z M1863.34629,500.459877 C1863.34629,489.542678 1865.65009,475.401896 1863.34629,467.450393 C1860.89661,459.030396 1849.56634,455.725149 1843.77893,448.882558 C1843.71887,447.795137 1842.45757,448.070216 1842.7493,449.914105 L1842.7493,726.368531 L1863.34629,726.368531 C1863.34629,656.872392 1863.342,572.324273 1863.34629,500.459877 L1863.34629,500.459877 Z M1456.6362,468.477641 C1454.53832,476.721416 1456.6362,489.641534 1456.6362,500.459877 L1456.6362,726.368531 L1477.23319,726.368531 C1476.54677,633.868908 1478.60175,538.627092 1476.19927,447.851012 C1471.07683,456.236624 1459.11591,458.768211 1456.6362,468.477641 L1456.6362,468.477641 Z M223.13357,500.459877 C223.13357,489.17304 225.47599,475.333126 223.13357,467.450393 C220.662446,459.120656 209.147696,455.828304 203.570507,448.882558 C203.514735,447.795137 202.253432,448.070216 202.540872,449.914105 L202.540872,726.368531 L223.13357,726.368531 L223.13357,500.459877 Z M1832.45295,475.702764 C1832.45295,463.165177 1834.96697,448.779404 1832.45295,439.598641 C1830.00327,430.64138 1818.47565,426.755889 1812.88988,418.963416 C1812.83411,417.880292 1811.56852,418.155371 1811.86454,419.99926 L1811.86454,726.368531 L1832.45295,726.368531 L1832.45295,475.702764 Z M1507.0926,417.936167 C1501.94014,427.035266 1489.98779,430.383494 1487.52525,440.625889 C1485.28579,449.952788 1487.52525,463.792702 1487.52525,475.702764 L1487.52525,726.368531 L1508.11795,726.368531 C1507.43153,623.901592 1509.4908,518.683862 1507.0926,417.936167 L1507.0926,417.936167 Z M192.244523,475.702764 C192.244523,463.165177 194.758548,448.779404 192.244523,439.598641 C189.794849,430.64138 178.267229,426.755889 172.681459,418.963416 C172.625687,417.880292 171.360094,418.155371 171.651824,419.99926 L171.651824,726.368531 L192.244523,726.368531 L192.244523,475.702764 Z M1801.5639,448.882558 C1801.5639,435.042645 1804.19376,419.393227 1801.5639,408.647952 C1799.12281,398.663443 1787.65954,394.743567 1782.00084,385.95823 C1781.94506,384.870808 1780.68376,385.145887 1780.9712,386.985478 L1780.9712,726.368531 L1801.5639,726.368531 L1801.5639,448.882558 Z M1518.4143,409.683797 C1516.01182,420.3646 1518.4143,435.670169 1518.4143,448.882558 L1518.4143,726.368531 L1539.007,726.368531 C1538.32057,612.894132 1540.37984,496.67754 1537.97736,384.922386 C1532.94931,394.902597 1520.86397,398.813877 1518.4143,409.683797 L1518.4143,409.683797 Z M161.355475,448.882558 C161.355475,434.844932 164.036816,419.019291 161.355475,408.647952 C158.871481,399.058869 147.232316,394.640412 141.792412,385.95823 C141.73664,384.870808 140.475337,385.145887 140.762777,386.985478 L140.762777,726.368531 L161.355475,726.368531 L161.355475,448.882558 Z M1750.08215,726.368531 L1770.67485,726.368531 L1770.67485,417.936167 C1770.67485,402.37701 1773.58357,385.451053 1770.67485,373.579674 C1768.59842,365.086609 1753.39844,353.176546 1750.08215,346.759468 L1750.08215,726.368531 Z M1549.30335,374.61122 C1546.71639,386.684611 1549.30335,403.344085 1549.30335,417.936167 C1549.30335,519.552081 1549.29906,629.218354 1549.30335,726.368531 L1569.89604,726.368531 C1569.20962,600.176025 1571.27318,471.23273 1568.86641,346.759468 C1564.3446,358.072093 1551.79592,363.002025 1549.30335,374.61122 L1549.30335,374.61122 Z M109.873729,726.368531 L130.466427,726.368531 L130.466427,417.936167 C130.466427,402.364115 133.396597,385.382283 130.466427,373.579674 C127.789377,362.791418 115.227831,357.05774 109.873729,346.759468 L109.873729,726.368531 Z M3611.66209,317.87617 C3598.51279,317.897661 3606.77132,345.607575 3604.45893,360.169571 L3618.86953,360.169571 C3616.51424,345.64196 3624.87574,317.850381 3611.66209,317.87617 L3611.66209,317.87617 Z M3593.12866,317.87617 C3579.97936,317.897661 3588.2336,345.607575 3585.92121,360.169571 L3600.34039,360.169571 C3597.98081,345.64196 3606.34231,317.850381 3593.12866,317.87617 L3593.12866,317.87617 Z M3569.44706,319.939263 C3567.10035,331.33785 3569.06523,347.064634 3568.41742,360.169571 L3581.80267,360.169571 C3581.21921,347.000162 3583.03395,331.42811 3580.77304,319.939263 C3577.55972,317.820295 3572.50164,317.003654 3569.44706,319.939263 L3569.44706,319.939263 Z M1580.19668,334.380912 C1577.39951,348.130565 1580.19668,366.565159 1580.19668,382.859293 C1580.19239,496.161767 1580.19668,617.544687 1580.19668,726.368531 L1600.78509,726.368531 C1600.09867,585.734376 1602.15794,442.345133 1599.75546,303.430223 C1594.91188,315.486421 1582.70213,322.041039 1580.19668,334.380912 L1580.19668,334.380912 Z M78.9846815,726.368531 L99.5773799,726.368531 L99.5773799,382.859293 C99.5773799,365.641065 102.696316,346.944287 99.5773799,333.345067 C97.5438509,324.478067 82.4382486,309.941859 78.9846815,303.430223 L78.9846815,726.368531 Z M1719.19311,726.368531 L1739.78581,726.368531 L1739.78581,333.345067 C1735.38412,324.684376 1725.82996,312.262839 1719.19311,302.402975 L1719.19311,726.368531 Z M3598.27683,302.402975 L3611.66209,302.402975 C3610.8298,293.952891 3614.00022,281.49267 3608.57318,277.641564 L3601.36574,277.641564 C3595.9387,281.49267 3599.10912,293.952891 3598.27683,302.402975 L3598.27683,302.402975 Z M3574.59952,302.402975 L3587.98477,302.402975 C3587.33696,293.763774 3589.99685,281.815028 3584.89158,277.641564 L3577.68413,277.641564 C3572.2571,281.49267 3575.43181,293.952891 3574.59952,302.402975 L3574.59952,302.402975 Z M1688.30406,384.922386 C1688.30406,433.684442 1687.03418,488.94524 1690.36333,531.406268 C1692.91168,563.869891 1690.36333,596.948145 1690.36333,629.403172 C1690.36333,658.118844 1689.62113,688.992167 1690.36333,716.048769 C1690.44484,718.945695 1688.49712,724.511747 1692.4226,726.368531 L1707.86712,726.368531 C1710.95603,581.947741 1706.83749,430.314724 1709.92639,285.893935 C1701.28175,274.955245 1695.91907,260.7328 1688.30406,248.762564 L1688.30406,384.922386 Z M1620.34815,269.393491 C1617.019,275.342075 1612.0982,281.604421 1611.08144,286.929779 C1608.07405,302.712439 1611.08144,323.291789 1611.08144,341.597438 C1611.08573,468.653864 1611.08144,603.786438 1611.08144,726.368531 L1629.61487,726.368531 C1630.92336,568.817016 1633.15853,406.700908 1630.6445,248.762564 C1627.98032,256.400305 1624.38518,262.176964 1620.34815,269.393491 L1620.34815,269.393491 Z M49.1252689,726.368531 L67.6586974,726.368531 C69.533491,605.634625 68.6883323,466.603665 68.6883323,341.597438 C68.6883323,322.286031 72.0646768,301.461689 68.6883323,285.893935 C67.6243762,280.994089 61.9871251,274.869283 58.3919831,268.361945 C54.5780438,261.454882 51.3132431,252.776998 48.095634,248.762564 C47.2976669,409.112148 49.5371228,566.410074 49.1252689,726.368531 L49.1252689,726.368531 Z M1641.97049,228.127338 C1637.34571,257.057916 1645.43264,297.073318 1641.97049,328.191634 L1641.97049,340.57019 C1642.47673,347.962939 1643.50207,338.270701 1643.00012,335.40816 L1643.00012,310.655346 L1643.00012,285.893935 C1643.00012,278.728986 1640.67486,263.002202 1643.00012,260.105276 C1643.38195,259.636782 1646.45798,260.255709 1647.11866,260.105276 C1652.51138,258.893209 1648.03246,215.761676 1648.15259,212.654143 C1646.8398,217.562584 1642.89716,222.333486 1641.97049,228.127338 L1641.97049,228.127338 Z M30.5918403,259.078027 C30.4245247,261.996444 36.9369655,258.218405 36.7696499,261.14112 C37.6491297,286.779345 35.5855697,310.401757 36.7696499,335.40816 C36.9627064,339.482768 36.9841571,346.295272 37.7992848,340.57019 C40.7938063,319.561029 37.7992848,300.636451 37.7992848,277.641564 C37.7992848,254.629484 41.3000435,223.971066 30.5918403,212.654143 L30.5918403,259.078027 Z M1670.80027,259.078027 C1670.63295,261.996444 1677.14539,258.218405 1676.97808,261.14112 L1676.97808,310.655346 L1676.97808,335.40816 C1676.47184,338.270701 1677.50147,347.962939 1678.00771,340.57019 L1678.00771,327.160087 L1678.00771,276.614315 C1678.00771,250.189536 1681.13952,223.584236 1670.80027,211.626895 L1670.80027,259.078027 Z M3817.58907,596.393689 L3817.58907,893.479042 L2044.55774,893.479042 L2044.04292,891.927424 L2043.5324,890.384403 C2096.52427,884.736686 2149.73924,876.058803 2201.06225,869.749177 C2214.98806,868.042828 2228.4248,867.419602 2241.21801,864.595744 C2275.17451,857.086946 2312.38294,845.907562 2347.27041,837.775538 L2347.27041,754.215984 C1570.18777,751.813341 788.814994,753.872136 9.99914197,753.184438 L9.99914197,164.175762 L30.5918403,164.175762 C31.7072782,187.44143 42.788724,208.626814 52.2141736,228.127338 C116.798024,361.781362 219.019321,458.398574 340.511951,536.563999 C442.720377,602.316484 561.458734,655.071484 696.765633,692.323202 C742.618708,704.951049 790.363737,718.111862 840.914521,718.111862 C891.834258,718.111862 939.433422,704.155899 985.06341,691.295954 C1118.55987,653.661704 1239.55913,602.578669 1341.31709,536.563999 C1410.15248,491.906638 1472.77144,440.303531 1525.62174,379.768952 C1565.05676,334.595817 1600.42472,285.550086 1628.58523,227.10009 C1637.89914,207.77149 1646.90416,186.530231 1650.20757,164.175762 L1670.80027,164.175762 C1670.25971,170.339251 1671.1778,177.315084 1672.85954,182.739298 C1678.012,199.368685 1687.1543,217.386362 1695.51579,234.316616 C1752.02988,348.818263 1840.66858,439.542766 1939.53498,509.739496 C2056.41999,592.731699 2195.58802,654.100112 2347.27041,695.42214 L2347.27041,620.119255 C2380.56194,620.802655 2416.59916,618.74386 2448.17463,621.146503 L2448.17463,718.111862 C2470.522,722.547511 2491.79683,728.049092 2520.24907,726.368531 L2520.24907,680.980491 L2586.14571,680.980491 C2586.83213,648.998255 2584.77286,614.273826 2587.17534,584.015132 C2598.84883,584.694234 2613.25514,582.644035 2623.21257,585.046679 L2623.21257,726.368531 C2636.65359,727.455952 2642.29942,720.72941 2652.04663,718.111862 L2652.04663,592.267503 L2670.57577,592.267503 C2671.2579,583.662687 2669.21151,572.33287 2671.60541,565.443 L2812.66539,565.443 L2812.66539,592.267503 C2818.51286,592.938008 2827.05883,590.9093 2831.19882,593.294751 C2831.88095,613.586128 2829.83026,636.619699 2832.23274,655.191831 C2842.11724,651.001174 2853.13862,647.94092 2864.14714,644.87207 L2864.14714,432.373518 C2873.48678,431.874938 2872.33273,420.91046 2877.53239,414.83723 C2884.6669,406.511792 2896.37471,400.765219 2913.56961,400.399879 C2914.27749,390.922547 2912.64294,378.260315 2913.56961,367.386098 C2913.74551,365.370284 2911.80636,359.01338 2916.65852,360.169571 C2919.05671,371.17703 2917.00602,386.64163 2917.68815,399.368333 C2938.95869,402.127719 2956.68986,408.428749 2960.93711,428.251631 C2959.39695,433.91654 2968.97255,428.449344 2967.11063,434.436611 L2967.11063,617.020318 C2974.77283,615.760972 2982.0103,614.067516 2988.73296,611.866884 C2998.28283,540.978158 3007.51522,471.576578 3017.56274,399.368333 C3020.00812,381.789064 3023.84351,363.883138 3024.77018,345.727922 C3027.769,287.20056 3022.53931,227.005532 3024.77018,165.207308 L3049.48142,165.207308 C3058.23332,111.051124 3064.14943,54.0538891 3073.16731,0.155591577 L3074.70748,0.675662869 L3076.25193,0.155591577 C3084.52762,54.4493153 3091.51198,110.032472 3098.90819,165.207308 C3106.80635,165.886409 3117.42875,163.840509 3123.61514,166.238854 C3124.26295,224.026941 3122.74853,279.549925 3123.61514,336.444005 C3123.87683,353.636444 3126.5925,370.575295 3128.76331,386.985478 C3137.77262,455.106222 3147.38683,519.865843 3156.56345,585.046679 C3157.24988,523.837296 3155.19061,459.88572 3157.59309,400.399879 L3240.99352,400.399879 C3243.86362,457.650703 3237.17958,518.288436 3240.99352,576.794308 C3241.11793,578.668284 3238.79696,585.49798 3244.08671,585.046679 C3249.60813,584.840369 3247.05978,577.35736 3247.17133,574.731215 C3248.33825,547.309274 3246.30043,513.517534 3247.17133,484.986681 L3267.76402,484.986681 L3267.76402,390.084416 C3271.19185,389.044273 3278.96559,392.362414 3279.0943,388.021323 C3289.59657,365.881759 3307.49077,351.139242 3335.71993,346.759468 C3335.98592,331.548458 3336.92975,317.025144 3338.81312,303.430223 L3339.32365,304.981841 L3340.8681,304.466067 C3342.74719,317.712842 3343.58806,331.995461 3343.95701,346.759468 C3373.97087,350.726624 3393.37519,365.327303 3402.6462,390.084416 C3406.79048,390.742026 3413.59465,388.743405 3416.03574,391.111664 L3416.03574,484.986681 C3421.88321,485.657186 3430.42918,483.628479 3434.56488,486.013929 L3434.56488,587.105473 L3457.21685,587.105473 C3457.90327,521.090804 3455.844,452.321046 3458.24648,388.021323 C3482.95772,388.704722 3510.41465,386.645928 3533.40983,389.048571 C3534.09626,441.317885 3532.04128,496.329393 3534.43947,546.879463 C3539.71635,543.909469 3548.03494,543.995431 3554.00253,541.717433 L3554.00253,376.674313 C3551.97758,371.207117 3560.14602,375.95223 3558.12107,370.485035 L3558.12107,303.430223 C3559.18503,300.02612 3568.9494,305.338584 3568.41742,300.339882 L3568.41742,268.361945 C3584.89587,269.045344 3604.10714,266.986549 3618.86953,269.393491 L3618.86953,301.371428 C3619.93349,304.775531 3629.69786,299.463067 3629.16588,304.466067 L3629.16588,371.516581 C3628.00754,376.115559 3636.65647,370.884759 3634.31406,376.674313 L3634.31406,537.591248 C3657.03467,538.657179 3681.29544,543.857892 3702.26996,551.005649 C3726.20897,559.154865 3749.62888,568.129318 3754.78563,594.330596 C3758.77547,595.387931 3751.58947,601.237658 3756.84061,600.519874 C3776.91849,598.968256 3797.48116,597.910921 3817.58907,596.393689 L3817.58907,596.393689 Z" id="Fill-1" fill="url(#linearGradient-3)" mask="url(#mask-2)"></path>
                </g>
            </g>
            <path d="M329.355984,584.19208 C230.285778,580.667483 156,566.026312 156,548.5 C156,528.341607 254.273497,512 375.5,512 C408.336425,512 439.488796,513.198978 467.460228,515.348023 C478.231361,491.259707 507.313658,474 541.5,474 C584.854353,474 620,501.758346 620,536 C620,541.903104 618.955465,547.613522 617.004411,553.02225 C665.88583,559.317714 698,569.947412 698,582 C698,601.329966 615.396536,617 513.5,617 C415.484414,617 335.320252,602.500889 329.355984,584.19208 Z" id="cloud2" fill="url(#linearGradient-4)"></path>
            <path d="M826.051544,107.29192 C797.305862,119.396565 776,163.476009 776,216 C776,277.855892 805.549207,328 842,328 C878.450793,328 908,277.855892 908,216 C908,207.078666 907.385328,198.400957 906.223932,190.082176 C915.919213,174.083411 922,151.072853 922,125.5 C922,77.1750844 900.28581,38 873.5,38 C850.174976,38 830.695705,67.7060267 826.051544,107.29192 Z" id="Combined-Shape" fill="url(#linearGradient-5)"></path>
            <g id="house" transform="translate(524.000000, 304.000000)">
                <ellipse id="Oval-2" fill="url(#linearGradient-6)" cx="531.5" cy="819" rx="531.5" ry="261"></ellipse>
                <ellipse id="Oval-16" fill="#66AC66" cx="532" cy="622.5" rx="329" ry="24.5"></ellipse>
                <rect id="Rectangle" fill="url(#linearGradient-7)" x="237" y="208" width="587" height="411"></rect>
                <rect id="Rectangle-5" fill="url(#linearGradient-8)" x="265" y="8" width="111" height="180"></rect>
                <polygon id="Triangle" fill="#A02952" points="530.5 0 869 226 192 226"></polygon>
                <rect id="Rectangle-2" fill="#D16E6E" x="285" y="371" width="163" height="132"></rect>
                <rect id="Rectangle-2" fill="#DDF2F0" x="293" y="380" width="147" height="114"></rect>
                <rect id="Rectangle-6" fill="#A8ABB1" x="293" y="422" width="10" height="72"></rect>
                <g id="door" transform="translate(637.000000, 393.000000)">
                    <rect id="Rectangle-3" fill="#E06161" x="0" y="0" width="136" height="226"></rect>
                    <rect id="Rectangle-4" fill="#EC7272" x="21.1803279" y="22.6" width="40.1311475" height="91.5894737"></rect>
                    <rect id="Rectangle-4-Copy-2" fill="#EC7272" x="21.1803279" y="133.221053" width="40.1311475" height="91.5894737"></rect>
                    <rect id="Rectangle-4-Copy" fill="#EC7272" x="78.0327869" y="22.6" width="40.1311475" height="91.5894737"></rect>
                    <rect id="Rectangle-4-Copy-3" fill="#EC7272" x="78.0327869" y="133.221053" width="40.1311475" height="91.5894737"></rect>
                </g>
                <path d="M394,474 C408.911688,474 421,462.359403 421,448 C421,433.640597 411,422 394,422 C377,422 369,427 367,448 C365,469 379.088312,474 394,474 Z" id="Oval-3" fill="#F2DFB5"></path>
                <path d="M395.103053,474.879904 C407.52946,474.879904 450.370383,470.795107 450.370383,463.339263 C450.370383,455.883419 407.52946,447.879904 395.103053,447.879904 C382.676647,447.879904 373.526022,452.892729 373.526022,460.348573 C373.526022,467.804418 382.676647,474.879904 395.103053,474.879904 Z" id="Oval-5" fill="#3C1A0C" transform="translate(411.948203, 461.379904) rotate(-285.000000) translate(-411.948203, -461.379904) "></path>
                <ellipse id="Oval-4" fill="#000000" cx="374" cy="449" rx="2" ry="6"></ellipse>
                <ellipse id="Oval-6" fill="#580B0B" transform="translate(386.262694, 489.824414) rotate(-36.000000) translate(-386.262694, -489.824414) " cx="386.262694" cy="489.824414" rx="19.5" ry="7"></ellipse>
                <polygon id="Rectangle-7" fill="#3C1A0C" points="380 431 415 431 423 495 380 495"></polygon>
                <rect id="Rectangle-8" fill="#D16E6E" x="362" y="494" width="70" height="9"></rect>
                <path d="M394.5,447 C406.926407,447 422,446 419,436.5 C416,427 406.926407,418 394.5,418 C386.771288,418 378.886884,421.707828 374.614265,425.559625 C372.017265,427.900838 372,428 370,431.5 C365.359955,439.620078 382.073593,447 394.5,447 Z" id="Oval-5" fill="#3C1A0C"></path>
                <circle id="Oval" fill="#FFEF85" cx="648" cy="515" r="6"></circle>
            </g>
            <path d="M1791.92355,682.330718 C1805.40327,680.588538 1820.93621,679.146153 1837.96611,678.080458 C1846.80834,667.185318 1884.43017,659 1929.5,659 C1980.07744,659 2021.27535,669.308073 2022.94724,682.186082 C2056.78823,686.481593 2078,692.648369 2078,699.5 C2078,712.478692 2001.88841,723 1908,723 C1814.11159,723 1738,712.478692 1738,699.5 C1738,698.619579 1738.35024,697.750465 1739.03252,696.895177 C1731.55058,697.614928 1723.65715,698 1715.5,698 C1667.72737,698 1629,684.7924 1629,668.5 C1629,652.2076 1667.72737,639 1715.5,639 C1763.27263,639 1802,652.2076 1802,668.5 C1802,673.497943 1798.35556,678.205591 1791.92356,682.330718 Z" id="cloud1" fill="url(#linearGradient-9)"></path>
            <ellipse id="sahdow" fill="#652C40" cx="1135" cy="382" rx="18" ry="4"></ellipse>
            <g id="cat" transform="translate(1115.000000, 292.000000)">
                <path d="M26,89 C29.8659932,89 33,70.1959595 33,47 C33,23.8040405 31.8659932,24 28,24 C24.1340068,24 19,23.8040405 19,47 C19,70.1959595 22.1340068,89 26,89 Z" id="Oval-17" fill="#000000"></path>
                <path d="M13.5,90 C22.6126984,90 33.024012,91.2531176 35.5207573,76.7626038 C38.0175027,62.2720899 25,59 25,40 C25,21 4.01750265,49.2720899 1.52075733,63.7626038 C-0.975988003,78.2531176 4.38730163,90 13.5,90 Z" id="Oval-18" fill="#000000"></path>
                <ellipse id="Oval-15" fill="#080808" cx="26.5" cy="16.5" rx="14.5" ry="10.5"></ellipse>
                <polygon id="Triangle-2" fill="#000000" points="19.5 0 25 12 14 12"></polygon>
                <polygon id="Triangle-2-Copy" fill="#000000" points="33.5 0 39 12 28 12"></polygon>
                <path d="M23,87 C23,87 31.2918226,88.5971851 38,87 C41,87 42,86 43,84 C45.1969633,80.2337772 44,82 45,77 C46,74 47.5906188,73.4541584 48,74 C49.0906188,75.4541584 48.5304811,76.5244218 48,79 C47.0304811,83.5244218 47.6564843,82.8255247 45,87 C44.1564843,88.3255247 43.2512852,89.1813508 41,90 C37.7512852,91.1813508 37.7263365,90.4676662 34,91 C30.7263365,91.4676662 30.4497912,91.2299861 27,91 C22.9497912,90.7299861 19,90 19,90 L14,89 L23,87 Z" id="Path-2" fill="#000000"></path>
            </g>
            <g id="Rectangle-9">
                <use fill="#D8D8D8" fill-rule="evenodd" xlink:href="#path-10"></use>
                <path stroke="#FF6DA5" stroke-width="1" d="M1136.43359,318.5 L1147.20595,318.5 L1147.39601,319.5 L1136.24352,319.5 L1136.43359,318.5 Z"></path>
            </g>
        </g>
    </g>
</svg>