<?xml version="1.0" encoding="utf-8"?>
<!-- Generator: Adobe Illustrator 22.1.0, SVG Export Plug-In . SVG Version: 6.00 Build 0)  -->
<svg version="1.1" id="Layer_1" xmlns="http://www.w3.org/2000/svg" xmlns:xlink="http://www.w3.org/1999/xlink" x="0px" y="0px"
	 viewBox="0 0 1056.5 591.8" style="enable-background:new 0 0 1056.5 591.8;" xml:space="preserve">
<style type="text/css">
	.st0{fill:url(#SVGID_1_);}
	.st1{fill:#2D4F5A;}
	.st2{fill:url(#SVGID_2_);}
	.st3{fill:url(#SVGID_3_);}
	.st4{fill:#E9DED4;}
	.st5{fill:url(#SVGID_4_);}
	.st6{fill:url(#SVGID_5_);}
	.st7{fill:url(#SVGID_6_);}
	.st8{fill:url(#SVGID_7_);}
	.st9{fill:url(#SVGID_8_);}
	.st10{fill:url(#SVGID_9_);}
	.st11{fill:#212428;}
	.st12{fill:url(#SVGID_10_);}
	.st13{fill:url(#SVGID_11_);}
	.st14{fill:#313233;}
	.st15{opacity:0.14;fill:#212428;}
</style>
<title>trangy</title>
<linearGradient id="SVGID_1_" gradientUnits="userSpaceOnUse" x1="435.6392" y1="395.3315" x2="782.1922" y2="-58.7085">
	<stop  offset="0" style="stop-color:#C5E6FF"/>
	<stop  offset="1" style="stop-color:#7DCDFF"/>
</linearGradient>
<rect class="st0" width="1056.3" height="548.3"/>
<g>
	<path class="st1" d="M1056.3,248.9H888.2c-3.5,0-7-0.5-10.3-1.6l-22.7-7.2c-47.3-15.1-97.4-21.5-147.4-18.7l-122.3,6.9
		c-1.5,0.1-3.1,0.1-4.6-0.1l-89-7c-2.6-0.2-5.3-0.1-7.9,0.3l-245.7,38.1c-0.7,0.1-1.3,0.2-2,0.2l-124.7,13.8
		c-2.7,0.3-65.3,30.8-67.8,31.7l0,0c-32.4,11.2,15,25.5,49.5,27.1l963,44.1V248.9z"/>
	<path class="st1" d="M1056.3,248.9"/>
</g>
<linearGradient id="SVGID_2_" gradientUnits="userSpaceOnUse" x1="528.6528" y1="267.9922" x2="530.9437" y2="57.2248">
	<stop  offset="0" style="stop-color:#728AA1"/>
	<stop  offset="1" style="stop-color:#728AA1;stop-opacity:0.5"/>
</linearGradient>
<path class="st2" d="M1046.3,201.8l-124.9-67.5l-145.6-80c-6.1-3.3-13.4-3.7-19.8-0.9L479.2,173.9c-5.3,2.3-11.3,2.5-16.7,0.5
	l-133.3-48.8c-8.3-3-17.6-0.9-23.7,5.4L192.3,246.5c-5.6,5.7-13.8,8-21.5,6l-56.2-14.3c-5.6-1.4-11.5-0.6-16.5,2.2L2.4,294.1
	c-0.9,0.5-1.7,1-2.4,1.6v36c3.9,2.9,8.6,4.5,13.4,4.5h1042.9V212.8C1054.3,208.1,1050.8,204.2,1046.3,201.8z"/>
<linearGradient id="SVGID_3_" gradientUnits="userSpaceOnUse" x1="501.8932" y1="608.1194" x2="592.2993" y2="-13.4222">
	<stop  offset="0" style="stop-color:#5B8A49"/>
	<stop  offset="1" style="stop-color:#5B797E"/>
</linearGradient>
<path class="st3" d="M829,591.8c83.6-14.1,162.1-32.4,227.3-53.8V306.2c-139.3-38.4-340.1-59.7-520.1-53.2
	C384.9,258.5,120.8,282.5,0,317.4v191.7c34,34.3,100,62.9,187,82.7H829z"/>
<path class="st4" d="M778.6,324.3c0,0-121.1,0.3-116.8-23.4c4.9-27.5,47.5-44.5,48-45.7s-17.5-1.8-19.6-0.9s-81.2,32.1-76.9,59.3
	c4.3,27.2,60.1,30.3,60.1,30.3L778.6,324.3z"/>
<linearGradient id="SVGID_4_" gradientUnits="userSpaceOnUse" x1="1049.8715" y1="579.1766" x2="510.5999" y2="462.0979">
	<stop  offset="0" style="stop-color:#7AB03A"/>
	<stop  offset="1" style="stop-color:#7AA200"/>
</linearGradient>
<path class="st5" d="M114.2,591.8h942.1V367.6c-105.1-32.5-254.5-49.9-419.4-43.9C323,335,71.5,426.5,75.1,528
	C76,551,89.7,572.4,114.2,591.8z"/>
<path class="st4" d="M511.4,399.5c0,0,217,7.4,263.3-9.1c46.3-16.4-27.4-67.6-27.4-67.6l68.7,2.5c4.1,0.1,8.1,1.2,11.7,3.2
	c23.2,12.5,108.2,62.1,75.4,99.5C865.5,471.2,762.5,483,762.5,483L511.4,399.5z"/>
<linearGradient id="SVGID_5_" gradientUnits="userSpaceOnUse" x1="654.1616" y1="328.3917" x2="428.8738" y2="581.1058">
	<stop  offset="0" style="stop-color:#B5C330"/>
	<stop  offset="1" style="stop-color:#7AC368"/>
</linearGradient>
<path class="st6" d="M1056.5,532.5c-102.2-67.5-460.9-151.3-668-180.1c-147.3-20.5-284-20.9-388.6-5v244.4h1056.5V532.5z"/>
<path class="st4" d="M441.8,591.8c86.2-39.4,117.6-205.2,115.5-209.6c-2.3-4.9-161.3-32.4-172.8-29.6
	c-11.1,2.7-264.2,90.9-384.5,78.1V483v80.7v28.1H441.8z"/>
<g>
	<path d="M381,470.1l-1.4,14l18.9,7.4c3.8,0.9,12.5,1,16.3,0.2l-15.7-12.3l-3.6-8.6l-12.6-3.1L381,470.1z"/>
	<linearGradient id="SVGID_6_" gradientUnits="userSpaceOnUse" x1="381.5997" y1="300.0251" x2="338.3253" y2="446.8959">
		<stop  offset="0" style="stop-color:#022893"/>
		<stop  offset="1" style="stop-color:#0060AA"/>
	</linearGradient>
	<path class="st7" d="M408.2,374c-0.2-0.9,1.5-92.8,1.5-92.8c-1.2-2.4-20.3,4.7-32.7,8.3l0.8-13.2c0.3-5.5-5.2-9.5-10.3-7.6l-11,4.3
		c-4.4,1.7-9.3-1-10.2-5.6v0c-1.3-6.6-10-8.3-13.8-2.7l-10.8,16.4c-2.6,0.7,4.7,35.9,6.4,43.7c0.2,1,0.4,2.1,0.5,3.2l4.2,47.1
		c0.2,2-0.6,3.9-2.2,5.2c-5.9,4.9-20.7,17.8-25,28.5c-2.4,5.9-15.6,27.4-22.3,38.1c-2.2,3.5-1.2,8.1,2.3,10.3l2.3,1.5
		c3.3,2.2,7.7,1.5,10.1-1.6l12.2-15.1c3.4-4.2,7.1-8,11.1-11.5l20.5-19.3c3.3-2.9,8.7-7.6,13.1-11.9c3.2-3.1,4.6-5.2,5.9-8.6
		c0.3-0.8,0.5-1.7,0.7-2.6l7.8-43.8l1.5,6.9c1.3,1.5,7.7,30,7.2,31.9c-1.9,7.4-6.1,26.6-3.2,37.8c2.1,8.3,5.2,51.3,5.2,51.3l17-0.9
		l1.1-26.3c0.2-5.3,0.9-10.6,2.1-15.9l5.1-27.7c0.9-4.3,2.5-11.3,3.5-17.4C409.3,380,408,376.6,408.2,374z"/>
</g>
<linearGradient id="SVGID_7_" gradientUnits="userSpaceOnUse" x1="392.2101" y1="-141.2633" x2="488.8765" y2="-170.5588" gradientTransform="matrix(0.997 7.708211e-02 7.708211e-02 -0.997 -7.0333 -58.9253)">
	<stop  offset="0" style="stop-color:#F7B497"/>
	<stop  offset="1" style="stop-color:#F79B7D"/>
</linearGradient>
<path class="st8" d="M327.8,116.6l6.6-14.4l36.3-34.7l37.9,16c7.8,12.9,9.6,36.9,6.1,51.4l0,0c-1,3.6-2.9,6.9-5.5,9.6
	c-15.2,16.5-43.9,15-58.2-2.6c-5.3-6.6-6.8-8.3-9.1-15.1C341.4,125.5,328.1,117.9,327.8,116.6z"/>
<linearGradient id="SVGID_8_" gradientUnits="userSpaceOnUse" x1="364.7263" y1="226.8845" x2="392.6317" y2="319.3795">
	<stop  offset="0" style="stop-color:#6A0007"/>
	<stop  offset="1" style="stop-color:#3A0007"/>
</linearGradient>
<path class="st9" d="M361.7,169.5c-8.9,9.2-13.9,21.5-13.9,34.3v11.6c0,5-0.6,10.1-1.8,15L320,286l25.5,6.4c13.4,3,49.3-2,62.5-5.6
	l7.5-2c0,0-3.4-5-1.8-18.7c2.1-18.2,4.6-39.1,4.6-47c0-20.2,1.7-22-8.2-41.9c-2.2-4.4-18.7-12.1-23.4-13.3l-6.7-0.7
	c-6.5-1.1-13.1,1.1-17.7,5.8L361.7,169.5z"/>
<linearGradient id="SVGID_9_" gradientUnits="userSpaceOnUse" x1="521.3381" y1="-175.5358" x2="361.9745" y2="-169.4387" gradientTransform="matrix(1 0 0 -1 0 -14.1421)">
	<stop  offset="0" style="stop-color:#272610"/>
	<stop  offset="1" style="stop-color:#642E10"/>
</linearGradient>
<path class="st10" d="M413.1,89.2l-2.5-5.6c-4.4-9.6-12.3-17.2-22-21.3l0,0c-5.6-2.4-11.6-3.7-17.7-3.7h-2.6c-6.7,0-13.3,1-19.7,2.9
	l0,0c-6.6,1.9-12.2,6.2-15.9,12l-0.1,0.2c-8.8,14.1-12.3,25.9-7.9,47.3l0,0c1.2,5.3,21,130.6,21,130.6s9.6-34,15.4-62.3l51.2-66.8
	c3.4-4.4,5.1-10,4.3-15.6c0,0,0-0.1,0-0.1l-1.3-9.6C415,94.4,414.2,91.7,413.1,89.2z"/>
<g>
	<path class="st11" d="M331.3,157.4c0-6.2,6.2-10.9,14.5-10.9c8.2,0,14.5,4.7,14.5,10.9S331.3,163.6,331.3,157.4z M345.8,151.9
		c-6.4,0-10.6,3.3-10.6,5.5c0,2.2,4.2,5.5,10.6,5.5c6.4,0,10.6-3.3,10.6-5.5C356.4,155.2,352.2,151.9,345.8,151.9z"/>
</g>
<g>
	
		<linearGradient id="SVGID_10_" gradientUnits="userSpaceOnUse" x1="966.3868" y1="186.3622" x2="1037.8413" y2="224.8807" gradientTransform="matrix(-0.2753 0.6865 -0.7399 -0.2967 922.732 -361.0581)">
		<stop  offset="0" style="stop-color:#F7B497"/>
		<stop  offset="1" style="stop-color:#F79B7D"/>
	</linearGradient>
	<path class="st12" d="M424.7,306l5.7,9.2c0.3,0.4,0.5,0.9,0.7,1.4c0.6,1.2,1.3,2.3,2.2,3.3l1.5,1.7c1.1,1.2,0.3,2.9-1.4,2.8h0
		l1.5,6.3c0.4,1.9-0.4,3.7-2.1,4.7l0,0c-2.2,1.2-5.3,0.8-7.3-1l-4.4-3.9c-4.2-4.6-6-10.4-4.8-15.7l2.3-10.5L424.7,306z"/>
	<linearGradient id="SVGID_11_" gradientUnits="userSpaceOnUse" x1="403.0526" y1="225.7879" x2="348.4962" y2="138.3095">
		<stop  offset="0" style="stop-color:#6A0007"/>
		<stop  offset="1" style="stop-color:#3A0007"/>
	</linearGradient>
	<path class="st13" d="M391.1,168.2c3.8-3.8,14.5,4.2,18.8,7.4c3.8,2.8,6.7,6.9,8,11.7v0c2.2,6.2,3.7,12.6,4.3,19.1l3.5,38.3
		c0.8,8.3,1.4,14,3.9,24c0.1,0.5,0.2,0.7,0.2,1c0.1,0.8,0.2,1.7,0.1,2.5l-1.4,38c-0.1,2-1.2,3.8-2.9,4.9v0c-3.5,2.1-8,0.1-8.8-3.9
		l-8.7-43.6c-0.8-3.6-0.2-4.7-0.9-6.8l-15.8-50.3c-1-3.1-1.5-6.4-1.6-9.7C389.8,185,387.8,171.5,391.1,168.2z"/>
</g>
<path d="M283.4,451.4c-1.1,1-9.6,10.5-9.6,10.5l11.5,17.5c2.7,3,10,8.5,13.7,10.1l-5.8-19.6l1.1-11.2c0,0-6.3-8.2-7.7-8.1
	C283.3,450.7,285.1,449.8,283.4,451.4z"/>
<path class="st11" d="M381.8,159.7h-56.4c-4.2,0-8,1.6-11,4.2h45.3c9.1,0,16.5,7.4,16.5,16.5v111.5c0,4.3-6.7,9.2-9.3,12.2l11.7,1
	c9.9,1.3,19.7-7.4,19.7-17.4V176.3C398.3,167.1,390.9,159.7,381.8,159.7z"/>
<path class="st14" d="M378.3,178.7c0-9.4-7.6-17-17-17l-42.1,0c-3.6,0-7,2-8.6,5.3c-1.1,2.2-1.7,4.7-1.7,7.4v107.1
	c0,8.5,6.3,15.7,14.8,16.9l42.4,5.6c6.3,0.8,12.1-4,12.2-10.3c0,0,0-0.1,0-0.1V178.7z"/>
<ellipse class="st15" cx="342.2" cy="487.8" rx="108.9" ry="17.4"/>
</svg>
