<?xml version="1.0" encoding="utf-8"?>
<!-- Generator: Adobe Illustrator 23.0.1, SVG Export Plug-In . SVG Version: 6.00 Build 0)  -->
<svg version="1.1" id="Layer_1" xmlns="http://www.w3.org/2000/svg" xmlns:xlink="http://www.w3.org/1999/xlink" x="0px" y="0px"
	 viewBox="0 0 849.8 553" style="enable-background:new 0 0 849.8 553;" xml:space="preserve">
<style type="text/css">
	.st0{fill:url(#SVGID_1_);}
	.st1{fill:url(#SVGID_2_);}
	.st2{fill:url(#SVGID_3_);}
	.st3{fill:#AAAAB0;}
	.st4{fill:url(#SVGID_4_);}
	.st5{fill:url(#SVGID_5_);}
	.st6{fill:url(#SVGID_6_);}
	.st7{fill:url(#SVGID_7_);}
	.st8{fill:url(#SVGID_8_);}
	.st9{fill:url(#SVGID_9_);}
	.st10{fill:url(#SVGID_10_);}
	.st11{fill:url(#SVGID_11_);}
	.st12{fill:url(#SVGID_12_);}
	.st13{fill:#F7B497;}
	.st14{fill:url(#SVGID_13_);}
	.st15{fill:url(#SVGID_14_);}
</style>
<title>trangy</title>
<linearGradient id="SVGID_1_" gradientUnits="userSpaceOnUse" x1="425.626" y1="348.0831" x2="450.416" y2="379.8631" gradientTransform="matrix(-1 0 0 -1 849.7514 554)">
	<stop  offset="0" style="stop-color:#F7B497"/>
	<stop  offset="1" style="stop-color:#F79B7D"/>
</linearGradient>
<polygon class="st0" points="421.6,217.8 390.6,217.8 390.6,147.8 421.6,147.8 421.6,174.8 "/>
<linearGradient id="SVGID_2_" gradientUnits="userSpaceOnUse" x1="590.2433" y1="322.1772" x2="457.9033" y2="382.8972" gradientTransform="matrix(-1 0 0 -1 849.7514 554)">
	<stop  offset="0" style="stop-color:#6A0007"/>
	<stop  offset="1" style="stop-color:#3A0007"/>
</linearGradient>
<path class="st1" d="M225.1,201l54.5,24.1c12.8,4.8,26.1,7.9,39.7,9.3L373,240l6.5-28.6l-74.5-1.2l-80-22.9V201z"/>
<linearGradient id="SVGID_3_" gradientUnits="userSpaceOnUse" x1="392.31" y1="309.005" x2="814.2" y2="309.005" gradientTransform="matrix(-1 0 0 -1 849.7514 554)">
	<stop  offset="0" style="stop-color:#E998B1"/>
	<stop  offset="1" style="stop-color:#8B3D7A"/>
</linearGradient>
<path class="st2" d="M2.6,2.4c0,0,27.3,124.2,116.8,230.2c33.2,39.3,73.5,73.7,115,102c60.3,41,127.4,71,198.1,88.5l258,64.4
	c0,0-237.7-80.5-419.3-196.1c-81.4-51.9-150.3-121.2-201.6-203l-31-49.4L22.5,28.2L2.6,2.4z"/>
<ellipse class="st3" cx="374.6" cy="542.5" rx="176" ry="10.5"/>
<path d="M386.9,509.2l-11.9,6.4l-1.4,9.6l-12.7,16.5c4-0.1,12.9-2.5,16.5-4.4l17.2-12.3l-5-13.8L386.9,509.2z"/>
<path d="M418.6,520.3l-12,6.4l-28,14.5l4.7,1.2c4.1,1,8.5,1.1,12.7,0.3l25.6-5.1v-13.6L418.6,520.3z"/>
<g>
	
		<linearGradient id="SVGID_4_" gradientUnits="userSpaceOnUse" x1="750.5017" y1="486.7266" x2="842.6832" y2="486.7266" gradientTransform="matrix(-0.9673 0.2536 -0.2536 -0.9673 951.555 304.4119)">
		<stop  offset="0" style="stop-color:#723F10"/>
		<stop  offset="3.000000e-02" style="stop-color:#000000"/>
		<stop  offset="1" style="stop-color:#642E10"/>
	</linearGradient>
	<path class="st4" d="M107.2,72.2l-23.1-4.8L53,52c-6.5-3.2-12.6-7.1-18.3-11.6l-6.9-5.5C17.7,26.9,9.4,17,3.3,5.6L0.8,0.8l0,0
		c11.8,5.2,24.7,7.6,37.6,6.8l0,0C49,7,59.6,10.1,68.1,16.5l7.8,6c7.3,5.6,13.9,12.1,19.5,19.3l17.8,24.5L107.2,72.2z"/>
	
		<linearGradient id="SVGID_5_" gradientUnits="userSpaceOnUse" x1="578.4446" y1="338.2463" x2="773.1746" y2="338.2463" gradientTransform="matrix(-0.89 0.21 -0.27 -0.96 892.0014 339.27)">
		<stop  offset="0" style="stop-color:#000000"/>
		<stop  offset="1" style="stop-color:#5A4560"/>
	</linearGradient>
	<path class="st5" d="M244.7,155.4c4.9,4.5,9.4,9.3,13.5,14.6l63,81.3c2,2.7-0.9,5.8-3.8,4.1c-20.5-11.7-62-35.5-94.5-54.2
		c-16.6-9.6-31.7-21.4-44.9-35.3L83.9,67.2l18.4-15.7l106.9,73.8C214.9,130.2,233,144.9,244.7,155.4z"/>
</g>
<linearGradient id="SVGID_6_" gradientUnits="userSpaceOnUse" x1="461.0048" y1="268.7986" x2="449.7248" y2="66.3986" gradientTransform="matrix(-1 0 0 -1 849.7514 554)">
	<stop  offset="0" style="stop-color:#022893"/>
	<stop  offset="1" style="stop-color:#0060AA"/>
</linearGradient>
<path class="st6" d="M337.1,420.9c-0.1,3.7,0.4,6.3,2.3,10.6c2.6,5.9,6,12.6,8.1,16.7l12.3,26.8c2.5,5,4.6,10.2,6.2,15.5l7.9,26.4
	l17.5-3.5c0,0-8-44.4-8-53.3c0-12.1-9.2-30.4-13.1-37.5c-1-1.8-1-4-0.1-5.9l23.3-45.5l7.5,64.2l5,91.7l15.5,0.5l7.7-49.5
	c1.9-10.3,2-20.8,0.4-31.1l-0.4-2.5c-0.8-5.5-0.4-11.1,1.4-16.3l3.8-11.8c6.1-18.3,11.6-37.1,14.5-56.2c1.2-7.3,1.8-14.7,1.8-22.2
	c0-14-4.9-21.4-7.6-25.7c-1.7-2.6-2.8-9-5.4-10.9L410,290.9l-15.8,23.9l-24.9-23.4l-11.6,34.6c-1.3,3.9-2.4,7.9-3.2,11.9l-17.1,80.2
	C337.3,419.1,337.2,420,337.1,420.9z"/>
<linearGradient id="SVGID_7_" gradientUnits="userSpaceOnUse" x1="826.9186" y1="478.489" x2="866.7611" y2="478.489" gradientTransform="matrix(-0.9727 0.2319 -0.2319 -0.9727 960.7637 292.373)">
	<stop  offset="0" style="stop-color:#E998B1"/>
	<stop  offset="1" style="stop-color:#8B3D7A"/>
</linearGradient>
<path class="st7" d="M45,47.8L26.1,34.6C16.2,26.4,8.2,16.3,2.4,4.8L0,0l0,0c11.7,5.5,24.5,8.1,37.4,7.6l0,0
	C48.2,7.2,50.5,52.4,45,47.8z"/>
<linearGradient id="SVGID_8_" gradientUnits="userSpaceOnUse" x1="448.2687" y1="413.5059" x2="549.3387" y2="382.8759" gradientTransform="matrix(-1 0 0 -1 849.7514 554)">
	<stop  offset="0" style="stop-color:#F7B497"/>
	<stop  offset="1" style="stop-color:#F79B7D"/>
</linearGradient>
<path class="st8" d="M432.9,158.3c-3,6.9-4.6,8.6-10.7,15c-16.3,17.2-46.3,16.5-60.9-1.9c-2.5-3-4.2-6.6-5-10.4l0,0
	c-2.5-15.4,1.3-40.3,10.5-53.1l40.8-13.6l35,39.1l5.8,15.5C448,150.1,433.5,156.9,432.9,158.3z"/>
<linearGradient id="SVGID_9_" gradientUnits="userSpaceOnUse" x1="603.0699" y1="361.9487" x2="436.0499" y2="368.3387" gradientTransform="matrix(-1 0 0 -1 849.7514 554)">
	<stop  offset="0" style="stop-color:#272610"/>
	<stop  offset="1" style="stop-color:#642E10"/>
</linearGradient>
<path class="st9" d="M358.4,124.8l-2.2,15.6c0,0,16.5-4.4,28.5-15.3l20.4-17.9l5.5,14.9c2.4,6.5,6.7,12.1,12.2,16.3l0,0
	c2.8,2.1,4.9,5,6.1,8.4l2.3,6.8l0,0c0.1,5.3-1.8,10.5-5.4,14.5l-7.7,8.7l-8.9,82.2l22,27.3l0,0c10.8-7.9,18.5-19.3,21.7-32.3
	l1.8-7.5c0.3-1.3,0.6-2.7,0.8-4.1l1.7-12.9c1.4-10.6,0.7-21.3-2-31.6l-0.7-2.6c-2.2-8.3-3.3-16.9-3.3-25.5v-3c0-5.7,0.7-11.4,2-17
	l0,0c3.9-16.9,0.9-34.7-8.2-49.5l-0.1-0.2c-3.8-6.1-9.7-10.6-16.6-12.6l0,0c-6.7-2-13.6-3-20.6-3h-2.7c-6.4,0-12.7,1.3-18.5,3.8l0,0
	c-10.2,4.3-18.4,12.2-23,22.2l-2.6,5.8C359.6,119.2,358.8,122,358.4,124.8z"/>
<linearGradient id="SVGID_10_" gradientUnits="userSpaceOnUse" x1="603.67" y1="400.9686" x2="651.1979" y2="400.9686" gradientTransform="matrix(-1 0 0 -1 849.7514 554)">
	<stop  offset="0" style="stop-color:#F7B497"/>
	<stop  offset="1" style="stop-color:#F79B7D"/>
</linearGradient>
<path class="st10" d="M244.9,174.6l-19-2.9c-9.7-1.5-18.1-7.8-23-17.3l-3.6-9.3c-1.7-4.3-0.4-9.1,3.2-12l0,0
	c2.7-2.1,6.4-2.2,9.3-0.3l9.5,6.2l0,0c0.2-0.9,0.8-1.6,1.7-2c1.5-0.7,3.3,0,4,1.5l1.8,3.4c1.1,2,2.4,3.9,4,5.5
	c0.6,0.6,1.2,1.3,1.8,2l11.6,14.6L244.9,174.6z"/>
<linearGradient id="SVGID_11_" gradientUnits="userSpaceOnUse" x1="454.9673" y1="280.9692" x2="469.1373" y2="409.7392" gradientTransform="matrix(-1 0 0 -1 849.7514 554)">
	<stop  offset="0" style="stop-color:#6A0007"/>
	<stop  offset="1" style="stop-color:#3A0007"/>
</linearGradient>
<path class="st11" d="M366.1,201.9L366.1,201.9c-13.6,28.2-21,27-21,50.3c0,8.4,12.6,30.2,14.9,49.2c1.7,14.3-1.8,19.6-1.8,19.6
	l7.9,2.1c13.8,3.7,28.4,4,42.4,0.9l38.7-6.7l-16.1-53.1c-1.2-5.1-1.9-10.4-1.9-15.7v-33L366.1,201.9z"/>
<linearGradient id="SVGID_12_" gradientUnits="userSpaceOnUse" x1="415.5884" y1="357.4138" x2="614" y2="357.4138" gradientTransform="matrix(-1 0 0 -1 849.7514 554)">
	<stop  offset="0" style="stop-color:#6A0007"/>
	<stop  offset="1" style="stop-color:#6A0007"/>
</linearGradient>
<path class="st12" d="M395.1,232.7c-3.9,0.1-7.8-0.4-11.6-1.3l-73-18.7c-3.2-0.8-6.4-1.9-9.4-3.2l-65.3-35.7l7.8-13.3l52.6,20.3
	c11.7,4.1,23.8,6.4,36.2,7.1l54.3,2.8c9.2,0.5,18.4,2.1,27.2,4.8l0,0c6.6,1.4,12.6,4.9,17,10c4.7,5.4,4.4,13.6-0.9,18.5
	C425.4,228.5,417.9,232.1,395.1,232.7z"/>
<path class="st13" d="M435.6,140.5c5.5,0,10,4.9,10,10.9s-7.5,12.7-13,12.7s-7-6.7-7-12.7C425.6,145.4,430.1,140.5,435.6,140.5z"/>
<linearGradient id="SVGID_13_" gradientUnits="userSpaceOnUse" x1="135.5811" y1="-131.3837" x2="254.4411" y2="-70.0737" gradientTransform="matrix(-0.9 0.41 -0.3 -0.66 868.4114 294.31)">
	<stop  offset="0" style="stop-color:#E998B1"/>
	<stop  offset="1" style="stop-color:#8B3D7A"/>
</linearGradient>
<path class="st14" d="M689.1,452.9c19.6-3.8,51.2-14.2,75.9-24.9c15.3-6.6,25.7-10.9,25.7-10.9c12.1-5.5,23.8-0.7,21.6,8.9l0,0
	c-1.1,4.9-5.7,9.7-11.8,12.5l-0.4,0.2c-8.2,3.7-42.9,20-80.7,23.1c-47,3.8-67.1-4.8-67.1-4.8C664.6,456.6,676.9,455.2,689.1,452.9z"
	/>
<linearGradient id="SVGID_14_" gradientUnits="userSpaceOnUse" x1="115.0202" y1="37.28" x2="288.3902" y2="51.33" gradientTransform="matrix(-0.87 0.5 -0.5 -0.87 939.4814 302.62)">
	<stop  offset="0" style="stop-color:#E998B1"/>
	<stop  offset="1" style="stop-color:#8B3D7A"/>
</linearGradient>
<path class="st15" d="M739.4,404.8c27.7-21.9,50.3-49.6,66.1-81.2c3.3-6.6,14.8-40.6,14.8-40.6c2.6-7.7,10.5-12.4,18.5-11l0,0
	c6.7,1.1,11.4,7.2,10.9,14l-0.7,8.3c-0.7,6.3-2.1,12.4-4.2,18.3c-12.2,36.5-36.4,60.1-71.8,85.3c-29.9,21.2-66.3,30-66.3,30
	S718.7,421.2,739.4,404.8z"/>
</svg>
