<svg id="Layer_1" data-name="Layer 1" xmlns="http://www.w3.org/2000/svg" xmlns:xlink="http://www.w3.org/1999/xlink" viewBox="0 0 849.75 553">
  <defs>
    <style>
      .cls-1 {
        fill: url(#linear-gradient);
      }

      .cls-2 {
        fill: url(#linear-gradient-2);
      }

      .cls-3 {
        fill: url(#linear-gradient-3);
      }

      .cls-4 {
        fill: #aaaab0;
      }

      .cls-5 {
        fill: url(#linear-gradient-4);
      }

      .cls-6 {
        fill: url(#linear-gradient-5);
      }

      .cls-7 {
        fill: url(#linear-gradient-6);
      }

      .cls-8 {
        fill: url(#linear-gradient-7);
      }

      .cls-9 {
        fill: url(#linear-gradient-8);
      }

      .cls-10 {
        fill: url(#linear-gradient-9);
      }

      .cls-11 {
        fill: url(#linear-gradient-10);
      }

      .cls-12 {
        fill: url(#linear-gradient-11);
      }

      .cls-13 {
        fill: url(#linear-gradient-12);
      }

      .cls-14 {
        fill: #f7b497;
      }

      .cls-15 {
        fill: url(#linear-gradient-13);
      }

      .cls-16 {
        fill: url(#linear-gradient-14);
      }
    </style>
    <linearGradient id="linear-gradient" x1="425.63" y1="205.92" x2="450.42" y2="174.14" gradientUnits="userSpaceOnUse">
      <stop offset="0" stop-color="#f7b497"/>
      <stop offset="1" stop-color="#f79b7d"/>
    </linearGradient>
    <linearGradient id="linear-gradient-2" x1="590.24" y1="231.83" x2="457.9" y2="171.11" gradientUnits="userSpaceOnUse">
      <stop offset="0" stop-color="#6a0007"/>
      <stop offset="1" stop-color="#3a0007"/>
    </linearGradient>
    <linearGradient id="linear-gradient-3" x1="392.31" y1="245.02" x2="814.2" y2="245.02" gradientUnits="userSpaceOnUse">
      <stop offset="0" stop-color="#e998b1"/>
      <stop offset="1" stop-color="#8b3d7a"/>
    </linearGradient>
    <linearGradient id="linear-gradient-4" x1="726.19" y1="92.52" x2="818.37" y2="92.52" gradientTransform="translate(68.63 -249.79) rotate(14.69)" gradientUnits="userSpaceOnUse">
      <stop offset="0" stop-color="#723f10"/>
      <stop offset="0.03"/>
      <stop offset="1" stop-color="#642e10"/>
    </linearGradient>
    <linearGradient id="linear-gradient-5" x1="542.12" y1="239.16" x2="736.85" y2="239.16" gradientTransform="matrix(0.89, 0.21, -0.27, 0.96, 145.68, -206.35)" gradientUnits="userSpaceOnUse">
      <stop offset="0"/>
      <stop offset="1" stop-color="#5a4560"/>
    </linearGradient>
    <linearGradient id="linear-gradient-6" x1="460.98" y1="285.2" x2="449.7" y2="487.6" gradientUnits="userSpaceOnUse">
      <stop offset="0" stop-color="#022893"/>
      <stop offset="1" stop-color="#0060aa"/>
    </linearGradient>
    <linearGradient id="linear-gradient-7" x1="804.44" y1="98.4" x2="844.28" y2="98.4" gradientTransform="translate(44.63 -263.55) rotate(13.41)" xlink:href="#linear-gradient-3"/>
    <linearGradient id="linear-gradient-8" x1="448.27" y1="140.49" x2="549.34" y2="171.12" xlink:href="#linear-gradient"/>
    <linearGradient id="linear-gradient-9" x1="603.07" y1="192.05" x2="436.05" y2="185.66" gradientUnits="userSpaceOnUse">
      <stop offset="0" stop-color="#272610"/>
      <stop offset="1" stop-color="#642e10"/>
    </linearGradient>
    <linearGradient id="linear-gradient-10" x1="603.67" y1="153.04" x2="651.17" y2="153.04" xlink:href="#linear-gradient"/>
    <linearGradient id="linear-gradient-11" x1="454.96" y1="273.03" x2="469.13" y2="144.26" xlink:href="#linear-gradient-2"/>
    <linearGradient id="linear-gradient-12" x1="415.59" y1="196.57" x2="614.02" y2="196.57" gradientUnits="userSpaceOnUse">
      <stop offset="0" stop-color="#6a0007"/>
      <stop offset="1" stop-color="#6a0007"/>
    </linearGradient>
    <linearGradient id="linear-gradient-13" x1="99.36" y1="710.57" x2="218.22" y2="649.26" gradientTransform="matrix(0.9, 0.41, -0.3, 0.66, 188.24, -70.21)" xlink:href="#linear-gradient-3"/>
    <linearGradient id="linear-gradient-14" x1="73.76" y1="576.2" x2="247.13" y2="562.15" gradientTransform="matrix(0.87, 0.5, -0.5, 0.87, 251.95, -208.45)" xlink:href="#linear-gradient-3"/>
  </defs>
  <title>trangy</title>
  <polygon class="cls-1" points="428.17 174.84 428.17 147.81 459.17 147.81 459.17 217.76 428.17 217.76 428.17 174.84"/>
  <path class="cls-2" d="M624.67,187.33l-80,22.92-74.46,1.16,6.5,28.61,53.74-5.62a160.58,160.58,0,0,0,39.67-9.33L624.67,201Z"/>
  <path class="cls-3" d="M827.28,28.17,811.12,39.06l-31,49.42a650.56,650.56,0,0,1-201.61,203c-181.61,115.53-419.3,196.07-419.3,196.07l258-64.39a615.19,615.19,0,0,0,198.14-88.47c41.47-28.32,81.85-62.69,115-102,89.45-106,116.8-230.25,116.8-230.25Z"/>
  <ellipse class="cls-4" cx="475.17" cy="542.55" rx="176" ry="10.45"/>
  <path d="M460.23,511.24l-5,13.79,17.22,12.35c3.61,1.85,12.42,4.25,16.46,4.39L476.2,525.24l-1.39-9.64-11.94-6.35Z"/>
  <path d="M428.17,523.93v13.62l25.63,5.1a29.08,29.08,0,0,0,12.66-.3l4.71-1.16-28-14.54-12-6.36Z"/>
  <g>
    <path class="cls-5" d="M736.48,66.31l17.85-24.5a106.67,106.67,0,0,1,19.49-19.3l7.85-6a44.66,44.66,0,0,1,29.66-8.86h0A80.72,80.72,0,0,0,848.94.84h0l-2.52,4.8A92.82,92.82,0,0,1,822,34.89l-6.92,5.51A102.27,102.27,0,0,1,796.78,52L765.64,67.4l-23.11,4.83Z"/>
    <path class="cls-6" d="M640.6,125.28,747.5,51.51l18.37,15.67L671.78,166a200,200,0,0,1-44.88,35.28c-32.46,18.74-74,42.49-94.49,54.21-2.95,1.68-5.89-1.48-3.84-4.13l63-81.34a114.17,114.17,0,0,1,13.52-14.59C616.76,144.87,634.83,130.16,640.6,125.28Z"/>
  </g>
  <path class="cls-7" d="M512.28,418.19,495.21,338A109.9,109.9,0,0,0,492,326.07l-11.58-34.6-24.9,23.37-15.8-23.94-27.88,10.47c-2.54,1.92-3.69,8.26-5.36,10.89-2.75,4.35-7.6,11.74-7.6,25.74a136.19,136.19,0,0,0,1.83,22.18c2.86,19.09,8.4,37.9,14.45,56.23L419,428.24a35,35,0,0,1,1.39,16.31L420,447a94.47,94.47,0,0,0,.44,31.07l7.7,49.45,15.5-.45,5-91.67,7.51-64.25,23.29,45.5a6.32,6.32,0,0,1-.07,5.9c-3.81,7.05-13.06,25.4-13.06,37.48,0,8.93-8,53.31-8,53.31l17.45,3.54,7.94-26.36A95.72,95.72,0,0,1,489.93,475l12.3-26.76c2.07-4.1,5.46-10.83,8.07-16.69,1.9-4.28,2.42-6.89,2.31-10.61A14.86,14.86,0,0,0,512.28,418.19Z"/>
  <path class="cls-8" d="M812.31,7.57h0A80.5,80.5,0,0,0,849.75,0h0l-2.41,4.85a92.39,92.39,0,0,1-23.69,29.74L804.71,47.81C799.21,52.39,801.52,7.16,812.31,7.57Z"/>
  <path class="cls-9" d="M401.4,148.78l5.77-15.5,35-39.07,40.77,13.64c9.22,12.82,13,37.67,10.48,53.09h0a23.12,23.12,0,0,1-5,10.44c-14.54,18.47-44.57,19.15-60.86,1.94-6.1-6.44-7.74-8.15-10.72-15C416.26,156.94,401.77,150.13,401.4,148.78Z"/>
  <path class="cls-10" d="M489,116.56l-2.6-5.83a44.25,44.25,0,0,0-23-22.23h0a46.33,46.33,0,0,0-18.5-3.83h-2.72a70.92,70.92,0,0,0-20.56,3h0A29.29,29.29,0,0,0,405,100.23l-.1.17a65.87,65.87,0,0,0-8.22,49.46h0a74.85,74.85,0,0,1,1.95,17v3a101.92,101.92,0,0,1-3.26,25.51l-.69,2.65a83.32,83.32,0,0,0-2,31.63l1.66,12.86a40.62,40.62,0,0,0,.75,4.08l1.81,7.5a57.27,57.27,0,0,0,21.71,32.27h0l22-27.26-8.85-82.22-7.73-8.69a20.89,20.89,0,0,1-5.42-14.47h0l2.3-6.81a17.81,17.81,0,0,1,6.09-8.38h0a36.6,36.6,0,0,0,12.17-16.33l5.47-14.91,20.42,17.88c12,10.89,28.47,15.26,28.47,15.26l-2.18-15.59A31,31,0,0,0,489,116.56Z"/>
  <path class="cls-11" d="M603.67,164.05l11.59-14.64c.56-.71,1.17-1.37,1.79-2a25.36,25.36,0,0,0,4-5.53l1.84-3.41a3,3,0,0,1,5.64.51h0l9.46-6.17a8,8,0,0,1,9.29.31h0a10.47,10.47,0,0,1,3.19,12l-3.59,9.28c-4.86,9.41-13.34,15.78-23,17.26l-19,2.93Z"/>
  <path class="cls-12" d="M420.67,215.49v33a66.71,66.71,0,0,1-1.86,15.65l-16.14,53.13,38.68,6.69a88,88,0,0,0,42.38-.87l7.87-2.13s-3.52-5.25-1.83-19.57c2.24-19,14.86-40.83,14.86-49.19,0-23.27-7.41-22.1-21-50.3h0Z"/>
  <path class="cls-13" d="M419.77,224a13.38,13.38,0,0,1-.86-18.54,31.15,31.15,0,0,1,17-10h0a114.46,114.46,0,0,1,27.25-4.75l54.34-2.84a130,130,0,0,0,36.16-7.08l52.57-20.33L614,173.75l-65.28,35.7a65.4,65.4,0,0,1-9.43,3.2l-73,18.73a43,43,0,0,1-11.65,1.32C431.86,232.15,424.39,228.51,419.77,224Z"/>
  <path class="cls-14" d="M424.17,151.45c0,6-1.48,12.71-7,12.71s-13-6.69-13-12.71,4.48-10.91,10-10.91S424.17,145.42,424.17,151.45Z"/>
  <path class="cls-15" d="M197.49,457.06s-20.17,8.62-67.14,4.79c-37.79-3.09-72.47-19.41-80.67-23.13l-.4-.18c-6.15-2.8-10.74-7.65-11.84-12.53h0c-2.17-9.59,9.5-14.42,21.59-8.93,0,0,10.41,4.31,25.74,10.93,24.75,10.7,56.29,21.07,75.93,24.87A245.78,245.78,0,0,0,197.49,457.06Z"/>
  <path class="cls-16" d="M143,427.87s-36.46-8.8-66.32-30C41.3,372.7,17.07,349.12,4.91,312.61A81.72,81.72,0,0,1,.73,294.26L.05,286a13.06,13.06,0,0,1,10.86-14h0a16.52,16.52,0,0,1,18.54,11s11.49,34,14.77,40.59a240,240,0,0,0,66.11,81.16C131.07,421.23,143,427.87,143,427.87Z"/>
</svg>
