<?xml version="1.0" encoding="utf-8"?>
<!-- Generator: Adobe Illustrator 22.1.0, SVG Export Plug-In . SVG Version: 6.00 Build 0)  -->
<svg version="1.1" xmlns="http://www.w3.org/2000/svg" xmlns:xlink="http://www.w3.org/1999/xlink" x="0px" y="0px"
	 viewBox="0 0 172.016 259.549" enable-background="new 0 0 172.016 259.549" xml:space="preserve">
<g id="Rectangle_1_1_" enable-background="new    ">
</g>
<g id="Group_1_1_">
	<g id="Rectangle_5" display="none">
		<g display="inline">
			<polygon fill="#242424" points="168.31,256.01 167.419,257.494 171.125,259.549 172.016,258.065 			"/>
		</g>
	</g>
	<path fill="#424242" d="M152.657,223.692H19.359c-6.58,0-11.914-5.334-11.914-11.914V32.565c0-6.58,5.334-11.914,11.914-11.914
		h133.299c6.58,0,11.914,5.334,11.914,11.914v179.213C164.571,218.358,159.237,223.692,152.657,223.692z"/>
	<rect x="16.01" y="41.179" fill="#F7F7F7" width="139.996" height="161.985"/>
	<path fill="#1B1B1E" d="M104.272,171.575c-20.246,0-36.717-16.471-36.717-36.717S84.026,98.14,104.272,98.14
		s36.717,16.471,36.717,36.717S124.518,171.575,104.272,171.575z M104.272,102.161c-18.029,0-32.696,14.667-32.696,32.696
		s14.667,32.696,32.696,32.696s32.696-14.667,32.696-32.696S122.301,102.161,104.272,102.161z"/>
	<circle fill="#7272C4" cx="104.272" cy="134.857" r="11.453"/>
	<path fill="#1B1B1E" d="M104.272,156.288c-11.817,0-21.431-9.614-21.431-21.431s9.614-21.431,21.431-21.431
		s21.431,9.614,21.431,21.431S116.089,156.288,104.272,156.288z M104.272,117.448c-9.6,0-17.41,7.81-17.41,17.41
		s7.81,17.41,17.41,17.41s17.41-7.81,17.41-17.41S113.872,117.448,104.272,117.448z"/>
	<g>
		<path fill="#EDABE6" d="M141.757,168.335c-3.443,0-6.235,2.792-6.235,6.235v-3c0-3.443-2.792-6.235-6.235-6.235
			c-3.443,0-6.235,2.792-6.235,6.235v-3c0-3.443-2.791-6.235-6.235-6.235s-6.235,2.792-6.235,6.235v-30
			c0-3.443-2.791-6.235-6.235-6.235s-6.235,2.792-6.235,6.235v46.267v4.443l-9.248-14.382c-1.862-2.896-5.72-3.734-8.616-1.872
			c-2.896,1.862-3.734,5.72-1.872,8.616l19.737,30.694l0,0l3,11.565h43.879l3-39.064V174.57
			C147.992,171.127,145.201,168.335,141.757,168.335z"/>
		<rect x="97.547" y="219.977" fill="#795482" width="50.446" height="22.604"/>
	</g>
	<rect x="32.177" y="51.335" fill="#47479E" width="45.208" height="35.845"/>
	<rect x="97.547" y="69.335" fill="#71BFD1" width="34.201" height="23.1"/>
	<circle fill="#EF5261" cx="42.506" cy="146.31" r="15.904"/>
</g>
</svg>
