<?xml version="1.0" encoding="utf-8"?>
<!-- Generator: Adobe Illustrator 22.1.0, SVG Export Plug-In . SVG Version: 6.00 Build 0)  -->
<svg version="1.1" xmlns="http://www.w3.org/2000/svg" xmlns:xlink="http://www.w3.org/1999/xlink" x="0px" y="0px"
	 viewBox="0 0 301.173 276.194" enable-background="new 0 0 301.173 276.194" xml:space="preserve">
<g id="Rectangle_1_1_" enable-background="new    ">
</g>
<g id="Group_1_1_">
	<g id="Rectangle_5" display="none">
		<g display="inline">
			<polygon fill="#242424" points="297.468,272.656 296.576,274.139 300.282,276.194 301.173,274.71 			"/>
		</g>
	</g>
	<g>
		<rect x="11.164" y="46.71" fill="#BBE8EF" width="236.401" height="182.773"/>
		<polygon fill="#419BA5" points="230.852,215.561 27.878,215.561 27.878,178.697 93.011,123.765 111.331,137.097 186.467,81.206 
			230.852,121.312 		"/>
		<circle fill="#419BA5" cx="51.908" cy="86.769" r="24.03"/>
	</g>
	<g>
		<rect x="262.225" y="81.17" fill="#EFD954" width="27.784" height="134.524"/>
		<path fill="#E85665" d="M290.009,210.026h-27.784v15.024c0,2.448,1.985,4.433,4.433,4.433h18.918c2.448,0,4.433-1.985,4.433-4.433
			V210.026z"/>
		<rect x="262.225" y="195.83" fill="#C9C9C9" width="27.784" height="15.226"/>
		<polygon fill="#E5DBC1" points="276.117,48.417 262.225,81.17 290.009,81.17 		"/>
		<polygon fill="#2B2B2B" points="280.131,57.882 276.117,48.417 272.102,57.882 		"/>
		<path opacity="0.07" fill="#0F0F0F" d="M276.117,229.483h9.459c2.448,0,4.433-1.985,4.433-4.433l0,0V81.17l-13.892-32.753V229.483
			z"/>
	</g>
</g>
</svg>
