<?xml version="1.0" encoding="UTF-8"?>
<svg width="599px" height="257px" viewBox="0 0 599 257" version="1.1" xmlns="http://www.w3.org/2000/svg" xmlns:xlink="http://www.w3.org/1999/xlink">
    <!-- Generator: Sketch 43.2 (39069) - http://www.bohemiancoding.com/sketch -->
    <title>Page 1</title>
    <desc>Created with Sketch.</desc>
    <defs>
        <path d="M0.312,34.124 C0.312,15.332 15.563,0.099 34.376,0.099 C53.188,0.099 68.438,15.332 68.438,34.124 C68.438,52.915 53.188,68.15 34.376,68.15 C15.563,68.15 0.312,52.915 0.312,34.124 Z" id="path-1"></path>
        <linearGradient x1="49.9521807%" y1="58.0174223%" x2="49.9521807%" y2="158.017422%" id="linearGradient-3">
            <stop stop-color="#FED114" offset="0%"></stop>
            <stop stop-color="#FEFEFE" offset="100%"></stop>
        </linearGradient>
        <linearGradient x1="49.9989745%" y1="85.6291662%" x2="49.9989745%" y2="-50.4850716%" id="linearGradient-4">
            <stop stop-color="#FED114" offset="0%"></stop>
            <stop stop-color="#FEFEFE" offset="100%"></stop>
        </linearGradient>
        <path d="M24.249,14.504 C23.063,14.288 21.842,14.169 20.594,14.169 C9.409,14.169 0.34,23.227 0.34,34.4 C0.34,45.341 9.035,54.246 19.897,54.614 L19.897,54.632 L74.344,54.632 C74.641,54.648 74.94,54.658 75.241,54.658 C84.034,54.658 91.16,47.538 91.16,38.756 C91.16,29.974 84.034,22.853 75.241,22.853 L68.719,22.853 C68.358,10.393 58.139,0.399 45.576,0.399 C35.993,0.399 27.77,6.214 24.249,14.504 Z" id="path-5"></path>
        <path d="M7.539,0.812 L0.516,9.924 C0.266,10.249 0.327,10.72 0.653,10.97 L1.442,11.578 C1.768,11.827 2.239,11.766 2.491,11.441 L9.512,2.329 C9.763,2.003 9.702,1.533 9.375,1.282 L8.587,0.675 C8.452,0.571 8.292,0.521 8.132,0.521 C7.908,0.521 7.686,0.621 7.539,0.812 Z" id="path-7"></path>
        <path d="M8.002,0.812 L0.979,9.924 C0.729,10.249 0.791,10.72 1.115,10.97 L1.905,11.578 C2.231,11.827 2.701,11.766 2.953,11.441 L9.975,2.329 C10.226,2.003 10.164,1.533 9.838,1.282 L9.049,0.675 C8.914,0.571 8.755,0.521 8.595,0.521 C8.371,0.521 8.149,0.621 8.002,0.812 Z" id="path-9"></path>
        <path d="M7.465,0.812 L0.442,9.924 C0.192,10.249 0.252,10.72 0.579,10.97 L1.368,11.578 C1.693,11.827 2.164,11.766 2.416,11.441 L9.438,2.329 C9.688,2.003 9.627,1.533 9.302,1.282 L8.512,0.675 C8.377,0.571 8.217,0.521 8.058,0.521 C7.834,0.521 7.611,0.621 7.465,0.812 Z" id="path-11"></path>
        <path d="M7.928,0.812 L0.905,9.924 C0.655,10.249 0.715,10.72 1.042,10.97 L1.83,11.578 C2.157,11.827 2.628,11.766 2.879,11.441 L9.901,2.329 C10.151,2.003 10.091,1.533 9.764,1.282 L8.975,0.675 C8.839,0.571 8.679,0.521 8.521,0.521 C8.296,0.521 8.074,0.621 7.928,0.812 Z" id="path-13"></path>
        <path d="M7.391,0.812 L0.368,9.924 C0.118,10.249 0.179,10.72 0.504,10.97 L1.294,11.578 C1.619,11.827 2.09,11.766 2.342,11.441 L9.364,2.329 C9.615,2.003 9.553,1.533 9.227,1.282 L8.438,0.675 C8.303,0.571 8.143,0.521 7.984,0.521 C7.76,0.521 7.538,0.621 7.391,0.812 Z" id="path-15"></path>
        <path d="M0.773,0.512 L0.774,0.512 L0.774,0.498 C0.774,0.503 0.773,0.508 0.773,0.512 Z" id="path-17"></path>
        <path d="M0.404,42.724 C0.404,66.148 19.371,85.136 42.77,85.136 C55.883,85.136 67.603,79.172 75.375,69.808 C52.293,69.438 33.696,50.597 33.696,27.405 C33.696,17.108 37.362,7.669 43.457,0.323 C43.229,0.318 43.001,0.314 42.77,0.314 C19.371,0.314 0.404,19.302 0.404,42.724 Z" id="path-19"></path>
        <path d="M24.201,14.581 C23.02,14.365 21.804,14.247 20.56,14.247 C9.412,14.247 0.377,23.291 0.377,34.451 C0.377,45.375 9.042,54.269 19.866,54.636 L19.866,54.653 L74.121,54.653 C74.417,54.67 74.715,54.68 75.014,54.68 C83.776,54.68 90.879,47.569 90.879,38.798 C90.878,30.029 83.776,22.919 75.014,22.919 L68.514,22.919 C68.154,10.475 57.973,0.495 45.454,0.495 C35.905,0.495 27.71,6.303 24.201,14.581 Z" id="path-21"></path>
        <path d="M7.504,0.827 L0.506,9.927 C0.257,10.251 0.318,10.722 0.643,10.972 L1.429,11.579 C1.755,11.828 2.223,11.767 2.473,11.442 L9.471,2.342 C9.722,2.017 9.659,1.547 9.335,1.297 L8.548,0.69 C8.414,0.587 8.255,0.536 8.096,0.536 C7.872,0.536 7.651,0.637 7.504,0.827 Z" id="path-23"></path>
        <path d="M7.923,0.827 L0.927,9.927 C0.676,10.251 0.737,10.722 1.061,10.972 L1.848,11.579 C2.172,11.828 2.643,11.767 2.893,11.442 L9.891,2.342 C10.139,2.017 10.079,1.547 9.755,1.297 L8.967,0.69 C8.833,0.587 8.674,0.536 8.515,0.536 C8.291,0.536 8.07,0.637 7.923,0.827 Z" id="path-25"></path>
        <path d="M7.342,0.827 L0.344,9.927 C0.094,10.251 0.156,10.722 0.481,10.972 L1.267,11.579 C1.591,11.828 2.061,11.767 2.311,11.442 L9.309,2.342 C9.558,2.017 9.497,1.547 9.172,1.297 L8.386,0.69 C8.252,0.587 8.093,0.536 7.934,0.536 C7.71,0.536 7.489,0.637 7.342,0.827 Z" id="path-27"></path>
        <path d="M7.762,0.827 L0.764,9.927 C0.514,10.251 0.575,10.722 0.9,10.972 L1.686,11.579 C2.011,11.828 2.481,11.767 2.731,11.442 L9.728,2.342 C9.978,2.017 9.917,1.547 9.592,1.297 L8.805,0.69 C8.671,0.587 8.512,0.536 8.354,0.536 C8.13,0.536 7.909,0.637 7.762,0.827 Z" id="path-29"></path>
        <path d="M7.181,0.827 L0.184,9.927 C-0.065,10.251 -0.005,10.722 0.319,10.972 L1.106,11.579 C1.43,11.828 1.9,11.767 2.15,11.442 L9.147,2.342 C9.397,2.017 9.337,1.547 9.011,1.297 L8.225,0.69 C8.091,0.587 7.932,0.536 7.773,0.536 C7.549,0.536 7.328,0.637 7.181,0.827 Z" id="path-31"></path>
        <path d="M23.669,13.825 C22.514,13.615 21.325,13.498 20.108,13.498 C9.206,13.498 0.369,22.341 0.369,33.248 C0.369,43.927 8.842,52.621 19.429,52.98 L19.429,52.999 L72.491,52.999 C72.782,53.014 73.073,53.024 73.367,53.024 C81.935,53.024 88.882,46.073 88.882,37.5 C88.88,28.927 81.935,21.976 73.367,21.976 L67.009,21.976 C66.657,9.811 56.698,0.057 44.456,0.057 C35.116,0.057 27.102,5.733 23.669,13.825 Z" id="path-33"></path>
        <path d="M7.053,1.078 L0.21,9.973 C-0.034,10.291 0.026,10.75 0.342,10.994 L1.111,11.587 C1.429,11.832 1.889,11.771 2.133,11.454 L8.977,2.559 C9.221,2.241 9.162,1.782 8.844,1.537 L8.075,0.944 C7.943,0.843 7.788,0.794 7.633,0.794 C7.413,0.794 7.196,0.892 7.053,1.078 Z" id="path-35"></path>
        <path d="M7.2,1.078 L0.356,9.973 C0.112,10.291 0.172,10.75 0.488,10.994 L1.259,11.587 C1.576,11.832 2.035,11.771 2.28,11.454 L9.124,2.559 C9.368,2.241 9.307,1.782 8.991,1.537 L8.221,0.944 C8.09,0.843 7.933,0.794 7.778,0.794 C7.56,0.794 7.343,0.892 7.2,1.078 Z" id="path-37"></path>
        <path d="M7.346,1.078 L0.502,9.973 C0.258,10.291 0.317,10.75 0.636,10.994 L1.404,11.587 C1.721,11.832 2.18,11.771 2.426,11.454 L9.269,2.559 C9.513,2.241 9.454,1.782 9.136,1.537 L8.367,0.944 C8.235,0.843 8.079,0.794 7.924,0.794 C7.705,0.794 7.489,0.892 7.346,1.078 Z" id="path-39"></path>
        <path d="M7.493,1.078 L0.649,9.973 C0.404,10.291 0.463,10.75 0.782,10.994 L1.55,11.587 C1.868,11.832 2.327,11.771 2.571,11.454 L9.415,2.559 C9.66,2.241 9.6,1.782 9.282,1.537 L8.515,0.944 C8.383,0.843 8.227,0.794 8.071,0.794 C7.852,0.794 7.636,0.892 7.493,1.078 Z" id="path-41"></path>
        <path d="M7.64,1.078 L0.796,9.973 C0.549,10.291 0.611,10.75 0.928,10.994 L1.696,11.587 C2.015,11.832 2.474,11.771 2.718,11.454 L9.561,2.559 C9.806,2.241 9.747,1.782 9.429,1.537 L8.659,0.944 C8.528,0.843 8.372,0.794 8.217,0.794 C7.999,0.794 7.783,0.892 7.64,1.078 Z" id="path-43"></path>
        <path d="M23.669,13.735 C22.512,13.525 21.325,13.41 20.108,13.41 C9.206,13.41 0.368,22.194 0.368,33.031 C0.368,43.64 8.843,52.278 19.429,52.635 L19.429,52.651 L72.491,52.651 C72.782,52.668 73.073,52.677 73.366,52.677 C81.935,52.677 88.882,45.772 88.882,37.255 C88.88,28.737 81.935,21.833 73.366,21.833 L67.009,21.833 C66.657,9.748 56.698,0.057 44.456,0.057 C35.116,0.057 27.1,5.695 23.669,13.735 Z" id="path-45"></path>
        <path d="M5.296,4.015 L6.952,0.89 L8.608,4.015 L12.098,3.354 L10.675,6.59 L13.37,8.891 L9.938,9.802 L9.81,13.331 L6.952,11.23 L4.095,13.331 L3.966,9.802 L0.532,8.891 L3.23,6.59 L1.803,3.354 L5.296,4.015 Z M4.54,7.292 C4.54,8.617 5.62,9.689 6.952,9.689 C8.284,9.689 9.364,8.617 9.364,7.292 C9.364,5.969 8.284,4.896 6.952,4.896 C5.62,4.896 4.54,5.969 4.54,7.292 Z" id="path-47"></path>
        <path d="M7.211,5.385 L9.595,0.89 L11.98,5.385 L16.999,4.434 L14.951,9.089 L18.829,12.398 L13.89,13.709 L13.704,18.786 L9.595,15.763 L5.485,18.786 L5.302,13.709 L0.362,12.398 L4.239,9.089 L2.19,4.434 L7.211,5.385 Z M6.126,10.1 C6.126,12.003 7.679,13.548 9.595,13.548 C11.511,13.548 13.065,12.004 13.065,10.1 C13.065,8.195 11.511,6.652 9.595,6.652 C7.679,6.652 6.126,8.195 6.126,10.1 Z" id="path-49"></path>
        <path d="M5.64,4.015 L7.296,0.89 L8.952,4.015 L12.445,3.354 L11.021,6.59 L13.714,8.891 L10.282,9.802 L10.153,13.331 L7.296,11.23 L4.438,13.331 L4.311,9.802 L0.876,8.891 L3.573,6.59 L2.148,3.354 L5.64,4.015 Z M4.885,7.292 C4.885,8.617 5.964,9.689 7.296,9.689 C8.628,9.689 9.708,8.617 9.708,7.292 C9.708,5.969 8.628,4.896 7.296,4.896 C5.964,4.896 4.885,5.969 4.885,7.292 Z" id="path-51"></path>
        <path d="M0.063,34.125 C0.063,15.422 15.174,0.259 33.816,0.259 C52.458,0.259 67.569,15.422 67.569,34.125 C67.569,52.829 52.458,67.992 33.816,67.992 C15.174,67.992 0.063,52.829 0.063,34.125 Z" id="path-53"></path>
        <linearGradient x1="54.1015402%" y1="72.779201%" x2="54.1015402%" y2="172.779201%" id="linearGradient-55">
            <stop stop-color="#FED114" offset="0%"></stop>
            <stop stop-color="#FEFEFE" offset="100%"></stop>
        </linearGradient>
        <linearGradient x1="49.999081%" y1="85.6299262%" x2="49.999081%" y2="-50.4840803%" id="linearGradient-56">
            <stop stop-color="#FED114" offset="0%"></stop>
            <stop stop-color="#FEFEFE" offset="100%"></stop>
        </linearGradient>
        <path d="M0.358,0.127 L0.358,0.115 L0.358,0.127 Z" id="path-57"></path>
        <path d="M0.35,35.128 C0.35,16.064 15.752,0.61 34.752,0.61 C53.754,0.61 69.157,16.064 69.157,35.128 C69.157,54.192 53.754,69.646 34.752,69.646 C15.752,69.646 0.35,54.192 0.35,35.128 Z" id="path-59"></path>
        <linearGradient x1="64.1909027%" y1="72.8134915%" x2="64.1909027%" y2="172.813492%" id="linearGradient-61">
            <stop stop-color="#FED114" offset="0%"></stop>
            <stop stop-color="#FEFEFE" offset="100%"></stop>
        </linearGradient>
        <linearGradient x1="49.9982545%" y1="85.6296037%" x2="49.9982545%" y2="-50.4835836%" id="linearGradient-62">
            <stop stop-color="#FED114" offset="0%"></stop>
            <stop stop-color="#FEFEFE" offset="100%"></stop>
        </linearGradient>
        <path d="M24.522,15.303 C23.325,15.084 22.092,14.963 20.832,14.963 C9.534,14.963 0.375,24.152 0.375,35.487 C0.375,46.586 9.156,55.62 20.127,55.995 L20.127,56.012 L75.118,56.012 C75.418,56.029 75.721,56.038 76.025,56.038 C84.905,56.038 92.104,48.815 92.104,39.906 C92.104,30.996 84.905,23.774 76.024,23.774 L69.437,23.774 C69.073,11.132 58.752,0.994 46.063,0.994 C36.385,0.994 28.08,6.893 24.522,15.303 Z" id="path-63"></path>
        <path d="M0.159,39.617 C0.159,61.309 17.796,78.896 39.554,78.896 C51.745,78.896 62.643,73.373 69.87,64.7 C48.407,64.358 31.114,46.908 31.114,25.428 C31.114,15.891 34.524,7.148 40.193,0.345 C39.979,0.341 39.767,0.336 39.554,0.336 C17.796,0.336 0.159,17.923 0.159,39.617 Z" id="path-65"></path>
        <path d="M23.544,13.755 C22.394,13.545 21.212,13.43 20.001,13.43 C9.153,13.43 0.36,22.23 0.36,33.088 C0.36,43.718 8.792,52.37 19.325,52.728 L19.325,52.746 L72.122,52.746 C72.409,52.761 72.7,52.771 72.991,52.771 C81.518,52.771 88.429,45.852 88.429,37.32 C88.429,28.785 81.517,21.868 72.991,21.868 L66.667,21.868 C66.317,9.76 56.407,0.05 44.226,0.05 C34.933,0.05 26.959,5.7 23.544,13.755 Z" id="path-67"></path>
        <path d="M16.567,16.153 L11.962,16.153 C5.753,16.153 0.722,21.19 0.72,27.405 C0.72,33.618 5.753,38.656 11.962,38.656 C12.175,38.656 12.386,38.648 12.595,38.637 L51.042,38.637 L51.042,38.625 C58.711,38.365 64.852,32.064 64.852,24.322 C64.852,16.416 58.448,10.008 50.549,10.008 C49.669,10.008 48.808,10.092 47.97,10.244 C45.483,4.379 39.677,0.265 32.909,0.265 C24.038,0.265 16.823,7.335 16.567,16.153 Z" id="path-69"></path>
        <path d="M0.694,42.124 C0.694,65.191 19.62,83.891 42.965,83.891 C56.048,83.891 67.741,78.016 75.495,68.794 C52.466,68.431 33.91,49.876 33.91,27.036 C33.91,16.897 37.569,7.6 43.651,0.366 C43.423,0.363 43.194,0.357 42.965,0.357 C19.62,0.357 0.694,19.057 0.694,42.124 Z" id="path-71"></path>
        <path d="M0.318,10.442 C0.318,10.442 7.575,11.416 7.593,20.819 L7.593,20.853 C7.593,20.847 7.595,20.842 7.595,20.835 L7.595,20.853 L7.595,20.819 C7.616,11.416 14.87,10.442 14.87,10.442 L14.874,10.442 C14.874,10.442 7.595,9.467 7.595,0.031 C7.595,9.467 0.318,10.442 0.318,10.442 Z" id="path-73"></path>
        <path d="M0.938,15.025 C0.938,15.025 10.898,16.36 10.921,29.262 L10.921,29.308 C10.921,29.302 10.925,29.294 10.925,29.285 L10.925,29.308 L10.925,29.262 C10.952,16.361 20.908,15.025 20.908,15.025 L20.911,15.025 C20.911,15.025 10.925,13.686 10.925,0.741 C10.925,13.686 0.938,15.025 0.938,15.025 Z" id="path-75"></path>
        <path d="M24.096,13.925 C22.919,13.713 21.706,13.596 20.464,13.596 C9.343,13.596 0.328,22.503 0.328,33.492 C0.328,44.251 8.972,53.009 19.77,53.371 L19.77,53.388 L73.903,53.388 C74.199,53.406 74.497,53.415 74.796,53.415 C83.538,53.415 90.624,46.413 90.624,37.774 C90.622,29.138 83.536,22.137 74.793,22.137 L68.31,22.137 C67.952,9.882 57.792,0.053 45.301,0.053 C35.774,0.053 27.598,5.772 24.096,13.925 Z" id="path-77"></path>
    </defs>
    <g id="Page-1" stroke="none" stroke-width="1" fill="none" fill-rule="evenodd">
        <g>
            <polygon id="Fill-1" fill="#FEFEFE" points="256.0008 57.0004 266.0008 71.0004 266.0008 43.0004"></polygon>
            <path d="M29.8056,110.5 L29.8056,110.487 L29.8056,110.5 Z" id="Fill-2" fill="#FAD272"></path>
            <polygon id="Fill-3" fill="#FAA71E" points="54.9849 12.742 38.0649 0.104 31.8129 20.263 10.6869 19.974 17.4909 39.954 0.2289 52.123 17.4909 64.292 10.6869 84.272 31.8129 83.982 38.0649 104.142 54.9849 91.504 71.9059 104.142 78.1589 83.982 99.2839 84.272 92.4799 64.292 109.7419 52.123 92.4799 39.954 99.2839 19.974 78.1589 20.263 71.9059 0.104"></polygon>
            <g id="Group-6" transform="translate(20.000000, 18.000000)">
                <mask id="mask-2" fill="white">
                    <use xlink:href="#path-1"></use>
                </mask>
                <g id="Clip-5"></g>
                <polygon id="Fill-4" fill="url(#linearGradient-3)" mask="url(#mask-2)" points="-719 430 721 430 721 -594 -719 -594"></polygon>
            </g>
            <path d="M20.312,52.124 C20.312,70.915 35.563,86.15 54.376,86.15 L54.376,86.15 C73.188,86.15 88.438,70.915 88.438,52.124 L88.438,52.124 C88.438,33.332 73.188,18.099 54.376,18.099 L54.376,18.099 C35.563,18.099 20.312,33.332 20.312,52.124" id="Fill-7" fill="url(#linearGradient-4)"></path>
            <g id="Group-11" transform="translate(10.000000, 49.000000)">
                <mask id="mask-6" fill="white">
                    <use xlink:href="#path-5"></use>
                </mask>
                <g id="Clip-10"></g>
                <polygon id="Fill-9" fill="#A9E0F9" mask="url(#mask-6)" points="-4.659 59.658 96.161 59.658 96.161 -4.601 -4.659 -4.601"></polygon>
            </g>
            <g id="Group-14" transform="translate(23.000000, 107.000000)">
                <mask id="mask-8" fill="white">
                    <use xlink:href="#path-7"></use>
                </mask>
                <g id="Clip-13"></g>
                <polygon id="Fill-12" fill="#5394CF" mask="url(#mask-8)" points="-4.638 16.731 14.666 16.731 14.666 -4.479 -4.638 -4.479"></polygon>
            </g>
            <g id="Group-17" transform="translate(35.000000, 107.000000)">
                <mask id="mask-10" fill="white">
                    <use xlink:href="#path-9"></use>
                </mask>
                <g id="Clip-16"></g>
                <polygon id="Fill-15" fill="#5394CF" mask="url(#mask-10)" points="-4.175 16.731 15.13 16.731 15.13 -4.479 -4.175 -4.479"></polygon>
            </g>
            <g id="Group-20" transform="translate(48.000000, 107.000000)">
                <mask id="mask-12" fill="white">
                    <use xlink:href="#path-11"></use>
                </mask>
                <g id="Clip-19"></g>
                <polygon id="Fill-18" fill="#5394CF" mask="url(#mask-12)" points="-4.712 16.731 14.593 16.731 14.593 -4.479 -4.712 -4.479"></polygon>
            </g>
            <g id="Group-23" transform="translate(60.000000, 107.000000)">
                <mask id="mask-14" fill="white">
                    <use xlink:href="#path-13"></use>
                </mask>
                <g id="Clip-22"></g>
                <polygon id="Fill-21" fill="#5394CF" mask="url(#mask-14)" points="-4.25 16.731 15.055 16.731 15.055 -4.479 -4.25 -4.479"></polygon>
            </g>
            <g id="Group-26" transform="translate(73.000000, 107.000000)">
                <mask id="mask-16" fill="white">
                    <use xlink:href="#path-15"></use>
                </mask>
                <g id="Clip-25"></g>
                <polygon id="Fill-24" fill="#5394CF" mask="url(#mask-16)" points="-4.786 16.731 14.518 16.731 14.518 -4.479 -4.786 -4.479"></polygon>
            </g>
            <g id="Group-29" transform="translate(146.000000, 109.000000)">
                <mask id="mask-18" fill="white">
                    <use xlink:href="#path-17"></use>
                </mask>
                <g id="Clip-28"></g>
                <polygon id="Fill-27" fill="#FAD272" mask="url(#mask-18)" points="-4.227 5.512 5.774 5.512 5.774 -4.502 -4.227 -4.502"></polygon>
            </g>
            <g id="Group-32" transform="translate(140.000000, 12.000000)">
                <mask id="mask-20" fill="white">
                    <use xlink:href="#path-19"></use>
                </mask>
                <g id="Clip-31"></g>
                <polygon id="Fill-30" fill="#F3DC7A" mask="url(#mask-20)" points="-4.596 90.136 80.375 90.136 80.375 -4.686 -4.596 -4.686"></polygon>
            </g>
            <g id="Group-35" transform="translate(127.000000, 48.000000)">
                <mask id="mask-22" fill="white">
                    <use xlink:href="#path-21"></use>
                </mask>
                <g id="Clip-34"></g>
                <polygon id="Fill-33" fill="#A9E0F9" mask="url(#mask-22)" points="-4.623 59.68 95.878 59.68 95.878 -4.505 -4.623 -4.505"></polygon>
            </g>
            <g id="Group-38" transform="translate(140.000000, 106.000000)">
                <mask id="mask-24" fill="white">
                    <use xlink:href="#path-23"></use>
                </mask>
                <g id="Clip-37"></g>
                <polygon id="Fill-36" fill="#5394CF" mask="url(#mask-24)" points="-4.647 16.731 14.624 16.731 14.624 -4.463 -4.647 -4.463"></polygon>
            </g>
            <g id="Group-41" transform="translate(152.000000, 106.000000)">
                <mask id="mask-26" fill="white">
                    <use xlink:href="#path-25"></use>
                </mask>
                <g id="Clip-40"></g>
                <polygon id="Fill-39" fill="#5394CF" mask="url(#mask-26)" points="-4.228 16.731 15.043 16.731 15.043 -4.463 -4.228 -4.463"></polygon>
            </g>
            <g id="Group-44" transform="translate(165.000000, 106.000000)">
                <mask id="mask-28" fill="white">
                    <use xlink:href="#path-27"></use>
                </mask>
                <g id="Clip-43"></g>
                <polygon id="Fill-42" fill="#5394CF" mask="url(#mask-28)" points="-4.809 16.731 14.462 16.731 14.462 -4.463 -4.809 -4.463"></polygon>
            </g>
            <g id="Group-47" transform="translate(177.000000, 106.000000)">
                <mask id="mask-30" fill="white">
                    <use xlink:href="#path-29"></use>
                </mask>
                <g id="Clip-46"></g>
                <polygon id="Fill-45" fill="#5394CF" mask="url(#mask-30)" points="-4.39 16.731 14.881 16.731 14.881 -4.463 -4.39 -4.463"></polygon>
            </g>
            <g id="Group-50" transform="translate(190.000000, 106.000000)">
                <mask id="mask-32" fill="white">
                    <use xlink:href="#path-31"></use>
                </mask>
                <g id="Clip-49"></g>
                <polygon id="Fill-48" fill="#5394CF" mask="url(#mask-32)" points="-4.97 16.731 14.301 16.731 14.301 -4.463 -4.97 -4.463"></polygon>
            </g>
            <path d="M262.3386,109.7026 L262.3386,109.6896 L262.3386,109.7026 Z" id="Fill-51" fill="#FAD272"></path>
            <g id="Group-54" transform="translate(243.000000, 50.000000)">
                <mask id="mask-34" fill="white">
                    <use xlink:href="#path-33"></use>
                </mask>
                <g id="Clip-53"></g>
                <polygon id="Fill-52" fill="#A9E0F9" mask="url(#mask-34)" points="-4.63 58.023 93.882 58.023 93.882 -4.944 -4.63 -4.944"></polygon>
            </g>
            <g id="Group-57" transform="translate(256.000000, 106.000000)">
                <mask id="mask-36" fill="white">
                    <use xlink:href="#path-35"></use>
                </mask>
                <g id="Clip-56"></g>
                <polygon id="Fill-55" fill="#5394CF" mask="url(#mask-36)" points="-4.941 16.737 14.127 16.737 14.127 -4.206 -4.941 -4.206"></polygon>
            </g>
            <g id="Group-60" transform="translate(268.000000, 106.000000)">
                <mask id="mask-38" fill="white">
                    <use xlink:href="#path-37"></use>
                </mask>
                <g id="Clip-59"></g>
                <polygon id="Fill-58" fill="#5394CF" mask="url(#mask-38)" points="-4.794 16.737 14.274 16.737 14.274 -4.206 -4.794 -4.206"></polygon>
            </g>
            <g id="Group-63" transform="translate(280.000000, 106.000000)">
                <mask id="mask-40" fill="white">
                    <use xlink:href="#path-39"></use>
                </mask>
                <g id="Clip-62"></g>
                <polygon id="Fill-61" fill="#5394CF" mask="url(#mask-40)" points="-4.648 16.737 14.419 16.737 14.419 -4.206 -4.648 -4.206"></polygon>
            </g>
            <g id="Group-66" transform="translate(292.000000, 106.000000)">
                <mask id="mask-42" fill="white">
                    <use xlink:href="#path-41"></use>
                </mask>
                <g id="Clip-65"></g>
                <polygon id="Fill-64" fill="#5394CF" mask="url(#mask-42)" points="-4.501 16.737 14.566 16.737 14.566 -4.206 -4.501 -4.206"></polygon>
            </g>
            <g id="Group-69" transform="translate(304.000000, 106.000000)">
                <mask id="mask-44" fill="white">
                    <use xlink:href="#path-43"></use>
                </mask>
                <g id="Clip-68"></g>
                <polygon id="Fill-67" fill="#5394CF" mask="url(#mask-44)" points="-4.354 16.737 14.712 16.737 14.712 -4.206 -4.354 -4.206"></polygon>
            </g>
            <g id="Group-72" transform="translate(357.000000, 50.000000)">
                <mask id="mask-46" fill="white">
                    <use xlink:href="#path-45"></use>
                </mask>
                <g id="Clip-71"></g>
                <polygon id="Fill-70" fill="#A9E0F9" mask="url(#mask-46)" points="-4.632 57.677 93.882 57.677 93.882 -4.943 -4.632 -4.943"></polygon>
            </g>
            <g id="Group-75" transform="translate(375.000000, 107.000000)">
                <mask id="mask-48" fill="white">
                    <use xlink:href="#path-47"></use>
                </mask>
                <g id="Clip-74"></g>
                <polygon id="Fill-73" fill="#D0E7F8" mask="url(#mask-48)" points="-4.468 18.331 18.37 18.331 18.37 -4.11 -4.468 -4.11"></polygon>
            </g>
            <g id="Group-78" transform="translate(392.000000, 107.000000)">
                <mask id="mask-50" fill="white">
                    <use xlink:href="#path-49"></use>
                </mask>
                <g id="Clip-77"></g>
                <polygon id="Fill-76" fill="#D0E7F8" mask="url(#mask-50)" points="-4.638 23.785 23.829 23.785 23.829 -4.111 -4.638 -4.111"></polygon>
            </g>
            <g id="Group-81" transform="translate(414.000000, 107.000000)">
                <mask id="mask-52" fill="white">
                    <use xlink:href="#path-51"></use>
                </mask>
                <g id="Clip-80"></g>
                <polygon id="Fill-79" fill="#D0E7F8" mask="url(#mask-52)" points="-4.124 18.331 18.714 18.331 18.714 -4.11 -4.124 -4.11"></polygon>
            </g>
            <polygon id="Fill-82" fill="#FAA71E" points="114.42 163.9276 97.654 151.3496 91.458 171.4136 70.525 171.1256 77.267 191.0136 60.163 203.1256 77.267 215.2376 70.525 235.1236 91.458 234.8356 97.654 254.9016 114.42 242.3216 131.187 254.9016 137.384 234.8356 158.317 235.1236 151.575 215.2376 168.679 203.1256 151.575 191.0136 158.317 171.1256 137.384 171.4136 131.187 151.3496"></polygon>
            <g id="Group-85" transform="translate(80.000000, 169.000000)">
                <mask id="mask-54" fill="white">
                    <use xlink:href="#path-53"></use>
                </mask>
                <g id="Clip-84"></g>
                <polygon id="Fill-83" fill="url(#linearGradient-55)" mask="url(#mask-54)" points="-779 279 661 279 661 -745 -779 -745"></polygon>
            </g>
            <path d="M80.063,203.125 C80.063,221.829 95.174,236.992 113.816,236.992 L113.816,236.992 C132.458,236.992 147.569,221.829 147.569,203.125 L147.569,203.125 C147.569,184.422 132.458,169.259 113.816,169.259 L113.816,169.259 C95.174,169.259 80.063,184.422 80.063,203.125" id="Fill-86" fill="url(#linearGradient-56)"></path>
            <g id="Group-90" transform="translate(90.000000, 220.000000)">
                <mask id="mask-58" fill="white">
                    <use xlink:href="#path-57"></use>
                </mask>
                <g id="Clip-89"></g>
                <polygon id="Fill-88" fill="#FAD272" mask="url(#mask-58)" points="-4.642 5.127 5.359 5.127 5.359 -4.887 -4.642 -4.887"></polygon>
            </g>
            <polygon id="Fill-91" fill="#FAA71E" points="260.3694 164.1769 243.2804 151.3569 236.9644 171.8059 215.6274 171.5129 222.5004 191.7829 205.0654 204.1279 222.5004 216.4719 215.6274 236.7419 236.9644 236.4479 243.2804 256.8989 260.3694 244.0779 277.4584 256.8989 283.7734 236.4479 305.1104 236.7419 298.2394 216.4719 315.6724 204.1279 298.2394 191.7829 305.1104 171.5129 283.7734 171.8059 277.4584 151.3569"></polygon>
            <g id="Group-94" transform="translate(225.000000, 169.000000)">
                <mask id="mask-60" fill="white">
                    <use xlink:href="#path-59"></use>
                </mask>
                <g id="Clip-93"></g>
                <polygon id="Fill-92" fill="url(#linearGradient-61)" mask="url(#mask-60)" points="-924 279 516 279 516 -745 -924 -745"></polygon>
            </g>
            <path d="M225.35,204.128 C225.35,223.192 240.752,238.646 259.752,238.646 L259.752,238.646 C278.754,238.646 294.157,223.192 294.157,204.128 L294.157,204.128 C294.157,185.064 278.754,169.61 259.752,169.61 L259.752,169.61 C240.752,169.61 225.35,185.064 225.35,204.128" id="Fill-95" fill="url(#linearGradient-62)"></path>
            <path d="M235.8444,221.4565 L235.8444,221.4435 L235.8444,221.4565 Z" id="Fill-97" fill="#FAD272"></path>
            <g id="Group-100" transform="translate(194.000000, 186.000000)">
                <mask id="mask-64" fill="white">
                    <use xlink:href="#path-63"></use>
                </mask>
                <g id="Clip-99"></g>
                <polygon id="Fill-98" fill="#A9E0F9" mask="url(#mask-64)" points="-4.625 61.038 97.104 61.038 97.104 -4.006 -4.625 -4.006"></polygon>
            </g>
            <path d="M358.6179,220.417 L358.6179,220.403 L358.6179,220.417 Z" id="Fill-101" fill="#FAD272"></path>
            <g id="Group-104" transform="translate(341.000000, 165.000000)">
                <mask id="mask-66" fill="white">
                    <use xlink:href="#path-65"></use>
                </mask>
                <g id="Clip-103"></g>
                <polygon id="Fill-102" fill="#F3DC7A" mask="url(#mask-66)" points="-4.841 83.896 74.87 83.896 74.87 -4.665 -4.841 -4.665"></polygon>
            </g>
            <path d="M511.175,84.058 L511.175,84.044 L511.175,84.058 Z" id="Fill-105" fill="#FAD272"></path>
            <g id="Group-108" transform="translate(471.000000, 51.000000)">
                <mask id="mask-68" fill="white">
                    <use xlink:href="#path-67"></use>
                </mask>
                <g id="Clip-107"></g>
                <polygon id="Fill-106" fill="#A9E0F9" mask="url(#mask-68)" points="-4.64 57.771 93.428 57.771 93.428 -4.95 -4.64 -4.95"></polygon>
            </g>
            <g id="Group-111" transform="translate(534.000000, 48.000000)">
                <mask id="mask-70" fill="white">
                    <use xlink:href="#path-69"></use>
                </mask>
                <g id="Clip-110"></g>
                <polygon id="Fill-109" fill="#8CD6F4" mask="url(#mask-70)" points="-4.28 43.656 69.851 43.656 69.851 -4.736 -4.28 -4.736"></polygon>
            </g>
            <path d="M478.4286,209.923 L478.4286,209.909 L478.4286,209.923 Z" id="Fill-112" fill="#FAD272"></path>
            <g id="Group-115" transform="translate(459.000000, 151.000000)">
                <mask id="mask-72" fill="white">
                    <use xlink:href="#path-71"></use>
                </mask>
                <g id="Clip-114"></g>
                <polygon id="Fill-113" fill="#F3DC7A" mask="url(#mask-72)" points="-4.306 88.891 80.495 88.891 80.495 -4.642 -4.306 -4.642"></polygon>
            </g>
            <g id="Group-118" transform="translate(509.000000, 153.000000)">
                <mask id="mask-74" fill="white">
                    <use xlink:href="#path-73"></use>
                </mask>
                <g id="Clip-117"></g>
                <polygon id="Fill-116" fill="#F3DC7A" mask="url(#mask-74)" points="-4.683 25.853 19.874 25.853 19.874 -4.968 -4.683 -4.968"></polygon>
            </g>
            <g id="Group-121" transform="translate(519.000000, 179.000000)">
                <mask id="mask-76" fill="white">
                    <use xlink:href="#path-75"></use>
                </mask>
                <g id="Clip-120"></g>
                <polygon id="Fill-119" fill="#F3DC7A" mask="url(#mask-76)" points="-4.062 34.309 25.911 34.309 25.911 -4.259 -4.062 -4.259"></polygon>
            </g>
            <g id="Group-124" transform="translate(436.000000, 174.000000)">
                <mask id="mask-78" fill="white">
                    <use xlink:href="#path-77"></use>
                </mask>
                <g id="Clip-123"></g>
                <polygon id="Fill-122" fill="#A9E0F9" mask="url(#mask-78)" points="-4.673 58.414 95.624 58.414 95.624 -4.946 -4.673 -4.946"></polygon>
            </g>
        </g>
    </g>
</svg>