<?xml version="1.0" encoding="UTF-8"?>
<svg width="204px" height="212px" viewBox="0 0 204 212" version="1.1" xmlns="http://www.w3.org/2000/svg" xmlns:xlink="http://www.w3.org/1999/xlink" style="background: #1F252D;">
    <!-- Generator: Sketch 49.2 (51160) - http://www.bohemiancoding.com/sketch -->
    <title>vudu copy</title>
    <desc>Created with Sketch.</desc>
    <defs></defs>
    <g id="vudu-copy" stroke="none" stroke-width="1" fill="none" fill-rule="evenodd">
        <path d="M21.15,23 L20.05,23 L23.12,15.92 L24.02,15.92 L27.06,23 L25.94,23 L25.22,21.26 L21.86,21.26 L21.15,23 Z M22.21,20.39 L24.86,20.39 L23.54,17.07 L22.21,20.39 Z M30.09,23 L29.07,23 L27.14,18.26 L28.18,18.26 L29.57,21.99 L29.59,21.99 L30.99,18.26 L31.99,18.26 L30.09,23 Z M36.37,20.21 C36.3633333,20.0233324 36.3316669,19.8483341 36.275,19.685 C36.218333,19.5216658 36.1350006,19.3800006 36.025,19.26 C35.9149994,19.1399994 35.7783341,19.0450004 35.615,18.975 C35.4516658,18.9049997 35.2600011,18.87 35.04,18.87 C34.839999,18.87 34.6516675,18.9049997 34.475,18.975 C34.2983325,19.0450004 34.1450007,19.1399994 34.015,19.26 C33.8849994,19.3800006 33.7783338,19.5216658 33.695,19.685 C33.6116662,19.8483341 33.5633334,20.0233324 33.55,20.21 L36.37,20.21 Z M37.32,20.59 L37.32,20.75 C37.32,20.8033336 37.3166667,20.8566664 37.31,20.91 L33.55,20.91 C33.5566667,21.110001 33.6016663,21.2983325 33.685,21.475 C33.7683337,21.6516675 33.8799993,21.8049994 34.02,21.935 C34.1600007,22.0650007 34.3216658,22.1666663 34.505,22.24 C34.6883342,22.3133337 34.8833323,22.35 35.09,22.35 C35.4100016,22.35 35.6866655,22.2800007 35.92,22.14 C36.1533345,21.9999993 36.336666,21.830001 36.47,21.63 L37.13,22.16 C36.8766654,22.493335 36.578335,22.7383325 36.235,22.895 C35.8916649,23.0516675 35.5100021,23.13 35.09,23.13 C34.7299982,23.13 34.3966682,23.0700006 34.09,22.95 C33.7833318,22.8299994 33.5200011,22.6616677 33.3,22.445 C33.0799989,22.2283323 32.9066673,21.9666682 32.78,21.66 C32.6533327,21.3533318 32.59,21.0133352 32.59,20.64 C32.59,20.2733315 32.6516661,19.9350016 32.775,19.625 C32.898334,19.3149985 33.0699989,19.0500011 33.29,18.83 C33.5100011,18.6099989 33.7699985,18.438334 34.07,18.315 C34.3700015,18.1916661 34.6933316,18.13 35.04,18.13 C35.3866684,18.13 35.7016652,18.1866661 35.985,18.3 C36.2683347,18.4133339 36.5083324,18.5766656 36.705,18.79 C36.9016676,19.0033344 37.0533328,19.2616651 37.16,19.565 C37.2666672,19.8683349 37.32,20.2099981 37.32,20.59 Z M39.48,18.26 C39.4933334,18.3800006 39.5033333,18.5149992 39.51,18.665 C39.5166667,18.8150007 39.52,18.9399995 39.52,19.04 L39.55,19.04 C39.6100003,18.9133327 39.6916662,18.7950005 39.795,18.685 C39.8983339,18.5749994 40.016666,18.4783337 40.15,18.395 C40.283334,18.3116663 40.4299992,18.2466669 40.59,18.2 C40.7500008,18.1533331 40.9166658,18.13 41.09,18.13 C41.3966682,18.13 41.6599989,18.1816661 41.88,18.285 C42.1000011,18.3883338 42.2833326,18.5266658 42.43,18.7 C42.5766674,18.8733342 42.6849997,19.0766655 42.755,19.31 C42.8250003,19.5433345 42.86,19.793332 42.86,20.06 L42.86,23 L41.92,23 L41.92,20.37 C41.92,20.1766657 41.9050001,19.9933342 41.875,19.82 C41.8449999,19.6466658 41.7900004,19.493334 41.71,19.36 C41.6299996,19.226666 41.5200007,19.1200004 41.38,19.04 C41.2399993,18.9599996 41.0600011,18.92 40.84,18.92 C40.4666648,18.92 40.1616679,19.0616653 39.925,19.345 C39.6883322,19.6283348 39.57,20.0066643 39.57,20.48 L39.57,23 L38.63,23 L38.63,19.28 C38.63,19.1533327 38.6266667,18.990001 38.62,18.79 C38.6133333,18.589999 38.6033334,18.4133341 38.59,18.26 L39.48,18.26 Z M45.4,23 L44.46,23 L44.46,18.26 L45.4,18.26 L45.4,23 Z M45.56,16.55 C45.56,16.7233342 45.498334,16.8666661 45.375,16.98 C45.2516661,17.0933339 45.1033342,17.15 44.93,17.15 C44.7566658,17.15 44.6100006,17.0916673 44.49,16.975 C44.3699994,16.8583328 44.31,16.7166675 44.31,16.55 C44.31,16.3766658 44.3699994,16.2316673 44.49,16.115 C44.6100006,15.9983327 44.7566658,15.94 44.93,15.94 C45.1033342,15.94 45.2516661,15.9983327 45.375,16.115 C45.498334,16.2316673 45.56,16.3766658 45.56,16.55 Z M47.04,19.28 C47.04,19.1533327 47.0366667,18.990001 47.03,18.79 C47.0233333,18.589999 47.0133334,18.4133341 47,18.26 L47.89,18.26 C47.9033334,18.3800006 47.9133333,18.5183326 47.92,18.675 C47.9266667,18.8316675 47.93,18.9599995 47.93,19.06 L47.96,19.06 C48.093334,18.7799986 48.288332,18.5550008 48.545,18.385 C48.8016679,18.2149992 49.0899984,18.13 49.41,18.13 C49.5566674,18.13 49.6799995,18.1433332 49.78,18.17 L49.74,19.04 C49.606666,19.0066665 49.4633341,18.99 49.31,18.99 C49.0833322,18.99 48.8866675,19.0316663 48.72,19.115 C48.5533325,19.1983337 48.4150006,19.3099993 48.305,19.45 C48.1949994,19.5900007 48.1133336,19.7516658 48.06,19.935 C48.0066664,20.1183343 47.98,20.309999 47.98,20.51 L47.98,23 L47.04,23 L47.04,19.28 Z M58.2,21.58 L58.22,21.58 L58.22,15.92 L59.21,15.92 L59.21,23 L57.96,23 L54.22,17.22 L54.2,17.22 L54.2,23 L53.21,23 L53.21,15.92 L54.5,15.92 L58.2,21.58 Z M64.35,20.21 C64.3433333,20.0233324 64.311667,19.8483341 64.255,19.685 C64.1983331,19.5216658 64.1150006,19.3800006 64.005,19.26 C63.8949995,19.1399994 63.7583341,19.0450004 63.595,18.975 C63.4316659,18.9049997 63.2400011,18.87 63.02,18.87 C62.819999,18.87 62.6316675,18.9049997 62.455,18.975 C62.2783324,19.0450004 62.1250006,19.1399994 61.995,19.26 C61.8649993,19.3800006 61.7583337,19.5216658 61.675,19.685 C61.5916662,19.8483341 61.5433334,20.0233324 61.53,20.21 L64.35,20.21 Z M65.3,20.59 L65.3,20.75 C65.3,20.8033336 65.2966667,20.8566664 65.29,20.91 L61.53,20.91 C61.5366667,21.110001 61.5816662,21.2983325 61.665,21.475 C61.7483338,21.6516675 61.8599993,21.8049994 62,21.935 C62.1400007,22.0650007 62.3016657,22.1666663 62.485,22.24 C62.6683343,22.3133337 62.8633323,22.35 63.07,22.35 C63.3900016,22.35 63.6666655,22.2800007 63.9,22.14 C64.1333345,21.9999993 64.316666,21.830001 64.45,21.63 L65.11,22.16 C64.8566654,22.493335 64.5583351,22.7383325 64.215,22.895 C63.8716649,23.0516675 63.4900021,23.13 63.07,23.13 C62.7099982,23.13 62.3766682,23.0700006 62.07,22.95 C61.7633318,22.8299994 61.5000011,22.6616677 61.28,22.445 C61.0599989,22.2283323 60.8866673,21.9666682 60.76,21.66 C60.6333327,21.3533318 60.57,21.0133352 60.57,20.64 C60.57,20.2733315 60.631666,19.9350016 60.755,19.625 C60.8783339,19.3149985 61.0499989,19.0500011 61.27,18.83 C61.4900011,18.6099989 61.7499985,18.438334 62.05,18.315 C62.3500015,18.1916661 62.6733316,18.13 63.02,18.13 C63.3666684,18.13 63.6816652,18.1866661 63.965,18.3 C64.2483347,18.4133339 64.4883324,18.5766656 64.685,18.79 C64.8816676,19.0033344 65.0333328,19.2616651 65.14,19.565 C65.2466672,19.8683349 65.3,20.2099981 65.3,20.59 Z M67.67,20.51 L65.94,18.26 L67.1,18.26 L68.26,19.89 L69.43,18.26 L70.53,18.26 L68.82,20.5 L70.73,23 L69.56,23 L68.24,21.15 L66.9,23 L65.77,23 L67.67,20.51 Z M73.94,19.03 L72.68,19.03 L72.68,21.5 C72.68,21.7866681 72.7333328,21.991666 72.84,22.115 C72.9466672,22.238334 73.1166655,22.3 73.35,22.3 C73.4366671,22.3 73.5299995,22.2900001 73.63,22.27 C73.7300005,22.2499999 73.8199996,22.2200002 73.9,22.18 L73.93,22.95 C73.8166661,22.9900002 73.6916674,23.0216665 73.555,23.045 C73.4183326,23.0683335 73.2766674,23.08 73.13,23.08 C72.6833311,23.08 72.3416678,22.9566679 72.105,22.71 C71.8683322,22.4633321 71.75,22.0933358 71.75,21.6 L71.75,19.03 L70.84,19.03 L70.84,18.26 L71.75,18.26 L71.75,16.9 L72.68,16.9 L72.68,18.26 L73.94,18.26 L73.94,19.03 Z M81.12,21.36 L81.14,21.36 L83.23,15.92 L84.77,15.92 L84.77,23 L83.78,23 L83.78,17.08 L83.76,17.08 L81.41,23 L80.78,23 L78.44,17.08 L78.42,17.08 L78.42,23 L77.46,23 L77.46,15.92 L79,15.92 L81.12,21.36 Z M89.91,20.21 C89.9033333,20.0233324 89.8716669,19.8483341 89.815,19.685 C89.758333,19.5216658 89.6750005,19.3800006 89.565,19.26 C89.4549994,19.1399994 89.3183341,19.0450004 89.155,18.975 C88.9916658,18.9049997 88.8000011,18.87 88.58,18.87 C88.379999,18.87 88.1916675,18.9049997 88.015,18.975 C87.8383324,19.0450004 87.6850006,19.1399994 87.555,19.26 C87.4249993,19.3800006 87.3183337,19.5216658 87.235,19.685 C87.1516662,19.8483341 87.1033334,20.0233324 87.09,20.21 L89.91,20.21 Z M90.86,20.59 L90.86,20.75 C90.86,20.8033336 90.8566667,20.8566664 90.85,20.91 L87.09,20.91 C87.0966667,21.110001 87.1416662,21.2983325 87.225,21.475 C87.3083337,21.6516675 87.4199993,21.8049994 87.56,21.935 C87.7000007,22.0650007 87.8616657,22.1666663 88.045,22.24 C88.2283342,22.3133337 88.4233323,22.35 88.63,22.35 C88.9500016,22.35 89.2266655,22.2800007 89.46,22.14 C89.6933345,21.9999993 89.876666,21.830001 90.01,21.63 L90.67,22.16 C90.4166654,22.493335 90.118335,22.7383325 89.775,22.895 C89.4316649,23.0516675 89.0500021,23.13 88.63,23.13 C88.2699982,23.13 87.9366682,23.0700006 87.63,22.95 C87.3233318,22.8299994 87.0600011,22.6616677 86.84,22.445 C86.6199989,22.2283323 86.4466673,21.9666682 86.32,21.66 C86.1933327,21.3533318 86.13,21.0133352 86.13,20.64 C86.13,20.2733315 86.191666,19.9350016 86.315,19.625 C86.4383339,19.3149985 86.6099989,19.0500011 86.83,18.83 C87.0500011,18.6099989 87.3099985,18.438334 87.61,18.315 C87.9100015,18.1916661 88.2333316,18.13 88.58,18.13 C88.9266684,18.13 89.2416652,18.1866661 89.525,18.3 C89.8083347,18.4133339 90.0483323,18.5766656 90.245,18.79 C90.4416676,19.0033344 90.5933328,19.2616651 90.7,19.565 C90.8066672,19.8683349 90.86,20.2099981 90.86,20.59 Z M95.95,22.25 C95.7699991,22.5366681 95.5250016,22.7549993 95.215,22.905 C94.9049984,23.0550008 94.5800017,23.13 94.24,23.13 C93.8733315,23.13 93.5433348,23.0650007 93.25,22.935 C92.9566652,22.8049993 92.7066677,22.6266678 92.5,22.4 C92.2933323,22.1733322 92.1333339,21.9066682 92.02,21.6 C91.9066661,21.2933318 91.85,20.9666684 91.85,20.62 C91.85,20.2733316 91.9066661,19.9483349 92.02,19.645 C92.1333339,19.3416651 92.294999,19.0766678 92.505,18.85 C92.715001,18.6233322 92.9666652,18.4466673 93.26,18.32 C93.5533348,18.1933327 93.8766649,18.13 94.23,18.13 C94.6166686,18.13 94.9533319,18.2116658 95.24,18.375 C95.5266681,18.5383342 95.7533325,18.7366655 95.92,18.97 L95.94,18.97 L95.94,15.44 L96.88,15.44 L96.88,23 L95.97,23 L95.97,22.25 L95.95,22.25 Z M92.83,20.62 C92.83,20.8400011 92.863333,21.0533323 92.93,21.26 C92.996667,21.4666677 93.096666,21.6499992 93.23,21.81 C93.363334,21.9700008 93.5266657,22.0983328 93.72,22.195 C93.9133343,22.2916672 94.1399987,22.34 94.4,22.34 C94.6400012,22.34 94.8583323,22.2933338 95.055,22.2 C95.2516676,22.1066662 95.4199993,21.9816674 95.56,21.825 C95.7000007,21.6683325 95.8083329,21.4866677 95.885,21.28 C95.961667,21.0733323 96,20.8566678 96,20.63 C96,20.4033322 95.961667,20.1866677 95.885,19.98 C95.8083329,19.7733323 95.7000007,19.5900008 95.56,19.43 C95.4199993,19.2699992 95.2516676,19.1433338 95.055,19.05 C94.8583323,18.9566662 94.6400012,18.91 94.4,18.91 C94.1399987,18.91 93.9133343,18.9566662 93.72,19.05 C93.5266657,19.1433338 93.363334,19.2699992 93.23,19.43 C93.096666,19.5900008 92.996667,19.7733323 92.93,19.98 C92.863333,20.1866677 92.83,20.3999989 92.83,20.62 Z M99.47,23 L98.53,23 L98.53,18.26 L99.47,18.26 L99.47,23 Z M99.63,16.55 C99.63,16.7233342 99.5683339,16.8666661 99.445,16.98 C99.321666,17.0933339 99.1733342,17.15 99,17.15 C98.8266658,17.15 98.6800006,17.0916673 98.56,16.975 C98.4399994,16.8583328 98.38,16.7166675 98.38,16.55 C98.38,16.3766658 98.4399994,16.2316673 98.56,16.115 C98.6800006,15.9983327 98.8266658,15.94 99,15.94 C99.1733342,15.94 99.321666,15.9983327 99.445,16.115 C99.5683339,16.2316673 99.63,16.3766658 99.63,16.55 Z M104.45,23 C104.436667,22.8799994 104.426667,22.7450007 104.42,22.595 C104.413333,22.4449993 104.41,22.3200005 104.41,22.22 L104.39,22.22 C104.269999,22.4733346 104.068335,22.6883325 103.785,22.865 C103.501665,23.0416675 103.186668,23.13 102.84,23.13 C102.533332,23.13 102.268334,23.0800005 102.045,22.98 C101.821666,22.8799995 101.638334,22.7416676 101.495,22.565 C101.351666,22.3883325 101.245,22.1833345 101.175,21.95 C101.105,21.7166655 101.07,21.466668 101.07,21.2 L101.07,18.26 L102.01,18.26 L102.01,20.88 C102.01,21.0733343 102.025,21.2583325 102.055,21.435 C102.085,21.6116675 102.14,21.766666 102.22,21.9 C102.3,22.033334 102.409999,22.1399996 102.55,22.22 C102.690001,22.3000004 102.869999,22.34 103.09,22.34 C103.470002,22.34 103.776665,22.1983348 104.01,21.915 C104.243335,21.6316653 104.36,21.2533357 104.36,20.78 L104.36,18.26 L105.3,18.26 L105.3,21.98 C105.3,22.1066673 105.303333,22.269999 105.31,22.47 C105.316667,22.670001 105.326667,22.8466659 105.34,23 L104.45,23 Z M107.85,19.04 C107.970001,18.7866654 108.161665,18.5716676 108.425,18.395 C108.688335,18.2183324 108.999998,18.13 109.36,18.13 C109.680002,18.13 109.968332,18.2033326 110.225,18.35 C110.481668,18.4966674 110.683333,18.7399983 110.83,19.08 C110.990001,18.7733318 111.213332,18.5383342 111.5,18.375 C111.786668,18.2116658 112.099998,18.13 112.44,18.13 C112.746668,18.13 113.009999,18.1816661 113.23,18.285 C113.450001,18.3883338 113.633333,18.5266658 113.78,18.7 C113.926667,18.8733342 114.035,19.0766655 114.105,19.31 C114.175,19.5433345 114.21,19.793332 114.21,20.06 L114.21,23 L113.27,23 L113.27,20.37 C113.27,20.1766657 113.253333,19.9933342 113.22,19.82 C113.186667,19.6466658 113.13,19.493334 113.05,19.36 C112.97,19.226666 112.863334,19.1200004 112.73,19.04 C112.596666,18.9599996 112.426668,18.92 112.22,18.92 C112.006666,18.92 111.823334,18.9649996 111.67,19.055 C111.516666,19.1450004 111.391667,19.261666 111.295,19.405 C111.198333,19.5483341 111.128334,19.7099991 111.085,19.89 C111.041666,20.0700009 111.02,20.2533324 111.02,20.44 L111.02,23 L110.08,23 L110.08,20.18 C110.08,19.9933324 110.063333,19.8233341 110.03,19.67 C109.996667,19.5166659 109.94,19.3850006 109.86,19.275 C109.78,19.1649994 109.676667,19.0783337 109.55,19.015 C109.423333,18.9516663 109.266668,18.92 109.08,18.92 C108.733332,18.92 108.445001,19.0616653 108.215,19.345 C107.984999,19.6283348 107.87,20.0066643 107.87,20.48 L107.87,23 L106.93,23 L106.93,19.28 C106.93,19.1533327 106.926667,18.990001 106.92,18.79 C106.913333,18.589999 106.903333,18.4133341 106.89,18.26 L107.78,18.26 C107.793333,18.3800006 107.803333,18.5149992 107.81,18.665 C107.816667,18.8150007 107.82,18.9399995 107.82,19.04 L107.85,19.04 Z" id="Avenir-Next-Medium" fill="#FFFFFF"></path>
        <path d="M20.89,72 L20.1,72 L23.16,64.92 L23.86,64.92 L26.9,72 L26.1,72 L25.32,70.14 L21.66,70.14 L20.89,72 Z M21.93,69.48 L25.05,69.48 L23.49,65.72 L21.93,69.48 Z M29.76,72 L29.01,72 L27.1,67.32 L27.86,67.32 L29.38,71.28 L29.4,71.28 L30.93,67.32 L31.66,67.32 L29.76,72 Z M36.29,69.3 C36.2699999,68.8599978 36.1283346,68.4950015 35.865,68.205 C35.6016654,67.9149986 35.2266691,67.77 34.74,67.77 C34.5133322,67.77 34.3033343,67.8116663 34.11,67.895 C33.9166657,67.9783338 33.7466674,68.0916659 33.6,68.235 C33.4533326,68.3783341 33.3366671,68.5416657 33.25,68.725 C33.1633329,68.9083342 33.1133334,69.099999 33.1,69.3 L36.29,69.3 Z M36.98,69.52 L36.98,69.67 C36.98,69.7233336 36.9766667,69.7799997 36.97,69.84 L33.09,69.84 C33.0966667,70.0733345 33.1433329,70.2933323 33.23,70.5 C33.3166671,70.7066677 33.4366659,70.8866659 33.59,71.04 C33.7433341,71.1933341 33.9233323,71.3149995 34.13,71.405 C34.3366677,71.4950004 34.5599988,71.54 34.8,71.54 C35.1533351,71.54 35.458332,71.4583341 35.715,71.295 C35.9716679,71.1316659 36.166666,70.9433344 36.3,70.73 L36.81,71.13 C36.5299986,71.4833351 36.2216684,71.7366659 35.885,71.89 C35.5483317,72.0433341 35.1866686,72.12 34.8,72.12 C34.4533316,72.12 34.1316681,72.058334 33.835,71.935 C33.5383319,71.811666 33.2833344,71.6400011 33.07,71.42 C32.8566656,71.1999989 32.688334,70.9400015 32.565,70.64 C32.4416661,70.3399985 32.38,70.0133351 32.38,69.66 C32.38,69.3066649 32.4399994,68.9800015 32.56,68.68 C32.6800006,68.3799985 32.8466656,68.1200011 33.06,67.9 C33.2733344,67.6799989 33.5233319,67.508334 33.81,67.385 C34.0966681,67.2616661 34.406665,67.2 34.74,67.2 C35.1066685,67.2 35.4299986,67.2616661 35.71,67.385 C35.9900014,67.508334 36.2233324,67.674999 36.41,67.885 C36.5966676,68.095001 36.7383329,68.3399986 36.835,68.62 C36.9316671,68.9000014 36.98,69.1999984 36.98,69.52 Z M39.05,67.32 C39.0633334,67.4466673 39.0733333,67.5866659 39.08,67.74 C39.0866667,67.8933341 39.09,68.0199995 39.09,68.12 L39.11,68.12 C39.243334,67.8466653 39.4599985,67.6250009 39.76,67.455 C40.0600015,67.2849992 40.376665,67.2 40.71,67.2 C41.3033363,67.2 41.7483318,67.3766649 42.045,67.73 C42.3416681,68.0833351 42.49,68.5499971 42.49,69.13 L42.49,72 L41.81,72 L41.81,69.41 C41.81,69.1633321 41.7900002,68.940001 41.75,68.74 C41.7099998,68.539999 41.6416671,68.3683341 41.545,68.225 C41.4483328,68.081666 41.3183341,67.9700004 41.155,67.89 C40.9916659,67.8099996 40.7866679,67.77 40.54,67.77 C40.3599991,67.77 40.1850008,67.8066663 40.015,67.88 C39.8449991,67.9533337 39.693334,68.0649992 39.56,68.215 C39.426666,68.3650007 39.3200004,68.5549989 39.24,68.785 C39.1599996,69.0150012 39.12,69.2866651 39.12,69.6 L39.12,72 L38.44,72 L38.44,68.35 C38.44,68.2233327 38.4366667,68.060001 38.43,67.86 C38.4233333,67.659999 38.4133334,67.4800008 38.4,67.32 L39.05,67.32 Z M44.94,72 L44.26,72 L44.26,67.32 L44.94,67.32 L44.94,72 Z M45.08,65.52 C45.08,65.6600007 45.0300005,65.7749996 44.93,65.865 C44.8299995,65.9550005 44.7200006,66 44.6,66 C44.4799994,66 44.3700005,65.9550005 44.27,65.865 C44.1699995,65.7749996 44.12,65.6600007 44.12,65.52 C44.12,65.3799993 44.1699995,65.2650005 44.27,65.175 C44.3700005,65.0849995 44.4799994,65.04 44.6,65.04 C44.7200006,65.04 44.8299995,65.0849995 44.93,65.175 C45.0300005,65.2650005 45.08,65.3799993 45.08,65.52 Z M46.75,68.35 C46.75,68.2233327 46.7466667,68.060001 46.74,67.86 C46.7333333,67.659999 46.7233334,67.4800008 46.71,67.32 L47.36,67.32 C47.3733334,67.4466673 47.3833333,67.5866659 47.39,67.74 C47.3966667,67.8933341 47.4,68.0199995 47.4,68.12 L47.42,68.12 C47.553334,67.8466653 47.753332,67.6250009 48.02,67.455 C48.286668,67.2849992 48.586665,67.2 48.92,67.2 C49.0066671,67.2 49.0849997,67.2033333 49.155,67.21 C49.2250004,67.2166667 49.2966663,67.2299999 49.37,67.25 L49.28,67.89 C49.2399998,67.8766666 49.1733338,67.8633334 49.08,67.85 C48.9866662,67.8366666 48.8933338,67.83 48.8,67.83 C48.6199991,67.83 48.4466675,67.863333 48.28,67.93 C48.1133325,67.996667 47.968334,68.1016659 47.845,68.245 C47.721666,68.388334 47.621667,68.5716656 47.545,68.795 C47.468333,69.0183344 47.43,69.2866651 47.43,69.6 L47.43,72 L46.75,72 L46.75,68.35 Z M57.91,70.95 L57.93,70.95 L57.93,64.92 L58.65,64.92 L58.65,72 L57.75,72 L53.63,65.91 L53.61,65.91 L53.61,72 L52.89,72 L52.89,64.92 L53.79,64.92 L57.91,70.95 Z M64.06,69.3 C64.0399999,68.8599978 63.8983346,68.4950015 63.635,68.205 C63.3716653,67.9149986 62.9966691,67.77 62.51,67.77 C62.2833322,67.77 62.0733343,67.8116663 61.88,67.895 C61.6866657,67.9783338 61.5166674,68.0916659 61.37,68.235 C61.2233326,68.3783341 61.1066671,68.5416657 61.02,68.725 C60.9333329,68.9083342 60.8833334,69.099999 60.87,69.3 L64.06,69.3 Z M64.75,69.52 L64.75,69.67 C64.75,69.7233336 64.7466667,69.7799997 64.74,69.84 L60.86,69.84 C60.8666667,70.0733345 60.9133329,70.2933323 61,70.5 C61.0866671,70.7066677 61.2066659,70.8866659 61.36,71.04 C61.5133341,71.1933341 61.6933323,71.3149995 61.9,71.405 C62.1066677,71.4950004 62.3299988,71.54 62.57,71.54 C62.9233351,71.54 63.2283321,71.4583341 63.485,71.295 C63.741668,71.1316659 63.936666,70.9433344 64.07,70.73 L64.58,71.13 C64.2999986,71.4833351 63.9916684,71.7366659 63.655,71.89 C63.3183317,72.0433341 62.9566686,72.12 62.57,72.12 C62.2233316,72.12 61.9016682,72.058334 61.605,71.935 C61.3083319,71.811666 61.0533344,71.6400011 60.84,71.42 C60.6266656,71.1999989 60.458334,70.9400015 60.335,70.64 C60.2116661,70.3399985 60.15,70.0133351 60.15,69.66 C60.15,69.3066649 60.2099994,68.9800015 60.33,68.68 C60.4500006,68.3799985 60.6166656,68.1200011 60.83,67.9 C61.0433344,67.6799989 61.2933319,67.508334 61.58,67.385 C61.8666681,67.2616661 62.176665,67.2 62.51,67.2 C62.8766685,67.2 63.1999986,67.2616661 63.48,67.385 C63.7600014,67.508334 63.9933324,67.674999 64.18,67.885 C64.3666676,68.095001 64.5083329,68.3399986 64.605,68.62 C64.7016671,68.9000014 64.75,69.1999984 64.75,69.52 Z M67.25,69.58 L65.52,67.32 L66.39,67.32 L67.67,69.1 L68.95,67.32 L69.77,67.32 L68.07,69.55 L69.93,72 L69.05,72 L67.66,70.05 L66.23,72 L65.41,72 L67.25,69.58 Z M73.1,67.89 L71.78,67.89 L71.78,70.62 C71.78,70.7933342 71.7966665,70.9366661 71.83,71.05 C71.8633335,71.1633339 71.9116663,71.2516663 71.975,71.315 C72.0383336,71.3783337 72.1133329,71.4216665 72.2,71.445 C72.2866671,71.4683335 72.3799995,71.48 72.48,71.48 C72.5733338,71.48 72.6716661,71.4666668 72.775,71.44 C72.8783338,71.4133332 72.9766662,71.3766669 73.07,71.33 L73.1,71.92 C72.9799994,71.9666669 72.8550006,72.0016665 72.725,72.025 C72.5949993,72.0483335 72.4533341,72.06 72.3,72.06 C72.1733327,72.06 72.0400007,72.0433335 71.9,72.01 C71.7599993,71.9766665 71.6300006,71.9133338 71.51,71.82 C71.3899994,71.7266662 71.2916671,71.6000008 71.215,71.44 C71.138333,71.2799992 71.1,71.0700013 71.1,70.81 L71.1,67.89 L70.13,67.89 L70.13,67.32 L71.1,67.32 L71.1,66 L71.78,66 L71.78,67.32 L73.1,67.32 L73.1,67.89 Z M77.42,72 L76.7,72 L76.7,64.92 L78.78,64.92 C79.1266684,64.92 79.4483318,64.953333 79.745,65.02 C80.0416681,65.086667 80.2983322,65.1949992 80.515,65.345 C80.7316677,65.4950008 80.8999994,65.6899988 81.02,65.93 C81.1400006,66.1700012 81.2,66.4633316 81.2,66.81 C81.2,67.0700013 81.1533338,67.3066656 81.06,67.52 C80.9666662,67.7333344 80.8400008,67.9183326 80.68,68.075 C80.5199992,68.2316675 80.3300011,68.3566662 80.11,68.45 C79.8899989,68.5433338 79.6500013,68.6033332 79.39,68.63 L81.46,72 L80.58,72 L78.62,68.69 L77.42,68.69 L77.42,72 Z M77.42,68.07 L78.67,68.07 C79.2500029,68.07 79.6966651,67.965001 80.01,67.755 C80.3233349,67.544999 80.48,67.2300021 80.48,66.81 C80.48,66.5766655 80.4366671,66.3800008 80.35,66.22 C80.2633329,66.0599992 80.1433341,65.9300005 79.99,65.83 C79.8366659,65.7299995 79.6500011,65.6566669 79.43,65.61 C79.2099989,65.5633331 78.966668,65.54 78.7,65.54 L77.42,65.54 L77.42,68.07 Z M86.1,69.3 C86.0799999,68.8599978 85.9383347,68.4950015 85.675,68.205 C85.4116653,67.9149986 85.0366691,67.77 84.55,67.77 C84.3233322,67.77 84.1133343,67.8116663 83.92,67.895 C83.7266657,67.9783338 83.5566674,68.0916659 83.41,68.235 C83.2633326,68.3783341 83.1466671,68.5416657 83.06,68.725 C82.9733329,68.9083342 82.9233334,69.099999 82.91,69.3 L86.1,69.3 Z M86.79,69.52 L86.79,69.67 C86.79,69.7233336 86.7866667,69.7799997 86.78,69.84 L82.9,69.84 C82.9066667,70.0733345 82.9533329,70.2933323 83.04,70.5 C83.1266671,70.7066677 83.2466659,70.8866659 83.4,71.04 C83.5533341,71.1933341 83.7333323,71.3149995 83.94,71.405 C84.1466677,71.4950004 84.3699988,71.54 84.61,71.54 C84.9633351,71.54 85.268332,71.4583341 85.525,71.295 C85.7816679,71.1316659 85.976666,70.9433344 86.11,70.73 L86.62,71.13 C86.3399986,71.4833351 86.0316683,71.7366659 85.695,71.89 C85.3583316,72.0433341 84.9966686,72.12 84.61,72.12 C84.2633316,72.12 83.9416681,72.058334 83.645,71.935 C83.3483318,71.811666 83.0933344,71.6400011 82.88,71.42 C82.6666656,71.1999989 82.4983339,70.9400015 82.375,70.64 C82.251666,70.3399985 82.19,70.0133351 82.19,69.66 C82.19,69.3066649 82.2499994,68.9800015 82.37,68.68 C82.4900006,68.3799985 82.6566656,68.1200011 82.87,67.9 C83.0833344,67.6799989 83.3333319,67.508334 83.62,67.385 C83.9066681,67.2616661 84.216665,67.2 84.55,67.2 C84.9166685,67.2 85.2399986,67.2616661 85.52,67.385 C85.8000014,67.508334 86.0333324,67.674999 86.22,67.885 C86.4066676,68.095001 86.5483328,68.3399986 86.645,68.62 C86.7416671,68.9000014 86.79,69.1999984 86.79,69.52 Z M88.5,72.94 C88.6866676,73.1800012 88.9416651,73.3833325 89.265,73.55 C89.588335,73.7166675 89.9299982,73.8 90.29,73.8 C90.623335,73.8 90.9066655,73.7516672 91.14,73.655 C91.3733345,73.5583328 91.5616659,73.4266675 91.705,73.26 C91.8483341,73.0933325 91.953333,72.8983344 92.02,72.675 C92.086667,72.4516656 92.12,72.2133346 92.12,71.96 L92.12,71.08 L92.1,71.08 C91.9199991,71.3733348 91.6650016,71.5999992 91.335,71.76 C91.0049983,71.9200008 90.6700017,72 90.33,72 C89.9633315,72 89.6316681,71.9400006 89.335,71.82 C89.0383319,71.6999994 88.7850011,71.5350011 88.575,71.325 C88.364999,71.114999 88.2016673,70.8633348 88.085,70.57 C87.9683328,70.2766652 87.91,69.9600017 87.91,69.62 C87.91,69.286665 87.9683328,68.9733348 88.085,68.68 C88.2016673,68.3866652 88.364999,68.1300011 88.575,67.91 C88.7850011,67.6899989 89.0383319,67.5166673 89.335,67.39 C89.6316681,67.2633327 89.9633315,67.2 90.33,67.2 C90.6700017,67.2 91.0033317,67.2799992 91.33,67.44 C91.6566683,67.6000008 91.9133324,67.8299985 92.1,68.13 L92.12,68.13 L92.12,67.32 L92.8,67.32 L92.8,71.96 C92.8,72.2133346 92.7650004,72.4833319 92.695,72.77 C92.6249997,73.0566681 92.4950009,73.3199988 92.305,73.56 C92.114999,73.8000012 91.8566683,73.9999992 91.53,74.16 C91.2033317,74.3200008 90.7800026,74.4 90.26,74.4 C89.8266645,74.4 89.4133353,74.3166675 89.02,74.15 C88.6266647,73.9833325 88.2900014,73.7533348 88.01,73.46 L88.5,72.94 Z M88.63,69.6 C88.63,69.8466679 88.6699996,70.0799989 88.75,70.3 C88.8300004,70.5200011 88.9449992,70.7133325 89.095,70.88 C89.2450008,71.0466675 89.4299989,71.1783329 89.65,71.275 C89.8700011,71.3716672 90.1199986,71.42 90.4,71.42 C90.6600013,71.42 90.8999989,71.3766671 91.12,71.29 C91.3400011,71.2033329 91.5299992,71.0800008 91.69,70.92 C91.8500008,70.7599992 91.9749996,70.5683344 92.065,70.345 C92.1550004,70.1216656 92.2,69.8733347 92.2,69.6 C92.2,69.3533321 92.1550004,69.1200011 92.065,68.9 C91.9749996,68.6799989 91.8500008,68.4866675 91.69,68.32 C91.5299992,68.1533325 91.3400011,68.0200005 91.12,67.92 C90.8999989,67.8199995 90.6600013,67.77 90.4,67.77 C90.1199986,67.77 89.8700011,67.8199995 89.65,67.92 C89.4299989,68.0200005 89.2450008,68.1533325 89.095,68.32 C88.9449992,68.4866675 88.8300004,68.6799989 88.75,68.9 C88.6699996,69.1200011 88.63,69.3533321 88.63,69.6 Z M97.97,72 C97.9566666,71.8733327 97.9466667,71.7333341 97.94,71.58 C97.9333333,71.4266659 97.93,71.3000005 97.93,71.2 L97.91,71.2 C97.776666,71.4733347 97.5600015,71.6949992 97.26,71.865 C96.9599985,72.0350009 96.643335,72.12 96.31,72.12 C95.7166637,72.12 95.2716682,71.9433351 94.975,71.59 C94.6783319,71.2366649 94.53,70.7700029 94.53,70.19 L94.53,67.32 L95.21,67.32 L95.21,69.91 C95.21,70.1566679 95.2299998,70.379999 95.27,70.58 C95.3100002,70.780001 95.3783329,70.951666 95.475,71.095 C95.5716672,71.238334 95.7016659,71.3499996 95.865,71.43 C96.0283342,71.5100004 96.2333321,71.55 96.48,71.55 C96.6600009,71.55 96.8349992,71.5133337 97.005,71.44 C97.1750009,71.3666663 97.326666,71.2550007 97.46,71.105 C97.593334,70.9549993 97.6999996,70.7650012 97.78,70.535 C97.8600004,70.3049989 97.9,70.0333349 97.9,69.72 L97.9,67.32 L98.58,67.32 L98.58,70.97 C98.58,71.0966673 98.5833333,71.259999 98.59,71.46 C98.5966667,71.660001 98.6066666,71.8399992 98.62,72 L97.97,72 Z M101.08,72 L100.4,72 L100.4,64.44 L101.08,64.44 L101.08,72 Z M105.85,68.98 C105.85,68.5733313 105.743334,68.270001 105.53,68.07 C105.316666,67.869999 105.006669,67.77 104.6,67.77 C104.319999,67.77 104.060001,67.8199995 103.82,67.92 C103.579999,68.0200005 103.376667,68.1533325 103.21,68.32 L102.83,67.87 C103.023334,67.6766657 103.278332,67.5166673 103.595,67.39 C103.911668,67.2633327 104.269998,67.2 104.67,67.2 C104.923335,67.2 105.159999,67.2349996 105.38,67.305 C105.600001,67.3750003 105.793333,67.4799993 105.96,67.62 C106.126667,67.7600007 106.256666,67.9366656 106.35,68.15 C106.443334,68.3633344 106.49,68.6133319 106.49,68.9 L106.49,70.95 C106.49,71.1300009 106.496667,71.3166657 106.51,71.51 C106.523333,71.7033343 106.543333,71.866666 106.57,72 L105.96,72 C105.94,71.8866661 105.923333,71.763334 105.91,71.63 C105.896667,71.496666 105.89,71.3666673 105.89,71.24 L105.87,71.24 C105.656666,71.5533349 105.415001,71.7783326 105.145,71.915 C104.874999,72.0516674 104.550002,72.12 104.17,72.12 C103.989999,72.12 103.805001,72.0950002 103.615,72.045 C103.424999,71.9949998 103.251667,71.9133339 103.095,71.8 C102.938333,71.6866661 102.808334,71.5400009 102.705,71.36 C102.601666,71.1799991 102.55,70.9600013 102.55,70.7 C102.55,70.3399982 102.641666,70.0550011 102.825,69.845 C103.008334,69.6349989 103.253332,69.4783338 103.56,69.375 C103.866668,69.2716662 104.218331,69.2050002 104.615,69.175 C105.011669,69.1449999 105.423331,69.13 105.85,69.13 L105.85,68.98 Z M105.65,69.66 C105.369999,69.66 105.088335,69.6716665 104.805,69.695 C104.521665,69.7183335 104.265001,69.7649996 104.035,69.835 C103.804999,69.9050003 103.616667,70.006666 103.47,70.14 C103.323333,70.273334 103.25,70.4499989 103.25,70.67 C103.25,70.8366675 103.281666,70.9766661 103.345,71.09 C103.408334,71.2033339 103.493333,71.2949996 103.6,71.365 C103.706667,71.4350003 103.824999,71.4849998 103.955,71.515 C104.085001,71.5450001 104.216666,71.56 104.35,71.56 C104.590001,71.56 104.803332,71.5183337 104.99,71.435 C105.176668,71.3516662 105.333333,71.238334 105.46,71.095 C105.586667,70.951666 105.683333,70.7866676 105.75,70.6 C105.816667,70.4133324 105.85,70.2166677 105.85,70.01 L105.85,69.66 L105.65,69.66 Z M108.24,68.35 C108.24,68.2233327 108.236667,68.060001 108.23,67.86 C108.223333,67.659999 108.213333,67.4800008 108.2,67.32 L108.85,67.32 C108.863333,67.4466673 108.873333,67.5866659 108.88,67.74 C108.886667,67.8933341 108.89,68.0199995 108.89,68.12 L108.91,68.12 C109.043334,67.8466653 109.243332,67.6250009 109.51,67.455 C109.776668,67.2849992 110.076665,67.2 110.41,67.2 C110.496667,67.2 110.575,67.2033333 110.645,67.21 C110.715,67.2166667 110.786666,67.2299999 110.86,67.25 L110.77,67.89 C110.73,67.8766666 110.663334,67.8633334 110.57,67.85 C110.476666,67.8366666 110.383334,67.83 110.29,67.83 C110.109999,67.83 109.936668,67.863333 109.77,67.93 C109.603333,67.996667 109.458334,68.1016659 109.335,68.245 C109.211666,68.388334 109.111667,68.5716656 109.035,68.795 C108.958333,69.0183344 108.92,69.2866651 108.92,69.6 L108.92,72 L108.24,72 L108.24,68.35 Z" id="Avenir-Next-Regular" fill="#FFFFFF"></path>
        <path d="M23,113.92 L24.09,113.92 L27.14,121 L25.7,121 L25.04,119.38 L21.97,119.38 L21.33,121 L19.92,121 L23,113.92 Z M24.6,118.3 L23.51,115.42 L22.4,118.3 L24.6,118.3 Z M27,116.2 L28.31,116.2 L29.57,119.7 L29.59,119.7 L30.86,116.2 L32.13,116.2 L30.22,121 L28.94,121 L27,116.2 Z M36.23,118.12 C36.23,117.966666 36.2083335,117.820001 36.165,117.68 C36.1216664,117.539999 36.0533338,117.416667 35.96,117.31 C35.8666662,117.203333 35.748334,117.118334 35.605,117.055 C35.4616659,116.991666 35.2933343,116.96 35.1,116.96 C34.7399982,116.96 34.4350012,117.068332 34.185,117.285 C33.9349988,117.501668 33.7966668,117.779998 33.77,118.12 L36.23,118.12 Z M37.43,118.66 L37.43,118.82 C37.43,118.873334 37.4266667,118.926666 37.42,118.98 L33.77,118.98 C33.7833334,119.153334 33.828333,119.311666 33.905,119.455 C33.981667,119.598334 34.0833327,119.721666 34.21,119.825 C34.3366673,119.928334 34.4799992,120.01 34.64,120.07 C34.8000008,120.13 34.9666658,120.16 35.14,120.16 C35.4400015,120.16 35.6933323,120.105001 35.9,119.995 C36.1066677,119.884999 36.276666,119.733334 36.41,119.54 L37.21,120.18 C36.7366643,120.820003 36.0500045,121.14 35.15,121.14 C34.7766648,121.14 34.4333349,121.081667 34.12,120.965 C33.8066651,120.848333 33.5350011,120.683334 33.305,120.47 C33.0749989,120.256666 32.8950007,119.995002 32.765,119.685 C32.6349994,119.374998 32.57,119.023335 32.57,118.63 C32.57,118.243331 32.6349994,117.891668 32.765,117.575 C32.8950007,117.258332 33.0733322,116.988334 33.3,116.765 C33.5266678,116.541666 33.7949985,116.368334 34.105,116.245 C34.4150015,116.121666 34.7499982,116.06 35.11,116.06 C35.443335,116.06 35.7516653,116.114999 36.035,116.225 C36.3183348,116.335001 36.5633323,116.498332 36.77,116.715 C36.9766677,116.931668 37.1383328,117.201665 37.255,117.525 C37.3716673,117.848335 37.43,118.226664 37.43,118.66 Z M38.59,116.2 L39.73,116.2 L39.73,116.97 L39.75,116.97 C39.8566672,116.729999 40.0416654,116.518334 40.305,116.335 C40.5683347,116.151666 40.8799982,116.06 41.24,116.06 C41.5533349,116.06 41.8216656,116.114999 42.045,116.225 C42.2683344,116.335001 42.451666,116.479999 42.595,116.66 C42.7383341,116.840001 42.843333,117.046666 42.91,117.28 C42.976667,117.513334 43.01,117.753332 43.01,118 L43.01,121 L41.81,121 L41.81,118.34 C41.81,118.199999 41.8000001,118.053334 41.78,117.9 C41.7599999,117.746666 41.716667,117.608334 41.65,117.485 C41.583333,117.361666 41.4916672,117.26 41.375,117.18 C41.2583328,117.1 41.1033343,117.06 40.91,117.06 C40.7166657,117.06 40.5500007,117.098333 40.41,117.175 C40.2699993,117.251667 40.1550005,117.349999 40.065,117.47 C39.9749995,117.590001 39.9066669,117.728333 39.86,117.885 C39.8133331,118.041667 39.79,118.199999 39.79,118.36 L39.79,121 L38.59,121 L38.59,116.2 Z M44.43,116.2 L45.63,116.2 L45.63,121 L44.43,121 L44.43,116.2 Z M44.26,114.57 C44.26,114.376666 44.331666,114.208334 44.475,114.065 C44.6183341,113.921666 44.7999989,113.85 45.02,113.85 C45.2400011,113.85 45.4249992,113.918333 45.575,114.055 C45.7250007,114.191667 45.8,114.363332 45.8,114.57 C45.8,114.776668 45.7250007,114.948333 45.575,115.085 C45.4249992,115.221667 45.2400011,115.29 45.02,115.29 C44.7999989,115.29 44.6183341,115.218334 44.475,115.075 C44.331666,114.931666 44.26,114.763334 44.26,114.57 Z M47.09,116.2 L48.24,116.2 L48.24,117 L48.26,117 C48.393334,116.719999 48.5799988,116.493334 48.82,116.32 C49.0600012,116.146666 49.3399984,116.06 49.66,116.06 C49.7066669,116.06 49.7566664,116.061667 49.81,116.065 C49.8633336,116.068333 49.9099998,116.076667 49.95,116.09 L49.95,117.19 C49.8699996,117.17 49.8016669,117.156667 49.745,117.15 C49.688333,117.143333 49.6333336,117.14 49.58,117.14 C49.3066653,117.14 49.0866675,117.189999 48.92,117.29 C48.7533325,117.39 48.6233338,117.509999 48.53,117.65 C48.4366662,117.790001 48.3733335,117.933333 48.34,118.08 C48.3066665,118.226667 48.29,118.343333 48.29,118.43 L48.29,121 L47.09,121 L47.09,116.2 Z M53.29,113.92 L54.96,113.92 L58.25,119.22 L58.27,119.22 L58.27,113.92 L59.53,113.92 L59.53,121 L57.93,121 L54.57,115.53 L54.55,115.53 L54.55,121 L53.29,121 L53.29,113.92 Z M64.41,118.12 C64.41,117.966666 64.3883335,117.820001 64.345,117.68 C64.3016664,117.539999 64.2333338,117.416667 64.14,117.31 C64.0466662,117.203333 63.9283341,117.118334 63.785,117.055 C63.641666,116.991666 63.4733343,116.96 63.28,116.96 C62.9199982,116.96 62.6150013,117.068332 62.365,117.285 C62.1149988,117.501668 61.9766668,117.779998 61.95,118.12 L64.41,118.12 Z M65.61,118.66 L65.61,118.82 C65.61,118.873334 65.6066667,118.926666 65.6,118.98 L61.95,118.98 C61.9633334,119.153334 62.0083329,119.311666 62.085,119.455 C62.161667,119.598334 62.2633327,119.721666 62.39,119.825 C62.5166673,119.928334 62.6599992,120.01 62.82,120.07 C62.9800008,120.13 63.1466658,120.16 63.32,120.16 C63.6200015,120.16 63.8733323,120.105001 64.08,119.995 C64.2866677,119.884999 64.456666,119.733334 64.59,119.54 L65.39,120.18 C64.9166643,120.820003 64.2300045,121.14 63.33,121.14 C62.9566648,121.14 62.6133349,121.081667 62.3,120.965 C61.9866651,120.848333 61.7150012,120.683334 61.485,120.47 C61.2549988,120.256666 61.0750006,119.995002 60.945,119.685 C60.8149994,119.374998 60.75,119.023335 60.75,118.63 C60.75,118.243331 60.8149994,117.891668 60.945,117.575 C61.0750006,117.258332 61.2533322,116.988334 61.48,116.765 C61.7066678,116.541666 61.9749985,116.368334 62.285,116.245 C62.5950015,116.121666 62.9299982,116.06 63.29,116.06 C63.623335,116.06 63.9316653,116.114999 64.215,116.225 C64.4983347,116.335001 64.7433323,116.498332 64.95,116.715 C65.1566677,116.931668 65.3183327,117.201665 65.435,117.525 C65.5516673,117.848335 65.61,118.226664 65.61,118.66 Z M67.89,118.45 L66.16,116.2 L67.6,116.2 L68.64,117.69 L69.71,116.2 L71.09,116.2 L69.37,118.45 L71.33,121 L69.87,121 L68.62,119.25 L67.36,121 L65.94,121 L67.89,118.45 Z M71.35,117.16 L71.35,116.2 L72.19,116.2 L72.19,114.81 L73.37,114.81 L73.37,116.2 L74.57,116.2 L74.57,117.16 L73.37,117.16 L73.37,119.39 C73.37,119.603334 73.4083329,119.779999 73.485,119.92 C73.561667,120.060001 73.733332,120.13 74,120.13 C74.0800004,120.13 74.1666662,120.121667 74.26,120.105 C74.3533338,120.088333 74.4366663,120.063333 74.51,120.03 L74.55,120.97 C74.4433328,121.01 74.3166674,121.041667 74.17,121.065 C74.0233326,121.088333 73.883334,121.1 73.75,121.1 C73.4299984,121.1 73.170001,121.055 72.97,120.965 C72.769999,120.875 72.6116672,120.751667 72.495,120.595 C72.3783327,120.438333 72.2983335,120.258334 72.255,120.055 C72.2116664,119.851666 72.19,119.633335 72.19,119.4 L72.19,117.16 L71.35,117.16 Z M78,113.92 L80.51,113.92 C80.9700023,113.92 81.433331,113.979999 81.9,114.1 C82.366669,114.220001 82.7866648,114.418332 83.16,114.695 C83.5333352,114.971668 83.8366655,115.334998 84.07,115.785 C84.3033345,116.235002 84.42,116.79333 84.42,117.46 C84.42,118.080003 84.3033345,118.613331 84.07,119.06 C83.8366655,119.506669 83.5333352,119.873332 83.16,120.16 C82.7866648,120.446668 82.366669,120.658333 81.9,120.795 C81.433331,120.931667 80.9700023,121 80.51,121 L78,121 L78,113.92 Z M80.31,119.9 C80.6366683,119.9 80.9633317,119.861667 81.29,119.785 C81.6166683,119.708333 81.9116653,119.578334 82.175,119.395 C82.4383347,119.211666 82.6533325,118.963335 82.82,118.65 C82.9866675,118.336665 83.07,117.940002 83.07,117.46 C83.07,116.953331 82.9866675,116.540002 82.82,116.22 C82.6533325,115.899998 82.4383347,115.650001 82.175,115.47 C81.9116653,115.289999 81.6166683,115.166667 81.29,115.1 C80.9633317,115.033333 80.6366683,115 80.31,115 L79.26,115 L79.26,119.9 L80.31,119.9 Z M88.96,118.12 C88.96,117.966666 88.9383336,117.820001 88.895,117.68 C88.8516665,117.539999 88.7833338,117.416667 88.69,117.31 C88.5966662,117.203333 88.4783341,117.118334 88.335,117.055 C88.191666,116.991666 88.0233343,116.96 87.83,116.96 C87.4699982,116.96 87.1650013,117.068332 86.915,117.285 C86.6649988,117.501668 86.5266668,117.779998 86.5,118.12 L88.96,118.12 Z M90.16,118.66 L90.16,118.82 C90.16,118.873334 90.1566667,118.926666 90.15,118.98 L86.5,118.98 C86.5133334,119.153334 86.5583329,119.311666 86.635,119.455 C86.7116671,119.598334 86.8133327,119.721666 86.94,119.825 C87.0666673,119.928334 87.2099992,120.01 87.37,120.07 C87.5300008,120.13 87.6966658,120.16 87.87,120.16 C88.1700015,120.16 88.4233323,120.105001 88.63,119.995 C88.8366677,119.884999 89.006666,119.733334 89.14,119.54 L89.94,120.18 C89.4666643,120.820003 88.7800045,121.14 87.88,121.14 C87.5066648,121.14 87.1633349,121.081667 86.85,120.965 C86.5366651,120.848333 86.2650011,120.683334 86.035,120.47 C85.8049988,120.256666 85.6250007,119.995002 85.495,119.685 C85.3649994,119.374998 85.3,119.023335 85.3,118.63 C85.3,118.243331 85.3649994,117.891668 85.495,117.575 C85.6250007,117.258332 85.8033322,116.988334 86.03,116.765 C86.2566678,116.541666 86.5249984,116.368334 86.835,116.245 C87.1450015,116.121666 87.4799982,116.06 87.84,116.06 C88.173335,116.06 88.4816653,116.114999 88.765,116.225 C89.0483347,116.335001 89.2933323,116.498332 89.5,116.715 C89.7066677,116.931668 89.8683327,117.201665 89.985,117.525 C90.1016672,117.848335 90.16,118.226664 90.16,118.66 Z M97.05,116.06 C97.3633349,116.06 97.6316655,116.114999 97.855,116.225 C98.0783344,116.335001 98.261666,116.479999 98.405,116.66 C98.548334,116.840001 98.653333,117.046666 98.72,117.28 C98.786667,117.513334 98.82,117.753332 98.82,118 L98.82,121 L97.62,121 L97.62,118.34 C97.62,118.199999 97.6100001,118.053334 97.59,117.9 C97.5699999,117.746666 97.526667,117.608334 97.46,117.485 C97.393333,117.361666 97.3016672,117.26 97.185,117.18 C97.0683327,117.1 96.9133343,117.06 96.72,117.06 C96.5333324,117.06 96.373334,117.1 96.24,117.18 C96.106666,117.26 95.9966671,117.363333 95.91,117.49 C95.8233329,117.616667 95.7600002,117.758333 95.72,117.915 C95.6799998,118.071667 95.66,118.226666 95.66,118.38 L95.66,121 L94.46,121 L94.46,118.1 C94.46,117.799999 94.388334,117.551668 94.245,117.355 C94.1016659,117.158332 93.8766682,117.06 93.57,117.06 C93.3899991,117.06 93.233334,117.098333 93.1,117.175 C92.966666,117.251667 92.8583337,117.349999 92.775,117.47 C92.6916662,117.590001 92.6283335,117.728333 92.585,117.885 C92.5416664,118.041667 92.52,118.199999 92.52,118.36 L92.52,121 L91.32,121 L91.32,116.2 L92.46,116.2 L92.46,116.97 L92.48,116.97 C92.5333336,116.849999 92.6049995,116.736667 92.695,116.63 C92.7850004,116.523333 92.891666,116.426667 93.015,116.34 C93.1383339,116.253333 93.2799992,116.185 93.44,116.135 C93.6000008,116.085 93.7766657,116.06 93.97,116.06 C94.3433352,116.06 94.6533321,116.143332 94.9,116.31 C95.1466679,116.476667 95.336666,116.696665 95.47,116.97 C95.6300008,116.676665 95.843332,116.451667 96.11,116.295 C96.376668,116.138333 96.6899982,116.06 97.05,116.06 Z M100.24,116.2 L101.44,116.2 L101.44,121 L100.24,121 L100.24,116.2 Z M100.07,114.57 C100.07,114.376666 100.141666,114.208334 100.285,114.065 C100.428334,113.921666 100.609999,113.85 100.83,113.85 C101.050001,113.85 101.234999,113.918333 101.385,114.055 C101.535001,114.191667 101.61,114.363332 101.61,114.57 C101.61,114.776668 101.535001,114.948333 101.385,115.085 C101.234999,115.221667 101.050001,115.29 100.83,115.29 C100.609999,115.29 100.428334,115.218334 100.285,115.075 C100.141666,114.931666 100.07,114.763334 100.07,114.57 Z M105.46,113.92 L108.22,113.92 C108.486668,113.92 108.749999,113.951666 109.01,114.015 C109.270001,114.078334 109.501666,114.181666 109.705,114.325 C109.908334,114.468334 110.073333,114.653332 110.2,114.88 C110.326667,115.106668 110.39,115.379998 110.39,115.7 C110.39,116.100002 110.276668,116.429999 110.05,116.69 C109.823332,116.950001 109.526668,117.136666 109.16,117.25 L109.16,117.27 C109.606669,117.33 109.973332,117.503332 110.26,117.79 C110.546668,118.076668 110.69,118.459998 110.69,118.94 C110.69,119.326669 110.613334,119.651665 110.46,119.915 C110.306666,120.178335 110.105001,120.389999 109.855,120.55 C109.604999,120.710001 109.318335,120.825 108.995,120.895 C108.671665,120.965 108.343335,121 108.01,121 L105.46,121 L105.46,113.92 Z M106.72,116.8 L107.84,116.8 C108.260002,116.8 108.579999,116.716667 108.8,116.55 C109.020001,116.383332 109.13,116.146668 109.13,115.84 C109.13,115.519998 109.016668,115.293334 108.79,115.16 C108.563332,115.026666 108.210002,114.96 107.73,114.96 L106.72,114.96 L106.72,116.8 Z M106.72,119.94 L107.85,119.94 C108.010001,119.94 108.183332,119.928333 108.37,119.905 C108.556668,119.881667 108.728333,119.833334 108.885,119.76 C109.041667,119.686666 109.171666,119.580001 109.275,119.44 C109.378334,119.299999 109.43,119.113335 109.43,118.88 C109.43,118.506665 109.303335,118.246667 109.05,118.1 C108.796665,117.953333 108.413336,117.88 107.9,117.88 L106.72,117.88 L106.72,119.94 Z M111.59,118.58 C111.59,118.199998 111.658333,117.855002 111.795,117.545 C111.931667,117.234998 112.116665,116.970001 112.35,116.75 C112.583335,116.529999 112.859998,116.360001 113.18,116.24 C113.500002,116.119999 113.839998,116.06 114.2,116.06 C114.560002,116.06 114.899998,116.119999 115.22,116.24 C115.540002,116.360001 115.816665,116.529999 116.05,116.75 C116.283334,116.970001 116.468333,117.234998 116.605,117.545 C116.741667,117.855002 116.81,118.199998 116.81,118.58 C116.81,118.960002 116.741667,119.306665 116.605,119.62 C116.468333,119.933335 116.283334,120.201666 116.05,120.425 C115.816665,120.648334 115.540002,120.823333 115.22,120.95 C114.899998,121.076667 114.560002,121.14 114.2,121.14 C113.839998,121.14 113.500002,121.076667 113.18,120.95 C112.859998,120.823333 112.583335,120.648334 112.35,120.425 C112.116665,120.201666 111.931667,119.933335 111.795,119.62 C111.658333,119.306665 111.59,118.960002 111.59,118.58 Z M112.81,118.58 C112.81,118.766668 112.838333,118.953332 112.895,119.14 C112.951667,119.326668 113.036666,119.493333 113.15,119.64 C113.263334,119.786667 113.406666,119.906666 113.58,120 C113.753334,120.093334 113.959999,120.14 114.2,120.14 C114.440001,120.14 114.646666,120.093334 114.82,120 C114.993334,119.906666 115.136666,119.786667 115.25,119.64 C115.363334,119.493333 115.448333,119.326668 115.505,119.14 C115.561667,118.953332 115.59,118.766668 115.59,118.58 C115.59,118.393332 115.561667,118.208334 115.505,118.025 C115.448333,117.841666 115.363334,117.676667 115.25,117.53 C115.136666,117.383333 114.993334,117.265 114.82,117.175 C114.646666,117.085 114.440001,117.04 114.2,117.04 C113.959999,117.04 113.753334,117.085 113.58,117.175 C113.406666,117.265 113.263334,117.383333 113.15,117.53 C113.036666,117.676667 112.951667,117.841666 112.895,118.025 C112.838333,118.208334 112.81,118.393332 112.81,118.58 Z M117.99,113.44 L119.19,113.44 L119.19,121 L117.99,121 L117.99,113.44 Z M125.53,121 L124.39,121 L124.39,120.28 L124.37,120.28 C124.203333,120.560001 123.971668,120.773333 123.675,120.92 C123.378332,121.066667 123.060002,121.14 122.72,121.14 C122.353331,121.14 122.025001,121.071667 121.735,120.935 C121.444999,120.798333 121.198334,120.615001 120.995,120.385 C120.791666,120.154999 120.635001,119.885002 120.525,119.575 C120.414999,119.264998 120.36,118.933335 120.36,118.58 C120.36,118.226665 120.416666,117.896668 120.53,117.59 C120.643334,117.283332 120.803332,117.016668 121.01,116.79 C121.216668,116.563332 121.463332,116.385001 121.75,116.255 C122.036668,116.124999 122.349998,116.06 122.69,116.06 C122.910001,116.06 123.106666,116.085 123.28,116.135 C123.453334,116.185 123.604999,116.246666 123.735,116.32 C123.865001,116.393334 123.976666,116.473333 124.07,116.56 C124.163334,116.646667 124.24,116.73 124.3,116.81 L124.33,116.81 L124.33,113.44 L125.53,113.44 L125.53,121 Z M121.58,118.58 C121.58,118.766668 121.608333,118.953332 121.665,119.14 C121.721667,119.326668 121.806666,119.493333 121.92,119.64 C122.033334,119.786667 122.176666,119.906666 122.35,120 C122.523334,120.093334 122.726665,120.14 122.96,120.14 C123.180001,120.14 123.376666,120.095 123.55,120.005 C123.723334,119.915 123.871666,119.796667 123.995,119.65 C124.118334,119.503333 124.211666,119.338334 124.275,119.155 C124.338334,118.971666 124.37,118.786668 124.37,118.6 C124.37,118.413332 124.338334,118.226668 124.275,118.04 C124.211666,117.853332 124.118334,117.686667 123.995,117.54 C123.871666,117.393333 123.723334,117.273334 123.55,117.18 C123.376666,117.086666 123.180001,117.04 122.96,117.04 C122.726665,117.04 122.523334,117.085 122.35,117.175 C122.176666,117.265 122.033334,117.383333 121.92,117.53 C121.806666,117.676667 121.721667,117.841666 121.665,118.025 C121.608333,118.208334 121.58,118.393332 121.58,118.58 Z" id="Avenir-Next-Demi-Bol" fill="#FFFFFF"></path>
        <path d="M22.07,45 L20.09,45 L25.616,32.256 L27.236,32.256 L32.708,45 L30.692,45 L29.396,41.868 L23.348,41.868 L22.07,45 Z M23.978,40.302 L28.748,40.302 L26.372,34.326 L23.978,40.302 Z M39.566,39.474 C39.566,38.8379968 39.3740019,38.3670015 38.99,38.061 C38.6059981,37.7549985 38.0960032,37.602 37.46,37.602 C36.9799976,37.602 36.5270021,37.6949991 36.101,37.881 C35.6749979,38.0670009 35.3180014,38.3039986 35.03,38.592 L34.13,37.512 C34.5500021,37.115998 35.062997,36.8040011 35.669,36.576 C36.275003,36.3479989 36.9259965,36.234 37.622,36.234 C38.2340031,36.234 38.7649978,36.3209991 39.215,36.495 C39.6650023,36.6690009 40.0339986,36.9059985 40.322,37.206 C40.6100014,37.5060015 40.8259993,37.859998 40.97,38.268 C41.1140007,38.676002 41.186,39.1139977 41.186,39.582 L41.186,43.308 C41.186,43.5960014 41.1949999,43.8989984 41.213,44.217 C41.2310001,44.5350016 41.2639998,44.795999 41.312,45 L39.782,45 C39.6859995,44.591998 39.638,44.184002 39.638,43.776 L39.584,43.776 C39.2719984,44.2320023 38.8790024,44.5859987 38.405,44.838 C37.9309976,45.0900013 37.3700032,45.216 36.722,45.216 C36.3859983,45.216 36.0350018,45.1710005 35.669,45.081 C35.3029982,44.9909995 34.9700015,44.844001 34.67,44.64 C34.3699985,44.435999 34.121001,44.1660017 33.923,43.83 C33.724999,43.4939983 33.626,43.0800025 33.626,42.588 C33.626,41.9399968 33.7999983,41.4270019 34.148,41.049 C34.4960017,40.6709981 34.9519972,40.383001 35.516,40.185 C36.0800028,39.986999 36.7159965,39.8580003 37.424,39.798 C38.1320035,39.7379997 38.8459964,39.708 39.566,39.708 L39.566,39.474 Z M39.152,40.932 C38.7319979,40.932 38.2970023,40.9499998 37.847,40.986 C37.3969978,41.0220002 36.9890018,41.0939995 36.623,41.202 C36.2569982,41.3100005 35.9540012,41.4719989 35.714,41.688 C35.4739988,41.9040011 35.354,42.1919982 35.354,42.552 C35.354,42.8040013 35.4049995,43.0139992 35.507,43.182 C35.6090005,43.3500008 35.7439992,43.4879995 35.912,43.596 C36.0800008,43.7040005 36.265999,43.7789998 36.47,43.821 C36.674001,43.8630002 36.8839989,43.884 37.1,43.884 C37.892004,43.884 38.5009979,43.6470024 38.927,43.173 C39.3530021,42.6989976 39.566,42.1020036 39.566,41.382 L39.566,40.932 L39.152,40.932 Z M44.102,32.256 L48.494,32.256 C48.9740024,32.256 49.4539976,32.3099995 49.934,32.418 C50.4140024,32.5260005 50.8429981,32.7059987 51.221,32.958 C51.5990019,33.2100013 51.9049988,33.539998 52.139,33.948 C52.3730012,34.356002 52.49,34.8659969 52.49,35.478 C52.49,36.1860035 52.286002,36.7799976 51.878,37.26 C51.469998,37.7400024 50.9300034,38.0699991 50.258,38.25 L50.258,38.286 C50.666002,38.3340002 51.0439983,38.4389992 51.392,38.601 C51.7400017,38.7630008 52.0399987,38.9759987 52.292,39.24 C52.5440013,39.5040013 52.7389993,39.8159982 52.877,40.176 C53.0150007,40.5360018 53.084,40.9379978 53.084,41.382 C53.084,41.9940031 52.9580013,42.5279977 52.706,42.984 C52.4539987,43.4400023 52.1120022,43.8149985 51.68,44.109 C51.2479978,44.4030015 50.7410029,44.6249993 50.159,44.775 C49.5769971,44.9250008 48.9560033,45 48.296,45 L44.102,45 L44.102,32.256 Z M45.884,37.638 L48.206,37.638 C48.5420017,37.638 48.8629985,37.5990004 49.169,37.521 C49.4750015,37.4429996 49.7419989,37.3230008 49.97,37.161 C50.1980011,36.9989992 50.3779993,36.7950012 50.51,36.549 C50.6420007,36.3029988 50.708,36.0060017 50.708,35.658 C50.708,34.9739966 50.4560025,34.4850015 49.952,34.191 C49.4479975,33.8969985 48.7700043,33.75 47.918,33.75 L45.884,33.75 L45.884,37.638 Z M45.884,43.488 L48.116,43.488 C48.4880019,43.488 48.8629981,43.4550003 49.241,43.389 C49.6190019,43.3229997 49.9609985,43.2060008 50.267,43.038 C50.5730015,42.8699992 50.8189991,42.6450014 51.005,42.363 C51.1910009,42.0809986 51.284,41.7240022 51.284,41.292 C51.284,40.5359962 51.0260026,39.9900017 50.51,39.654 C49.9939974,39.3179983 49.2500049,39.15 48.278,39.15 L45.884,39.15 L45.884,43.488 Z M57.242,43.65 L57.242,45 L55.604,45 L55.604,31.392 L57.296,31.392 L57.296,37.746 L57.35,37.746 C57.6380014,37.3259979 58.0399974,36.9690015 58.556,36.675 C59.0720026,36.3809985 59.6839965,36.234 60.392,36.234 C61.0280032,36.234 61.6069974,36.3479989 62.129,36.576 C62.6510026,36.8040011 63.1009981,37.121998 63.479,37.53 C63.8570019,37.938002 64.147999,38.4149973 64.352,38.961 C64.556001,39.5070027 64.658,40.0919969 64.658,40.716 C64.658,41.3400031 64.556001,41.9279972 64.352,42.48 C64.147999,43.0320028 63.8600019,43.511998 63.488,43.92 C63.1159981,44.328002 62.6660026,44.6489988 62.138,44.883 C61.6099974,45.1170012 61.0160033,45.234 60.356,45.234 C59.7439969,45.234 59.1620028,45.0990014 58.61,44.829 C58.0579972,44.5589986 57.6140017,44.1660026 57.278,43.65 L57.242,43.65 Z M62.912,40.716 C62.912,40.319998 62.8520006,39.9360019 62.732,39.564 C62.6119994,39.1919981 62.4320012,38.8620014 62.192,38.574 C61.9519988,38.2859986 61.6550018,38.0580008 61.301,37.89 C60.9469982,37.7219992 60.5360023,37.638 60.068,37.638 C59.6359978,37.638 59.2430018,37.7219992 58.889,37.89 C58.5349982,38.0580008 58.2320013,38.2859986 57.98,38.574 C57.7279987,38.8620014 57.5330007,39.1919981 57.395,39.564 C57.2569993,39.9360019 57.188,40.325998 57.188,40.734 C57.188,41.142002 57.2569993,41.5319981 57.395,41.904 C57.5330007,42.2760019 57.7279987,42.6029986 57.98,42.885 C58.2320013,43.1670014 58.5349982,43.3919992 58.889,43.56 C59.2430018,43.7280008 59.6359978,43.812 60.068,43.812 C60.5360023,43.812 60.9469982,43.7250009 61.301,43.551 C61.6550018,43.3769991 61.9519988,43.1460014 62.192,42.858 C62.4320012,42.5699986 62.6119994,42.2400019 62.732,41.868 C62.8520006,41.4959981 62.912,41.112002 62.912,40.716 Z M78.032,43.02 C77.5279975,43.7040034 76.874004,44.2589979 76.07,44.685 C75.265996,45.1110021 74.3000056,45.324 73.172,45.324 C72.1999951,45.324 71.3030041,45.1590017 70.481,44.829 C69.6589959,44.4989984 68.951003,44.037003 68.357,43.443 C67.762997,42.848997 67.2980017,42.1410041 66.962,41.319 C66.6259983,40.4969959 66.458,39.5940049 66.458,38.61 C66.458,37.613995 66.6289983,36.7050041 66.971,35.883 C67.3130017,35.0609959 67.786997,34.3590029 68.393,33.777 C68.999003,33.1949971 69.7159959,32.7420016 70.544,32.418 C71.3720041,32.0939984 72.2719951,31.932 73.244,31.932 C73.6760022,31.932 74.1139978,31.9739996 74.558,32.058 C75.0020022,32.1420004 75.427998,32.2679992 75.836,32.436 C76.244002,32.6040008 76.6159983,32.8109988 76.952,33.057 C77.2880017,33.3030012 77.5759988,33.5879984 77.816,33.912 L76.412,34.992 C76.0999984,34.5599978 75.6590029,34.2030014 75.089,33.921 C74.5189972,33.6389986 73.9040033,33.498 73.244,33.498 C72.4999963,33.498 71.831003,33.6329986 71.237,33.903 C70.642997,34.1730013 70.1360021,34.5419977 69.716,35.01 C69.2959979,35.4780023 68.9720011,36.0209969 68.744,36.639 C68.5159989,37.2570031 68.402,37.9139965 68.402,38.61 C68.402,39.3300036 68.5129989,40.0019969 68.735,40.626 C68.9570011,41.2500031 69.2749979,41.7929977 69.689,42.255 C70.1030021,42.7170023 70.606997,43.0799987 71.201,43.344 C71.795003,43.6080013 72.4579963,43.74 73.19,43.74 C73.9100036,43.74 74.5639971,43.5960014 75.152,43.308 C75.7400029,43.0199986 76.2259981,42.6000028 76.61,42.048 L78.032,43.02 Z M85.736,38.628 C85.5559991,38.3519986 85.2860018,38.1210009 84.926,37.935 C84.5659982,37.7489991 84.182002,37.656 83.774,37.656 C83.3299978,37.656 82.9370017,37.7399992 82.595,37.908 C82.2529983,38.0760008 81.9620012,38.3009986 81.722,38.583 C81.4819988,38.8650014 81.2990006,39.1919981 81.173,39.564 C81.0469994,39.9360019 80.984,40.325998 80.984,40.734 C80.984,41.142002 81.0469994,41.5319981 81.173,41.904 C81.2990006,42.2760019 81.4819988,42.6029986 81.722,42.885 C81.9620012,43.1670014 82.2559983,43.3919992 82.604,43.56 C82.9520017,43.7280008 83.3479978,43.812 83.792,43.812 C84.2240022,43.812 84.6169982,43.7280008 84.971,43.56 C85.3250018,43.3919992 85.6159989,43.1640014 85.844,42.876 L86.978,43.902 C86.6179982,44.3220021 86.1680027,44.6489988 85.628,44.883 C85.0879973,45.1170012 84.4760034,45.234 83.792,45.234 C83.1319967,45.234 82.5230028,45.1260011 81.965,44.91 C81.4069972,44.6939989 80.924002,44.391002 80.516,44.001 C80.107998,43.610998 79.7870012,43.1400028 79.553,42.588 C79.3189988,42.0359972 79.202,41.4180034 79.202,40.734 C79.202,40.0619966 79.3159989,39.4500028 79.544,38.898 C79.7720011,38.3459972 80.089998,37.872002 80.498,37.476 C80.906002,37.079998 81.3889972,36.7740011 81.947,36.558 C82.5050028,36.3419989 83.1079968,36.234 83.756,36.234 C84.356003,36.234 84.952997,36.3539988 85.547,36.594 C86.141003,36.8340012 86.6119983,37.1819977 86.96,37.638 L85.736,38.628 Z" id="AaBbCc" fill="#FFFFFF"></path>
        <path d="M21.602,94 L20.18,94 L25.688,81.256 L26.948,81.256 L32.42,94 L30.98,94 L29.576,90.652 L22.988,90.652 L21.602,94 Z M23.474,89.464 L29.09,89.464 L26.282,82.696 L23.474,89.464 Z M39.53,88.564 C39.53,87.8319963 39.3380019,87.2860018 38.954,86.926 C38.5699981,86.5659982 38.0120037,86.386 37.28,86.386 C36.7759975,86.386 36.3080022,86.4759991 35.876,86.656 C35.4439978,86.8360009 35.0780015,87.0759985 34.778,87.376 L34.094,86.566 C34.4420017,86.2179983 34.9009972,85.9300011 35.471,85.702 C36.0410028,85.4739989 36.6859964,85.36 37.406,85.36 C37.8620023,85.36 38.287998,85.4229994 38.684,85.549 C39.080002,85.6750006 39.4279985,85.8639987 39.728,86.116 C40.0280015,86.3680013 40.2619992,86.6859981 40.43,87.07 C40.5980008,87.4540019 40.682,87.9039974 40.682,88.42 L40.682,92.11 C40.682,92.4340016 40.6939999,92.7699983 40.718,93.118 C40.7420001,93.4660017 40.7779998,93.7599988 40.826,94 L39.728,94 C39.6919998,93.795999 39.6620001,93.5740012 39.638,93.334 C39.6139999,93.0939988 39.602,92.8600011 39.602,92.632 L39.566,92.632 C39.1819981,93.1960028 38.7470024,93.6009988 38.261,93.847 C37.7749976,94.0930012 37.1900034,94.216 36.506,94.216 C36.1819984,94.216 35.8490017,94.1710005 35.507,94.081 C35.1649983,93.9909995 34.8530014,93.844001 34.571,93.64 C34.2889986,93.435999 34.0550009,93.1720016 33.869,92.848 C33.6829991,92.5239984 33.59,92.1280023 33.59,91.66 C33.59,91.0119968 33.7549984,90.4990019 34.085,90.121 C34.4150017,89.7429981 34.8559972,89.4610009 35.408,89.275 C35.9600028,89.0889991 36.5929964,88.9690003 37.307,88.915 C38.0210036,88.8609997 38.7619962,88.834 39.53,88.834 L39.53,88.564 Z M39.17,89.788 C38.6659975,89.788 38.1590026,89.8089998 37.649,89.851 C37.1389974,89.8930002 36.6770021,89.9769994 36.263,90.103 C35.8489979,90.2290006 35.5100013,90.4119988 35.246,90.652 C34.9819987,90.8920012 34.85,91.209998 34.85,91.606 C34.85,91.9060015 34.9069994,92.157999 35.021,92.362 C35.1350006,92.566001 35.287999,92.7309994 35.48,92.857 C35.672001,92.9830006 35.8849988,93.0729997 36.119,93.127 C36.3530012,93.1810003 36.5899988,93.208 36.83,93.208 C37.2620022,93.208 37.6459983,93.1330008 37.982,92.983 C38.3180017,92.8329993 38.5999989,92.6290013 38.828,92.371 C39.0560011,92.1129987 39.2299994,91.8160017 39.35,91.48 C39.4700006,91.1439983 39.53,90.7900019 39.53,90.418 L39.53,89.788 L39.17,89.788 Z M43.904,81.256 L47.702,81.256 C48.1820024,81.256 48.6679975,81.3069995 49.16,81.409 C49.6520025,81.5110005 50.0929981,81.6849988 50.483,81.931 C50.873002,82.1770012 51.1909988,82.5099979 51.437,82.93 C51.6830012,83.3500021 51.806,83.8779968 51.806,84.514 C51.806,85.1860034 51.602002,85.7709975 51.194,86.269 C50.785998,86.7670025 50.2400034,87.0939992 49.556,87.25 L49.556,87.286 C50.3840041,87.3820005 51.0709973,87.7029973 51.617,88.249 C52.1630027,88.7950027 52.436,89.5359953 52.436,90.472 C52.436,91.0000026 52.3250011,91.4829978 52.103,91.921 C51.8809989,92.3590022 51.566002,92.7309985 51.158,93.037 C50.749998,93.3430015 50.2520029,93.5799992 49.664,93.748 C49.0759971,93.9160008 48.4160037,94 47.684,94 L43.904,94 L43.904,81.256 Z M45.2,86.836 L47.81,86.836 C48.1220016,86.836 48.4369984,86.8000004 48.755,86.728 C49.0730016,86.6559996 49.3639987,86.5330009 49.628,86.359 C49.8920013,86.1849991 50.1049992,85.9540014 50.267,85.666 C50.4290008,85.3779986 50.51,85.0240021 50.51,84.604 C50.51,84.195998 50.4290008,83.8510014 50.267,83.569 C50.1049992,83.2869986 49.8860014,83.0560009 49.61,82.876 C49.3339986,82.6959991 49.0100019,82.5670004 48.638,82.489 C48.2659981,82.4109996 47.8700021,82.372 47.45,82.372 L45.2,82.372 L45.2,86.836 Z M45.2,92.884 L47.612,92.884 C48.0800023,92.884 48.5269979,92.8390005 48.953,92.749 C49.3790021,92.6589996 49.7509984,92.515001 50.069,92.317 C50.3870016,92.118999 50.641999,91.8610016 50.834,91.543 C51.026001,91.2249984 51.122,90.8440022 51.122,90.4 C51.122,89.5599958 50.8370029,88.9330021 50.267,88.519 C49.6969972,88.1049979 48.8900052,87.898 47.846,87.898 L45.2,87.898 L45.2,92.884 Z M56.54,92.578 L56.54,94 L55.316,94 L55.316,80.392 L56.54,80.392 L56.54,87.034 L56.576,87.034 C56.9360018,86.4819972 57.4039971,86.0650014 57.98,85.783 C58.5560029,85.5009986 59.1499969,85.36 59.762,85.36 C60.4220033,85.36 61.0189973,85.4739989 61.553,85.702 C62.0870027,85.9300011 62.5429981,86.241998 62.921,86.638 C63.2990019,87.034002 63.592999,87.5019973 63.803,88.042 C64.0130011,88.5820027 64.118,89.1639969 64.118,89.788 C64.118,90.4120031 64.0130011,90.9939973 63.803,91.534 C63.592999,92.0740027 63.2990019,92.541998 62.921,92.938 C62.5429981,93.334002 62.0870027,93.6459989 61.553,93.874 C61.0189973,94.1020011 60.4220033,94.216 59.762,94.216 C59.1499969,94.216 58.5560029,94.0780014 57.98,93.802 C57.4039971,93.5259986 56.9360018,93.1180027 56.576,92.578 L56.54,92.578 Z M62.822,89.788 C62.822,89.3199977 62.7500007,88.8790021 62.606,88.465 C62.4619993,88.0509979 62.2550014,87.6910015 61.985,87.385 C61.7149987,87.0789985 61.382002,86.8360009 60.986,86.656 C60.589998,86.4759991 60.1400025,86.386 59.636,86.386 C59.1679977,86.386 58.736002,86.4729991 58.34,86.647 C57.943998,86.8210009 57.6020014,87.0609985 57.314,87.367 C57.0259986,87.6730015 56.8010008,88.0329979 56.639,88.447 C56.4769992,88.8610021 56.396,89.3079976 56.396,89.788 C56.396,90.2680024 56.4769992,90.7149979 56.639,91.129 C56.8010008,91.5430021 57.0259986,91.8999985 57.314,92.2 C57.6020014,92.5000015 57.943998,92.7369991 58.34,92.911 C58.736002,93.0850009 59.1679977,93.172 59.636,93.172 C60.1400025,93.172 60.589998,93.0850009 60.986,92.911 C61.382002,92.7369991 61.7149987,92.4970015 61.985,92.191 C62.2550014,91.8849985 62.4619993,91.5250021 62.606,91.111 C62.7500007,90.6969979 62.822,90.2560023 62.822,89.788 Z M77.546,91.948 C77.3299989,92.2720016 77.0690015,92.5779986 76.763,92.866 C76.4569985,93.1540014 76.103002,93.4059989 75.701,93.622 C75.298998,93.8380011 74.8550024,94.0089994 74.369,94.135 C73.8829976,94.2610006 73.3520029,94.324 72.776,94.324 C71.8159952,94.324 70.9280041,94.1560017 70.112,93.82 C69.2959959,93.4839983 68.5940029,93.019003 68.006,92.425 C67.4179971,91.830997 66.9590017,91.1260041 66.629,90.31 C66.2989984,89.4939959 66.134,88.6000049 66.134,87.628 C66.134,86.6559951 66.3019983,85.7620041 66.638,84.946 C66.9740017,84.1299959 67.438997,83.425003 68.033,82.831 C68.627003,82.236997 69.328996,81.7720017 70.139,81.436 C70.9490041,81.0999983 71.8279953,80.932 72.776,80.932 C73.2440023,80.932 73.7029978,80.9799995 74.153,81.076 C74.6030023,81.1720005 75.025998,81.3069991 75.422,81.481 C75.818002,81.6550009 76.1779984,81.8649988 76.502,82.111 C76.8260016,82.3570012 77.0959989,82.6359984 77.312,82.948 L76.232,83.74 C76.0999993,83.535999 75.9230011,83.332001 75.701,83.128 C75.4789989,82.923999 75.2180015,82.7440008 74.918,82.588 C74.6179985,82.4319992 74.2910018,82.3060005 73.937,82.21 C73.5829982,82.1139995 73.202002,82.066 72.794,82.066 C71.9659959,82.066 71.2250033,82.2159985 70.571,82.516 C69.9169967,82.8160015 69.3620023,83.2209974 68.906,83.731 C68.4499977,84.2410025 68.1020012,84.8319966 67.862,85.504 C67.6219988,86.1760034 67.502,86.8839963 67.502,87.628 C67.502,88.3720037 67.6249988,89.0799966 67.871,89.752 C68.1170012,90.4240034 68.4679977,91.0149974 68.924,91.525 C69.3800023,92.0350026 69.9349967,92.4399985 70.589,92.74 C71.2430033,93.0400015 71.9779959,93.19 72.794,93.19 C73.5260037,93.19 74.2219967,93.0400015 74.882,92.74 C75.5420033,92.4399985 76.0939978,91.9600033 76.538,91.3 L77.546,91.948 Z M85.772,87.502 C85.567999,87.1779984 85.2710019,86.911001 84.881,86.701 C84.4909981,86.490999 84.0680023,86.386 83.612,86.386 C83.1199975,86.386 82.676002,86.4729991 82.28,86.647 C81.883998,86.8210009 81.5450014,87.0609985 81.263,87.367 C80.9809986,87.6730015 80.7650008,88.0329979 80.615,88.447 C80.4649993,88.8610021 80.39,89.3079976 80.39,89.788 C80.39,90.2680024 80.4649993,90.711998 80.615,91.12 C80.7650008,91.528002 80.9779986,91.8849985 81.254,92.191 C81.5300014,92.4970015 81.865998,92.7369991 82.262,92.911 C82.658002,93.0850009 83.1019975,93.172 83.594,93.172 C84.1340027,93.172 84.5899981,93.070001 84.962,92.866 C85.3340019,92.661999 85.6399988,92.3980016 85.88,92.074 L86.798,92.758 C86.4379982,93.2020022 85.9970026,93.5559987 85.475,93.82 C84.9529974,94.0840013 84.3260037,94.216 83.594,94.216 C82.9099966,94.216 82.2920028,94.1050011 81.74,93.883 C81.1879972,93.6609989 80.717002,93.352002 80.327,92.956 C79.936998,92.559998 79.6340011,92.0920027 79.418,91.552 C79.2019989,91.0119973 79.094,90.4240032 79.094,89.788 C79.094,89.1519968 79.2019989,88.5640027 79.418,88.024 C79.6340011,87.4839973 79.936998,87.016002 80.327,86.62 C80.717002,86.223998 81.1879972,85.9150011 81.74,85.693 C82.2920028,85.4709989 82.9099966,85.36 83.594,85.36 C84.1580028,85.36 84.7309971,85.4829988 85.313,85.729 C85.8950029,85.9750012 86.3659982,86.3379976 86.726,86.818 L85.772,87.502 Z" id="AaBbCc-Copy" fill="#FFFFFF"></path>
        <path d="M25.4,130.256 L27.362,130.256 L32.852,143 L30.26,143 L29.072,140.084 L23.546,140.084 L22.394,143 L19.856,143 L25.4,130.256 Z M28.28,138.14 L26.318,132.956 L24.32,138.14 L28.28,138.14 Z M39.368,141.902 L39.314,141.902 C39.0979989,142.286002 38.7500024,142.600999 38.27,142.847 C37.7899976,143.093001 37.2440031,143.216 36.632,143.216 C36.2839983,143.216 35.9210019,143.171 35.543,143.081 C35.1649981,142.991 34.8170016,142.841001 34.499,142.631 C34.1809984,142.420999 33.9170011,142.145002 33.707,141.803 C33.496999,141.460998 33.392,141.038003 33.392,140.534 C33.392,139.885997 33.5749982,139.370002 33.941,138.986 C34.3070018,138.601998 34.7779971,138.308001 35.354,138.104 C35.9300029,137.899999 36.5689965,137.765 37.271,137.699 C37.9730035,137.633 38.6599966,137.6 39.332,137.6 L39.332,137.384 C39.332,136.843997 39.1370019,136.445001 38.747,136.187 C38.3569981,135.928999 37.8920027,135.8 37.352,135.8 C36.8959977,135.8 36.4580021,135.895999 36.038,136.088 C35.6179979,136.280001 35.2700014,136.513999 34.994,136.79 L33.878,135.476 C34.3700025,135.019998 34.9369968,134.678001 35.579,134.45 C36.2210032,134.221999 36.8719967,134.108 37.532,134.108 C38.3000038,134.108 38.9329975,134.215999 39.431,134.432 C39.9290025,134.648001 40.3219986,134.929998 40.61,135.278 C40.8980014,135.626002 41.0989994,136.015998 41.213,136.448 C41.3270006,136.880002 41.384,137.311998 41.384,137.744 L41.384,143 L39.368,143 L39.368,141.902 Z M39.332,139.058 L38.846,139.058 C38.4979983,139.058 38.1320019,139.073 37.748,139.103 C37.3639981,139.133 37.0100016,139.198999 36.686,139.301 C36.3619984,139.403001 36.0920011,139.546999 35.876,139.733 C35.6599989,139.919001 35.552,140.173998 35.552,140.498 C35.552,140.702001 35.5969996,140.872999 35.687,141.011 C35.7770005,141.149001 35.8939993,141.26 36.038,141.344 C36.1820007,141.428 36.3439991,141.488 36.524,141.524 C36.7040009,141.56 36.8839991,141.578 37.064,141.578 C37.8080037,141.578 38.3719981,141.380002 38.756,140.984 C39.1400019,140.587998 39.332,140.048003 39.332,139.364 L39.332,139.058 Z M44.012,130.256 L48.98,130.256 C49.4600024,130.256 49.9339977,130.312999 50.402,130.427 C50.8700023,130.541001 51.2869982,130.726999 51.653,130.985 C52.0190018,131.243001 52.3159989,131.575998 52.544,131.984 C52.7720011,132.392002 52.886,132.883997 52.886,133.46 C52.886,134.180004 52.682002,134.773998 52.274,135.242 C51.865998,135.710002 51.3320033,136.045999 50.672,136.25 L50.672,136.286 C51.476004,136.394001 52.1359974,136.705997 52.652,137.222 C53.1680026,137.738003 53.426,138.427996 53.426,139.292 C53.426,139.988003 53.2880014,140.572998 53.012,141.047 C52.7359986,141.521002 52.3730023,141.901999 51.923,142.19 C51.4729978,142.478001 50.9570029,142.684999 50.375,142.811 C49.7929971,142.937001 49.202003,143 48.602,143 L44.012,143 L44.012,130.256 Z M46.28,135.44 L48.296,135.44 C49.0520038,135.44 49.627998,135.290001 50.024,134.99 C50.420002,134.689999 50.618,134.264003 50.618,133.712 C50.618,133.135997 50.414002,132.728001 50.006,132.488 C49.597998,132.247999 48.9620043,132.128 48.098,132.128 L46.28,132.128 L46.28,135.44 Z M46.28,141.092 L48.314,141.092 C48.6020014,141.092 48.9139983,141.071 49.25,141.029 C49.5860017,140.987 49.8949986,140.900001 50.177,140.768 C50.4590014,140.635999 50.6929991,140.444001 50.879,140.192 C51.0650009,139.939999 51.158,139.604002 51.158,139.184 C51.158,138.511997 50.9300023,138.044001 50.474,137.78 C50.0179977,137.515999 49.3280046,137.384 48.404,137.384 L46.28,137.384 L46.28,141.092 Z M57.746,129.392 L57.746,135.458 L57.8,135.458 C57.9080005,135.313999 58.0459992,135.164001 58.214,135.008 C58.3820008,134.851999 58.5829988,134.708001 58.817,134.576 C59.0510012,134.443999 59.3239984,134.333 59.636,134.243 C59.9480016,134.153 60.301998,134.108 60.698,134.108 C61.3100031,134.108 61.8739974,134.224999 62.39,134.459 C62.9060026,134.693001 63.3499981,135.013998 63.722,135.422 C64.0940019,135.830002 64.381999,136.309997 64.586,136.862 C64.790001,137.414003 64.892,138.007997 64.892,138.644 C64.892,139.280003 64.793001,139.876997 64.595,140.435 C64.396999,140.993003 64.1150018,141.478998 63.749,141.893 C63.3829982,142.307002 62.9390026,142.636999 62.417,142.883 C61.8949974,143.129001 61.3040033,143.252 60.644,143.252 C60.0319969,143.252 59.4590027,143.120001 58.925,142.856 C58.3909973,142.591999 57.9740015,142.208003 57.674,141.704 L57.638,141.704 L57.638,143 L55.586,143 L55.586,129.392 L57.746,129.392 Z M62.696,138.644 C62.696,138.307998 62.6450005,137.975002 62.543,137.645 C62.4409995,137.314998 62.288001,137.018001 62.084,136.754 C61.879999,136.489999 61.6220016,136.277001 61.31,136.115 C60.9979984,135.952999 60.6320021,135.872 60.212,135.872 C59.815998,135.872 59.4620016,135.955999 59.15,136.124 C58.8379984,136.292001 58.5710011,136.507999 58.349,136.772 C58.1269989,137.036001 57.9590006,137.335998 57.845,137.672 C57.7309994,138.008002 57.674,138.343998 57.674,138.68 C57.674,139.016002 57.7309994,139.348998 57.845,139.679 C57.9590006,140.009002 58.1269989,140.305999 58.349,140.57 C58.5710011,140.834001 58.8379984,141.046999 59.15,141.209 C59.4620016,141.371001 59.815998,141.452 60.212,141.452 C60.6320021,141.452 60.9979984,141.368001 61.31,141.2 C61.6220016,141.031999 61.879999,140.816001 62.084,140.552 C62.288001,140.287999 62.4409995,139.988002 62.543,139.652 C62.6450005,139.315998 62.696,138.980002 62.696,138.644 Z M76.286,133.244 C75.9499983,132.787998 75.5120027,132.455001 74.972,132.245 C74.4319973,132.034999 73.9040026,131.93 73.388,131.93 C72.7279967,131.93 72.1280027,132.049999 71.588,132.29 C71.0479973,132.530001 70.583002,132.859998 70.193,133.28 C69.802998,133.700002 69.503001,134.191997 69.293,134.756 C69.082999,135.320003 68.978,135.931997 68.978,136.592 C68.978,137.288003 69.079999,137.923997 69.284,138.5 C69.488001,139.076003 69.7789981,139.570998 70.157,139.985 C70.5350019,140.399002 70.9879974,140.719999 71.516,140.948 C72.0440026,141.176001 72.6379967,141.29 73.298,141.29 C73.9820034,141.29 74.5879974,141.155001 75.116,140.885 C75.6440026,140.614999 76.0699984,140.258002 76.394,139.814 L78.212,141.092 C77.6479972,141.800004 76.9580041,142.348998 76.142,142.739 C75.3259959,143.129002 74.3720055,143.324 73.28,143.324 C72.283995,143.324 71.3690042,143.159002 70.535,142.829 C69.7009958,142.498998 68.984003,142.037003 68.384,141.443 C67.783997,140.848997 67.3160017,140.141004 66.98,139.319 C66.6439983,138.496996 66.476,137.588005 66.476,136.592 C66.476,135.571995 66.6529982,134.651004 67.007,133.829 C67.3610018,133.006996 67.8469969,132.308003 68.465,131.732 C69.0830031,131.155997 69.8119958,130.712002 70.652,130.4 C71.4920042,130.087998 72.4039951,129.932 73.388,129.932 C73.796002,129.932 74.2219978,129.971 74.666,130.049 C75.1100022,130.127 75.535998,130.246999 75.944,130.409 C76.352002,130.571001 76.7359982,130.771999 77.096,131.012 C77.4560018,131.252001 77.7619987,131.539998 78.014,131.876 L76.286,133.244 Z M85.412,136.754 C85.2439992,136.513999 84.9920017,136.313001 84.656,136.151 C84.3199983,135.988999 83.9780017,135.908 83.63,135.908 C83.233998,135.908 82.8860015,135.988999 82.586,136.151 C82.2859985,136.313001 82.037001,136.525999 81.839,136.79 C81.640999,137.054001 81.4940005,137.350998 81.398,137.681 C81.3019995,138.011002 81.254,138.343998 81.254,138.68 C81.254,139.016002 81.3049995,139.348998 81.407,139.679 C81.5090005,140.009002 81.661999,140.305999 81.866,140.57 C82.070001,140.834001 82.3249985,141.046999 82.631,141.209 C82.9370015,141.371001 83.293998,141.452 83.702,141.452 C84.0380017,141.452 84.3739983,141.386001 84.71,141.254 C85.0460017,141.121999 85.315999,140.930001 85.52,140.678 L86.87,142.046 C86.5099982,142.430002 86.0510028,142.726999 85.493,142.937 C84.9349972,143.147001 84.3320032,143.252 83.684,143.252 C83.0479968,143.252 82.4450029,143.150001 81.875,142.946 C81.3049971,142.741999 80.8070021,142.442002 80.381,142.046 C79.9549979,141.649998 79.6190012,141.170003 79.373,140.606 C79.1269988,140.041997 79.004,139.400004 79.004,138.68 C79.004,137.983997 79.1269988,137.354003 79.373,136.79 C79.6190012,136.225997 79.9519979,135.746002 80.372,135.35 C80.7920021,134.953998 81.2809972,134.648001 81.839,134.432 C82.3970028,134.215999 82.9939968,134.108 83.63,134.108 C84.2660032,134.108 84.880997,134.227999 85.475,134.468 C86.069003,134.708001 86.5399983,135.037998 86.888,135.458 L85.412,136.754 Z" id="AaBbCc-Copy-2" fill="#FFFFFF"></path>
        <rect id="Rectangle" fill="#1B63B3" x="31" y="160" width="57" height="25"></rect>
        <path d="M37.37,194.91 L36.47,194.91 L36.47,194.07 L37.48,194.07 L37.66,192.85 L36.76,192.85 L36.76,192.01 L37.77,192.01 L38.07,189.92 L38.95,189.92 L38.65,192.01 L39.68,192.01 L39.98,189.92 L40.85,189.92 L40.55,192.01 L41.45,192.01 L41.45,192.85 L40.43,192.85 L40.26,194.07 L41.16,194.07 L41.16,194.91 L40.16,194.91 L39.85,197 L38.98,197 L39.28,194.91 L38.24,194.91 L37.94,197 L37.07,197 L37.37,194.91 Z M38.53,192.85 L38.36,194.07 L39.39,194.07 L39.56,192.85 L38.53,192.85 Z M47.47,193.46 C47.47,194.033336 47.4150006,194.549998 47.305,195.01 C47.1949994,195.470002 47.035001,195.859998 46.825,196.18 C46.614999,196.500002 46.3550015,196.746666 46.045,196.92 C45.7349984,197.093334 45.380002,197.18 44.98,197.18 C44.579998,197.18 44.2233349,197.093334 43.91,196.92 C43.5966651,196.746666 43.3333344,196.500002 43.12,196.18 C42.9066656,195.859998 42.7450006,195.470002 42.635,195.01 C42.5249994,194.549998 42.47,194.033336 42.47,193.46 C42.47,192.886664 42.5249994,192.370002 42.635,191.91 C42.7450006,191.449998 42.9066656,191.060002 43.12,190.74 C43.3333344,190.419998 43.5966651,190.173334 43.91,190 C44.2233349,189.826666 44.579998,189.74 44.98,189.74 C45.380002,189.74 45.7349984,189.826666 46.045,190 C46.3550015,190.173334 46.614999,190.419998 46.825,190.74 C47.035001,191.060002 47.1949994,191.449998 47.305,191.91 C47.4150006,192.370002 47.47,192.886664 47.47,193.46 Z M46.24,193.46 C46.24,193.213332 46.2250001,192.933335 46.195,192.62 C46.1649999,192.306665 46.1050004,192.010001 46.015,191.73 C45.9249995,191.449999 45.7966675,191.215001 45.63,191.025 C45.4633325,190.834999 45.246668,190.74 44.98,190.74 C44.7066653,190.74 44.4866675,190.834999 44.32,191.025 C44.1533325,191.215001 44.0250005,191.449999 43.935,191.73 C43.8449995,192.010001 43.7833335,192.306665 43.75,192.62 C43.7166665,192.933335 43.7,193.213332 43.7,193.46 C43.7,193.706668 43.7166665,193.986665 43.75,194.3 C43.7833335,194.613335 43.8449995,194.906665 43.935,195.18 C44.0250005,195.453335 44.1533325,195.684999 44.32,195.875 C44.4866675,196.065001 44.7066653,196.16 44.98,196.16 C45.246668,196.16 45.4633325,196.065001 45.63,195.875 C45.7966675,195.684999 45.9249995,195.453335 46.015,195.18 C46.1050004,194.906665 46.1649999,194.613335 46.195,194.3 C46.2250001,193.986665 46.24,193.706668 46.24,193.46 Z M53.57,193.46 C53.57,194.033336 53.5150005,194.549998 53.405,195.01 C53.2949994,195.470002 53.135001,195.859998 52.925,196.18 C52.7149989,196.500002 52.4550015,196.746666 52.145,196.92 C51.8349985,197.093334 51.480002,197.18 51.08,197.18 C50.679998,197.18 50.3233349,197.093334 50.01,196.92 C49.6966651,196.746666 49.4333344,196.500002 49.22,196.18 C49.0066656,195.859998 48.8450005,195.470002 48.735,195.01 C48.6249995,194.549998 48.57,194.033336 48.57,193.46 C48.57,192.886664 48.6249995,192.370002 48.735,191.91 C48.8450005,191.449998 49.0066656,191.060002 49.22,190.74 C49.4333344,190.419998 49.6966651,190.173334 50.01,190 C50.3233349,189.826666 50.679998,189.74 51.08,189.74 C51.480002,189.74 51.8349985,189.826666 52.145,190 C52.4550015,190.173334 52.7149989,190.419998 52.925,190.74 C53.135001,191.060002 53.2949994,191.449998 53.405,191.91 C53.5150005,192.370002 53.57,192.886664 53.57,193.46 Z M52.34,193.46 C52.34,193.213332 52.3250002,192.933335 52.295,192.62 C52.2649999,192.306665 52.2050005,192.010001 52.115,191.73 C52.0249995,191.449999 51.8966675,191.215001 51.73,191.025 C51.5633325,190.834999 51.346668,190.74 51.08,190.74 C50.8066653,190.74 50.5866675,190.834999 50.42,191.025 C50.2533325,191.215001 50.1250005,191.449999 50.035,191.73 C49.9449995,192.010001 49.8833335,192.306665 49.85,192.62 C49.8166665,192.933335 49.8,193.213332 49.8,193.46 C49.8,193.706668 49.8166665,193.986665 49.85,194.3 C49.8833335,194.613335 49.9449995,194.906665 50.035,195.18 C50.1250005,195.453335 50.2533325,195.684999 50.42,195.875 C50.5866675,196.065001 50.8066653,196.16 51.08,196.16 C51.346668,196.16 51.5633325,196.065001 51.73,195.875 C51.8966675,195.684999 52.0249995,195.453335 52.115,195.18 C52.2050005,194.906665 52.2649999,194.613335 52.295,194.3 C52.3250002,193.986665 52.34,193.706668 52.34,193.46 Z M58.53,189.92 L56.72,192.54 L56.73,192.55 C56.8233338,192.51 56.941666,192.48 57.085,192.46 C57.2283341,192.44 57.3599994,192.43 57.48,192.43 C57.7933349,192.43 58.0866653,192.488333 58.36,192.605 C58.6333347,192.721667 58.8733323,192.881666 59.08,193.085 C59.2866677,193.288334 59.4483328,193.528332 59.565,193.805 C59.6816673,194.081668 59.74,194.379998 59.74,194.7 C59.74,195.073335 59.673334,195.413332 59.54,195.72 C59.406666,196.026668 59.2250011,196.288332 58.995,196.505 C58.7649988,196.721668 58.4916683,196.888333 58.175,197.005 C57.8583318,197.121667 57.5200018,197.18 57.16,197.18 C56.7866648,197.18 56.4433349,197.118334 56.13,196.995 C55.8166651,196.871666 55.5433345,196.700001 55.31,196.48 C55.0766655,196.259999 54.8950007,196.001668 54.765,195.705 C54.6349994,195.408332 54.57,195.090002 54.57,194.75 C54.57,194.549999 54.5866665,194.361668 54.62,194.185 C54.6533335,194.008332 54.7016663,193.838334 54.765,193.675 C54.8283337,193.511666 54.9049995,193.346667 54.995,193.18 C55.0850005,193.013332 55.1866661,192.840001 55.3,192.66 L57.07,189.92 L58.53,189.92 Z M55.79,194.78 C55.79,194.966668 55.8216664,195.143332 55.885,195.31 C55.9483337,195.476667 56.0399994,195.623333 56.16,195.75 C56.2800006,195.876667 56.4233325,195.976666 56.59,196.05 C56.7566675,196.123334 56.9433323,196.16 57.15,196.16 C57.5566687,196.16 57.8849988,196.031668 58.135,195.775 C58.3850013,195.518332 58.51,195.180002 58.51,194.76 C58.51,194.559999 58.4783336,194.375001 58.415,194.205 C58.3516664,194.034999 58.2600006,193.890001 58.14,193.77 C58.0199994,193.649999 57.8783342,193.555 57.715,193.485 C57.5516659,193.415 57.370001,193.38 57.17,193.38 C56.969999,193.38 56.7850009,193.413333 56.615,193.48 C56.4449992,193.546667 56.2983339,193.641666 56.175,193.765 C56.0516661,193.888334 55.956667,194.036666 55.89,194.21 C55.823333,194.383334 55.79,194.573332 55.79,194.78 Z M62.34,192.83 L62.66,192.83 C62.8400009,192.83 63.0183325,192.815 63.195,192.785 C63.3716676,192.755 63.5333326,192.7 63.68,192.62 C63.8266674,192.54 63.9449996,192.431667 64.035,192.295 C64.1250005,192.158333 64.17,191.980001 64.17,191.76 C64.17,191.599999 64.1400003,191.456667 64.08,191.33 C64.0199997,191.203333 63.9383339,191.096667 63.835,191.01 C63.7316662,190.923333 63.6116674,190.856667 63.475,190.81 C63.3383327,190.763333 63.1966674,190.74 63.05,190.74 C62.7566652,190.74 62.5133343,190.823332 62.32,190.99 C62.1266657,191.156667 61.9933337,191.376665 61.92,191.65 L60.79,191.36 C60.8500003,191.119999 60.951666,190.901668 61.095,190.705 C61.2383341,190.508332 61.4116657,190.338334 61.615,190.195 C61.8183344,190.051666 62.0466654,189.94 62.3,189.86 C62.5533346,189.78 62.8199986,189.74 63.1,189.74 C63.4066682,189.74 63.6983319,189.781666 63.975,189.865 C64.2516681,189.948334 64.4949989,190.071666 64.705,190.235 C64.9150011,190.398334 65.0799994,190.599999 65.2,190.84 C65.3200006,191.080001 65.38,191.359998 65.38,191.68 C65.38,192.060002 65.2650012,192.398332 65.035,192.695 C64.8049989,192.991668 64.4966686,193.186666 64.11,193.28 L64.11,193.3 C64.5433355,193.386667 64.8949987,193.581665 65.165,193.885 C65.4350014,194.188335 65.57,194.559998 65.57,195 C65.57,195.366669 65.4983341,195.686665 65.355,195.96 C65.2116659,196.233335 65.0216679,196.459999 64.785,196.64 C64.5483321,196.820001 64.2833348,196.955 63.99,197.045 C63.6966652,197.135 63.4000015,197.18 63.1,197.18 C62.7999985,197.18 62.516668,197.148334 62.25,197.085 C61.983332,197.021666 61.7383344,196.923334 61.515,196.79 C61.2916656,196.656666 61.0950009,196.483334 60.925,196.27 C60.7549992,196.056666 60.6233338,195.803335 60.53,195.51 L61.65,195.16 C61.7366671,195.440001 61.8983322,195.676666 62.135,195.87 C62.3716679,196.063334 62.6799981,196.16 63.06,196.16 C63.2133341,196.16 63.3683326,196.138334 63.525,196.095 C63.6816675,196.051666 63.8216661,195.983334 63.945,195.89 C64.068334,195.796666 64.168333,195.676667 64.245,195.53 C64.3216671,195.383333 64.36,195.203334 64.36,194.99 C64.36,194.763332 64.3050006,194.571667 64.195,194.415 C64.0849994,194.258333 63.9466675,194.135 63.78,194.045 C63.6133325,193.955 63.4283344,193.89 63.225,193.85 C63.0216657,193.81 62.8266676,193.79 62.64,193.79 L62.34,193.79 L62.34,192.83 Z M67.1,189.92 L69.86,189.92 C70.126668,189.92 70.3899987,189.951666 70.65,190.015 C70.9100013,190.078334 71.1416657,190.181666 71.345,190.325 C71.5483344,190.468334 71.7133327,190.653332 71.84,190.88 C71.9666673,191.106668 72.03,191.379998 72.03,191.7 C72.03,192.100002 71.9166678,192.429999 71.69,192.69 C71.4633322,192.950001 71.1666685,193.136666 70.8,193.25 L70.8,193.27 C71.2466689,193.33 71.6133319,193.503332 71.9,193.79 C72.1866681,194.076668 72.33,194.459998 72.33,194.94 C72.33,195.326669 72.2533341,195.651665 72.1,195.915 C71.9466659,196.178335 71.7450013,196.389999 71.495,196.55 C71.2449988,196.710001 70.958335,196.825 70.635,196.895 C70.3116651,196.965 69.983335,197 69.65,197 L67.1,197 L67.1,189.92 Z M68.36,192.8 L69.48,192.8 C69.9000021,192.8 70.2199989,192.716667 70.44,192.55 C70.6600011,192.383332 70.77,192.146668 70.77,191.84 C70.77,191.519998 70.6566678,191.293334 70.43,191.16 C70.2033322,191.026666 69.8500024,190.96 69.37,190.96 L68.36,190.96 L68.36,192.8 Z M68.36,195.94 L69.49,195.94 C69.6500008,195.94 69.8233324,195.928333 70.01,195.905 C70.1966676,195.881667 70.3683326,195.833334 70.525,195.76 C70.6816675,195.686666 70.8116662,195.580001 70.915,195.44 C71.0183339,195.299999 71.07,195.113335 71.07,194.88 C71.07,194.506665 70.9433346,194.246667 70.69,194.1 C70.4366654,193.953333 70.0533359,193.88 69.54,193.88 L68.36,193.88 L68.36,195.94 Z M74.91,192.83 L75.23,192.83 C75.4100009,192.83 75.5883325,192.815 75.765,192.785 C75.9416676,192.755 76.1033326,192.7 76.25,192.62 C76.3966674,192.54 76.5149995,192.431667 76.605,192.295 C76.6950005,192.158333 76.74,191.980001 76.74,191.76 C76.74,191.599999 76.7100003,191.456667 76.65,191.33 C76.5899997,191.203333 76.5083339,191.096667 76.405,191.01 C76.3016662,190.923333 76.1816674,190.856667 76.045,190.81 C75.9083327,190.763333 75.7666674,190.74 75.62,190.74 C75.3266652,190.74 75.0833343,190.823332 74.89,190.99 C74.6966657,191.156667 74.5633337,191.376665 74.49,191.65 L73.36,191.36 C73.4200003,191.119999 73.5216659,190.901668 73.665,190.705 C73.8083341,190.508332 73.9816657,190.338334 74.185,190.195 C74.3883344,190.051666 74.6166654,189.94 74.87,189.86 C75.1233346,189.78 75.3899986,189.74 75.67,189.74 C75.9766682,189.74 76.268332,189.781666 76.545,189.865 C76.821668,189.948334 77.064999,190.071666 77.275,190.235 C77.4850011,190.398334 77.6499994,190.599999 77.77,190.84 C77.8900006,191.080001 77.95,191.359998 77.95,191.68 C77.95,192.060002 77.8350012,192.398332 77.605,192.695 C77.3749988,192.991668 77.0666686,193.186666 76.68,193.28 L76.68,193.3 C77.1133355,193.386667 77.4649987,193.581665 77.735,193.885 C78.0050014,194.188335 78.14,194.559998 78.14,195 C78.14,195.366669 78.0683341,195.686665 77.925,195.96 C77.781666,196.233335 77.5916679,196.459999 77.355,196.64 C77.1183322,196.820001 76.8533348,196.955 76.56,197.045 C76.2666652,197.135 75.9700015,197.18 75.67,197.18 C75.3699985,197.18 75.086668,197.148334 74.82,197.085 C74.553332,197.021666 74.3083345,196.923334 74.085,196.79 C73.8616655,196.656666 73.6650009,196.483334 73.495,196.27 C73.3249992,196.056666 73.1933338,195.803335 73.1,195.51 L74.22,195.16 C74.3066671,195.440001 74.4683322,195.676666 74.705,195.87 C74.9416679,196.063334 75.2499981,196.16 75.63,196.16 C75.7833341,196.16 75.9383326,196.138334 76.095,196.095 C76.2516675,196.051666 76.391666,195.983334 76.515,195.89 C76.638334,195.796666 76.738333,195.676667 76.815,195.53 C76.8916671,195.383333 76.93,195.203334 76.93,194.99 C76.93,194.763332 76.8750006,194.571667 76.765,194.415 C76.6549995,194.258333 76.5166675,194.135 76.35,194.045 C76.1833325,193.955 75.9983344,193.89 75.795,193.85 C75.5916657,193.81 75.3966676,193.79 75.21,193.79 L74.91,193.79 L74.91,192.83 Z" id="#0063B3" fill="#FFFFFF"></path>
        <path d="M124.37,194.91 L123.47,194.91 L123.47,194.07 L124.48,194.07 L124.66,192.85 L123.76,192.85 L123.76,192.01 L124.77,192.01 L125.07,189.92 L125.95,189.92 L125.65,192.01 L126.68,192.01 L126.98,189.92 L127.85,189.92 L127.55,192.01 L128.45,192.01 L128.45,192.85 L127.43,192.85 L127.26,194.07 L128.16,194.07 L128.16,194.91 L127.16,194.91 L126.85,197 L125.98,197 L126.28,194.91 L125.24,194.91 L124.94,197 L124.07,197 L124.37,194.91 Z M125.53,192.85 L125.36,194.07 L126.39,194.07 L126.56,192.85 L125.53,192.85 Z M134.47,193.46 C134.47,194.033336 134.415001,194.549998 134.305,195.01 C134.194999,195.470002 134.035001,195.859998 133.825,196.18 C133.614999,196.500002 133.355002,196.746666 133.045,196.92 C132.734998,197.093334 132.380002,197.18 131.98,197.18 C131.579998,197.18 131.223335,197.093334 130.91,196.92 C130.596665,196.746666 130.333334,196.500002 130.12,196.18 C129.906666,195.859998 129.745001,195.470002 129.635,195.01 C129.524999,194.549998 129.47,194.033336 129.47,193.46 C129.47,192.886664 129.524999,192.370002 129.635,191.91 C129.745001,191.449998 129.906666,191.060002 130.12,190.74 C130.333334,190.419998 130.596665,190.173334 130.91,190 C131.223335,189.826666 131.579998,189.74 131.98,189.74 C132.380002,189.74 132.734998,189.826666 133.045,190 C133.355002,190.173334 133.614999,190.419998 133.825,190.74 C134.035001,191.060002 134.194999,191.449998 134.305,191.91 C134.415001,192.370002 134.47,192.886664 134.47,193.46 Z M133.24,193.46 C133.24,193.213332 133.225,192.933335 133.195,192.62 C133.165,192.306665 133.105,192.010001 133.015,191.73 C132.925,191.449999 132.796668,191.215001 132.63,191.025 C132.463333,190.834999 132.246668,190.74 131.98,190.74 C131.706665,190.74 131.486668,190.834999 131.32,191.025 C131.153333,191.215001 131.025,191.449999 130.935,191.73 C130.845,192.010001 130.783333,192.306665 130.75,192.62 C130.716667,192.933335 130.7,193.213332 130.7,193.46 C130.7,193.706668 130.716667,193.986665 130.75,194.3 C130.783333,194.613335 130.845,194.906665 130.935,195.18 C131.025,195.453335 131.153333,195.684999 131.32,195.875 C131.486668,196.065001 131.706665,196.16 131.98,196.16 C132.246668,196.16 132.463333,196.065001 132.63,195.875 C132.796668,195.684999 132.925,195.453335 133.015,195.18 C133.105,194.906665 133.165,194.613335 133.195,194.3 C133.225,193.986665 133.24,193.706668 133.24,193.46 Z M140.57,193.46 C140.57,194.033336 140.515001,194.549998 140.405,195.01 C140.294999,195.470002 140.135001,195.859998 139.925,196.18 C139.714999,196.500002 139.455002,196.746666 139.145,196.92 C138.834998,197.093334 138.480002,197.18 138.08,197.18 C137.679998,197.18 137.323335,197.093334 137.01,196.92 C136.696665,196.746666 136.433334,196.500002 136.22,196.18 C136.006666,195.859998 135.845001,195.470002 135.735,195.01 C135.624999,194.549998 135.57,194.033336 135.57,193.46 C135.57,192.886664 135.624999,192.370002 135.735,191.91 C135.845001,191.449998 136.006666,191.060002 136.22,190.74 C136.433334,190.419998 136.696665,190.173334 137.01,190 C137.323335,189.826666 137.679998,189.74 138.08,189.74 C138.480002,189.74 138.834998,189.826666 139.145,190 C139.455002,190.173334 139.714999,190.419998 139.925,190.74 C140.135001,191.060002 140.294999,191.449998 140.405,191.91 C140.515001,192.370002 140.57,192.886664 140.57,193.46 Z M139.34,193.46 C139.34,193.213332 139.325,192.933335 139.295,192.62 C139.265,192.306665 139.205,192.010001 139.115,191.73 C139.025,191.449999 138.896668,191.215001 138.73,191.025 C138.563333,190.834999 138.346668,190.74 138.08,190.74 C137.806665,190.74 137.586668,190.834999 137.42,191.025 C137.253332,191.215001 137.125,191.449999 137.035,191.73 C136.945,192.010001 136.883333,192.306665 136.85,192.62 C136.816666,192.933335 136.8,193.213332 136.8,193.46 C136.8,193.706668 136.816666,193.986665 136.85,194.3 C136.883333,194.613335 136.945,194.906665 137.035,195.18 C137.125,195.453335 137.253332,195.684999 137.42,195.875 C137.586668,196.065001 137.806665,196.16 138.08,196.16 C138.346668,196.16 138.563333,196.065001 138.73,195.875 C138.896668,195.684999 139.025,195.453335 139.115,195.18 C139.205,194.906665 139.265,194.613335 139.295,194.3 C139.325,193.986665 139.34,193.706668 139.34,193.46 Z M146.17,191 L143.28,191 L143.21,192.53 C143.323334,192.496667 143.458333,192.473333 143.615,192.46 C143.771667,192.446667 143.913333,192.44 144.04,192.44 C144.386668,192.44 144.708332,192.49 145.005,192.59 C145.301668,192.69 145.559999,192.834999 145.78,193.025 C146.000001,193.215001 146.171666,193.448332 146.295,193.725 C146.418334,194.001668 146.48,194.319998 146.48,194.68 C146.48,195.073335 146.411667,195.424998 146.275,195.735 C146.138333,196.045002 145.953335,196.306666 145.72,196.52 C145.486666,196.733334 145.213335,196.896666 144.9,197.01 C144.586665,197.123334 144.253335,197.18 143.9,197.18 C143.306664,197.18 142.806669,197.041668 142.4,196.765 C141.993331,196.488332 141.696668,196.110002 141.51,195.63 L142.6,195.23 C142.7,195.510001 142.866666,195.734999 143.1,195.905 C143.333335,196.075001 143.609998,196.16 143.93,196.16 C144.110001,196.16 144.279999,196.13 144.44,196.07 C144.600001,196.01 144.739999,195.923334 144.86,195.81 C144.980001,195.696666 145.075,195.555001 145.145,195.385 C145.215,195.214999 145.25,195.023334 145.25,194.81 C145.25,194.536665 145.203334,194.310001 145.11,194.13 C145.016666,193.949999 144.895001,193.805001 144.745,193.695 C144.594999,193.584999 144.426668,193.508334 144.24,193.465 C144.053332,193.421666 143.863334,193.4 143.67,193.4 C143.536666,193.4 143.395001,193.41 143.245,193.43 C143.094999,193.45 142.948334,193.478333 142.805,193.515 C142.661666,193.551667 142.521667,193.593333 142.385,193.64 C142.248333,193.686667 142.126667,193.736666 142.02,193.79 L142.14,189.92 L146.17,189.92 L146.17,191 Z M147.91,195.9 L150.64,193.22 C150.860001,193.006666 151.034999,192.791668 151.165,192.575 C151.295001,192.358332 151.36,192.110001 151.36,191.83 C151.36,191.496665 151.251668,191.231668 151.035,191.035 C150.818332,190.838332 150.550002,190.74 150.23,190.74 C149.889998,190.74 149.616668,190.854999 149.41,191.085 C149.203332,191.315001 149.076667,191.603332 149.03,191.95 L147.86,191.77 C147.893334,191.476665 147.976666,191.206668 148.11,190.96 C148.243334,190.713332 148.413332,190.500001 148.62,190.32 C148.826668,190.139999 149.068332,189.998334 149.345,189.895 C149.621668,189.791666 149.923332,189.74 150.25,189.74 C150.556668,189.74 150.851665,189.783333 151.135,189.87 C151.418335,189.956667 151.669999,190.088332 151.89,190.265 C152.110001,190.441668 152.284999,190.658332 152.415,190.915 C152.545001,191.171668 152.61,191.469998 152.61,191.81 C152.61,192.036668 152.58,192.248332 152.52,192.445 C152.46,192.641668 152.378334,192.826666 152.275,193 C152.171666,193.173334 152.051667,193.338333 151.915,193.495 C151.778333,193.651667 151.630001,193.803333 151.47,193.95 L149.43,195.9 L152.62,195.9 L152.62,197 L147.91,197 L147.91,195.9 Z M156.37,189.74 C156.676668,189.74 156.966665,189.783333 157.24,189.87 C157.513335,189.956667 157.751666,190.083333 157.955,190.25 C158.158334,190.416667 158.318333,190.618332 158.435,190.855 C158.551667,191.091668 158.61,191.359998 158.61,191.66 C158.61,192.073335 158.506668,192.416665 158.3,192.69 C158.093332,192.963335 157.830002,193.153333 157.51,193.26 L157.51,193.28 C157.696668,193.326667 157.869999,193.401666 158.03,193.505 C158.190001,193.608334 158.329999,193.734999 158.45,193.885 C158.570001,194.035001 158.665,194.203332 158.735,194.39 C158.805,194.576668 158.84,194.779999 158.84,195 C158.84,195.353335 158.775001,195.664999 158.645,195.935 C158.514999,196.205001 158.338334,196.433332 158.115,196.62 C157.891666,196.806668 157.630001,196.946666 157.33,197.04 C157.029999,197.133334 156.710002,197.18 156.37,197.18 C156.029998,197.18 155.710002,197.133334 155.41,197.04 C155.109999,196.946666 154.848334,196.806668 154.625,196.62 C154.401666,196.433332 154.225001,196.205001 154.095,195.935 C153.964999,195.664999 153.9,195.353335 153.9,195 C153.9,194.773332 153.936666,194.563334 154.01,194.37 C154.083334,194.176666 154.181666,194.006667 154.305,193.86 C154.428334,193.713333 154.569999,193.591667 154.73,193.495 C154.890001,193.398333 155.056666,193.326667 155.23,193.28 L155.23,193.26 C154.909998,193.146666 154.646668,192.963335 154.44,192.71 C154.233332,192.456665 154.13,192.123335 154.13,191.71 C154.13,191.409999 154.188333,191.138335 154.305,190.895 C154.421667,190.651665 154.581666,190.445001 154.785,190.275 C154.988334,190.104999 155.224999,189.973334 155.495,189.88 C155.765001,189.786666 156.056665,189.74 156.37,189.74 Z M156.37,190.73 C156.069998,190.73 155.825001,190.819999 155.635,191 C155.444999,191.180001 155.35,191.423332 155.35,191.73 C155.35,192.016668 155.441666,192.259999 155.625,192.46 C155.808334,192.660001 156.056665,192.76 156.37,192.76 C156.510001,192.76 156.643333,192.733334 156.77,192.68 C156.896667,192.626666 157.006666,192.553334 157.1,192.46 C157.193334,192.366666 157.266666,192.256667 157.32,192.13 C157.373334,192.003333 157.4,191.870001 157.4,191.73 C157.4,191.576666 157.371667,191.438334 157.315,191.315 C157.258333,191.191666 157.181667,191.086667 157.085,191 C156.988333,190.913333 156.878334,190.846667 156.755,190.8 C156.631666,190.753333 156.503334,190.73 156.37,190.73 Z M156.37,193.78 C156.196666,193.78 156.035001,193.81 155.885,193.87 C155.734999,193.93 155.605001,194.011666 155.495,194.115 C155.384999,194.218334 155.298334,194.344999 155.235,194.495 C155.171666,194.645001 155.14,194.809999 155.14,194.99 C155.14,195.363335 155.256665,195.653332 155.49,195.86 C155.723335,196.066668 156.016665,196.17 156.37,196.17 C156.716668,196.17 157.006665,196.066668 157.24,195.86 C157.473335,195.653332 157.59,195.363335 157.59,194.99 C157.59,194.816666 157.558334,194.655001 157.495,194.505 C157.431666,194.354999 157.345001,194.226667 157.235,194.12 C157.124999,194.013333 156.995001,193.93 156.845,193.87 C156.694999,193.81 156.536668,193.78 156.37,193.78 Z M165.31,191.58 C165.123332,191.326665 164.880001,191.141667 164.58,191.025 C164.279999,190.908333 163.986668,190.85 163.7,190.85 C163.333331,190.85 163.000001,190.916666 162.7,191.05 C162.399998,191.183334 162.141668,191.366666 161.925,191.6 C161.708332,191.833335 161.541667,192.106665 161.425,192.42 C161.308333,192.733335 161.25,193.073331 161.25,193.44 C161.25,193.826669 161.306666,194.179998 161.42,194.5 C161.533334,194.820002 161.694999,195.094999 161.905,195.325 C162.115001,195.555001 162.366665,195.733333 162.66,195.86 C162.953335,195.986667 163.283332,196.05 163.65,196.05 C164.030002,196.05 164.366665,195.975001 164.66,195.825 C164.953335,195.674999 165.189999,195.476668 165.37,195.23 L166.38,195.94 C166.066665,196.333335 165.683336,196.638332 165.23,196.855 C164.776664,197.071668 164.24667,197.18 163.64,197.18 C163.086664,197.18 162.578336,197.088334 162.115,196.905 C161.651664,196.721666 161.253335,196.465002 160.92,196.135 C160.586665,195.804998 160.326668,195.411669 160.14,194.955 C159.953332,194.498331 159.86,193.993336 159.86,193.44 C159.86,192.873331 159.958332,192.361669 160.155,191.905 C160.351668,191.448331 160.621665,191.060002 160.965,190.74 C161.308335,190.419998 161.713331,190.173334 162.18,190 C162.646669,189.826666 163.153331,189.74 163.7,189.74 C163.926668,189.74 164.163332,189.761666 164.41,189.805 C164.656668,189.848334 164.893332,189.915 165.12,190.005 C165.346668,190.095 165.559999,190.206666 165.76,190.34 C165.960001,190.473334 166.129999,190.633332 166.27,190.82 L165.31,191.58 Z" id="#00528C" fill="#FFFFFF"></path>
        <rect id="Rectangle-Copy" fill="#15528C" x="116" y="160" width="57" height="25"></rect>
    </g>
</svg>