<?xml version="1.0" encoding="UTF-8"?>
<svg width="204px" height="178px" viewBox="0 0 204 178" version="1.1" xmlns="http://www.w3.org/2000/svg" xmlns:xlink="http://www.w3.org/1999/xlink" style="background: #FFFFFF;">
    <!-- Generator: Sketch 49.2 (51160) - http://www.bohemiancoding.com/sketch -->
    <title>pibbypaw</title>
    <desc>Created with Sketch.</desc>
    <defs>
        <linearGradient x1="50%" y1="100%" x2="50%" y2="3.061617e-15%" id="linearGradient-1">
            <stop stop-color="#FDC35D" offset="0%"></stop>
            <stop stop-color="#FF8744" offset="100%"></stop>
        </linearGradient>
    </defs>
    <g id="pibbypaw" stroke="none" stroke-width="1" fill="none" fill-rule="evenodd">
        <g id="Group-Copy-2" transform="translate(39.000000, 21.000000)" fill="#4C4E4F">
            <path d="M54.0725,11.51 L49.9775,11.51 L49.2425,14 C49.1124994,14.0200001 48.9825007,14.0349999 48.8525,14.045 C48.7224993,14.0550001 48.5925007,14.06 48.4625,14.06 C48.3224993,14.06 48.1850007,14.0550001 48.05,14.045 C47.9149993,14.0349999 47.7925005,14.0200001 47.6825,14 L51.1925,3.215 C51.3225007,3.1949999 51.4624993,3.18000005 51.6125,3.17 C51.7625008,3.15999995 51.9174992,3.155 52.0775,3.155 C52.2175007,3.155 52.3624992,3.15999995 52.5125,3.17 C52.6625007,3.18000005 52.8074993,3.1949999 52.9475,3.215 L56.4425,14 C56.3224994,14.0200001 56.1875007,14.0349999 56.0375,14.045 C55.8874993,14.0550001 55.7425007,14.06 55.6025,14.06 C55.4724994,14.06 55.3400007,14.0550001 55.205,14.045 C55.0699993,14.0349999 54.9425006,14.0200001 54.8225,14 L54.0725,11.51 Z M50.3825,10.175 L53.6675,10.175 L52.0175,4.67 L50.3825,10.175 Z M57.8675,3.005 C57.9775006,2.9849999 58.0999993,2.97000005 58.235,2.96 C58.3700007,2.94999995 58.4924995,2.945 58.6025,2.945 C58.7125006,2.945 58.8349993,2.94999995 58.97,2.96 C59.1050007,2.97000005 59.2274994,2.9849999 59.3375,3.005 L59.3375,11.675 C59.3375,11.9550014 59.3624997,12.1749992 59.4125,12.335 C59.4625003,12.4950008 59.5299996,12.6174996 59.615,12.7025 C59.7000004,12.7875004 59.7999994,12.8424999 59.915,12.8675 C60.0300006,12.8925001 60.1524993,12.905 60.2825,12.905 C60.3725005,12.905 60.4749994,12.9000001 60.59,12.89 C60.7050006,12.88 60.8024996,12.8650001 60.8825,12.845 C60.9725004,13.1950018 61.0175,13.574998 61.0175,13.985 C60.8774993,14.0350003 60.707501,14.0674999 60.5075,14.0825 C60.307499,14.0975001 60.1225009,14.105 59.9525,14.105 C59.6624986,14.105 59.3925013,14.0700004 59.1425,14 C58.8924988,13.9299997 58.6725009,13.8150008 58.4825,13.655 C58.2924991,13.4949992 58.1425006,13.2800014 58.0325,13.01 C57.9224995,12.7399987 57.8675,12.405002 57.8675,12.005 L57.8675,3.005 Z M62.3375,3.005 C62.4475006,2.9849999 62.5699993,2.97000005 62.705,2.96 C62.8400007,2.94999995 62.9624995,2.945 63.0725,2.945 C63.1825006,2.945 63.3049993,2.94999995 63.44,2.96 C63.5750007,2.97000005 63.6974995,2.9849999 63.8075,3.005 L63.8075,11.675 C63.8075,11.9550014 63.8324997,12.1749992 63.8825,12.335 C63.9325003,12.4950008 63.9999996,12.6174996 64.085,12.7025 C64.1700004,12.7875004 64.2699994,12.8424999 64.385,12.8675 C64.5000006,12.8925001 64.6224993,12.905 64.7525,12.905 C64.8425005,12.905 64.9449994,12.9000001 65.06,12.89 C65.1750006,12.88 65.2724996,12.8650001 65.3525,12.845 C65.4425004,13.1950018 65.4875,13.574998 65.4875,13.985 C65.3474993,14.0350003 65.177501,14.0674999 64.9775,14.0825 C64.777499,14.0975001 64.5925008,14.105 64.4225,14.105 C64.1324986,14.105 63.8625013,14.0700004 63.6125,14 C63.3624988,13.9299997 63.1425009,13.8150008 62.9525,13.655 C62.7624991,13.4949992 62.6125006,13.2800014 62.5025,13.01 C62.3924995,12.7399987 62.3375,12.405002 62.3375,12.005 L62.3375,3.005 Z M67.9475,10.52 C67.9675001,11.3600042 68.1849979,11.974998 68.6,12.365 C69.0150021,12.755002 69.6274959,12.95 70.4375,12.95 C71.1475035,12.95 71.8224968,12.8250012 72.4625,12.575 C72.5425004,12.7250007 72.6074998,12.9074989 72.6575,13.1225 C72.7075003,13.3375011 72.7375,13.5499989 72.7475,13.76 C72.4174984,13.9000007 72.055002,14.0049997 71.66,14.075 C71.264998,14.1450004 70.8275024,14.18 70.3475,14.18 C69.6474965,14.18 69.0475025,14.082501 68.5475,13.8875 C68.0474975,13.692499 67.6350016,13.4175018 67.31,13.0625 C66.9849984,12.7074982 66.7475008,12.2875024 66.5975,11.8025 C66.4474992,11.3174976 66.3725,10.7850029 66.3725,10.205 C66.3725,9.63499715 66.4449993,9.10250248 66.59,8.6075 C66.7350007,8.11249753 66.9574985,7.68250182 67.2575,7.3175 C67.5575015,6.95249817 67.9349977,6.66250108 68.39,6.4475 C68.8450023,6.23249893 69.3824969,6.125 70.0025,6.125 C70.5325026,6.125 70.997498,6.2149991 71.3975,6.395 C71.797502,6.5750009 72.1324987,6.82249842 72.4025,7.1375 C72.6725014,7.45250157 72.8774993,7.82749782 73.0175,8.2625 C73.1575007,8.69750218 73.2275,9.16999745 73.2275,9.68 C73.2275,9.8200007 73.2225001,9.96749923 73.2125,10.1225 C73.2025,10.2775008 73.1925001,10.4099995 73.1825,10.52 L67.9475,10.52 Z M71.7575,9.41 C71.7575,9.1299986 71.7200004,8.86250127 71.645,8.6075 C71.5699996,8.35249873 71.4600007,8.13000095 71.315,7.94 C71.1699993,7.74999905 70.9850011,7.59750058 70.76,7.4825 C70.5349989,7.36749943 70.2675015,7.31 69.9575,7.31 C69.3474969,7.31 68.8800016,7.49499815 68.555,7.865 C68.2299984,8.23500185 68.0325003,8.7499967 67.9625,9.41 L71.7575,9.41 Z M75.1775,6.305 C75.2875006,6.2849999 75.3924995,6.27000005 75.4925,6.26 C75.5925005,6.24999995 75.6974994,6.245 75.8075,6.245 C75.9175005,6.245 76.0274994,6.24999995 76.1375,6.26 C76.2475005,6.27000005 76.3474996,6.2849999 76.4375,6.305 C76.4675002,6.45500075 76.4974998,6.65249878 76.5275,6.8975 C76.5575001,7.14250123 76.5725,7.34999915 76.5725,7.52 C76.782501,7.1799983 77.0599983,6.88500125 77.405,6.635 C77.7500017,6.38499875 78.1924973,6.26 78.7325,6.26 C78.8125004,6.26 78.8949996,6.26249998 78.98,6.2675 C79.0650004,6.27250002 79.1374997,6.27999995 79.1975,6.29 C79.2175001,6.38000045 79.2325,6.4749995 79.2425,6.575 C79.2525001,6.6750005 79.2575,6.77999945 79.2575,6.89 C79.2575,7.0100006 79.2500001,7.13499935 79.235,7.265 C79.2199999,7.39500065 79.2025001,7.5199994 79.1825,7.64 C79.1024996,7.6199999 79.0200004,7.61 78.935,7.61 L78.7325,7.61 C78.4624987,7.61 78.2050012,7.64749963 77.96,7.7225 C77.7149988,7.79750038 77.495001,7.92999905 77.3,8.12 C77.104999,8.31000095 76.9500006,8.56999835 76.835,8.9 C76.7199994,9.23000165 76.6625,9.6549974 76.6625,10.175 L76.6625,14 C76.5524994,14.0200001 76.4300007,14.0349999 76.295,14.045 C76.1599993,14.0550001 76.0375006,14.06 75.9275,14.06 C75.8174994,14.06 75.6950007,14.0550001 75.56,14.045 C75.4249993,14.0349999 75.2975006,14.0200001 75.1775,14 L75.1775,6.305 Z" id="Aller"></path>
            <path d="M3.516,31.672 L1.332,31.672 L0.94,33 C0.87066632,33.0106667 0.80133368,33.0186666 0.732,33.024 C0.66266632,33.0293334 0.59333368,33.032 0.524,33.032 C0.44933296,33.032 0.37600036,33.0293334 0.304,33.024 C0.23199964,33.0186666 0.16666696,33.0106667 0.108,33 L1.98,27.248 C2.04933368,27.2373333 2.1239996,27.2293334 2.204,27.224 C2.2840004,27.2186666 2.36666624,27.216 2.452,27.216 C2.52666704,27.216 2.6039996,27.2186666 2.684,27.224 C2.7640004,27.2293334 2.84133296,27.2373333 2.916,27.248 L4.78,33 C4.71599968,33.0106667 4.6440004,33.0186666 4.564,33.024 C4.4839996,33.0293334 4.40666704,33.032 4.332,33.032 C4.26266632,33.032 4.19200036,33.0293334 4.12,33.024 C4.04799964,33.0186666 3.98000032,33.0106667 3.916,33 L3.516,31.672 Z M1.548,30.96 L3.3,30.96 L2.42,28.024 L1.548,30.96 Z M8.03613939,29.919962 C8.03609293,29.9199747 8.03604647,29.9199873 8.036,29.92 C8.04104652,29.9205407 8.04609457,29.9211088 8.05114413,29.9217043 L8.03613939,29.919962 Z M8.05114413,29.9217043 C8.19551862,29.9387309 8.34113588,29.9781625 8.488,30.04 C8.64000076,30.1040003 8.77733272,30.1946661 8.9,30.312 C9.02266728,30.4293339 9.12266628,30.5773324 9.2,30.756 C9.27733372,30.9346676 9.316,31.1519987 9.316,31.408 C9.316,31.7173349 9.25466728,31.9799989 9.132,32.196 C9.00933272,32.4120011 8.84266772,32.586666 8.632,32.72 C8.42133228,32.853334 8.17333476,32.949333 7.888,33.008 C7.60266524,33.066667 7.29733496,33.096 6.972,33.096 C6.76933232,33.096 6.5480012,33.0866668 6.308,33.068 C6.0679988,33.0493332 5.8413344,33.0266668 5.628,33 L5.628,27.248 C5.761334,27.2213332 5.9479988,27.2000001 6.188,27.184 C6.4280012,27.1679999 6.67066544,27.16 6.916,27.16 C7.22000152,27.16 7.49733208,27.1866664 7.748,27.24 C7.99866792,27.2933336 8.21333244,27.3799994 8.392,27.5 C8.57066756,27.6200006 8.70933284,27.7746657 8.808,27.964 C8.90666716,28.1533343 8.956,28.3839986 8.956,28.656 C8.956,28.8213342 8.93066692,28.974666 8.88,29.116 C8.82933308,29.257334 8.76133376,29.3826661 8.676,29.492 C8.59066624,29.6013339 8.49200056,29.6919996 8.38,29.764 C8.26804379,29.8359718 8.15342474,29.8879587 8.03613939,29.919962 L8.05114413,29.9217043 Z M6.436,32.368 C6.51066704,32.3786667 6.60533276,32.3866666 6.72,32.392 C6.83466724,32.3973334 6.94799944,32.4 7.06,32.4 C7.25200096,32.4 7.43199916,32.3840002 7.6,32.352 C7.76800084,32.3199998 7.91599936,32.2653337 8.044,32.188 C8.17200064,32.1106663 8.27333296,32.0066673 8.348,31.876 C8.42266704,31.7453327 8.46,31.5786677 8.46,31.376 C8.46,31.1786657 8.42533368,31.0120007 8.356,30.876 C8.28666632,30.7399993 8.1920006,30.6306671 8.072,30.548 C7.9519994,30.4653329 7.80933416,30.4066668 7.644,30.372 C7.47866584,30.3373332 7.30000096,30.32 7.108,30.32 L6.436,30.32 L6.436,32.368 Z M7.02,29.648 C7.38266848,29.648 7.65999904,29.5693341 7.852,29.412 C8.04400096,29.2546659 8.14,29.0186682 8.14,28.704 C8.14,28.3999985 8.03733436,28.1733341 7.832,28.024 C7.62666564,27.8746659 7.34800176,27.8 6.996,27.8 C6.8893328,27.8 6.78666716,27.8026666 6.688,27.808 C6.58933284,27.8133334 6.50533368,27.8213333 6.436,27.832 L6.436,29.648 L7.02,29.648 Z M14.052,32.16 C14.1693339,32.3893345 14.2439998,32.6106656 14.276,32.824 C14.0519989,32.9200005 13.8226678,32.9893331 13.588,33.032 C13.3533322,33.0746669 13.1000014,33.096 12.828,33.096 C12.4119979,33.096 12.037335,33.0280007 11.704,32.892 C11.370665,32.7559993 11.0893345,32.5613346 10.86,32.308 C10.6306655,32.0546654 10.4546673,31.7466685 10.332,31.384 C10.2093327,31.0213315 10.148,30.6133356 10.148,30.16 C10.148,29.701331 10.2093327,29.2866685 10.332,28.916 C10.4546673,28.5453315 10.6306655,28.2293346 10.86,27.968 C11.0893345,27.7066654 11.3693317,27.505334 11.7,27.364 C12.0306683,27.222666 12.4013313,27.152 12.812,27.152 C13.1160015,27.152 13.3773322,27.1733331 13.596,27.216 C13.8146678,27.2586669 14.0093325,27.309333 14.18,27.368 C14.1693333,27.4906673 14.1466668,27.6039995 14.112,27.708 C14.0773332,27.8120005 14.0360002,27.9226661 13.988,28.04 C13.9079996,28.0133332 13.830667,27.9893334 13.756,27.968 C13.681333,27.9466666 13.6013338,27.9280001 13.516,27.912 C13.4306662,27.8959999 13.3360005,27.884 13.232,27.876 C13.1279995,27.868 13.009334,27.864 12.876,27.864 C12.2946638,27.864 11.8426683,28.0613314 11.52,28.456 C11.1973317,28.8506686 11.036,29.418663 11.036,30.16 C11.036,30.5386686 11.0813329,30.8666653 11.172,31.144 C11.2626671,31.4213347 11.3906658,31.6506658 11.556,31.832 C11.7213342,32.0133342 11.9199988,32.1493329 12.152,32.24 C12.3840012,32.3306671 12.6439986,32.376 12.932,32.376 C13.1560011,32.376 13.3586658,32.3573335 13.54,32.32 C13.7213342,32.2826665 13.8919992,32.2293337 14.052,32.16 Z M15.332,27.248 C15.5133342,27.2266666 15.7319987,27.2066668 15.988,27.188 C16.2440013,27.1693332 16.4946654,27.16 16.74,27.16 C17.748005,27.16 18.5013308,27.4159974 19,27.928 C19.4986692,28.4400026 19.748,29.1759952 19.748,30.136 C19.748,31.1386717 19.4933359,31.8826642 18.984,32.368 C18.4746641,32.8533358 17.716005,33.096 16.708,33.096 C16.4573321,33.096 16.2093346,33.0866668 15.964,33.068 C15.7186654,33.0493332 15.5080009,33.0266668 15.332,33 L15.332,27.248 Z M16.148,32.328 C16.222667,32.3386667 16.3146661,32.348 16.424,32.356 C16.5333339,32.364 16.6493327,32.368 16.772,32.368 C17.0866682,32.368 17.373332,32.3320004 17.632,32.26 C17.890668,32.1879996 18.1133324,32.0666675 18.3,31.896 C18.4866676,31.7253325 18.6306662,31.4946681 18.732,31.204 C18.8333338,30.9133319 18.884,30.5493355 18.884,30.112 C18.884,29.711998 18.8333338,29.3706681 18.732,29.088 C18.6306662,28.8053319 18.4880009,28.5746676 18.304,28.396 C18.1199991,28.2173324 17.9000013,28.0880004 17.644,28.008 C17.3879987,27.9279996 17.1053349,27.888 16.796,27.888 C16.6946662,27.888 16.5840006,27.8893333 16.464,27.892 C16.3439994,27.8946667 16.2386671,27.9039999 16.148,27.92 L16.148,32.328 Z M20.916,27.248 L24.076,27.248 C24.0920001,27.3546672 24.1,27.4719994 24.1,27.6 C24.1,27.658667 24.0986667,27.7199997 24.096,27.784 C24.0933333,27.8480003 24.0866667,27.9066664 24.076,27.96 L21.732,27.96 L21.732,29.608 L23.604,29.608 C23.6146667,29.6613336 23.6226666,29.7186664 23.628,29.78 C23.6333334,29.8413336 23.636,29.901333 23.636,29.96 C23.636,30.018667 23.6333334,30.0799997 23.628,30.144 C23.6226666,30.2080003 23.6146667,30.2666664 23.604,30.32 L21.732,30.32 L21.732,32.288 L24.14,32.288 C24.1560001,32.3946672 24.164,32.5119994 24.164,32.64 C24.164,32.698667 24.1626667,32.7599997 24.16,32.824 C24.1573333,32.8880003 24.1506667,32.9466664 24.14,33 L20.916,33 L20.916,27.248 Z M25.204,27.248 L28.212,27.248 C28.2226667,27.3013336 28.2306666,27.3586664 28.236,27.42 C28.2413334,27.4813336 28.244,27.541333 28.244,27.6 C28.244,27.658667 28.2413334,27.7199997 28.236,27.784 C28.2306666,27.8480003 28.2226667,27.9066664 28.212,27.96 L26.02,27.96 L26.02,29.648 L27.852,29.648 C27.8626667,29.706667 27.8706666,29.7666664 27.876,29.828 C27.8813334,29.8893336 27.884,29.949333 27.884,30.008 C27.884,30.066667 27.8813334,30.1266664 27.876,30.188 C27.8706666,30.2493336 27.8626667,30.309333 27.852,30.368 L26.02,30.368 L26.02,33 C25.9559997,33.0106667 25.890667,33.0186666 25.824,33.024 C25.757333,33.0293334 25.686667,33.032 25.612,33.032 C25.5426663,33.032 25.4720004,33.0293334 25.4,33.024 C25.3279996,33.0186666 25.262667,33.0106667 25.204,33 L25.204,27.248 Z M32.564,30.024 C32.6280003,30.0133333 32.6946663,30.0053334 32.764,30 C32.8333337,29.9946666 32.9026663,29.992 32.972,29.992 C33.0413337,29.992 33.1106663,29.9946666 33.18,30 C33.2493337,30.0053334 33.313333,30.0133333 33.372,30.024 L33.372,32.832 C33.2599994,32.8800002 33.137334,32.9213332 33.004,32.956 C32.870666,32.9906668 32.7320007,33.0173332 32.588,33.036 C32.4439993,33.0546668 32.3000007,33.0693333 32.156,33.08 C32.0119993,33.0906667 31.8760006,33.096 31.748,33.096 C31.3213312,33.096 30.937335,33.029334 30.596,32.896 C30.254665,32.762666 29.9666678,32.5693346 29.732,32.316 C29.4973322,32.0626654 29.317334,31.7546685 29.192,31.392 C29.066666,31.0293315 29.004,30.618669 29.004,30.16 C29.004,29.701331 29.0679994,29.2866685 29.196,28.916 C29.3240006,28.5453315 29.5066655,28.2293346 29.744,27.968 C29.9813345,27.7066654 30.2639984,27.505334 30.592,27.364 C30.9200016,27.222666 31.283998,27.152 31.684,27.152 C31.9880015,27.152 32.2519989,27.1719998 32.476,27.212 C32.7000011,27.2520002 32.9026658,27.3066663 33.084,27.376 C33.0733333,27.4986673 33.0506668,27.6119995 33.016,27.716 C32.9813332,27.8200005 32.9400002,27.9306661 32.892,28.048 C32.7426659,27.9999998 32.5813342,27.9573335 32.408,27.92 C32.2346658,27.8826665 32.0173346,27.864 31.756,27.864 C31.4733319,27.864 31.2160012,27.9146662 30.984,28.016 C30.7519988,28.1173338 30.5546675,28.2653324 30.392,28.46 C30.2293325,28.6546676 30.1026671,28.8946652 30.012,29.18 C29.9213329,29.4653348 29.876,29.7919982 29.876,30.16 C29.876,30.5386686 29.9226662,30.865332 30.016,31.14 C30.1093338,31.414668 30.2413325,31.6439991 30.412,31.828 C30.5826675,32.0120009 30.7839988,32.1479996 31.016,32.236 C31.2480012,32.3240004 31.5053319,32.368 31.788,32.368 C31.9586675,32.368 32.1079994,32.3586668 32.236,32.34 C32.3640006,32.3213332 32.4733329,32.2986668 32.564,32.272 L32.564,30.024 Z M34.684,27.248 C34.7480003,27.2373333 34.8146663,27.2293334 34.884,27.224 C34.9533337,27.2186666 35.0226663,27.216 35.092,27.216 C35.1613337,27.216 35.2306663,27.2186666 35.3,27.224 C35.3693337,27.2293334 35.4359997,27.2373333 35.5,27.248 L35.5,29.616 L37.948,29.616 L37.948,27.248 C38.006667,27.2373333 38.0706663,27.2293334 38.14,27.224 C38.2093337,27.2186666 38.2786663,27.216 38.348,27.216 C38.4173337,27.216 38.4879996,27.2186666 38.56,27.224 C38.6320004,27.2293334 38.6999997,27.2373333 38.764,27.248 L38.764,33 C38.705333,33.0106667 38.6413337,33.0186666 38.572,33.024 C38.5026663,33.0293334 38.430667,33.032 38.356,33.032 C38.2866663,33.032 38.2160004,33.0293334 38.144,33.024 C38.0719996,33.0186666 38.006667,33.0106667 37.948,33 L37.948,30.336 L35.5,30.336 L35.5,33 C35.4359997,33.0106667 35.370667,33.0186666 35.304,33.024 C35.237333,33.0293334 35.166667,33.032 35.092,33.032 C35.0226663,33.032 34.9520004,33.0293334 34.88,33.024 C34.8079996,33.0186666 34.742667,33.0106667 34.684,33 L34.684,27.248 Z M40.172,27.248 C40.2360003,27.2373333 40.3026663,27.2293334 40.372,27.224 C40.4413337,27.2186666 40.5106663,27.216 40.58,27.216 C40.6493337,27.216 40.7186663,27.2186666 40.788,27.224 C40.8573337,27.2293334 40.9239997,27.2373333 40.988,27.248 L40.988,33 C40.9239997,33.0106667 40.858667,33.0186666 40.792,33.024 C40.725333,33.0293334 40.654667,33.032 40.58,33.032 C40.5106663,33.032 40.4400004,33.0293334 40.368,33.024 C40.2959996,33.0186666 40.230667,33.0106667 40.172,33 L40.172,27.248 Z M43.38,27.96 L42.372,27.96 C42.3613333,27.9066664 42.3533334,27.8480003 42.348,27.784 C42.3426666,27.7199997 42.34,27.658667 42.34,27.6 C42.34,27.541333 42.3426666,27.4813336 42.348,27.42 C42.3533334,27.3586664 42.3613333,27.3013336 42.372,27.248 L44.196,27.248 L44.196,31.4 C44.196,31.7200016 44.1613337,31.9893322 44.092,32.208 C44.0226663,32.4266678 43.921334,32.6013327 43.788,32.732 C43.654666,32.8626673 43.492001,32.9559997 43.3,33.012 C43.107999,33.0680003 42.8920012,33.096 42.652,33.096 C42.5239994,33.096 42.3960006,33.0866668 42.268,33.068 C42.1399994,33.0493332 42.0226672,33.0266668 41.916,33 C41.916,32.8933328 41.9266666,32.7813339 41.948,32.664 C41.9693334,32.5466661 42.0013331,32.4266673 42.044,32.304 C42.1080003,32.3200001 42.1813329,32.3373332 42.264,32.356 C42.3466671,32.3746668 42.4333329,32.384 42.524,32.384 C42.6200005,32.384 42.7173328,32.3760001 42.816,32.36 C42.9146672,32.3439999 43.0066662,32.3093336 43.092,32.256 C43.1773338,32.2026664 43.2466664,32.1226672 43.3,32.016 C43.3533336,31.9093328 43.38,31.7653342 43.38,31.584 L43.38,27.96 Z M46.62,30.08 L48.468,27.248 C48.542667,27.2373333 48.6159996,27.2293334 48.688,27.224 C48.7600004,27.2186666 48.825333,27.216 48.884,27.216 C48.9533337,27.216 49.0279996,27.2186666 49.108,27.224 C49.1880004,27.2293334 49.2706662,27.2373333 49.356,27.248 L47.532,30.008 L49.588,33 C49.5026662,33.0106667 49.4186671,33.0186666 49.336,33.024 C49.2533329,33.0293334 49.174667,33.032 49.1,33.032 C49.0359997,33.032 48.966667,33.0293334 48.892,33.024 C48.817333,33.0186666 48.7400004,33.0106667 48.66,33 L46.62,30.08 Z M45.564,27.248 C45.6280003,27.2373333 45.6946663,27.2293334 45.764,27.224 C45.8333337,27.2186666 45.9026663,27.216 45.972,27.216 C46.0413337,27.216 46.1106663,27.2186666 46.18,27.224 C46.2493337,27.2293334 46.3159997,27.2373333 46.38,27.248 L46.38,33 C46.3159997,33.0106667 46.2493337,33.0186666 46.18,33.024 C46.1106663,33.0293334 46.0413337,33.032 45.972,33.032 C45.897333,33.032 45.8253337,33.0293334 45.756,33.024 C45.6866663,33.0186666 45.622667,33.0106667 45.564,33 L45.564,27.248 Z M50.372,27.248 C50.430667,27.2373333 50.493333,27.2293334 50.56,27.224 C50.626667,27.2186666 50.697333,27.216 50.772,27.216 C50.8413337,27.216 50.9106663,27.2186666 50.98,27.224 C51.0493337,27.2293334 51.1159997,27.2373333 51.18,27.248 L51.18,32.28 L53.436,32.28 C53.4466667,32.338667 53.4533333,32.3999997 53.456,32.464 C53.4586667,32.5280003 53.46,32.5866664 53.46,32.64 C53.46,32.7680006 53.4520001,32.8879994 53.436,33 L50.372,33 L50.372,27.248 Z M54.492,27.248 C54.5560003,27.2373333 54.6293329,27.2293334 54.712,27.224 C54.7946671,27.2186666 54.873333,27.216 54.948,27.216 C55.022667,27.216 55.1039996,27.2186666 55.192,27.224 C55.2800004,27.2293334 55.353333,27.2373333 55.412,27.248 L56.9,30.848 L58.396,27.248 C58.4493336,27.2373333 58.5159996,27.2293334 58.596,27.224 C58.6760004,27.2186666 58.753333,27.216 58.828,27.216 C58.8973337,27.216 58.9746662,27.2186666 59.06,27.224 C59.1453338,27.2293334 59.217333,27.2373333 59.276,27.248 L59.548,33 C59.4839997,33.0106667 59.418667,33.0186666 59.352,33.024 C59.285333,33.0293334 59.2173337,33.032 59.148,33.032 C59.0786663,33.032 59.010667,33.0293334 58.944,33.024 C58.877333,33.0186666 58.814667,33.0106667 58.756,33 L58.572,28.528 L57.164,31.808 C57.0573328,31.8240001 56.9480006,31.832 56.836,31.832 C56.7346662,31.832 56.6333338,31.8240001 56.532,31.808 L55.172,28.504 L54.988,33 C54.929333,33.0106667 54.8680003,33.0186666 54.804,33.024 C54.7399997,33.0293334 54.678667,33.032 54.62,33.032 C54.5506663,33.032 54.4840003,33.0293334 54.42,33.024 C54.3559997,33.0186666 54.294667,33.0106667 54.236,33 L54.492,27.248 Z M60.86,27.248 C60.918667,27.2373333 60.981333,27.2293334 61.048,27.224 C61.114667,27.2186666 61.177333,27.216 61.236,27.216 C61.294667,27.216 61.357333,27.2186666 61.424,27.224 C61.490667,27.2293334 61.553333,27.2373333 61.612,27.248 L64.116,31.568 L64.116,27.248 C64.1800003,27.2373333 64.2466663,27.2293334 64.316,27.224 C64.3853337,27.2186666 64.4546663,27.216 64.524,27.216 C64.582667,27.216 64.6439997,27.2186666 64.708,27.224 C64.7720003,27.2293334 64.833333,27.2373333 64.892,27.248 L64.892,33 C64.833333,33.0106667 64.770667,33.0186666 64.704,33.024 C64.637333,33.0293334 64.574667,33.032 64.516,33.032 C64.457333,33.032 64.394667,33.0293334 64.328,33.024 C64.261333,33.0186666 64.198667,33.0106667 64.14,33 L61.628,28.704 L61.628,33 C61.569333,33.0106667 61.506667,33.0186666 61.44,33.024 C61.373333,33.0293334 61.3080003,33.032 61.244,33.032 C61.1746663,33.032 61.106667,33.0293334 61.04,33.024 C60.973333,33.0186666 60.9133336,33.0106667 60.86,33 L60.86,27.248 Z M68.516,33.096 C68.0999979,33.096 67.7400015,33.0226674 67.436,32.876 C67.1319985,32.7293326 66.880001,32.5240013 66.68,32.26 C66.479999,31.9959987 66.3306672,31.6826685 66.232,31.32 C66.1333328,30.9573315 66.084,30.5600022 66.084,30.128 C66.084,29.6959978 66.1333328,29.2986685 66.232,28.936 C66.3306672,28.5733315 66.479999,28.2600013 66.68,27.996 C66.880001,27.7319987 67.1319985,27.5253341 67.436,27.376 C67.7400015,27.2266659 68.0999979,27.152 68.516,27.152 C68.9320021,27.152 69.2919985,27.2266659 69.596,27.376 C69.9000015,27.5253341 70.151999,27.7319987 70.352,27.996 C70.552001,28.2600013 70.6999995,28.5733315 70.796,28.936 C70.8920005,29.2986685 70.94,29.6959978 70.94,30.128 C70.94,30.5600022 70.8920005,30.9573315 70.796,31.32 C70.6999995,31.6826685 70.552001,31.9959987 70.352,32.26 C70.151999,32.5240013 69.9000015,32.7293326 69.596,32.876 C69.2919985,33.0226674 68.9320021,33.096 68.516,33.096 Z M68.516,32.392 C68.782668,32.392 69.0133324,32.3400005 69.208,32.236 C69.4026676,32.1319995 69.5639994,31.9813343 69.692,31.784 C69.8200006,31.5866657 69.9159997,31.3493347 69.98,31.072 C70.0440003,30.7946653 70.076,30.4800018 70.076,30.128 C70.076,29.7813316 70.0440003,29.4680014 69.98,29.188 C69.9159997,28.9079986 69.8200006,28.6706676 69.692,28.476 C69.5639994,28.2813324 69.4026676,28.1320005 69.208,28.028 C69.0133324,27.9239995 68.782668,27.872 68.516,27.872 C68.249332,27.872 68.0186676,27.9239995 67.824,28.028 C67.6293324,28.1320005 67.4680006,28.2813324 67.34,28.476 C67.2119994,28.6706676 67.1160003,28.9079986 67.052,29.188 C66.9879997,29.4680014 66.956,29.7813316 66.956,30.128 C66.956,30.4800018 66.9879997,30.7946653 67.052,31.072 C67.1160003,31.3493347 67.2119994,31.5866657 67.34,31.784 C67.4680006,31.9813343 67.6293324,32.1319995 67.824,32.236 C68.0186676,32.3400005 68.249332,32.392 68.516,32.392 Z M72.132,27.24 C72.2120004,27.2293333 72.3066661,27.2186667 72.416,27.208 C72.5253339,27.1973333 72.6399994,27.188 72.76,27.18 C72.8800006,27.172 72.9999994,27.1653334 73.12,27.16 C73.2400006,27.1546666 73.3559994,27.152 73.468,27.152 C73.7613348,27.152 74.0399987,27.181333 74.304,27.24 C74.5680013,27.298667 74.799999,27.3999993 75,27.544 C75.200001,27.6880007 75.3586661,27.8786655 75.476,28.116 C75.5933339,28.3533345 75.652,28.6506649 75.652,29.008 C75.652,29.3813352 75.589334,29.6919988 75.464,29.94 C75.338666,30.1880012 75.1733344,30.3866659 74.968,30.536 C74.7626656,30.6853341 74.5293346,30.7906664 74.268,30.852 C74.0066654,30.9133336 73.7400014,30.944 73.468,30.944 C73.3666662,30.944 73.2773337,30.9426667 73.2,30.94 C73.1226663,30.9373333 73.0386671,30.9306667 72.948,30.92 L72.948,33 C72.8199994,33.0160001 72.6840007,33.024 72.54,33.024 C72.4759997,33.024 72.4080004,33.0226667 72.336,33.02 C72.2639996,33.0173333 72.1960003,33.0106667 72.132,33 L72.132,27.24 Z M72.948,30.208 C73.0333338,30.2186667 73.1079997,30.2266666 73.172,30.232 C73.2360003,30.2373334 73.3293327,30.24 73.452,30.24 C73.6173342,30.24 73.7813325,30.2226668 73.944,30.188 C74.1066675,30.1533332 74.2519994,30.0906671 74.38,30 C74.5080006,29.9093329 74.6106663,29.7853341 74.688,29.628 C74.7653337,29.4706659 74.804,29.2666679 74.804,29.016 C74.804,28.7973322 74.770667,28.6133341 74.704,28.464 C74.637333,28.3146659 74.5453339,28.1946671 74.428,28.104 C74.3106661,28.0133329 74.1693342,27.9493335 74.004,27.912 C73.8386658,27.8746665 73.660001,27.856 73.468,27.856 C73.2706657,27.856 73.0973341,27.8639999 72.948,27.88 L72.948,30.208 Z M81.356,33.52 C81.3506666,33.6426673 81.3386668,33.7639994 81.32,33.884 C81.3013332,34.0040006 81.2680002,34.1199994 81.22,34.232 L79.38,33.888 C79.3906667,33.7386659 79.4066666,33.6160005 79.428,33.52 C79.4493334,33.4239995 79.4813331,33.3173339 79.524,33.2 L81.356,33.52 Z M78.852,33.096 C78.4359979,33.096 78.0760015,33.0226674 77.772,32.876 C77.4679985,32.7293326 77.216001,32.5240013 77.016,32.26 C76.815999,31.9959987 76.6666672,31.6826685 76.568,31.32 C76.4693328,30.9573315 76.42,30.5600022 76.42,30.128 C76.42,29.6959978 76.4693328,29.2986685 76.568,28.936 C76.6666672,28.5733315 76.815999,28.2600013 77.016,27.996 C77.216001,27.7319987 77.4679985,27.5253341 77.772,27.376 C78.0760015,27.2266659 78.4359979,27.152 78.852,27.152 C79.2680021,27.152 79.6279985,27.2266659 79.932,27.376 C80.2360015,27.5253341 80.487999,27.7319987 80.688,27.996 C80.888001,28.2600013 81.0359995,28.5733315 81.132,28.936 C81.2280005,29.2986685 81.276,29.6959978 81.276,30.128 C81.276,30.5600022 81.2280005,30.9573315 81.132,31.32 C81.0359995,31.6826685 80.888001,31.9959987 80.688,32.26 C80.487999,32.5240013 80.2360015,32.7293326 79.932,32.876 C79.6279985,33.0226674 79.2680021,33.096 78.852,33.096 Z M78.852,32.392 C79.118668,32.392 79.3493324,32.3400005 79.544,32.236 C79.7386676,32.1319995 79.8999994,31.9813343 80.028,31.784 C80.1560006,31.5866657 80.2519997,31.3493347 80.316,31.072 C80.3800003,30.7946653 80.412,30.4800018 80.412,30.128 C80.412,29.7813316 80.3800003,29.4680014 80.316,29.188 C80.2519997,28.9079986 80.1560006,28.6706676 80.028,28.476 C79.8999994,28.2813324 79.7386676,28.1320005 79.544,28.028 C79.3493324,27.9239995 79.118668,27.872 78.852,27.872 C78.585332,27.872 78.3546676,27.9239995 78.16,28.028 C77.9653324,28.1320005 77.8040006,28.2813324 77.676,28.476 C77.5479994,28.6706676 77.4520003,28.9079986 77.388,29.188 C77.3239997,29.4680014 77.292,29.7813316 77.292,30.128 C77.292,30.4800018 77.3239997,30.7946653 77.388,31.072 C77.4520003,31.3493347 77.5479994,31.5866657 77.676,31.784 C77.8040006,31.9813343 77.9653324,32.1319995 78.16,32.236 C78.3546676,32.3400005 78.585332,32.392 78.852,32.392 Z M82.468,27.24 C82.5853339,27.2293333 82.6919995,27.2186667 82.788,27.208 C82.8840005,27.1973333 82.9786662,27.188 83.072,27.18 C83.1653338,27.172 83.2626662,27.1653334 83.364,27.16 C83.4653338,27.1546666 83.5773327,27.152 83.7,27.152 C83.9720014,27.152 84.241332,27.1786664 84.508,27.232 C84.774668,27.2853336 85.011999,27.378666 85.22,27.512 C85.428001,27.645334 85.5973327,27.8253322 85.728,28.052 C85.8586673,28.2786678 85.924,28.5653316 85.924,28.912 C85.924,29.120001 85.8893337,29.3093325 85.82,29.48 C85.7506663,29.6506675 85.6626672,29.802666 85.556,29.936 C85.4493328,30.069334 85.3280007,30.1853328 85.192,30.284 C85.0559993,30.3826672 84.9240006,30.4639997 84.796,30.528 L84.7,30.576 L86.372,33 C86.2279993,33.0160001 86.0653342,33.024 85.884,33.024 C85.7399993,33.024 85.5960007,33.0160001 85.452,33 L83.612,30.336 L83.612,30.304 L83.676,30.288 C83.8200007,30.2506665 83.9719992,30.2000003 84.132,30.136 C84.2920008,30.0719997 84.4399993,29.9880005 84.576,29.884 C84.7120007,29.7799995 84.8253329,29.6546674 84.916,29.508 C85.0066671,29.3613326 85.052,29.184001 85.052,28.976 C85.052,28.5919981 84.9386678,28.3066676 84.712,28.12 C84.4853322,27.9333324 84.1800019,27.84 83.796,27.84 C83.7053329,27.84 83.6213337,27.8426666 83.544,27.848 C83.4666663,27.8533334 83.3800005,27.8613333 83.284,27.872 L83.284,33 C83.225333,33.0053334 83.1600004,33.0106666 83.088,33.016 C83.0159996,33.0213334 82.9480003,33.024 82.884,33.024 C82.8199997,33.024 82.750667,33.0226667 82.676,33.02 C82.601333,33.0173333 82.5320003,33.0106667 82.468,33 L82.468,27.24 Z M87.084,32.128 C87.2600009,32.1920003 87.443999,32.2479998 87.636,32.296 C87.828001,32.3440002 88.0626653,32.368 88.34,32.368 C88.7773355,32.368 89.1039989,32.2786676 89.32,32.1 C89.5360011,31.9213324 89.644,31.6800015 89.644,31.376 C89.644,31.2266659 89.6213336,31.0986672 89.576,30.992 C89.5306664,30.8853328 89.4626671,30.7933337 89.372,30.716 C89.2813329,30.6386663 89.1680007,30.5680003 89.032,30.504 C88.8959993,30.4399997 88.7373342,30.370667 88.556,30.296 L88.1,30.112 C87.9453326,30.0479997 87.8040006,29.9773337 87.676,29.9 C87.5479994,29.8226663 87.4373338,29.7280006 87.344,29.616 C87.2506662,29.5039994 87.1773336,29.3746674 87.124,29.228 C87.0706664,29.0813326 87.044,28.9066677 87.044,28.704 C87.044,28.2186642 87.2093317,27.838668 87.54,27.564 C87.8706683,27.289332 88.3346637,27.152 88.932,27.152 C89.1880013,27.152 89.4306655,27.1733331 89.66,27.216 C89.8893345,27.2586669 90.0919991,27.3119997 90.268,27.376 C90.2413332,27.6000011 90.1826671,27.8213322 90.092,28.04 C89.9479993,27.9866664 89.7813343,27.9386669 89.592,27.896 C89.4026657,27.8533331 89.1880012,27.832 88.948,27.832 C88.6119983,27.832 88.3533342,27.8999993 88.172,28.036 C87.9906658,28.1720007 87.9,28.3759986 87.9,28.648 C87.9,28.7600006 87.9226664,28.8599996 87.968,28.948 C88.0133336,29.0360004 88.073333,29.113333 88.148,29.18 C88.222667,29.246667 88.3106662,29.3066664 88.412,29.36 C88.5133338,29.4133336 88.6199994,29.4613331 88.732,29.504 L89.18,29.68 C89.3933344,29.7653338 89.5826658,29.8546662 89.748,29.948 C89.9133342,30.0413338 90.0546661,30.150666 90.172,30.276 C90.2893339,30.401334 90.3786664,30.5493325 90.44,30.72 C90.5013336,30.8906675 90.532,31.0906655 90.532,31.32 C90.532,31.8693361 90.3426686,32.3026651 89.964,32.62 C89.5853314,32.9373349 89.0546701,33.096 88.372,33.096 C88.2066658,33.096 88.057334,33.0906667 87.924,33.08 C87.790666,33.0693333 87.6666672,33.0533334 87.552,33.032 C87.4373328,33.0106666 87.3266672,32.9840002 87.22,32.952 C87.1133328,32.9199998 87.0040006,32.8853335 86.892,32.848 C86.9026667,32.7306661 86.9266665,32.6106673 86.964,32.488 C87.0013335,32.3653327 87.0413331,32.2453339 87.084,32.128 Z M92.58,27.96 L91.084,27.96 C91.0733333,27.9066664 91.0653334,27.8480003 91.06,27.784 C91.0546666,27.7199997 91.052,27.658667 91.052,27.6 C91.052,27.541333 91.0546666,27.4813336 91.06,27.42 C91.0653334,27.3586664 91.0733333,27.3013336 91.084,27.248 L94.892,27.248 C94.9026667,27.3013336 94.9106666,27.357333 94.916,27.416 C94.9213334,27.474667 94.924,27.533333 94.924,27.592 C94.924,27.650667 94.9213334,27.713333 94.916,27.78 C94.9106666,27.846667 94.9026667,27.9066664 94.892,27.96 L93.396,27.96 L93.396,33 C93.2733327,33.0160001 93.1400007,33.024 92.996,33.024 C92.8466659,33.024 92.7080006,33.0160001 92.58,33 L92.58,27.96 Z M95.74,27.248 C95.8680006,27.2319999 96.0066659,27.224 96.156,27.224 C96.3000007,27.224 96.4333327,27.2319999 96.556,27.248 L96.556,30.512 C96.556,30.8426683 96.5773331,31.1253322 96.62,31.36 C96.6626669,31.5946678 96.7319995,31.7853326 96.828,31.932 C96.9240005,32.0786674 97.0506659,32.1866663 97.208,32.256 C97.3653341,32.3253337 97.5586655,32.36 97.788,32.36 C98.0173345,32.36 98.2093326,32.3253337 98.364,32.256 C98.5186674,32.1866663 98.6439995,32.0786674 98.74,31.932 C98.8360005,31.7853326 98.9053331,31.5946678 98.948,31.36 C98.9906669,31.1253322 99.012,30.8426683 99.012,30.512 L99.012,27.248 C99.145334,27.2319999 99.2813326,27.224 99.42,27.224 C99.5693341,27.224 99.7079994,27.2319999 99.836,27.248 L99.836,30.656 C99.836,31.0400019 99.8000004,31.3839985 99.728,31.688 C99.6559996,31.9920015 99.5386675,32.247999 99.376,32.456 C99.2133325,32.664001 99.0013346,32.8226661 98.74,32.932 C98.4786654,33.0413339 98.1613352,33.096 97.788,33.096 C97.4146648,33.096 97.0973346,33.0413339 96.836,32.932 C96.5746654,32.8226661 96.3626675,32.664001 96.2,32.456 C96.0373325,32.247999 95.9200004,31.9920015 95.848,31.688 C95.7759996,31.3839985 95.74,31.0400019 95.74,30.656 L95.74,27.248 Z M100.66,27.248 C100.718667,27.2373333 100.789333,27.2293334 100.872,27.224 C100.954667,27.2186666 101.033333,27.216 101.108,27.216 C101.177334,27.216 101.253333,27.2186666 101.336,27.224 C101.418667,27.2293334 101.494666,27.2373333 101.564,27.248 L103.02,32.168 L104.468,27.248 C104.612001,27.2319999 104.758666,27.224 104.908,27.224 C104.977334,27.224 105.050666,27.2253333 105.128,27.228 C105.205334,27.2306667 105.276,27.2373333 105.34,27.248 L103.468,33 C103.398666,33.0106667 103.321334,33.0186666 103.236,33.024 C103.150666,33.0293334 103.070667,33.032 102.996,33.032 C102.921333,33.032 102.842667,33.0293334 102.76,33.024 C102.677333,33.0186666 102.598667,33.0106667 102.524,33 L100.66,27.248 Z M105.732,27.248 C105.790667,27.2373333 105.864,27.2293334 105.952,27.224 C106.04,27.2186666 106.121333,27.216 106.196,27.216 C106.270667,27.216 106.346666,27.2186666 106.424,27.224 C106.501334,27.2293334 106.572,27.2373333 106.636,27.248 L107.62,32.04 L108.804,27.248 C108.868,27.2373333 108.938666,27.2293334 109.016,27.224 C109.093334,27.2186666 109.166666,27.216 109.236,27.216 C109.3,27.216 109.372,27.2186666 109.452,27.224 C109.532,27.2293334 109.601333,27.2373333 109.66,27.248 L110.852,32.088 L111.852,27.248 C111.910667,27.2373333 111.973333,27.2293334 112.04,27.224 C112.106667,27.2186666 112.172,27.216 112.236,27.216 C112.310667,27.216 112.386666,27.2186666 112.464,27.224 C112.541334,27.2293334 112.609333,27.2373333 112.668,27.248 L111.284,33 C111.22,33.0106667 111.145334,33.0186666 111.06,33.024 C110.974666,33.0293334 110.897334,33.032 110.828,33.032 C110.753333,33.032 110.670667,33.0293334 110.58,33.024 C110.489333,33.0186666 110.406667,33.0106667 110.332,33 L109.196,28.496 L108.044,33 C107.969333,33.0106667 107.888,33.0186666 107.8,33.024 C107.712,33.0293334 107.630667,33.032 107.556,33.032 C107.492,33.032 107.418667,33.0293334 107.336,33.024 C107.253333,33.0186666 107.18,33.0106667 107.116,33 L105.732,27.248 Z M115.284,29.992 L113.916,33 C113.761333,33.0160001 113.620001,33.024 113.492,33.024 C113.358666,33.024 113.212001,33.0160001 113.052,33 L114.476,29.992 L113.276,27.256 C113.356,27.2453333 113.430666,27.2386667 113.5,27.236 C113.569334,27.2333333 113.641333,27.232 113.716,27.232 C113.860001,27.232 114.001333,27.2399999 114.14,27.256 L115.284,29.992 Z M115.348,29.992 L116.492,27.256 C116.550667,27.2506666 116.606666,27.2453334 116.66,27.24 C116.713334,27.2346666 116.769333,27.232 116.828,27.232 L117.044,27.232 C117.102667,27.232 117.153333,27.2333333 117.196,27.236 C117.238667,27.2386667 117.289333,27.2453333 117.348,27.256 L116.148,29.968 L117.58,33 C117.419999,33.0160001 117.273334,33.024 117.14,33.024 C117.022666,33.024 116.881334,33.0160001 116.716,33 L115.348,29.992 Z M119.724,30.896 L117.9,27.248 C117.969334,27.2373333 118.044,27.2293334 118.124,27.224 C118.204,27.2186666 118.284,27.216 118.364,27.216 C118.433334,27.216 118.509333,27.2186666 118.592,27.224 C118.674667,27.2293334 118.748,27.2373333 118.812,27.248 L120.156,30.104 L121.484,27.248 C121.553334,27.2373333 121.622666,27.2293334 121.692,27.224 C121.761334,27.2186666 121.833333,27.216 121.908,27.216 C121.982667,27.216 122.057333,27.2186666 122.132,27.224 C122.206667,27.2293334 122.278666,27.2373333 122.348,27.248 L120.548,30.896 L120.548,33 C120.478666,33.0106667 120.409334,33.0186666 120.34,33.024 C120.270666,33.0293334 120.201334,33.032 120.132,33.032 C120.062666,33.032 119.992,33.0293334 119.92,33.024 C119.848,33.0186666 119.782667,33.0106667 119.724,33 L119.724,30.896 Z M122.684,32.928 L125.58,27.96 L123.044,27.96 C123.033333,27.9119998 123.025333,27.8560003 123.02,27.792 C123.014667,27.7279997 123.012,27.666667 123.012,27.608 C123.012,27.549333 123.014667,27.4880003 123.02,27.424 C123.025333,27.3599997 123.033333,27.3013336 123.044,27.248 L126.78,27.248 L126.836,27.32 L123.932,32.288 L126.628,32.288 C126.638667,32.3360002 126.646667,32.393333 126.652,32.46 C126.657333,32.526667 126.66,32.589333 126.66,32.648 C126.66,32.706667 126.657333,32.7679997 126.652,32.832 C126.646667,32.8960003 126.638667,32.9519998 126.628,33 L122.732,33 L122.684,32.928 Z M12.78,40.072 C12.6999996,40.0613333 12.5986673,40.0506667 12.476,40.04 C12.3533327,40.0293333 12.2493338,40.024 12.164,40.024 C11.8333317,40.024 11.5813342,40.0853327 11.408,40.208 C11.2346658,40.3306673 11.148,40.5173321 11.148,40.768 C11.148,40.9280008 11.177333,41.0533329 11.236,41.144 C11.294667,41.2346671 11.3679996,41.3039998 11.456,41.352 C11.5440004,41.4000002 11.6413328,41.4293333 11.748,41.44 C11.8546672,41.4506667 11.9559995,41.456 12.052,41.456 C12.1746673,41.456 12.3013327,41.4493334 12.432,41.436 C12.5626673,41.4226666 12.6786662,41.4026668 12.78,41.376 L12.78,40.072 Z M12.78,39.296 C12.78,38.9813318 12.7000008,38.7626673 12.54,38.64 C12.3799992,38.5173327 12.1480015,38.456 11.844,38.456 C11.6573324,38.456 11.4826675,38.4706665 11.32,38.5 C11.1573325,38.5293335 10.9986674,38.5679998 10.844,38.616 C10.7426662,38.4399991 10.692,38.2293346 10.692,37.984 C10.8733342,37.925333 11.0733322,37.8800002 11.292,37.848 C11.5106678,37.8159998 11.7213323,37.8 11.924,37.8 C12.457336,37.8 12.8626653,37.9213321 13.14,38.164 C13.4173347,38.4066679 13.556,38.794664 13.556,39.328 L13.556,41.896 C13.3693324,41.9386669 13.142668,41.9826664 12.876,42.028 C12.609332,42.0733336 12.3373347,42.096 12.06,42.096 C11.7986654,42.096 11.5626677,42.0720002 11.352,42.024 C11.1413323,41.9759998 10.9626674,41.8986672 10.816,41.792 C10.6693326,41.6853328 10.5560004,41.5493342 10.476,41.384 C10.3959996,41.2186658 10.356,41.0186678 10.356,40.784 C10.356,40.5546655 10.4026662,40.3533342 10.496,40.18 C10.5893338,40.0066658 10.7159992,39.8626672 10.876,39.748 C11.0360008,39.6333328 11.219999,39.5480003 11.428,39.492 C11.636001,39.4359997 11.8546655,39.408 12.084,39.408 C12.2546675,39.408 12.3946661,39.412 12.504,39.42 C12.6133339,39.428 12.705333,39.4373333 12.78,39.448 L12.78,39.296 Z M14.74,36.136 C14.798667,36.1253333 14.8639996,36.1173334 14.936,36.112 C15.0080004,36.1066666 15.073333,36.104 15.132,36.104 C15.190667,36.104 15.257333,36.1066666 15.332,36.112 C15.406667,36.1173334 15.473333,36.1253333 15.532,36.136 L15.532,38.392 C15.6280005,38.2319992 15.7773323,38.0933339 15.98,37.976 C16.1826677,37.8586661 16.4279986,37.8 16.716,37.8 C16.9613346,37.8 17.187999,37.8399996 17.396,37.92 C17.604001,38.0000004 17.7826659,38.1239992 17.932,38.292 C18.0813341,38.4600008 18.1973329,38.673332 18.28,38.932 C18.3626671,39.190668 18.404,39.4959982 18.404,39.848 C18.404,40.5520035 18.2053353,41.1026647 17.808,41.5 C17.4106647,41.8973353 16.8386704,42.096 16.092,42.096 C15.8573322,42.096 15.6160012,42.0733336 15.368,42.028 C15.1199988,41.9826664 14.9106675,41.930667 14.74,41.872 L14.74,36.136 Z M15.532,41.336 C15.6280005,41.3680002 15.7306661,41.3906666 15.84,41.404 C15.9493339,41.4173334 16.0626661,41.424 16.18,41.424 C16.3773343,41.424 16.5599992,41.3933336 16.728,41.332 C16.8960008,41.2706664 17.0413327,41.177334 17.164,41.052 C17.2866673,40.926666 17.3839996,40.7666676 17.456,40.572 C17.5280004,40.3773324 17.564,40.146668 17.564,39.88 C17.564,39.4373311 17.4866674,39.0933346 17.332,38.848 C17.1773326,38.6026654 16.9213351,38.48 16.564,38.48 C16.4413327,38.48 16.3200006,38.4999998 16.2,38.54 C16.0799994,38.5800002 15.9693338,38.6439996 15.868,38.732 C15.7666662,38.8200004 15.6853336,38.9373326 15.624,39.084 C15.5626664,39.2306674 15.532,39.407999 15.532,39.616 L15.532,41.336 Z M22.204,41.288 C22.2466669,41.362667 22.2839998,41.4559994 22.316,41.568 C22.3480002,41.6800006 22.3666666,41.7946661 22.372,41.912 C22.0573318,42.0346673 21.6973354,42.096 21.292,42.096 C20.6093299,42.096 20.0946684,41.9026686 19.748,41.516 C19.4013316,41.1293314 19.228,40.6080033 19.228,39.952 C19.228,39.6479985 19.2706662,39.3653346 19.356,39.104 C19.4413338,38.8426654 19.5679992,38.616001 19.736,38.424 C19.9040008,38.231999 20.1133321,38.0800006 20.364,37.968 C20.6146679,37.8559994 20.9053317,37.8 21.236,37.8 C21.4600011,37.8 21.6573325,37.8133332 21.828,37.84 C21.9986675,37.8666668 22.1613326,37.909333 22.316,37.968 C22.316,38.0586671 22.3040001,38.1639994 22.28,38.284 C22.2559999,38.4040006 22.2226669,38.5093329 22.18,38.6 C21.9186654,38.5093329 21.6200017,38.464 21.284,38.464 C20.8733313,38.464 20.5666677,38.5999986 20.364,38.872 C20.1613323,39.1440014 20.06,39.5039978 20.06,39.952 C20.06,40.4640026 20.1746655,40.8386655 20.404,41.076 C20.6333345,41.3133345 20.947998,41.432 21.348,41.432 C21.5080008,41.432 21.6559993,41.4213334 21.792,41.4 C21.9280007,41.3786666 22.0653326,41.3413336 22.204,41.288 Z M25.924,36.136 C25.982667,36.1253333 26.049333,36.1173334 26.124,36.112 C26.198667,36.1066666 26.2626664,36.104 26.316,36.104 C26.374667,36.104 26.4399996,36.1066666 26.512,36.112 C26.5840004,36.1173334 26.649333,36.1253333 26.708,36.136 L26.708,41.888 C26.5053323,41.946667 26.2786679,41.9959998 26.028,42.036 C25.7773321,42.0760002 25.4973349,42.096 25.188,42.096 C24.8999986,42.096 24.626668,42.0600004 24.368,41.988 C24.109332,41.9159996 23.884001,41.7973342 23.692,41.632 C23.499999,41.4666658 23.3480006,41.2533346 23.236,40.992 C23.1239994,40.7306654 23.068,40.4080019 23.068,40.024 C23.068,39.6933317 23.1173328,39.3920014 23.216,39.12 C23.3146672,38.8479986 23.4546658,38.6146676 23.636,38.42 C23.8173342,38.2253324 24.0346654,38.0746672 24.288,37.968 C24.5413346,37.8613328 24.8226651,37.808 25.132,37.808 C25.2706674,37.808 25.410666,37.8186666 25.552,37.84 C25.693334,37.8613334 25.8173328,37.8879998 25.924,37.92 L25.924,36.136 Z M25.924,38.592 C25.8173328,38.5493331 25.7026673,38.5173334 25.58,38.496 C25.4573327,38.4746666 25.3240007,38.464 25.18,38.464 C24.9613322,38.464 24.7720008,38.5039996 24.612,38.584 C24.4519992,38.6640004 24.3200005,38.7733326 24.216,38.912 C24.1119995,39.0506674 24.0346669,39.2146657 23.984,39.404 C23.9333331,39.5933343 23.908,39.7999989 23.908,40.024 C23.9133334,40.5306692 24.0333322,40.8933322 24.268,41.112 C24.5026678,41.3306678 24.8226646,41.44 25.228,41.44 C25.3666674,41.44 25.4946661,41.4333334 25.612,41.42 C25.7293339,41.4066666 25.8333329,41.3866668 25.924,41.36 L25.924,38.592 Z M28.572,40.144 C28.5826667,40.5920022 28.6986656,40.919999 28.92,41.128 C29.1413344,41.336001 29.4679978,41.44 29.9,41.44 C30.2786686,41.44 30.638665,41.373334 30.98,41.24 C31.0226669,41.3200004 31.0573332,41.4173328 31.084,41.532 C31.1106668,41.6466672 31.1266666,41.7599994 31.132,41.872 C30.9559991,41.946667 30.7626677,42.0026665 30.552,42.04 C30.3413323,42.0773335 30.1080013,42.096 29.852,42.096 C29.4786648,42.096 29.158668,42.0440005 28.892,41.94 C28.625332,41.8359995 28.4053342,41.6893343 28.232,41.5 C28.0586658,41.3106657 27.9320004,41.086668 27.852,40.828 C27.7719996,40.569332 27.732,40.2853349 27.732,39.976 C27.732,39.6719985 27.7706663,39.3880013 27.848,39.124 C27.9253337,38.8599987 28.0439992,38.6306676 28.204,38.436 C28.3640008,38.2413324 28.5653321,38.0866672 28.808,37.972 C29.0506679,37.8573328 29.3373317,37.8 29.668,37.8 C29.9506681,37.8 30.1986656,37.8479995 30.412,37.944 C30.6253344,38.0400005 30.8039993,38.1719992 30.948,38.34 C31.0920007,38.5080008 31.201333,38.7079988 31.276,38.94 C31.350667,39.1720012 31.388,39.4239986 31.388,39.696 C31.388,39.770667 31.3853334,39.8493329 31.38,39.932 C31.3746666,40.0146671 31.3693334,40.085333 31.364,40.144 L28.572,40.144 Z M30.604,39.552 C30.604,39.4026659 30.5840002,39.2600007 30.544,39.124 C30.5039998,38.9879993 30.4453337,38.8693338 30.368,38.768 C30.2906663,38.6666662 30.1920006,38.5853336 30.072,38.524 C29.9519994,38.4626664 29.8093342,38.432 29.644,38.432 C29.318665,38.432 29.0693342,38.5306657 28.896,38.728 C28.7226658,38.9253343 28.6173335,39.1999982 28.58,39.552 L30.604,39.552 Z M32.708,38.52 L32.036,38.52 C32.0146666,38.4346662 32.004,38.3306673 32.004,38.208 C32.004,38.0906661 32.0146666,37.9866671 32.036,37.896 L32.708,37.896 L32.708,37.608 C32.708,37.1013308 32.8346654,36.7160013 33.088,36.452 C33.3413346,36.1879987 33.7106642,36.056 34.196,36.056 C34.329334,36.056 34.4466662,36.0626666 34.548,36.076 C34.6493338,36.0893334 34.7453329,36.1093332 34.836,36.136 C34.8253333,36.269334 34.8106668,36.3839995 34.792,36.48 C34.7733332,36.5760005 34.7480002,36.6746662 34.716,36.776 C34.6626664,36.7653333 34.6000004,36.7533334 34.528,36.74 C34.4559996,36.7266666 34.3693338,36.72 34.268,36.72 C34.1506661,36.72 34.0453338,36.7319999 33.952,36.756 C33.8586662,36.7800001 33.778667,36.825333 33.712,36.892 C33.645333,36.958667 33.5933335,37.0519994 33.556,37.172 C33.5186665,37.2920006 33.5,37.4453324 33.5,37.632 L33.5,37.896 L34.548,37.896 C34.5640001,38.0026672 34.572,38.1119994 34.572,38.224 C34.572,38.3253338 34.5640001,38.4239995 34.548,38.52 L33.5,38.52 L33.5,42 C33.441333,42.0106667 33.3760004,42.0186666 33.304,42.024 C33.2319996,42.0293334 33.166667,42.032 33.108,42.032 C33.049333,42.032 32.982667,42.0293334 32.908,42.024 C32.833333,42.0186666 32.766667,42.0106667 32.708,42 L32.708,38.52 Z M37.588,41.472 C38.062669,41.4826667 38.4066656,41.583999 38.62,41.776 C38.8333344,41.968001 38.94,42.2319983 38.94,42.568 C38.94,42.7866678 38.8840006,42.9826658 38.772,43.156 C38.6599994,43.3293342 38.5053343,43.478666 38.308,43.604 C38.1106657,43.729334 37.8773347,43.825333 37.608,43.892 C37.3386653,43.958667 37.0466682,43.992 36.732,43.992 C36.1826639,43.992 35.7640014,43.9066675 35.476,43.736 C35.1879986,43.5653325 35.044,43.2960018 35.044,42.928 C35.044,42.7093322 35.1026661,42.5133342 35.22,42.34 C35.3373339,42.1666658 35.4893324,42.0293338 35.676,41.928 C35.5693328,41.8586663 35.4800004,41.7720005 35.408,41.668 C35.3359996,41.5639995 35.3,41.4346674 35.3,41.28 C35.3,41.0826657 35.3439996,40.9120007 35.432,40.768 C35.5200004,40.6239993 35.6386659,40.4960006 35.788,40.384 C35.6119991,40.2613327 35.4706672,40.1026676 35.364,39.908 C35.2573328,39.7133324 35.204,39.4933346 35.204,39.248 C35.204,39.0453323 35.241333,38.8560009 35.316,38.68 C35.390667,38.5039991 35.498666,38.3506673 35.64,38.22 C35.781334,38.0893327 35.955999,37.986667 36.164,37.912 C36.372001,37.837333 36.609332,37.8 36.876,37.8 C37.1160012,37.8 37.3333324,37.8346663 37.528,37.904 C37.7226676,37.9733337 37.8893326,38.0613328 38.028,38.168 C38.1346672,38.0826662 38.2786658,38.0120003 38.46,37.956 C38.6413342,37.8999997 38.8413322,37.872 39.06,37.872 C39.0813334,37.9733338 39.092,38.0853327 39.092,38.208 C39.092,38.266667 39.0893334,38.3279997 39.084,38.392 C39.0786666,38.4560003 39.0706667,38.5199997 39.06,38.584 L38.34,38.584 C38.398667,38.6746671 38.4439998,38.7733328 38.476,38.88 C38.5080002,38.9866672 38.524,39.1093326 38.524,39.248 C38.524,39.4666678 38.4840004,39.6639991 38.404,39.84 C38.3239996,40.0160009 38.2106674,40.166666 38.064,40.292 C37.9173326,40.417334 37.7426677,40.513333 37.54,40.58 C37.3373323,40.646667 37.1160012,40.68 36.876,40.68 C36.6573322,40.68 36.4600009,40.6560002 36.284,40.608 C36.209333,40.6506669 36.1360004,40.7159996 36.064,40.804 C35.9919996,40.8920004 35.956,40.9866662 35.956,41.088 C35.956,41.1840005 35.9906663,41.2679996 36.06,41.34 C36.1293337,41.4120004 36.2839988,41.4506666 36.524,41.456 L37.588,41.472 Z M36.508,42.104 C36.2679988,42.0986666 36.0880006,42.162666 35.968,42.296 C35.8479994,42.429334 35.788,42.5893324 35.788,42.776 C35.788,42.8933339 35.8119998,42.989333 35.86,43.064 C35.9080002,43.138667 35.9759996,43.1986664 36.064,43.244 C36.1520004,43.2893336 36.2559994,43.3213332 36.376,43.34 C36.4960006,43.3586668 36.6279993,43.368 36.772,43.368 C37.1986688,43.368 37.5319988,43.297334 37.772,43.156 C38.0120012,43.014666 38.132,42.8373344 38.132,42.624 C38.132,42.4639992 38.0813338,42.3413338 37.98,42.256 C37.8786662,42.1706662 37.6920014,42.1253334 37.42,42.12 L36.508,42.104 Z M36.876,40.104 C37.1640014,40.104 37.3773326,40.0240008 37.516,39.864 C37.6546674,39.7039992 37.724,39.4986679 37.724,39.248 C37.724,38.9919987 37.6546674,38.7826675 37.516,38.62 C37.3773326,38.4573325 37.1640014,38.376 36.876,38.376 C36.5879986,38.376 36.3760007,38.4573325 36.24,38.62 C36.1039993,38.7826675 36.036,38.9919987 36.036,39.248 C36.036,39.4986679 36.1039993,39.7039992 36.24,39.864 C36.3760007,40.0240008 36.5879986,40.104 36.876,40.104 Z M39.804,36.136 C39.862667,36.1253333 39.9279996,36.1173334 40,36.112 C40.0720004,36.1066666 40.137333,36.104 40.196,36.104 C40.254667,36.104 40.321333,36.1066666 40.396,36.112 C40.470667,36.1173334 40.537333,36.1253333 40.596,36.136 L40.596,38.52 C40.6440002,38.445333 40.7039996,38.3653338 40.776,38.28 C40.8480004,38.1946662 40.9359995,38.1160004 41.04,38.044 C41.1440005,37.9719996 41.2639993,37.9133336 41.4,37.868 C41.5360007,37.8226664 41.6866658,37.8 41.852,37.8 C42.3213357,37.8 42.6693322,37.9346653 42.896,38.204 C43.1226678,38.4733347 43.236,38.8719974 43.236,39.4 L43.236,42 C43.177333,42.0106667 43.1120004,42.0186666 43.04,42.024 C42.9679996,42.0293334 42.902667,42.032 42.844,42.032 C42.785333,42.032 42.7200004,42.0293334 42.648,42.024 C42.5759996,42.0186666 42.510667,42.0106667 42.452,42 L42.452,39.616 C42.452,39.2373314 42.389334,38.9586676 42.264,38.78 C42.138666,38.6013324 41.9480013,38.512 41.692,38.512 C41.5479993,38.512 41.409334,38.5373331 41.276,38.588 C41.142666,38.6386669 41.0253338,38.7186661 40.924,38.828 C40.8226662,38.9373339 40.742667,39.0799991 40.684,39.256 C40.625333,39.4320009 40.596,39.6453321 40.596,39.896 L40.596,42 C40.537333,42.0106667 40.470667,42.0186666 40.396,42.024 C40.321333,42.0293334 40.254667,42.032 40.196,42.032 C40.1426664,42.032 40.078667,42.0293334 40.004,42.024 C39.929333,42.0186666 39.862667,42.0106667 39.804,42 L39.804,36.136 Z M44.676,38.52 L44.156,38.52 C44.1453333,38.4773331 44.1373334,38.4280003 44.132,38.372 C44.1266666,38.3159997 44.124,38.2613336 44.124,38.208 C44.124,38.1546664 44.1266666,38.1000003 44.132,38.044 C44.1373334,37.9879997 44.1453333,37.9386669 44.156,37.896 L45.452,37.896 L45.452,42 C45.393333,42.0106667 45.3280004,42.0186666 45.256,42.024 C45.1839996,42.0293334 45.118667,42.032 45.06,42.032 C45.0066664,42.032 44.9440004,42.0293334 44.872,42.024 C44.7999996,42.0186666 44.734667,42.0106667 44.676,42 L44.676,38.52 Z M44.5,36.992 C44.4893333,36.9279997 44.4826667,36.858667 44.48,36.784 C44.4773333,36.709333 44.476,36.642667 44.476,36.584 C44.476,36.525333 44.4773333,36.458667 44.48,36.384 C44.4826667,36.309333 44.4893333,36.242667 44.5,36.184 C44.5693337,36.1733333 44.6439996,36.1653334 44.724,36.16 C44.8040004,36.1546666 44.873333,36.152 44.932,36.152 C44.990667,36.152 45.0599996,36.1546666 45.14,36.16 C45.2200004,36.1653334 45.2919997,36.1733333 45.356,36.184 C45.3666667,36.242667 45.3733333,36.309333 45.376,36.384 C45.3786667,36.458667 45.38,36.525333 45.38,36.584 C45.38,36.642667 45.3786667,36.709333 45.376,36.784 C45.3733333,36.858667 45.3666667,36.9279997 45.356,36.992 C45.2919997,37.0026667 45.2213337,37.0106666 45.144,37.016 C45.0666663,37.0213334 44.998667,37.024 44.94,37.024 C44.8759997,37.024 44.8040004,37.0213334 44.724,37.016 C44.6439996,37.0106666 44.5693337,37.0026667 44.5,36.992 Z M47.004,38.52 L46.484,38.52 C46.4733333,38.4773331 46.4653334,38.4280003 46.46,38.372 C46.4546666,38.3159997 46.452,38.2613336 46.452,38.208 C46.452,38.1546664 46.4546666,38.1000003 46.46,38.044 C46.4653334,37.9879997 46.4733333,37.9386669 46.484,37.896 L47.78,37.896 L47.78,42.232 C47.78,42.4720012 47.7480003,42.6719992 47.684,42.832 C47.6199997,42.9920008 47.5306672,43.1213328 47.416,43.22 C47.3013328,43.3186672 47.1666674,43.3893331 47.012,43.432 C46.8573326,43.4746669 46.6893342,43.496 46.508,43.496 C46.2199986,43.496 45.9773343,43.4613337 45.78,43.392 C45.7853334,43.2906662 45.7986666,43.1866672 45.82,43.08 C45.8413334,42.9733328 45.8706665,42.8773338 45.908,42.792 C46.0360006,42.8346669 46.1853325,42.856 46.356,42.856 C46.4253337,42.856 46.497333,42.8506667 46.572,42.84 C46.646667,42.8293333 46.7159997,42.8013336 46.78,42.756 C46.8440003,42.7106664 46.8973331,42.6426671 46.94,42.552 C46.9826669,42.4613329 47.004,42.3360008 47.004,42.176 L47.004,38.52 Z M46.812,36.984 C46.8013333,36.909333 46.7933334,36.838667 46.788,36.772 C46.7826666,36.705333 46.78,36.642667 46.78,36.584 C46.78,36.525333 46.7826666,36.462667 46.788,36.396 C46.7933334,36.329333 46.8013333,36.2613337 46.812,36.192 C46.8813337,36.1813333 46.9559996,36.172 47.036,36.164 C47.1160004,36.156 47.185333,36.152 47.244,36.152 C47.302667,36.152 47.3706663,36.156 47.448,36.164 C47.5253337,36.172 47.5959997,36.1813333 47.66,36.192 C47.6706667,36.2613337 47.6786666,36.329333 47.684,36.396 C47.6893334,36.462667 47.692,36.525333 47.692,36.584 C47.692,36.642667 47.6893334,36.705333 47.684,36.772 C47.6786666,36.838667 47.6706667,36.909333 47.66,36.984 C47.5959997,36.9946667 47.5253337,37.004 47.448,37.012 C47.3706663,37.02 47.302667,37.024 47.244,37.024 C47.185333,37.024 47.1160004,37.02 47.036,37.012 C46.9559996,37.004 46.8813337,36.9946667 46.812,36.984 Z M49.028,36.136 C49.086667,36.1253333 49.1519996,36.1173334 49.224,36.112 C49.2960004,36.1066666 49.361333,36.104 49.42,36.104 C49.478667,36.104 49.545333,36.1066666 49.62,36.112 C49.694667,36.1173334 49.761333,36.1253333 49.82,36.136 L49.82,42 C49.761333,42.0106667 49.694667,42.0186666 49.62,42.024 C49.545333,42.0293334 49.478667,42.032 49.42,42.032 C49.361333,42.032 49.2960004,42.0293334 49.224,42.024 C49.1519996,42.0186666 49.086667,42.0106667 49.028,42 L49.028,36.136 Z M50.036,39.872 L51.34,37.896 C51.4093337,37.8853333 51.4786663,37.8773334 51.548,37.872 C51.6173337,37.8666666 51.689333,37.864 51.764,37.864 C51.8440004,37.864 51.9199996,37.8666666 51.992,37.872 C52.0640004,37.8773334 52.137333,37.8853333 52.212,37.896 L50.908,39.816 L52.436,42 C52.361333,42.0106667 52.2893337,42.0186666 52.22,42.024 C52.1506663,42.0293334 52.078667,42.032 52.004,42.032 C51.929333,42.032 51.854667,42.0293334 51.78,42.024 C51.705333,42.0186666 51.630667,42.0106667 51.556,42 L50.036,39.872 Z M53.156,36.136 C53.214667,36.1253333 53.2799996,36.1173334 53.352,36.112 C53.4240004,36.1066666 53.489333,36.104 53.548,36.104 C53.606667,36.104 53.6719996,36.1066666 53.744,36.112 C53.8160004,36.1173334 53.881333,36.1253333 53.94,36.136 L53.94,40.76 C53.94,40.9093341 53.9533332,41.0266662 53.98,41.112 C54.0066668,41.1973338 54.0426664,41.2626664 54.088,41.308 C54.1333336,41.3533336 54.1866664,41.3826666 54.248,41.396 C54.3093336,41.4093334 54.3746663,41.416 54.444,41.416 C54.4920002,41.416 54.5466664,41.4133334 54.608,41.408 C54.6693336,41.4026666 54.7213331,41.3946667 54.764,41.384 C54.8120002,41.5706676 54.836,41.7733322 54.836,41.992 C54.761333,42.0186668 54.6706672,42.036 54.564,42.044 C54.4573328,42.052 54.3586671,42.056 54.268,42.056 C54.1133326,42.056 53.969334,42.0373335 53.836,42 C53.702666,41.9626665 53.5853338,41.9013338 53.484,41.816 C53.3826662,41.7306662 53.302667,41.6160007 53.244,41.472 C53.185333,41.3279993 53.156,41.1493344 53.156,40.936 L53.156,36.136 Z M56.3,38.5439899 C56.3,38.5439933 56.3,38.5439966 56.3,38.544 C56.3006462,38.5427076 56.3012946,38.5414158 56.3019452,38.5401249 L56.3,38.5439899 Z M56.3019452,38.5401249 C56.3496179,38.4455231 56.408969,38.3548157 56.48,38.268 C56.5520004,38.1799996 56.6373328,38.1013337 56.736,38.032 C56.8346672,37.9626663 56.9479994,37.9066669 57.076,37.864 C57.2040006,37.8213331 57.3453326,37.8 57.5,37.8 C57.8200016,37.8 58.0666658,37.8653327 58.24,37.996 C58.4133342,38.1266673 58.5453329,38.3093322 58.636,38.544 C58.6893336,38.4533329 58.7546663,38.3626671 58.832,38.272 C58.9093337,38.1813329 58.9959995,38.1013337 59.092,38.032 C59.1880005,37.9626663 59.2973327,37.9066669 59.42,37.864 C59.5426673,37.8213331 59.6813326,37.8 59.836,37.8 C60.310669,37.8 60.6559989,37.933332 60.872,38.2 C61.0880011,38.466668 61.196,38.8613307 61.196,39.384 L61.196,42 C61.137333,42.0106667 61.070667,42.0186666 60.996,42.024 C60.921333,42.0293334 60.854667,42.032 60.796,42.032 C60.737333,42.032 60.6720004,42.0293334 60.6,42.024 C60.5279996,42.0186666 60.462667,42.0106667 60.404,42 L60.404,39.616 C60.404,39.2479982 60.3480006,38.9720009 60.236,38.788 C60.1239994,38.6039991 59.9400013,38.512 59.684,38.512 C59.4119986,38.512 59.1920008,38.6106657 59.024,38.808 C58.8559992,39.0053343 58.772,39.2959981 58.772,39.68 L58.772,42 C58.713333,42.0106667 58.6480004,42.0186666 58.576,42.024 C58.5039996,42.0293334 58.438667,42.032 58.38,42.032 C58.321333,42.032 58.2560004,42.0293334 58.184,42.024 C58.1119996,42.0186666 58.046667,42.0106667 57.988,42 L57.988,39.56 C57.988,39.2026649 57.9346672,38.9346676 57.828,38.756 C57.7213328,38.5773324 57.5506678,38.488 57.316,38.488 C57.182666,38.488 57.0573339,38.517333 56.94,38.576 C56.8226661,38.634667 56.7200004,38.7226661 56.632,38.84 C56.5439996,38.9573339 56.4746669,39.1053324 56.424,39.284 C56.3733331,39.4626676 56.348,39.6693322 56.348,39.904 L56.348,42 C56.289333,42.0106667 56.2240004,42.0186666 56.152,42.024 C56.0799996,42.0293334 56.014667,42.032 55.956,42.032 C55.897333,42.032 55.830667,42.0293334 55.756,42.024 C55.681333,42.0186666 55.614667,42.0106667 55.556,42 L55.556,37.896 C55.614667,37.8853333 55.6719997,37.8773334 55.728,37.872 C55.7840003,37.8666666 55.841333,37.864 55.9,37.864 C55.958667,37.864 56.0133331,37.8666666 56.064,37.872 C56.1146669,37.8773334 56.169333,37.8853333 56.228,37.896 C56.2440001,37.9760004 56.2599999,38.0813327 56.276,38.212 C56.2919995,38.3426625 56.2999994,38.4533247 56.3,38.5439899 L56.3019452,38.5401249 Z M63.1338275,38.5569029 C63.1332164,38.5579353 63.1326073,38.5589676 63.132,38.56 L63.1338275,38.5569029 Z M63.1338275,38.5569029 C63.186884,38.4672682 63.2542742,38.3776348 63.336,38.288 C63.4186671,38.1973329 63.5133328,38.1160004 63.62,38.044 C63.7266672,37.9719996 63.8493326,37.9133336 63.988,37.868 C64.1266674,37.8226664 64.2786658,37.8 64.444,37.8 C64.9133357,37.8 65.2599989,37.9346653 65.484,38.204 C65.7080011,38.4733347 65.82,38.8719974 65.82,39.4 L65.82,42 C65.761333,42.0106667 65.694667,42.0186666 65.62,42.024 C65.545333,42.0293334 65.478667,42.032 65.42,42.032 C65.361333,42.032 65.2960004,42.0293334 65.224,42.024 C65.1519996,42.0186666 65.086667,42.0106667 65.028,42 L65.028,39.616 C65.028,39.2373314 64.9693339,38.9586676 64.852,38.78 C64.7346661,38.6013324 64.5480013,38.512 64.292,38.512 C64.1426659,38.512 64.001334,38.5386664 63.868,38.592 C63.734666,38.6453336 63.6173338,38.7279994 63.516,38.84 C63.4146662,38.9520006 63.3333336,39.0973324 63.272,39.276 C63.2106664,39.4546676 63.18,39.6693321 63.18,39.92 L63.18,42 C63.121333,42.0106667 63.0560004,42.0186666 62.984,42.024 C62.9119996,42.0293334 62.846667,42.032 62.788,42.032 C62.729333,42.032 62.662667,42.0293334 62.588,42.024 C62.513333,42.0186666 62.446667,42.0106667 62.388,42 L62.388,37.896 C62.446667,37.8853333 62.5039997,37.8773334 62.56,37.872 C62.6160003,37.8666666 62.673333,37.864 62.732,37.864 C62.790667,37.864 62.8453331,37.8666666 62.896,37.872 C62.9466669,37.8773334 63.001333,37.8853333 63.06,37.896 C63.0760001,37.9760004 63.0919999,38.0839993 63.108,38.22 C63.1239997,38.3559975 63.1319996,38.4693275 63.132,38.5599936 L63.1338275,38.5569029 Z M68.676,42.096 C68.3559984,42.096 68.0760012,42.0413339 67.836,41.932 C67.5959988,41.8226661 67.3960008,41.672001 67.236,41.48 C67.0759992,41.287999 66.9573337,41.0613346 66.88,40.8 C66.8026663,40.5386654 66.764,40.2560015 66.764,39.952 C66.764,39.6479985 66.8026663,39.3653346 66.88,39.104 C66.9573337,38.8426654 67.0759992,38.616001 67.236,38.424 C67.3960008,38.231999 67.5959988,38.0800006 67.836,37.968 C68.0760012,37.8559994 68.3559984,37.8 68.676,37.8 C68.9960016,37.8 69.2759988,37.8559994 69.516,37.968 C69.7560012,38.0800006 69.9559992,38.231999 70.116,38.424 C70.2760008,38.616001 70.3946663,38.8426654 70.472,39.104 C70.5493337,39.3653346 70.588,39.6479985 70.588,39.952 C70.588,40.2560015 70.5493337,40.5386654 70.472,40.8 C70.3946663,41.0613346 70.2760008,41.287999 70.116,41.48 C69.9559992,41.672001 69.7560012,41.8226661 69.516,41.932 C69.2759988,42.0413339 68.9960016,42.096 68.676,42.096 Z M68.676,41.464 C69.0440018,41.464 69.3159991,41.330668 69.492,41.064 C69.6680009,40.797332 69.756,40.426669 69.756,39.952 C69.756,39.477331 69.6680009,39.1080013 69.492,38.844 C69.3159991,38.5799987 69.0440018,38.448 68.676,38.448 C68.3079982,38.448 68.0373342,38.5799987 67.864,38.844 C67.6906658,39.1080013 67.604,39.477331 67.604,39.952 C67.604,40.426669 67.6906658,40.797332 67.864,41.064 C68.0373342,41.330668 68.3079982,41.464 68.676,41.464 Z M71.62,37.896 C71.6733336,37.8853333 71.7279997,37.8773334 71.784,37.872 C71.8400003,37.8666666 71.897333,37.864 71.956,37.864 C72.0093336,37.864 72.065333,37.8666666 72.124,37.872 C72.182667,37.8773334 72.2386664,37.8853333 72.292,37.896 C72.2973334,37.9066667 72.304,37.9399997 72.312,37.996 C72.32,38.0520003 72.328,38.1119997 72.336,38.176 C72.344,38.2400003 72.352,38.301333 72.36,38.36 C72.368,38.418667 72.372,38.4559999 72.372,38.472 C72.4253336,38.3866662 72.489333,38.3040004 72.564,38.224 C72.638667,38.1439996 72.7279995,38.0720003 72.832,38.008 C72.9360005,37.9439997 73.0533327,37.8933335 73.184,37.856 C73.3146673,37.8186665 73.4599992,37.8 73.62,37.8 C73.8600012,37.8 74.0826656,37.8399996 74.288,37.92 C74.4933344,38.0000004 74.6693326,38.1239992 74.816,38.292 C74.9626674,38.4600008 75.0773329,38.673332 75.16,38.932 C75.2426671,39.190668 75.284,39.4959982 75.284,39.848 C75.284,40.5520035 75.0933352,41.1026647 74.712,41.5 C74.3306648,41.8973353 73.7906702,42.096 73.092,42.096 C72.9746661,42.096 72.8546673,42.0880001 72.732,42.072 C72.6093327,42.0559999 72.5026671,42.0346668 72.412,42.008 L72.412,43.888 C72.3479997,43.8986667 72.2800004,43.9066666 72.208,43.912 C72.1359996,43.9173334 72.070667,43.92 72.012,43.92 C71.953333,43.92 71.8880004,43.9173334 71.816,43.912 C71.7439996,43.9066666 71.678667,43.8986667 71.62,43.888 L71.62,37.896 Z M72.412,41.328 C72.5133338,41.3653335 72.6173328,41.3919999 72.724,41.408 C72.8306672,41.4240001 72.9693325,41.432 73.14,41.432 C73.332001,41.432 73.5079992,41.4013336 73.668,41.34 C73.8280008,41.2786664 73.9653328,41.1840006 74.08,41.056 C74.1946672,40.9279994 74.285333,40.7666676 74.352,40.572 C74.418667,40.3773324 74.452,40.146668 74.452,39.88 C74.452,39.4533312 74.3733341,39.1146679 74.216,38.864 C74.0586659,38.6133321 73.8013351,38.488 73.444,38.488 C73.310666,38.488 73.1826673,38.5119998 73.06,38.56 C72.9373327,38.6080002 72.8280005,38.6799995 72.732,38.776 C72.6359995,38.8720005 72.558667,38.9933326 72.5,39.14 C72.441333,39.2866674 72.412,39.4613323 72.412,39.664 L72.412,41.328 Z M78.972,42 C78.8599994,42.0266668 78.741334,42.0479999 78.616,42.064 C78.490666,42.0800001 78.3506674,42.088 78.196,42.088 C77.9186653,42.088 77.6546679,42.054667 77.404,41.988 C77.1533321,41.921333 76.9333343,41.8080008 76.744,41.648 C76.5546657,41.4879992 76.4040006,41.278668 76.292,41.02 C76.1799994,40.761332 76.124,40.4400019 76.124,40.056 C76.124,39.7253317 76.1759995,39.4213347 76.28,39.144 C76.3840005,38.8666653 76.531999,38.628001 76.724,38.428 C76.916001,38.227999 77.149332,38.0733339 77.424,37.964 C77.698668,37.8546661 78.006665,37.8 78.348,37.8 C78.6466682,37.8 78.9026656,37.8159998 79.116,37.848 C79.3293344,37.8800002 79.5426656,37.925333 79.756,37.984 L79.756,43.888 C79.697333,43.8986667 79.6320004,43.9066666 79.56,43.912 C79.4879996,43.9173334 79.422667,43.92 79.364,43.92 C79.305333,43.92 79.2400004,43.9173334 79.168,43.912 C79.0959996,43.9066666 79.030667,43.8986667 78.972,43.888 L78.972,42 Z M78.972,38.528 C78.897333,38.5119999 78.8346669,38.5 78.784,38.492 C78.7333331,38.484 78.6853336,38.4786667 78.64,38.476 L78.504,38.468 C78.4586664,38.4653333 78.406667,38.464 78.348,38.464 C78.1133322,38.464 77.9080009,38.5039996 77.732,38.584 C77.5559991,38.6640004 77.4106672,38.7759993 77.296,38.92 C77.1813328,39.0640007 77.094667,39.2346657 77.036,39.432 C76.977333,39.6293343 76.948,39.8479988 76.948,40.088 C76.948,40.3280012 76.9799997,40.5333325 77.044,40.704 C77.1080003,40.8746675 77.1973328,41.0146661 77.312,41.124 C77.4266672,41.2333339 77.5613326,41.3119998 77.716,41.36 C77.8706674,41.4080002 78.0413324,41.432 78.228,41.432 C78.3666674,41.432 78.498666,41.4213334 78.624,41.4 C78.749334,41.3786666 78.8653328,41.3546668 78.972,41.328 L78.972,38.528 Z M81.028,37.896 C81.086667,37.8853333 81.1426664,37.8773334 81.196,37.872 C81.2493336,37.8666666 81.305333,37.864 81.364,37.864 C81.422667,37.864 81.481333,37.8666666 81.54,37.872 C81.598667,37.8773334 81.6519998,37.8853333 81.7,37.896 C81.7160001,37.9760004 81.7319999,38.0813327 81.748,38.212 C81.7640001,38.3426673 81.772,38.4533329 81.772,38.544 C81.8840006,38.3626658 82.0319991,38.205334 82.216,38.072 C82.4000009,37.938666 82.6359986,37.872 82.924,37.872 C82.9666669,37.872 83.0106664,37.8733333 83.056,37.876 C83.1013336,37.8786667 83.1399998,37.8826666 83.172,37.888 C83.1826667,37.9360002 83.1906666,37.9866664 83.196,38.04 C83.2013334,38.0933336 83.204,38.149333 83.204,38.208 C83.204,38.2720003 83.2,38.3386663 83.192,38.408 C83.184,38.4773337 83.1746667,38.5439997 83.164,38.608 C83.1213331,38.5973333 83.0773336,38.592 83.032,38.592 L82.924,38.592 C82.7799993,38.592 82.6426673,38.6119998 82.512,38.652 C82.3813327,38.6920002 82.2640005,38.7626662 82.16,38.864 C82.0559995,38.9653338 81.9733336,39.1039991 81.912,39.28 C81.8506664,39.4560009 81.82,39.6826653 81.82,39.96 L81.82,42 C81.761333,42.0106667 81.6960004,42.0186666 81.624,42.024 C81.5519996,42.0293334 81.486667,42.032 81.428,42.032 C81.369333,42.032 81.3040004,42.0293334 81.232,42.024 C81.1599996,42.0186666 81.0920003,42.0106667 81.028,42 L81.028,37.896 Z M83.932,41.256 C84.0760007,41.314667 84.2346658,41.3613332 84.408,41.396 C84.5813342,41.4306668 84.7533325,41.448 84.924,41.448 C85.0466673,41.448 85.1639994,41.4346668 85.276,41.408 C85.3880006,41.3813332 85.4853329,41.3413336 85.568,41.288 C85.6506671,41.2346664 85.7173331,41.1693337 85.768,41.092 C85.8186669,41.0146663 85.844,40.9280005 85.844,40.832 C85.844,40.7253328 85.8240002,40.6373337 85.784,40.568 C85.7439998,40.4986663 85.690667,40.4400002 85.624,40.392 C85.557333,40.3439998 85.4800004,40.3026668 85.392,40.268 C85.3039996,40.2333332 85.2093338,40.2000002 85.108,40.168 L84.828,40.064 C84.486665,39.9359994 84.2386674,39.7920008 84.084,39.632 C83.9293326,39.4719992 83.852,39.2560014 83.852,38.984 C83.852,38.6213315 83.981332,38.3333344 84.24,38.12 C84.498668,37.9066656 84.8786642,37.8 85.38,37.8 C85.588001,37.8 85.791999,37.8199998 85.992,37.86 C86.192001,37.9000002 86.3666659,37.9466664 86.516,38 C86.5053333,38.1066672 86.4853335,38.2133328 86.456,38.32 C86.4266665,38.4266672 86.3906669,38.5253329 86.348,38.616 C86.2306661,38.5733331 86.0906675,38.5320002 85.928,38.492 C85.7653325,38.4519998 85.5906676,38.432 85.404,38.432 C85.2066657,38.432 85.0320008,38.4666663 84.88,38.536 C84.7279992,38.6053337 84.652,38.7279991 84.652,38.904 C84.652,38.9946671 84.6706665,39.0719997 84.708,39.136 C84.7453335,39.2000003 84.7959997,39.2546664 84.86,39.3 C84.9240003,39.3453336 84.9973329,39.3839998 85.08,39.416 C85.1626671,39.4480002 85.2519995,39.4799998 85.348,39.512 L85.7,39.632 C85.8280006,39.6746669 85.9493328,39.725333 86.064,39.784 C86.1786672,39.842667 86.2773329,39.9159996 86.36,40.004 C86.4426671,40.0920004 86.5093331,40.198666 86.56,40.324 C86.6106669,40.449334 86.636,40.5999991 86.636,40.776 C86.636,40.9733343 86.5960004,41.1533325 86.516,41.316 C86.4359996,41.4786675 86.3226674,41.6173328 86.176,41.732 C86.0293326,41.8466672 85.852001,41.9359997 85.644,42 C85.435999,42.0640003 85.2066679,42.096 84.956,42.096 C84.6999987,42.096 84.476001,42.0786668 84.284,42.044 C84.091999,42.0093332 83.9133342,41.962667 83.748,41.904 C83.7586667,41.7973328 83.7813332,41.6893339 83.816,41.58 C83.8506668,41.4706661 83.8893331,41.3626672 83.932,41.256 Z M87.796,38.528 L87.172,38.528 L87.14,38.416 L88.516,36.88 L88.58,36.88 L88.58,37.896 L89.62,37.896 C89.6413334,37.9866671 89.652,38.0879994 89.652,38.2 C89.652,38.258667 89.6493334,38.3146664 89.644,38.368 C89.6386666,38.4213336 89.6306667,38.4746664 89.62,38.528 L88.58,38.528 L88.58,40.4 C88.58,40.6240011 88.5893332,40.802666 88.608,40.936 C88.6266668,41.069334 88.6586664,41.1719996 88.704,41.244 C88.7493336,41.3160004 88.8106663,41.3639999 88.888,41.388 C88.9653337,41.4120001 89.0626661,41.424 89.18,41.424 C89.2706671,41.424 89.3559996,41.4173334 89.436,41.404 C89.5160004,41.3906666 89.5879997,41.3760001 89.652,41.36 C89.6893335,41.4666672 89.712,41.5759994 89.72,41.688 C89.728,41.8000006 89.732,41.8986662 89.732,41.984 C89.6253328,42.0106668 89.5133339,42.0306666 89.396,42.044 C89.2786661,42.0573334 89.153334,42.064 89.02,42.064 C88.6359981,42.064 88.3360011,41.9706676 88.12,41.784 C87.9039989,41.5973324 87.796,41.2880022 87.796,40.856 L87.796,38.528 Z M90.46,37.896 C90.518667,37.8853333 90.585333,37.8773334 90.66,37.872 C90.734667,37.8666666 90.7986664,37.864 90.852,37.864 C90.910667,37.864 90.977333,37.8666666 91.052,37.872 C91.126667,37.8773334 91.193333,37.8853333 91.252,37.896 L91.252,40.144 C91.252,40.4000013 91.2759998,40.6119992 91.324,40.78 C91.3720002,40.9480008 91.4439995,41.0799995 91.54,41.176 C91.6360005,41.2720005 91.7533326,41.3386665 91.892,41.376 C92.0306674,41.4133335 92.1906658,41.432 92.372,41.432 C92.6440014,41.432 92.875999,41.402667 93.068,41.344 L93.068,37.896 C93.126667,37.8853333 93.1919996,37.8773334 93.264,37.872 C93.3360004,37.8666666 93.401333,37.864 93.46,37.864 C93.518667,37.864 93.5839996,37.8666666 93.656,37.872 C93.7280004,37.8773334 93.793333,37.8853333 93.852,37.896 L93.852,41.872 C93.6653324,41.9253336 93.442668,41.9759998 93.184,42.024 C92.925332,42.0720002 92.6573347,42.096 92.38,42.096 C92.1186654,42.096 91.8720012,42.0733336 91.64,42.028 C91.4079988,41.9826664 91.2040009,41.8906674 91.028,41.752 C90.8519991,41.6133326 90.7133338,41.4186679 90.612,41.168 C90.5106662,40.9173321 90.46,40.5866687 90.46,40.176 L90.46,37.896 Z M94.596,37.896 C94.670667,37.8853333 94.7479996,37.8773334 94.828,37.872 C94.9080004,37.8666666 94.9799997,37.864 95.044,37.864 C95.1133337,37.864 95.1893329,37.8666666 95.272,37.872 C95.3546671,37.8773334 95.425333,37.8853333 95.484,37.896 L96.604,41.28 L97.732,37.896 C97.790667,37.8853333 97.857333,37.8773334 97.932,37.872 C98.006667,37.8666666 98.0786663,37.864 98.148,37.864 C98.206667,37.864 98.273333,37.8666666 98.348,37.872 C98.422667,37.8773334 98.497333,37.8853333 98.572,37.896 L96.972,42 C96.9026663,42.0106667 96.8333337,42.0186666 96.764,42.024 C96.6946663,42.0293334 96.630667,42.032 96.572,42.032 C96.513333,42.032 96.450667,42.0293334 96.384,42.024 C96.317333,42.0186666 96.2520003,42.0106667 96.188,42 L94.596,37.896 Z M98.884,37.896 C98.958667,37.8853333 99.033333,37.8773334 99.108,37.872 C99.182667,37.8666666 99.249333,37.864 99.308,37.864 C99.382667,37.864 99.4586663,37.8666666 99.536,37.872 C99.6133337,37.8773334 99.681333,37.8853333 99.74,37.896 L100.54,41.248 L101.444,37.896 C101.502667,37.8853333 101.566666,37.8773334 101.636,37.872 C101.705334,37.8666666 101.777333,37.864 101.852,37.864 C101.937334,37.8693334 102.010666,37.8733333 102.072,37.876 C102.133334,37.8786667 102.193333,37.8853333 102.252,37.896 L103.148,41.192 L103.948,37.896 C104.006667,37.8853333 104.065333,37.8773334 104.124,37.872 C104.182667,37.8666666 104.246666,37.864 104.316,37.864 C104.374667,37.864 104.44,37.8666666 104.512,37.872 C104.584,37.8773334 104.657333,37.8853333 104.732,37.896 L103.508,42 C103.438666,42.0106667 103.368,42.0186666 103.296,42.024 C103.224,42.0293334 103.158667,42.032 103.1,42.032 C103.041333,42.032 102.977334,42.0293334 102.908,42.024 C102.838666,42.0186666 102.769334,42.0106667 102.7,42 L101.82,38.896 L100.9,42 C100.825333,42.0106667 100.752,42.0186666 100.68,42.024 C100.608,42.0293334 100.542667,42.032 100.484,42.032 C100.425333,42.032 100.36,42.0293334 100.288,42.024 C100.216,42.0186666 100.150667,42.0106667 100.092,42 L98.884,37.896 Z M106.164,39.872 L105.196,37.896 C105.318667,37.8746666 105.457333,37.864 105.612,37.864 C105.686667,37.864 105.76,37.8666666 105.832,37.872 C105.904,37.8773334 105.98,37.8853333 106.06,37.896 L106.908,39.88 L105.884,42 C105.814666,42.0106667 105.746667,42.0186666 105.68,42.024 C105.613333,42.0293334 105.548,42.032 105.484,42.032 C105.409333,42.032 105.337334,42.0293334 105.268,42.024 C105.198666,42.0186666 105.126667,42.0106667 105.052,42 L106.164,39.872 Z M106.972,39.88 L107.828,37.896 C107.902667,37.8853333 107.977333,37.8773334 108.052,37.872 C108.126667,37.8666666 108.201333,37.864 108.276,37.864 C108.420001,37.864 108.553333,37.8746666 108.676,37.896 L107.724,39.848 L108.836,42 C108.761333,42.0106667 108.689334,42.0186666 108.62,42.024 C108.550666,42.0293334 108.478667,42.032 108.404,42.032 C108.259999,42.032 108.126667,42.0213334 108.004,42 L106.972,39.88 Z M111.02,42.008 C110.977333,42.008 110.933334,42.0093333 110.888,42.012 C110.842666,42.0146667 110.798667,42.016 110.756,42.016 C110.702666,42.016 110.646667,42.0146667 110.588,42.012 C110.529333,42.0093333 110.481334,42.0053334 110.444,42 L109.084,37.896 C109.153334,37.8853333 109.225333,37.8786667 109.3,37.876 C109.374667,37.8733333 109.444,37.872 109.508,37.872 C109.577334,37.872 109.654666,37.8733333 109.74,37.876 C109.825334,37.8786667 109.897333,37.8853333 109.956,37.896 L111.092,41.712 L112.268,37.896 C112.380001,37.8799999 112.510666,37.872 112.66,37.872 C112.718667,37.872 112.785333,37.8733333 112.86,37.876 C112.934667,37.8786667 113.009333,37.8853333 113.084,37.896 L111.492,42.832 C111.417333,43.0506678 111.34,43.2346659 111.26,43.384 C111.18,43.5333341 111.089334,43.6533329 110.988,43.744 C110.886666,43.8346671 110.773334,43.8986665 110.648,43.936 C110.522666,43.9733335 110.377334,43.992 110.212,43.992 C110.089333,43.992 109.968001,43.9826668 109.848,43.964 C109.727999,43.9453332 109.622667,43.9226668 109.532,43.896 C109.532,43.7733327 109.542667,43.6640005 109.564,43.568 C109.585333,43.4719995 109.617333,43.3760005 109.66,43.28 C109.708,43.2960001 109.773333,43.3133332 109.856,43.332 C109.938667,43.3506668 110.028,43.36 110.124,43.36 C110.193334,43.36 110.258666,43.3533334 110.32,43.34 C110.381334,43.3266666 110.438666,43.3000002 110.492,43.26 C110.545334,43.2199998 110.594666,43.162667 110.64,43.088 C110.685334,43.013333 110.729333,42.9120006 110.772,42.784 L111.02,42.008 Z M113.444,41.888 L115.604,38.528 L113.7,38.528 C113.684,38.4319995 113.676,38.3253339 113.676,38.208 C113.676,38.0959994 113.684,37.9920005 113.7,37.896 L116.78,37.896 L116.82,38 L114.644,41.368 L116.684,41.368 C116.7,41.4746672 116.708,41.5839994 116.708,41.696 C116.708,41.8026672 116.7,41.9039995 116.684,42 L113.484,42 L113.444,41.888 Z M41.916,45.76 C42.2520017,45.76 42.5466654,45.826666 42.8,45.96 C43.0533346,46.093334 43.2639992,46.2786655 43.432,46.516 C43.6000008,46.7533345 43.7253329,47.034665 43.808,47.36 C43.8906671,47.685335 43.932,48.0426647 43.932,48.432 C43.932,48.8160019 43.8893338,49.1719984 43.804,49.5 C43.7186662,49.8280016 43.5920008,50.1093322 43.424,50.344 C43.2559992,50.5786678 43.0440013,50.762666 42.788,50.896 C42.5319987,51.029334 42.2360017,51.096 41.9,51.096 C41.5639983,51.096 41.2706679,51.029334 41.02,50.896 C40.7693321,50.762666 40.5600008,50.5786678 40.392,50.344 C40.2239992,50.1093322 40.0986671,49.8280016 40.016,49.5 C39.9333329,49.1719984 39.892,48.8160019 39.892,48.432 C39.892,48.0426647 39.9346662,47.685335 40.02,47.36 C40.1053338,47.034665 40.2319992,46.7533345 40.4,46.516 C40.5680008,46.2786655 40.7786654,46.093334 41.032,45.96 C41.2853346,45.826666 41.5799983,45.76 41.916,45.76 Z M41.908,46.464 C41.5399982,46.464 41.252001,46.626665 41.044,46.952 C40.835999,47.277335 40.732,47.7706634 40.732,48.432 C40.732,49.0933366 40.835999,49.5853317 41.044,49.908 C41.252001,50.2306683 41.5399982,50.392 41.908,50.392 C42.2760018,50.392 42.5613323,50.2306683 42.764,49.908 C42.9666677,49.5853317 43.068,49.0933366 43.068,48.432 C43.068,47.7706634 42.9666677,47.277335 42.764,46.952 C42.5613323,46.626665 42.2760018,46.464 41.908,46.464 Z M45.396,47.408 C45.321333,47.3173329 45.2626669,47.2266671 45.22,47.136 C45.1773331,47.0453329 45.1346669,46.9386673 45.092,46.816 L47.22,45.8 L47.34,45.8 L47.34,50.32 L48.484,50.32 C48.5000001,50.4426673 48.508,50.5546662 48.508,50.656 C48.508,50.7680006 48.5000001,50.8826661 48.484,51 L45.356,51 C45.3346666,50.8933328 45.324,50.7786673 45.324,50.656 C45.324,50.5386661 45.3346666,50.4266672 45.356,50.32 L46.556,50.32 L46.556,46.88 L45.396,47.408 Z M49.604,51 L49.556,50.896 L51.124,49.064 C51.2626674,48.8986658 51.3919994,48.7426674 51.512,48.596 C51.6320006,48.4493326 51.7359996,48.3066674 51.824,48.168 C51.9120004,48.0293326 51.9813331,47.893334 52.032,47.76 C52.0826669,47.626666 52.108,47.4880007 52.108,47.344 C52.108,47.0613319 52.0173342,46.8453341 51.836,46.696 C51.6546658,46.5466659 51.3960017,46.472 51.06,46.472 C50.8039987,46.472 50.5880009,46.501333 50.412,46.56 C50.2359991,46.618667 50.0653342,46.685333 49.9,46.76 C49.8573331,46.6533328 49.8160002,46.5440006 49.776,46.432 C49.7359998,46.3199994 49.7106667,46.2053339 49.7,46.088 C49.8866676,46.0079996 50.0933322,45.9333337 50.32,45.864 C50.5466678,45.7946663 50.8119985,45.76 51.116,45.76 C51.3880014,45.76 51.6359989,45.7906664 51.86,45.852 C52.0840011,45.9133336 52.2773325,46.0053327 52.44,46.128 C52.6026675,46.2506673 52.7279996,46.4066657 52.816,46.596 C52.9040004,46.7853343 52.948,47.0079987 52.948,47.264 C52.948,47.6213351 52.8493343,47.9679983 52.652,48.304 C52.4546657,48.6400017 52.1746685,49.0133313 51.812,49.424 L51.044,50.296 L53.164,50.296 C53.1746667,50.354667 53.1826666,50.413333 53.188,50.472 C53.1933334,50.530667 53.196,50.5919997 53.196,50.656 C53.196,50.714667 53.1933334,50.773333 53.188,50.832 C53.1826666,50.890667 53.1746667,50.9466664 53.164,51 L49.604,51 Z M55.708,50.88 C55.9106677,50.88 56.1013324,50.8586669 56.28,50.816 C56.4586676,50.7733331 56.6133327,50.7040005 56.744,50.608 C56.8746673,50.5119995 56.9786663,50.3880008 57.056,50.236 C57.1333337,50.0839992 57.172,49.8986678 57.172,49.68 C57.172,49.3493317 57.0626678,49.1040008 56.844,48.944 C56.6253322,48.7839992 56.3400018,48.704 55.988,48.704 C55.8813328,48.704 55.7733339,48.708 55.664,48.716 C55.5546661,48.724 55.4466672,48.7413332 55.34,48.768 L55.276,48.656 L56.612,46.552 L54.556,46.552 C54.5346666,46.4453328 54.524,46.3306673 54.524,46.208 C54.524,46.149333 54.5266666,46.0880003 54.532,46.024 C54.5373334,45.9599997 54.5453333,45.898667 54.556,45.84 L57.796,45.84 L57.852,45.936 L56.396,48.152 C56.4120001,48.1466666 56.4306666,48.144 56.452,48.144 L56.516,48.144 C56.7666679,48.144 56.9839991,48.1879996 57.168,48.276 C57.3520009,48.3640004 57.5039994,48.478666 57.624,48.62 C57.7440006,48.761334 57.833333,48.9186658 57.892,49.092 C57.950667,49.2653342 57.98,49.4373325 57.98,49.608 C57.98,49.949335 57.9200006,50.2439988 57.8,50.492 C57.6799994,50.7400012 57.5186677,50.9453325 57.316,51.108 C57.1133323,51.2706675 56.8760014,51.3906663 56.604,51.468 C56.3319986,51.5453337 56.0413349,51.584 55.732,51.584 C55.465332,51.584 55.2146678,51.5626669 54.98,51.52 C54.7453322,51.4773331 54.5133345,51.4106671 54.284,51.32 C54.3000001,51.2026661 54.3306664,51.0880006 54.376,50.976 C54.4213336,50.8639994 54.473333,50.7546672 54.532,50.648 C54.7026675,50.7173337 54.8813324,50.7733331 55.068,50.816 C55.2546676,50.8586669 55.4679988,50.88 55.708,50.88 Z M59.028,50.376 L58.964,50.288 L61.308,45.696 C61.4200006,45.7066667 61.5359994,45.7346664 61.656,45.78 C61.7760006,45.8253336 61.8919994,45.885333 62.004,45.96 L60.14,49.672 L61.756,49.672 L61.756,48.152 C61.8200003,48.1413333 61.8839997,48.1333334 61.948,48.128 C62.0120003,48.1226666 62.073333,48.12 62.132,48.12 C62.2013337,48.12 62.269333,48.1226666 62.336,48.128 C62.402667,48.1333334 62.4679997,48.1413333 62.532,48.152 L62.532,49.672 L63.268,49.672 C63.2786667,49.730667 63.2866666,49.789333 63.292,49.848 C63.2973334,49.906667 63.3,49.965333 63.3,50.024 C63.3,50.082667 63.2973334,50.1426664 63.292,50.204 C63.2866666,50.2653336 63.2786667,50.3226664 63.268,50.376 L62.532,50.376 L62.532,51.472 C62.4626663,51.4826667 62.3973336,51.4893333 62.336,51.492 C62.2746664,51.4946667 62.2120003,51.496 62.148,51.496 C62.0839997,51.496 62.018667,51.4946667 61.952,51.492 C61.885333,51.4893333 61.8200003,51.4826667 61.756,51.472 L61.756,50.376 L59.028,50.376 Z M67.588,49.632 C67.588,49.9680017 67.5293339,50.2586654 67.412,50.504 C67.2946661,50.7493346 67.1333344,50.9519992 66.928,51.112 C66.7226656,51.2720008 66.4800014,51.3906663 66.2,51.468 C65.9199986,51.5453337 65.617335,51.584 65.292,51.584 C65.0893323,51.584 64.8720012,51.5653335 64.64,51.528 C64.4079988,51.4906665 64.196001,51.4320004 64.004,51.352 C64.0200001,51.2346661 64.0466665,51.1213339 64.084,51.012 C64.1213335,50.9026661 64.169333,50.7920006 64.228,50.68 C64.3933342,50.738667 64.5559992,50.7853332 64.716,50.82 C64.8760008,50.8546668 65.0679989,50.872 65.292,50.872 C65.7560023,50.872 66.1146654,50.7746676 66.368,50.58 C66.6213346,50.3853324 66.748,50.0826687 66.748,49.672 C66.748,49.5226659 66.7253336,49.381334 66.68,49.248 C66.6346664,49.114666 66.5613338,48.9986672 66.46,48.9 C66.3586662,48.8013328 66.2266675,48.7240003 66.064,48.668 C65.9013325,48.6119997 65.7026678,48.584 65.468,48.584 C65.3026658,48.584 65.1400008,48.5973332 64.98,48.624 C64.8199992,48.6506668 64.6786673,48.6853331 64.556,48.728 L64.476,48.656 C64.4920001,48.1866643 64.5093332,47.718669 64.528,47.252 C64.5466668,46.785331 64.5666666,46.314669 64.588,45.84 L67.308,45.84 C67.3186667,45.898667 67.3253333,45.9559997 67.328,46.012 C67.3306667,46.0680003 67.332,46.125333 67.332,46.184 C67.332,46.2480003 67.3306667,46.3106664 67.328,46.372 C67.3253333,46.4333336 67.3186667,46.493333 67.308,46.552 L65.308,46.552 L65.26,47.976 C65.3613338,47.9546666 65.4639995,47.9413334 65.568,47.936 C65.6720005,47.9306666 65.753333,47.928 65.812,47.928 C66.078668,47.928 66.3213322,47.965333 66.54,48.04 C66.7586678,48.114667 66.9453326,48.2253326 67.1,48.372 C67.2546674,48.5186674 67.3746662,48.6973323 67.46,48.908 C67.5453338,49.1186677 67.588,49.3599986 67.588,49.632 Z M68.828,48.784 C68.828,48.3146643 68.8879994,47.8720021 69.008,47.456 C69.1280006,47.0399979 69.3119988,46.669335 69.56,46.344 C69.8080012,46.018665 70.1239981,45.7533344 70.508,45.548 C70.8920019,45.3426656 71.3479974,45.2186669 71.876,45.176 C71.9186669,45.3040006 71.94,45.4266661 71.94,45.544 C71.94,45.5973336 71.9373334,45.6506664 71.932,45.704 C71.9266666,45.7573336 71.9186667,45.8053331 71.908,45.848 C71.5719983,45.8800002 71.274668,45.958666 71.016,46.084 C70.757332,46.209334 70.5346676,46.3706657 70.348,46.568 C70.1613324,46.7653343 70.0106672,46.993332 69.896,47.252 C69.7813328,47.510668 69.7000002,47.7866652 69.652,48.08 C69.7693339,47.8773323 69.9413322,47.7026674 70.168,47.556 C70.3946678,47.4093326 70.678665,47.336 71.02,47.336 C71.2333344,47.336 71.4426656,47.3719996 71.648,47.444 C71.8533344,47.5160004 72.0359992,47.6266659 72.196,47.776 C72.3560008,47.9253341 72.4839995,48.1159988 72.58,48.348 C72.6760005,48.5800012 72.724,48.8559984 72.724,49.176 C72.724,49.4906682 72.6693339,49.7679988 72.56,50.008 C72.4506661,50.2480012 72.3053342,50.4479992 72.124,50.608 C71.9426658,50.7680008 71.7360012,50.8893329 71.504,50.972 C71.2719988,51.0546671 71.0333346,51.096 70.788,51.096 C70.4839985,51.096 70.2106679,51.0520004 69.968,50.964 C69.7253321,50.8759996 69.5200008,50.7386676 69.352,50.552 C69.1839992,50.3653324 69.0546671,50.1266681 68.964,49.836 C68.8733329,49.5453319 68.828,49.1946687 68.828,48.784 Z M70.82,48.008 C70.6653326,48.008 70.5186674,48.0346664 70.38,48.088 C70.2413326,48.1413336 70.1213338,48.2199995 70.02,48.324 C69.9186662,48.4280005 69.838667,48.5546659 69.78,48.704 C69.721333,48.8533341 69.692,49.023999 69.692,49.216 C69.692,49.616002 69.7866657,49.9146657 69.976,50.112 C70.1653343,50.3093343 70.4279983,50.408 70.764,50.408 C70.9240008,50.408 71.0719993,50.3813336 71.208,50.328 C71.3440007,50.2746664 71.4626662,50.1973338 71.564,50.096 C71.6653338,49.9946662 71.745333,49.8693341 71.804,49.72 C71.862667,49.5706659 71.892,49.3973343 71.892,49.2 C71.892,48.9866656 71.8640003,48.8053341 71.808,48.656 C71.7519997,48.5066659 71.6760005,48.3840005 71.58,48.288 C71.4839995,48.1919995 71.3706673,48.1213336 71.24,48.076 C71.1093327,48.0306664 70.9693341,48.008 70.82,48.008 Z M75.06,51.592 C74.9159993,51.5599998 74.7840006,51.5186669 74.664,51.468 C74.5439994,51.4173331 74.4280006,51.3466671 74.316,51.256 L76.364,46.552 L73.66,46.552 C73.6493333,46.4986664 73.6413334,46.4440003 73.636,46.388 C73.6306666,46.3319997 73.628,46.274667 73.628,46.216 C73.628,46.1519997 73.6306666,46.0880003 73.636,46.024 C73.6413334,45.9599997 73.6493333,45.898667 73.66,45.84 L77.46,45.84 L77.492,45.896 L75.06,51.592 Z M81.084,47.952 C81.2226674,48.010667 81.362666,48.0826662 81.504,48.168 C81.645334,48.2533338 81.7733328,48.3599994 81.888,48.488 C82.0026672,48.6160006 82.0959996,48.7653325 82.168,48.936 C82.2400004,49.1066675 82.276,49.3039989 82.276,49.528 C82.276,49.8106681 82.2200006,50.051999 82.108,50.252 C81.9959994,50.452001 81.8466676,50.614666 81.66,50.74 C81.4733324,50.865334 81.2613345,50.9559997 81.024,51.012 C80.7866655,51.0680003 80.5453346,51.096 80.3,51.096 C80.0493321,51.096 79.8066678,51.0680003 79.572,51.012 C79.3373322,50.9559997 79.1266676,50.865334 78.94,50.74 C78.7533324,50.614666 78.6040006,50.452001 78.492,50.252 C78.3799994,50.051999 78.324,49.8106681 78.324,49.528 C78.324,49.3039989 78.3599996,49.1080008 78.432,48.94 C78.5040004,48.7719992 78.5973328,48.6240006 78.712,48.496 C78.8266672,48.3679994 78.9533326,48.2600004 79.092,48.172 C79.2306674,48.0839996 79.3693326,48.010667 79.508,47.952 C79.2519987,47.8293327 79.0346676,47.6600011 78.856,47.444 C78.6773324,47.2279989 78.588,46.957335 78.588,46.632 C78.588,46.423999 78.6319996,46.2346675 78.72,46.064 C78.8080004,45.8933325 78.9279992,45.7480006 79.08,45.628 C79.2320008,45.5079994 79.411999,45.414667 79.62,45.348 C79.828001,45.281333 80.0546654,45.248 80.3,45.248 C80.5453346,45.248 80.771999,45.281333 80.98,45.348 C81.188001,45.414667 81.3679992,45.5079994 81.52,45.628 C81.6720008,45.7480006 81.7919996,45.8933325 81.88,46.064 C81.9680004,46.2346675 82.012,46.423999 82.012,46.632 C82.012,46.9626683 81.9226676,47.2346656 81.744,47.448 C81.5653324,47.6613344 81.3453346,47.8293327 81.084,47.952 Z M80.3,48.288 C80.1399992,48.3360002 79.9906674,48.3959996 79.852,48.468 C79.7133326,48.5400004 79.5946672,48.6239995 79.496,48.72 C79.3973328,48.8160005 79.318667,48.9253327 79.26,49.048 C79.201333,49.1706673 79.172,49.3066659 79.172,49.456 C79.172,49.7546682 79.267999,49.9893325 79.46,50.16 C79.652001,50.3306675 79.9319982,50.416 80.3,50.416 C80.6733352,50.416 80.9546657,50.3306675 81.144,50.16 C81.3333343,49.9893325 81.428,49.7546682 81.428,49.456 C81.428,49.3066659 81.398667,49.1706673 81.34,49.048 C81.281333,48.9253327 81.2013338,48.8160005 81.1,48.72 C80.9986662,48.6239995 80.8800007,48.5400004 80.744,48.468 C80.6079993,48.3959996 80.4600008,48.3360002 80.3,48.288 Z M80.3,47.648 C80.4280006,47.6106665 80.5479994,47.5640003 80.66,47.508 C80.7720006,47.4519997 80.8706662,47.386667 80.956,47.312 C81.0413338,47.237333 81.1093331,47.1480005 81.16,47.044 C81.2106669,46.9399995 81.236,46.821334 81.236,46.688 C81.236,46.4479988 81.1573341,46.2560007 81,46.112 C80.8426659,45.9679993 80.6093349,45.896 80.3,45.896 C79.9906651,45.896 79.7573341,45.9679993 79.6,46.112 C79.4426659,46.2560007 79.364,46.4479988 79.364,46.688 C79.364,46.821334 79.3893331,46.9399995 79.44,47.044 C79.4906669,47.1480005 79.5586662,47.237333 79.644,47.312 C79.7293338,47.386667 79.8293328,47.4519997 79.944,47.508 C80.0586672,47.5640003 80.1773327,47.6106665 80.3,47.648 Z M87.02,48.088 C87.02,48.5573357 86.9600006,48.9999979 86.84,49.416 C86.7199994,49.8320021 86.5360012,50.202665 86.288,50.528 C86.0399988,50.853335 85.7240019,51.1186656 85.34,51.324 C84.9559981,51.5293344 84.5000026,51.6533331 83.972,51.696 C83.9293331,51.5946662 83.908,51.4693341 83.908,51.32 C83.908,51.2773331 83.9106666,51.2280003 83.916,51.172 C83.9213334,51.1159997 83.9293333,51.0640002 83.94,51.016 C84.265335,50.9893332 84.5599987,50.913334 84.824,50.788 C85.0880013,50.662666 85.315999,50.5013343 85.508,50.304 C85.700001,50.1066657 85.8533328,49.878668 85.968,49.62 C86.0826672,49.361332 86.1559998,49.0853348 86.188,48.792 C86.0759994,48.9946677 85.9066678,49.1706659 85.68,49.32 C85.4533322,49.4693341 85.169335,49.544 84.828,49.544 C84.6093322,49.544 84.3986677,49.5080004 84.196,49.436 C83.9933323,49.3639996 83.8120008,49.2533341 83.652,49.104 C83.4919992,48.9546659 83.3640005,48.7640012 83.268,48.532 C83.1719995,48.2999988 83.124,48.0240016 83.124,47.704 C83.124,47.3893318 83.1786661,47.1120012 83.288,46.872 C83.3973339,46.6319988 83.5426658,46.4306675 83.724,46.268 C83.9053342,46.1053325 84.1119988,45.9826671 84.344,45.9 C84.5760012,45.8173329 84.8146654,45.776 85.06,45.776 C85.3640015,45.776 85.6373321,45.8199996 85.88,45.908 C86.1226679,45.9960004 86.3279992,46.1333324 86.496,46.32 C86.6640008,46.5066676 86.7933329,46.7466652 86.884,47.04 C86.9746671,47.3333348 87.02,47.6826646 87.02,48.088 Z M85.028,48.864 C85.1826674,48.864 85.3293326,48.8373336 85.468,48.784 C85.6066674,48.7306664 85.7266662,48.6520005 85.828,48.548 C85.9293338,48.4439995 86.009333,48.3173341 86.068,48.168 C86.126667,48.0186659 86.156,47.8506676 86.156,47.664 C86.156,47.263998 86.0613343,46.964001 85.872,46.764 C85.6826657,46.563999 85.4200017,46.464 85.084,46.464 C84.7639984,46.464 84.4960011,46.5666656 84.28,46.772 C84.0639989,46.9773344 83.956,47.279998 83.956,47.68 C83.956,47.8933344 83.9839997,48.0746659 84.04,48.224 C84.0960003,48.3733341 84.1719995,48.4959995 84.268,48.592 C84.3640005,48.6880005 84.4773327,48.7573331 84.608,48.8 C84.7386673,48.8426669 84.8786659,48.864 85.028,48.864 Z" id="ABCDEFGHIJKLMNOPQRST"></path>
        </g>
        <g id="Group_1_1_-Copy-4" transform="translate(34.000000, 100.000000)" fill-rule="nonzero">
            <g id="Shape_1" fill="#FF985F">
                <rect id="Rectangle-path" x="0.455289256" y="0.662597531" width="34.2357851" height="55.3000691"></rect>
            </g>
            <g id="Shape_1_copy" transform="translate(33.000000, 0.000000)" fill="#373733">
                <rect id="Rectangle-path" x="0.392086777" y="0.662597531" width="34.2374483" height="55.3000691"></rect>
            </g>
            <g id="Shape_1_copy_2" transform="translate(67.000000, 0.000000)" fill="url(#linearGradient-1)">
                <rect id="Rectangle-path" x="0.243333333" y="0.662597531" width="34.3066667" height="55.3000691"></rect>
            </g>
            <g id="Shape_1_copy_3" transform="translate(101.000000, 0.000000)" fill="#4DA8F8">
                <rect id="Rectangle-path" x="0.252376033" y="0.662597531" width="34.2374483" height="55.3000691"></rect>
            </g>
        </g>
    </g>
</svg>