<svg width="28" height="28" viewBox="0 0 28 28" fill="none" xmlns="http://www.w3.org/2000/svg">
<g clip-path="url(#clip0_125_19)">
<mask id="mask0_125_19" style="mask-type:luminance" maskUnits="userSpaceOnUse" x="0" y="0" width="28" height="28">
<path d="M28 0H0V28H28V0Z" fill="white"/>
</mask>
<g mask="url(#mask0_125_19)">
<mask id="mask1_125_19" style="mask-type:luminance" maskUnits="userSpaceOnUse" x="0" y="0" width="28" height="28">
<path d="M28 0H0V28H28V0Z" fill="white"/>
</mask>
<g mask="url(#mask1_125_19)">
<mask id="mask2_125_19" style="mask-type:luminance" maskUnits="userSpaceOnUse" x="0" y="0" width="28" height="28">
<path d="M28 0H0V28H28V0Z" fill="white"/>
</mask>
<g mask="url(#mask2_125_19)">
<mask id="mask3_125_19" style="mask-type:luminance" maskUnits="userSpaceOnUse" x="0" y="0" width="28" height="28">
<path d="M28 0H0V28H28V0Z" fill="white"/>
</mask>
<g mask="url(#mask3_125_19)">
<path d="M14 2C20.6274 2 26 7.37258 26 14C26 20.6274 20.6274 26 14 26C7.37258 26 2 20.6274 2 14C2 7.37258 7.37258 2 14 2Z" fill="#E26897" stroke="#E26897" stroke-width="3"/>
<path d="M10.8197 17.9556C11.0259 18.1599 11.2808 18.25 11.5472 18.25C11.8159 18.25 12.0646 18.1587 12.2824 17.9646L12.2917 17.9558L19.7205 10.6124C20.1295 10.2072 20.1297 9.56925 19.7207 9.16404C19.3131 8.76017 18.6736 8.7601 18.2659 9.16382C18.266 9.16375 18.2658 9.16389 18.2659 9.16382L11.5641 15.7873L8.84475 13.109C8.84484 13.1091 8.84466 13.1089 8.84475 13.109C8.43704 12.7053 7.79734 12.7051 7.38974 13.109C6.98077 13.5142 6.98077 14.1519 7.38974 14.5571L10.8197 17.9556Z" fill="white"/>
<path d="M10.8197 17.9556L10.9839 17.7899M10.8197 17.9556C11.0259 18.1599 11.2808 18.25 11.5472 18.25C11.8159 18.25 12.0646 18.1587 12.2824 17.9646L12.2917 17.9558L19.7205 10.6124C20.1295 10.2072 20.1297 9.56925 19.7207 9.16404C19.3131 8.76017 18.6736 8.7601 18.2659 9.16382M10.8197 17.9556L7.38974 14.5571C6.98077 14.1519 6.98077 13.5142 7.38974 13.109C7.79734 12.7051 8.43704 12.7053 8.84475 13.109M18.2659 9.16382C18.2658 9.16389 18.266 9.16375 18.2659 9.16382ZM18.2659 9.16382L11.5641 15.7873L8.84475 13.109M8.84475 13.109C8.84466 13.1089 8.84484 13.1091 8.84475 13.109Z" stroke="white" stroke-width="0.5"/>
</g>
</g>
</g>
</g>
</g>
<defs>
<clipPath id="clip0_125_19">
<rect width="28" height="28" fill="white"/>
</clipPath>
</defs>
</svg>
