<svg width="24" height="24" viewBox="0 0 24 24" fill="none" xmlns="http://www.w3.org/2000/svg">
<g clip-path="url(#clip0_26_3286)">
<path d="M4.99975 14C5.55204 14 5.99975 13.5523 5.99975 13C5.99975 12.4477 5.55204 12 4.99975 12C4.44747 12 3.99976 12.4477 3.99976 13C3.99976 13.5523 4.44747 14 4.99975 14Z" fill="black"/>
<path d="M1 10.0001C1.55228 10.0001 2 9.5524 2 9.00012C2 8.44784 1.55228 8.00012 1 8.00012C0.447715 8.00012 0 8.44784 0 9.00012C0 9.5524 0.447715 10.0001 1 10.0001Z" fill="black"/>
<path d="M4.99975 5.99987C5.55204 5.99987 5.99975 5.55216 5.99975 4.99988C5.99975 4.44759 5.55204 3.99988 4.99975 3.99988C4.44747 3.99988 3.99976 4.44759 3.99976 4.99988C3.99976 5.55216 4.44747 5.99987 4.99975 5.99987Z" fill="black"/>
<path d="M1 2C1.55228 2 2 1.55228 2 1C2 0.447715 1.55228 0 1 0C0.447715 0 0 0.447715 0 1C0 1.55228 0.447715 2 1 2Z" fill="black"/>
<path d="M22.9997 14C23.552 14 23.9997 13.5523 23.9997 13C23.9997 12.4477 23.552 12 22.9997 12C22.4475 12 21.9998 12.4477 21.9998 13C21.9998 13.5523 22.4475 14 22.9997 14Z" fill="black"/>
<path d="M19 10.0001C19.5523 10.0001 20 9.5524 20 9.00012C20 8.44784 19.5523 8.00012 19 8.00012C18.4477 8.00012 18 8.44784 18 9.00012C18 9.5524 18.4477 10.0001 19 10.0001Z" fill="black"/>
<path d="M22.9997 5.99987C23.552 5.99987 23.9997 5.55216 23.9997 4.99988C23.9997 4.44759 23.552 3.99988 22.9997 3.99988C22.4475 3.99988 21.9998 4.44759 21.9998 4.99988C21.9998 5.55216 22.4475 5.99987 22.9997 5.99987Z" fill="black"/>
<path d="M19 2C19.5523 2 20 1.55228 20 1C20 0.447715 19.5523 0 19 0C18.4477 0 18 0.447715 18 1C18 1.55228 18.4477 2 19 2Z" fill="black"/>
<path d="M13.9998 23.9999C14.552 23.9999 14.9998 23.5521 14.9998 22.9999C14.9998 22.4476 14.552 21.9999 13.9998 21.9999C13.4475 21.9999 12.9998 22.4476 12.9998 22.9999C12.9998 23.5521 13.4475 23.9999 13.9998 23.9999Z" fill="black"/>
<path d="M10 20C10.5523 20 11 19.5523 11 19C11 18.4477 10.5523 18 10 18C9.44771 18 9 18.4477 9 19C9 19.5523 9.44771 20 10 20Z" fill="black"/>
<path d="M13.9998 16.0001C14.552 16.0001 14.9998 15.5524 14.9998 15.0001C14.9998 14.4478 14.552 14.0001 13.9998 14.0001C13.4475 14.0001 12.9998 14.4478 12.9998 15.0001C12.9998 15.5524 13.4475 16.0001 13.9998 16.0001Z" fill="black"/>
<path d="M10 11.9999C10.5523 11.9999 11 11.5522 11 10.9999C11 10.4476 10.5523 9.99988 10 9.99988C9.44771 9.99988 9 10.4476 9 10.9999C9 11.5522 9.44771 11.9999 10 11.9999Z" fill="black"/>
<path d="M15.0002 3C14.4698 3 13.9611 2.78929 13.586 2.41421C13.2109 2.03914 13.0002 1.53043 13.0002 1C13.0002 0.734784 12.8949 0.48043 12.7073 0.292893C12.5198 0.105357 12.2655 0 12.0002 0C11.735 0 11.4807 0.105357 11.2931 0.292893C11.1056 0.48043 11.0002 0.734784 11.0002 1C11.0002 1.53043 10.7895 2.03914 10.4145 2.41421C10.0394 2.78929 9.53067 3 9.00024 3C8.73503 3 8.48067 3.10536 8.29314 3.29289C8.1056 3.48043 8.00024 3.73478 8.00024 4C8.00024 4.26522 8.1056 4.51957 8.29314 4.70711C8.48067 4.89464 8.73503 5 9.00024 5C9.53067 5 10.0394 5.21071 10.4145 5.58579C10.7895 5.96086 11.0002 6.46957 11.0002 7C11.0002 7.26522 11.1056 7.51957 11.2931 7.70711C11.4807 7.89464 11.735 8 12.0002 8C12.2655 8 12.5198 7.89464 12.7073 7.70711C12.8949 7.51957 13.0002 7.26522 13.0002 7C13.0002 6.46957 13.2109 5.96086 13.586 5.58579C13.9611 5.21071 14.4698 5 15.0002 5C15.2654 5 15.5198 4.89464 15.7073 4.70711C15.8949 4.51957 16.0002 4.26522 16.0002 4C16.0002 3.73478 15.8949 3.48043 15.7073 3.29289C15.5198 3.10536 15.2654 3 15.0002 3Z" fill="black"/>
<path d="M7 18.9999C6.46957 18.9999 5.96086 18.7892 5.58579 18.4141C5.21071 18.039 5 17.5303 5 16.9999C5 16.7347 4.89464 16.4803 4.70711 16.2928C4.51957 16.1052 4.26522 15.9999 4 15.9999C3.73478 15.9999 3.48043 16.1052 3.29289 16.2928C3.10536 16.4803 3 16.7347 3 16.9999C3 17.5303 2.78929 18.039 2.41421 18.4141C2.03914 18.7892 1.53043 18.9999 1 18.9999C0.734784 18.9999 0.48043 19.1052 0.292893 19.2928C0.105357 19.4803 0 19.7347 0 19.9999C0 20.2651 0.105357 20.5194 0.292893 20.707C0.48043 20.8945 0.734784 20.9999 1 20.9999C1.53043 20.9999 2.03914 21.2106 2.41421 21.5857C2.78929 21.9607 3 22.4694 3 22.9999C3 23.2651 3.10536 23.5194 3.29289 23.707C3.48043 23.8945 3.73478 23.9999 4 23.9999C4.26522 23.9999 4.51957 23.8945 4.70711 23.707C4.89464 23.5194 5 23.2651 5 22.9999C5 22.4694 5.21071 21.9607 5.58579 21.5857C5.96086 21.2106 6.46957 20.9999 7 20.9999C7.26522 20.9999 7.51957 20.8945 7.70711 20.707C7.89464 20.5194 8 20.2651 8 19.9999C8 19.7347 7.89464 19.4803 7.70711 19.2928C7.51957 19.1052 7.26522 18.9999 7 18.9999Z" fill="black"/>
<path d="M22.9997 18.9999C22.4693 18.9999 21.9606 18.7892 21.5855 18.4141C21.2105 18.039 20.9997 17.5303 20.9997 16.9999C20.9997 16.7347 20.8944 16.4803 20.7069 16.2928C20.5193 16.1052 20.265 15.9999 19.9997 15.9999C19.7345 15.9999 19.4802 16.1052 19.2926 16.2928C19.1051 16.4803 18.9998 16.7347 18.9998 16.9999C18.9998 17.5303 18.789 18.039 18.414 18.4141C18.0389 18.7892 17.5302 18.9999 16.9998 18.9999C16.7345 18.9999 16.4802 19.1052 16.2926 19.2928C16.1051 19.4803 15.9998 19.7347 15.9998 19.9999C15.9998 20.2651 16.1051 20.5194 16.2926 20.707C16.4802 20.8945 16.7345 20.9999 16.9998 20.9999C17.5302 20.9999 18.0389 21.2106 18.414 21.5857C18.789 21.9607 18.9998 22.4694 18.9998 22.9999C18.9998 23.2651 19.1051 23.5194 19.2926 23.707C19.4802 23.8945 19.7345 23.9999 19.9997 23.9999C20.265 23.9999 20.5193 23.8945 20.7069 23.707C20.8944 23.5194 20.9997 23.2651 20.9997 22.9999C20.9997 22.4694 21.2105 21.9607 21.5855 21.5857C21.9606 21.2106 22.4693 20.9999 22.9997 20.9999C23.265 20.9999 23.5193 20.8945 23.7068 20.707C23.8944 20.5194 23.9997 20.2651 23.9997 19.9999C23.9997 19.7347 23.8944 19.4803 23.7068 19.2928C23.5193 19.1052 23.265 18.9999 22.9997 18.9999Z" fill="black"/>
</g>
<defs>
<clipPath id="clip0_26_3286">
<rect width="24" height="24" fill="white"/>
</clipPath>
</defs>
</svg>
