<svg width="270" height="74" viewBox="0 0 270 74" fill="none" xmlns="http://www.w3.org/2000/svg">
<g filter="url(#filter0_d_809_10)">
<path d="M8.75418 20L5.62291 4.04089L20 11.9182L12.9181 13.9727L8.75418 20Z" fill="black"/>
<path d="M8.75418 20L5.62291 4.04089L20 11.9182L12.9181 13.9727L8.75418 20Z" stroke="white"/>
</g>
<g filter="url(#filter1_d_809_10)">
<path d="M18 22C18 20.8954 18.8954 20 20 20H236C247.046 20 256 28.9543 256 40V40C256 51.0457 247.046 60 236 60H42C28.7452 60 18 49.2548 18 36V22Z" fill="#DD2590" shape-rendering="crispEdges"/>
<path d="M20 21H236C246.493 21 255 29.5066 255 40C255 50.4934 246.493 59 236 59H42C29.2975 59 19 48.7025 19 36V22C19 21.4477 19.4477 21 20 21Z" stroke="#C11574" stroke-width="2" shape-rendering="crispEdges"/>
<path opacity="0.8" d="M44.9432 38.1477H43.1705C43.1023 37.7689 42.9754 37.4356 42.7898 37.1477C42.6042 36.8598 42.3769 36.6155 42.108 36.4148C41.839 36.214 41.5379 36.0625 41.2045 35.9602C40.875 35.858 40.5246 35.8068 40.1534 35.8068C39.483 35.8068 38.8826 35.9754 38.3523 36.3125C37.8258 36.6496 37.4091 37.1439 37.1023 37.7955C36.7992 38.447 36.6477 39.2424 36.6477 40.1818C36.6477 41.1288 36.7992 41.928 37.1023 42.5795C37.4091 43.2311 37.8277 43.7235 38.358 44.0568C38.8883 44.3902 39.4848 44.5568 40.1477 44.5568C40.5152 44.5568 40.8636 44.5076 41.1932 44.4091C41.5265 44.3068 41.8277 44.1572 42.0966 43.9602C42.3655 43.7633 42.5928 43.5227 42.7784 43.2386C42.9678 42.9508 43.0985 42.6212 43.1705 42.25L44.9432 42.2557C44.8485 42.8277 44.6648 43.3542 44.392 43.8352C44.1231 44.3125 43.7765 44.7254 43.3523 45.0739C42.9318 45.4186 42.4508 45.6856 41.9091 45.875C41.3674 46.0644 40.7765 46.1591 40.1364 46.1591C39.1288 46.1591 38.2311 45.9205 37.4432 45.4432C36.6553 44.9621 36.0341 44.2746 35.5795 43.3807C35.1288 42.4867 34.9034 41.4205 34.9034 40.1818C34.9034 38.9394 35.1307 37.8731 35.5852 36.983C36.0398 36.089 36.661 35.4034 37.4489 34.9261C38.2367 34.4451 39.1326 34.2045 40.1364 34.2045C40.7538 34.2045 41.3295 34.2936 41.8636 34.4716C42.4015 34.6458 42.8845 34.9034 43.3125 35.2443C43.7405 35.5814 44.0947 35.9943 44.375 36.483C44.6553 36.9678 44.8447 37.5227 44.9432 38.1477ZM48.6065 40.8182V46H46.9077V34.3636H48.5838V38.6932H48.6918C48.8963 38.2235 49.2088 37.8504 49.6293 37.5739C50.0497 37.2973 50.599 37.1591 51.277 37.1591C51.8755 37.1591 52.3982 37.2822 52.8452 37.5284C53.2959 37.7746 53.6444 38.142 53.8906 38.6307C54.1406 39.1155 54.2656 39.7216 54.2656 40.4489V46H52.5668V40.6534C52.5668 40.0133 52.402 39.517 52.0724 39.1648C51.7429 38.8087 51.2846 38.6307 50.6974 38.6307C50.2959 38.6307 49.9361 38.7159 49.6179 38.8864C49.3035 39.0568 49.0554 39.3068 48.8736 39.6364C48.6955 39.9621 48.6065 40.3561 48.6065 40.8182ZM60.294 46.1761C59.4342 46.1761 58.6937 45.9924 58.0724 45.625C57.455 45.2538 56.9777 44.733 56.6406 44.0625C56.3073 43.3883 56.1406 42.5985 56.1406 41.6932C56.1406 40.7992 56.3073 40.0114 56.6406 39.3295C56.9777 38.6477 57.4474 38.1155 58.0497 37.733C58.6558 37.3504 59.3641 37.1591 60.1747 37.1591C60.6671 37.1591 61.1444 37.2405 61.6065 37.4034C62.0687 37.5663 62.4834 37.822 62.8509 38.1705C63.2183 38.5189 63.508 38.9716 63.7202 39.5284C63.9323 40.0814 64.0384 40.7538 64.0384 41.5455V42.1477H57.1009V40.875H62.3736C62.3736 40.428 62.2827 40.0322 62.1009 39.6875C61.919 39.339 61.6634 39.0644 61.3338 38.8636C61.008 38.6629 60.6255 38.5625 60.1861 38.5625C59.7088 38.5625 59.2921 38.6799 58.9361 38.9148C58.5838 39.1458 58.3111 39.4489 58.1179 39.8239C57.9285 40.1951 57.8338 40.5985 57.8338 41.0341V42.0284C57.8338 42.6117 57.9361 43.108 58.1406 43.517C58.349 43.9261 58.6387 44.2386 59.0099 44.4545C59.3812 44.6667 59.8149 44.7727 60.3111 44.7727C60.633 44.7727 60.9266 44.7273 61.1918 44.6364C61.4569 44.5417 61.6861 44.4015 61.8793 44.2159C62.0724 44.0303 62.2202 43.8011 62.3224 43.5284L63.9304 43.8182C63.8016 44.2917 63.5705 44.7064 63.2372 45.0625C62.9077 45.4148 62.4929 45.6894 61.9929 45.8864C61.4967 46.0795 60.9304 46.1761 60.294 46.1761ZM69.5994 46.1761C68.7547 46.1761 68.0275 45.9848 67.4176 45.6023C66.8116 45.2159 66.3456 44.6837 66.0199 44.0057C65.6941 43.3277 65.5312 42.5511 65.5312 41.6761C65.5312 40.7898 65.6979 40.0076 66.0312 39.3295C66.3646 38.6477 66.8343 38.1155 67.4403 37.733C68.0464 37.3504 68.7604 37.1591 69.5824 37.1591C70.2453 37.1591 70.8362 37.2822 71.3551 37.5284C71.8741 37.7708 72.2926 38.1117 72.6108 38.5511C72.9328 38.9905 73.1241 39.5038 73.1847 40.0909H71.5312C71.4403 39.6818 71.232 39.3295 70.9062 39.0341C70.5843 38.7386 70.1525 38.5909 69.6108 38.5909C69.1373 38.5909 68.7225 38.7159 68.3665 38.9659C68.0142 39.2121 67.7396 39.5644 67.5426 40.0227C67.3456 40.4773 67.2472 41.0152 67.2472 41.6364C67.2472 42.2727 67.3438 42.822 67.5369 43.2841C67.7301 43.7462 68.0028 44.1042 68.3551 44.358C68.7112 44.6117 69.1297 44.7386 69.6108 44.7386C69.9328 44.7386 70.2244 44.6799 70.4858 44.5625C70.7509 44.4413 70.9725 44.2689 71.1506 44.0455C71.3324 43.822 71.4593 43.553 71.5312 43.2386H73.1847C73.1241 43.803 72.9403 44.3068 72.6335 44.75C72.3267 45.1932 71.9157 45.5417 71.4006 45.7955C70.8892 46.0492 70.2888 46.1761 69.5994 46.1761ZM76.5639 43.0398L76.5526 40.9659H76.848L80.3253 37.2727H82.3594L78.3935 41.4773H78.1264L76.5639 43.0398ZM75.0014 46V34.3636H76.7003V46H75.0014ZM80.5128 46L77.3878 41.8523L78.5582 40.6648L82.598 46H80.5128ZM91.8182 46.1761C91 46.1761 90.286 45.9886 89.6761 45.6136C89.0663 45.2386 88.5928 44.714 88.2557 44.0398C87.9186 43.3655 87.75 42.5777 87.75 41.6761C87.75 40.7708 87.9186 39.9792 88.2557 39.3011C88.5928 38.6231 89.0663 38.0966 89.6761 37.7216C90.286 37.3466 91 37.1591 91.8182 37.1591C92.6364 37.1591 93.3504 37.3466 93.9602 37.7216C94.5701 38.0966 95.0436 38.6231 95.3807 39.3011C95.7178 39.9792 95.8864 40.7708 95.8864 41.6761C95.8864 42.5777 95.7178 43.3655 95.3807 44.0398C95.0436 44.714 94.5701 45.2386 93.9602 45.6136C93.3504 45.9886 92.6364 46.1761 91.8182 46.1761ZM91.8239 44.75C92.3542 44.75 92.7936 44.6098 93.142 44.3295C93.4905 44.0492 93.7481 43.6761 93.9148 43.2102C94.0852 42.7443 94.1705 42.2311 94.1705 41.6705C94.1705 41.1136 94.0852 40.6023 93.9148 40.1364C93.7481 39.6667 93.4905 39.2898 93.142 39.0057C92.7936 38.7216 92.3542 38.5795 91.8239 38.5795C91.2898 38.5795 90.8466 38.7216 90.4943 39.0057C90.1458 39.2898 89.8864 39.6667 89.7159 40.1364C89.5492 40.6023 89.4659 41.1136 89.4659 41.6705C89.4659 42.2311 89.5492 42.7443 89.7159 43.2102C89.8864 43.6761 90.1458 44.0492 90.4943 44.3295C90.8466 44.6098 91.2898 44.75 91.8239 44.75ZM103.311 42.3807V37.2727H105.016V46H103.345V44.4886H103.254C103.054 44.9545 102.732 45.3428 102.288 45.6534C101.849 45.9602 101.302 46.1136 100.646 46.1136C100.086 46.1136 99.5895 45.9905 99.1577 45.7443C98.7296 45.4943 98.3925 45.125 98.1463 44.6364C97.9039 44.1477 97.7827 43.5436 97.7827 42.8239V37.2727H99.4815V42.6193C99.4815 43.214 99.6463 43.6875 99.9759 44.0398C100.305 44.392 100.733 44.5682 101.26 44.5682C101.578 44.5682 101.894 44.4886 102.209 44.3295C102.527 44.1705 102.79 43.9299 102.999 43.608C103.211 43.286 103.315 42.8769 103.311 42.3807ZM111.372 37.2727V38.6364H106.605V37.2727H111.372ZM107.884 35.1818H109.582V43.4375C109.582 43.767 109.632 44.0152 109.73 44.1818C109.829 44.3447 109.955 44.4564 110.111 44.517C110.27 44.5739 110.442 44.6023 110.628 44.6023C110.764 44.6023 110.884 44.5928 110.986 44.5739C111.088 44.5549 111.168 44.5398 111.224 44.5284L111.531 45.9318C111.433 45.9697 111.293 46.0076 111.111 46.0455C110.929 46.0871 110.702 46.1098 110.429 46.1136C109.982 46.1212 109.565 46.0417 109.179 45.875C108.793 45.7083 108.48 45.4508 108.241 45.1023C108.003 44.7538 107.884 44.3163 107.884 43.7898V35.1818ZM117.486 46V37.2727H119.116V38.6932H119.224C119.406 38.2121 119.704 37.8371 120.116 37.5682C120.529 37.2955 121.024 37.1591 121.599 37.1591C122.183 37.1591 122.671 37.2955 123.065 37.5682C123.463 37.8409 123.757 38.2159 123.946 38.6932H124.037C124.245 38.2273 124.577 37.8561 125.031 37.5795C125.486 37.2992 126.027 37.1591 126.656 37.1591C127.448 37.1591 128.094 37.4072 128.594 37.9034C129.098 38.3996 129.349 39.1477 129.349 40.1477V46H127.651V40.3068C127.651 39.7159 127.49 39.2879 127.168 39.0227C126.846 38.7576 126.461 38.625 126.014 38.625C125.461 38.625 125.031 38.7955 124.724 39.1364C124.418 39.4735 124.264 39.9072 124.264 40.4375V46H122.571V40.1989C122.571 39.7254 122.423 39.3447 122.128 39.0568C121.832 38.7689 121.448 38.625 120.974 38.625C120.652 38.625 120.355 38.7102 120.082 38.8807C119.813 39.0473 119.596 39.2803 119.429 39.5795C119.266 39.8788 119.185 40.2254 119.185 40.6193V46H117.486ZM132.388 49.2727C132.134 49.2727 131.903 49.2519 131.695 49.2102C131.486 49.1723 131.331 49.1307 131.229 49.0852L131.638 47.6932C131.948 47.7765 132.225 47.8125 132.467 47.8011C132.71 47.7898 132.924 47.6989 133.109 47.5284C133.299 47.358 133.465 47.0795 133.609 46.6932L133.82 46.1136L130.626 37.2727H132.445L134.655 44.0455H134.746L136.956 37.2727H138.78L135.183 47.1648C135.017 47.6193 134.804 48.0038 134.547 48.3182C134.289 48.6364 133.982 48.875 133.626 49.0341C133.27 49.1932 132.857 49.2727 132.388 49.2727ZM146.503 46L143.935 37.2727H145.69L147.401 43.6818H147.486L149.202 37.2727H150.957L152.662 43.6534H152.747L154.446 37.2727H156.202L153.639 46H151.906L150.134 39.6989H150.003L148.23 46H146.503ZM161.224 46.1761C160.406 46.1761 159.692 45.9886 159.082 45.6136C158.473 45.2386 157.999 44.714 157.662 44.0398C157.325 43.3655 157.156 42.5777 157.156 41.6761C157.156 40.7708 157.325 39.9792 157.662 39.3011C157.999 38.6231 158.473 38.0966 159.082 37.7216C159.692 37.3466 160.406 37.1591 161.224 37.1591C162.043 37.1591 162.757 37.3466 163.366 37.7216C163.976 38.0966 164.45 38.6231 164.787 39.3011C165.124 39.9792 165.293 40.7708 165.293 41.6761C165.293 42.5777 165.124 43.3655 164.787 44.0398C164.45 44.714 163.976 45.2386 163.366 45.6136C162.757 45.9886 162.043 46.1761 161.224 46.1761ZM161.23 44.75C161.76 44.75 162.2 44.6098 162.548 44.3295C162.897 44.0492 163.154 43.6761 163.321 43.2102C163.491 42.7443 163.577 42.2311 163.577 41.6705C163.577 41.1136 163.491 40.6023 163.321 40.1364C163.154 39.6667 162.897 39.2898 162.548 39.0057C162.2 38.7216 161.76 38.5795 161.23 38.5795C160.696 38.5795 160.253 38.7216 159.901 39.0057C159.552 39.2898 159.293 39.6667 159.122 40.1364C158.955 40.6023 158.872 41.1136 158.872 41.6705C158.872 42.2311 158.955 42.7443 159.122 43.2102C159.293 43.6761 159.552 44.0492 159.901 44.3295C160.253 44.6098 160.696 44.75 161.23 44.75ZM167.189 46V37.2727H168.831V38.6591H168.922C169.081 38.1894 169.361 37.8201 169.763 37.5511C170.168 37.2784 170.626 37.142 171.138 37.142C171.244 37.142 171.369 37.1458 171.513 37.1534C171.661 37.161 171.776 37.1705 171.859 37.1818V38.8068C171.791 38.7879 171.67 38.767 171.496 38.7443C171.321 38.7178 171.147 38.7045 170.973 38.7045C170.571 38.7045 170.214 38.7898 169.899 38.9602C169.589 39.1269 169.342 39.3598 169.161 39.6591C168.979 39.9545 168.888 40.2917 168.888 40.6705V46H167.189ZM174.892 43.0398L174.881 40.9659H175.176L178.653 37.2727H180.688L176.722 41.4773H176.455L174.892 43.0398ZM173.33 46V34.3636H175.028V46H173.33ZM178.841 46L175.716 41.8523L176.886 40.6648L180.926 46H178.841ZM186.607 46V34.3636H188.305V38.6875H188.408C188.506 38.5057 188.648 38.2955 188.834 38.0568C189.019 37.8182 189.277 37.6098 189.607 37.4318C189.936 37.25 190.372 37.1591 190.913 37.1591C191.618 37.1591 192.247 37.3371 192.8 37.6932C193.353 38.0492 193.786 38.5625 194.101 39.233C194.419 39.9034 194.578 40.7102 194.578 41.6534C194.578 42.5966 194.421 43.4053 194.107 44.0795C193.792 44.75 193.36 45.267 192.811 45.6307C192.262 45.9905 191.635 46.1705 190.93 46.1705C190.4 46.1705 189.966 46.0814 189.629 45.9034C189.296 45.7254 189.035 45.517 188.845 45.2784C188.656 45.0398 188.51 44.8277 188.408 44.642H188.266V46H186.607ZM188.271 41.6364C188.271 42.25 188.36 42.7879 188.538 43.25C188.716 43.7121 188.974 44.0739 189.311 44.3352C189.648 44.5928 190.061 44.7216 190.55 44.7216C191.057 44.7216 191.482 44.5871 191.822 44.3182C192.163 44.0455 192.421 43.6761 192.595 43.2102C192.773 42.7443 192.862 42.2197 192.862 41.6364C192.862 41.0606 192.775 40.5436 192.601 40.0852C192.43 39.6269 192.173 39.2652 191.828 39C191.487 38.7348 191.061 38.6023 190.55 38.6023C190.057 38.6023 189.641 38.7292 189.3 38.983C188.963 39.2367 188.707 39.5909 188.533 40.0455C188.358 40.5 188.271 41.0303 188.271 41.6364ZM200.247 46.1761C199.387 46.1761 198.647 45.9924 198.026 45.625C197.408 45.2538 196.931 44.733 196.594 44.0625C196.26 43.3883 196.094 42.5985 196.094 41.6932C196.094 40.7992 196.26 40.0114 196.594 39.3295C196.931 38.6477 197.401 38.1155 198.003 37.733C198.609 37.3504 199.317 37.1591 200.128 37.1591C200.62 37.1591 201.098 37.2405 201.56 37.4034C202.022 37.5663 202.437 37.822 202.804 38.1705C203.171 38.5189 203.461 38.9716 203.673 39.5284C203.885 40.0814 203.991 40.7538 203.991 41.5455V42.1477H197.054V40.875H202.327C202.327 40.428 202.236 40.0322 202.054 39.6875C201.872 39.339 201.616 39.0644 201.287 38.8636C200.961 38.6629 200.579 38.5625 200.139 38.5625C199.662 38.5625 199.245 38.6799 198.889 38.9148C198.537 39.1458 198.264 39.4489 198.071 39.8239C197.882 40.1951 197.787 40.5985 197.787 41.0341V42.0284C197.787 42.6117 197.889 43.108 198.094 43.517C198.302 43.9261 198.592 44.2386 198.963 44.4545C199.334 44.6667 199.768 44.7727 200.264 44.7727C200.586 44.7727 200.88 44.7273 201.145 44.6364C201.41 44.5417 201.639 44.4015 201.832 44.2159C202.026 44.0303 202.173 43.8011 202.276 43.5284L203.884 43.8182C203.755 44.2917 203.524 44.7064 203.19 45.0625C202.861 45.4148 202.446 45.6894 201.946 45.8864C201.45 46.0795 200.884 46.1761 200.247 46.1761ZM207.575 34.3636V46H205.876V34.3636H207.575ZM213.537 46.1761C212.719 46.1761 212.005 45.9886 211.395 45.6136C210.785 45.2386 210.312 44.714 209.974 44.0398C209.637 43.3655 209.469 42.5777 209.469 41.6761C209.469 40.7708 209.637 39.9792 209.974 39.3011C210.312 38.6231 210.785 38.0966 211.395 37.7216C212.005 37.3466 212.719 37.1591 213.537 37.1591C214.355 37.1591 215.069 37.3466 215.679 37.7216C216.289 38.0966 216.762 38.6231 217.099 39.3011C217.437 39.9792 217.605 40.7708 217.605 41.6761C217.605 42.5777 217.437 43.3655 217.099 44.0398C216.762 44.714 216.289 45.2386 215.679 45.6136C215.069 45.9886 214.355 46.1761 213.537 46.1761ZM213.543 44.75C214.073 44.75 214.512 44.6098 214.861 44.3295C215.209 44.0492 215.467 43.6761 215.634 43.2102C215.804 42.7443 215.889 42.2311 215.889 41.6705C215.889 41.1136 215.804 40.6023 215.634 40.1364C215.467 39.6667 215.209 39.2898 214.861 39.0057C214.512 38.7216 214.073 38.5795 213.543 38.5795C213.009 38.5795 212.565 38.7216 212.213 39.0057C211.865 39.2898 211.605 39.6667 211.435 40.1364C211.268 40.6023 211.185 41.1136 211.185 41.6705C211.185 42.2311 211.268 42.7443 211.435 43.2102C211.605 43.6761 211.865 44.0492 212.213 44.3295C212.565 44.6098 213.009 44.75 213.543 44.75ZM221.128 46L218.56 37.2727H220.315L222.026 43.6818H222.111L223.827 37.2727H225.582L227.287 43.6534H227.372L229.071 37.2727H230.827L228.264 46H226.531L224.759 39.6989H224.628L222.855 46H221.128ZM234.581 34.3636L234.433 42.6534H232.859L232.712 34.3636H234.581ZM233.649 46.108C233.335 46.108 233.066 45.9981 232.842 45.7784C232.619 45.5549 232.509 45.286 232.513 44.9716C232.509 44.661 232.619 44.3958 232.842 44.1761C233.066 43.9527 233.335 43.8409 233.649 43.8409C233.956 43.8409 234.221 43.9527 234.445 44.1761C234.668 44.3958 234.782 44.661 234.786 44.9716C234.782 45.1799 234.727 45.3712 234.621 45.5455C234.518 45.7159 234.382 45.8523 234.212 45.9545C234.041 46.0568 233.854 46.108 233.649 46.108Z" fill="white"/>
</g>
<defs>
<filter id="filter0_d_809_10" x="2.92493" y="2.09058" width="20.3718" height="22.1733" filterUnits="userSpaceOnUse" color-interpolation-filters="sRGB">
<feFlood flood-opacity="0" result="BackgroundImageFix"/>
<feColorMatrix in="SourceAlpha" type="matrix" values="0 0 0 0 0 0 0 0 0 0 0 0 0 0 0 0 0 0 127 0" result="hardAlpha"/>
<feOffset dy="1"/>
<feGaussianBlur stdDeviation="1"/>
<feComposite in2="hardAlpha" operator="out"/>
<feColorMatrix type="matrix" values="0 0 0 0 0 0 0 0 0 0 0 0 0 0 0 0 0 0 0.25 0"/>
<feBlend mode="normal" in2="BackgroundImageFix" result="effect1_dropShadow_809_10"/>
<feBlend mode="normal" in="SourceGraphic" in2="effect1_dropShadow_809_10" result="shape"/>
</filter>
<filter id="filter1_d_809_10" x="12" y="14" width="258" height="60" filterUnits="userSpaceOnUse" color-interpolation-filters="sRGB">
<feFlood flood-opacity="0" result="BackgroundImageFix"/>
<feColorMatrix in="SourceAlpha" type="matrix" values="0 0 0 0 0 0 0 0 0 0 0 0 0 0 0 0 0 0 127 0" result="hardAlpha"/>
<feOffset dx="4" dy="4"/>
<feGaussianBlur stdDeviation="5"/>
<feComposite in2="hardAlpha" operator="out"/>
<feColorMatrix type="matrix" values="0 0 0 0 0.866667 0 0 0 0 0.145098 0 0 0 0 0.564706 0 0 0 0.16 0"/>
<feBlend mode="normal" in2="BackgroundImageFix" result="effect1_dropShadow_809_10"/>
<feBlend mode="normal" in="SourceGraphic" in2="effect1_dropShadow_809_10" result="shape"/>
</filter>
</defs>
</svg>
