<svg width="48" height="48" viewBox="0 0 48 48" fill="none" xmlns="http://www.w3.org/2000/svg">
<path d="M24 0C37.2548 0 48 10.7452 48 24C48 37.2548 37.2548 48 24 48C10.7452 48 0 37.2548 0 24C0 10.7452 10.7452 0 24 0ZM33.4844 18.5918C32.0083 18.5918 30.6257 19.1654 29.583 20.2021L20.0742 29.7051L21.5566 31.1875L31.0586 21.6846C32.3943 20.3489 34.5685 20.349 35.8984 21.6846C36.5428 22.329 36.9003 23.1906 36.9004 24.1045C36.9004 25.0184 36.5428 25.88 35.8984 26.5244L27.6963 34.7266L29.1787 36.209L37.3799 28.0059C39.5358 25.8557 39.5358 22.3523 37.3857 20.2021C36.343 19.1596 34.9605 18.5918 33.4844 18.5918ZM23.2598 32.8457C21.924 34.1815 19.7557 34.1815 18.4199 32.8457L17.6816 32.1074L16.2002 33.5898L16.9375 34.3281C17.9803 35.371 19.3635 35.9394 20.8398 35.9395C22.316 35.9394 23.6984 35.3649 24.7412 34.3281L34.2441 24.8252L32.7617 23.3428L23.2598 32.8457ZM10.6113 20.2021C8.46155 22.3522 8.46171 25.8557 10.6113 28.0059C11.6541 29.0487 13.0374 29.6172 14.5137 29.6172C15.9899 29.6171 17.3723 29.0428 18.415 28.0059L27.9238 18.5029L26.4414 17.0205L16.9326 26.5234C15.5969 27.8592 13.4295 27.8592 12.0938 26.5234C10.7584 25.1877 10.7583 23.0144 12.0938 21.6846L20.2959 13.4824L18.8135 12L10.6113 20.2021ZM27.1621 12.2705C25.686 12.2707 24.3034 12.845 23.2607 13.8818L13.752 23.3838L15.2344 24.8662L24.7373 15.3633C25.3816 14.7191 26.2427 14.3615 27.1562 14.3613C28.07 14.3613 28.9318 14.7191 29.5762 15.3633L30.3145 16.1016L31.7969 14.6191L31.0586 13.8818C30.0216 12.8391 28.6325 12.2705 27.1621 12.2705Z" fill="#413C3C"/>
</svg>
