<svg width="7" height="7" viewBox="0 0 7 7" fill="none" xmlns="http://www.w3.org/2000/svg">
<path d="M6.69471 5.28071C6.79022 5.37296 6.86641 5.4833 6.91881 5.60531C6.97122 5.72731 6.99881 5.85853 6.99996 5.99131C7.00112 6.12409 6.97582 6.25577 6.92554 6.37867C6.87525 6.50156 6.801 6.61321 6.70711 6.70711C6.61322 6.801 6.50156 6.87525 6.37867 6.92553C6.25577 6.97581 6.12409 7.00112 5.99131 6.99996C5.85853 6.99881 5.72731 6.97122 5.60531 6.91881C5.4833 6.86641 5.37296 6.79022 5.28071 6.69471L3.48771 4.90171L1.69471 6.69471C1.50611 6.87687 1.25351 6.97766 0.991312 6.97539C0.729115 6.97311 0.478302 6.86794 0.292894 6.68253C0.107486 6.49712 0.00231622 6.24631 3.78027e-05 5.98411C-0.00224062 5.72192 0.0985537 5.46931 0.280712 5.28071L2.07371 3.48771L0.280712 1.69471C0.0985537 1.50611 -0.00224062 1.25351 3.78027e-05 0.991311C0.00231622 0.729114 0.107486 0.478301 0.292894 0.292893C0.478302 0.107485 0.729115 0.00231622 0.991312 3.78026e-05C1.25351 -0.00224062 1.50611 0.0985537 1.69471 0.280712L3.48771 2.07371L5.28071 0.280712C5.46931 0.0985537 5.72192 -0.00224062 5.98411 3.78026e-05C6.24631 0.00231622 6.49712 0.107485 6.68253 0.292893C6.86794 0.478301 6.97311 0.729114 6.97539 0.991311C6.97767 1.25351 6.87687 1.50611 6.69471 1.69471L4.90171 3.48771L6.69471 5.28071Z" fill="black"/>
</svg>
